<?xml version="1.0" encoding="utf-8"?>
<!-- Generator: Adobe Illustrator 25.2.3, SVG Export Plug-In . SVG Version: 6.00 Build 0)  -->
<svg version="1.1" id="Layer_1" xmlns="http://www.w3.org/2000/svg" xmlns:xlink="http://www.w3.org/1999/xlink" x="0px" y="0px"
	 viewBox="0 0 364.2 124.3" style="enable-background:new 0 0 364.2 124.3;" xml:space="preserve">
<style type="text/css">
	.st0{fill:#6D6F6F;}
	.st1{fill:#137DB9;}
	.st2{fill:#FFC70E;}
</style>
<path class="st0" d="M65.3,30.5c-0.1-3.1-0.7-6.2-1.8-9.2c-1.1-2.7-2.7-5.2-4.8-7.3c-1.5-1.4-3.2-2.4-5.1-3.2
	c-1.9-0.8-3.8-1.2-5.8-1.3c-2-0.1-3.9,0-5.8,0.5c-2,0.6-3.9,1.3-5.8,2.2c-1.8,0.8-3.5,1.6-5.1,2.7c-1.6,1-3.2,2.1-4.7,3.3
	c-5.9,4.9-10.9,10.8-14.9,17.3c-2,3.3-3.8,6.7-5.3,10.2c-0.8,1.8-1.5,3.5-2.1,5.4c-0.3,0.9-0.6,1.8-0.9,2.8s-0.6,1.8-0.8,2.8
	c-1,3.7-1.7,7.6-2.1,11.4c-0.1,1-0.1,1.9-0.2,2.9s-0.1,1.9,0,2.9c-0.1,2-0.1,4.1,0,6.1c0.2,2.3,0.6,4.5,1.4,6.7
	c1.3,3.4,3.3,6.5,5.7,9.2c2.2,1.7,4.7,3,7.3,3.8c-2.4-1.4-4.6-3-6.7-4.9c-2.1-2.6-3.7-5.5-4.8-8.6C2,82.8,1.5,75.7,1.6,73.8
	c0-0.9,0.1-1.9,0.2-2.8s0.2-1.9,0.3-2.8c0.2-1.9,0.6-3.7,0.9-5.6c0.2-0.9,0.4-1.8,0.6-2.7L4,58.6l0.4-1.3
	c0.6-1.9,6.1-16.2,14.5-26.5c5.3-6.3,11.7-11.5,18.9-15.4c1.6-0.7,3.3-1.3,5-1.7c1.7-0.4,3.5-0.5,5.2-0.5c1.7,0.1,3.4,0.4,5.1,1.1
	c1.4,0.4,2.7,1.1,3.9,2c1.9,1.4,3.6,3.1,4.9,5.1C63.4,24.3,64.6,27.4,65.3,30.5L65.3,30.5z M5.3,88.2c0,0,7.7,15.5,29.4,2.6
	c8.5-5,23.5-24.2,27.6-42c3.9-16.8-2.3-28.4-2.3-28.4s8.2,10.1,3,34.1c-2.7,12.5-18.3,30.5-18.3,30.5s-10.6,13.3-24.5,14
	C9.4,99.5,5.3,88.2,5.3,88.2L5.3,88.2z M7.3,108.7c3.3,1.3,6.8,1.8,10.3,1.7c5.8-0.3,13.4-2.9,20-7.8c7.6-5.7,15.9-15.1,20.9-22.8
	c2.9-4.3,5.2-9,6.9-13.9c0,0,12.7-27.5,3.7-50.5C67.6,12,63.3,5.7,57.8,2.9c-6.4-3.2-14-2.7-14-2.7s11.3-1.3,17.1,2.8
	c5.3,3.6,9.1,8.9,11,15c0.9,4.1,1.5,8.3,1.9,12.5c0.5,6.5,0.2,13.1-0.9,19.5c-2.7,14.2-12.6,31-12.6,31S49,99.6,35,106.9
	C15.9,116.9,7.2,108.7,7.3,108.7L7.3,108.7z M27,116.9c0,0,19,1.8,36-17.3c4.2-4.7,8.1-9.8,11.5-15.1c4.3-6.8,5.9-11,6.6-14.8
	c1.2-6.6,5.2-19.7,4.9-31.3c-0.4-8.5-2.1-16.9-5.3-24.9l2.5,14.1l-4.6,0.1c0,0-0.2,0.8,0.2,0.9c2.1,0.2,4.7,0.7,4.8,0.9
	c0.2,3,0.3,5.9,0.2,8.9c-0.6,11.7-5.5,24.7-6.8,31.2c-0.7,3.6-2.8,8.7-5.4,13.6c-1.2,2.1-2.5,4.1-3.9,6c-0.1,0.1-7.7-3-7.7-2.9
	c-0.2,0.3-0.2,0.3-0.5,0.6s6.9,4,6.7,4.3c-1.4,1.8-2.6,3.2-3.1,3.9c-1.2,1.8-2.6,3.5-4.1,5c-0.1,0.1-6.2-4.2-6.3-4
	c-0.3,0.3-0.3,0.3-0.6,0.6c-0.1,0.1,5.4,4.5,5.3,4.6C44.7,114,27,116.9,27,116.9z M31.9,122.3c5.1-1.1,10.1-2.6,15-4.5
	c6.1-2.6,12-5.8,17.3-9.8c1.1-0.9,2.8-2.3,4.8-4.1c0.1-0.1-4.5-5.8-4.4-5.9c0.3-0.5,0.6-0.9,1-1.4c0.1-0.1,5.5,5.2,5.6,5.1
	c2.6-2.6,5.1-5.3,7.4-8.2c0,0-5.5-6.7-5.5-6.7c0.6-0.8,0.6-0.8,1.2-1.6c0,0,6.3,5.7,6.3,5.7c2.4-3.4,4.6-7,6.5-10.7
	c0,0,8.1-23.4,8.6-31.2c0.1-1.3,0.2-3.2,0.3-5.3c0,0-9.9-6.7-9.9-6.8c0-0.4-0.2-1.9-0.2-2.3c0-0.1,10.2,6.7,10.2,6.6
	c0.1-3.4-0.1-6.8-0.6-10.2c-0.7-4.7-1.9-9.2-3.6-13.6c2.4,4.1,4.2,8.6,5.3,13.3c0.8,3.5,1.4,7.1,1.5,10.6c0.1,3.9-0.6,7.6-0.7,9.5
	c-0.3,8.3-7.7,31.2-7.7,31.2c-1.9,3.7-4.1,7.3-6.5,10.8c1,0.5,2.1,0.8,3.2,1c2,0.4,4.4,0.7,4.4,0.7c-0.6,0.9-0.3,0.5-1,1.3
	c0,0.1-8.8,0-8.9,0c-2.3,2.8-4.7,5.5-7.4,8c1,0.4,2,0.7,3,0.9c1.8,0.4,4.1,0.6,4,0.6c-0.8,0.7-0.3,0.3-1,1c-1.3,0.2-2.7,0.2-4,0.2
	c-2.2-0.1-4.5-0.5-4.5-0.4c-1.9,1.7-3.8,3.2-4.9,4.1C48.5,123.5,31.8,122.3,31.9,122.3L31.9,122.3z M46.8,124.3
	c6-1.2,11.8-3.1,17.4-5.5c5.9-2.6,11.8-6.5,15.3-10.5c2-2.3,5.7-5.8,8.7-9.5c2.3-3.1,4.3-6.3,6.1-9.6c3.5-6.2,9.9-20,10.6-26.8
	c0.4-6.3,0.1-12.6-0.8-18.8c-0.7-5.1-2-10-3.6-14.9c2.6,4.3,4.5,9.1,5.5,14c1.5,7.2,1.2,15.8,1,19.7c-0.4,7.2-6.2,21.8-9.9,28.3
	c-2,3.5-4.2,6.9-6.6,10.2c-0.1,0.1,2.6,1.2,2.5,1.3c-0.2,0.3-0.1,0.2-0.4,0.4l-0.6,0.7c-0.1,0.1-2.9-0.7-3-0.6
	c-2.8,3.2-5.8,6.3-9,9.1c-0.1,0.1,4,0,3.9,0.2c-0.4,0.5-0.8,1-1.2,1.4c-0.2,0.1-4.5,0-4.6,0.1c-0.4,0.3-1.2,0.7-1.5,1
	C63.8,125.1,46.7,124.3,46.8,124.3L46.8,124.3z"/>
<path class="st1" d="M174.6,73.7h-2.7l2.3-15.4h2.7l0.4-2.5l0.8-5.5l0.5-3.4h-2.8l0.6-3.9l0.6-3.4h-13.1l-0.4,2.5l-0.7,4.7h-1.9
	l-0.1,0.9c-1.5-0.8-3.8-1.1-7.2-1.1c-4.4,0-7.1,0.6-8.8,2c-0.4,0.3-0.7,0.7-1,1.1c-0.5-0.7-1.1-1.3-1.8-1.7c-1.5-1-3.9-1.4-7.6-1.4
	c-4.4,0-7.1,0.6-8.8,2c-0.3,0.2-0.6,0.5-0.8,0.8c-0.1-0.2-0.2-0.4-0.4-0.5c-1.3-1.5-3.2-2.4-5.2-2.3c-0.5,0-1.1,0.1-1.6,0.2h-11.2
	L107,43l0.5-3.4H94.4L94,42.1l0,0c-0.4-0.6-1-1-1.6-1.4c-1.6-1-4.2-1.4-8.7-1.4c-5.1,0-8.2,0.7-10,2.1s-3,4.2-3.6,8.5l-0.6,4.7
	c-0.1,0.5-0.2,1-0.2,1.3s-0.1,0.8-0.1,1.1c0,1.5,0.3,3,1,4.3c0.3,0.6,0.8,1.2,1.3,1.8h-3.3l-0.4,2.5l-1.2,8
	c-0.1,0.8-0.2,1.5-0.3,2.2s-0.1,1.4-0.1,2c0,3.4,1.6,5.1,3,6c1.6,0.9,4.2,1.3,8.6,1.3c2.2,0.1,4.4-0.1,6.6-0.5
	c1.6-0.3,3-1.1,4.1-2.3c0.3-0.3,0.6-0.6,0.8-1c0.5,0.9,1.2,1.6,2.1,2.2c1.8,1,3.9,1.4,5.9,1.3h5.9v-0.1h9.6l0.4-2.5l2.5-16.4h4.9
	l-1.1,7.5c-0.1,0.9-0.2,1.8-0.3,2.6s-0.1,1.5-0.1,2.1c-0.2,2.3,0.9,4.5,2.9,5.7c1.5,0.9,3.8,1.3,7.5,1.3c4.4,0,7.2-0.7,8.9-2.1
	c0.4-0.3,0.7-0.6,0.9-1c0.5,0.7,1.1,1.4,1.9,1.8c1.5,0.9,3.8,1.3,7.5,1.3c4.4,0,7.2-0.7,8.9-2.1c0.5-0.4,1-1,1.3-1.5
	c0.5,0.9,1.2,1.7,2.1,2.2c1.8,1,3.9,1.4,6,1.3h5.9l0.4-2.5l0.8-5.4L174.6,73.7z M90.6,59.2h0.9l-0.1,1
	C91.1,59.9,90.9,59.6,90.6,59.2L90.6,59.2z"/>
<path class="st1" d="M361.4,48c-1.5-1-3.9-1.4-7.6-1.4c-2-0.1-4.1,0.2-6.1,0.7l0.1-0.5h-19.6l0.6-3.9l0.5-3.4H304l-0.4,2.5l-0.7,4.7
	H301l-0.1,0.9c-1.5-0.8-3.8-1.1-7.2-1.1c-4.4,0-7.1,0.6-8.8,2c-0.5,0.4-1,1-1.4,1.6c-0.3-0.5-0.6-1-1-1.4c-1.4-1.5-3.4-2.3-5.5-2.2
	c-1.3,0-2.6,0.3-3.8,0.8c-0.4,0.2-0.8,0.4-1.2,0.6c-0.3-0.2-0.6-0.4-0.9-0.5c-1.1-0.5-2.3-0.8-3.6-0.8c-0.6,0-1.2,0.1-1.7,0.2h-12
	l-0.3,1.9c-0.3-0.3-0.6-0.5-0.9-0.7c-1.5-1-3.8-1.4-7.6-1.4c-2.4-0.1-4.8,0.2-7.1,1l0.1-0.8h-2.8L236,43l0.5-3.4h-13l-0.4,2.5
	l-0.7,4.7H202l-0.4,2.5l-0.8,5.4l0.3-12.2l0.1-3H186l-0.6,2.2l-11,39.3l-1,3.8h26.9v-1.3c1.3,1,3,1.6,4.7,1.5c0.6,0,1.2-0.1,1.8-0.2
	h12l0.4-2.5l0,0c0.4,0.5,0.9,0.9,1.5,1.3c1.8,1,3.9,1.4,5.9,1.3h5.9l0.2-1.3l0.1,0.1c1.5,0.9,3.8,1.3,7.5,1.3s6.4-0.5,8.1-1.5
	l-0.2,1.3h31.8l0.3-1.9c0.3,0.3,0.6,0.5,1,0.8c1.5,0.9,3.8,1.3,7.5,1.3c4.4,0,7.2-0.7,8.9-2.1c0.5-0.4,0.9-1,1.3-1.5
	c0.5,0.9,1.2,1.7,2,2.2c1.8,1,3.9,1.4,5.9,1.3h5.9v-0.1h9.5l0.4-2.5l0.6-4.1l0,3.6v3h13.5l0.6-2.2l1.1-3.7c0.1,2,1.2,3.8,2.8,4.8
	c1.5,0.9,3.8,1.3,7.5,1.3c4.4,0,7.2-0.7,8.9-2.1s2.8-4.1,3.5-8.7l0.5-3.8l0.4-2.9l0.1-0.4l1.3-9c0.2-1,0.3-1.9,0.4-2.6
	s0.1-1.4,0.1-1.9C364.2,50.5,362.6,48.9,361.4,48z"/>
<path class="st1" d="M66.5,45.4c-0.8-0.9-1.9-1.4-3.1-1.6l0.1-0.8l0.5-3.4H18.6L18.1,42c-0.1,0.8-0.4,1.5-1,2
	c-0.7,0.5-1.5,0.7-2.3,0.7h-2.7l-0.4,2.5l-1,6.3L10.2,57h3.9l-3.6,24.5L10,84.9h25.8l0.7-1.9l6.8-18.3c0.2,1.3,1,2.5,2.1,3.2
	c1.3,0.7,2.7,1.1,4.1,1h4.5v-0.1h11.2l0.4-2.5l2.1-13.8c0.1-0.6,0.2-1.1,0.2-1.6c0-0.5,0.1-0.9,0.1-1.3C68.1,48,67.5,46.6,66.5,45.4
	z M29.1,51.9h4.3l-7.2,19L29.1,51.9z"/>
<path class="st2" d="M21.1,42.6h6.5l-5.9,39.3h-8.2L17.6,54h-3.9l1-6.3h0.1c1.5,0.1,3-0.4,4.2-1.4C20.1,45.4,20.8,44,21.1,42.6z
	 M31.2,42.6h15.7L46,48.9l-12.3,33h-8.4l12.4-33h-7.5L31.2,42.6z M49.2,42.6h4.2l-0.7,4.3h1.6l-0.5,3.3h-1.6l-1.7,11.2
	c0,0.1,0,0.3-0.1,0.4s0,0.2,0,0.3c0,0.2,0.1,0.4,0.2,0.5c0.2,0.1,0.4,0.2,0.5,0.2H52l-0.5,3.2h-2c-0.9,0.1-1.7-0.1-2.5-0.5
	c-0.5-0.3-0.9-1-0.8-1.6c0-0.3,0-0.6,0-0.9s0.1-0.8,0.2-1.5l1.7-11.2H47l0.5-3.3h1.1L49.2,42.6z M56.5,42.6h4.2l-0.8,5.2
	c0.4-0.3,0.9-0.6,1.3-0.8c0.4-0.2,0.8-0.2,1.2-0.2c0.7-0.1,1.5,0.2,2,0.7c0.5,0.6,0.7,1.3,0.7,2.1c0,0.2,0,0.6-0.1,1
	c0,0.4-0.1,0.9-0.2,1.5l-2.1,13.8h-4.1l2.1-14.4c0-0.1,0-0.2,0-0.2c0-0.1,0-0.1,0-0.2c0-0.2,0-0.3-0.1-0.5c-0.1-0.1-0.3-0.1-0.4-0.1
	c-0.2,0-0.4,0.1-0.6,0.2c-0.2,0.2-0.3,0.5-0.3,0.8l-2.1,14.4H53L56.5,42.6z"/>
<path class="st2" d="M92,50.4l-0.9,5.9H83l0.8-5.7c0.1-0.3,0.1-0.5,0.1-0.8c0-0.3-0.1-0.6-0.3-0.9c-0.3-0.2-0.6-0.3-0.9-0.3
	c-0.4,0-0.8,0.1-1,0.4c-0.3,0.5-0.5,1-0.5,1.5l-0.5,3.7c0,0.1-0.1,0.3-0.1,0.4c0,0.2,0,0.4,0,0.5c0,0.4,0.1,0.7,0.3,1
	c0.3,0.3,0.6,0.6,1,0.8l4.7,2.8c0.9,0.5,1.7,1.2,2.3,2.1c0.5,0.9,0.8,1.9,0.8,2.9c0,0.2,0,0.4,0,0.7s-0.1,0.6-0.2,1.1l-1.1,7.4
	c0,0.2-0.1,0.4-0.1,0.8c-0.4,2.8-1,4.6-1.8,5.5c-0.7,0.7-1.6,1.2-2.6,1.4c-2,0.3-4,0.5-6,0.4c-3.7,0-6.1-0.3-7.1-0.9
	c-1.1-0.8-1.7-2.1-1.6-3.4c0-0.6,0-1.2,0.1-1.7c0.1-0.7,0.2-1.3,0.3-2l1.2-8H79l-1.2,7.7c0,0.1,0,0.2,0,0.2c0,0.1,0,0.3,0,0.5
	c0,0.3,0.1,0.6,0.3,0.9c0.2,0.2,0.6,0.3,0.9,0.3c0.4,0,0.8-0.1,1-0.4c0.3-0.5,0.5-1,0.5-1.6l0.8-5.8c0,0,0-0.1,0-0.1
	c0-0.3,0.1-0.5,0.1-0.8c0-0.4-0.1-0.7-0.3-1.1c-0.3-0.3-0.6-0.6-1-0.8L75,62.1c-0.8-0.5-1.5-1.2-2-2.1c-0.5-0.9-0.7-2-0.7-3
	c0-0.3,0-0.6,0.1-0.8c0-0.3,0.1-0.7,0.2-1.2l0.7-4.6c0.5-3.5,1.4-5.7,2.6-6.6s3.9-1.5,8.1-1.5c3.7,0,6.1,0.3,7.1,0.9
	c1.1,0.8,1.7,2.1,1.5,3.4c0,1-0.1,1.9-0.3,2.8C92.1,49.9,92,50.2,92,50.4z M97,42.6h7l-1.1,7.3h2.8l-0.8,5.5h-2.7l-2.9,19
	c0,0.2-0.1,0.4-0.1,0.6c0,0.2,0,0.3,0,0.5c0,0.3,0.1,0.6,0.3,0.9c0.3,0.2,0.6,0.3,0.9,0.3h1.3l-0.8,5.4h-3.3c-1.5,0.1-3-0.2-4.3-0.9
	c-0.9-0.6-1.4-1.6-1.4-2.7c0-0.4,0-1,0.1-1.5s0.2-1.4,0.3-2.6l2.9-19h-2l0.8-5.5h1.9L97,42.6z M122.6,58.5l-0.7,4.4h-6.3l0.8-5.5
	c0-0.1,0-0.3,0-0.4s0-0.3,0-0.4c0-0.3-0.1-0.6-0.2-0.8c-0.2-0.2-0.5-0.3-0.7-0.2c-0.4,0-0.7,0.1-0.9,0.4c-0.3,0.4-0.4,0.9-0.5,1.4
	l-3.6,24.4h-7l4.8-32.1h7.1l-0.2,1.5c0.7-0.5,1.5-0.9,2.3-1.3c0.6-0.3,1.2-0.4,1.9-0.4c1.1-0.1,2.2,0.4,2.9,1.2c0.7,1,1.1,2.3,1,3.5
	c0,0.5-0.1,1-0.1,1.5C122.9,56.6,122.7,57.5,122.6,58.5z M130.6,66.9l-1.2,7.8c0,0.1,0,0.2,0,0.3c0,0.2-0.1,0.4-0.1,0.6
	c0,0.3,0.1,0.6,0.2,0.8c0.2,0.2,0.5,0.3,0.7,0.2c0.4,0,0.7-0.1,1-0.4c0.3-0.5,0.5-1,0.5-1.6l0.7-4.6h7.1l-0.6,3.7
	c-0.5,3.6-1.4,5.9-2.5,6.8c-1.1,0.9-3.4,1.4-7,1.4c-3,0-5-0.3-6-0.9c-1-0.7-1.6-1.9-1.4-3.1c0-0.5,0-1.1,0.1-1.8s0.2-1.6,0.3-2.4
	l2.4-16c0.6-3.7,1.4-6,2.5-6.9s3.4-1.3,6.9-1.4c3.1,0,5.1,0.3,6,0.9c1,0.7,1.6,2,1.4,3.3c0,0.4,0,1-0.1,1.6s-0.2,1.5-0.4,2.5l-1.4,9
	L130.6,66.9z M131.4,61.4h2.3l0.6-4.3c0-0.2,0.1-0.5,0.1-0.7v-0.1c0-0.3-0.1-0.6-0.3-0.9c-0.2-0.2-0.6-0.3-0.9-0.3
	c-0.3,0-0.7,0.1-0.9,0.4c-0.3,0.5-0.4,1-0.5,1.5L131.4,61.4z M149.8,66.9l-1.2,7.8c0,0.1,0,0.2-0.1,0.3c0,0.2-0.1,0.4-0.1,0.6
	c0,0.3,0.1,0.6,0.2,0.8c0.2,0.2,0.5,0.3,0.7,0.2c0.4,0,0.7-0.1,1-0.4c0.3-0.5,0.5-1,0.5-1.6l0.7-4.6h7.1l-0.6,3.7
	c-0.5,3.6-1.4,5.9-2.5,6.8s-3.4,1.4-7,1.4c-3,0-5-0.3-6-0.9c-1-0.7-1.6-1.9-1.4-3.1c0-0.5,0-1.1,0.1-1.8s0.2-1.6,0.3-2.4l2.4-16
	c0.6-3.7,1.4-6,2.5-6.9c1.1-0.9,3.4-1.3,6.9-1.3c3.1,0,5.1,0.3,6,0.9c1,0.8,1.6,2,1.4,3.3c0,0.4,0,1-0.1,1.6s-0.2,1.5-0.3,2.5
	l-1.4,9L149.8,66.9z M150.6,61.4h2.4l0.6-4.3c0-0.2,0.1-0.5,0.1-0.7v-0.1c0-0.3-0.1-0.6-0.3-0.9c-0.2-0.2-0.6-0.3-0.9-0.3
	c-0.3,0-0.7,0.1-0.9,0.4c-0.3,0.5-0.4,1-0.5,1.5L150.6,61.4z M166.4,42.6h7.1l-1.1,7.3h2.8l-0.8,5.5h-2.7l-2.9,19
	c0,0.2-0.1,0.4-0.1,0.6s0,0.3,0,0.5c0,0.3,0.1,0.6,0.3,0.9c0.3,0.2,0.6,0.3,0.9,0.3h1.3l-0.8,5.4H167c-1.5,0.1-3-0.2-4.4-0.9
	c-0.9-0.6-1.4-1.6-1.4-2.7c0-0.4,0-1,0.1-1.5s0.2-1.4,0.4-2.6l2.9-19h-1.9l0.8-5.5h1.9L166.4,42.6z M188.2,42.6h9.9L197.4,82h-7.8
	l0.6-7.8h-3.5l-1.8,7.8h-7.7L188.2,42.6z M191.5,52.6l-3.4,15.2h2.6l1.1-15.2H191.5z M204.6,49.8h7.1L208,74.2c0,0.1,0,0.2-0.1,0.4
	c0,0.1,0,0.2,0,0.4c-0.1,0.5,0.2,0.9,0.7,1c0.1,0,0.2,0,0.3,0c0.4,0,0.7-0.1,0.9-0.4c0.3-0.4,0.4-0.9,0.5-1.4l3.7-24.4h7.1
	l-4.8,32.1h-7l0.2-1.5c-0.7,0.5-1.5,0.9-2.3,1.3c-0.7,0.3-1.4,0.4-2.1,0.4c-1.2,0.1-2.4-0.4-3.3-1.2c-0.8-1-1.2-2.3-1.1-3.5
	c0-0.4,0.1-1.7,0.4-3.8l0.1-0.3L204.6,49.8z M226.1,42.6h7.1l-1.1,7.2h2.8l-0.8,5.5h-2.7l-2.9,19c-0.1,0.2-0.1,0.4-0.1,0.6
	s0,0.3,0,0.5c0,0.3,0.1,0.6,0.3,0.9c0.3,0.2,0.6,0.3,0.9,0.3h1.3L230,82h-3.3c-1.5,0.1-3-0.2-4.4-0.9c-0.9-0.6-1.5-1.6-1.4-2.7
	c0-0.5,0-1,0.1-1.5c0.1-0.6,0.2-1.4,0.3-2.6l2.9-19h-1.9l0.8-5.5h1.9L226.1,42.6z M252.2,57.9l-2.4,16c-0.5,3.6-1.4,5.9-2.5,6.8
	s-3.4,1.4-7,1.4c-3,0-5-0.3-6-0.9c-1-0.7-1.6-1.9-1.4-3.1c0-0.5,0-1.1,0.1-1.8s0.2-1.6,0.3-2.4l2.4-16c0.6-3.7,1.4-6,2.5-6.9
	s3.4-1.4,6.9-1.4c3.1,0,5.1,0.3,6,0.9c1,0.7,1.6,2,1.5,3.2c0,0.6,0,1.1-0.1,1.7C252.4,56.1,252.3,56.9,252.2,57.9L252.2,57.9z
	 M245.2,57.2c0-0.2,0.1-0.4,0.2-0.8c0-0.3-0.1-0.6-0.3-0.9c-0.2-0.2-0.6-0.3-0.9-0.3c-0.3,0-0.7,0.1-0.9,0.4c-0.3,0.5-0.4,1-0.5,1.6
	l-2.6,17.6c0,0.1,0,0.2-0.1,0.3c0,0.2-0.1,0.4-0.1,0.6c0,0.3,0.1,0.6,0.2,0.8c0.2,0.2,0.5,0.3,0.7,0.2c0.4,0,0.7-0.1,1-0.4
	c0.3-0.5,0.5-1,0.5-1.6L245.2,57.2z M271.8,51.8c0.8-0.7,1.7-1.2,2.6-1.6c0.8-0.3,1.7-0.5,2.6-0.5c1.2-0.1,2.4,0.4,3.3,1.2
	c0.8,1,1.2,2.2,1.1,3.5c0,0.5,0,1-0.1,1.5c-0.1,0.6-0.2,1.5-0.4,2.6L277.5,82h-7l3.6-24.4c0-0.1,0-0.2,0-0.3c0-0.1,0-0.3,0-0.4
	c0-0.3-0.1-0.6-0.3-0.8c-0.2-0.2-0.5-0.3-0.8-0.3c-0.4,0-0.8,0.1-1,0.4c-0.3,0.4-0.4,0.9-0.5,1.4l-3.6,24.4h-7l3.6-24.4
	c0-0.1,0-0.3,0.1-0.4s0-0.3,0-0.3c0-0.3-0.1-0.5-0.2-0.8c-0.2-0.2-0.4-0.3-0.7-0.3c-0.4,0-0.8,0.1-1.1,0.4c-0.3,0.4-0.5,0.9-0.5,1.4
	l-3.6,24.4h-7l4.8-32.1h7.1l-0.3,1.7c0.7-0.6,1.5-1.1,2.3-1.5c0.6-0.3,1.3-0.4,2-0.4c0.8,0,1.5,0.1,2.2,0.5
	C270.6,50.5,271.3,51.1,271.8,51.8L271.8,51.8z M300.7,57.9l-2.4,16c-0.5,3.6-1.4,5.9-2.5,6.8c-1.1,0.9-3.4,1.4-7,1.4
	c-3,0-5-0.3-6-0.9c-1-0.7-1.6-1.9-1.4-3.1c0-0.6,0-1.2,0.1-1.8c0.1-0.8,0.2-1.6,0.3-2.4l2.4-16c0.6-3.7,1.4-6,2.5-6.9
	c1.1-0.9,3.4-1.3,7-1.3c3.1,0,5.1,0.3,6,0.9c1,0.7,1.6,2,1.4,3.2c0,0.6,0,1.1-0.1,1.7C301,56.1,300.9,56.9,300.7,57.9L300.7,57.9z
	 M293.7,57.2c0-0.2,0.1-0.4,0.2-0.8c0-0.3-0.1-0.6-0.3-0.9c-0.2-0.2-0.6-0.3-0.9-0.3c-0.3,0-0.7,0.1-0.9,0.4c-0.3,0.5-0.4,1-0.5,1.6
	l-2.6,17.6l0,0.3c0,0.2-0.1,0.4-0.1,0.6c0,0.3,0.1,0.6,0.2,0.8c0.2,0.2,0.5,0.3,0.7,0.2c0.4,0,0.7-0.1,1-0.4c0.3-0.5,0.5-1,0.5-1.6
	L293.7,57.2z M306.5,42.6h7.1l-1.1,7.3h2.8l-0.8,5.5h-2.7l-2.9,19c0,0.2-0.1,0.4-0.1,0.6s0,0.3,0,0.5c0,0.3,0.1,0.6,0.3,0.9
	c0.3,0.2,0.6,0.3,0.9,0.2h1.3l-0.8,5.4h-3.3c-1.5,0.1-3-0.2-4.4-0.9c-0.9-0.6-1.4-1.6-1.4-2.7c0-0.4,0-1,0.1-1.5s0.2-1.4,0.4-2.6
	l2.9-19h-1.9l0.8-5.5h1.9L306.5,42.6z M317.7,49.9h7.1l-4.8,32h-7L317.7,49.9z M318.8,42.6h7.1l-0.7,4.8h-7.1L318.8,42.6z
	 M326.8,49.9h7l-2,22.4h0.3l4.8-22.4h6.9L334.6,82h-8.2L326.8,49.9z M350,66.9l-1.2,7.8c0,0.1,0,0.2,0,0.3c0,0.2-0.1,0.4-0.1,0.6
	c0,0.3,0.1,0.6,0.2,0.8c0.2,0.2,0.5,0.3,0.7,0.2c0.4,0,0.7-0.1,1-0.4c0.3-0.5,0.5-1,0.5-1.6l0.7-4.6h7.1l-0.5,3.7
	c-0.5,3.6-1.4,5.9-2.5,6.8s-3.4,1.4-7,1.4c-3,0-5-0.3-6-0.9c-1-0.7-1.6-1.9-1.4-3.1c0-0.6,0-1.2,0.1-1.8c0.1-0.8,0.2-1.6,0.3-2.4
	l2.4-16c0.6-3.7,1.4-6,2.5-6.9c1.1-0.9,3.4-1.3,7-1.3c3.1,0,5.1,0.3,6,0.9c1,0.8,1.6,2,1.4,3.3c0,0.4,0,1-0.1,1.6s-0.2,1.5-0.4,2.5
	l-1.4,9L350,66.9z M350.8,61.4h2.3l0.6-4.3c0-0.2,0.1-0.5,0.1-0.7v-0.1c0-0.3-0.1-0.6-0.3-0.9c-0.2-0.2-0.6-0.3-0.9-0.3
	c-0.3,0-0.7,0.1-0.9,0.4c-0.3,0.5-0.4,1-0.5,1.5L350.8,61.4z"/>
</svg>
