<svg xmlns="http://www.w3.org/2000/svg" width="585" height="52" viewBox="0 0 585 52">
  <g fill="none" fill-rule="evenodd">
    <rect width="565" height="46" x="10" y="3" fill="#F4E3C9" fill-rule="nonzero"/>
    <path fill="#382F2A" fill-rule="nonzero" d="M45.23 24.7C46.1826631 24.7179417 47.1353313 24.6644585 48.08 24.54 48.5898301 24.4251095 49.045025 24.1392894 49.37 23.73 49.7209522 23.2539624 49.9321978 22.6894864 49.98 22.1 49.98 21.92 50.06 21.87 50.2 21.87L50.96 21.94C51.1 21.94 51.21 22 51.18 22.15 51.1059067 23.0579913 51.0792038 23.9692281 51.1 24.88 51.1 26.07 51.21 27.33 51.26 27.88 51.26 28.03 51.18 28.06 51.04 28.09L50.37 28.22C50.25 28.22 50.2 28.22 50.14 28.01 49.998974 27.5456006 49.8113532 27.0966507 49.58 26.67 49.2131391 26.1666671 48.6570853 25.8344791 48.04 25.75 47.0946954 25.6324553 46.1425212 25.5789999 45.19 25.59L45.19 27.17C45.19 28.59 45.33 31.17 45.33 31.6 45.33 32.97 45.64 33.44 46 33.6 46.7624422 33.8211048 47.5586026 33.9024148 48.35 33.84 48.83 33.84 50 33.84 50.59 33.76 51.362809 33.6572685 52.0962588 33.3576904 52.72 32.89 53.7340516 32.0172043 54.6894569 31.0785019 55.58 30.08 55.69 29.98 55.77 29.95 55.86 30L56.33 30.27C56.44 30.27 56.47 30.4 56.44 30.48L55.18 34.48C55.0927323 34.7365317 54.839471 34.8984529 54.57 34.87L52.02 34.87C50.2 34.87 47.23 34.87 42.39 34.87 41.39 34.87 40.57 34.87 40.01 34.87 39.45 34.87 39.06 34.87 38.8 34.87 38.54 34.87 38.55 34.79 38.55 34.59L38.55 34C38.55 33.85 38.64 33.77 38.83 33.77L39.67 33.77C40.96 33.77 41.07 33.58 41.07 32.66L41.07 23.86C41.07 21.68 41.07 18.45 40.99 18.19 40.88 17.35 40.6 17.19 39.84 17.19L38.79 17.19C38.68 17.19 38.65 17.11 38.65 16.92L38.65 16.29C38.6466591 16.2395128 38.665981 16.1901613 38.7027124 16.1553631 38.7394439 16.1205649 38.789767 16.1039369 38.84 16.11 39.46 16.11 40.44 16.19 42.99 16.19L52.81 16.19C53.26 16.19 53.81 16.14 53.94 16.14 54.07 16.14 54.13 16.19 54.16 16.27 54.27 16.64 55.16 20.27 55.31 20.5 55.46 20.73 55.31 20.68 55.22 20.76L54.77 20.97C54.650933 21.0299965 54.5057355 20.9859973 54.44 20.87 53.4154026 19.8085079 52.31228 18.825726 51.14 17.93 50.4938511 17.5020949 49.7517338 17.2409796 48.98 17.17L45.28 17.06 45.23 24.7zM78.37 27.12C78.37 24.78 78.37 23.49 78.29 22.18 78.29 21.18 78.12 18.58 78.03 18.18 77.8189575 17.5508004 77.212505 17.1410352 76.55 17.18L75.65 17.18C75.51 17.18 75.49 17.1 75.49 16.94L75.49 16.28C75.49 16.15 75.49 16.1 75.74 16.1 75.99 16.1 76.94 16.18 79.01 16.18 80.69 16.18 81.37 16.1 81.67 16.1 81.97 16.1 81.95 16.15 81.95 16.31L81.95 16.94C81.95 17.07 81.95 17.18 81.81 17.18L81.03 17.18C80.55 17.18 80.27 17.62 80.19 18.57 79.99 20.33 79.55 26.26 79.55 29.72L79.55 34.2C79.55 34.6 79.55 35.07 79.13 35.07 78.722362 35.0801406 78.3271471 34.9292404 78.03 34.65 77.56 34.23 76.19 32.84 74.51 30.97L69.72 25.65C69.24 25.12 65.38 20.65 64.72 19.74L64.5 19.74 64.5 25C64.5 27.18 64.75 30.41 64.78 31.41 64.84 32.93 65.34 33.72 66.52 33.72L67.22 33.72C67.41 33.72 67.44 33.8 67.44 33.95L67.44 34.58C67.44 34.74 67.44 34.79 67.22 34.79 67 34.79 65.22 34.71 63.94 34.71 63.07 34.71 61.14 34.79 60.86 34.79 60.75 34.79 60.72 34.79 60.72 34.56L60.72 33.88C60.72 33.8 60.72 33.72 60.89 33.72L61.89 33.72C62.5 33.72 62.95 32.88 63.09 31.12 63.09 30.62 63.34 26.42 63.34 22.53L63.34 20.21C63.34 18.66 62.34 17.21 60.94 17.21L60.24 17.21C60.1921522 17.2133895 60.1453079 17.1951329 60.1123721 17.1602597 60.0794363 17.1253865 60.0638841 17.0775763 60.07 17.03L60.07 16.32C60.07 16.21 60.07 16.16 60.24 16.16 60.41 16.16 60.6 16.16 61.13 16.16 61.66 16.16 62.59 16.21 64.04 16.21 65.04 16.21 65.84 16.16 66.17 16.16 66.4779905 16.1423248 66.7768986 16.2677924 66.98 16.5L73.48 23.95 78.27 29.55 78.38 29.55 78.37 27.12zM105.77 32.21C105.77 32.58 105.88 32.84 105.88 33.05 105.88 33.26 105.71 33.36 105.43 33.47 102.868335 34.6716433 100.057822 35.2474557 97.23 35.15 94.32 35.15 91.04 34.28 89.11 32.15 87.3091953 30.1911488 86.3784506 27.5865068 86.53 24.93 86.5924838 22.3625217 87.7810526 19.9524697 89.78 18.34 92.0221987 16.5534873 94.836036 15.6404113 97.7 15.77 99.7289933 15.7069706 101.742084 16.1466901 103.56 17.05 103.89 17.24 104.09 17.18 104.26 16.97L104.54 16.55C104.68 16.37 104.73 16.29 104.9 16.29 105.07 16.29 105.29 16.47 105.29 16.76L105.71 22.17C105.71 22.49 105.71 22.62 105.6 22.64L104.82 22.8C104.65 22.8 104.56 22.8 104.48 22.54 103.976061 21.015263 103.09958 19.6403912 101.93 18.54 100.716973 17.4553294 99.136821 16.8726037 97.51 16.91 95.8637767 16.8736029 94.2965385 17.6146139 93.28 18.91 91.8349137 20.5748496 91.039486 22.7054596 91.04 24.91 91.04 28.01 91.96 30.72 93.48 32.13 94.5720997 33.3297582 96.1389292 33.9850444 97.76 33.92 98.8404945 33.9971738 99.9238111 33.8154783 100.92 33.39 101.51 33.13 101.57 32.29 101.57 30.93L101.57 29C101.57 28.05 101.29 27.79 100.57 27.79L99.39 27.79C99.22 27.79 99.2 27.68 99.2 27.55L99.2 26.9C99.2 26.79 99.2 26.71 99.39 26.71 99.58 26.71 101.02 26.79 103.54 26.79 106.06 26.79 107.15 26.71 107.37 26.71 107.59 26.71 107.62 26.79 107.62 26.92L107.62 27.58C107.62 27.74 107.62 27.79 107.43 27.79L106.62 27.79C106.11 27.79 105.75 27.97 105.75 28.73L105.77 32.21zM118.63 26.54C118.63 26.98 118.63 32.65 118.72 33.7L120.31 33.7C121.63 33.7 122.89 33.7 124.4 33.57 125.91 33.44 127.82 30.29 128.24 29.32 128.32 29.16 128.41 29.09 128.57 29.16L129.13 29.37C129.22 29.43 129.22 29.45 129.19 29.61 129.16 29.77 127.99 34.12 127.82 34.83 127.09 34.83 119.03 34.75 116.45 34.75 113.68 34.75 112.67 34.83 112.31 34.83 112.11 34.83 112.08 34.83 112.08 34.6L112.08 33.94C112.08 33.81 112.08 33.76 112.28 33.76L113.15 33.76C114.15 33.76 114.35 33.39 114.35 33.1 114.35 32.6 114.43 26.1 114.43 24.46L114.43 23C114.43 21.32 114.43 18.54 114.35 18.12 114.29 17.44 114.15 17.18 113.51 17.18L112.51 17.18C112.35 17.18 112.32 17.05 112.32 16.91L112.32 16.28C112.32 16.15 112.32 16.1 112.51 16.1 112.82 16.1 113.83 16.18 116.38 16.18 119.65 16.18 120.83 16.1 121.08 16.1 121.33 16.1 121.33 16.18 121.33 16.36L121.33 17C121.33 17.13 121.28 17.21 121.05 17.21L119.74 17.21C118.87 17.21 118.74 17.47 118.74 18.21 118.74 18.55 118.65 22.51 118.65 24.35L118.63 26.54zM135.98 23.76C135.98 23.13 135.9 18.4 135.87 18.06 135.81 17.43 135.53 17.17 134.95 17.17L133.6 17.17C133.46 17.17 133.38 17.11 133.38 17.01L133.38 16.25C133.38 16.14 133.46 16.09 133.57 16.09 133.91 16.09 135.34 16.17 138.08 16.17 140.82 16.17 141.83 16.09 142.23 16.09 142.37 16.09 142.42 16.17 142.42 16.33L142.42 17C142.42 17.13 142.34 17.19 142.2 17.19L141.39 17.19C140.69 17.19 140.27 17.4 140.27 17.87 140.27 18.13 140.18 23.93 140.18 24.25L140.18 26.25C140.18 26.51 140.27 32.58 140.27 32.81 140.27 33.63 140.69 33.76 141.22 33.76L142.37 33.76C142.51 33.76 142.59 33.81 142.59 33.94L142.59 34.68C142.59 34.78 142.51 34.83 142.34 34.83 142 34.83 140.88 34.75 138.22 34.75 135.28 34.75 134.08 34.83 133.77 34.83 133.63 34.83 133.55 34.83 133.55 34.62L133.55 33.92C133.55 33.81 133.63 33.76 133.77 33.76L134.58 33.76C135.14 33.76 135.73 33.68 135.84 33.05 135.9 32.65 135.98 26.98 135.98 25.59L135.98 23.76zM149.48 29C149.59 29 149.67 29 149.67 29.21 149.797291 30.2853614 150.181434 31.3143146 150.79 32.21 151.595358 33.3570546 152.918734 34.0281149 154.32 34 155.66 34 157.82 33.15 157.82 31.08 157.82 29.01 157.37 28.27 153.73 26.99 152.267112 26.439661 150.897722 25.6672714 149.67 24.7 148.675748 23.7241951 148.163347 22.3590129 148.27 20.97 148.172101 19.3897696 148.988396 17.8932289 150.37 17.12 151.515714 16.2466086 152.930561 15.8009317 154.37 15.86 155.634288 15.8116533 156.897142 15.987708 158.1 16.38 158.317335 16.4927385 158.583874 16.4385978 158.74 16.25L159.11 15.91C159.222177 15.8013932 159.373995 15.7435577 159.53 15.75 159.72 15.75 159.78 16.04 159.81 16.2L160.25 20.69C160.25 20.79 160.2 20.82 160.11 20.84L159.5 21.03C159.42576 21.0550371 159.344549 21.0489703 159.274853 21.0131806 159.205157 20.977391 159.152908 20.914924 159.13 20.84 158.774171 19.7820913 158.194316 18.8133919 157.43 18 156.704263 17.2387911 155.679799 16.8363235 154.63 16.9 153.164814 16.8086508 151.868405 17.8414564 151.63 19.29 151.496445 20.1654411 151.764616 21.0544453 152.36 21.71 153.456827 22.5297488 154.714176 23.1090154 156.05 23.41 157.384894 23.7908827 158.613588 24.4753921 159.64 25.41 160.757668 26.3860286 161.331885 27.8439429 161.18 29.32 161.185518 30.9181046 160.530263 32.4474238 159.369411 33.5457826 158.208559 34.6441415 156.645356 35.2138539 155.05 35.12 153.307762 35.2527839 151.565812 34.8591032 150.05 33.99 149.865505 33.8393402 149.644916 33.7393861 149.41 33.7 149.24 33.7 149.13 33.89 148.96 34.15 148.880809 34.3530197 148.677058 34.4793455 148.46 34.46 148.15 34.46 148.04 34.33 148.07 34.04L148.51 29.04C148.51 28.85 148.63 28.85 148.74 28.85L149.48 29zM168.42 24.41C168.42 22.78 168.36 19.24 168.36 18.87 168.36 17.53 168.17 17.17 167.41 17.17L166.26 17.17C165.96 17.17 165.93 17.06 165.93 16.9L165.93 16.41C165.93 16.25 165.93 16.09 166.24 16.09 166.71 16.09 167.61 16.17 170.41 16.17 173.21 16.17 174.16 16.09 174.64 16.09 174.94 16.09 174.97 16.17 174.97 16.38L174.97 16.93C174.97 17.09 174.97 17.17 174.64 17.17L173.98 17.17C172.98 17.17 172.84 17.61 172.75 18.61 172.75 18.98 172.58 22.44 172.58 23.91L172.58 24.31C172.58 24.44 172.67 24.52 173.03 24.52L181.4 24.52C181.82 24.52 181.96 24.46 181.96 24.18L181.96 23.91C181.96 22.42 181.77 18.77 181.77 18.51 181.77 17.67 181.63 17.17 181.12 17.17L179.98 17.17C179.72 17.17 179.7 17.09 179.7 16.9L179.7 16.33C179.7 16.17 179.7 16.09 179.95 16.09 180.45 16.09 181.66 16.17 184.04 16.17 186.42 16.17 187.54 16.09 187.9 16.09 188.26 16.09 188.26 16.17 188.26 16.38L188.26 16.88C188.26 17.06 188.26 17.17 187.9 17.17L187.06 17.17C186.25 17.17 186.16 17.61 186.16 18.51 186.16 18.87 186.16 23.31 186.16 24.28L186.16 25.17C186.16 26.01 186.16 31 186.24 32.45 186.24 33.39 186.52 33.76 187.36 33.76L188.31 33.76C188.54 33.76 188.57 33.84 188.57 33.99L188.57 34.57C188.57 34.7 188.57 34.83 188.26 34.83 187.81 34.83 186.86 34.75 184.34 34.75 181.48 34.75 180.59 34.83 179.94 34.83 179.63 34.83 179.58 34.7 179.58 34.57L179.58 34C179.58 33.85 179.58 33.77 179.89 33.77L181.12 33.77C181.79 33.77 181.87 33.27 181.9 32.61 181.96 31.38 182.01 27.15 182.01 26.31L182.01 26C182.01 25.71 181.73 25.68 181.4 25.68L172.98 25.68C172.67 25.68 172.58 25.76 172.58 26L172.58 26.39C172.58 27.05 172.7 31.09 172.78 32.88 172.78 33.51 173.09 33.77 173.7 33.77L174.49 33.77C174.71 33.77 174.74 33.82 174.74 33.98L174.74 34.61C174.74 34.76 174.74 34.84 174.49 34.84 173.98 34.84 173 34.76 170.65 34.76 167.65 34.76 166.84 34.84 166.28 34.84 166.03 34.84 166 34.76 166 34.56L166 34C166 33.82 166 33.77 166.28 33.77L167.57 33.77C168.27 33.77 168.36 33.14 168.36 32.56 168.36 31.33 168.44 26.23 168.44 25.56L168.42 24.41zM208.21 26.54C208.21 26.98 208.21 32.65 208.29 33.7L209.89 33.7C211.2 33.7 212.46 33.7 213.98 33.57 215.5 33.44 217.39 30.29 217.81 29.32 217.9 29.16 217.98 29.09 218.15 29.16L218.71 29.37C218.79 29.43 218.79 29.45 218.76 29.61 218.73 29.77 217.56 34.12 217.39 34.83 216.66 34.83 208.6 34.75 206.02 34.75 203.25 34.75 202.24 34.83 201.88 34.83 201.68 34.83 201.66 34.83 201.66 34.6L201.66 33.94C201.66 33.81 201.66 33.76 201.85 33.76L202.72 33.76C203.72 33.76 203.92 33.39 203.92 33.1 203.92 32.6 204.01 26.1 204.01 24.46L204.01 23C204.01 21.32 203.95 18.54 203.92 18.12 203.87 17.44 203.73 17.18 203.08 17.18L202.08 17.18C201.91 17.18 201.88 17.05 201.88 16.91L201.88 16.28C201.88 16.15 201.88 16.1 202.08 16.1 202.28 16.1 203.39 16.18 205.94 16.18 209.22 16.18 210.39 16.1 210.65 16.1 210.91 16.1 210.9 16.18 210.9 16.36L210.9 17C210.9 17.13 210.84 17.21 210.62 17.21L209.3 17.21C208.43 17.21 208.3 17.47 208.3 18.21 208.3 18.55 208.22 22.51 208.22 24.35L208.21 26.54zM228.56 27.56C227.880565 29.176334 227.345153 30.8494958 226.96 32.56 226.915253 32.8713682 227.011112 33.186527 227.221653 33.4202468 227.432194 33.6539667 227.735666 33.7821017 228.05 33.77L229.05 33.77C229.33 33.77 229.36 33.87 229.36 33.98L229.36 34.56C229.36 34.76 229.36 34.84 229.11 34.84 228.74 34.84 227.6 34.76 225.3 34.76 223.3 34.76 222.64 34.84 222.25 34.84 222.08 34.84 222.05 34.69 222.05 34.5L222.05 34C222.05 33.85 222.05 33.77 222.25 33.77L222.98 33.77C223.766824 33.7233381 224.478965 33.2885573 224.88 32.61 225.27 32.06 227.26 27.49 228.18 25.18 228.41 24.66 230.68 19.02 230.93 18.31 231.072629 18.0269524 231.072629 17.6930476 230.93 17.41 230.829199 17.3205507 230.759206 17.2015639 230.73 17.07 230.73 16.99 230.79 16.89 231.01 16.84 232.130346 16.6013243 233.19563 16.1534981 234.15 15.52 234.29 15.39 234.37 15.29 234.51 15.29 234.65 15.29 234.73 15.44 234.82 15.73 235.35 17.39 237.53 23.27 238.07 24.95 238.71 26.95 240.53 31.88 240.92 32.59 241.225757 33.2362261 241.84061 33.6813348 242.55 33.77L243.5 33.77C243.67 33.77 243.69 33.87 243.69 34L243.69 34.5C243.69 34.66 243.69 34.84 243.44 34.84 242.91 34.84 242.32 34.76 238.74 34.76 236.41 34.76 235.43 34.84 234.87 34.84 234.59 34.84 234.57 34.69 234.57 34.5L234.57 34C234.57 33.87 234.57 33.77 234.73 33.77L235.52 33.77C236.27 33.77 236.52 33.51 236.36 32.82 236.11 31.88 235.01 28.52 234.68 27.57L228.56 27.56zM234.44 26.51L232.34 19.56C232.22 19.16 232.17 18.98 232.03 18.98 231.89 18.98 231.78 19.08 231.69 19.32 231.6 19.56 229.14 25.86 228.92 26.51L234.44 26.51zM265.69 27.12C265.69 24.78 265.69 23.49 265.6 22.18 265.6 21.18 265.43 18.58 265.35 18.18 265.136087 17.5529887 264.531546 17.1445146 263.87 17.18L262.98 17.18C262.84 17.18 262.81 17.1 262.81 16.94L262.81 16.28C262.81 16.15 262.81 16.1 263.06 16.1 263.31 16.1 264.27 16.18 266.34 16.18 268.02 16.18 268.69 16.1 269 16.1 269.31 16.1 269.28 16.15 269.28 16.31L269.28 16.94C269.28 17.07 269.28 17.18 269.14 17.18L268.36 17.18C267.88 17.18 267.6 17.62 267.52 18.57 267.32 20.33 266.87 26.26 266.87 29.72L266.87 34.2C266.87 34.6 266.87 35.07 266.45 35.07 266.045228 35.080772 265.652888 34.9295951 265.36 34.65 264.88 34.23 263.51 32.84 261.83 30.97L257.04 25.65C256.57 25.12 252.7 20.65 252.04 19.74L251.82 19.74 251.82 25C251.82 27.18 252.07 30.41 252.1 31.41 252.15 32.93 252.66 33.72 253.83 33.72L254.53 33.72C254.73 33.72 254.76 33.8 254.76 33.95L254.76 34.58C254.76 34.74 254.76 34.79 254.53 34.79 254.3 34.79 252.53 34.71 251.26 34.71 250.39 34.71 248.46 34.79 248.18 34.79 248.06 34.79 248.04 34.79 248.04 34.56L248.04 33.88C248.04 33.8 248.04 33.72 248.2 33.72L249.2 33.72C249.82 33.72 250.27 32.88 250.41 31.12 250.41 30.62 250.66 26.42 250.66 22.53L250.66 20.21C250.66 18.66 249.66 17.21 248.25 17.21L247.55 17.21C247.502152 17.2133895 247.455308 17.1951329 247.422372 17.1602597 247.389436 17.1253865 247.373884 17.0775763 247.38 17.03L247.38 16.32C247.38 16.21 247.38 16.16 247.55 16.16 247.72 16.16 247.92 16.16 248.45 16.16 248.98 16.16 249.9 16.21 251.36 16.21 252.31 16.21 253.15 16.16 253.49 16.16 253.797991 16.1423248 254.096899 16.2677924 254.3 16.5L260.8 23.95 265.58 29.55 265.7 29.55 265.69 27.12zM293.08 32.21C293.08 32.58 293.2 32.84 293.2 33.05 293.2 33.26 293.03 33.36 292.75 33.47 290.185181 34.6728337 287.371143 35.2486659 284.54 35.15 281.63 35.15 278.36 34.28 276.42 32.15 274.625809 30.1877403 273.699203 27.5845893 273.85 24.93 273.908406 22.3615201 275.097776 19.9498441 277.1 18.34 279.333057 16.5662808 282.130863 15.6573487 284.98 15.78 287.005942 15.7152905 289.016202 16.1551424 290.83 17.06 291.17 17.25 291.36 17.19 291.53 16.98L291.81 16.56C291.95 16.38 292.01 16.3 292.18 16.3 292.35 16.3 292.57 16.48 292.57 16.77L292.99 22.18C292.99 22.5 292.99 22.63 292.88 22.65L292.09 22.81C291.92 22.81 291.84 22.81 291.76 22.55 291.252262 21.02707 290.376339 19.6530721 289.21 18.55 287.993906 17.4638177 286.41008 16.8810555 284.78 16.92 283.136249 16.882014 281.57137 17.6236629 280.56 18.92 279.114914 20.5848496 278.319486 22.7154596 278.32 24.92 278.32 28.02 279.24 30.73 280.75 32.14 281.846005 33.3401899 283.415985 33.9952632 285.04 33.93 286.120439 34.0060172 287.203486 33.824367 288.2 33.4 288.79 33.14 288.84 32.3 288.84 30.94L288.84 29C288.84 28.05 288.56 27.79 287.84 27.79L286.67 27.79C286.5 27.79 286.47 27.68 286.47 27.55L286.47 26.9C286.47 26.79 286.47 26.71 286.67 26.71 286.87 26.71 288.29 26.79 290.81 26.79 293.33 26.79 294.42 26.71 294.65 26.71 294.88 26.71 294.9 26.79 294.9 26.92L294.9 27.58C294.9 27.74 294.9 27.79 294.7 27.79L293.98 27.79C293.48 27.79 293.11 27.97 293.11 28.73L293.08 32.21zM300.98 18.51C300.98 17.59 300.78 17.17 300.19 17.17L298.88 17.17C298.71 17.17 298.68 17.11 298.68 16.93L298.68 16.3C298.68 16.14 298.68 16.09 298.93 16.09 299.18 16.09 300.58 16.17 303.52 16.17 305.99 16.17 307.33 16.09 307.64 16.09 307.95 16.09 307.89 16.14 307.89 16.3L307.89 17C307.89 17.13 307.89 17.19 307.67 17.19L306.67 17.19C305.67 17.19 305.24 17.69 305.18 18.19 305.18 18.48 305.13 20.26 305.13 21.6L305.13 23.34C305.13 24.73 305.24 28.06 305.27 28.9 305.231534 30.0043736 305.550701 31.0916477 306.18 32 307.078852 32.9746893 308.35456 33.5141316 309.68 33.48 310.870279 33.4441259 312.021382 33.0464723 312.98 32.34 314.184053 31.2531312 314.831162 29.6794803 314.74 28.06L314.74 24C314.724295 22.0939032 314.59406 20.1904725 314.35 18.3 314.326532 17.7300137 313.911206 17.2523886 313.35 17.15L312.46 17.15C312.29 17.15 312.26 17.07 312.26 16.94L312.26 16.25C312.26 16.12 312.26 16.07 312.46 16.07 312.66 16.07 314.02 16.15 315.93 16.15 317.44 16.15 318.34 16.07 318.59 16.07 318.84 16.07 318.87 16.18 318.87 16.31L318.87 16.88C318.87 17.04 318.87 17.15 318.7 17.15L317.83 17.15C317.535706 17.1104436 317.238314 17.1961416 317.010198 17.3862381 316.782083 17.5763346 316.644161 17.8533977 316.63 18.15 316.57 18.52 316.57 22.15 316.57 22.51 316.57 22.87 316.52 27.51 316.43 28.51 316.37944 30.4382415 315.514713 32.2548952 314.05 33.51 312.614646 34.601272 310.852732 35.175656 309.05 35.14 307.593118 35.1619674 306.142909 34.9388583 304.76 34.48 303.264224 33.7945422 302.102253 32.5426355 301.53 31 301.06 29.87 300.95 28.11 300.95 24.67L300.98 18.51zM326.58 27.56C325.905066 29.1779929 325.369781 30.850758 324.98 32.56 324.938549 32.8724424 325.036957 33.1872673 325.24897 33.4204816 325.460983 33.653696 325.765033 33.7815744 326.08 33.77L327.08 33.77C327.36 33.77 327.38 33.87 327.38 33.98L327.38 34.56C327.38 34.76 327.38 34.84 327.13 34.84 326.88 34.84 325.62 34.76 323.32 34.76 321.32 34.76 320.67 34.84 320.27 34.84 320.1 34.84 320.08 34.69 320.08 34.5L320.08 34C320.08 33.85 320.08 33.77 320.27 33.77L320.98 33.77C321.766824 33.7233381 322.478965 33.2885573 322.88 32.61 323.28 32.06 325.26 27.49 326.19 25.18 326.41 24.66 328.68 19.02 328.93 18.31 329.072629 18.0269524 329.072629 17.6930476 328.93 17.41 328.85 17.31 328.73 17.18 328.73 17.07 328.73 16.96 328.79 16.89 329.01 16.84 330.130346 16.6013243 331.19563 16.1534981 332.15 15.52 332.29 15.39 332.37 15.29 332.51 15.29 332.65 15.29 332.74 15.44 332.82 15.73 333.35 17.39 335.54 23.27 336.07 24.95 336.71 26.95 338.53 31.88 338.93 32.59 339.229366 33.2372131 339.842162 33.6835706 340.55 33.77L341.5 33.77C341.67 33.77 341.7 33.87 341.7 34L341.7 34.5C341.7 34.66 341.7 34.84 341.45 34.84 340.91 34.84 340.33 34.76 336.74 34.76 334.42 34.76 333.44 34.84 332.88 34.84 332.6 34.84 332.57 34.69 332.57 34.5L332.57 34C332.57 33.87 332.57 33.77 332.74 33.77L333.52 33.77C334.28 33.77 334.52 33.51 334.36 32.82 334.11 31.88 333.02 28.52 332.68 27.57L326.58 27.56zM332.46 26.51L330.36 19.56C330.25 19.16 330.19 18.98 330.05 18.98 329.91 18.98 329.8 19.08 329.72 19.32 329.64 19.56 327.17 25.86 326.94 26.51L332.46 26.51zM363.65 32.21C363.65 32.58 363.76 32.84 363.76 33.05 363.76 33.26 363.6 33.36 363.32 33.47 360.755181 34.6728337 357.941143 35.2486659 355.11 35.15 352.2 35.15 348.92 34.28 346.99 32.15 345.191822 30.1901396 344.264597 27.5852486 344.42 24.93 344.478669 22.3638336 345.663707 19.9535259 347.66 18.34 349.907008 16.5552317 352.723261 15.6425242 355.59 15.77 357.615942 15.7052905 359.626202 16.1451424 361.44 17.05 361.78 17.24 361.97 17.18 362.14 16.97L362.42 16.55C362.56 16.37 362.62 16.29 362.78 16.29 362.94 16.29 363.18 16.47 363.18 16.76L363.6 22.17C363.6 22.49 363.6 22.62 363.48 22.64L362.7 22.8C362.53 22.8 362.45 22.8 362.36 22.54 361.859691 21.0159299 360.986596 19.6409773 359.82 18.54 358.602858 17.4555643 357.019746 16.8730649 355.39 16.91 353.743777 16.8736029 352.176539 17.6146139 351.16 18.91 349.718823 20.5771694 348.923959 22.7062692 348.92 24.91 348.92 28.01 349.85 30.72 351.36 32.13 352.452911 33.3286074 354.019179 33.9836587 355.64 33.92 356.723691 33.996084 357.809996 33.814462 358.81 33.39 359.4 33.13 359.45 32.29 359.45 30.93L359.45 29C359.45 28.05 359.17 27.79 358.45 27.79L357.28 27.79C357.11 27.79 357.08 27.68 357.08 27.55L357.08 26.9C357.08 26.79 357.08 26.71 357.28 26.71 357.48 26.71 358.9 26.79 361.42 26.79 363.94 26.79 365.03 26.71 365.26 26.71 365.49 26.71 365.51 26.79 365.51 26.92L365.51 27.58C365.51 27.74 365.51 27.79 365.31 27.79L364.5 27.79C364 27.79 363.63 27.97 363.63 28.73L363.65 32.21zM376.5 24.7C377.452655 24.7175313 378.405293 24.6640499 379.35 24.54 379.85983 24.4251095 380.315025 24.1392894 380.64 23.73 381.00215 23.2575372 381.223947 22.6926482 381.28 22.1 381.28 21.92 381.37 21.87 381.51 21.87L382.26 21.94C382.4 21.94 382.52 22 382.49 22.15 382.406663 23.0574585 382.376611 23.9690231 382.4 24.88 382.4 26.07 382.52 27.33 382.57 27.88 382.57 28.03 382.49 28.06 382.35 28.09L381.68 28.22C381.56 28.22 381.51 28.22 381.45 28.01 381.308974 27.5456006 381.121353 27.0966507 380.89 26.67 380.523139 26.1666671 379.967085 25.8344791 379.35 25.75 378.404695 25.6324553 377.452521 25.5789999 376.5 25.59L376.5 27.17C376.5 28.59 376.64 31.17 376.64 31.6 376.64 32.97 376.94 33.44 377.31 33.6 378.072442 33.8211048 378.868603 33.9024148 379.66 33.84 380.14 33.84 381.31 33.84 381.9 33.76 382.672809 33.6572685 383.406259 33.3576904 384.03 32.89 385.040872 32.0171468 385.992947 31.0784342 386.88 30.08 387 29.98 387.08 29.95 387.16 30L387.64 30.27C387.75 30.27 387.78 30.4 387.75 30.48L386.49 34.48C386.402732 34.7365317 386.149471 34.8984529 385.88 34.87L383.33 34.87C381.51 34.87 378.54 34.87 373.7 34.87 372.7 34.87 371.88 34.87 371.32 34.87 370.76 34.87 370.32 34.87 370.11 34.87 369.9 34.87 369.86 34.79 369.86 34.59L369.86 34C369.86 33.85 369.94 33.77 370.14 33.77L370.98 33.77C372.27 33.77 372.38 33.58 372.38 32.66L372.38 23.86C372.38 21.68 372.32 18.45 372.3 18.19 372.18 17.35 371.9 17.19 371.15 17.19L370.06 17.19C369.94 17.19 369.92 17.11 369.92 16.92L369.92 16.29C369.92 16.22 369.92 16.11 370.11 16.11 370.73 16.11 371.71 16.19 374.26 16.19L384.08 16.19C384.53 16.19 385.08 16.14 385.2 16.14 385.32 16.14 385.4 16.19 385.43 16.27 385.54 16.64 386.43 20.27 386.58 20.5 386.73 20.73 386.58 20.68 386.49 20.76L386.04 20.97C385.920933 21.0299965 385.775736 20.9859973 385.71 20.87 384.684038 19.806208 383.577411 18.8232824 382.4 17.93 381.762296 17.522965 381.03422 17.2791279 380.28 17.22L376.58 17.11 376.5 24.7zM438.91 18.51C438.91 17.59 438.71 17.17 438.12 17.17L436.81 17.17C436.64 17.17 436.61 17.11 436.61 16.93L436.61 16.3C436.61 16.14 436.61 16.09 436.86 16.09 437.11 16.09 438.52 16.17 441.45 16.17 443.92 16.17 445.26 16.09 445.57 16.09 445.88 16.09 445.82 16.14 445.82 16.3L445.82 17C445.82 17.13 445.82 17.19 445.6 17.19L444.65 17.19C443.65 17.19 443.22 17.69 443.16 18.19 443.16 18.48 443.11 20.26 443.11 21.6L443.11 23.34C443.11 24.73 443.22 28.06 443.25 28.9 443.201321 30.0088968 443.513612 31.1036702 444.14 32.02 445.038852 32.9946893 446.31456 33.5341316 447.64 33.5 448.846211 33.4664385 450.012653 33.0613269 450.98 32.34 452.184053 31.2531312 452.831162 29.6794803 452.74 28.06L452.74 24C452.724295 22.0939032 452.59406 20.1904725 452.35 18.3 452.326532 17.7300137 451.911206 17.2523886 451.35 17.15L450.46 17.15C450.29 17.15 450.26 17.07 450.26 16.94L450.26 16.25C450.26 16.12 450.26 16.07 450.46 16.07 450.66 16.07 452.02 16.15 453.93 16.15 455.44 16.15 456.34 16.07 456.59 16.07 456.84 16.07 456.87 16.18 456.87 16.31L456.87 16.88C456.87 17.04 456.87 17.15 456.7 17.15L455.83 17.15C455.535706 17.1104436 455.238314 17.1961416 455.010198 17.3862381 454.782083 17.5763346 454.644161 17.8533977 454.63 18.15 454.57 18.52 454.57 22.15 454.57 22.51 454.57 22.87 454.57 27.51 454.43 28.51 454.37944 30.4382415 453.514713 32.2548952 452.05 33.51 450.628184 34.5906006 448.885683 35.1643938 447.1 35.14 445.643118 35.1619674 444.192909 34.9388583 442.81 34.48 441.280152 33.8139931 440.083317 32.559479 439.49 31 439.02 29.87 438.91 28.11 438.91 24.67L438.91 18.51zM462.56 29C462.67 29 462.76 29 462.76 29.21 462.882601 30.2864917 463.26715 31.3165347 463.88 32.21 464.682949 33.3598316 466.007918 34.0316996 467.41 34 468.75 34 470.91 33.15 470.91 31.08 470.91 29.01 470.46 28.27 466.82 26.99 465.357112 26.439661 463.987722 25.6672714 462.76 24.7 461.765748 23.7241951 461.253347 22.3590129 461.36 20.97 461.262101 19.3897696 462.078396 17.8932289 463.46 17.12 464.604925 16.2450877 466.020336 15.7992332 467.46 15.86 468.721026 15.8113554 469.980649 15.9874318 471.18 16.38 471.400377 16.4942229 471.670507 16.4401967 471.83 16.25L472.19 15.91C472.302177 15.8013932 472.453995 15.7435577 472.61 15.75 472.81 15.75 472.86 16.04 472.89 16.2L473.34 20.69C473.34 20.79 473.28 20.82 473.2 20.84L472.58 21.03C472.507195 21.0580905 472.425798 21.0533074 472.356784 21.0168835 472.28777 20.9804595 472.237891 20.9159575 472.22 20.84 471.859796 19.7818742 471.276661 18.8133932 470.51 18 469.784263 17.2387911 468.759799 16.8363235 467.71 16.9 466.243315 16.8038798 464.94409 17.8389291 464.71 19.29 464.573771 20.1639022 464.838207 21.0526994 465.43 21.71 466.530556 22.5297223 467.791151 23.1089148 469.13 23.41 470.461338 23.7922954 471.686471 24.476727 472.71 25.41 473.831942 26.3830097 474.40707 27.8432361 474.25 29.32 474.258469 30.9190351 473.604122 32.4501297 472.442585 33.5491369 471.281048 34.6481441 469.716122 35.2168512 468.12 35.12 466.377625 35.2546552 464.63513 34.8608513 463.12 33.99 462.934556 33.8408758 462.714387 33.7411116 462.48 33.7 462.31 33.7 462.2 33.89 462.03 34.15 461.949798 34.356887 461.740581 34.4840584 461.52 34.46 461.22 34.46 461.1 34.33 461.13 34.04L461.58 29.04C461.58 28.85 461.69 28.85 461.8 28.85L462.56 29zM484.22 27.56C483.540565 29.176334 483.005153 30.8494958 482.62 32.56 482.575253 32.8713682 482.671112 33.186527 482.881653 33.4202468 483.092194 33.6539667 483.395666 33.7821017 483.71 33.77L484.71 33.77C484.99 33.77 485.02 33.87 485.02 33.98L485.02 34.56C485.02 34.76 485.02 34.84 484.77 34.84 484.52 34.84 483.26 34.76 480.96 34.76 478.96 34.76 478.3 34.84 477.96 34.84 477.79 34.84 477.76 34.69 477.76 34.5L477.76 34C477.76 33.85 477.76 33.77 477.96 33.77L478.69 33.77C479.476824 33.7233381 480.188965 33.2885573 480.59 32.61 480.98 32.06 482.97 27.49 483.89 25.18 484.12 24.66 486.39 19.02 486.64 18.31 486.782629 18.0269524 486.782629 17.6930476 486.64 17.41 486.539199 17.3205507 486.469206 17.2015639 486.44 17.07 486.44 16.99 486.5 16.89 486.72 16.84 487.840346 16.6013243 488.90563 16.1534981 489.86 15.52 490 15.39 490.08 15.29 490.22 15.29 490.36 15.29 490.44 15.44 490.53 15.73 491.06 17.39 493.24 23.27 493.78 24.95 494.42 26.95 496.24 31.88 496.63 32.59 496.935757 33.2362261 497.55061 33.6813348 498.26 33.77L499.26 33.77C499.43 33.77 499.45 33.87 499.45 34L499.45 34.5C499.45 34.66 499.45 34.84 499.2 34.84 498.67 34.84 498.08 34.76 494.5 34.76 492.17 34.76 491.19 34.84 490.63 34.84 490.35 34.84 490.33 34.69 490.33 34.5L490.33 34C490.33 33.87 490.33 33.77 490.49 33.77L491.28 33.77C492.03 33.77 492.28 33.51 492.12 32.82 491.87 31.88 490.77 28.52 490.44 27.57L484.22 27.56zM490.1 26.51L487.98 19.56C487.86 19.16 487.81 18.98 487.67 18.98 487.53 18.98 487.42 19.08 487.33 19.32 487.24 19.56 484.78 25.86 484.56 26.51L490.1 26.51zM521.29 32.21C521.29 32.58 521.4 32.84 521.4 33.05 521.4 33.26 521.23 33.36 520.95 33.47 518.388335 34.6716433 515.577822 35.2474557 512.75 35.15 509.84 35.15 506.56 34.28 504.63 32.15 502.829195 30.1911488 501.898451 27.5865068 502.05 24.93 502.112484 22.3625217 503.301053 19.9524697 505.3 18.34 507.542199 16.5534873 510.356036 15.6404113 513.22 15.77 515.248993 15.7069706 517.262084 16.1466901 519.08 17.05 519.41 17.24 519.61 17.18 519.78 16.97L520.06 16.55C520.2 16.37 520.25 16.29 520.42 16.29 520.59 16.29 520.81 16.47 520.81 16.76L521.23 22.17C521.23 22.49 521.23 22.62 521.12 22.64L520.34 22.8C520.17 22.8 520.08 22.8 520 22.54 519.496061 21.015263 518.61958 19.6403912 517.45 18.54 516.236973 17.4553294 514.656821 16.8726037 513.03 16.91 511.383777 16.8736029 509.816539 17.6146139 508.8 18.91 507.354914 20.5748496 506.559486 22.7054596 506.56 24.91 506.56 28.01 507.48 30.72 509 32.13 510.0921 33.3297582 511.658929 33.9850444 513.28 33.92 514.360494 33.9971738 515.443811 33.8154783 516.44 33.39 517.03 33.13 517.09 32.29 517.09 30.93L517.09 29C517.09 28.05 516.81 27.79 516.09 27.79L514.98 27.79C514.81 27.79 514.79 27.68 514.79 27.55L514.79 26.9C514.79 26.79 514.79 26.71 514.98 26.71 515.17 26.71 516.61 26.79 519.13 26.79 521.65 26.79 522.74 26.71 522.96 26.71 523.18 26.71 523.21 26.79 523.21 26.92L523.21 27.58C523.21 27.74 523.21 27.79 523.02 27.79L522.21 27.79C521.7 27.79 521.34 27.97 521.34 28.73L521.29 32.21zM534.13 24.7C535.085977 24.7174 536.041929 24.6639202 536.99 24.54 537.497709 24.4200039 537.951348 24.1351607 538.28 23.73 538.638 23.2552047 538.859319 22.6915342 538.92 22.1 538.92 21.92 539 21.87 539.14 21.87L539.9 21.94C540.04 21.94 540.15 22 540.12 22.15 540.045907 23.0579913 540.019204 23.9692281 540.04 24.88 540.04 26.07 540.15 27.33 540.21 27.88 540.21 28.03 540.12 28.06 539.98 28.09L539.31 28.22C539.2 28.22 539.14 28.22 539.09 28.01 538.948974 27.5456006 538.761353 27.0966507 538.53 26.67 538.163139 26.1666671 537.607085 25.8344791 536.99 25.75 536.041313 25.6328214 535.085838 25.5793682 534.13 25.59L534.13 27.17C534.13 28.59 534.27 31.17 534.27 31.6 534.27 32.97 534.58 33.44 534.94 33.6 535.705925 33.8207963 536.505307 33.9020895 537.3 33.84 537.77 33.84 538.95 33.84 539.54 33.76 540.31014 33.6586944 541.040707 33.3588863 541.66 32.89 542.674052 32.0172043 543.629457 31.0785019 544.52 30.08 544.63 29.98 544.72 29.95 544.8 30L545.28 30.27C545.39 30.27 545.42 30.4 545.39 30.48L544.13 34.48C544.038817 34.7380765 543.782111 34.8995524 543.51 34.87L540.96 34.87C539.14 34.87 536.18 34.87 531.33 34.87 530.33 34.87 529.51 34.87 528.95 34.87 528.39 34.87 527.95 34.87 527.75 34.87 527.55 34.87 527.5 34.79 527.5 34.59L527.5 34C527.5 33.85 527.58 33.77 527.78 33.77L528.62 33.77C529.9 33.77 530.02 33.58 530.02 32.66L530.02 23.86C530.02 21.68 529.96 18.45 529.93 18.19 529.82 17.35 529.54 17.19 528.78 17.19L527.69 17.19C527.58 17.19 527.55 17.11 527.55 16.92L527.55 16.29C527.55 16.22 527.55 16.11 527.75 16.11 528.36 16.11 529.34 16.19 531.89 16.19L541.72 16.19C542.17 16.19 542.72 16.14 542.84 16.14 542.96 16.14 543.04 16.19 543.06 16.27 543.18 16.64 544.06 20.27 544.21 20.5 544.36 20.73 544.27 20.68 544.13 20.76L543.68 20.97C543.557587 21.0261189 543.412538 20.9834573 543.34 20.87 542.315403 19.8085079 541.21228 18.825726 540.04 17.93 539.398652 17.5229039 538.667336 17.2791317 537.91 17.22L534.22 17.11 534.13 24.7z"/>
    <path fill="#90373B" fill-rule="nonzero" d="M424.61,20.11 C424.61,18.64 423.45,17.16 420.86,17.16 C419.714198,17.0601294 418.696049,17.8879282 418.56,19.03 C418.56691,19.4284055 418.738595,19.8061381 419.034206,20.0733249 C419.329817,20.3405118 419.722926,20.4732654 420.12,20.44 C420.565793,20.4529347 420.993049,20.261406 421.28,19.92 C421.532634,19.6135296 421.628688,19.2071466 421.54,18.82 C421.491094,18.704983 421.491094,18.575017 421.54,18.46 C421.54,18.46 421.54,18.41 421.69,18.41 C422.442924,18.5193302 423.02678,19.1237445 423.11,19.88 C423.11,21.45 421.5,22.01 420.11,22.01 C419.17,22.01 418.53,21.96 417.91,21.91 C417.29,21.86 416.91,21.83 416.27,21.83 C413.07,21.83 411.4,23.83 411.4,25.83 C411.343558,26.6932422 411.652753,27.5404251 412.251971,28.1643727 C412.851189,28.7883203 413.685182,29.1315042 414.55,29.11 C416.45,29.11 416.84,28.11 416.84,27.32 C416.84,26.53 416.18,25.91 415.01,25.91 C414.616923,25.9115583 414.247093,26.0964733 414.01,26.41 C413.754258,26.6996973 413.640653,27.0881538 413.7,27.47 C413.732154,27.5256922 413.732154,27.5943078 413.7,27.65 C413.677289,27.6576223 413.652711,27.6576223 413.63,27.65 C413.191766,27.3909523 412.913559,26.9285269 412.89,26.42 C412.89,26.06 413.01,24.29 415.55,24.29 C418.09,24.29 419.27,25.81 419.27,27.29 C419.27,29.6 416.94,31.94 411.74,31.94 C406.92,31.94 404.15,30.17 404.15,27.08 C404.126036,25.91117 404.607079,24.7887365 405.47,24 C405.542759,23.9428958 405.628743,23.9050626 405.72,23.89 C405.77,23.89 405.81,23.89 405.91,24.03 C406.520068,24.4454543 407.225231,24.7000013 407.96,24.77 C408.96,24.77 409.43,24.33 409.43,23.41 C409.43,22.23 408.26,22.23 407.88,22.23 C407.373278,22.2372308 406.871979,22.3354584 406.4,22.52 L406.15,22.6 C405.879874,22.1301 405.75463,21.590854 405.79,21.05 C405.806449,19.8538461 406.783746,18.8943994 407.98,18.9 C408.521747,18.8790451 409.047545,19.0857385 409.43,19.47 C409.674341,19.7087148 409.779927,20.0556386 409.71,20.39 C409.71,20.66 409.71,20.84 409.76,20.93 C409.79979,20.9766165 409.858758,21.0024149 409.92,21 C410.871101,20.8676536 411.569595,20.0398088 411.54,19.08 C411.54,17.34 410.29,16.26 408.28,16.26 C405.35,16.26 403.82,18.18 403.82,20.08 C403.865687,21.1804692 404.273462,22.2350596 404.98,23.08 C402.949433,24.0700076 401.66086,26.1309477 401.66,28.39 C401.685907,30.0651994 402.411052,31.6532672 403.66,32.77 C405.36,34.34 407.96,35.14 411.39,35.14 C416.93,35.14 420.8,32.22 420.8,28.03 C420.861358,27.0143575 420.606316,26.0046728 420.07,25.14 C419.99,25.01 419.96,24.91 419.99,24.85 C420.02,24.79 420.16,24.72 420.36,24.69 C423.08,24.3 424.61,22.67 424.61,20.11 Z"/>
    <polyline fill="#5E4F38" fill-rule="nonzero" points="10 4 10 3 575 3 575 4"/>
    <path fill="#AA9F89" fill-rule="nonzero" d="M10 33L10 34C10.1761836 34.1597663 10.1761836 34.8407531 10 35L10 52 11 52 11 34C10.67 33.6711688 10.33 33.3553247 10 33zM10 21C10.3147681 20.6429238 10.6486045 20.3036905 11 20L11 0 10 0 10 18C10.1814782 19.0773034 10.1814782 19.7929044 10 20L10 21zM575 19L575 18C574.813789 17.8415786 574.813789 17.1579019 575 17L575 4 574 4 574 18C574.35 18.3288312 574.68 18.6446753 575 19zM575 32C574.66 32.3658199 574.33 32.6909931 574 33L574 49 575 49 575 35C574.808298 33.924122 574.808298 33.2056702 575 33L575 32z"/>
    <path fill="#2B292C" fill-rule="nonzero" d="M563.76 27.09C560.69 29.88 563.12 34.55 567.39 35.03L567.31 35.03C567.186975 35.3376217 567.238854 35.687633 567.445822 35.9463426 567.652789 36.2050522 567.982876 36.3324978 568.31 36.28 569.66 36.28 573.72 32.76 573.72 32.76 574.270117 32.3064274 574.784935 31.8116669 575.26 31.28 573.44 36.18 578.8 37.06 580.44 34.38 578.51 34.9 575.89 33.38 578.75 26.17 578.100553 26.8598554 577.492808 27.5878133 576.93 28.35 568.78 37.08 561.22 31.94 563.76 27.09zM576.89 22.16C577.450557 22.9207865 578.058424 23.6455515 578.71 24.33 575.85 17.15 578.47 15.6 580.4 16.13 578.76 13.44 573.4 14.32 575.22 19.22 574.742317 18.6908642 574.227692 18.196289 573.68 17.74 573.68 17.74 569.62 14.22 568.27 14.22 567.942876 14.1675022 567.612789 14.2949478 567.405822 14.5536574 567.198854 14.812367 567.146975 15.1623783 567.27 15.47L567.35 15.47C563.08 15.95 560.65 20.62 563.72 23.41 561.22 18.6 568.78 13.46 576.89 22.16z"/>
    <path fill="#2B292C" fill-rule="nonzero" d="M575.98 23.39C575.774159 23.7816872 575.448224 24.0971085 575.05 24.29 574.900944 24.2593399 574.753983 24.2192595 574.61 24.17L574.37 24.07C572.49 23.23 571.18 20.59 572.88 20.59 571.03 18.92 569.35 20.65 570.15 22.27 570.15 22.27 570.73 24.17 566.06 24.32 570.72 20.84 565.91 18.2 565.5 21.06 566.64 20.21 567.4 23.29 566.06 24.32L564.98 24.32 564.98 23.38C564.98 23.38 564.36 25.22 562.98 25.26 564.36 25.26 564.98 27.13 564.98 27.13L564.98 26.2 565.5 26.2 566.06 26.2C567.4 27.2 566.64 30.31 565.5 29.46 565.91 32.31 570.72 29.68 566.06 26.2 570.73 26.34 570.15 28.25 570.15 28.25 569.35 29.87 571.03 31.59 572.88 29.92 571.18 29.92 572.49 27.28 574.37 26.44L574.61 26.34C574.753983 26.2907405 574.900944 26.2506601 575.05 26.22 575.448224 26.4128915 575.774159 26.7283128 575.98 27.12 576.34 26.34 577.98 26.18 577.98 26.18L581.98 26.18C578.71 28.57 579.7 31.39 581.53 32.34 582.9 33.05 584.94 32.84 584.94 29.92 584.972915 29.5098503 584.751239 29.1214051 584.381374 28.9411125 584.011508 28.7608199 583.56896 28.8254868 583.266148 29.1040741 582.963336 29.3826614 582.862078 29.8182952 583.010977 30.2018773 583.159876 30.5854595 583.528534 30.8386814 583.94 30.84 583.874162 31.2786763 583.5908 31.6542346 583.18704 31.8379452 582.78328 32.0216559 582.31398 31.9885593 581.94 31.75 580.54 31.02 581.34 28.06 582.64 28.06L584.98 28.06 584.98 22.45 582.7 22.45C581.4 22.45 580.6 19.45 582 18.77 582.371452 18.5261247 582.841736 18.4888689 583.246953 18.6712166 583.65217 18.8535642 583.936179 19.2302519 584 19.67 583.495958 19.7080625 583.114609 20.1417499 583.141329 20.6465203 583.168049 21.1512907 583.593053 21.5422939 584.098296 21.52693 584.60354 21.511566 585.004 21.0954613 585 20.59 585 17.68 583 17.47 581.59 18.18 579.76 19.13 578.77 21.94 582.04 24.33L578.04 24.33C578.04 24.33 576.36 24.17 575.98 23.39zM21.22 24C24.28 21.21 21.85 16.54 17.58 16.06L17.66 16.06C17.7830252 15.7523783 17.7311459 15.402367 17.5241782 15.1436574 17.3172106 14.8849478 16.9871242 14.7575022 16.66 14.81 15.32 14.81 11.26 18.33 11.26 18.33 10.7155943 18.7864775 10.2043072 19.2810559 9.73 19.81 11.54 14.91 6.19 14.03 4.54 16.72 6.48 16.19 9.09 17.72 6.24 24.92 6.88388478 24.2287155 7.49137232 23.5044034 8.06 22.75 16.19 14 23.75 19.13 21.22 24zM8.09 28.91C7.52415314 28.1502051 6.91655111 27.422418 6.27 26.73 9.12 33.91 6.51 35.46 4.57 34.93 6.22 37.62 11.57 36.74 9.76 31.84 10.2317012 32.3714471 10.7431793 32.8662102 11.29 33.32 11.29 33.32 15.35 36.84 16.69 36.84 17.0171242 36.8924978 17.3472106 36.7650522 17.5541782 36.5063426 17.7611459 36.247633 17.8130252 35.8976217 17.69 35.59L17.61 35.59C21.88 35.11 24.31 30.44 21.25 27.65 23.75 32.46 16.19 37.6 8.09 28.91z"/>
    <path fill="#2B292C" fill-rule="nonzero" d="M8.98,27.67 C9.18545711,27.2815114 9.50709018,26.9668703 9.9,26.77 C10.0523473,26.8006127 10.2026386,26.8406904 10.35,26.89 L10.59,26.99 C12.47,27.83 13.77,30.47 12.08,30.47 C13.92,32.14 15.6,30.41 14.8,28.79 C14.8,28.79 14.22,26.89 18.88,26.79 C14.23,30.27 19.04,32.9 19.45,30.05 C18.3,30.9 17.54,27.81 18.88,26.79 L19.45,26.79 L19.98,26.79 L19.98,27.73 C19.98,27.73 20.59,25.9 21.98,25.86 C20.59,25.86 19.98,23.98 19.98,23.98 L19.98,24.92 L19.46,24.92 L18.89,24.92 C17.55,23.92 18.31,20.82 19.46,21.66 C19.05,18.81 14.24,21.45 18.89,24.92 C14.23,24.78 14.81,22.92 14.81,22.92 C15.61,21.3 13.93,19.57 12.09,21.24 C13.78,21.24 12.48,23.88 10.6,24.72 L10.36,24.82 C10.2126386,24.8693096 10.0623473,24.9093873 9.91,24.94 C9.51709018,24.7431297 9.19545711,24.4284886 8.99,24.04 C8.62,24.82 6.99,24.98 6.99,24.98 L2.98,24.98 C6.24,22.59 5.26,19.78 3.43,18.83 C2.06,18 -0.02,18.21 -0.02,21.12 C-0.02,21.6722847 0.42771525,22.12 0.98,22.12 C1.53228475,22.12 1.98,21.6722847 1.98,21.12 C1.93820297,20.5991781 1.50249371,20.1983255 0.98,20.2 C1.04382121,19.7602519 1.32783045,19.3835642 1.73304746,19.2012166 C2.13826448,19.0188689 2.60854831,19.0561247 2.98,19.3 C4.37,20.02 3.57,22.98 2.28,22.98 L-0.02,22.98 L-0.02,28.61 L2.28,28.61 C3.57,28.61 4.37,31.61 2.98,32.3 C2.60602015,32.5385593 2.13671959,32.5716559 1.73295992,32.3879452 C1.32920026,32.2042346 1.04583766,31.8286763 0.98,31.39 C1.4753702,31.3467569 1.84673248,30.9177227 1.81851044,30.4212701 C1.79028841,29.9248176 1.37269677,29.5406333 0.875617284,29.5538084 C0.378537802,29.5669836 -0.0181161436,29.9727495 -0.02,30.47 C-0.02,33.38 1.98,33.6 3.4,32.88 C5.23,31.88 6.21,29.12 2.95,26.73 L6.95,26.73 C6.95,26.73 8.61,26.89 8.98,27.67 Z"/>
    <rect width="1" height="564.98" x="291.99" y="-233.99" fill="#5E4F38" fill-rule="nonzero" transform="rotate(-90 292.49 48.5)"/>
    <path fill="#BDB29E" fill-rule="nonzero" d="M574.98 0C574.98.55228475 574.532285 1 573.98 1 573.427715 1 572.98.55228475 572.98 0 571.98.55228475 571.532285 1 570.98 1 570.427715 1 569.98.55228475 569.98 0 568.98.55228475 568.532285 1 567.98 1 567.427715 1 566.98.55228475 566.98 0 565.98.55228475 565.532285 1 564.98 1 564.427715 1 563.98.55228475 563.98 0 562.98.55228475 562.532285 1 561.98 1 561.427715 1 560.98.55228475 560.98 0 559.98.55228475 559.532285 1 558.98 1 558.427715 1 557.98.55228475 557.98 0 556.98.55228475 556.532285 1 555.98 1 555.427715 1 554.98.55228475 554.98 0 553.98.55228475 553.532285 1 552.98 1 552.427715 1 551.98.55228475 551.98 0 550.98.55228475 550.532285 1 549.98 1 549.427715 1 548.98.55228475 548.98 0 547.98.55228475 547.532285 1 546.98 1 546.427715 1 545.98.55228475 545.98 0 544.98.55228475 544.532285 1 543.98 1 543.427715 1 542.98.55228475 542.98 0 541.98.55228475 541.532285 1 540.98 1 540.427715 1 539.98.55228475 539.98 0 538.98.55228475 538.532285 1 537.98 1 537.427715 1 536.98.55228475 536.98 0 535.98.55228475 535.532285 1 534.98 1 534.427715 1 533.98.55228475 533.98 0 532.98.55228475 532.532285 1 531.98 1 531.427715 1 530.98.55228475 530.98 0 529.98.55228475 529.532285 1 528.98 1 528.427715 1 527.98.55228475 527.98 0 526.98.55228475 526.532285 1 525.98 1 525.427715 1 524.98.55228475 524.98 0 523.98.55228475 523.532285 1 522.98 1 522.427715 1 521.98.55228475 521.98 0 520.98.55228475 520.532285 1 519.98 1 519.427715 1 518.98.55228475 518.98 0 517.98.55228475 517.532285 1 516.98 1 516.427715 1 515.98.55228475 515.98 0 514.98.55228475 514.532285 1 513.98 1 513.427715 1 512.98.55228475 512.98 0 511.98.55228475 511.532285 1 510.98 1 510.427715 1 509.98.55228475 509.98 0 508.98.55228475 508.532285 1 507.98 1 507.427715 1 506.98.55228475 506.98 0 505.98.55228475 505.532285 1 504.98 1 504.427715 1 503.98.55228475 503.98 0 502.98.55228475 502.532285 1 501.98 1 501.427715 1 500.98.55228475 500.98 0 499.98.55228475 499.532285 1 498.98 1 498.427715 1 497.98.55228475 497.98 0 496.98.55228475 496.532285 1 495.98 1 495.427715 1 494.98.55228475 494.98 0 493.98.55228475 493.532285 1 492.98 1 492.427715 1 491.98.55228475 491.98 0 490.98.55228475 490.532285 1 489.98 1 489.427715 1 488.98.55228475 488.98 0 487.98.55228475 487.532285 1 486.98 1 486.427715 1 485.98.55228475 485.98 0 484.98.55228475 484.532285 1 483.98 1 483.427715 1 482.98.55228475 482.98 0 481.98.55228475 481.532285 1 480.98 1 480.427715 1 479.98.55228475 479.98 0 478.98.55228475 478.532285 1 477.98 1 477.427715 1 476.98.55228475 476.98 0 475.98.55228475 475.532285 1 474.98 1 474.427715 1 473.98.55228475 473.98 0 472.98.55228475 472.532285 1 471.98 1 471.427715 1 470.98.55228475 470.98 0 469.98.55228475 469.532285 1 468.98 1 468.427715 1 467.98.55228475 467.98 0 466.98.55228475 466.532285 1 465.98 1 465.427715 1 464.98.55228475 464.98 0 463.98.55228475 463.532285 1 462.98 1 462.427715 1 461.98.55228475 461.98 0 460.98.55228475 460.532285 1 459.98 1 459.427715 1 458.98.55228475 458.98 0 457.98.55228475 457.532285 1 456.98 1 456.427715 1 455.98.55228475 455.98 0 454.98.55228475 454.532285 1 453.98 1 453.427715 1 452.98.55228475 452.98 0 451.98.55228475 451.532285 1 450.98 1 450.427715 1 449.98.55228475 449.98 0 448.98.55228475 448.532285 1 447.98 1 447.427715 1 446.98.55228475 446.98 0 445.98.55228475 445.532285 1 444.98 1 444.427715 1 443.98.55228475 443.98 0 442.98.55228475 442.532285 1 441.98 1 441.427715 1 440.98.55228475 440.98 0 439.98.55228475 439.532285 1 438.98 1 438.427715 1 437.98.55228475 437.98 0 436.98.55228475 436.532285 1 435.98 1 435.427715 1 434.98.55228475 434.98 0 433.98.55228475 433.532285 1 432.98 1 432.427715 1 431.98.55228475 431.98 0 430.98.55228475 430.532285 1 429.98 1 429.427715 1 428.98.55228475 428.98 0 427.98.55228475 427.532285 1 426.98 1 426.427715 1 425.98.55228475 425.98 0 424.98.55228475 424.532285 1 423.98 1 423.427715 1 422.98.55228475 422.98 0 421.98.55228475 421.532285 1 420.98 1 420.427715 1 419.98.55228475 419.98 0 418.98.55228475 418.532285 1 417.98 1 417.427715 1 416.98.55228475 416.98 0 415.98.55228475 415.532285 1 414.98 1 414.427715 1 413.98.55228475 413.98 0 412.98.55228475 412.532285 1 411.98 1 411.427715 1 410.98.55228475 410.98 0 409.98.55228475 409.532285 1 408.98 1 408.427715 1 407.98.55228475 407.98 0 406.98.55228475 406.532285 1 405.98 1 405.427715 1 404.98.55228475 404.98 0 403.98.55228475 403.532285 1 402.98 1 402.427715 1 401.98.55228475 401.98 0 400.98.55228475 400.532285 1 399.98 1 399.427715 1 398.98.55228475 398.98 0 397.98.55228475 397.532285 1 396.98 1 396.427715 1 395.98.55228475 395.98 0 394.98.55228475 394.532285 1 393.98 1 393.427715 1 392.98.55228475 392.98 0 391.98.55228475 391.532285 1 390.98 1 390.427715 1 389.98.55228475 389.98 0 388.98.55228475 388.532285 1 387.98 1 387.427715 1 386.98.55228475 386.98 0 385.98.55228475 385.532285 1 384.98 1 384.427715 1 383.98.55228475 383.98 0 382.98.55228475 382.532285 1 381.98 1 381.427715 1 380.98.55228475 380.98 0 379.98.55228475 379.532285 1 378.98 1 378.427715 1 377.98.55228475 377.98 0 376.98.55228475 376.532285 1 375.98 1 375.427715 1 374.98.55228475 374.98 0 373.98.55228475 373.532285 1 372.98 1 372.427715 1 371.98.55228475 371.98 0 370.98.55228475 370.532285 1 369.98 1 369.427715 1 368.98.55228475 368.98 0 367.98.55228475 367.532285 1 366.98 1 366.427715 1 365.98.55228475 365.98 0 364.98.55228475 364.532285 1 363.98 1 363.427715 1 362.98.55228475 362.98 0 361.98.55228475 361.532285 1 360.98 1 360.427715 1 359.98.55228475 359.98 0 358.98.55228475 358.532285 1 357.98 1 357.427715 1 356.98.55228475 356.98 0 355.98.55228475 355.532285 1 354.98 1 354.427715 1 353.98.55228475 353.98 0 352.98.55228475 352.532285 1 351.98 1 351.427715 1 350.98.55228475 350.98 0 349.98.55228475 349.532285 1 348.98 1 348.427715 1 347.98.55228475 347.98 0 346.98.55228475 346.532285 1 345.98 1 345.427715 1 344.98.55228475 344.98 0 343.98.55228475 343.532285 1 342.98 1 342.427715 1 341.98.55228475 341.98 0 340.98.55228475 340.532285 1 339.98 1 339.427715 1 338.98.55228475 338.98 0 337.98.55228475 337.532285 1 336.98 1 336.427715 1 335.98.55228475 335.98 0 334.98.55228475 334.532285 1 333.98 1 333.427715 1 332.98.55228475 332.98 0 331.98.55228475 331.532285 1 330.98 1 330.427715 1 329.98.55228475 329.98 0 328.98.55228475 328.532285 1 327.98 1 327.427715 1 326.98.55228475 326.98 0 325.98.55228475 325.532285 1 324.98 1 324.427715 1 323.98.55228475 323.98 0 322.98.55228475 322.532285 1 321.98 1 321.427715 1 320.98.55228475 320.98 0 319.98.55228475 319.532285 1 318.98 1 318.427715 1 317.98.55228475 317.98 0 316.98.55228475 316.532285 1 315.98 1 315.427715 1 314.98.55228475 314.98 0 313.98.55228475 313.532285 1 312.98 1 312.427715 1 311.98.55228475 311.98 0 310.98.55228475 310.532285 1 309.98 1 309.427715 1 308.98.55228475 308.98 0 307.98.55228475 307.532285 1 306.98 1 306.427715 1 305.98.55228475 305.98 0 304.98.55228475 304.532285 1 303.98 1 303.427715 1 302.98.55228475 302.98 0 301.98.55228475 301.532285 1 300.98 1 300.427715 1 299.98.55228475 299.98 0 298.98.55228475 298.532285 1 297.98 1 297.427715 1 296.98.55228475 296.98 0 295.98.55228475 295.532285 1 294.98 1 294.427715 1 293.98.55228475 293.98 0 292.98.55228475 292.532285 1 291.98 1 291.427715 1 290.98.55228475 290.98 0 289.98.55228475 289.532285 1 288.98 1 288.427715 1 287.98.55228475 287.98 0 286.98.55228475 286.532285 1 285.98 1 285.427715 1 284.98.55228475 284.98 0 283.98.55228475 283.532285 1 282.98 1 282.427715 1 281.98.55228475 281.98 0 280.98.55228475 280.532285 1 279.98 1 279.427715 1 278.98.55228475 278.98 0 277.98.55228475 277.532285 1 276.98 1 276.427715 1 275.98.55228475 275.98 0 274.98.55228475 274.532285 1 273.98 1 273.427715 1 272.98.55228475 272.98 0 271.98.55228475 271.532285 1 270.98 1 270.427715 1 269.98.55228475 269.98 0 268.98.55228475 268.532285 1 267.98 1 267.427715 1 266.98.55228475 266.98 0 265.98.55228475 265.532285 1 264.98 1 264.427715 1 263.98.55228475 263.98 0 262.98.55228475 262.532285 1 261.98 1 261.427715 1 260.98.55228475 260.98 0 259.98.55228475 259.532285 1 258.98 1 258.427715 1 257.98.55228475 257.98 0 256.98.55228475 256.532285 1 255.98 1 255.427715 1 254.98.55228475 254.98 0 253.98.55228475 253.532285 1 252.98 1 252.427715 1 251.98.55228475 251.98 0 250.98.55228475 250.532285 1 249.98 1 249.427715 1 248.98.55228475 248.98 0 247.98.55228475 247.532285 1 246.98 1 246.427715 1 245.98.55228475 245.98 0 244.98.55228475 244.532285 1 243.98 1 243.427715 1 242.98.55228475 242.98 0 241.98.55228475 241.532285 1 240.98 1 240.427715 1 239.98.55228475 239.98 0 238.98.55228475 238.532285 1 237.98 1 237.427715 1 236.98.55228475 236.98 0 235.98.55228475 235.532285 1 234.98 1 234.427715 1 233.98.55228475 233.98 0 232.98.55228475 232.532285 1 231.98 1 231.427715 1 230.98.55228475 230.98 0 229.98.55228475 229.532285 1 228.98 1 228.427715 1 227.98.55228475 227.98 0 226.98.55228475 226.532285 1 225.98 1 225.427715 1 224.98.55228475 224.98 0 223.98.55228475 223.532285 1 222.98 1 222.427715 1 221.98.55228475 221.98 0 220.98.55228475 220.532285 1 219.98 1 219.427715 1 218.98.55228475 218.98 0 217.98.55228475 217.532285 1 216.98 1 216.427715 1 215.98.55228475 215.98 0 214.98.55228475 214.532285 1 213.98 1 213.427715 1 212.98.55228475 212.98 0 211.98.55228475 211.532285 1 210.98 1 210.427715 1 209.98.55228475 209.98 0 208.98.55228475 208.532285 1 207.98 1 207.427715 1 206.98.55228475 206.98 0 205.98.55228475 205.532285 1 204.98 1 204.427715 1 203.98.55228475 203.98 0 202.98.55228475 202.532285 1 201.98 1 201.427715 1 200.98.55228475 200.98 0 199.98.55228475 199.532285 1 198.98 1 198.427715 1 197.98.55228475 197.98 0 196.98.55228475 196.532285 1 195.98 1 195.427715 1 194.98.55228475 194.98 0 193.98.55228475 193.532285 1 192.98 1 192.427715 1 191.98.55228475 191.98 0 190.98.55228475 190.532285 1 189.98 1 189.427715 1 188.98.55228475 188.98 0 187.98.55228475 187.532285 1 186.98 1 186.427715 1 185.98.55228475 185.98 0 184.98.55228475 184.532285 1 183.98 1 183.427715 1 182.98.55228475 182.98 0 181.98.55228475 181.532285 1 180.98 1 180.427715 1 179.98.55228475 179.98 0 178.98.55228475 178.532285 1 177.98 1 177.427715 1 176.98.55228475 176.98 0 175.98.55228475 175.532285 1 174.98 1 174.427715 1 173.98.55228475 173.98 0 172.98.55228475 172.532285 1 171.98 1 171.427715 1 170.98.55228475 170.98 0 169.98.55228475 169.532285 1 168.98 1 168.427715 1 167.98.55228475 167.98 0 166.98.55228475 166.532285 1 165.98 1 165.427715 1 164.98.55228475 164.98 0 163.98.55228475 163.532285 1 162.98 1 162.427715 1 161.98.55228475 161.98 0 160.98.55228475 160.532285 1 159.98 1 159.427715 1 158.98.55228475 158.98 0 157.98.55228475 157.532285 1 156.98 1 156.427715 1 155.98.55228475 155.98 0 154.98.55228475 154.532285 1 153.98 1 153.427715 1 152.98.55228475 152.98 0 151.98.55228475 151.532285 1 150.98 1 150.427715 1 149.98.55228475 149.98 0 148.98.55228475 148.532285 1 147.98 1 147.427715 1 146.98.55228475 146.98 0 145.98.55228475 145.532285 1 144.98 1 144.427715 1 143.98.55228475 143.98 0 142.98.55228475 142.532285 1 141.98 1 141.427715 1 140.98.55228475 140.98 0 139.98.55228475 139.532285 1 138.98 1 138.427715 1 137.98.55228475 137.98 0 136.98.55228475 136.532285 1 135.98 1 135.427715 1 134.98.55228475 134.98 0 133.98.55228475 133.532285 1 132.98 1 132.427715 1 131.98.55228475 131.98 0 130.98.55228475 130.532285 1 129.98 1 129.427715 1 128.98.55228475 128.98 0 127.98.55228475 127.532285 1 126.98 1 126.427715 1 125.98.55228475 125.98 0 124.98.55228475 124.532285 1 123.98 1 123.427715 1 122.98.55228475 122.98 0 121.98.55228475 121.532285 1 120.98 1 120.427715 1 119.98.55228475 119.98 0 118.98.55228475 118.532285 1 117.98 1 117.427715 1 116.98.55228475 116.98 0 115.98.55228475 115.532285 1 114.98 1 114.427715 1 113.98.55228475 113.98 0 112.98.55228475 112.532285 1 111.98 1 111.427715 1 110.98.55228475 110.98 0 109.98.55228475 109.532285 1 108.98 1 108.427715 1 107.98.55228475 107.98 0 106.98.55228475 106.532285 1 105.98 1 105.427715 1 104.98.55228475 104.98 0 103.98.55228475 103.532285 1 102.98 1 102.427715 1 101.98.55228475 101.98 0 100.98.55228475 100.532285 1 99.98 1 99.4277153 1 98.98.55228475 98.98 0 97.98.55228475 97.5322847 1 96.98 1 96.4277153 1 95.98.55228475 95.98 0 94.98.55228475 94.5322847 1 93.98 1 93.4277153 1 92.98.55228475 92.98 0 91.98.55228475 91.5322847 1 90.98 1 90.4277153 1 89.98.55228475 89.98 0 88.98.55228475 88.5322847 1 87.98 1 87.4277153 1 86.98.55228475 86.98 0 85.98.55228475 85.5322847 1 84.98 1 84.4277153 1 83.98.55228475 83.98 0 82.98.55228475 82.5322847 1 81.98 1 81.4277153 1 80.98.55228475 80.98 0 79.98.55228475 79.5322847 1 78.98 1 78.4277153 1 77.98.55228475 77.98 0 76.98.55228475 76.5322847 1 75.98 1 75.4277153 1 74.98.55228475 74.98 0 73.98.55228475 73.5322847 1 72.98 1 72.4277153 1 71.98.55228475 71.98 0 70.98.55228475 70.5322847 1 69.98 1 69.4277153 1 68.98.55228475 68.98 0 67.98.55228475 67.5322847 1 66.98 1 66.4277153 1 65.98.55228475 65.98 0 64.98.55228475 64.5322847 1 63.98 1 63.4277153 1 62.98.55228475 62.98 0 61.98.55228475 61.5322847 1 60.98 1 60.4277153 1 59.98.55228475 59.98 0 58.98.55228475 58.5322847 1 57.98 1 57.4277153 1 56.98.55228475 56.98 0 55.98.55228475 55.5322847 1 54.98 1 54.4277153 1 53.98.55228475 53.98 0 52.98.55228475 52.5322847 1 51.98 1 51.4277153 1 50.98.55228475 50.98 0 49.98.55228475 49.5322847 1 48.98 1 48.4277153 1 47.98.55228475 47.98 0 46.98.55228475 46.5322847 1 45.98 1 45.4277153 1 44.98.55228475 44.98 0 43.98.55228475 43.5322847 1 42.98 1 42.4277153 1 41.98.55228475 41.98 0 40.98.55228475 40.5322847 1 39.98 1 39.4277153 1 38.98.55228475 38.98 0 37.98.55228475 37.5322847 1 36.98 1 36.4277153 1 35.98.55228475 35.98 0 34.98.55228475 34.5322847 1 33.98 1 33.4277153 1 32.98.55228475 32.98 0 31.98.55228475 31.5322847 1 30.98 1 30.4277153 1 29.98.55228475 29.98 0 28.98.55228475 28.5322847 1 27.98 1 27.4277153 1 26.98.55228475 26.98 0 25.98.55228475 25.5322847 1 24.98 1 24.4277153 1 23.98.55228475 23.98 0 22.98.55228475 22.5322847 1 21.98 1 21.4277153 1 20.98.55228475 20.98 0 19.98.55228475 19.5322847 1 18.98 1 18.4277153 1 17.98.55228475 17.98 0 16.98.55228475 16.5322847 1 15.98 1 15.4277153 1 14.98.55228475 14.98 0 13.98.55228475 13.5322847 1 12.98 1 12.4277153 1 11.98.55228475 11.98 0 10.9805303.260056036 10.8733018.50871163 10.6838174.686826982 10.4943329.864942334 10.2395262.956599897 9.98.94L9.98 1.89 575 2 574.98 0zM9.98 50.12L9.98 51.76C9.98480433 51.8399279 9.98480433 51.9200721 9.98 52 10.98 51.4477153 11.4277153 51 11.98 51 12.5322847 51 12.98 51.4477153 12.98 52 13.98 51.4477153 14.4277153 51 14.98 51 15.5322847 51 15.98 51.4477153 15.98 52 16.98 51.4477153 17.4277153 51 17.98 51 18.5322847 51 18.98 51.4477153 18.98 52 19.98 51.4477153 20.4277153 51 20.98 51 21.5322847 51 21.98 51.4477153 21.98 52 22.98 51.4477153 23.4277153 51 23.98 51 24.5322847 51 24.98 51.4477153 24.98 52 25.98 51.4477153 26.4277153 51 26.98 51 27.5322847 51 27.98 51.4477153 27.98 52 28.98 51.4477153 29.4277153 51 29.98 51 30.5322847 51 30.98 51.4477153 30.98 52 31.98 51.4477153 32.4277153 51 32.98 51 33.5322847 51 33.98 51.4477153 33.98 52 34.98 51.4477153 35.4277153 51 35.98 51 36.5322847 51 36.98 51.4477153 36.98 52 37.98 51.4477153 38.4277153 51 38.98 51 39.5322847 51 39.98 51.4477153 39.98 52 40.98 51.4477153 41.4277153 51 41.98 51 42.5322847 51 42.98 51.4477153 42.98 52 43.98 51.4477153 44.4277153 51 44.98 51 45.5322847 51 45.98 51.4477153 45.98 52 46.98 51.4477153 47.4277153 51 47.98 51 48.5322847 51 48.98 51.4477153 48.98 52 49.98 51.4477153 50.4277153 51 50.98 51 51.5322847 51 51.98 51.4477153 51.98 52 52.98 51.4477153 53.4277153 51 53.98 51 54.5322847 51 54.98 51.4477153 54.98 52 55.98 51.4477153 56.4277153 51 56.98 51 57.5322847 51 57.98 51.4477153 57.98 52 58.98 51.4477153 59.4277153 51 59.98 51 60.5322847 51 60.98 51.4477153 60.98 52 61.98 51.4477153 62.4277153 51 62.98 51 63.5322847 51 63.98 51.4477153 63.98 52 64.98 51.4477153 65.4277153 51 65.98 51 66.5322847 51 66.98 51.4477153 66.98 52 67.98 51.4477153 68.4277153 51 68.98 51 69.5322847 51 69.98 51.4477153 69.98 52 70.98 51.4477153 71.4277153 51 71.98 51 72.5322847 51 72.98 51.4477153 72.98 52 73.98 51.4477153 74.4277153 51 74.98 51 75.5322847 51 75.98 51.4477153 75.98 52 76.98 51.4477153 77.4277153 51 77.98 51 78.5322847 51 78.98 51.4477153 78.98 52 79.98 51.4477153 80.4277153 51 80.98 51 81.5322847 51 81.98 51.4477153 81.98 52 82.98 51.4477153 83.4277153 51 83.98 51 84.5322847 51 84.98 51.4477153 84.98 52 85.98 51.4477153 86.4277153 51 86.98 51 87.5322847 51 87.98 51.4477153 87.98 52 88.98 51.4477153 89.4277153 51 89.98 51 90.5322847 51 90.98 51.4477153 90.98 52 91.98 51.4477153 92.4277153 51 92.98 51 93.5322847 51 93.98 51.4477153 93.98 52 94.98 51.4477153 95.4277153 51 95.98 51 96.5322847 51 96.98 51.4477153 96.98 52 97.98 51.4477153 98.4277153 51 98.98 51 99.5322847 51 99.98 51.4477153 99.98 52 100.98 51.4477153 101.427715 51 101.98 51 102.532285 51 102.98 51.4477153 102.98 52 103.98 51.4477153 104.427715 51 104.98 51 105.532285 51 105.98 51.4477153 105.98 52 106.98 51.4477153 107.427715 51 107.98 51 108.532285 51 108.98 51.4477153 108.98 52 109.98 51.4477153 110.427715 51 110.98 51 111.532285 51 111.98 51.4477153 111.98 52 112.98 51.4477153 113.427715 51 113.98 51 114.532285 51 114.98 51.4477153 114.98 52 115.98 51.4477153 116.427715 51 116.98 51 117.532285 51 117.98 51.4477153 117.98 52 118.98 51.4477153 119.427715 51 119.98 51 120.532285 51 120.98 51.4477153 120.98 52 121.98 51.4477153 122.427715 51 122.98 51 123.532285 51 123.98 51.4477153 123.98 52 124.98 51.4477153 125.427715 51 125.98 51 126.532285 51 126.98 51.4477153 126.98 52 127.98 51.4477153 128.427715 51 128.98 51 129.532285 51 129.98 51.4477153 129.98 52 130.98 51.4477153 131.427715 51 131.98 51 132.532285 51 132.98 51.4477153 132.98 52 133.98 51.4477153 134.427715 51 134.98 51 135.532285 51 135.98 51.4477153 135.98 52 136.98 51.4477153 137.427715 51 137.98 51 138.532285 51 138.98 51.4477153 138.98 52 139.98 51.4477153 140.427715 51 140.98 51 141.532285 51 141.98 51.4477153 141.98 52 142.98 51.4477153 143.427715 51 143.98 51 144.532285 51 144.98 51.4477153 144.98 52 145.98 51.4477153 146.427715 51 146.98 51 147.532285 51 147.98 51.4477153 147.98 52 148.98 51.4477153 149.427715 51 149.98 51 150.532285 51 150.98 51.4477153 150.98 52 151.98 51.4477153 152.427715 51 152.98 51 153.532285 51 153.98 51.4477153 153.98 52 154.98 51.4477153 155.427715 51 155.98 51 156.532285 51 156.98 51.4477153 156.98 52 157.98 51.4477153 158.427715 51 158.98 51 159.532285 51 159.98 51.4477153 159.98 52 160.98 51.4477153 161.427715 51 161.98 51 162.532285 51 162.98 51.4477153 162.98 52 163.98 51.4477153 164.427715 51 164.98 51 165.532285 51 165.98 51.4477153 165.98 52 166.98 51.4477153 167.427715 51 167.98 51 168.532285 51 168.98 51.4477153 168.98 52 169.98 51.4477153 170.427715 51 170.98 51 171.532285 51 171.98 51.4477153 171.98 52 172.98 51.4477153 173.427715 51 173.98 51 174.532285 51 174.98 51.4477153 174.98 52 175.98 51.4477153 176.427715 51 176.98 51 177.532285 51 177.98 51.4477153 177.98 52 178.98 51.4477153 179.427715 51 179.98 51 180.532285 51 180.98 51.4477153 180.98 52 181.98 51.4477153 182.427715 51 182.98 51 183.532285 51 183.98 51.4477153 183.98 52 184.98 51.4477153 185.427715 51 185.98 51 186.532285 51 186.98 51.4477153 186.98 52 187.98 51.4477153 188.427715 51 188.98 51 189.532285 51 189.98 51.4477153 189.98 52 190.98 51.4477153 191.427715 51 191.98 51 192.532285 51 192.98 51.4477153 192.98 52 193.98 51.4477153 194.427715 51 194.98 51 195.532285 51 195.98 51.4477153 195.98 52 196.98 51.4477153 197.427715 51 197.98 51 198.532285 51 198.98 51.4477153 198.98 52 199.98 51.4477153 200.427715 51 200.98 51 201.532285 51 201.98 51.4477153 201.98 52 202.98 51.4477153 203.427715 51 203.98 51 204.532285 51 204.98 51.4477153 204.98 52 205.98 51.4477153 206.427715 51 206.98 51 207.532285 51 207.98 51.4477153 207.98 52 208.98 51.4477153 209.427715 51 209.98 51 210.532285 51 210.98 51.4477153 210.98 52 211.98 51.4477153 212.427715 51 212.98 51 213.532285 51 213.98 51.4477153 213.98 52 214.98 51.4477153 215.427715 51 215.98 51 216.532285 51 216.98 51.4477153 216.98 52 217.98 51.4477153 218.427715 51 218.98 51 219.532285 51 219.98 51.4477153 219.98 52 220.98 51.4477153 221.427715 51 221.98 51 222.532285 51 222.98 51.4477153 222.98 52 223.98 51.4477153 224.427715 51 224.98 51 225.532285 51 225.98 51.4477153 225.98 52 226.98 51.4477153 227.427715 51 227.98 51 228.532285 51 228.98 51.4477153 228.98 52 229.98 51.4477153 230.427715 51 230.98 51 231.532285 51 231.98 51.4477153 231.98 52 232.98 51.4477153 233.427715 51 233.98 51 234.532285 51 234.98 51.4477153 234.98 52 235.98 51.4477153 236.427715 51 236.98 51 237.532285 51 237.98 51.4477153 237.98 52 238.98 51.4477153 239.427715 51 239.98 51 240.532285 51 240.98 51.4477153 240.98 52 241.98 51.4477153 242.427715 51 242.98 51 243.532285 51 243.98 51.4477153 243.98 52 244.98 51.4477153 245.427715 51 245.98 51 246.532285 51 246.98 51.4477153 246.98 52 247.98 51.4477153 248.427715 51 248.98 51 249.532285 51 249.98 51.4477153 249.98 52 250.98 51.4477153 251.427715 51 251.98 51 252.532285 51 252.98 51.4477153 252.98 52 253.98 51.4477153 254.427715 51 254.98 51 255.532285 51 255.98 51.4477153 255.98 52 256.98 51.4477153 257.427715 51 257.98 51 258.532285 51 258.98 51.4477153 258.98 52 259.98 51.4477153 260.427715 51 260.98 51 261.532285 51 261.98 51.4477153 261.98 52 262.98 51.4477153 263.427715 51 263.98 51 264.532285 51 264.98 51.4477153 264.98 52 265.98 51.4477153 266.427715 51 266.98 51 267.532285 51 267.98 51.4477153 267.98 52 268.98 51.4477153 269.427715 51 269.98 51 270.532285 51 270.98 51.4477153 270.98 52 271.98 51.4477153 272.427715 51 272.98 51 273.532285 51 273.98 51.4477153 273.98 52 274.98 51.4477153 275.427715 51 275.98 51 276.532285 51 276.98 51.4477153 276.98 52 277.98 51.4477153 278.427715 51 278.98 51 279.532285 51 279.98 51.4477153 279.98 52 280.98 51.4477153 281.427715 51 281.98 51 282.532285 51 282.98 51.4477153 282.98 52 283.98 51.4477153 284.427715 51 284.98 51 285.532285 51 285.98 51.4477153 285.98 52 286.98 51.4477153 287.427715 51 287.98 51 288.532285 51 288.98 51.4477153 288.98 52 289.98 51.4477153 290.427715 51 290.98 51 291.532285 51 291.98 51.4477153 291.98 52 292.98 51.4477153 293.427715 51 293.98 51 294.532285 51 294.98 51.4477153 294.98 52 295.98 51.4477153 296.427715 51 296.98 51 297.532285 51 297.98 51.4477153 297.98 52 298.98 51.4477153 299.427715 51 299.98 51 300.532285 51 300.98 51.4477153 300.98 52 301.98 51.4477153 302.427715 51 302.98 51 303.532285 51 303.98 51.4477153 303.98 52 304.98 51.4477153 305.427715 51 305.98 51 306.532285 51 306.98 51.4477153 306.98 52 307.98 51.4477153 308.427715 51 308.98 51 309.532285 51 309.98 51.4477153 309.98 52 310.98 51.4477153 311.427715 51 311.98 51 312.532285 51 312.98 51.4477153 312.98 52 313.98 51.4477153 314.427715 51 314.98 51 315.532285 51 315.98 51.4477153 315.98 52 316.98 51.4477153 317.427715 51 317.98 51 318.532285 51 318.98 51.4477153 318.98 52 319.98 51.4477153 320.427715 51 320.98 51 321.532285 51 321.98 51.4477153 321.98 52 322.98 51.4477153 323.427715 51 323.98 51 324.532285 51 324.98 51.4477153 324.98 52 325.98 51.4477153 326.427715 51 326.98 51 327.532285 51 327.98 51.4477153 327.98 52 328.98 51.4477153 329.427715 51 329.98 51 330.532285 51 330.98 51.4477153 330.98 52 331.98 51.4477153 332.427715 51 332.98 51 333.532285 51 333.98 51.4477153 333.98 52 334.98 51.4477153 335.427715 51 335.98 51 336.532285 51 336.98 51.4477153 336.98 52 337.98 51.4477153 338.427715 51 338.98 51 339.532285 51 339.98 51.4477153 339.98 52 340.98 51.4477153 341.427715 51 341.98 51 342.532285 51 342.98 51.4477153 342.98 52 343.98 51.4477153 344.427715 51 344.98 51 345.532285 51 345.98 51.4477153 345.98 52 346.98 51.4477153 347.427715 51 347.98 51 348.532285 51 348.98 51.4477153 348.98 52 349.98 51.4477153 350.427715 51 350.98 51 351.532285 51 351.98 51.4477153 351.98 52 352.98 51.4477153 353.427715 51 353.98 51 354.532285 51 354.98 51.4477153 354.98 52 355.98 51.4477153 356.427715 51 356.98 51 357.532285 51 357.98 51.4477153 357.98 52 358.98 51.4477153 359.427715 51 359.98 51 360.532285 51 360.98 51.4477153 360.98 52 361.98 51.4477153 362.427715 51 362.98 51 363.532285 51 363.98 51.4477153 363.98 52 364.98 51.4477153 365.427715 51 365.98 51 366.532285 51 366.98 51.4477153 366.98 52 367.98 51.4477153 368.427715 51 368.98 51 369.532285 51 369.98 51.4477153 369.98 52 370.98 51.4477153 371.427715 51 371.98 51 372.532285 51 372.98 51.4477153 372.98 52 373.98 51.4477153 374.427715 51 374.98 51 375.532285 51 375.98 51.4477153 375.98 52 376.98 51.4477153 377.427715 51 377.98 51 378.532285 51 378.98 51.4477153 378.98 52 379.98 51.4477153 380.427715 51 380.98 51 381.532285 51 381.98 51.4477153 381.98 52 382.98 51.4477153 383.427715 51 383.98 51 384.532285 51 384.98 51.4477153 384.98 52 385.98 51.4477153 386.427715 51 386.98 51 387.532285 51 387.98 51.4477153 387.98 52 388.98 51.4477153 389.427715 51 389.98 51 390.532285 51 390.98 51.4477153 390.98 52 391.98 51.4477153 392.427715 51 392.98 51 393.532285 51 393.98 51.4477153 393.98 52 394.98 51.4477153 395.427715 51 395.98 51 396.532285 51 396.98 51.4477153 396.98 52 397.98 51.4477153 398.427715 51 398.98 51 399.532285 51 399.98 51.4477153 399.98 52 400.98 51.4477153 401.427715 51 401.98 51 402.532285 51 402.98 51.4477153 402.98 52 403.98 51.4477153 404.427715 51 404.98 51 405.532285 51 405.98 51.4477153 405.98 52 406.98 51.4477153 407.427715 51 407.98 51 408.532285 51 408.98 51.4477153 408.98 52 409.98 51.4477153 410.427715 51 410.98 51 411.532285 51 411.98 51.4477153 411.98 52 412.98 51.4477153 413.427715 51 413.98 51 414.532285 51 414.98 51.4477153 414.98 52 415.98 51.4477153 416.427715 51 416.98 51 417.532285 51 417.98 51.4477153 417.98 52 418.98 51.4477153 419.427715 51 419.98 51 420.532285 51 420.98 51.4477153 420.98 52 421.98 51.4477153 422.427715 51 422.98 51 423.532285 51 423.98 51.4477153 423.98 52 424.98 51.4477153 425.427715 51 425.98 51 426.532285 51 426.98 51.4477153 426.98 52 427.98 51.4477153 428.427715 51 428.98 51 429.532285 51 429.98 51.4477153 429.98 52 430.98 51.4477153 431.427715 51 431.98 51 432.532285 51 432.98 51.4477153 432.98 52 433.98 51.4477153 434.427715 51 434.98 51 435.532285 51 435.98 51.4477153 435.98 52 436.98 51.4477153 437.427715 51 437.98 51 438.532285 51 438.98 51.4477153 438.98 52 439.98 51.4477153 440.427715 51 440.98 51 441.532285 51 441.98 51.4477153 441.98 52 442.98 51.4477153 443.427715 51 443.98 51 444.532285 51 444.98 51.4477153 444.98 52 445.98 51.4477153 446.427715 51 446.98 51 447.532285 51 447.98 51.4477153 447.98 52 448.98 51.4477153 449.427715 51 449.98 51 450.532285 51 450.98 51.4477153 450.98 52 451.98 51.4477153 452.427715 51 452.98 51 453.532285 51 453.98 51.4477153 453.98 52 454.98 51.4477153 455.427715 51 455.98 51 456.532285 51 456.98 51.4477153 456.98 52 457.98 51.4477153 458.427715 51 458.98 51 459.532285 51 459.98 51.4477153 459.98 52 460.98 51.4477153 461.427715 51 461.98 51 462.532285 51 462.98 51.4477153 462.98 52 463.98 51.4477153 464.427715 51 464.98 51 465.532285 51 465.98 51.4477153 465.98 52 466.98 51.4477153 467.427715 51 467.98 51 468.532285 51 468.98 51.4477153 468.98 52 469.98 51.4477153 470.427715 51 470.98 51 471.532285 51 471.98 51.4477153 471.98 52 472.98 51.4477153 473.427715 51 473.98 51 474.532285 51 474.98 51.4477153 474.98 52 475.98 51.4477153 476.427715 51 476.98 51 477.532285 51 477.98 51.4477153 477.98 52 478.98 51.4477153 479.427715 51 479.98 51 480.532285 51 480.98 51.4477153 480.98 52 481.98 51.4477153 482.427715 51 482.98 51 483.532285 51 483.98 51.4477153 483.98 52 484.98 51.4477153 485.427715 51 485.98 51 486.532285 51 486.98 51.4477153 486.98 52 487.98 51.4477153 488.427715 51 488.98 51 489.532285 51 489.98 51.4477153 489.98 52 490.98 51.4477153 491.427715 51 491.98 51 492.532285 51 492.98 51.4477153 492.98 52 493.98 51.4477153 494.427715 51 494.98 51 495.532285 51 495.98 51.4477153 495.98 52 496.98 51.4477153 497.427715 51 497.98 51 498.532285 51 498.98 51.4477153 498.98 52 499.98 51.4477153 500.427715 51 500.98 51 501.532285 51 501.98 51.4477153 501.98 52 502.98 51.4477153 503.427715 51 503.98 51 504.532285 51 504.98 51.4477153 504.98 52 505.98 51.4477153 506.427715 51 506.98 51 507.532285 51 507.98 51.4477153 507.98 52 508.98 51.4477153 509.427715 51 509.98 51 510.532285 51 510.98 51.4477153 510.98 52 511.98 51.4477153 512.427715 51 512.98 51 513.532285 51 513.98 51.4477153 513.98 52 514.98 51.4477153 515.427715 51 515.98 51 516.532285 51 516.98 51.4477153 516.98 52 517.98 51.4477153 518.427715 51 518.98 51 519.532285 51 519.98 51.4477153 519.98 52 520.98 51.4477153 521.427715 51 521.98 51 522.532285 51 522.98 51.4477153 522.98 52 523.98 51.4477153 524.427715 51 524.98 51 525.532285 51 525.98 51.4477153 525.98 52 526.98 51.4477153 527.427715 51 527.98 51 528.532285 51 528.98 51.4477153 528.98 52 529.98 51.4477153 530.427715 51 530.98 51 531.532285 51 531.98 51.4477153 531.98 52 532.98 51.4477153 533.427715 51 533.98 51 534.532285 51 534.98 51.4477153 534.98 52 535.98 51.4477153 536.427715 51 536.98 51 537.532285 51 537.98 51.4477153 537.98 52 538.98 51.4477153 539.427715 51 539.98 51 540.532285 51 540.98 51.4477153 540.98 52 541.98 51.4477153 542.427715 51 542.98 51 543.532285 51 543.98 51.4477153 543.98 52 544.98 51.4477153 545.427715 51 545.98 51 546.532285 51 546.98 51.4477153 546.98 52 547.98 51.4477153 548.427715 51 548.98 51 549.532285 51 549.98 51.4477153 549.98 52 550.98 51.4477153 551.427715 51 551.98 51 552.532285 51 552.98 51.4477153 552.98 52 553.98 51.4477153 554.427715 51 554.98 51 555.532285 51 555.98 51.4477153 555.98 52 556.98 51.4477153 557.427715 51 557.98 51 558.532285 51 558.98 51.4477153 558.98 52 559.98 51.4477153 560.427715 51 560.98 51 561.532285 51 561.98 51.4477153 561.98 52 562.98 51.4477153 563.427715 51 563.98 51 564.532285 51 564.98 51.4477153 564.98 52 565.98 51.4477153 566.427715 51 566.98 51 567.532285 51 567.98 51.4477153 567.98 52 568.98 51.4477153 569.427715 51 569.98 51 570.532285 51 570.98 51.4477153 570.98 52 571.98 51.4477153 572.427715 51 572.98 51 573.532285 51 573.98 51.4477153 573.98 52 574.646667 51.6318102 574.986667 50.9651435 575 50L9.98 50.12z"/>
  </g>
</svg>
