<svg width="78" height="32" viewBox="0 0 78 32" fill="none" xmlns="http://www.w3.org/2000/svg">
<g clip-path="url(#clip0_2259_3012)">
<path d="M52.7777 11.3928C50.9368 15.4489 48.8338 22.1004 47.8762 26.4539C47.7953 26.8256 47.9085 27.2069 47.8244 27.5528C47.3456 29.534 45.1521 30.607 43.2335 30.1093C38.2026 28.8036 38.0797 22.1198 37.355 17.9764C37.3162 17.7469 37.5653 17.6629 37.0509 17.6305C35.8861 21.2019 34.3623 24.8282 34.2006 28.629C34.1682 29.4241 34.66 30.1093 34.1326 31.0369C32.8676 33.254 28.2767 31.2211 27.5488 29.2043C25.957 24.7829 29.7391 15.84 31.9326 11.8259C32.8158 10.2099 35.0806 6.36057 36.4361 5.29401C37.9664 4.08847 41.1565 5.76911 42.2047 7.16856C43.6024 9.03019 43.1268 13.1704 43.35 15.4877C43.3759 15.7463 43.2982 16.0533 43.6088 16.1761C44.7606 12.4949 45.9965 8.7781 47.5041 5.22613C47.9538 4.16604 49.3644 0.740124 50.2024 0.242396C52.1015 -0.888803 55.5859 2.18806 55.4468 4.1822C55.3368 5.77557 54.9033 6.94556 53.9553 8.51308" fill="white"/>
<path d="M77.4404 7.7374C74.3992 1.38652 66.1459 2.54681 60.3935 3.47763C58.3682 3.80406 56.6018 4.25654 54.7512 5.1421L53.7547 8.09615C53.7547 8.09615 53.7579 8.09615 53.7612 8.09292L54.9938 10.9145C53.1335 15.2421 50.8817 20.2775 50.2994 24.9833C49.9758 27.6109 50.9691 29.2463 53.8194 29.1268C57.1065 28.9878 67.9124 22.1069 70.8565 19.8315C74.3151 17.1587 79.773 12.6016 77.4404 7.7374ZM70.9665 10.1194C70.2709 12.2428 65.4988 15.8271 63.5674 17.1199C62.5321 17.8115 60.9953 18.7197 59.8921 19.337C59.2676 19.6861 58.3262 20.2355 57.6241 20.3228C57.4073 19.9188 59.8888 14.3921 60.3385 13.555C60.7494 12.7922 62.1794 10.3909 62.7359 9.919C63.5318 9.24674 70.3939 8.54863 70.9406 9.14332C71.1768 9.45682 71.0765 9.78325 70.9665 10.1161V10.1194Z" fill="white"/>
<path d="M18.5256 4.32764C21.1106 2.52742 23.2006 1.46409 26.245 3.4744C30.7098 6.42198 27.2577 11.6158 27.2286 15.8077C27.2706 16.2182 28.6715 16.7967 28.6133 18.0313C28.5227 19.9479 27.1218 20.0545 26.9212 20.6945C26.6786 21.4702 26.7756 24.3014 26.7497 25.3389C26.7109 26.8223 27.3968 29.6406 25.6433 30.2515C23.2944 31.0724 19.8262 28.1636 19.5447 25.8043C19.425 24.8056 19.7194 23.5289 19.6515 22.6078C19.6353 22.4042 19.4865 22.0648 19.2277 22.081C17.335 22.624 15.4068 23.0829 13.5303 23.6744C12.3688 24.0396 9.0235 25.0124 8.16938 25.5328C7.42203 25.9885 6.27673 28.4448 5.80114 29.3433C5.64584 29.6406 5.65879 30.0349 5.50349 30.3258C3.21613 34.5145 -1.06418 29.9315 0.239648 26.0919C2.83113 18.4482 11.9579 8.90738 18.5256 4.32764ZM15.2385 16.8096L19.4574 16.1988C19.5803 15.6138 20.0138 12.482 19.7033 12.2654C19.1533 12.7922 14.9765 16.3539 15.2385 16.8128V16.8096Z" fill="white"/>
</g>
<defs>
<clipPath id="clip0_2259_3012">
<rect width="78" height="32" fill="white"/>
</clipPath>
</defs>
</svg>
