<?xml version="1.0" encoding="UTF-8"?>
<svg width="110px" height="24px" viewBox="0 0 110 24" version="1.1" xmlns="http://www.w3.org/2000/svg" xmlns:xlink="http://www.w3.org/1999/xlink">
    <!-- Generator: Sketch 62 (91390) - https://sketch.com -->
    <title>Logo</title>
    <desc>Created with Sketch.</desc>
    <defs>
        <polygon id="path-1" points="0 0.333199786 30.181878 0.333199786 30.181878 23.7012553 0 23.7012553"></polygon>
    </defs>
    <g id="Symbols" stroke="none" stroke-width="1" fill="none" fill-rule="evenodd">
        <g id="Components/main-navigation/5-steps/services" transform="translate(-23.000000, -25.000000)">
            <g id="Components/main-navigation/service-flow">
                <g>
                    <g id="Logo">
                        <g transform="translate(23.000000, 25.000000)">
                            <g id="Group-18">
                                <path d="M38.4863973,14.0641693 C38.4863973,18.3106303 38.8011644,18.4672142 41.3689132,18.4672142 C44.0576747,18.4672142 44.3241708,18.3587073 44.3241708,13.6782185 C44.3241708,9.38334669 44.1304164,9.37199519 41.2961715,9.37199519 C38.8011644,9.37199519 38.4863973,9.6484375 38.4863973,14.0641693 M45.0753881,8.98604434 C45.7049224,9.78165064 45.9717537,10.9999332 45.9717537,13.6054354 C45.9717537,16.5738515 45.6566514,17.8876202 44.9057692,18.8528312 C44.3241708,19.6247329 43.3071277,19.9385684 41.4899259,19.9385684 C39.3100212,19.9385684 38.3405787,19.6247329 37.6383028,18.6601896 C37.0567043,17.8642495 36.8388144,16.7661592 36.8388144,13.8227831 C36.8388144,10.6380208 37.2018525,9.39603365 38.1709598,8.64783654 C38.8494354,8.09294872 39.6485886,7.92401175 41.5385321,7.92401175 C43.4278052,7.92401175 44.5182604,8.23784722 45.0753881,8.98604434" id="Fill-1" fill="#203757"></path>
                                <path d="M49.4126376,14.4016092 C49.4126376,16.3560697 49.606392,16.9229768 50.139049,17.5980569 C50.6479058,18.2020232 51.3987879,18.467114 52.5861203,18.467114 C53.7003758,18.467114 54.4757287,18.177317 54.8146313,17.6711739 C55.2266108,17.0431691 55.371759,16.3560697 55.371759,13.9195045 C55.371759,9.91409589 54.935644,9.37189503 52.4647724,9.37189503 C49.9456299,9.37189503 49.4126376,10.0830329 49.4126376,14.4016092 L49.4126376,14.4016092 Z M49.3640314,8.11722089 L49.3640314,9.23734642 C49.9821683,8.1632946 51.0112791,7.92391159 52.755404,7.92391159 C54.3302452,7.92391159 55.4196948,8.31019631 56.0505699,9.13050881 C56.8011168,10.095386 57.0434774,11.9423411 57.0434774,13.8951322 C57.0434774,16.501636 56.9224647,17.0672075 56.5104852,18.0083801 C55.9771577,19.311465 54.8146313,19.9384682 52.8040102,19.9384682 C51.1322918,19.9384682 50.2560392,19.8777043 49.4612438,18.8694244 L49.4612438,22.45416 L47.8860674,22.45416 L47.8860674,8.11722089 L49.3640314,8.11722089 Z" id="Fill-3" fill="#203757"></path>
                                <path d="M65.9161221,12.7854233 L65.9161221,12.2305355 C65.9161221,9.5766226 65.5041426,9.34758948 63.2028899,9.34758948 C60.8285603,9.34758948 60.2717678,9.62469952 60.2717678,12.1824586 L60.2717678,12.7854233 L65.9161221,12.7854233 Z M67.2408927,19.9418737 C67.2408927,19.9418737 64.8752788,19.938535 63.1063479,19.938535 C61.070921,19.938535 60.0780134,19.552918 59.3760727,18.5152577 C58.794139,17.6468683 58.6486556,16.9350628 58.6486556,13.9673144 C58.6486556,11.2649907 58.7455328,10.626636 59.1089061,9.75757879 C59.6908398,8.45482772 60.9264432,7.92397837 63.3966443,7.92397837 C64.9228793,7.92397837 65.8433804,8.18973691 66.473585,8.81674012 C67.2730734,9.61301416 67.5150988,10.1795873 67.5150988,12.4475494 C67.5150988,12.8338341 67.5150988,13.3159388 67.4909633,14.232739 L60.2959033,14.232739 L60.2959033,15.1255008 C60.2959033,16.790832 60.416916,17.2605836 60.7558186,17.7436899 C61.1439979,18.2498331 61.9434862,18.5152577 63.1787544,18.5152577 C64.6325829,18.5152577 67.2378758,18.5092481 67.2378758,18.5092481 L67.2408927,19.9418737 Z" id="Fill-5" fill="#203757"></path>
                                <path d="M69.5889079,8.11715411 L71.0665367,8.11715411 L71.0665367,9.83022837 C72.1083857,8.31012954 72.7382551,7.92384482 74.5527752,7.92384482 C76.1520872,7.92384482 77.1694654,8.31012954 77.7507287,9.17885283 C78.1385727,9.75777911 78.3078564,10.5540532 78.3078564,12.0017027 L78.3078564,19.7450921 L76.7333504,19.7450921 L76.7333504,11.8568042 C76.7333504,10.0232038 76.0548747,9.37182826 74.2383433,9.37182826 C72.2052629,9.37182826 71.1630787,10.4575654 71.1630787,12.5322182 L71.1630787,19.7450921 L69.5889079,19.7450921 L69.5889079,8.11715411 Z" id="Fill-7" fill="#203757"></path>
                                <path d="M82.3834033,10.3608106 C81.8986821,11.0365585 81.7287279,11.6271701 81.7287279,13.5812967 C81.7287279,16.0425681 81.8986821,16.874566 82.4075388,17.5740184 C82.8433186,18.1536124 83.594536,18.467114 84.8056687,18.467114 C87.2517343,18.467114 87.6881845,17.9729901 87.6881845,13.9432091 C87.6881845,11.4822716 87.5430363,10.7470954 87.1072565,10.1437967 C86.7676835,9.63731971 85.9923306,9.37189503 84.8536044,9.37189503 C83.6424718,9.37189503 82.8681246,9.7094351 82.3834033,10.3608106 L82.3834033,10.3608106 Z M81.7780046,9.66102431 C82.600958,8.35827324 83.4731881,7.92391159 85.1439008,7.92391159 C86.791819,7.92391159 87.8581387,8.31019631 88.4635374,9.15454728 C89.1420131,10.0713475 89.3354323,10.878973 89.3354323,13.5812967 C89.3354323,16.2358774 89.2144195,17.1152845 88.8021048,18.056457 C88.2205064,19.311465 87.0093737,19.9384682 85.0966355,19.9384682 C83.3283751,19.9384682 82.3582622,19.4316573 81.7287279,18.1536124 L81.7287279,19.7451589 L80.2031634,19.7451589 L80.2031634,4.7515024 L81.7780046,4.7515024 L81.7780046,9.66102431 Z" id="Fill-9" fill="#203757"></path>
                                <path d="M92.8778529,14.3776709 C92.4906793,14.7395833 92.3689961,15.0594284 92.3689961,16.1204594 C92.3689961,18.0505475 92.9505946,18.5152911 95.15497,18.5152911 C97.4562227,18.5152911 98.1350335,17.9540598 98.1350335,15.9515224 C98.1350335,14.2147436 97.3838162,13.8471554 94.8884739,13.8471554 C93.8952311,13.8471554 93.2898324,14.0160924 92.8778529,14.3776709 L92.8778529,14.3776709 Z M98.1105628,11.8088942 C98.1105628,9.637086 97.7465191,9.32325053 95.2029058,9.32325053 C93.3139679,9.32325053 92.7323694,9.70953526 92.7323694,10.9882479 C92.7323694,11.061031 92.7323694,11.2052618 92.7568402,11.446648 L91.1819989,11.446648 C91.1578634,11.1331464 91.1578634,11.061031 91.1578634,10.8917601 C91.1578634,8.72061966 92.2714485,7.92401175 95.2753123,7.92401175 C98.4977364,7.92401175 99.6129975,8.74432425 99.6129975,11.2536725 L99.6129975,19.7452591 L98.2071048,19.7452591 L98.2071048,18.9102564 C98.2071048,18.9102564 96.5109157,19.9385684 94.863668,19.9385684 C91.8118684,19.9385684 90.7696842,19.112914 90.7696842,16.1448317 C90.7696842,14.7212206 91.0127152,13.9433093 91.569843,13.3403446 C92.1273059,12.7130075 92.9747301,12.4719551 94.6699135,12.4719551 C96.7532763,12.4719551 98.1105628,12.8869525 98.1105628,12.8869525 L98.1105628,11.8088942 Z" id="Fill-11" fill="#203757"></path>
                                <path d="M104.240812,19.1448985 L100.655349,8.11725427 L102.253656,8.11725427 L105.379203,18.0768563 L108.019358,8.11725427 L109.569728,8.11725427 L106.469323,19.5552217 C105.91186,21.7984776 105.692964,22.3780716 105.112371,22.9332933 C104.579379,23.4397703 103.852297,23.705195 102.85939,23.705195 C102.569093,23.705195 102.278462,23.6811565 102.059901,23.6324119 L102.059901,22.2328392 L102.253656,22.2328392 C103.536189,22.2328392 104.232766,21.7483974 104.654467,20.5564904" id="Fill-13" fill="#203757"></path>
                                <g id="Group-17" transform="translate(0.000000, 0.000668)">
                                    <mask id="mask-2" fill="white">
                                        <use xlink:href="#path-1"></use>
                                    </mask>
                                    <g id="Clip-16"></g>
                                    <path d="M15.0845183,18.4588675 C18.4745501,18.4588675 22.2235974,17.6418937 22.2235974,17.6418937 L21.8082657,16.144164 C21.8082657,16.144164 18.4091831,16.8736645 15.0845183,16.8736645 C11.7598536,16.8736645 8.37350917,16.144164 8.37350917,16.144164 L7.95817749,17.6418937 C7.95817749,17.6418937 11.6944866,18.4588675 15.0845183,18.4588675 M24.0159933,12.2028579 C24.0159933,13.2902644 24.9009615,14.105235 25.9930928,14.105235 C27.0845536,14.105235 27.9695219,13.2902644 27.9695219,12.2028579 C27.9695219,11.1154514 27.0845536,10.2340411 25.9930928,10.2340411 C24.9009615,10.2340411 24.0159933,11.1154514 24.0159933,12.2028579 M4.18901729,10.2340411 C3.09722124,10.2340411 2.21258821,11.1154514 2.21258821,12.2028579 C2.21258821,13.2902644 3.09722124,14.105235 4.18901729,14.105235 C5.28081334,14.105235 6.16578158,13.2902644 6.16578158,12.2028579 C6.16578158,11.1154514 5.28081334,10.2340411 4.18901729,10.2340411 M15.0489855,7.01055021 C18.9458627,7.01055021 25.5972036,7.8639156 25.5972036,7.8639156 C25.5972036,7.8639156 24.7387174,4.17835203 24.079349,3.52230235 C23.4209862,2.8659188 18.6317661,2.00253739 15.0489855,2.00253739 C11.4665402,2.00253739 6.76145907,2.86625267 6.1024259,3.52230235 C5.44305752,4.17835203 4.58457128,7.8639156 4.58457128,7.8639156 C4.58457128,7.8639156 11.1521083,7.01055021 15.0489855,7.01055021 M14.6718684,0.333199786 C19.5324894,0.333199786 26.2562368,1.71674679 26.2562368,3.6852297 C26.2562368,5.65404647 27.5739679,6.63862179 29.5507322,8.60743857 C31.5274965,10.5762553 28.2293137,23.7012553 28.2293137,23.7012553 L25.5442396,23.7012553 C23.8973271,23.7012553 24.3237209,20.7842548 24.3237209,20.7842548 C24.3237209,20.7842548 22.2705275,21.756477 14.8729975,21.756477 C7.47513232,21.756477 5.85805399,20.7842548 5.85805399,20.7842548 C5.85805399,20.7842548 6.28478299,23.7012553 4.63753529,23.7012553 L1.95246119,23.7012553 C1.95246119,23.7012553 -1.34572159,10.5762553 0.631042696,8.60743857 C2.60780699,6.63862179 3.92553811,5.65872062 3.92553811,3.6852297 C3.92553811,1.71207265 9.81124735,0.333199786 14.6718684,0.333199786" id="Fill-15" fill="#203757" mask="url(#mask-2)"></path>
                                </g>
                            </g>
                        </g>
                    </g>
                </g>
            </g>
        </g>
    </g>
</svg>