<svg id="logo" width="143" height="41" viewBox="0 0 143 41" fill="none" xmlns="http://www.w3.org/2000/svg">
<path d="M35.416 0H5C2.23858 0 0 2.23857 0 5V35.0158C0 37.7773 2.23857 40.0158 5 40.0158H35.416C38.1774 40.0158 40.416 37.7773 40.416 35.0158V5C40.416 2.23858 38.1774 0 35.416 0Z" fill="#DD390C"/>
<path d="M35.938 15.5148L35.348 15.4297C35.202 15.4079 35.07 15.5208 35.07 15.6673V15.9307H34.978L34.326 14.9564C33.954 14.398 33.34 14.0436 32.666 13.996L31.732 13.9287C30.99 13.8752 30.246 13.8752 29.506 13.9287L28.572 13.996C27.898 14.0436 27.286 14.398 26.912 14.9564L26.262 15.9307H26.17V15.6673C26.17 15.5208 26.038 15.4099 25.892 15.4297L25.302 15.5148C25.172 15.5346 25.076 15.6436 25.076 15.7743V15.8851C25.076 16.0257 25.178 16.1465 25.316 16.1723L26.014 16.299L25.572 16.9604C25.386 17.2376 25.288 17.5644 25.288 17.897V19.8713C25.288 20.0713 25.388 20.2455 25.54 20.3544V21.0178C25.54 21.2178 25.704 21.3782 25.904 21.3782H26.598C26.8 21.3782 26.962 21.2158 26.962 21.0178V20.4693H30.618H34.274V21.0178C34.274 21.2178 34.438 21.3782 34.638 21.3782H35.332C35.534 21.3782 35.696 21.2158 35.696 21.0178V20.3544C35.848 20.2455 35.948 20.0693 35.948 19.8713V17.897C35.948 17.5644 35.85 17.2376 35.664 16.9604L35.222 16.299L35.92 16.1723C36.06 16.1465 36.16 16.0257 36.16 15.8851V15.7743C36.164 15.6436 36.066 15.5346 35.938 15.5148ZM28.094 18.3228H26.146C25.858 18.3228 25.654 18.0436 25.744 17.7723L25.816 17.5564C25.872 17.3881 26.036 17.2812 26.214 17.295L26.798 17.3426C27.254 17.3782 27.682 17.5782 28.002 17.903L28.192 18.097C28.274 18.1802 28.214 18.3228 28.094 18.3228ZM27.044 16.1168C26.874 16.1168 26.778 16.0475 26.718 15.9683L27.248 15.1743C27.552 14.7188 28.052 14.4297 28.602 14.3901L29.508 14.3247C30.25 14.2713 30.994 14.2713 31.734 14.3247L32.64 14.3901C33.19 14.4297 33.69 14.7188 33.994 15.1743L34.524 15.9683C34.466 16.0475 34.368 16.1168 34.198 16.1168C33.806 16.1168 27.438 16.1168 27.044 16.1168ZM35.428 17.5564L35.5 17.7723C35.59 18.0436 35.386 18.3228 35.098 18.3228H33.15C33.03 18.3228 32.97 18.1802 33.052 18.095L33.242 17.901C33.562 17.5762 33.99 17.3762 34.446 17.3406L35.03 17.2931C35.206 17.2812 35.372 17.3881 35.428 17.5564Z" fill="white"/>
<path d="M15.236 20.1327L14.42 20.0871C14.246 20.0772 14.1 20.2139 14.1 20.3861V20.6257H13.994C13.788 20.4772 13.402 20.1663 13.084 19.7208C12.804 19.3287 12.6 19.0634 12.476 18.9109C12.348 18.7525 12.158 18.6614 11.954 18.6614H7.312C7.108 18.6614 6.916 18.7525 6.79 18.9109C6.668 19.0634 6.462 19.3287 6.182 19.7208C5.864 20.1663 5.478 20.4772 5.272 20.6257H5.166V20.3861C5.166 20.2139 5.02 20.0772 4.846 20.0871L4.03 20.1327C3.886 20.1406 3.772 20.2594 3.772 20.402V20.5861C3.772 20.699 3.85 20.796 3.96 20.8218L4.808 21.0158C4.61 21.2297 4.368 21.5485 4.28 21.9109C4.19 22.2812 4.242 22.6079 4.3 22.9901C4.342 23.2594 4.39 23.5644 4.39 23.9307V25.0634V25.1386C4.39 25.3208 4.54 25.4693 4.724 25.4693H5.868C6.052 25.4693 6.202 25.3208 6.202 25.1386V25.1089C7.122 25.1267 12.14 25.1267 13.06 25.1089V25.1386C13.06 25.3208 13.21 25.4693 13.394 25.4693H14.538C14.722 25.4693 14.872 25.3208 14.872 25.1386V25.0634V23.9307C14.872 23.5644 14.92 23.2594 14.962 22.9901C15.022 22.6099 15.072 22.2812 14.982 21.9109C14.894 21.5485 14.654 21.2277 14.454 21.0158L15.302 20.8218C15.412 20.796 15.49 20.699 15.49 20.5861V20.402C15.494 20.2594 15.38 20.1406 15.236 20.1327ZM7.31 22.6851C7.158 22.7743 6.788 22.897 5.986 22.7426C5.126 22.5743 4.94 22.2594 5.048 21.996C5.114 21.8356 5.3 21.7465 5.48 21.7822C5.896 21.8634 6.794 22.0851 7.322 22.5446C7.37 22.5842 7.362 22.6554 7.31 22.6851ZM5.534 20.9287C5.77 20.7564 6.17 20.4257 6.51 19.9505C6.784 19.5663 6.984 19.3069 7.104 19.1584C7.156 19.0951 7.232 19.0574 7.312 19.0574H11.954C12.036 19.0574 12.112 19.0931 12.162 19.1584C12.282 19.3069 12.482 19.5663 12.756 19.9505C13.096 20.4257 13.494 20.7564 13.732 20.9287H5.534ZM13.278 22.7426C12.476 22.899 12.106 22.7743 11.954 22.6851C11.902 22.6535 11.896 22.5842 11.94 22.5446C12.47 22.0851 13.368 21.8634 13.782 21.7822C13.962 21.7465 14.148 21.8356 14.214 21.996C14.326 22.2594 14.14 22.5743 13.278 22.7426Z" fill="white"/>
<path d="M24.166 14.8693H16.25V35.2376H24.166V14.8693Z" fill="white"/>
<path d="M34.542 22.8931H26.626V35.2356H34.542V22.8931Z" fill="white"/>
<path d="M13.792 26.9881H5.87601V35.2376H13.792V26.9881Z" fill="white"/>
<path d="M51.4253 14.0569C50.5932 14.0569 50 13.4179 50 12.6199C50 11.7961 50.6194 11.1571 51.4775 11.1571C52.3655 11.1571 52.9289 11.7961 52.9289 12.6199C52.955 13.4215 52.3655 14.0569 51.4253 14.0569ZM52.6602 29.1141H50.2948V16.2401H52.6602V29.1141ZM109.637 13.5804C108.749 13.1556 107.488 12.8342 105.984 12.8342C101.738 12.8342 98.9177 15.5198 98.9177 20.2298C98.9177 24.6184 101.47 27.437 105.876 27.437C107.301 27.437 108.749 27.1451 109.689 26.6908L110.174 28.5267C109.316 28.9516 107.596 29.3764 105.391 29.3764C100.287 29.3764 96.444 26.1847 96.444 20.3074C96.444 14.696 100.287 10.8911 105.899 10.8911C108.156 10.8911 109.577 11.3713 110.197 11.689L109.637 13.5804ZM120.166 29.1141L119.979 27.4924H119.897C119.174 28.5046 117.774 29.4059 115.92 29.4059C113.286 29.4059 111.943 27.57 111.943 25.7081C111.943 22.5977 114.737 20.8947 119.759 20.9206V20.6546C119.759 19.5907 119.465 17.6772 116.804 17.6772C115.595 17.6772 114.334 18.0503 113.42 18.6339L112.883 17.0898C113.958 16.399 115.517 15.9446 117.155 15.9446C121.132 15.9446 122.099 18.6302 122.099 21.2124V26.0258C122.099 27.1415 122.151 28.2349 122.315 29.1104H120.166V29.1141ZM119.819 22.5423C117.241 22.4906 114.312 22.9413 114.312 25.4422C114.312 26.9567 115.334 27.6771 116.543 27.6771C118.237 27.6771 119.312 26.6132 119.685 25.5234C119.767 25.2833 119.819 25.0173 119.819 24.7772V22.5423ZM131.665 18.1537C130.001 18.1537 128.818 19.4023 128.494 21.1607C128.441 21.4784 128.386 21.8515 128.386 22.2505V29.1141H126.05V20.2556C126.05 18.7411 126.024 17.437 125.942 16.2401H128.009L128.091 18.7669H128.199C128.788 17.0381 130.214 15.9483 131.799 15.9483C132.068 15.9483 132.255 15.9742 132.471 16.0296V18.2387C132.228 18.1796 131.986 18.1537 131.665 18.1537ZM138.866 17.703C137.471 17.703 136.691 18.5009 136.691 19.4577C136.691 20.5216 137.471 21.0018 139.161 21.6372C141.418 22.4869 142.571 23.6062 142.571 25.5197C142.571 27.7805 140.799 29.3764 137.709 29.3764C136.284 29.3764 134.971 29.0291 134.057 28.4972L134.646 26.7166C135.344 27.1673 136.579 27.6475 137.762 27.6475C139.482 27.6475 140.288 26.7979 140.288 25.734C140.288 24.6184 139.616 24.0052 137.87 23.3661C135.534 22.5423 134.43 21.2641 134.43 19.7237C134.43 17.6476 136.124 15.9483 138.915 15.9483C140.232 15.9483 141.384 16.3214 142.112 16.7462L141.523 18.4492C141.015 18.1278 140.075 17.703 138.866 17.703Z" fill="#DD390C"/>
<path d="M62.0363 12.8083C59.5664 12.8083 58.6262 14.2712 58.6262 15.4939C58.6262 17.1711 59.7268 17.9948 62.2266 18.9516C65.2898 20.1226 66.8457 21.5855 66.8457 24.2194C66.8457 26.9863 64.7787 29.3801 60.5066 29.3801C58.7605 29.3801 56.8539 28.874 55.8876 28.2349L56.4771 26.2918C57.5255 26.9309 59.0552 27.4628 60.6671 27.4628C63.0587 27.4628 64.4541 26.2142 64.4541 24.4041C64.4541 22.727 63.4877 21.7702 61.0439 20.8393C58.0889 19.8013 56.2607 18.2867 56.2607 15.7599C56.2607 12.9672 58.5963 10.8911 62.1184 10.8911C63.9728 10.8911 65.3159 11.3159 66.1219 11.7703L65.4764 13.658C64.8831 13.3403 63.6743 12.8083 62.0363 12.8083Z" fill="#75777B"/>
<path d="M80.7849 22.0103C80.7849 19.6424 79.6581 15.9446 75.4122 15.9446C71.6252 15.9446 69.3156 19.0033 69.3156 22.8858C69.3156 26.7683 71.7072 29.3764 75.7107 29.3764C77.7777 29.3764 79.2029 28.9516 80.0349 28.5785L79.632 26.9013C78.744 27.2744 77.7254 27.5663 76.0315 27.5663C73.666 27.5663 71.6252 26.2622 71.5729 23.0964H80.7065C80.7326 22.8637 80.7849 22.4906 80.7849 22.0103ZM71.599 21.4267C71.7856 19.8049 72.834 17.6217 75.2256 17.6217C77.8859 17.6217 78.5313 19.9342 78.5015 21.4267H71.599Z" fill="#75777B"/>
<path d="M94.3808 22.0103C94.3808 19.6424 93.254 15.9446 89.0081 15.9446C85.2211 15.9446 82.9116 19.0033 82.9116 22.8858C82.9116 26.7683 85.3032 29.3764 89.3066 29.3764C91.3736 29.3764 92.7988 28.9516 93.6309 28.5785L93.2279 26.9013C92.3399 27.2744 91.3213 27.5663 89.6274 27.5663C87.262 27.5663 85.2211 26.2622 85.1688 23.0964H94.3024C94.3248 22.8637 94.3808 22.4906 94.3808 22.0103ZM85.1912 21.4267C85.3778 19.8049 86.4262 17.6217 88.8178 17.6217C91.478 17.6217 92.1235 19.9342 92.0937 21.4267H85.1912Z" fill="#75777B"/>
<path d="M25.61 8.12475L24.846 7.36435C24.848 7.36435 24.85 7.36435 24.85 7.36435C25.13 7.36435 25.348 7.10495 25.272 6.81386C25.234 6.67326 25.12 6.55643 24.978 6.51683C24.788 6.46336 24.612 6.53465 24.508 6.66336L24.104 5.47921C24.016 5.2198 23.776 5.04158 23.5 5.02772L21.108 4.91089C20.804 4.89505 20.5 4.88911 20.196 4.88911C19.892 4.88911 19.588 4.89703 19.284 4.91089L16.892 5.02772C16.616 5.04158 16.378 5.2198 16.288 5.47921L15.884 6.66336C15.78 6.53267 15.606 6.46138 15.414 6.51683C15.272 6.55643 15.158 6.67326 15.12 6.81386C15.044 7.10297 15.262 7.36435 15.542 7.36435C15.544 7.36435 15.546 7.36435 15.546 7.36435L14.782 8.12475C14.456 8.4495 14.294 8.90297 14.346 9.36039L14.446 10.2436C14.446 10.2436 14.326 10.4891 14.464 10.796C14.602 11.103 14.79 11.3485 14.79 11.3485C14.79 11.3485 14.792 11.3485 14.794 11.3505V12.9109C14.794 13.1564 14.996 13.3564 15.244 13.3564H15.976C16.224 13.3564 16.426 13.1564 16.426 12.9109V11.6495C17.246 11.7327 18.45 11.8 20.196 11.8C21.942 11.8 23.146 11.7327 23.966 11.6495V12.9109C23.966 13.1564 24.168 13.3564 24.416 13.3564H25.148C25.396 13.3564 25.598 13.1564 25.598 12.9109V11.3505C25.6 11.3485 25.602 11.3485 25.602 11.3485C25.602 11.3485 25.79 11.103 25.928 10.796C26.066 10.4891 25.946 10.2436 25.946 10.2436L26.046 9.36039C26.098 8.90495 25.938 8.4495 25.61 8.12475ZM16.668 5.6099C16.704 5.50495 16.8 5.43366 16.912 5.42772L19.284 5.31089C19.588 5.29505 19.892 5.28911 20.196 5.28911C20.5 5.28911 20.804 5.29703 21.108 5.31089L23.48 5.42772C23.592 5.43366 23.688 5.50495 23.724 5.6099L24.27 7.20792L20.196 7.11089L16.124 7.20792L16.668 5.6099ZM16.106 10.2733C15.68 10.2733 15.334 9.93069 15.334 9.50891C15.334 9.08713 15.68 8.74455 16.106 8.74455C16.532 8.74455 16.878 9.08713 16.878 9.50891C16.878 9.93069 16.532 10.2733 16.106 10.2733ZM22.368 10.0752H18.028C17.808 10.0752 17.628 9.89703 17.628 9.6792H22.768C22.768 9.89703 22.588 10.0752 22.368 10.0752ZM17.628 9.4297C17.628 9.21188 17.808 9.03366 18.028 9.03366H22.368C22.588 9.03366 22.768 9.21188 22.768 9.4297H17.628ZM24.29 10.2733C23.864 10.2733 23.518 9.93069 23.518 9.50891C23.518 9.08713 23.864 8.74455 24.29 8.74455C24.716 8.74455 25.062 9.08713 25.062 9.50891C25.062 9.93069 24.716 10.2733 24.29 10.2733Z" fill="white"/>
</svg>
