<?xml version="1.0" encoding="utf-8"?>
<!-- Generator: Adobe Illustrator 23.0.4, SVG Export Plug-In . SVG Version: 6.00 Build 0)  -->
<svg version="1.1" id="Layer_1" xmlns="http://www.w3.org/2000/svg" xmlns:xlink="http://www.w3.org/1999/xlink" x="0px" y="0px"
	 viewBox="0 0 211.456 45" style="enable-background:new 0 0 211.456 45;" xml:space="preserve">
<style type="text/css">
	.st0{fill:#E22B2B;}
	.st1{fill:#C1C1C1;}
</style>
<g>
	<path class="st0" d="M25.003,44.863h-4.709V29.542h0.326h4.652h10.859v3.762H25.003v2.826h10.533v3.548H25.003V44.863z"/>
	<path class="st0" d="M37.554,33.44c0-0.625,0.07-1.14,0.211-1.55c0.141-0.408,0.404-0.789,0.788-1.14
		c0.333-0.338,0.705-0.598,1.115-0.78c0.41-0.182,0.925-0.311,1.548-0.39c0.621-0.078,1.367-0.127,2.239-0.146
		c0.871-0.019,2.216-0.029,4.036-0.029s3.165,0.01,4.037,0.029c0.871,0.02,1.611,0.068,2.22,0.146
		c0.609,0.078,1.115,0.207,1.519,0.39c0.403,0.182,0.771,0.442,1.105,0.78c0.384,0.351,0.646,0.732,0.788,1.14
		c0.14,0.41,0.211,0.926,0.211,1.55v2.222c0,2.015,0,3.762,0,5.243c0,0.624-0.071,1.151-0.211,1.579
		c-0.142,0.429-0.404,0.819-0.788,1.17c-0.334,0.325-0.708,0.575-1.124,0.751c-0.417,0.175-0.936,0.305-1.557,0.39
		c-0.622,0.085-1.387,0.14-2.297,0.166C50.481,44.987,49.162,45,47.432,45c-1.73,0-3.043-0.013-3.94-0.039
		c-0.897-0.026-1.66-0.081-2.287-0.166c-0.628-0.085-1.141-0.215-1.538-0.39c-0.397-0.176-0.769-0.425-1.115-0.751
		c-0.384-0.351-0.647-0.741-0.788-1.17c-0.141-0.429-0.211-0.956-0.211-1.579V33.44z M41.801,40.301c0,0.325,0.096,0.55,0.288,0.673
		c0.192,0.124,0.557,0.185,1.095,0.185c0.705,0,3.556,0,8.553,0c0.5,0,0.868-0.081,1.106-0.244c0.236-0.162,0.355-0.367,0.355-0.614
		v-1.754v-4.445c0-0.363-0.099-0.61-0.298-0.74c-0.198-0.13-0.567-0.195-1.105-0.195c-0.705,0-3.575,0-8.611,0
		c-0.5,0-0.855,0.085-1.067,0.254c-0.211,0.169-0.317,0.397-0.317,0.682V40.301z"/>
	<path class="st0" d="M72.782,36.111c0.358-0.273,0.538-0.669,0.538-1.188c0-0.455-0.173-0.83-0.519-1.121
		c-0.346-0.293-0.75-0.439-1.211-0.439h-7.477v11.501h-4.709V29.542h12.531c1.063,0,1.948,0.078,2.653,0.233
		c0.704,0.156,1.281,0.413,1.73,0.77c0.448,0.358,0.779,0.842,0.99,1.452c0.212,0.612,0.318,1.384,0.318,2.32
		c0,0.937-0.083,1.723-0.25,2.359c-0.167,0.637-0.429,1.15-0.788,1.54c-0.358,0.39-0.836,0.676-1.431,0.857
		c-0.596,0.182-1.342,0.273-2.24,0.273v0.078l6.17,5.439h-5.227l-9.091-8.344h6.765C72.007,36.52,72.423,36.384,72.782,36.111z"/>
	<path class="st0" d="M84.218,29.542v10.214c0,0.299,0.125,0.543,0.375,0.731c0.25,0.189,0.637,0.283,1.164,0.283h6.688
		c0.564,0,0.97-0.094,1.22-0.283c0.249-0.188,0.375-0.432,0.375-0.731V29.542h4.632v10.877c0,0.689-0.074,1.274-0.221,1.754
		c-0.148,0.481-0.427,0.93-0.836,1.345c-0.435,0.403-0.798,0.692-1.086,0.868c-0.289,0.175-0.686,0.309-1.192,0.399
		c-0.507,0.091-1.204,0.15-2.095,0.176C92.351,44.987,90.983,45,89.138,45c-1.832,0-3.197-0.013-4.094-0.039
		c-0.897-0.026-1.599-0.085-2.105-0.176c-0.506-0.09-0.91-0.227-1.211-0.409c-0.301-0.182-0.663-0.468-1.086-0.858
		c-0.411-0.416-0.689-0.864-0.836-1.345c-0.148-0.481-0.221-1.065-0.221-1.754V29.542H84.218z"/>
	<path class="st0" d="M114.085,44.863h-3.171l-5.574-11.15h-0.058v11.15h-4.381V29.542h7.361l4.171,8.927l0.058,0.078l4.19-9.005
		h7.342v15.322h-4.363v-11.15h-0.077L114.085,44.863z"/>
	<path class="st0" d="M125.694,44.863V40.77h4.381v4.093H125.694z"/>
	<path class="st0" d="M136.187,44.805h-4.439V29.542h7.688l9.072,11.364l0.077,0.195V29.542h4.44v15.263h-7.631l-9.149-11.442
		l-0.058-0.137V44.805z"/>
	<path class="st0" d="M172.013,41.296v3.567h-11.589h-4.651h-0.326V29.542h0.192h4.786h11.589v3.547h-11.858v2.573h11.128v3.1
		h-11.128v2.534H172.013z"/>
	<path class="st0" d="M184.467,44.863h-4.709V33.089h-6.631v-3.547h17.759v3.547h-6.42V44.863z"/>
</g>
<g>
	<path class="st1" d="M40.704,5.306c0.135-0.586,0.495-1.194,1.082-1.826c0.586-0.63,1.261-1.205,2.028-1.724
		c0.766-0.517,1.544-0.935,2.333-1.251c0.788-0.315,1.475-0.473,2.062-0.473h30.9v7.168H52.537
		c-0.676,0.226-1.183,0.519-1.522,0.879c-0.338,0.361-0.62,0.789-0.845,1.284v8.655h28.872v7.099H40.704V5.306z"/>
	<path class="st1" d="M7.64,0.031c-0.586,0-1.262,0.159-2.028,0.473C4.845,0.821,4.091,1.227,3.347,1.722
		c-0.743,0.496-1.42,1.093-2.028,1.792C0.71,4.213,0.271,4.923,0,5.644v19.473h9.06V9.362c0.225-0.585,0.541-1.036,0.947-1.352
		c0.406-0.316,1.15-0.586,2.232-0.812H29.21v2.367H10.851v6.153H29.21v9.399h9.399V0.031H7.64z"/>
	<path class="st1" d="M88.908,0.031c-0.586,0-1.262,0.159-2.028,0.473c-0.767,0.316-1.521,0.722-2.265,1.218
		c-0.743,0.496-1.42,1.093-2.028,1.792c-0.608,0.699-1.048,1.409-1.318,2.13v19.473h9.06V9.362c0.225-0.585,0.541-1.036,0.947-1.352
		c0.406-0.316,1.15-0.586,2.232-0.812h16.971v2.367H92.119v6.153h18.359v9.399h9.399V0.031H88.908z"/>
	<path class="st1" d="M203.815,0.031c0.586,0,1.262,0.159,2.028,0.473c0.767,0.316,1.521,0.722,2.265,1.218
		c0.743,0.496,1.42,1.093,2.028,1.792c0.608,0.699,1.048,1.409,1.318,2.13v19.473h-9.06V9.362c-0.225-0.585-0.541-1.036-0.947-1.352
		c-0.406-0.316-1.15-0.586-2.232-0.812h-16.971v2.367h18.359v6.153h-18.359v9.399h-9.399V0.031H203.815z"/>
	<g>
		<rect x="162.479" y="0.031" class="st1" width="8.114" height="7.186"/>
		<rect x="162.479" y="8.883" class="st1" width="8.114" height="16.234"/>
	</g>
	<path class="st1" d="M159.234,3.448c-0.586-0.632-1.251-1.207-1.994-1.724c-0.744-0.519-1.522-0.936-2.333-1.251
		C154.095,0.157,153.396,0,152.81,0h-30.9v12.354v0.477v12.354h30.9c0.586,0,1.285-0.157,2.097-0.473
		c0.811-0.315,1.588-0.732,2.333-1.251c0.743-0.517,1.408-1.092,1.994-1.724c0.586-0.63,0.947-1.261,1.082-1.893v-7.012v-0.477
		V5.342C160.18,4.71,159.819,4.079,159.234,3.448z M150.917,12.831v3.023c-0.225,0.541-0.518,0.981-0.878,1.318
		c-0.362,0.338-0.903,0.621-1.623,0.846h-17.512v-5.187v-0.477V7.167h17.512c0.721,0.225,1.261,0.507,1.623,0.846
		c0.36,0.338,0.653,0.778,0.878,1.318v3.023V12.831z"/>
</g>
</svg>
