<?xml version="1.0" encoding="utf-8"?>
<!-- Generator: Adobe Illustrator 26.0.1, SVG Export Plug-In . SVG Version: 6.00 Build 0)  -->
<svg version="1.1" id="Layer_1" xmlns="http://www.w3.org/2000/svg" xmlns:xlink="http://www.w3.org/1999/xlink" x="0px" y="0px"
	 width="287.4px" height="52.2px" viewBox="0 0 287.4 52.2" style="enable-background:new 0 0 287.4 52.2;" xml:space="preserve">
<style type="text/css">
	.st0{fill:#FFFFFF;}
</style>
<g>
	<g>
		<path class="st0" d="M65.7,40.2c1.2,0,2.1,0.3,2.6,1c0.5,0.6,0.9,1.5,0.9,2.6c0,0.9-0.1,1.6-0.3,2.4c-0.2,0.8-0.6,1.3-1.1,1.8
			c-0.4,0.5-1,0.9-1.6,1.2c-0.6,0.3-1.3,0.4-2.1,0.4h-3.6l1.9-9.3h3.2V40.2z M64.1,48.4c0.6,0,1.2-0.1,1.7-0.4
			c0.5-0.2,0.9-0.6,1.2-1.1c0.3-0.4,0.5-0.9,0.8-1.4c0.2-0.5,0.2-1.1,0.2-1.6c0-0.3,0-0.6-0.1-1c-0.1-0.3-0.2-0.6-0.4-0.9
			c-0.2-0.2-0.4-0.4-0.8-0.5c-0.3-0.1-0.8-0.2-1.3-0.2h-1.9l-1.5,7.1C61.9,48.4,64.1,48.4,64.1,48.4z"/>
		<path class="st0" d="M71.4,47c0,0.2,0,0.5,0.1,0.6c0.1,0.2,0.2,0.3,0.4,0.5s0.3,0.2,0.5,0.3s0.4,0.1,0.6,0.1
			c0.5,0,0.9-0.1,1.2-0.3c0.3-0.2,0.5-0.5,0.8-1h1.1c-0.1,0.3-0.2,0.6-0.4,1c-0.2,0.3-0.4,0.5-0.6,0.6c-0.2,0.2-0.5,0.3-0.9,0.4
			c-0.3,0.1-0.6,0.1-1.1,0.1c-0.5,0-1-0.1-1.4-0.2c-0.3-0.2-0.6-0.4-0.9-0.6c-0.2-0.2-0.3-0.5-0.4-0.9c-0.1-0.3-0.1-0.6-0.1-0.9
			c0-0.6,0.1-1.2,0.3-1.7c0.2-0.5,0.4-1,0.8-1.4s0.6-0.6,1.1-0.9c0.4-0.2,0.9-0.3,1.3-0.3c1,0,1.7,0.2,2.2,0.8
			c0.4,0.5,0.6,1.3,0.6,2.2c0,0.2,0,0.3,0,0.5c0,0.1,0,0.3-0.1,0.3h-5.1C71.4,46.7,71.4,46.9,71.4,47z M75.4,44.8
			c0-0.2-0.1-0.4-0.2-0.6c-0.1-0.2-0.3-0.3-0.5-0.4c-0.2-0.1-0.4-0.2-0.8-0.2c-0.3,0-0.6,0-0.9,0.1c-0.2,0.1-0.4,0.2-0.6,0.4
			c-0.2,0.2-0.3,0.3-0.4,0.6c-0.1,0.3-0.2,0.4-0.3,0.8h3.9C75.5,45.3,75.4,45.1,75.4,44.8z"/>
		<path class="st0" d="M80.7,40.2L80,43.5l0,0c0.2-0.3,0.5-0.5,0.9-0.8c0.3-0.2,0.8-0.2,1.2-0.2s0.9,0.1,1.2,0.2
			c0.3,0.1,0.6,0.3,0.9,0.5c0.2,0.2,0.3,0.5,0.4,0.9c0.1,0.3,0.1,0.8,0.1,1.2c0,0.5-0.1,1.1-0.2,1.5c-0.1,0.4-0.4,1-0.6,1.3
			c-0.3,0.4-0.6,0.6-1.1,1c-0.4,0.2-1,0.3-1.5,0.3c-0.3,0-0.6,0-0.9-0.1c-0.2-0.1-0.4-0.2-0.6-0.3c-0.2-0.1-0.3-0.3-0.4-0.4
			c-0.1-0.2-0.2-0.3-0.2-0.5l0,0l-0.2,1.3h-1l1.9-9.3h1V40.2z M83.5,44.7c-0.1-0.2-0.1-0.4-0.3-0.6c-0.1-0.2-0.3-0.3-0.4-0.4
			c-0.2-0.1-0.4-0.1-0.6-0.1c-0.4,0-0.9,0.1-1.3,0.3s-0.6,0.5-0.9,0.9c-0.2,0.3-0.4,0.8-0.5,1.1c-0.1,0.3-0.1,0.8-0.1,1.1
			c0,0.5,0.2,1,0.5,1.2c0.3,0.3,0.8,0.4,1.3,0.4c0.4,0,0.8-0.1,1.1-0.3c0.3-0.2,0.5-0.4,0.8-0.8s0.3-0.6,0.4-1
			c0.1-0.3,0.1-0.8,0.1-1.1C83.6,45.3,83.6,44.9,83.5,44.7z"/>
		<path class="st0" d="M90.3,42.8l-0.2,1h-1.3L88,47.6c0,0.1,0,0.1,0,0.2s0,0.1,0,0.2c0,0.2,0.1,0.3,0.2,0.3
			c0.1,0.1,0.3,0.1,0.4,0.1s0.2,0,0.3,0s0.2,0,0.3-0.1l-0.2,1c-0.1,0-0.2,0-0.4,0c-0.1,0-0.2,0-0.4,0s-0.4,0-0.5,0
			c-0.2,0-0.3-0.1-0.4-0.2c-0.1-0.1-0.2-0.2-0.3-0.3c-0.1-0.1-0.1-0.3-0.1-0.5c0-0.1,0-0.2,0-0.3s0-0.2,0-0.3l0.9-4.2h-1.1l0.2-1
			h1.1l0.4-1.9h1.1l-0.4,1.9h1.4V42.8z"/>
		<path class="st0" d="M100.7,40.2c0.4,0,0.8,0,1.2,0.1c0.3,0.1,0.6,0.2,1,0.4c0.3,0.2,0.5,0.4,0.6,0.8c0.2,0.3,0.2,0.6,0.2,1.2
			c0,0.3,0,0.6-0.1,0.9c-0.1,0.3-0.2,0.5-0.4,0.8c-0.2,0.2-0.4,0.4-0.6,0.5c-0.2,0.1-0.5,0.2-0.9,0.3l0,0c0.2,0.1,0.3,0.1,0.5,0.3
			c0.2,0.2,0.2,0.3,0.3,0.4c0.1,0.2,0.1,0.3,0.1,0.5c0,0.2,0,0.4,0,0.6c0,0.2,0,0.4-0.1,0.6c0,0.2-0.1,0.4-0.1,0.6
			c0,0.2,0,0.4,0,0.5c0,0.1,0.1,0.3,0.2,0.5h-1.3c-0.1-0.2-0.1-0.4-0.1-0.8s0-0.8,0.1-1.2s0.1-0.8,0.1-1s-0.1-0.4-0.2-0.5
			c-0.1-0.1-0.2-0.2-0.3-0.3c-0.1,0-0.3-0.1-0.4-0.1h-0.5h-2.7l-0.9,4h-1.2l1.9-9.3h3.6V40.2z M100.3,44.5c0.4,0,0.9-0.1,1.2-0.2
			c0.3-0.1,0.5-0.3,0.6-0.4c0.2-0.2,0.3-0.4,0.3-0.6c0.1-0.2,0.1-0.4,0.1-0.5c0-0.3,0-0.5-0.1-0.6c-0.1-0.2-0.2-0.3-0.4-0.4
			c-0.2-0.1-0.3-0.2-0.5-0.2c-0.2,0-0.4-0.1-0.6-0.1h-2.6l-0.6,3.2H100.3z"/>
		<path class="st0" d="M105.9,47c0,0.2,0,0.5,0.1,0.6c0.1,0.2,0.2,0.3,0.4,0.5c0.2,0.2,0.3,0.2,0.5,0.3c0.2,0.1,0.4,0.1,0.6,0.1
			c0.5,0,0.9-0.1,1.2-0.3c0.3-0.2,0.5-0.5,0.8-1h1.1c-0.1,0.3-0.2,0.6-0.4,1c-0.2,0.3-0.4,0.5-0.6,0.6c-0.2,0.2-0.5,0.3-0.9,0.4
			c-0.3,0.1-0.6,0.1-1.1,0.1c-0.5,0-1-0.1-1.4-0.2c-0.3-0.2-0.6-0.4-0.9-0.6c-0.2-0.2-0.3-0.5-0.4-0.9c-0.1-0.3-0.1-0.6-0.1-0.9
			c0-0.6,0.1-1.2,0.3-1.7c0.2-0.5,0.4-1,0.8-1.4c0.3-0.4,0.6-0.6,1.1-0.9c0.4-0.2,0.9-0.3,1.3-0.3c1,0,1.7,0.2,2.2,0.8
			c0.4,0.5,0.6,1.3,0.6,2.2c0,0.2,0,0.3,0,0.5c0,0.1,0,0.3-0.1,0.3h-5.1C105.9,46.7,105.9,46.9,105.9,47z M109.9,44.8
			c0-0.2-0.1-0.4-0.2-0.6c-0.1-0.2-0.3-0.3-0.5-0.4c-0.2-0.1-0.4-0.2-0.8-0.2c-0.3,0-0.6,0-0.9,0.1c-0.2,0.1-0.4,0.2-0.6,0.4
			c-0.2,0.2-0.3,0.3-0.4,0.6c-0.1,0.3-0.2,0.4-0.3,0.8h3.9C110,45.3,109.9,45.1,109.9,44.8z"/>
		<path class="st0" d="M117.2,44c-0.2-0.2-0.6-0.3-1.1-0.3s-0.8,0.1-1.1,0.3c-0.3,0.2-0.6,0.4-0.9,0.8c-0.2,0.3-0.4,0.6-0.5,1
			c-0.1,0.3-0.2,0.8-0.2,1.1c0,0.2,0,0.5,0.1,0.8c0.1,0.2,0.1,0.4,0.3,0.6c0.1,0.2,0.3,0.3,0.5,0.4c0.2,0.1,0.4,0.1,0.8,0.1
			c0.4,0,0.9-0.1,1.2-0.3c0.3-0.2,0.5-0.5,0.8-1h1.1c-0.2,0.8-0.5,1.3-1.1,1.7c-0.5,0.4-1.2,0.6-1.9,0.6c-0.9,0-1.6-0.2-2.1-0.8
			s-0.6-1.2-0.6-2.2c0-0.5,0.1-1.1,0.2-1.5c0.1-0.5,0.4-1,0.8-1.3c0.3-0.4,0.8-0.6,1.2-1c0.4-0.3,1-0.3,1.6-0.3
			c0.8,0,1.4,0.2,1.8,0.5c0.4,0.3,0.6,1,0.8,1.7h-1.1C117.7,44.5,117.4,44.2,117.2,44z"/>
		<path class="st0" d="M120.3,45.3c0.2-0.5,0.4-1,0.8-1.3c0.3-0.4,0.8-0.6,1.2-1c0.4-0.2,1-0.3,1.6-0.3c0.9,0,1.6,0.2,2.1,0.8
			c0.4,0.4,0.8,1.2,0.8,2.1c0,0.5-0.1,1.1-0.2,1.6c-0.2,0.5-0.4,1-0.8,1.4s-0.8,0.8-1.2,1c-0.4,0.2-1,0.3-1.6,0.3
			c-0.4,0-0.9-0.1-1.2-0.2c-0.3-0.1-0.6-0.3-0.9-0.5c-0.2-0.2-0.4-0.5-0.5-0.9c-0.1-0.3-0.2-0.8-0.2-1.1
			C120,46.2,120.1,45.8,120.3,45.3z M121.7,48.2c0.3,0.3,0.8,0.5,1.4,0.5c0.4,0,0.8-0.1,1.1-0.3c0.3-0.2,0.5-0.4,0.8-0.8
			c0.2-0.3,0.3-0.6,0.4-1.1c0.1-0.3,0.2-0.8,0.2-1.1c0-0.2,0-0.5-0.1-0.8c-0.1-0.2-0.2-0.4-0.3-0.6c-0.1-0.2-0.3-0.3-0.5-0.4
			c-0.2-0.1-0.4-0.1-0.8-0.1c-0.4,0-0.8,0.1-1.1,0.3c-0.3,0.2-0.5,0.4-0.8,0.8c-0.2,0.3-0.4,0.6-0.5,1.1c-0.1,0.4-0.2,0.8-0.2,1.1
			C121.1,47.3,121.3,47.9,121.7,48.2z"/>
		<path class="st0" d="M129.4,49.5l-1-6.7h1.2l0.5,5.6l0,0l2.9-5.6h1.2l-3.7,6.7H129.4z"/>
		<path class="st0" d="M136,47c0,0.2,0,0.5,0.1,0.6c0.1,0.2,0.2,0.3,0.4,0.5s0.3,0.2,0.5,0.3s0.4,0.1,0.6,0.1c0.5,0,0.9-0.1,1.2-0.3
			c0.3-0.2,0.5-0.5,0.8-1h1.1c-0.1,0.3-0.2,0.6-0.4,1c-0.2,0.3-0.4,0.5-0.6,0.6c-0.2,0.1-0.5,0.3-0.9,0.4c-0.3,0.1-0.6,0.1-1.1,0.1
			c-0.5,0-1-0.1-1.4-0.2c-0.4-0.1-0.6-0.4-0.9-0.6c-0.2-0.2-0.3-0.5-0.4-0.9c-0.1-0.3-0.1-0.6-0.1-0.9c0-0.6,0.1-1.2,0.3-1.7
			c0.2-0.5,0.4-1,0.8-1.4s0.6-0.6,1.1-0.9c0.4-0.2,0.9-0.3,1.3-0.3c1,0,1.7,0.2,2.2,0.8s0.6,1.3,0.6,2.2c0,0.2,0,0.3,0,0.5
			c0,0.1,0,0.3-0.1,0.3H136C136,46.7,136,46.9,136,47z M140,44.8c0-0.2-0.1-0.4-0.2-0.6c-0.1-0.2-0.3-0.3-0.5-0.4
			c-0.2-0.1-0.4-0.2-0.8-0.2c-0.3,0-0.6,0-0.9,0.1c-0.2,0.1-0.4,0.2-0.6,0.4s-0.3,0.3-0.4,0.6c-0.1,0.2-0.2,0.4-0.3,0.8h3.9
			C140.1,45.3,140.1,45.1,140,44.8z"/>
		<path class="st0" d="M144.8,42.8l-0.3,1.4l0,0c0.2-0.4,0.5-0.9,1-1.2c0.4-0.3,0.9-0.4,1.4-0.4c0.1,0,0.1,0,0.2,0
			c0.1,0,0.1,0,0.2,0l-0.2,1.2c0,0-0.1,0-0.2,0h-0.1c-0.1,0-0.2,0-0.3,0c-0.1,0-0.2,0-0.3,0.1c-0.3,0.1-0.5,0.2-0.9,0.4
			s-0.4,0.4-0.6,0.6c-0.1,0.2-0.2,0.4-0.3,0.8c-0.1,0.3-0.1,0.5-0.2,0.9l-0.6,2.9h-1.1l1.4-6.7C143.7,42.8,144.8,42.8,144.8,42.8z"
			/>
		<path class="st0" d="M149.1,51.2c-0.1,0.2-0.3,0.3-0.4,0.5c-0.2,0.1-0.3,0.2-0.5,0.3s-0.4,0.1-0.8,0.1c-0.1,0-0.2,0-0.4,0
			c-0.1,0-0.2-0.1-0.3-0.1l0.2-0.9c0.1,0,0.2,0.1,0.3,0.1c0.1,0,0.2,0,0.3,0c0.2,0,0.4-0.1,0.6-0.2c0.1-0.1,0.3-0.3,0.4-0.5l0.6-1.1
			l-1.2-6.7h1.2l0.8,5.3l0,0l2.8-5.3h1.2l-4.4,7.8C149.3,50.8,149.2,51,149.1,51.2z"/>
		<path class="st0" d="M165.1,42c-0.1-0.2-0.2-0.4-0.4-0.6s-0.4-0.2-0.6-0.3s-0.5-0.1-0.9-0.1c-0.2,0-0.4,0-0.8,0.1
			c-0.2,0.1-0.4,0.1-0.6,0.2c-0.2,0.1-0.4,0.3-0.5,0.4c-0.1,0.1-0.2,0.4-0.2,0.6c0,0.2,0,0.4,0.1,0.5c0.1,0.1,0.2,0.3,0.3,0.4
			c0.1,0.1,0.3,0.2,0.4,0.3c0.1,0.1,0.4,0.1,0.5,0.2l1.3,0.3c0.3,0.1,0.5,0.2,0.9,0.3c0.2,0.1,0.5,0.2,0.8,0.4s0.3,0.4,0.5,0.8
			c0.1,0.3,0.2,0.6,0.2,1.1c0,0.4-0.1,0.9-0.3,1.3c-0.2,0.3-0.5,0.6-0.9,0.9c-0.3,0.2-0.8,0.4-1.2,0.5c-0.4,0.1-0.9,0.2-1.3,0.2
			c-0.5,0-1.1-0.1-1.5-0.2c-0.4-0.1-0.9-0.3-1.2-0.5c-0.3-0.2-0.5-0.5-0.8-1c-0.2-0.4-0.2-0.9-0.2-1.5h1.2c0,0.4,0,0.8,0.1,1.1
			c0.1,0.3,0.3,0.5,0.5,0.6c0.2,0.2,0.5,0.3,0.8,0.3c0.3,0.1,0.6,0.1,1,0.1c0.3,0,0.5,0,0.9-0.1s0.5-0.2,0.8-0.3
			c0.2-0.1,0.4-0.3,0.5-0.5c0.1-0.2,0.2-0.5,0.2-0.8s0-0.4-0.1-0.6c-0.1-0.2-0.2-0.3-0.3-0.4s-0.3-0.2-0.5-0.3
			c-0.2-0.1-0.4-0.1-0.6-0.2l-1.3-0.3c-0.3-0.1-0.5-0.2-0.8-0.3s-0.4-0.3-0.6-0.4c-0.2-0.1-0.3-0.4-0.4-0.6
			c-0.1-0.2-0.2-0.5-0.2-0.9c0-0.4,0.1-0.9,0.3-1.2c0.2-0.3,0.4-0.6,0.8-0.9c0.3-0.2,0.6-0.4,1.1-0.5c0.4-0.1,0.9-0.2,1.2-0.2
			c0.4,0,0.9,0.1,1.3,0.2c0.4,0.1,0.8,0.3,1.1,0.5c0.3,0.2,0.5,0.5,0.8,0.9c0.2,0.3,0.2,0.9,0.2,1.3h-1.2
			C165.3,42.6,165.2,42.2,165.1,42z"/>
		<path class="st0" d="M170,42.8l-0.2,1l0,0c0.3-0.4,0.6-0.8,1-0.9c0.3-0.1,0.8-0.2,1.2-0.2c0.4,0,0.9,0.1,1.1,0.2
			c0.2,0.1,0.6,0.3,0.9,0.5c0.2,0.2,0.4,0.5,0.5,0.9s0.2,0.8,0.2,1.1c0,0.5-0.1,1-0.2,1.5s-0.4,1-0.8,1.4c-0.3,0.4-0.8,0.8-1.2,1
			c-0.4,0.2-1,0.3-1.6,0.3c-0.2,0-0.4,0-0.6,0s-0.4-0.1-0.6-0.2s-0.3-0.2-0.5-0.3c-0.1-0.1-0.2-0.3-0.3-0.5l0,0l-0.8,3.6h-1.1
			l1.9-9.3C168.8,42.8,170,42.8,170,42.8z M173.1,44.1c-0.3-0.3-0.8-0.4-1.3-0.4c-0.4,0-0.8,0.1-1.1,0.3c-0.3,0.2-0.6,0.5-0.9,0.9
			s-0.4,0.6-0.5,1.1c-0.1,0.4-0.2,0.8-0.2,1.1c0,0.5,0.1,0.9,0.4,1.3c0.3,0.3,0.8,0.5,1.3,0.5c0.4,0,0.9-0.1,1.2-0.3
			s0.6-0.4,0.9-0.8c0.2-0.3,0.4-0.6,0.5-1.1c0.1-0.4,0.2-0.8,0.2-1.2C173.5,44.8,173.3,44.4,173.1,44.1z"/>
		<path class="st0" d="M177.1,47c0,0.2,0,0.5,0.1,0.6c0.1,0.2,0.2,0.3,0.4,0.5s0.3,0.2,0.5,0.3s0.4,0.1,0.6,0.1
			c0.5,0,0.9-0.1,1.2-0.3c0.3-0.2,0.5-0.5,0.8-1h1.1c-0.1,0.3-0.2,0.6-0.4,1c-0.2,0.3-0.4,0.5-0.6,0.6c-0.2,0.1-0.5,0.3-0.9,0.4
			c-0.3,0.1-0.6,0.1-1.1,0.1c-0.5,0-1-0.1-1.4-0.2c-0.4-0.1-0.6-0.4-0.9-0.6c-0.2-0.2-0.3-0.5-0.4-0.9c-0.1-0.3-0.1-0.6-0.1-0.9
			c0-0.6,0.1-1.2,0.3-1.7s0.4-1,0.8-1.4s0.6-0.6,1.1-0.9c0.4-0.2,0.9-0.3,1.3-0.3c1,0,1.7,0.2,2.2,0.8s0.6,1.3,0.6,2.2
			c0,0.2,0,0.3,0,0.5c0,0.1,0,0.3-0.1,0.3h-5.1C177.2,46.7,177.1,46.9,177.1,47z M181.2,44.8c0-0.2-0.1-0.4-0.2-0.6
			c-0.1-0.2-0.3-0.3-0.5-0.4c-0.2-0.1-0.4-0.2-0.8-0.2s-0.6,0-0.9,0.1c-0.2,0.1-0.4,0.2-0.6,0.4s-0.3,0.3-0.4,0.6
			c-0.1,0.2-0.2,0.4-0.3,0.8h3.9C181.2,45.3,181.2,45.1,181.2,44.8z"/>
		<path class="st0" d="M188.5,44c-0.2-0.2-0.6-0.3-1.1-0.3c-0.4,0-0.8,0.1-1.1,0.3c-0.3,0.2-0.6,0.4-0.9,0.8c-0.2,0.3-0.4,0.6-0.5,1
			c-0.1,0.3-0.2,0.8-0.2,1.1c0,0.2,0,0.5,0.1,0.8c0.1,0.2,0.1,0.4,0.3,0.6c0.1,0.2,0.3,0.3,0.5,0.4c0.2,0.1,0.4,0.1,0.8,0.1
			c0.4,0,0.9-0.1,1.2-0.3c0.3-0.2,0.5-0.5,0.8-1h1.1c-0.2,0.8-0.5,1.3-1.1,1.7c-0.5,0.4-1.2,0.6-1.9,0.6c-0.9,0-1.6-0.2-2.1-0.8
			c-0.4-0.5-0.6-1.2-0.6-2.2c0-0.5,0.1-1.1,0.2-1.5c0.1-0.5,0.4-1,0.8-1.3c0.3-0.4,0.8-0.6,1.2-1c0.4-0.3,1-0.3,1.6-0.3
			c0.8,0,1.4,0.2,1.8,0.5c0.4,0.3,0.6,1,0.8,1.7h-1.1C188.9,44.5,188.8,44.2,188.5,44z"/>
		<path class="st0" d="M193.6,42.8l-1.4,6.7h-1.1l1.4-6.7H193.6z M192.8,41.6l0.3-1.3h1.1l-0.3,1.3H192.8z"/>
		<path class="st0" d="M195.7,43.9c0.2-0.3,0.4-0.5,0.6-0.6c0.2-0.2,0.5-0.3,0.9-0.4c0.3-0.1,0.6-0.1,1-0.1s0.6,0,1,0.1
			c0.3,0,0.5,0.1,0.8,0.3c0.2,0.2,0.4,0.3,0.5,0.5c0.1,0.2,0.2,0.5,0.2,0.9c0,0.2,0,0.4-0.1,0.6c0,0.2-0.1,0.4-0.1,0.6l-0.4,1.8
			c0,0.1-0.1,0.3-0.1,0.4c0,0.1-0.1,0.3-0.1,0.5c0,0.1,0,0.2,0.1,0.3c0.1,0.1,0.1,0.1,0.2,0.1c0,0,0.1,0,0.2,0c0.1,0,0.1,0,0.2-0.1
			l-0.2,0.9c-0.1,0-0.2,0.1-0.3,0.1c-0.1,0-0.2,0-0.3,0c-0.3,0-0.5-0.1-0.6-0.2c-0.1-0.2-0.2-0.4-0.2-0.6l0,0
			c-0.2,0.3-0.5,0.5-0.9,0.8c-0.3,0.2-0.8,0.2-1.4,0.2c-0.3,0-0.5,0-0.8-0.1c-0.2-0.1-0.4-0.2-0.6-0.3s-0.3-0.3-0.4-0.5
			s-0.2-0.5-0.2-0.9c0-0.5,0.1-0.9,0.3-1.2c0.2-0.3,0.4-0.5,0.9-0.6c0.3-0.1,0.6-0.2,1.1-0.3c0.4,0,0.8-0.1,1.2-0.1
			c0.3,0,0.5,0,0.8-0.1c0.2-0.1,0.4-0.1,0.5-0.1c0.1-0.1,0.2-0.2,0.3-0.3c0.1-0.1,0.1-0.3,0.1-0.5c0-0.2,0-0.3-0.1-0.4
			c-0.1-0.1-0.2-0.2-0.3-0.2c-0.1-0.1-0.3-0.1-0.4-0.1c-0.1,0-0.3,0-0.4,0c-0.2,0-0.4,0-0.6,0.1c-0.2,0.1-0.4,0.1-0.5,0.2
			c-0.2,0.1-0.3,0.2-0.4,0.3c-0.1,0.1-0.2,0.3-0.2,0.5h-1.1C195.3,44.4,195.5,44.1,195.7,43.9z M196,48.4c0.2,0.1,0.5,0.2,0.9,0.2
			c0.9,0,1.5-0.3,1.8-0.9c0.2-0.2,0.3-0.5,0.3-0.9c0.1-0.3,0.1-0.6,0.2-0.9l0,0c-0.1,0.1-0.3,0.2-0.5,0.2c-0.2,0-0.5,0.1-0.8,0.1
			s-0.5,0.1-0.9,0.1c-0.3,0-0.5,0.1-0.8,0.2c-0.2,0.1-0.4,0.2-0.5,0.3c-0.1,0.1-0.2,0.4-0.2,0.6C195.7,48.1,195.8,48.3,196,48.4z"/>
		<path class="st0" d="M205,40.2l-1.9,9.3h-1.1l1.9-9.3H205z"/>
		<path class="st0" d="M208,42.8l-1.4,6.7h-1.1l1.4-6.7H208z M207.1,41.6l0.3-1.3h1.1l-0.3,1.3H207.1z"/>
		<path class="st0" d="M213.3,43.9c-0.3-0.2-0.6-0.3-1-0.3c-0.2,0-0.3,0-0.5,0s-0.3,0.1-0.4,0.1c-0.1,0.1-0.2,0.1-0.3,0.2
			c-0.1,0.1-0.1,0.2-0.1,0.4c0,0.1,0,0.3,0.1,0.4c0.1,0.1,0.2,0.2,0.4,0.3c0.2,0.1,0.3,0.2,0.5,0.2c0.2,0.1,0.4,0.2,0.6,0.2
			c0.2,0.1,0.4,0.2,0.6,0.3c0.2,0.1,0.4,0.2,0.5,0.4c0.1,0.2,0.3,0.3,0.4,0.5c0.1,0.2,0.1,0.4,0.1,0.6c0,0.3-0.1,0.6-0.2,1
			c-0.2,0.2-0.3,0.4-0.6,0.6c-0.2,0.2-0.5,0.3-0.9,0.3c-0.3,0.1-0.6,0.1-1,0.1c-0.4,0-0.8,0-1.1-0.1c-0.3-0.1-0.6-0.2-0.9-0.3
			c-0.2-0.2-0.4-0.4-0.5-0.6c-0.1-0.3-0.2-0.6-0.2-1.1h1.1c0,0.2,0,0.4,0.1,0.6c0.1,0.2,0.2,0.3,0.3,0.4c0.1,0.1,0.3,0.2,0.5,0.2
			c0.2,0,0.4,0.1,0.6,0.1c0.2,0,0.3,0,0.5,0s0.3-0.1,0.5-0.2s0.2-0.2,0.3-0.3c0.1-0.1,0.1-0.3,0.1-0.4c0-0.2,0-0.3-0.1-0.4
			c-0.1-0.1-0.2-0.2-0.4-0.3c-0.2-0.1-0.3-0.2-0.5-0.2c-0.2,0-0.4-0.2-0.6-0.2c-0.2-0.1-0.4-0.2-0.6-0.3c-0.2-0.1-0.4-0.2-0.5-0.3
			c-0.2-0.1-0.3-0.3-0.4-0.5c-0.1-0.2-0.1-0.4-0.1-0.6c0-0.3,0.1-0.5,0.2-0.9c0.1-0.2,0.3-0.4,0.5-0.6c0.2-0.1,0.5-0.3,0.8-0.3
			c0.3-0.1,0.6-0.1,0.9-0.1c0.3,0,0.6,0,1,0.1c0.3,0.1,0.5,0.2,0.9,0.3c0.2,0.2,0.4,0.4,0.5,0.6c0.1,0.3,0.2,0.6,0.2,1h-1.1
			C213.7,44.4,213.6,44.1,213.3,43.9z"/>
		<path class="st0" d="M220.2,42.8l-0.2,1h-1.3l-0.9,3.9c0,0.1,0,0.1,0,0.2s0,0.1,0,0.2c0,0.2,0.1,0.3,0.2,0.3
			c0.1,0.1,0.3,0.1,0.4,0.1c0.1,0,0.2,0,0.3,0c0.1,0,0.2,0,0.3-0.1l-0.2,1c-0.1,0-0.2,0-0.4,0c-0.1,0-0.2,0-0.4,0
			c-0.2,0-0.4,0-0.5,0c-0.2,0-0.3-0.1-0.4-0.2c-0.1-0.1-0.2-0.2-0.3-0.3c-0.1-0.1-0.1-0.3-0.1-0.5c0-0.1,0-0.2,0-0.3s0-0.2,0-0.3
			l0.9-4.2h-1.1l0.2-1h1.1l0.4-1.9h1.1l-0.4,1.9h1.4V42.8z"/>
		<path class="st0" d="M225,43.9c-0.3-0.2-0.6-0.3-1-0.3c-0.2,0-0.3,0-0.5,0s-0.3,0.1-0.4,0.1c-0.1,0.1-0.2,0.1-0.3,0.2
			c-0.1,0.1-0.1,0.2-0.1,0.4c0,0.1,0,0.3,0.1,0.4c0.1,0.1,0.2,0.2,0.4,0.3c0.2,0.1,0.3,0.2,0.5,0.2c0.2,0.1,0.4,0.2,0.6,0.2
			c0.2,0.1,0.4,0.2,0.6,0.3c0.2,0.1,0.4,0.2,0.5,0.4c0.1,0.2,0.3,0.3,0.4,0.5c0.1,0.2,0.1,0.4,0.1,0.6c0,0.3-0.1,0.6-0.2,1
			c-0.2,0.2-0.3,0.4-0.6,0.6c-0.2,0.2-0.5,0.3-0.9,0.3c-0.3,0.1-0.6,0.1-1,0.1c-0.4,0-0.8,0-1.1-0.1c-0.3-0.1-0.6-0.2-0.9-0.3
			c-0.2-0.2-0.4-0.4-0.5-0.6c-0.1-0.3-0.2-0.6-0.2-1.1h1.1c0,0.2,0,0.4,0.1,0.6c0.1,0.2,0.2,0.3,0.3,0.4s0.3,0.2,0.5,0.2
			s0.4,0.1,0.6,0.1s0.3,0,0.5,0c0.2,0,0.3-0.1,0.5-0.2c0.2-0.1,0.2-0.2,0.3-0.3c0.1-0.1,0.1-0.3,0.1-0.4c0-0.2,0-0.3-0.1-0.4
			c-0.1-0.1-0.2-0.2-0.4-0.3c-0.2-0.1-0.3-0.2-0.5-0.2s-0.4-0.2-0.6-0.2c-0.2-0.1-0.4-0.2-0.6-0.3c-0.2-0.1-0.4-0.2-0.5-0.3
			c-0.2-0.1-0.3-0.3-0.4-0.5c-0.1-0.2-0.1-0.4-0.1-0.6c0-0.3,0.1-0.5,0.2-0.9c0.1-0.2,0.3-0.4,0.5-0.6c0.2-0.1,0.5-0.3,0.8-0.3
			c0.3-0.1,0.6-0.1,0.9-0.1c0.3,0,0.6,0,1,0.1c0.3,0.1,0.5,0.2,0.9,0.3c0.2,0.2,0.4,0.4,0.5,0.6c0.1,0.3,0.2,0.6,0.2,1h-1.1
			C225.3,44.4,225.2,44.1,225,43.9z"/>
	</g>
	<g>
		<path class="st0" d="M19,22.8H8.1l-1.3,3c-0.4,1-0.6,1.8-0.6,2.5c0,0.9,0.3,1.5,1.1,1.9c0.4,0.2,1.4,0.4,3,0.5v0.9H0v-0.9
			c1.1-0.2,2.1-0.6,2.7-1.4c0.8-0.8,1.6-2.3,2.6-4.6l11-24.6h0.4l11.1,25.4c1.1,2.4,1.9,3.9,2.6,4.5c0.5,0.4,1.3,0.8,2.2,0.9v0.9
			H17.8v-0.9h0.6c1.2,0,2.1-0.2,2.5-0.5c0.3-0.2,0.5-0.5,0.5-1.1c0-0.3,0-0.5-0.1-0.9c0-0.1-0.2-0.8-0.6-1.7L19,22.8z M18.3,21.1
			l-4.6-10.7L8.9,21.1H18.3z"/>
		<path class="st0" d="M46,17.5v4.8h-0.4c-0.3-1.2-0.9-2.2-1.6-2.8s-1.7-1-2.7-1c-0.9,0-1.6,0.2-2.4,0.8c-0.8,0.5-1.2,1.2-1.6,1.9
			c-0.4,1-0.6,2.2-0.6,3.3c0,1.2,0.1,2.4,0.4,3.3s0.8,1.7,1.4,2.3c0.6,0.5,1.5,0.8,2.6,0.8c0.9,0,1.6-0.2,2.4-0.5s1.5-1.1,2.3-1.9
			v1.2c-0.8,0.8-1.6,1.4-2.4,1.7c-0.8,0.3-1.8,0.5-2.9,0.5c-1.5,0-2.8-0.3-3.9-0.9c-1.2-0.5-2.1-1.4-2.6-2.5c-0.6-1.1-1-2.3-1-3.6
			s0.3-2.6,1.1-3.7c0.6-1.2,1.6-2.1,2.8-2.7s2.4-1,3.7-1c1,0,1.9,0.2,3,0.6c0.6,0.2,1,0.3,1.2,0.3c0.2,0,0.4-0.1,0.5-0.2
			c0.1-0.1,0.2-0.4,0.3-0.8H46V17.5z"/>
		<path class="st0" d="M60.6,17.5v4.8h-0.4c-0.3-1.2-0.9-2.2-1.6-2.8c-0.8-0.6-1.7-1-2.7-1c-0.9,0-1.6,0.2-2.4,0.8
			c-0.8,0.5-1.2,1.2-1.6,1.9c-0.4,1-0.6,2.2-0.6,3.3c0,1.2,0.1,2.4,0.4,3.3c0.3,1,0.8,1.7,1.4,2.3c0.6,0.5,1.5,0.8,2.6,0.8
			c0.9,0,1.6-0.2,2.4-0.5c0.8-0.3,1.5-1.1,2.3-1.9v1.2c-0.8,0.8-1.6,1.4-2.4,1.7c-0.8,0.3-1.8,0.5-2.9,0.5c-1.5,0-2.8-0.3-3.9-0.9
			c-1.2-0.5-2.1-1.4-2.6-2.5c-0.6-1.1-1-2.3-1-3.6s0.3-2.6,1.1-3.7c0.6-1.2,1.6-2.1,2.8-2.7c1.2-0.6,2.4-1,3.7-1c1,0,1.9,0.2,3,0.6
			c0.6,0.2,1,0.3,1.2,0.3s0.4-0.1,0.5-0.2c0.1-0.1,0.2-0.4,0.3-0.8h0.4V17.5z"/>
		<path class="st0" d="M69.3,17.6c2.2-0.1,4,0.5,5.3,1.9c1.4,1.4,2.1,3,2.1,5.1c0,1.7-0.5,3.2-1.5,4.6c-1.3,1.7-3.2,2.6-5.7,2.6
			c-2.5,0-4.4-0.9-5.7-2.5c-1.1-1.3-1.6-2.9-1.6-4.8c0-2.1,0.6-3.8,2.1-5.1C65.6,18.3,67.3,17.6,69.3,17.6z M69.4,18.3
			c-1.3,0-2.2,0.6-2.9,1.9c-0.5,1.1-0.8,2.6-0.8,4.5c0,2.4,0.4,4.1,1.2,5.2c0.5,0.8,1.4,1.2,2.4,1.2c0.6,0,1.3-0.2,1.7-0.5
			c0.5-0.4,1.1-1.1,1.4-2.1c0.3-1,0.5-2.2,0.5-3.7c0-1.8-0.2-3.1-0.5-4.1c-0.3-0.9-0.8-1.5-1.3-1.9C70.7,18.5,70.1,18.3,69.4,18.3z"
			/>
		<path class="st0" d="M77.5,17.8h7.1v0.3h-0.3c-0.5,0-0.9,0.1-1.1,0.2c-0.2,0.1-0.3,0.2-0.4,0.4c-0.1,0.2-0.1,0.6-0.1,1.5V27
			c0,1.2,0.1,2.1,0.3,2.5c0.2,0.4,0.5,0.8,0.9,1c0.4,0.2,1,0.4,1.6,0.4c0.8,0,1.4-0.2,1.9-0.5c0.5-0.3,0.9-0.8,1.2-1.4
			c0.2-0.5,0.4-1.6,0.4-3v-5.6c0-0.6-0.1-1.1-0.2-1.3c-0.1-0.2-0.3-0.4-0.4-0.5c-0.3-0.1-0.8-0.2-1.3-0.2v-0.3h4.8v0.3h-0.3
			c-0.4,0-0.8,0.1-1,0.2s-0.4,0.4-0.5,0.6c-0.1,0.2-0.1,0.6-0.1,1.2v5.2c0,1.6-0.1,2.8-0.3,3.5c-0.2,0.8-0.8,1.4-1.5,1.9
			c-0.9,0.6-1.9,0.9-3.3,0.9c-1.2,0-2.1-0.1-2.7-0.4c-0.9-0.4-1.5-1-1.8-1.6s-0.5-1.6-0.5-2.7v-6.7c0-0.8,0-1.3-0.1-1.5
			c-0.1-0.2-0.2-0.3-0.4-0.4c-0.2-0.1-0.6-0.2-1.2-0.1v-0.4H77.5z"/>
		<path class="st0" d="M96.7,17.8l6.8,8.5v-5.9c0-0.9-0.1-1.4-0.3-1.6c-0.3-0.4-0.9-0.5-1.6-0.5v-0.3h4.5v0.3
			c-0.5,0.1-1,0.2-1.2,0.3c-0.2,0.1-0.3,0.3-0.4,0.5c-0.1,0.2-0.2,0.8-0.2,1.4V32h-0.3l-9.3-11.5v8.8c0,0.8,0.2,1.3,0.5,1.6
			c0.3,0.3,0.8,0.4,1.2,0.4h0.3v0.3h-4.9v-0.3c0.8,0,1.3-0.1,1.6-0.4c0.3-0.3,0.4-0.9,0.4-1.5v-9.7l-0.3-0.3
			c-0.3-0.3-0.5-0.6-0.8-0.8c-0.2-0.1-0.5-0.2-1-0.2V18h4.9V17.8z"/>
		<path class="st0" d="M119.2,17.8v3.7h-0.3c-0.2-0.9-0.4-1.5-0.8-1.8c-0.2-0.3-0.6-0.6-1.1-0.9c-0.2-0.1-0.8-0.2-1.3-0.2h-1v10.6
			c0,0.6,0,1.2,0.1,1.3c0.1,0.2,0.2,0.3,0.4,0.4c0.2,0.1,0.5,0.2,1,0.2h0.4v0.3h-7.2v-0.3h0.4c0.4,0,0.8-0.1,1-0.2
			c0.2-0.1,0.3-0.2,0.4-0.4c0.1-0.2,0.1-0.5,0.1-1.3V18.7h-1c-1,0-1.6,0.2-2.1,0.5c-0.5,0.5-1,1.3-1.1,2.4h-0.4v-3.7h12.3V17.8z"/>
		<path class="st0" d="M148.9,0l0.2,10.3h-1c-0.4-2.6-1.5-4.6-3.2-6.3c-1.7-1.6-3.6-2.4-5.6-2.4c-1.5,0-2.8,0.4-3.7,1.2
			c-0.9,0.9-1.4,1.7-1.4,2.8c0,0.6,0.1,1.3,0.4,1.8c0.4,0.8,1.2,1.4,2.2,2.2c0.8,0.5,2.4,1.4,5,2.7c3.6,1.7,6.1,3.5,7.3,5.1
			s1.8,3.3,1.8,5.4c0,2.6-1,4.8-3,6.7c-2.1,1.9-4.5,2.8-7.7,2.8c-1,0-1.9-0.1-2.8-0.3c-0.9-0.2-1.9-0.5-3.2-1.1
			c-0.8-0.3-1.3-0.4-1.8-0.4c-0.4,0-0.9,0.1-1.3,0.4c-0.4,0.3-0.8,0.8-1.1,1.4h-0.9V20.6h0.9c0.6,3.2,1.9,5.8,3.9,7.6
			c1.9,1.7,4,2.6,6.2,2.6c1.7,0,3-0.4,4.1-1.4c1-1,1.5-2.1,1.5-3.2c0-0.8-0.2-1.4-0.5-2.2c-0.3-0.8-1-1.3-1.7-1.9
			c-0.8-0.6-2.2-1.4-4.2-2.4c-2.8-1.4-4.9-2.6-6.1-3.6c-1.2-1-2.2-2.1-2.8-3.2c-0.6-1.2-1-2.5-1-4c0-2.5,0.9-4.5,2.7-6.3
			s4.1-2.6,6.8-2.6c1,0,1.9,0.1,2.9,0.3c0.8,0.2,1.6,0.5,2.6,1s1.7,0.8,2.2,0.8c0.4,0,0.8-0.1,1-0.3c0.2-0.2,0.4-0.9,0.6-1.7H148.9z
			"/>
		<path class="st0" d="M157.3,18.7v5.6h0.3c0.9,0,1.5-0.3,1.9-0.9c0.4-0.5,0.6-1.4,0.8-2.4h0.4v7.2h-0.4c-0.1-0.8-0.2-1.4-0.5-1.9
			c-0.2-0.5-0.5-0.9-0.9-1c-0.3-0.2-0.9-0.2-1.5-0.2v3.9c0,0.8,0,1.2,0.1,1.4c0.1,0.2,0.2,0.3,0.3,0.4c0.2,0.1,0.4,0.1,0.9,0.1h0.9
			c1.3,0,2.3-0.3,3.1-0.9c0.8-0.5,1.3-1.5,1.6-2.7h0.3l-0.6,4.3h-11.9v-0.3h0.4c0.4,0,0.8-0.1,1-0.2c0.2-0.1,0.3-0.2,0.4-0.4
			c0.1-0.2,0.1-0.5,0.1-1.3v-9.1c0-0.6,0-1,0-1.2c-0.1-0.2-0.2-0.4-0.3-0.5c-0.2-0.2-0.6-0.3-1.1-0.3h-0.4V18h11.3v3.9h-0.4
			c-0.2-1-0.4-1.7-0.9-2.2c-0.3-0.4-0.9-0.8-1.5-1c-0.3-0.1-1.1-0.2-2.2-0.2h-1.3V18.7z"/>
		<path class="st0" d="M170.6,25.3v3.9c0,0.8,0,1.2,0.1,1.4c0.1,0.2,0.2,0.3,0.4,0.4c0.2,0.1,0.6,0.2,1.3,0.2v0.3h-7v-0.3
			c0.6,0,1.1-0.1,1.3-0.2c0.2-0.1,0.4-0.3,0.4-0.4c0.1-0.2,0.1-0.6,0.1-1.4v-8.9c0-0.8,0-1.2-0.1-1.4c-0.1-0.2-0.2-0.3-0.4-0.4
			c-0.2-0.1-0.6-0.2-1.3-0.2v-0.3h6.4c1.6,0,2.9,0.1,3.7,0.3c0.8,0.2,1.4,0.6,1.8,1.3c0.4,0.6,0.8,1.3,0.8,2.2c0,1-0.3,1.8-1.1,2.5
			c-0.4,0.4-1.1,0.8-1.9,1l3.3,4.6c0.4,0.6,0.8,1,1,1.1c0.3,0.2,0.6,0.3,1,0.3v0.3H176l-4.4-6.3H170.6z M170.6,18.6v6.1h0.5
			c1,0,1.6-0.1,2.1-0.2c0.4-0.2,0.9-0.4,1.1-1c0.2-0.4,0.4-1.1,0.4-1.7c0-1.1-0.2-1.8-0.8-2.3c-0.5-0.5-1.3-0.8-2.4-0.8h-1V18.6z"/>
		<path class="st0" d="M193.7,17.8v0.3c-0.5,0.1-1,0.3-1.3,0.8c-0.3,0.3-0.8,1.1-1.3,2.4l-4.8,10.5h-0.3l-4.8-10.9
			c-0.5-1.3-1-2.1-1.2-2.3c-0.2-0.2-0.5-0.3-1.1-0.4v-0.3h6.6v0.3h-0.2c-0.5,0-1,0.1-1.2,0.2c-0.1,0.1-0.2,0.2-0.2,0.4
			c0,0.1,0,0.2,0.1,0.4c0.1,0.2,0.2,0.6,0.5,1.3l2.9,6.8l2.7-6.1c0.3-0.8,0.5-1.2,0.6-1.5c0.1-0.2,0.1-0.4,0.1-0.6
			c0-0.2,0-0.4-0.1-0.5c-0.1-0.1-0.2-0.3-0.4-0.3c-0.3-0.1-0.6-0.2-1.2-0.2v-0.3h4.4V17.8z"/>
		<path class="st0" d="M201.1,31.2v0.3h-7.1v-0.3h0.4c0.4,0,0.8-0.1,1-0.2c0.2-0.1,0.3-0.2,0.4-0.4c0.1-0.2,0.1-0.5,0.1-1.3v-9.1
			c0-0.6,0-1.2-0.1-1.3c-0.1-0.2-0.2-0.3-0.4-0.4s-0.5-0.2-0.9-0.2h-0.4v-0.3h7.1v0.3h-0.4c-0.4,0-0.8,0.1-1,0.2
			c-0.2,0.1-0.3,0.2-0.4,0.4c-0.1,0.1-0.1,0.5-0.1,1.3v9.1c0,0.6,0,1.2,0.1,1.3c0.1,0.2,0.2,0.3,0.4,0.4c0.2,0.1,0.5,0.2,0.9,0.2
			H201.1z"/>
		<path class="st0" d="M215,17.5v4.8h-0.4c-0.3-1.2-0.9-2.2-1.6-2.8s-1.7-1-2.7-1c-0.9,0-1.6,0.2-2.4,0.8c-0.8,0.5-1.2,1.2-1.6,1.9
			c-0.4,1-0.6,2.2-0.6,3.3c0,1.2,0.1,2.4,0.4,3.3c0.3,1,0.8,1.7,1.4,2.3c0.6,0.5,1.5,0.8,2.6,0.8c0.9,0,1.6-0.2,2.4-0.5
			c0.8-0.3,1.5-1.1,2.3-1.9v1.2c-0.8,0.8-1.6,1.4-2.4,1.7c-0.9,0.3-1.8,0.5-2.9,0.5c-1.5,0-2.8-0.3-3.9-0.9
			c-1.2-0.5-2.1-1.4-2.6-2.5c-0.6-1.1-1-2.3-1-3.6s0.3-2.6,1.1-3.7c0.6-1.2,1.6-2.1,2.8-2.7c1.2-0.6,2.4-1,3.7-1c1,0,1.9,0.2,3,0.6
			c0.6,0.2,1,0.3,1.2,0.3c0.2,0,0.4-0.1,0.5-0.2c0.1-0.1,0.2-0.4,0.3-0.8h0.4V17.5z"/>
		<path class="st0" d="M221.4,18.7v5.6h0.3c0.9,0,1.5-0.3,1.9-0.9c0.4-0.5,0.6-1.4,0.8-2.4h0.4v7.2h-0.4c-0.1-0.8-0.2-1.4-0.5-1.9
			c-0.2-0.5-0.5-0.9-0.9-1c-0.3-0.2-0.9-0.2-1.5-0.2v3.9c0,0.8,0,1.2,0.1,1.4c0.1,0.2,0.2,0.3,0.3,0.4c0.2,0.1,0.4,0.1,0.9,0.1h0.9
			c1.3,0,2.3-0.3,3.1-0.9c0.8-0.5,1.3-1.5,1.6-2.7h0.3l-0.6,4.3h-11.9v-0.3h0.4c0.4,0,0.8-0.1,1-0.2c0.2-0.1,0.3-0.2,0.4-0.4
			c0.1-0.2,0.1-0.5,0.1-1.3v-9.1c0-0.6,0-1,0-1.2c-0.1-0.2-0.2-0.4-0.3-0.5c-0.2-0.2-0.6-0.3-1.1-0.3h-0.4V18h11.5v3.9h-0.4
			c-0.2-1-0.4-1.7-0.9-2.2c-0.3-0.4-0.9-0.8-1.5-1c-0.3-0.1-1.1-0.2-2.2-0.2h-1.4V18.7z"/>
		<path class="st0" d="M238.9,17.5L239,22h-0.4c-0.2-1.2-0.6-2.1-1.4-2.8c-0.8-0.6-1.6-1.1-2.5-1.1c-0.6,0-1.2,0.2-1.6,0.5
			c-0.4,0.3-0.6,0.8-0.6,1.3c0,0.3,0.1,0.5,0.2,0.8c0.2,0.3,0.5,0.6,1,1c0.3,0.2,1.1,0.6,2.2,1.2c1.6,0.8,2.7,1.5,3.2,2.3
			c0.5,0.6,0.9,1.5,0.9,2.4c0,1.2-0.4,2.2-1.3,2.9c-0.9,0.9-2.1,1.2-3.5,1.2c-0.4,0-0.9,0-1.2-0.1c-0.4-0.1-0.9-0.2-1.4-0.5
			c-0.3-0.1-0.5-0.2-0.8-0.2c-0.2,0-0.3,0.1-0.5,0.2c-0.2,0.1-0.3,0.3-0.4,0.6h-0.3v-5.2h0.3c0.3,1.4,0.9,2.6,1.7,3.3
			c0.9,0.8,1.7,1.2,2.7,1.2c0.8,0,1.4-0.2,1.8-0.6c0.4-0.4,0.6-0.9,0.6-1.4c0-0.3-0.1-0.6-0.2-1c-0.2-0.3-0.4-0.5-0.8-0.9
			c-0.3-0.3-1-0.6-1.8-1.1c-1.3-0.6-2.2-1.2-2.7-1.6s-1-0.9-1.3-1.4c-0.3-0.5-0.4-1.1-0.4-1.7c0-1.1,0.4-2.1,1.2-2.8s1.8-1.2,3-1.2
			c0.4,0,0.9,0.1,1.3,0.1c0.3,0.1,0.8,0.2,1.2,0.4c0.4,0.2,0.8,0.3,1,0.3c0.2,0,0.3,0,0.4-0.1c0.1-0.1,0.2-0.3,0.3-0.8h0V17.5z"/>
		<path class="st0" d="M247.5,17.8h7.1v0.3h-0.3c-0.5,0-0.9,0.1-1.1,0.2s-0.3,0.2-0.4,0.4c-0.1,0.2-0.1,0.6-0.1,1.5V27
			c0,1.2,0.1,2.1,0.3,2.5c0.2,0.4,0.5,0.8,0.9,1c0.4,0.2,1,0.4,1.6,0.4c0.8,0,1.4-0.2,1.9-0.5c0.5-0.3,0.9-0.8,1.2-1.4
			c0.2-0.5,0.4-1.6,0.4-3v-5.6c0-0.6-0.1-1.1-0.2-1.3c-0.1-0.2-0.3-0.4-0.4-0.5c-0.3-0.1-0.8-0.2-1.3-0.2v-0.3h4.8v0.3h-0.3
			c-0.4,0-0.8,0.1-1,0.2c-0.2,0.1-0.4,0.4-0.5,0.6c-0.1,0.2-0.1,0.6-0.1,1.2v5.2c0,1.6-0.1,2.8-0.3,3.5c-0.2,0.6-0.8,1.4-1.5,1.9
			c-0.9,0.6-1.9,0.9-3.3,0.9c-1.2,0-2.1-0.1-2.7-0.4c-0.9-0.4-1.5-1-1.8-1.6c-0.3-0.6-0.5-1.6-0.5-2.7v-6.7c0-0.8,0-1.3-0.1-1.5
			c-0.1-0.2-0.2-0.3-0.4-0.4c-0.2-0.1-0.6-0.2-1.2-0.1v-0.4H247.5z"/>
		<path class="st0" d="M271.3,17.5l0.1,4.5H271c-0.2-1.2-0.6-2.1-1.4-2.8c-0.8-0.6-1.6-1.1-2.5-1.1c-0.6,0-1.2,0.2-1.6,0.5
			c-0.4,0.3-0.6,0.8-0.6,1.3c0,0.3,0.1,0.5,0.2,0.8c0.2,0.3,0.5,0.6,1,1c0.3,0.2,1.1,0.6,2.2,1.2c1.6,0.8,2.7,1.5,3.2,2.3
			c0.5,0.6,0.9,1.5,0.9,2.4c0,1.2-0.4,2.2-1.3,2.9c-0.9,0.9-2.1,1.2-3.5,1.2c-0.4,0-0.9,0-1.2-0.1c-0.4-0.1-0.9-0.2-1.4-0.5
			c-0.3-0.1-0.5-0.2-0.8-0.2c-0.2,0-0.3,0.1-0.5,0.2c-0.2,0.1-0.3,0.3-0.4,0.6h-0.3v-5.2h0.3c0.3,1.4,0.9,2.6,1.7,3.3
			c0.9,0.8,1.7,1.2,2.7,1.2c0.8,0,1.4-0.2,1.8-0.6c0.4-0.4,0.6-0.9,0.6-1.4c0-0.3-0.1-0.6-0.2-1c-0.2-0.3-0.4-0.5-0.8-0.9
			c-0.3-0.3-1-0.6-1.8-1.1c-1.3-0.6-2.2-1.2-2.7-1.6c-0.5-0.4-1-0.9-1.3-1.4c-0.3-0.5-0.4-1.1-0.4-1.7c0-1.1,0.4-2.1,1.2-2.8
			s1.8-1.2,3-1.2c0.4,0,0.9,0.1,1.3,0.1c0.3,0.1,0.8,0.2,1.2,0.4s0.8,0.3,1,0.3c0.2,0,0.3,0,0.4-0.1s0.2-0.3,0.3-0.8h0V17.5z"/>
		<path class="st0" d="M281.4,27.7h-4.9L276,29c-0.2,0.4-0.3,0.9-0.3,1.1c0,0.4,0.1,0.6,0.4,0.9c0.2,0.1,0.6,0.2,1.3,0.2v0.3h-4.5
			v-0.3c0.5-0.1,0.9-0.3,1.2-0.6c0.3-0.3,0.8-1,1.2-2.1l4.9-10.9h0.2l5,11.2c0.4,1.1,0.9,1.7,1.2,2.1c0.2,0.2,0.5,0.3,1,0.3v0.3
			h-6.6v-0.3h0.3c0.5,0,0.9-0.1,1.1-0.2c0.1-0.1,0.2-0.2,0.2-0.4c0-0.1,0-0.2-0.1-0.3c0-0.1-0.1-0.3-0.3-0.8L281.4,27.7z M281,26.9
			l-2.1-4.8l-2.1,4.8H281z"/>
	</g>
</g>
</svg>
