<?xml version="1.0" encoding="UTF-8"?>
<svg id="Layer_1" data-name="Layer 1" xmlns="http://www.w3.org/2000/svg" version="1.1" viewBox="0 0 123.2 38">
  <defs>
    <style>
      .cls-1 {
        fill: #10416a;
      }

      .cls-1, .cls-2 {
        stroke-width: 0px;
      }

      .cls-2 {
        fill: #ffc52b;
      }
    </style>
  </defs>
  <path class="cls-2" d="M20.6,17.7l1-1.4c2-2.7,5.7-4.4,8.1-5.2L27.7.7c0,0,0-.1-.2-.2,0,0-.2,0-.2,0l-9.7,13.8H.2c0,0-.2,0-.2.1,0,0,0,.2,0,.2l9.2,7.1c3.8-2.1,7.6-3.4,11.3-4Z"/>
  <path class="cls-2" d="M22.7,27h0s0,0,0,0Z"/>
  <path class="cls-2" d="M17.4,31.3l3.9-5.4.9-1.2c-1.1-1-1.7-2.3-1.9-3.6-5.4,2.3-11.5,6.7-18.1,14.8l-.9,1.3c0,0,0,.2,0,.2,0,0,0,0,.2,0s0,0,0,0c0,0,0,0,0,0,1.7-.8,8.9-4.5,15.3-5.4l.6-.8Z"/>
  <path class="cls-2" d="M31.6,17c4.6.3,7.6,1.6,8.7,2.1l3.5-5.3c-2.3-1.5-6.7-1.7-6.7-1.7l1.1-3.1h-5.7l-.9,3.3c-1.6.2-6.6,2.1-8.7,5,2.2-.3,4.2-.4,6.1-.4s1.7,0,2.6,0h0Z"/>
  <path class="cls-2" d="M37.3,20c-1-.4-2.5-.7-4-.9-3.2-.3-7-.2-11.3,1.4.1,3.3,4,5,7,5.2,3.4.3,5.4.5,5.1,1.7-.2.7-.6,1.5-4.1,1.5s-7.2-1.9-7.2-1.9l-3.9,5.4c3.1,1.8,8,2.1,8,2.1l-.8,3h5.7l.6-2.9c7.7-1,9.8-5.2,10.4-6.9.4-1.3,1.2-5.1-5.3-7.6Z"/>
  <path class="cls-1" d="M51.1,16.1l-.8,2.2h-3.4l5.4-12.6h3l5.4,12.6h-3.3l-.9-2.2h-5.4ZM53.7,9.2l-1.6,4.2h3.3l-1.6-4.2Z"/>
  <path class="cls-1" d="M70.5,18.2h-3v-.5c-.7.4-1.5.7-2.5.7-2.4,0-4.5-2-4.5-4.7s2.1-4.6,4.5-4.6,1.8.3,2.5.7v-4.7h3v13.1h0ZM67.4,15.2v-2.8c-.6-.6-1.2-.8-1.9-.8-1.2,0-2.1,1-2.1,2.2s.9,2.2,2.1,2.2,1.3-.2,1.9-.8h0Z"/>
  <path class="cls-1" d="M78,18.2h-2.9l-3.9-8.9h3.2l2.2,5.2,2.2-5.2h3.2l-3.9,8.9Z"/>
  <path class="cls-1" d="M91.5,18.2h-3v-.5c-.7.4-1.5.7-2.5.7-2.4,0-4.5-2-4.5-4.7s2.1-4.7,4.5-4.7,1.8.3,2.5.7v-.5h3v8.9h0ZM88.5,15.1v-2.8c-.6-.6-1.2-.8-1.9-.8-1.2,0-2.1,1-2.1,2.2s.9,2.2,2.1,2.2,1.3-.2,1.9-.8h0Z"/>
  <path class="cls-1" d="M102.3,13.1v5.1h-3v-4.6c0-1.3-.7-1.9-1.6-1.9s-1.2.3-1.7.9v5.6h-3v-8.9h3v.6c.7-.6,1.5-.9,2.5-.9,2.3,0,3.9,1.6,3.9,4.1h0Z"/>
  <path class="cls-1" d="M110,14.6h2.9c-.2,2.3-2.1,3.9-4.6,3.9s-5-2-5-4.7,2.1-4.7,5-4.7,4.4,1.6,4.6,3.9h-2.9c-.1-.8-.8-1.3-1.8-1.3s-2.1.9-2.1,2.1.8,2.2,2.1,2.2,1.6-.5,1.8-1.3h0Z"/>
  <path class="cls-1" d="M123.1,14.6h0c0,0-6.5,0-6.5,0,.2.8.9,1.4,2,1.4s1.1-.2,1.4-.6h3c-.4,1.8-2.2,3-4.4,3s-4.9-2-4.9-4.7,1.9-4.7,4.8-4.7,4.6,1.8,4.6,4.5,0,.7,0,1h0ZM116.6,12.9h3.7c-.2-1-.8-1.5-1.8-1.5s-1.7.6-1.9,1.5Z"/>
  <path class="cls-1" d="M51.1,30.5l-.8,2.2h-3.4l5.4-12.6h3l5.4,12.6h-3.3l-.9-2.2h-5.4ZM53.7,23.7l-1.6,4.2h3.3l-1.6-4.2Z"/>
  <path class="cls-1" d="M76.6,27.6v5.1h-3v-4.6c0-1.3-.6-1.9-1.6-1.9s-.9.2-1.4.7c0,.2,0,.4,0,.7v5.1h-3v-4.6c0-1.3-.6-1.9-1.6-1.9s-.9.2-1.4.8v5.7h-3v-8.9h3v.5c.6-.5,1.3-.8,2.3-.8s2.1.4,2.8,1.2c1-.8,1.9-1.2,3.2-1.2,2.2,0,3.8,1.6,3.8,4.1Z"/>
  <path class="cls-1" d="M87.2,29h0c0,0-6.5,0-6.5,0,.2.8.9,1.4,2,1.4s1.1-.2,1.4-.6h3c-.4,1.8-2.2,3-4.4,3s-5-2-5-4.7,1.9-4.7,4.8-4.7,4.6,1.8,4.6,4.5,0,.7,0,1h0ZM80.7,27.3h3.7c-.2-1-.8-1.5-1.8-1.5s-1.7.6-1.9,1.5Z"/>
  <path class="cls-1" d="M94.6,26.4c-1.5,0-2.4.4-3.1,1.1v5.1h-3v-8.9h3v1c.8-.7,1.8-1.1,3.1-1.1v2.8h0Z"/>
  <path class="cls-1" d="M99.1,32.7h-3v-8.9h3v8.9Z"/>
  <path class="cls-1" d="M106.8,29h2.9c-.2,2.3-2.1,3.9-4.6,3.9s-5-2-5-4.7,2.1-4.7,5-4.7,4.4,1.6,4.6,3.9h-2.9c-.2-.8-.8-1.3-1.8-1.3s-2.1.9-2.1,2.1.8,2.2,2.1,2.2,1.6-.5,1.8-1.3h0Z"/>
  <path class="cls-1" d="M120.5,32.7h-3v-.5c-.7.4-1.5.7-2.5.7-2.4,0-4.5-2-4.5-4.7s2.1-4.7,4.5-4.7,1.8.3,2.5.7v-.5h3v8.9h0ZM117.5,29.6v-2.8c-.6-.6-1.2-.8-1.9-.8-1.2,0-2.1,1-2.1,2.2s.9,2.2,2.1,2.2,1.3-.2,1.9-.8h0Z"/>
  <path class="cls-1" d="M121.3,31.9c0-.5.4-.8.8-.8s.8.4.8.8-.4.8-.8.8-.8-.4-.8-.8ZM122.8,31.9c0-.4-.3-.6-.6-.6s-.6.3-.6.6.3.6.6.6.6-.3.6-.6ZM122.6,32.3h-.2l-.2-.4h-.1v.4h-.2v-.9h.4c.2,0,.3,0,.3.3s0,.2-.2.2l.2.4h0ZM122.2,31.8c0,0,.2,0,.2-.1s-.1,0-.2,0h-.2v.2h.2Z"/>
  <path class="cls-1" d="M95.8,20.8c0-.9.7-1.6,1.7-1.6s1.7.7,1.7,1.6-.8,1.6-1.7,1.6-1.7-.7-1.7-1.6Z"/>
  <path class="cls-2" d="M40,36.5c0-.5.5-.9,1.1-.9s1.1.4,1.1.9-.5.9-1.1.9-1.1-.4-1.1-.9ZM41.9,36.5c0-.4-.4-.7-.8-.7s-.8.3-.8.7.4.7.8.7.8-.3.8-.7ZM41.6,37h-.3l-.3-.4h-.2v.4h-.3v-.9h.6c.3,0,.4,0,.4.3s-.1.2-.3.3l.3.4h0ZM41.2,36.5c.1,0,.2,0,.2-.1s-.1,0-.3,0h-.3v.2h.3Z"/>
</svg>