<svg version="1.1" id="Layer_1" xmlns="http://www.w3.org/2000/svg" xmlns:xlink="http://www.w3.org/1999/xlink" x="0" y="0" viewBox="0 0 204 48" xml:space="preserve"><path d="M72.6 1.7h3.9v15.6h8.6v3.4H72.6v-19zm15.1 0h12.6v3.4h-8.7v4.4h7.6v3.4h-7.6v4.4h9v3.4h-13v-19zm14.9 9.5c0-5.6 4-9.7 9.7-9.7 3.1 0 5.3.8 6.9 2.6l-2.7 2.6c-.9-1-2-1.7-4.2-1.7-3.4 0-5.7 2.7-5.7 6.2s2.3 6.3 6.3 6.3c1.2 0 2.7-.2 3.7-.7v-3.1H112v-3.4h8.2v8.5c-1.1.9-3.8 2.2-7.3 2.2-6.1 0-10.3-4.2-10.3-9.8zm27.2-9.6h.3l8.7 19.2h-4.1l-1.1-2.6h-7.4l-1.1 2.6h-3.8l8.5-19.2zm2.4 13.3L131 12c-.5-1.3-1.1-3.2-1.1-3.4 0 .1-.6 2.1-1.1 3.4l-1.2 2.9h4.6zm8.6-13.2h3.9v15.6h8.6v3.4h-12.5v-19zm27.7-.1h.3l8.7 19.2h-4.1l-1.1-2.6h-7.4l-1.1 2.6H160l8.5-19.2zm2.4 13.3l-1.2-2.9c-.5-1.3-1.1-3.2-1.1-3.4 0 .1-.6 2.1-1.1 3.4l-1.2 2.9h4.6zm8.7-13.2h3.9v19h-3.9v-19zm7.3 0h5.8c5.8 0 10 3.9 10 9.5s-4.1 9.5-10 9.5h-5.8v-19zm5.7 15.6c4.2 0 6.1-2.5 6.1-6.1 0-3.5-1.9-6.1-6.1-6.1h-1.7v12.1h1.7zM71.8 39.2c0-4.7 3.6-8 8-8 2.8 0 4.9 1 6.2 3l-1.3.9c-1-1.5-2.7-2.5-5-2.5-3.7 0-6.3 2.8-6.3 6.5s2.6 6.5 6.3 6.5c2.3 0 4-1 5.2-2.6l1.3.9c-1.4 2-3.6 3.2-6.5 3.2-4.3.1-7.9-3.2-7.9-7.9zm22.4-7.8h1.7v7.3h8.4v-7.3h1.7v15.7h-1.7v-6.9h-8.4v6.9h-1.7V31.4zm20.8 0h1.7v15.7H115V31.4zm9.9 7.8c0-4.7 3.6-8 8-8 2.8 0 4.9 1 6.2 3l-1.3.9c-1-1.5-2.7-2.5-5-2.5-3.7 0-6.3 2.8-6.3 6.5s2.6 6.5 6.3 6.5c2.3 0 4-1 5.2-2.6l1.3.9c-1.4 2-3.6 3.2-6.5 3.2-4.3.1-7.9-3.2-7.9-7.9zm27.3-8h.3l6.6 15.8h-1.8l-1.4-3.5h-7.2l-1.4 3.5h-1.6l6.5-15.8zm3.1 10.9l-2.4-6c-.3-.7-.6-1.8-.6-1.9 0 0-.3 1.1-.6 1.8l-2.4 6h6zm9.6-2.9c0-4.7 3.5-8 8.1-8 2.3 0 4.2.6 5.5 2l-1.1 1.1c-1-1.1-2.4-1.7-4.3-1.7-3.7 0-6.3 2.8-6.3 6.5s2.7 6.5 6.5 6.5c2.1 0 3.7-.6 4.6-1.4V41h-4.7v-1.5h6.2V45c-1.2 1.1-3.2 2.2-6.2 2.2-4.8 0-8.3-3.3-8.3-8zm21.9 0c0-4.7 3.6-8 8-8 4.5 0 8.1 3.3 8.1 8s-3.6 8-8.1 8c-4.4 0-8-3.3-8-8zm14.3 0c0-3.7-2.7-6.5-6.3-6.5-3.6 0-6.3 2.8-6.3 6.5s2.7 6.5 6.3 6.5c3.7 0 6.3-2.7 6.3-6.5z" fill="#fff"/><path d="M60.2 20.7h-59v-19h59v19zm0 7.4h-59v19h59v-19z" fill="#99e6d8"/><defs><path id="SVGID_1_" d="M60.2 20.7h-59v-19h59v19zm0 7.4h-59v19h59v-19z"/></defs><clipPath id="SVGID_2_"><use xlink:href="#SVGID_1_" overflow="visible"/></clipPath><path clip-path="url(#SVGID_2_)" fill="#fe3b1f" d="M34.4 31.4l12.7 3.3-9-10.3 9-10.3-12.7 3.3-3.7-13.6L27 17.4l-12.8-3.3 9.1 10.3-9.1 10.3L27 31.4 30.7 45z"/></svg>