<?xml version="1.0" encoding="UTF-8"?>
<svg width="450px" height="130px" viewBox="0 0 450 130" version="1.1" xmlns="http://www.w3.org/2000/svg" xmlns:xlink="http://www.w3.org/1999/xlink">
    <title>ah-logo-v1 2</title>
    <g id="ah-logo-v1" stroke="none" stroke-width="1" fill="none" fill-rule="evenodd">
        <rect id="Rectangle" stroke="#EEEEEE" x="-82.5" y="-134.5" width="599" height="399"></rect>
        <g transform="translate(0.000000, 0.000000)" fill-rule="nonzero">
            <g id="ah-icon" transform="translate(0.000000, -0.000000)" fill="#2E3E48">
                <polygon id="Path_74" points="112.748 32.017 56.374 -7.10542736e-15 2.13162821e-14 32.017 2.13162821e-14 35.917 13.463 35.917 13.463 108.794 27.819 108.794 27.819 32.017 56.374 16.585 84.053 32.017 84.053 108.794 99.285 108.794 99.285 35.917 112.748 35.917"></polygon>
            </g>
            <g id="Affordable-Housing.c" transform="translate(116.799000, 28.313000)">
                <path d="M7.92,34.364 L9.856,28.688 L21.516,28.688 L23.452,34.364 L31.46,34.364 L20.064,3.476 L11.396,3.476 L-1.42108547e-14,34.364 L7.92,34.364 Z M19.58,22.968 L11.792,22.968 L15.708,11.528 L19.58,22.968 Z M42.812,34.364 L42.812,16.148 L47.256,16.148 L47.256,9.812 L42.812,9.812 C42.8706667,8.63866667 43.1786667,7.788 43.736,7.26 C44.2933333,6.732 45.188,6.468 46.42,6.468 L46.42,6.468 L47.256,6.512 L47.256,0.044 C46.904,0.0146666667 46.376,-1.0658141e-14 45.672,-1.0658141e-14 C42.2986667,-1.0658141e-14 39.7246667,0.828666667 37.95,2.486 C36.1753333,4.14333333 35.288,6.49733333 35.288,9.548 L35.288,9.548 L35.288,9.812 L32.34,9.812 L32.34,16.148 L35.288,16.148 L35.288,34.364 L42.812,34.364 Z M59.004,34.364 L59.004,16.148 L63.448,16.148 L63.448,9.812 L59.004,9.812 C59.0626667,8.63866667 59.3706667,7.788 59.928,7.26 C60.4853333,6.732 61.38,6.468 62.612,6.468 L62.612,6.468 L63.448,6.512 L63.448,0.044 C63.096,0.0146666667 62.568,-1.0658141e-14 61.864,-1.0658141e-14 C58.4906667,-1.0658141e-14 55.9166667,0.828666667 54.142,2.486 C52.3673333,4.14333333 51.48,6.49733333 51.48,9.548 L51.48,9.548 L51.48,9.812 L48.532,9.812 L48.532,16.148 L51.48,16.148 L51.48,34.364 L59.004,34.364 Z M78.232,34.672 C80.6666667,34.672 82.8446667,34.166 84.766,33.154 C86.6873333,32.142 88.198,30.6826667 89.298,28.776 C90.398,26.8693333 90.948,24.64 90.948,22.088 C90.948,19.536 90.398,17.3066667 89.298,15.4 C88.198,13.4933333 86.6873333,12.034 84.766,11.022 C82.8446667,10.01 80.6666667,9.504 78.232,9.504 C75.7973333,9.504 73.612,10.01 71.676,11.022 C69.74,12.034 68.222,13.4933333 67.122,15.4 C66.022,17.3066667 65.472,19.536 65.472,22.088 C65.472,24.64 66.022,26.8693333 67.122,28.776 C68.222,30.6826667 69.74,32.142 71.676,33.154 C73.612,34.166 75.7973333,34.672 78.232,34.672 Z M78.232,28.116 C76.7946667,28.116 75.5846667,27.6026667 74.602,26.576 C73.6193333,25.5493333 73.128,24.0533333 73.128,22.088 C73.128,20.1226667 73.6193333,18.6193333 74.602,17.578 C75.5846667,16.5366667 76.7946667,16.016 78.232,16.016 C79.6693333,16.016 80.872,16.5366667 81.84,17.578 C82.808,18.6193333 83.292,20.1226667 83.292,22.088 C83.292,24.0533333 82.808,25.5493333 81.84,26.576 C80.872,27.6026667 79.6693333,28.116 78.232,28.116 Z M102.388,34.364 L102.388,23.188 C102.388,21.164 102.938,19.7266667 104.038,18.876 C105.138,18.0253333 106.685333,17.6 108.68,17.6 L108.68,17.6 L110.836,17.6 L110.836,9.548 C109.105333,9.548 107.499333,9.988 106.018,10.868 C104.536667,11.748 103.326667,12.936 102.388,14.432 L102.388,14.432 L102.388,9.812 L94.864,9.812 L94.864,34.364 L102.388,34.364 Z M123.332,34.672 C125.209333,34.672 126.822667,34.2466667 128.172,33.396 C129.521333,32.5453333 130.504,31.3866667 131.12,29.92 L131.12,29.92 L131.12,34.364 L138.644,34.364 L138.644,1.804 L131.12,1.804 L131.12,14.256 C130.504,12.7893333 129.521333,11.6306667 128.172,10.78 C126.822667,9.92933333 125.209333,9.504 123.332,9.504 C121.308,9.504 119.496667,10.01 117.898,11.022 C116.299333,12.034 115.038,13.486 114.114,15.378 C113.19,17.27 112.728,19.5066667 112.728,22.088 C112.728,24.64 113.19,26.8693333 114.114,28.776 C115.038,30.6826667 116.299333,32.142 117.898,33.154 C119.496667,34.166 121.308,34.672 123.332,34.672 Z M125.752,28.072 C124.138667,28.072 122.840667,27.544 121.858,26.488 C120.875333,25.432 120.384,23.9653333 120.384,22.088 C120.384,20.2106667 120.875333,18.744 121.858,17.688 C122.840667,16.632 124.138667,16.104 125.752,16.104 C127.336,16.104 128.634,16.6393333 129.646,17.71 C130.658,18.7806667 131.164,20.24 131.164,22.088 C131.164,23.9066667 130.658,25.3586667 129.646,26.444 C128.634,27.5293333 127.336,28.072 125.752,28.072 Z M153.164,34.672 C155.041333,34.672 156.654667,34.2466667 158.004,33.396 C159.353333,32.5453333 160.350667,31.3866667 160.996,29.92 L160.996,29.92 L160.996,34.364 L168.476,34.364 L168.476,9.812 L160.996,9.812 L160.996,14.256 C160.350667,12.7893333 159.353333,11.6306667 158.004,10.78 C156.654667,9.92933333 155.041333,9.504 153.164,9.504 C151.14,9.504 149.328667,10.01 147.73,11.022 C146.131333,12.034 144.87,13.486 143.946,15.378 C143.022,17.27 142.56,19.5066667 142.56,22.088 C142.56,24.64 143.022,26.8693333 143.946,28.776 C144.87,30.6826667 146.131333,32.142 147.73,33.154 C149.328667,34.166 151.14,34.672 153.164,34.672 Z M155.584,28.072 C153.970667,28.072 152.672667,27.544 151.69,26.488 C150.707333,25.432 150.216,23.9653333 150.216,22.088 C150.216,20.2106667 150.707333,18.744 151.69,17.688 C152.672667,16.632 153.970667,16.104 155.584,16.104 C157.168,16.104 158.466,16.6393333 159.478,17.71 C160.49,18.7806667 160.996,20.24 160.996,22.088 C160.996,23.9066667 160.49,25.3586667 159.478,26.444 C158.466,27.5293333 157.168,28.072 155.584,28.072 Z M188.98,34.672 C191.004,34.672 192.815333,34.166 194.414,33.154 C196.012667,32.142 197.274,30.6826667 198.198,28.776 C199.122,26.8693333 199.584,24.64 199.584,22.088 C199.584,19.5066667 199.122,17.27 198.198,15.378 C197.274,13.486 196.012667,12.034 194.414,11.022 C192.815333,10.01 191.004,9.504 188.98,9.504 C187.102667,9.504 185.489333,9.92933333 184.14,10.78 C182.790667,11.6306667 181.808,12.7893333 181.192,14.256 L181.192,14.256 L181.192,1.804 L173.668,1.804 L173.668,34.364 L181.192,34.364 L181.192,29.92 C181.808,31.3866667 182.790667,32.5453333 184.14,33.396 C185.489333,34.2466667 187.102667,34.672 188.98,34.672 Z M186.56,28.072 C184.976,28.072 183.678,27.5293333 182.666,26.444 C181.654,25.3586667 181.148,23.9066667 181.148,22.088 C181.148,20.24 181.654,18.7806667 182.666,17.71 C183.678,16.6393333 184.976,16.104 186.56,16.104 C188.173333,16.104 189.471333,16.632 190.454,17.688 C191.436667,18.744 191.928,20.2106667 191.928,22.088 C191.928,23.9653333 191.436667,25.432 190.454,26.488 C189.471333,27.544 188.173333,28.072 186.56,28.072 Z M211.024,34.364 L211.024,1.804 L203.5,1.804 L203.5,34.364 L211.024,34.364 Z M227.304,34.672 C229.357333,34.672 231.22,34.2833333 232.892,33.506 C234.564,32.7286667 235.942667,31.658 237.028,30.294 C238.113333,28.93 238.817333,27.3826667 239.14,25.652 L239.14,25.652 L231.176,25.652 C230.941333,26.532 230.457333,27.2506667 229.724,27.808 C228.990667,28.3653333 228.066667,28.644 226.952,28.644 C225.632,28.644 224.546667,28.2406667 223.696,27.434 C222.845333,26.6273333 222.376,25.3 222.288,23.452 L222.288,23.452 L239.316,23.452 C239.462667,22.7186667 239.536,22.044 239.536,21.428 C239.536,19.0813333 239.03,17.006 238.018,15.202 C237.006,13.398 235.576,11.9973333 233.728,11 C231.88,10.0026667 229.738667,9.504 227.304,9.504 C224.898667,9.504 222.757333,10.01 220.88,11.022 C219.002667,12.034 217.543333,13.486 216.502,15.378 C215.460667,17.27 214.94,19.5066667 214.94,22.088 C214.94,24.64 215.468,26.8693333 216.524,28.776 C217.58,30.6826667 219.039333,32.142 220.902,33.154 C222.764667,34.166 224.898667,34.672 227.304,34.672 Z M231.924,20.284 L222.332,20.284 C222.449333,18.7 222.962667,17.4973333 223.872,16.676 C224.781333,15.8546667 225.925333,15.444 227.304,15.444 C228.624,15.444 229.731333,15.8473333 230.626,16.654 C231.520667,17.4606667 231.953333,18.6706667 231.924,20.284 L231.924,20.284 Z" id="Affordable" fill="#00A1DF"></path>
                <path d="M9.768,72.364 L9.768,59.384 L21.56,59.384 L21.56,72.364 L29.128,72.364 L29.128,41.256 L21.56,41.256 L21.56,53.312 L9.768,53.312 L9.768,41.256 L2.244,41.256 L2.244,72.364 L9.768,72.364 Z M45.804,72.672 C48.2386667,72.672 50.4166667,72.166 52.338,71.154 C54.2593333,70.142 55.77,68.6826667 56.87,66.776 C57.97,64.8693333 58.52,62.64 58.52,60.088 C58.52,57.536 57.97,55.3066667 56.87,53.4 C55.77,51.4933333 54.2593333,50.034 52.338,49.022 C50.4166667,48.01 48.2386667,47.504 45.804,47.504 C43.3693333,47.504 41.184,48.01 39.248,49.022 C37.312,50.034 35.794,51.4933333 34.694,53.4 C33.594,55.3066667 33.044,57.536 33.044,60.088 C33.044,62.64 33.594,64.8693333 34.694,66.776 C35.794,68.6826667 37.312,70.142 39.248,71.154 C41.184,72.166 43.3693333,72.672 45.804,72.672 Z M45.804,66.116 C44.3666667,66.116 43.1566667,65.6026667 42.174,64.576 C41.1913333,63.5493333 40.7,62.0533333 40.7,60.088 C40.7,58.1226667 41.1913333,56.6193333 42.174,55.578 C43.1566667,54.5366667 44.3666667,54.016 45.804,54.016 C47.2413333,54.016 48.444,54.5366667 49.412,55.578 C50.38,56.6193333 50.864,58.1226667 50.864,60.088 C50.864,62.0533333 50.38,63.5493333 49.412,64.576 C48.444,65.6026667 47.2413333,66.116 45.804,66.116 Z M71.28,72.628 C73.128,72.628 74.7486667,72.2026667 76.142,71.352 C77.5353333,70.5013333 78.584,69.3573333 79.288,67.92 L79.288,67.92 L79.288,72.364 L86.856,72.364 L86.856,47.812 L79.288,47.812 L79.288,60.836 C79.288,62.6253333 78.848,64.004 77.968,64.972 C77.088,65.94 75.8853333,66.424 74.36,66.424 C72.8933333,66.424 71.7273333,65.962 70.862,65.038 C69.9966667,64.114 69.564,62.816 69.564,61.144 L69.564,61.144 L69.564,47.812 L62.084,47.812 L62.084,62.068 C62.084,65.3533333 62.9126667,67.9346667 64.57,69.812 C66.2273333,71.6893333 68.464,72.628 71.28,72.628 Z M102.74,72.672 C104.705333,72.672 106.406667,72.364 107.844,71.748 C109.281333,71.132 110.381333,70.2813333 111.144,69.196 C111.906667,68.1106667 112.288,66.864 112.288,65.456 C112.288,63.7253333 111.848,62.3466667 110.968,61.32 C110.088,60.2933333 109.046667,59.5526667 107.844,59.098 C106.641333,58.6433333 105.101333,58.196 103.224,57.756 C101.493333,57.3746667 100.224667,56.9933333 99.418,56.612 C98.6113333,56.2306667 98.208,55.6586667 98.208,54.896 C98.208,54.2213333 98.428,53.7006667 98.868,53.334 C99.308,52.9673333 99.9533333,52.784 100.804,52.784 C101.889333,52.784 102.791333,53.07 103.51,53.642 C104.228667,54.214 104.690667,54.9986667 104.896,55.996 L104.896,55.996 L111.936,55.996 C111.466667,53.444 110.300667,51.3906667 108.438,49.836 C106.575333,48.2813333 104.089333,47.504 100.98,47.504 C97.9293333,47.504 95.568,48.186 93.896,49.55 C92.224,50.914 91.388,52.696 91.388,54.896 C91.388,56.5973333 91.8133333,57.9393333 92.664,58.922 C93.5146667,59.9046667 94.5266667,60.616 95.7,61.056 C96.8733333,61.496 98.3693333,61.9066667 100.188,62.288 C102.006667,62.6986667 103.319333,63.0873333 104.126,63.454 C104.932667,63.8206667 105.336,64.4293333 105.336,65.28 C105.336,65.9253333 105.116,66.446 104.676,66.842 C104.236,67.238 103.590667,67.436 102.74,67.436 C101.508,67.436 100.503333,67.1573333 99.726,66.6 C98.9486667,66.0426667 98.5013333,65.236 98.384,64.18 L98.384,64.18 L91.124,64.18 C91.564,66.908 92.7813333,69.0053333 94.776,70.472 C96.7706667,71.9386667 99.4253333,72.672 102.74,72.672 Z M120.252,44.82 C121.601333,44.82 122.686667,44.446 123.508,43.698 C124.329333,42.95 124.74,42.0186667 124.74,40.904 C124.74,39.76 124.329333,38.814 123.508,38.066 C122.686667,37.318 121.601333,36.944 120.252,36.944 C118.902667,36.944 117.817333,37.318 116.996,38.066 C116.174667,38.814 115.764,39.76 115.764,40.904 C115.764,42.0186667 116.174667,42.95 116.996,43.698 C117.817333,44.446 118.902667,44.82 120.252,44.82 Z M123.992,72.364 L123.992,47.812 L116.468,47.812 L116.468,72.364 L123.992,72.364 Z M136.708,72.364 L136.708,59.34 C136.708,57.5506667 137.155333,56.172 138.05,55.204 C138.944667,54.236 140.154667,53.752 141.68,53.752 C143.117333,53.752 144.268667,54.214 145.134,55.138 C145.999333,56.062 146.432,57.3453333 146.432,58.988 L146.432,58.988 L146.432,72.364 L153.956,72.364 L153.956,58.108 C153.956,54.8226667 153.127333,52.2413333 151.47,50.364 C149.812667,48.4866667 147.576,47.548 144.76,47.548 C142.882667,47.548 141.247333,47.9733333 139.854,48.824 C138.460667,49.6746667 137.412,50.8333333 136.708,52.3 L136.708,52.3 L136.708,47.812 L129.184,47.812 L129.184,72.364 L136.708,72.364 Z M171.424,84.42 C174.122667,84.42 176.381333,83.8773333 178.2,82.792 C180.018667,81.7066667 181.368,80.2473333 182.248,78.414 C183.128,76.5806667 183.568,74.52 183.568,72.232 L183.568,72.232 L183.568,47.812 L176.088,47.812 L176.088,52.256 C175.442667,50.7893333 174.445333,49.6306667 173.096,48.78 C171.746667,47.9293333 170.133333,47.504 168.256,47.504 C166.232,47.504 164.420667,48.01 162.822,49.022 C161.223333,50.034 159.962,51.486 159.038,53.378 C158.114,55.27 157.652,57.5066667 157.652,60.088 C157.652,62.64 158.114,64.8693333 159.038,66.776 C159.962,68.6826667 161.223333,70.142 162.822,71.154 C164.420667,72.166 166.232,72.672 168.256,72.672 C170.133333,72.672 171.746667,72.2466667 173.096,71.396 C174.445333,70.5453333 175.442667,69.3866667 176.088,67.92 L176.088,67.92 L176.088,72.232 C176.088,74.1973333 175.611333,75.6273333 174.658,76.522 C173.704667,77.4166667 172.450667,77.864 170.896,77.864 C169.546667,77.864 168.454,77.5853333 167.618,77.028 C166.782,76.4706667 166.246667,75.6933333 166.012,74.696 L166.012,74.696 L158.576,74.696 C159.016,77.688 160.343333,80.0566667 162.558,81.802 C164.772667,83.5473333 167.728,84.42 171.424,84.42 Z M170.676,66.072 C169.062667,66.072 167.764667,65.544 166.782,64.488 C165.799333,63.432 165.308,61.9653333 165.308,60.088 C165.308,58.2106667 165.799333,56.744 166.782,55.688 C167.764667,54.632 169.062667,54.104 170.676,54.104 C172.26,54.104 173.558,54.6393333 174.57,55.71 C175.582,56.7806667 176.088,58.24 176.088,60.088 C176.088,61.9066667 175.582,63.3586667 174.57,64.444 C173.558,65.5293333 172.26,66.072 170.676,66.072 Z M195.228,72.364 L195.228,64.84 L187.44,64.84 L187.44,72.364 L195.228,72.364 Z M210.232,72.672 C213.4,72.672 216.054667,71.7993333 218.196,70.054 C220.337333,68.3086667 221.686667,65.9106667 222.244,62.86 L222.244,62.86 L214.28,62.86 C214.045333,63.916 213.561333,64.7373333 212.828,65.324 C212.094667,65.9106667 211.170667,66.204 210.056,66.204 C208.736,66.204 207.650667,65.6833333 206.8,64.642 C205.949333,63.6006667 205.524,62.0826667 205.524,60.088 C205.524,58.0933333 205.949333,56.5753333 206.8,55.534 C207.650667,54.4926667 208.736,53.972 210.056,53.972 C211.170667,53.972 212.094667,54.2653333 212.828,54.852 C213.561333,55.4386667 214.045333,56.26 214.28,57.316 L214.28,57.316 L222.244,57.316 C221.686667,54.2653333 220.337333,51.8673333 218.196,50.122 C216.054667,48.3766667 213.4,47.504 210.232,47.504 C207.826667,47.504 205.685333,48.01 203.808,49.022 C201.930667,50.034 200.471333,51.486 199.43,53.378 C198.388667,55.27 197.868,57.5066667 197.868,60.088 C197.868,62.64 198.396,64.8693333 199.452,66.776 C200.508,68.6826667 201.967333,70.142 203.83,71.154 C205.692667,72.166 207.826667,72.672 210.232,72.672 Z M237.644,72.672 C240.078667,72.672 242.256667,72.166 244.178,71.154 C246.099333,70.142 247.61,68.6826667 248.71,66.776 C249.81,64.8693333 250.36,62.64 250.36,60.088 C250.36,57.536 249.81,55.3066667 248.71,53.4 C247.61,51.4933333 246.099333,50.034 244.178,49.022 C242.256667,48.01 240.078667,47.504 237.644,47.504 C235.209333,47.504 233.024,48.01 231.088,49.022 C229.152,50.034 227.634,51.4933333 226.534,53.4 C225.434,55.3066667 224.884,57.536 224.884,60.088 C224.884,62.64 225.434,64.8693333 226.534,66.776 C227.634,68.6826667 229.152,70.142 231.088,71.154 C233.024,72.166 235.209333,72.672 237.644,72.672 Z M237.644,66.116 C236.206667,66.116 234.996667,65.6026667 234.014,64.576 C233.031333,63.5493333 232.54,62.0533333 232.54,60.088 C232.54,58.1226667 233.031333,56.6193333 234.014,55.578 C234.996667,54.5366667 236.206667,54.016 237.644,54.016 C239.081333,54.016 240.284,54.5366667 241.252,55.578 C242.22,56.6193333 242.704,58.1226667 242.704,60.088 C242.704,62.0533333 242.22,63.5493333 241.252,64.576 C240.284,65.6026667 239.081333,66.116 237.644,66.116 Z M261.8,72.364 L261.8,59.34 C261.8,57.6386667 262.24,56.3333333 263.12,55.424 C264,54.5146667 265.188,54.06 266.684,54.06 C268.121333,54.06 269.250667,54.4926667 270.072,55.358 C270.893333,56.2233333 271.304,57.4333333 271.304,58.988 L271.304,58.988 L271.304,72.364 L278.828,72.364 L278.828,59.34 C278.828,57.668 279.260667,56.37 280.126,55.446 C280.991333,54.522 282.172,54.06 283.668,54.06 C285.105333,54.06 286.242,54.4926667 287.078,55.358 C287.914,56.2233333 288.332,57.4333333 288.332,58.988 L288.332,58.988 L288.332,72.364 L295.812,72.364 L295.812,58.108 C295.812,54.7933333 294.946667,52.2046667 293.216,50.342 C291.485333,48.4793333 289.109333,47.548 286.088,47.548 C284.298667,47.548 282.663333,48.0026667 281.182,48.912 C279.700667,49.8213333 278.534667,51.0386667 277.684,52.564 C276.950667,50.9506667 275.865333,49.7113333 274.428,48.846 C272.990667,47.9806667 271.333333,47.548 269.456,47.548 C267.666667,47.548 266.104667,47.944 264.77,48.736 C263.435333,49.528 262.445333,50.6133333 261.8,51.992 L261.8,51.992 L261.8,47.812 L254.276,47.812 L254.276,72.364 L261.8,72.364 Z" id="Housing.com" fill="#303E48"></path>
            </g>
        </g>
    </g>
</svg>