<svg width="40" height="40" viewBox="0 0 40 40" fill="none" xmlns="http://www.w3.org/2000/svg">
<path d="M20.0249 10.2387C19.7438 10.6761 19.4501 11.1051 19.1834 11.551C18.1782 13.2346 17.1764 14.9208 16.183 16.612C15.3162 18.088 14.4688 19.5766 13.602 21.0525C12.6154 22.7319 11.611 24.4003 10.6244 26.0788C9.71029 27.6361 8.80974 29.201 7.87374 30.8135C9.07982 30.8135 10.226 30.8219 11.3721 30.8016C11.5021 30.7991 11.6768 30.6617 11.7494 30.5388C12.7867 28.7729 13.8071 26.9969 14.8385 25.2268C15.9264 23.3618 17.0194 21.4993 18.1158 19.6393C18.3293 19.2773 18.4221 18.778 19.0028 18.7958C19.3396 18.806 19.6763 18.806 20.0131 18.8111C20.0105 20.9211 20.0089 23.032 20.0063 25.142C19.9979 25.1514 19.981 25.1641 19.9827 25.17C19.9903 25.1912 20.0038 25.2107 20.0148 25.2311C20.0224 25.2539 20.0257 25.2777 20.0249 25.3014C19.6307 25.9627 19.2265 26.618 18.8441 27.286C18.1293 28.5356 17.4287 29.7928 16.7206 31.0457C16.0547 32.2241 15.339 33.377 14.738 34.5876C14.3405 35.3896 13.8476 35.7143 12.9226 35.7024C8.79117 35.6507 4.65976 35.6795 0.528348 35.6795C0.377271 35.6795 0.227038 35.6795 0 35.6795C0.419471 34.9437 0.805182 34.2646 1.19258 33.5864C2.02393 32.1317 2.85527 30.6761 3.68915 29.2231C4.50531 27.8006 5.3299 26.3831 6.14099 24.9581C7.00947 23.4304 7.86276 21.8943 8.72871 20.3659C9.59635 18.8348 10.4741 17.3097 11.3434 15.7796C12.2136 14.2494 13.0762 12.7141 13.9464 11.1839C14.7963 9.6902 15.6521 8.19902 16.5062 6.70783C17.3941 5.159 18.2812 3.60932 19.1725 2.06219C19.4071 1.65527 19.6527 1.25429 19.8932 0.850761C19.9304 0.854152 19.9675 0.858391 20.0046 0.861782C20.0046 3.93316 20.0046 7.00539 20.0046 10.0768C19.9962 10.0861 19.9793 10.0988 19.981 10.1047C19.9886 10.1259 20.0021 10.1454 20.0139 10.1658C20.0232 10.1887 20.0266 10.2116 20.0257 10.2361L20.0249 10.2387Z" fill="black"/>
<path d="M20.0064 25.1429C20.009 23.0329 20.0106 20.922 20.0132 18.8119C20.4563 18.8357 20.9011 18.8501 21.3425 18.8908C21.4277 18.8984 21.5324 18.99 21.5797 19.0714C22.5292 20.6973 23.466 22.3301 24.4155 23.9552C25.4958 25.805 26.5855 27.6497 27.6709 29.4961C27.805 29.7241 27.9722 29.9403 28.0616 30.1853C28.2524 30.7016 28.5891 30.8533 29.1285 30.8279C30.1075 30.7821 31.0891 30.8152 32.1551 30.8152C30.2071 27.4996 28.292 24.2409 26.3711 20.9703C27.237 19.4952 28.1165 17.9964 29.0322 16.4366C32.6952 22.8642 36.3295 29.2401 39.9993 35.6787C39.7697 35.6787 39.6059 35.6787 39.4414 35.6787C35.38 35.6804 31.3186 35.6821 27.2573 35.6838C27.1729 35.6838 27.0868 35.671 27.0049 35.6855C26.1812 35.8296 25.7094 35.4108 25.333 34.7267C24.2585 32.7718 23.1512 30.8338 22.0548 28.8908C21.3796 27.6938 20.701 26.4984 20.0242 25.3023C20.025 25.2785 20.0216 25.2548 20.014 25.2319C20.0115 25.2022 20.0081 25.1726 20.0056 25.1438L20.0064 25.1429Z" fill="#E3042B"/>
<path d="M20.0035 10.0802C20.0035 7.00879 20.0035 3.93656 20.0035 0.865184C20.0111 0.815167 20.0195 0.764302 20.0271 0.714285C20.5006 1.51032 20.9834 2.30211 21.4467 3.10493C22.484 4.90045 23.5129 6.70021 24.5426 8.49913C25.1165 9.50201 25.6904 10.5049 26.25 11.5154C26.3032 11.6112 26.2981 11.7909 26.2432 11.8876C25.4077 13.3669 24.5586 14.8394 23.6774 16.3764C23.2825 15.705 22.9119 15.0649 22.533 14.43C21.6991 13.032 20.861 11.6366 20.0246 10.2404C20.0254 10.2158 20.0221 10.1929 20.0128 10.17C20.0094 10.1404 20.0069 10.1107 20.0035 10.081V10.0802Z" fill="#E3042B"/>
<path d="M17.6369 35.6838C18.4142 33.5229 19.1839 31.3849 19.9866 29.1536C20.7799 31.3696 21.5429 33.4983 22.3253 35.6838H17.636H17.6369Z" fill="black"/>
</svg>
