<?xml version="1.0" encoding="UTF-8"?>
<!-- Generator: Adobe Illustrator 27.2.0, SVG Export Plug-In . SVG Version: 6.00 Build 0)  -->
<svg xmlns="http://www.w3.org/2000/svg" xmlns:xlink="http://www.w3.org/1999/xlink" version="1.1" id="Layer_1" x="0px" y="0px" width="193.9px" height="21.4px" viewBox="0 0 193.9 21.4" style="enable-background:new 0 0 193.9 21.4;" xml:space="preserve">
<style type="text/css">
	.st0{fill:#0A2240;}
</style>
<g>
	<path class="st0" d="M128.9,17.1c-0.2,0-0.3,0.6-0.3,0.7c-0.2,0.5-0.6,0.9-1.1,1.2c-1.2,0.8-2.7,1.3-4.2,1.3   c-5.8,0-9.2-5.1-9.2-10.5c0-4.4,2.1-8.5,7-8.5c2.1,0,4.9,0.3,6.6,1.8c0.2,0.2,0.5,0.5,0.6,0.8c0.1,0.2,0.1,0.3,0.2,0.4   c0.1,0.1,0.1,0.6,0.3,0.6c0.1,0,0.1-0.4,0.1-0.4c0-0.5-0.1-1.1-0.1-1.6c0-0.4,0.1-0.8,0.1-1.2c0,0,0-0.3-0.1-0.3   c-0.1,0-0.1,0.1-0.3,0.1c-0.4,0-1.9-0.4-2.4-0.6c-1.5-0.3-2.9-0.4-4.4-0.4c-4.3,0-7.5,2.1-9,6.1c-0.5,1.3-0.7,2.7-0.7,4   c0,6.7,3.9,10.5,10.5,10.5c1.9,0,3.9-0.2,5.8-0.8c0.3-0.1,0.3-0.1,0.3-0.5c0.1-0.7,0.4-1.7,0.4-2.3C129,17.4,129,17.1,128.9,17.1z"></path>
	<path class="st0" d="M138.2,5c-0.9-0.4-1.9-0.4-2.8-0.4c-3.3,0-5.8,2.6-6.5,6c-0.2,0.8-0.2,1.6-0.2,2.4c0,4.9,3,8.2,7.4,8.2   c4.6,0,6.8-4,6.8-8.7C142.8,9.2,141.1,6.1,138.2,5z M136.2,20.5c-3.6,0-5.5-4-5.5-8.3c0-3.2,1.1-6.8,4.7-6.8c3.9,0,5.4,5,5.4,9   C140.9,17.7,139.4,20.5,136.2,20.5z"></path>
	<path class="st0" d="M151,18.4C151,18.4,151,18.4,151,18.4c-0.3,0.3-0.5,1-0.9,1.3c-0.4,0.2-1.1,0.3-1.7,0.3   c-0.6,0-1.3-0.1-1.9-0.3c-0.5-0.1-0.6-0.7-0.6-1.3c0-0.5,0-1.2,0-1.8V7c0-0.5,0-1,0.2-1.4c0.2-0.3,0.4-0.3,0.7-0.4   c0.1-0.1,0.3-0.1,0.3-0.2c0-0.2-0.2-0.2-0.3-0.2c-0.4,0-1.3,0.1-1.9,0.1c-0.6,0-1.4-0.1-1.8-0.1c-0.1,0-0.3,0-0.3,0.2   c0,0.1,0.1,0.1,0.2,0.1c0.2,0.1,0.6,0.1,0.7,0.4c0.3,0.4,0.3,1,0.3,1.6v10c0,1,0,2.4-0.3,3c-0.1,0.3-0.4,0.4-0.7,0.5   c-0.1,0-0.3,0-0.3,0.2c0,0.2,0.2,0.2,0.4,0.2c0.4,0,1.1-0.1,1.8-0.1c2,0,4.4,0.1,5.4,0.1c0.2,0,0.3-0.1,0.3-0.2   c0-0.2,0.1-0.5,0.2-0.8c0.1-0.3,0.4-1.2,0.4-1.3C151.2,18.5,151.2,18.4,151,18.4z"></path>
	<path class="st0" d="M159.5,18.4C159.5,18.4,159.5,18.4,159.5,18.4c-0.3,0.3-0.5,1-0.9,1.3c-0.4,0.2-1.1,0.3-1.7,0.3   c-0.6,0-1.3-0.1-1.9-0.3c-0.5-0.1-0.6-0.7-0.6-1.3c0-0.5,0-1.2,0-1.8V7c0-0.5,0-1,0.2-1.4c0.2-0.3,0.4-0.3,0.7-0.4   c0.1-0.1,0.3-0.1,0.3-0.2c0-0.2-0.2-0.2-0.3-0.2c-0.4,0-1.3,0.1-1.9,0.1c-0.6,0-1.4-0.1-1.8-0.1c-0.1,0-0.3,0-0.3,0.2   c0,0.1,0.1,0.1,0.2,0.1c0.2,0.1,0.6,0.1,0.7,0.4c0.3,0.4,0.3,1,0.3,1.6v10c0,1,0,2.4-0.3,3c-0.1,0.3-0.4,0.4-0.7,0.5   c-0.1,0-0.3,0-0.3,0.2c0,0.2,0.2,0.2,0.4,0.2c0.4,0,1.1-0.1,1.8-0.1c2,0,4.4,0.1,5.4,0.1c0.2,0,0.3-0.1,0.3-0.2   c0-0.2,0.1-0.5,0.2-0.8c0.1-0.3,0.4-1.2,0.4-1.3C159.7,18.5,159.7,18.4,159.5,18.4z"></path>
	<path class="st0" d="M167.8,5.1c0-0.1,0.1-0.4-0.1-0.4c-0.4,0-0.7,0.1-1.1,0.1c-0.7,0-1,0-1.7,0.1c-1,0-2.1,0.1-3.1,0.1   c-0.6,0-1.1-0.1-1.7-0.1c-0.1,0-0.3,0-0.3,0.2s0.4,0.2,0.7,0.3c0.6,0.2,0.8,1.1,0.8,1.8v7.7c0,0.9,0,4.5-0.3,5.2   c-0.1,0.3-0.4,0.4-0.6,0.5c-0.2,0.1-0.7,0.1-0.7,0.2s0.4,0.2,0.5,0.2c0.7,0,1.4-0.1,2.2-0.1c1.5,0,2.6,0.1,4.1,0.1   c0.2,0,0.4-0.1,0.6-0.2c0.1-0.1,0.2-0.3,0.3-0.7c0.2-0.5,0.4-1.1,0.4-1.3c0-0.1,0-0.2-0.1-0.2l0,0c-0.1,0.1-0.2,0.4-0.3,0.5   c-0.2,0.4-0.5,0.6-0.9,0.7c-0.5,0.2-0.9,0.2-1.4,0.2c-0.5,0-1.2,0-1.7-0.4c-0.2-0.2-0.3-0.5-0.3-0.9v-5.4c0-0.2,0-0.3,0.3-0.3h2.2   c0.3,0,0.6,0,0.9,0.2c0.1,0.1,0.1,0.2,0.2,0.3c0.2,0.3,0.1,0.8,0.4,0.8c0.1,0,0.1-0.3,0.1-0.4c0-0.6-0.1-1-0.1-1.6   c0-0.4,0.1-0.8,0.1-1.1c0-0.2,0-0.6-0.2-0.6c-0.1,0-0.2,0.4-0.2,0.5c-0.1,0.2-0.1,0.5-0.3,0.6c-0.2,0.2-0.8,0.2-1.1,0.2h-2   c-0.3,0-0.4,0-0.4-0.4V6.1c0-0.4,0.1-0.4,0.5-0.4h1.9c0.4,0,0.9,0,1.2,0.1c0.4,0.1,0.6,0.3,0.8,0.8c0.1,0.1,0,0.4,0.2,0.4   c0.1,0,0.1-0.1,0.1-0.3h0c0-0.4,0-0.8-0.1-1.2C167.8,5.4,167.8,5.3,167.8,5.1z"></path>
	<path class="st0" d="M181.9,12.9c-0.3,0-1.2,0.1-1.7,0.1c-0.5,0-1-0.1-1.4-0.1c-0.4,0-0.7-0.1-0.8-0.1s-0.3,0-0.3,0.2   c0,0.2,0.4,0.2,0.6,0.3c0.1,0.1,0.3,0.2,0.5,0.3c0.2,0.2,0.3,0.8,0.3,1.2V17c0,1,0,2.3-0.6,2.7c-0.5,0.4-1.5,0.7-2.2,0.7   c-1.6,0-2.8-0.6-3.9-1.7c-1.5-1.6-2.1-4.1-2.1-7.1c0-2.3,0.7-4.5,2.4-5.6c0.9-0.6,1.8-0.8,2.8-0.8c2,0,4,0.9,4.7,1.8   c0.3,0.4,0.4,0.8,0.4,1.1c0,0.2,0.1,0.4,0.2,0.4s0.1-0.2,0.2-0.4c0.1-0.6,0-1,0.1-1.7c0-0.6,0.1-1.1,0.1-1.3c0-0.1,0-0.1-0.1-0.1   c-0.1,0-0.1,0.3-0.7,0.3c-0.4,0-1.1-0.3-1.8-0.5c-0.9-0.2-1.9-0.3-3-0.3c-1.1,0-2.3,0.2-3.2,0.6c-2.8,1.3-4.2,4.5-4.2,7.4   c0,3.8,1.2,6.2,3.4,7.5c1.3,0.8,2.8,1.1,4.7,1.1c1.8,0,3.8-0.6,4.5-1c0.1-0.1,0.2-0.2,0.2-0.5c0-0.3,0-0.9,0-1.5c0-0.2,0-1.2,0-1.4   c0-0.8-0.1-2.9,0.5-3.4c0.2-0.2,0.7-0.2,0.7-0.4C182.2,13,182,12.9,181.9,12.9z"></path>
	<path class="st0" d="M190.4,5.1c0-0.1,0.1-0.4-0.1-0.4c-0.4,0-0.7,0.1-1.1,0.1c-0.7,0-1,0-1.7,0.1c-1,0-2.1,0.1-3.1,0.1   c-0.6,0-1.1-0.1-1.7-0.1c-0.1,0-0.3,0-0.3,0.2s0.4,0.2,0.6,0.3c0.6,0.2,0.8,1.1,0.8,1.8v7.7c0,0.9,0,4.5-0.3,5.2   c-0.1,0.3-0.4,0.4-0.6,0.5c-0.2,0.1-0.7,0.1-0.7,0.2s0.4,0.2,0.5,0.2c0.7,0,1.4-0.1,2.1-0.1c1.5,0,2.6,0.1,4.1,0.1   c0.2,0,0.4-0.1,0.6-0.2c0.1-0.1,0.2-0.3,0.3-0.7c0.2-0.5,0.4-1.1,0.4-1.3c0-0.1,0-0.2-0.1-0.2l0,0c-0.1,0.1-0.2,0.4-0.3,0.5   c-0.2,0.4-0.5,0.6-0.9,0.7c-0.5,0.2-0.9,0.2-1.4,0.2c-0.5,0-1.2,0-1.7-0.4c-0.2-0.2-0.3-0.5-0.3-0.9v-5.4c0-0.2,0-0.3,0.3-0.3h2.2   c0.3,0,0.6,0,0.9,0.2c0.1,0.1,0.1,0.2,0.2,0.3c0.2,0.3,0.1,0.8,0.4,0.8c0.1,0,0.1-0.3,0.1-0.4c0-0.6-0.1-1-0.1-1.6   c0-0.4,0.1-0.8,0.1-1.1c0-0.2,0-0.6-0.2-0.6c-0.1,0-0.2,0.4-0.2,0.5c-0.1,0.2-0.1,0.5-0.3,0.6c-0.2,0.2-0.8,0.2-1.1,0.2h-2   c-0.3,0-0.4,0-0.4-0.4V6.1c0-0.4,0.1-0.4,0.5-0.4h1.9c0.4,0,0.9,0,1.2,0.1c0.4,0.1,0.6,0.3,0.8,0.8c0.1,0.1,0,0.4,0.2,0.4   c0.1,0,0.1-0.1,0.1-0.3h0c0-0.4,0-0.8-0.1-1.2C190.4,5.4,190.4,5.3,190.4,5.1z"></path>
	<path class="st0" d="M71.7,20.6c-0.4-0.2-0.6-0.2-0.8-0.7c-0.2-0.7-0.3-3.7-0.3-5.7V7.8c0-0.9,0.1-1.9,0.4-2.2   c0.1-0.2,0.3-0.3,0.5-0.4c0.1-0.1,0.4-0.1,0.4-0.2c0-0.2-0.2-0.2-0.3-0.2c-0.6,0-1.3,0.1-1.9,0.1c-0.3,0-1.1-0.1-1.5-0.1   c-0.2,0-0.8-0.1-0.8,0.2s0.6,0.2,0.9,0.4c0.4,0.4,0.4,1.1,0.4,1.5v4.7c0,0.3,0,0.4-0.4,0.4h-7.8c-0.3,0-0.3-0.1-0.3-0.4V7.4   c0-0.4,0.1-1.8,0.4-2c0.3-0.2,0.6-0.3,0.8-0.3c0,0,0.1-0.1,0.1-0.1c0-0.2-0.2-0.2-0.4-0.2c-0.1,0-0.4,0.1-0.7,0.1   c-0.3,0-0.7,0.1-1.1,0.1c-0.7,0-1.3-0.1-1.9-0.1c-0.1,0-0.3,0-0.3,0.1c0,0.2,0.3,0.1,0.7,0.4c0.4,0.3,0.6,0.9,0.6,1.6v10.5   c0,0.9,0,2.2-0.1,2.6c-0.1,0.2-0.1,0.4-0.4,0.5c-0.2,0.1-0.5,0.1-0.5,0.3c0,0.1,0.1,0.2,0.3,0.2c0.4,0,1-0.1,1.5-0.1   c1.5,0,1.5,0.1,2.1,0.1c0.2,0,0.3,0,0.3-0.2c0,0,0-0.1-0.1-0.1c-0.2-0.1-0.6,0-0.9-0.3c-0.3-0.3-0.5-1.2-0.5-2.1v-4.8   c0-0.3,0.1-0.3,0.4-0.3h7.8c0.3,0,0.4,0,0.4,0.4v4.1c0,0.6,0,2-0.1,2.4c-0.1,0.2-0.2,0.4-0.3,0.5c-0.3,0.3-0.8,0.2-0.8,0.4   c0,0.1,0.1,0.1,0.2,0.1c0.6,0,1-0.1,2.1-0.1c0.4,0,1.1,0.1,1.5,0.1c0.2,0,0.6-0.1,0.6-0.2C72.1,20.6,71.9,20.7,71.7,20.6z"></path>
	<path class="st0" d="M42.4,5.2c0-0.1,0.1-0.4-0.1-0.4c-0.3,0-0.7,0.1-1.1,0.1c-0.7,0-1,0-1.7,0.1c-1,0-2,0.1-3.1,0.1   c-0.5,0-1.1-0.1-1.7-0.1c-0.1,0-0.3,0-0.3,0.2s0.4,0.2,0.7,0.3c0.6,0.2,0.8,1.1,0.8,1.8v7.7c0,0.9,0,4.5-0.3,5.2   c-0.1,0.3-0.4,0.4-0.6,0.5c-0.2,0.1-0.7,0.1-0.7,0.2c0,0.2,0.4,0.2,0.5,0.2c0.7,0,1.4-0.1,2.2-0.1c1.5,0,2.6,0.1,4.1,0.1   c0.2,0,0.4-0.1,0.5-0.2c0.1-0.1,0.2-0.3,0.3-0.7c0.2-0.5,0.4-1.1,0.4-1.3c0-0.1,0-0.2-0.1-0.2l0,0c-0.1,0-0.2,0.4-0.3,0.5   c-0.2,0.4-0.5,0.6-0.9,0.7c-0.5,0.2-0.9,0.2-1.4,0.2c-0.5,0-1.2,0-1.7-0.4c-0.2-0.2-0.3-0.5-0.3-0.9v-5.4c0-0.2,0-0.3,0.3-0.3h2.2   c0.3,0,0.6,0,0.9,0.2c0.1,0.1,0.1,0.2,0.2,0.3c0.2,0.3,0.2,0.8,0.3,0.8c0.1,0,0.1-0.3,0.1-0.4c0-0.6-0.1-1-0.1-1.6   c0-0.4,0.1-0.8,0.1-1.1c0-0.2,0-0.6-0.2-0.6c-0.1,0-0.2,0.4-0.2,0.5c-0.1,0.2-0.1,0.5-0.3,0.6C40.9,12,40.3,12,40,12h-2   c-0.3,0-0.3,0-0.3-0.4V6.1c0-0.4,0.1-0.4,0.5-0.4h1.9c0.4,0,0.9,0,1.2,0.1c0.5,0.1,0.6,0.3,0.8,0.8c0.1,0.1,0,0.4,0.2,0.4   c0.1,0,0.1-0.1,0.1-0.3h0c0-0.4,0-0.8-0.1-1.2C42.4,5.4,42.4,5.3,42.4,5.2z"></path>
	<path class="st0" d="M56.6,13c-0.3,0-1.2,0.1-1.7,0.1c-0.5,0-1-0.1-1.4-0.1c-0.3-0.1-0.7-0.1-0.8-0.1c-0.2,0-0.3,0.1-0.3,0.2   c0,0.2,0.3,0.2,0.6,0.3c0.1,0.1,0.3,0.2,0.5,0.3c0.2,0.2,0.3,0.8,0.3,1.2v2.2c0,1,0,2.3-0.6,2.7c-0.5,0.4-1.5,0.7-2.2,0.7   c-1.6,0-2.8-0.6-3.9-1.7c-1.5-1.6-2.1-4.1-2.1-7.1c0-2.3,0.7-4.5,2.4-5.6c0.9-0.6,1.7-0.8,2.8-0.8c2,0,4,0.9,4.7,1.8   c0.3,0.4,0.4,0.8,0.4,1.1c0,0.2,0.1,0.4,0.2,0.4c0.1,0,0.1-0.2,0.2-0.4c0.1-0.6,0-1,0.1-1.7C55.9,6,56,5.5,56,5.3   c0-0.1,0-0.1-0.1-0.1c-0.1,0-0.1,0.3-0.7,0.3c-0.4,0-1.1-0.3-1.8-0.5c-0.9-0.2-1.9-0.3-3-0.3c-1.1,0-2.3,0.2-3.2,0.6   c-2.8,1.3-4.2,4.5-4.2,7.4c0,3.9,1.2,6.2,3.3,7.5c1.3,0.8,2.8,1.1,4.7,1.1c1.8,0,3.8-0.5,4.5-1c0.1-0.1,0.2-0.2,0.2-0.5   c0-0.3,0-0.9,0-1.5c0-0.2,0-1.2,0-1.4c0-0.8-0.1-2.9,0.5-3.4c0.2-0.2,0.7-0.2,0.7-0.4C56.9,13,56.7,13,56.6,13z"></path>
	<path class="st0" d="M34.2,18.4C34.2,18.4,34.2,18.5,34.2,18.4c-0.3,0.3-0.5,1-0.9,1.3C33,19.9,32.2,20,31.6,20   c-0.6,0-1.3-0.1-2-0.3c-0.5-0.1-0.6-0.7-0.6-1.3c0-0.5,0-1.2,0-1.8V7c0-0.5,0-1,0.2-1.4c0.2-0.3,0.4-0.3,0.7-0.4   C30,5.2,30.2,5.1,30.2,5c0-0.2-0.2-0.2-0.3-0.2c-0.4,0-1.3,0.1-1.8,0.1c-0.5,0-1.4-0.1-1.8-0.1c-0.1,0-0.3,0-0.3,0.2   c0,0.1,0.2,0.1,0.2,0.1c0.2,0.1,0.6,0.1,0.7,0.4c0.3,0.4,0.3,1,0.3,1.6v10c0,1,0,2.4-0.3,3c-0.1,0.3-0.4,0.4-0.7,0.5   c-0.1,0-0.3,0-0.3,0.2c0,0.2,0.2,0.2,0.4,0.2c0.4,0,1.2-0.1,1.8-0.1c2,0,4.4,0.1,5.4,0.1c0.2,0,0.3-0.1,0.3-0.2   c0-0.2,0.1-0.5,0.2-0.8c0.1-0.3,0.4-1.2,0.4-1.3C34.4,18.6,34.3,18.4,34.2,18.4z"></path>
	<path class="st0" d="M80.9,5.2c0-0.1,0.1-0.4-0.1-0.4c-0.3,0-0.7,0.1-1.1,0.1c-0.7,0-1,0-1.7,0.1C77,4.9,76,5,74.9,5   c-0.6,0-1.1-0.1-1.7-0.1c-0.1,0-0.3,0-0.3,0.2s0.4,0.2,0.7,0.3c0.6,0.2,0.8,1.1,0.8,1.8v7.7c0,0.9,0,4.5-0.3,5.2   c-0.1,0.3-0.4,0.4-0.6,0.5c-0.2,0.1-0.7,0.1-0.7,0.2c0,0.2,0.4,0.2,0.5,0.2c0.7,0,1.4-0.1,2.2-0.1c1.5,0,2.6,0.1,4.1,0.1   c0.2,0,0.4-0.1,0.6-0.2c0.1-0.1,0.2-0.3,0.3-0.7c0.2-0.5,0.4-1.1,0.4-1.3c0-0.1,0-0.2-0.1-0.2l0,0c-0.1,0-0.2,0.4-0.3,0.5   c-0.2,0.4-0.5,0.6-0.9,0.7c-0.5,0.2-0.9,0.2-1.3,0.2c-0.5,0-1.2,0-1.7-0.4c-0.2-0.2-0.3-0.5-0.3-0.9v-5.4c0-0.2,0-0.3,0.3-0.3h2.2   c0.3,0,0.6,0,0.9,0.2c0.1,0.1,0.1,0.2,0.2,0.3c0.2,0.3,0.1,0.8,0.3,0.8c0.1,0,0.1-0.3,0.1-0.4c0-0.6-0.1-1-0.1-1.6   c0-0.4,0.1-0.8,0.1-1.1c0-0.2,0-0.6-0.2-0.6c-0.1,0-0.2,0.4-0.2,0.5c-0.1,0.2-0.1,0.5-0.3,0.6C79.4,12,78.9,12,78.5,12h-2   c-0.3,0-0.3,0-0.3-0.4V6.1c0-0.4,0.1-0.4,0.5-0.4h1.9c0.4,0,0.9,0,1.2,0.1c0.4,0.1,0.6,0.3,0.8,0.8c0.1,0.1,0,0.4,0.2,0.4   C81,7.1,81,6.9,81,6.8h0c0-0.4,0-0.8-0.1-1.2C80.9,5.4,80.9,5.3,80.9,5.2z"></path>
	<path class="st0" d="M109.8,4.8c-0.6,0-1.2,0.1-1.8,0.1c-0.3,0-0.7-0.1-1-0.1c-0.1,0-0.4,0-0.3,0.2s0.5,0.2,0.5,0.6   c0,0.6-1.4,2.8-1.8,3.3l-2,3.1c0,0.1-0.1,0.2-0.2,0.2c-0.1,0-0.2-0.1-0.2-0.2c-0.3-0.3-1.2-1.9-1.5-2.3c-0.3-0.5-1.8-2.9-1.8-2.9   c-0.2-0.3-0.4-0.8-0.4-1.3c0-0.3,0.7-0.3,0.7-0.4c0-0.2-0.4-0.2-0.5-0.2c-0.6,0-1.3,0.1-1.9,0.1c-0.3,0-0.5,0-0.8-0.1   c-0.1-0.1-0.3-0.1-0.4-0.1c-0.1,0-0.2,0-0.2,0c-0.1,0-0.2,0-0.3,0c-0.1,0-0.4,0-0.5,0.1c-0.2,0-0.4,0-0.6,0c-0.5,0-1.2-0.1-1.5-0.1   c-0.2,0-0.3,0-0.3,0.2c0,0.1,0.2,0.1,0.3,0.1c0.3,0.1,0.6,0.1,0.8,0.4c0.2,0.4,0.3,2,0.3,2.9l0.1,8.2v0.1c0,0.3-0.1,0.6-0.2,0.5   c0,0.1-0.2-0.2-0.3-0.2c-0.5-0.5-1.1-1.2-1.7-1.9c-1.1-1.2-2.2-2.6-3.3-3.8c-2.2-2.6-5-5.8-5-5.8c-0.2-0.2-0.7-0.8-0.9-0.8   c-0.2,0-0.2,0.6-0.2,1.3v12.2c0,0.7-0.1,2-0.6,2.4c-0.3,0.2-0.8,0.2-0.8,0.4c0,0.1,0.2,0.1,0.3,0.1c0.3,0,1.2-0.1,1.7-0.1   s1.4,0.1,1.8,0.1c0.3,0,0.4-0.1,0.4-0.2c0-0.1-0.2-0.1-0.4-0.1c-0.2,0-0.5-0.1-0.7-0.3c-0.4-0.4-0.6-1.5-0.6-2.2v-7.6   c0-0.5,0-1.2,0-1.5c0-0.1,0.1-0.2,0.1-0.2c0.2,0,0.4,0.2,0.6,0.4c0.3,0.2,0.7,0.9,1.3,1.6c1,1.1,2.1,2.4,2.8,3.2   c1.3,1.6,4.4,5.3,5.4,6.3c0.3,0.4,0.8,1,1.1,1c0.2,0,0.2-0.7,0.2-1V8.3c0-0.9,0.1-2.7,0.4-2.9c0,0,0.1,0,0.1-0.1   c0.2,0,0.3,0.1,0.4,0.1c0.4,0.2,0.7,0.6,0.9,1.1l4.2,6.7c0.2,0.3,0.3,0.5,0.3,0.9v4.4c0,0.6-0.1,1.6-0.6,2   c-0.1,0.1-0.2,0.1-0.3,0.2c-0.1,0-0.4,0-0.4,0.2c0,0.2,0.4,0.2,0.6,0.2c0.6,0,1.2-0.1,1.9-0.1s1.3,0.1,1.9,0.1   c0.1,0,0.6,0.1,0.6-0.2c0-0.2-0.2-0.1-0.3-0.1c-0.4,0-0.8-0.2-1.1-0.6s-0.3-0.8-0.3-1.2c0-0.8,0-4.1,0-4.9c0-0.4,0.2-1,0.4-1.3   l4.1-6.2c0.2-0.3,0.9-1.1,1.2-1.2c0.2-0.1,0.4-0.2,0.7-0.2c0,0,0.2,0,0.2-0.1C110.4,4.8,110,4.8,109.8,4.8z"></path>
	<path class="st0" d="M25.7,18.4C25.7,18.4,25.7,18.5,25.7,18.4c-0.3,0.3-0.5,1-0.9,1.3c-0.3,0.2-1.1,0.3-1.7,0.3   c-0.6,0-1.3-0.1-2-0.3c-0.5-0.1-0.6-0.7-0.6-1.3c0-0.5,0-1.2,0-1.8V7c0-0.5,0-1,0.2-1.4c0.2-0.3,0.4-0.3,0.7-0.4   c0.1-0.1,0.3-0.1,0.3-0.2c0-0.2-0.2-0.2-0.3-0.2c-0.4,0-1.3,0.1-1.9,0.1c-0.5,0-1.4-0.1-1.8-0.1c-0.1,0-0.3,0-0.3,0.2   c0,0.1,0.1,0.1,0.2,0.1c0.2,0.1,0.6,0.1,0.7,0.4c0.3,0.4,0.3,1,0.3,1.6v10c0,1,0,2.4-0.3,3c-0.1,0.3-0.4,0.4-0.6,0.5   c-0.1-0.1-0.3-0.1-0.5-0.2c-0.4-0.1-0.8-0.3-1-0.7c-0.3-0.4-0.5-0.9-0.7-1.4c-1.7-4.8-3.4-9.6-5-14.4c-0.2-0.6-1.3-3.5-1.3-3.5   C9.3,0.4,9.2,0,9,0C8.9,0,8.8,0.1,8.8,0.2C8.7,0.4,8.6,0.7,8.5,1C8.4,1.3,7.8,2.9,7.7,3.3L2.2,18.6c-0.3,0.8-0.7,1.5-1.4,1.9   C0.5,20.5,0,20.5,0,20.8C0,21,0.4,21,0.5,21c0.7,0,1.3-0.1,2-0.1c0.6,0,1.4,0.1,2,0.1c0.1,0,0.4,0,0.4-0.3c0-0.2-0.7-0.2-0.9-0.3   c-0.3-0.2-0.7-0.4-0.7-0.9c0-0.4,0.3-1.4,0.4-1.8l1-3.1c0.3-0.8,0.4-0.8,1.2-0.8h4.9c0.9,0,0.9,0.4,1.2,1.4l1,2.9   c0.1,0.4,0.3,1.1,0.3,1.5c0,0.5-0.3,0.8-0.6,0.9c-0.3,0.1-0.8,0.1-0.8,0.3c0,0.1,0.4,0.1,0.5,0.1c0.9,0,1.9-0.1,2.8-0.1   c0.7,0,1.3,0.1,2,0.1l0,0c0.1,0,0.2,0,0.3,0h0c0,0,0,0,0,0c0.1,0,0.2,0,0.3,0c0.1,0,0.3,0,0.4,0c0.4,0,0.9-0.1,1.3-0.1   c2,0,4.4,0.1,5.4,0.1c0.2,0,0.3-0.1,0.3-0.2c0-0.2,0.1-0.5,0.2-0.8c0.1-0.3,0.4-1.2,0.4-1.3C25.9,18.6,25.9,18.4,25.7,18.4z    M10.4,12.6H6c-0.1,0-0.3,0.1-0.3-0.2c0-0.1,0.7-2.2,0.9-2.7c0.6-1.6,1.3-3.6,1.7-4.4c0-0.1,0-0.3,0.2-0.3c0.1,0,0.2,0.3,0.3,0.4   C9,6,10,9.2,10.3,9.9c0.1,0.2,0.7,2.2,0.8,2.5C11,12.6,10.5,12.6,10.4,12.6z"></path>
	<polygon class="st0" points="190.8,19.3 191.3,19.3 191.3,21 191.5,21 191.5,19.3 192.1,19.3 192.1,19.1 190.8,19.1  "></polygon>
	<polygon class="st0" points="193.6,19.1 193.1,20.6 192.7,19.1 192.4,19.1 192.4,21 192.6,21 192.6,19.4 193,21 193.2,21    193.7,19.4 193.7,21 193.9,21 193.9,19.1  "></polygon>
</g>
</svg>
