<?xml version="1.0" encoding="utf-8"?>
<!-- Generator: Adobe Illustrator 21.1.0, SVG Export Plug-In . SVG Version: 6.00 Build 0)  -->
<svg version="1.1" id="Layer_1" xmlns="http://www.w3.org/2000/svg" xmlns:xlink="http://www.w3.org/1999/xlink" x="0px" y="0px"
	 viewBox="0 0 230.2 63" style="enable-background:new 0 0 230.2 63;" xml:space="preserve">
<style type="text/css">
	.st0{fill:#FFFFFF;}
</style>
<g>
	<g>
		<g id="XMLID_271_">
			<path d="M76.6,36.6h-3.3l4-13.1h4.1v0.1l4,13H82l-0.7-2.5h-4L76.6,36.6z M78,31.4h2.5l-1.2-4.6L78,31.4z"/>
		</g>
		<g id="XMLID_237_">
			<g id="XMLID_253_">
				<g id="XMLID_269_">
					<path d="M158.3,26.5h7.3v2.3h-4.4v1.5h4.1v2.3h-4.1v1.7h4.4v2.3h-7.3V26.5z"/>
				</g>
				<g id="XMLID_266_">
					<path d="M171.8,33.9h-1.7v2.7h-2.9V26.5h4.8c2.8,0,3.7,1.1,3.7,3v1.4c0,1.2-0.3,1.8-1.2,2.4l2.2,3.3h-3.2L171.8,33.9z
						 M172,28.8h-1.9v2.8h1.9c0.7,0,1-0.3,1-0.9v-1.1C173,29.1,172.7,28.8,172,28.8z"/>
				</g>
				<g id="XMLID_264_">
					<path d="M180.3,30.4v6.2h-2.7V26.5h3.4l3.4,6.2v-6.2h2.7v10.1h-3.4L180.3,30.4z"/>
				</g>
				<g id="XMLID_262_">
					<path d="M188.4,36.1l0.5-2.1c0.9,0.3,2.2,0.5,3.2,0.5s1.3-0.2,1.3-0.8s-0.1-0.8-1.9-1.1c-2.6-0.4-2.9-1.5-2.9-3.3
						c0-2.2,1.3-3,4-3c1,0,2.5,0.2,3.5,0.4l-0.3,2.3c-1.1-0.2-2.2-0.3-3.1-0.3c-0.9,0-1.1,0.1-1.1,0.7c0,0.7,0.1,0.8,1.8,1.1
						c2.8,0.5,3,1.2,3,3.1c0,2.2-0.8,3.3-4.2,3.3C190.9,36.8,189.5,36.6,188.4,36.1z"/>
				</g>
				<g id="XMLID_260_">
					<path d="M202.8,36.6H200V29h-3v-2.5h8.7V29h-2.9V36.6z"/>
				</g>
				<g id="XMLID_258_">
					<path d="M207,26.5h7.3v2.3h-4.4v1.5h4.1v2.3h-4.1v1.7h4.4v2.3H207V26.5z"/>
				</g>
				<g id="XMLID_256_">
					<path d="M216,26.5h2.9v10.1H216V26.5z"/>
				</g>
				<g id="XMLID_254_">
					<path d="M223.4,30.4v6.2h-2.7V26.5h3.4l3.4,6.2v-6.2h2.7v10.1h-3.4L223.4,30.4z"/>
				</g>
			</g>
			<g id="XMLID_251_">
				<path d="M86.4,26.5h2.9v7.6h4.2v2.5h-7.1V26.5z"/>
			</g>
			<g id="XMLID_249_">
				<path d="M94.7,26.5h2.9v7.6h4.2v2.5h-7.1V26.5z"/>
			</g>
			<g id="XMLID_247_">
				<path d="M103,26.5h2.9v10.1H103V26.5z"/>
			</g>
			<g id="XMLID_244_">
				<path d="M113.6,35.1h-3.5l-0.4,1.5h-2.8l3.2-10.1h3.5l3.2,10.1H114L113.6,35.1z M110.7,32.9h2.2l-1.1-4L110.7,32.9z"/>
			</g>
			<g id="XMLID_242_">
				<path d="M120.4,30.4v6.2h-2.7V26.5h3.4l3.4,6.2v-6.2h2.7v10.1h-3.4L120.4,30.4z"/>
			</g>
			<g id="XMLID_240_">
				<path d="M128.8,33.5v-3.9c0-2.2,1.3-3.3,4.2-3.3c1.1,0,2.3,0.1,3.3,0.3L136,29c-1.1-0.2-2-0.3-3-0.3s-1.3,0.3-1.3,1.1v3.3
					c0,0.8,0.4,1.1,1.3,1.1c1,0,2-0.1,3-0.3l0.3,2.4c-1.1,0.2-2.2,0.3-3.3,0.3C130.2,36.8,128.8,35.7,128.8,33.5z"/>
			</g>
			<g id="XMLID_238_">
				<path d="M138,26.5h7.3v2.3h-4.4v1.5h4.1v2.3h-4.1v1.7h4.4v2.3H138V26.5z"/>
			</g>
		</g>
		<g id="XMLID_232_">
			<path d="M156.8,26.3v1.1c0,1.1-0.7,2-1.7,2.3c1,0.3,1.7,1.2,1.7,2.3v1.3c0,1.8-1.1,3.2-3.7,3.2H147v-13h6.6
				C155.6,23.5,156.8,24.6,156.8,26.3z M149.9,28.8h2.8c0.8,0,1.2-0.5,1.2-1.2v-0.7c0-0.9-0.7-1.1-1.6-1.1h-2.4V28.8z M153.9,32.5
				c0-0.7-0.4-1.2-1.2-1.2h-2.8v3h2.4c0.9,0,1.6-0.2,1.6-1.1V32.5z"/>
		</g>
	</g>
	<g id="XMLID_230_">
		<path d="M63,63H0V0h63V63z"/>
	</g>
	<g id="XMLID_219_">
		<path class="st0" d="M15.7,30.7h31.5v1.6H15.7V30.7z M27.6,26h-4.8l5.7-18.7h5.9l0.1,0.1L40.2,26h-4.8l-1-3.6h-5.8L27.6,26z
			 M29.7,18.5h3.6L31.5,12L29.7,18.5z M48.8,7.2v3.9h3v40.6h-3v3.9h6.9V7.2H48.8z M7.3,7.2v48.5h6.9v-3.9h-3V11.2h3v-4H7.3z
			 M38.7,41v1.6c0,1.6-1,2.9-2.4,3.3c1.4,0.5,2.4,1.7,2.4,3.3V51c0,2.6-1.6,4.6-5.3,4.6h-8.8V37H34C37,37,38.7,38.6,38.7,41z
			 M28.8,44.6h4.1c1.1,0,1.7-0.7,1.7-1.7v-1.1c0-1.3-1-1.5-2.3-1.5h-3.5V44.6z M34.6,49.8c0-1-0.6-1.7-1.7-1.7h-4.1v4.3h3.5
			c1.3,0,2.3-0.3,2.3-1.5C34.6,50.9,34.6,49.8,34.6,49.8z"/>
	</g>
</g>
</svg>
