<svg width="199" height="57" viewBox="0 0 199 57" fill="none" xmlns="http://www.w3.org/2000/svg">
<path d="M8.86523 56.8648V49.4315H13.7341V50.2593H9.78835V52.6526H13.6553V53.4804H9.78835V56.8648H8.86523Z" fill="#00643C"/>
<path d="M18.7156 49.4371H17.7925V56.8705H18.7156V49.4371Z" fill="#00643C"/>
<path d="M28.5097 56.8648L24.1756 50.9407V56.8648H23.2524V49.4315H24.1981L28.476 55.2374V49.4315H29.3991V56.8648H28.5097Z" fill="#00643C"/>
<path d="M39.2444 56.8761L38.5858 55.2261H34.8989L34.2291 56.8761H33.1709L36.1542 49.4428H37.2799L40.3026 56.8761H39.2444ZM36.7339 50.4001L35.1522 54.3983H38.3043L36.7339 50.4001Z" fill="#00643C"/>
<path d="M49.3252 56.8648L44.9966 50.9407V56.8648H44.0679V49.4315H45.0135L49.297 55.2374V49.4315H50.2201V56.8648H49.3252Z" fill="#00643C"/>
<path d="M54.453 53.1595C54.4351 52.6515 54.5215 52.1452 54.7069 51.6719C54.8924 51.1987 55.1729 50.7685 55.5311 50.408C55.8893 50.0475 56.3176 49.7644 56.7896 49.5761C57.2615 49.3878 57.7671 49.2983 58.2749 49.3133C58.8293 49.3042 59.3772 49.4339 59.8687 49.6906C60.3602 49.9473 60.7798 50.3228 61.0893 50.7831L60.3069 51.2167C60.0818 50.8833 59.7795 50.6093 59.4257 50.4181C59.0718 50.2269 58.677 50.1241 58.2749 50.1186C57.4966 50.1522 56.7613 50.4852 56.2224 51.0481C55.6835 51.611 55.3827 52.3603 55.3827 53.1397C55.3827 53.9192 55.6835 54.6685 56.2224 55.2314C56.7613 55.7943 57.4966 56.1273 58.2749 56.1609C58.677 56.1606 59.0728 56.0619 59.4279 55.8734C59.7831 55.685 60.0868 55.4125 60.3126 55.0797L61.1062 55.5133C60.7934 55.9703 60.3732 56.3434 59.8824 56.5997C59.3916 56.856 58.8454 56.9877 58.2918 56.9831C57.7844 56.998 57.2794 56.9087 56.8078 56.7208C56.3363 56.5328 55.9082 56.2502 55.5501 55.8903C55.1919 55.5304 54.9113 55.101 54.7255 54.6284C54.5398 54.1558 54.4527 53.6501 54.4699 53.1426" fill="#00643C"/>
<path d="M66.0086 49.4371H65.0854V56.8705H66.0086V49.4371Z" fill="#00643C"/>
<path d="M75.8478 56.8761L75.1949 55.2261H71.4855L70.8382 56.8761H69.7969L72.7801 49.4428H73.9059L76.9004 56.8761H75.8478ZM73.343 50.4001L71.7613 54.3983H74.9134L73.343 50.4001Z" fill="#00643C"/>
<path d="M80.6772 56.8648V49.4315H81.6004V56.0427H85.0564V56.8648H80.6772Z" fill="#00643C"/>
<path d="M94.5297 53.1595C94.5117 52.6515 94.5982 52.1452 94.7836 51.6719C94.969 51.1987 95.2495 50.7685 95.6077 50.408C95.966 50.0475 96.3943 49.7644 96.8662 49.5761C97.3382 49.3878 97.8437 49.2983 98.3516 49.3133C98.906 49.3042 99.4538 49.4339 99.9454 49.6906C100.437 49.9473 100.856 50.3228 101.166 50.7831L100.389 51.2167C100.163 50.8832 99.8595 50.6092 99.5048 50.418C99.1501 50.2269 98.7545 50.1241 98.3516 50.1186C97.5732 50.1522 96.8379 50.4852 96.299 51.0481C95.7602 51.611 95.4593 52.3603 95.4593 53.1397C95.4593 53.9192 95.7602 54.6685 96.299 55.2314C96.8379 55.7943 97.5732 56.1273 98.3516 56.1609C98.7534 56.1596 99.1489 56.0605 99.5039 55.8721C99.8589 55.6838 100.163 55.4118 100.389 55.0797L101.177 55.5133C100.864 55.9703 100.444 56.3434 99.9534 56.5997C99.4627 56.856 98.9164 56.9877 98.3629 56.9831C97.8555 56.998 97.3504 56.9087 96.8789 56.7208C96.4073 56.5328 95.9792 56.2502 95.6211 55.8903C95.263 55.5304 94.9823 55.101 94.7966 54.6284C94.6108 54.1558 94.5238 53.6501 94.5409 53.1426" fill="#00643C"/>
<path d="M109.458 56.8761L107.566 53.9197H106.086V56.8761H105.157V49.4315H108.146C108.451 49.4082 108.758 49.4498 109.046 49.5537C109.334 49.6576 109.597 49.8213 109.817 50.0341C110.037 50.2469 110.21 50.504 110.323 50.7884C110.437 51.0728 110.489 51.378 110.476 51.6841C110.506 52.2266 110.319 52.7587 109.957 53.1639C109.595 53.5691 109.088 53.8145 108.546 53.8465L110.55 56.8761H109.458ZM109.514 51.6784C109.519 51.4856 109.484 51.2938 109.41 51.1154C109.337 50.937 109.227 50.776 109.087 50.6428C108.948 50.5096 108.782 50.4071 108.601 50.3421C108.419 50.277 108.226 50.2507 108.034 50.265H106.086V53.0806H108.034C108.227 53.0933 108.421 53.0653 108.603 52.9986C108.785 52.9319 108.951 52.8278 109.09 52.6932C109.229 52.5585 109.339 52.3961 109.412 52.2165C109.485 52.0369 109.52 51.8441 109.514 51.6503" fill="#00643C"/>
<path d="M114.732 56.8648V49.4315H119.601V50.2593H115.655V52.6526H119.522V53.4804H115.655V56.0427H119.601V56.8648H114.732Z" fill="#00643C"/>
<path d="M123.873 56.8761V49.4371H126.412C127.397 49.4371 128.342 49.8287 129.039 50.5257C129.735 51.2227 130.127 52.1681 130.127 53.1538C130.127 54.1395 129.735 55.0849 129.039 55.7819C128.342 56.4789 127.397 56.8704 126.412 56.8704L123.873 56.8761ZM129.26 53.1651C129.287 52.7816 129.232 52.3969 129.099 52.0363C128.966 51.6756 128.758 51.3474 128.489 51.0732C128.219 50.799 127.895 50.5852 127.537 50.4459C127.179 50.3065 126.795 50.2449 126.412 50.2649H124.796V56.0426H126.412C126.793 56.0598 127.174 55.9967 127.53 55.8574C127.885 55.7181 128.208 55.5058 128.476 55.234C128.744 54.9623 128.953 54.6373 129.088 54.2799C129.223 53.9226 129.281 53.5408 129.26 53.1594" fill="#00643C"/>
<path d="M135.389 49.4371H134.466V56.8704H135.389V49.4371Z" fill="#00643C"/>
<path d="M141.766 56.8648V50.2593H139.419V49.4315H145.053V50.2593H142.689V56.8648H141.766Z" fill="#00643C"/>
<path d="M154.752 53.9816V49.4371H155.675V53.9422C155.675 55.2993 156.407 56.1609 157.78 56.1609C159.154 56.1609 159.885 55.2993 159.885 53.9422V49.4371H160.809V53.9422C160.809 55.7949 159.795 56.9718 157.78 56.9718C155.765 56.9718 154.752 55.7836 154.752 53.9534" fill="#00643C"/>
<path d="M170.608 56.8648L166.274 50.9407V56.8648H165.345V49.4315H166.296L170.574 55.2374V49.4315H171.497V56.8648H170.608Z" fill="#00643C"/>
<path d="M176.958 49.4371H176.035V56.8704H176.958V49.4371Z" fill="#00643C"/>
<path d="M181.197 53.1595C181.197 50.9633 182.677 49.3133 184.883 49.3133C187.09 49.3133 188.565 50.9633 188.565 53.1595C188.565 55.3557 187.073 57 184.878 57C182.683 57 181.191 55.3501 181.191 53.1595H181.197ZM187.608 53.1595C187.608 51.4194 186.538 50.1355 184.878 50.1355C183.217 50.1355 182.148 51.4194 182.148 53.1595C182.148 54.8996 183.206 56.1779 184.878 56.1779C186.55 56.1779 187.608 54.8827 187.608 53.1595Z" fill="#00643C"/>
<path d="M198.077 56.8648L193.743 50.9407V56.8648H192.82V49.4315H193.765L198.043 55.2374V49.4315H198.966V56.8648H198.077Z" fill="#00643C"/>
<path d="M74.1933 37.8987L66.8759 24.6482H61.0613V37.8987H53.1304V0.613831H70.5796C78.3473 0.613831 83.0924 5.682 83.0924 12.631C83.0924 19.2253 78.9609 22.7674 74.9363 23.6965L83.3063 37.8987H74.1933ZM74.9757 12.631C74.9757 9.50002 72.5722 7.60227 69.3863 7.60227H61.0613V17.6654H69.3863C72.5722 17.6654 74.9757 15.762 74.9757 12.631Z" fill="#00643C"/>
<path d="M89.0527 37.8987V0.613838H108.663C115.756 0.613838 119.358 5.11888 119.358 10.1195C119.358 14.8103 116.454 17.9413 112.936 18.6678C116.904 19.2816 120.084 23.139 120.084 27.8355C120.084 33.4274 116.341 37.8987 109.249 37.8987H89.0527ZM111.286 11.516C111.286 9.16778 109.598 7.43334 106.93 7.43334H96.9837V15.5368H106.947C109.626 15.5368 111.303 13.8474 111.303 11.516H111.286ZM112.029 26.7205C112.029 24.3723 110.341 22.3563 107.228 22.3563H96.9837V31.0229H107.211C110.228 31.0229 112.013 29.401 112.013 26.7205" fill="#00643C"/>
<path d="M124.3 19.2816C124.3 8.01897 132.518 0 143.748 0C154.977 0 163.235 8.04713 163.235 19.2816C163.235 30.516 155.022 38.5688 143.737 38.5688C132.451 38.5688 124.289 30.516 124.289 19.2816H124.3ZM155.079 19.2816C155.079 12.2988 150.609 7.04475 143.737 7.04475C136.864 7.04475 132.479 12.2988 132.479 19.2816C132.479 26.2644 136.875 31.5353 143.748 31.5353C150.621 31.5353 155.09 26.225 155.09 19.2928" fill="#00643C"/>
<path d="M189.893 37.8987L182.576 24.6482H176.744V37.8987H168.83V0.613838H186.279C194.041 0.613838 198.792 5.68201 198.792 12.631C198.792 19.2253 194.661 22.7674 190.636 23.6965L199 37.8987H189.893ZM190.675 12.631C190.675 9.50003 188.272 7.60228 185.086 7.60228H176.744V17.6654H185.069C188.255 17.6654 190.658 15.762 190.658 12.631" fill="#00643C"/>
<path d="M9.19189 37.848H18.1979L22.5828 25.0255C20.8266 25.0706 16.8189 25.0649 13.6443 26.2081L9.19189 37.848Z" fill="#00643C"/>
<path d="M45.4412 31.3213C43.2966 26.2531 32.9903 21.5059 23.8942 21.5059L28.5605 8.55396C28.5605 8.55396 28.6449 8.59338 33.3787 21.5341C38.8949 22.3112 43.3811 26.2757 43.3811 26.2757L33.5194 0.613831H23.5734L15.2372 22.1648C14.1395 22.3901 11.0381 23.1165 9.60838 22.7279C6.50129 21.9508 4.23852 19.9123 3.3548 15.8127C4.04364 17.2465 4.93456 18.574 6.00033 19.7546C8.03232 21.9058 10.2444 22.2155 12.1413 22.2324H12.828C8.64585 20.1713 5.51062 16.9333 2.3585 9.94489L2.12209 10.2602C2.06581 10.3391 -3.63615 18.1441 3.99085 24.1358C6.97973 26.2813 10.9143 25.3014 14.0776 24.5131L14.7362 24.3498C19.5358 23.2284 24.5444 23.3759 29.2697 24.7777C31.1838 25.1895 32.9549 26.1007 34.4032 27.4188C35.574 28.5789 35.8779 29.9416 36.514 31.5691C37.0768 32.96 38.8386 37.8987 38.8386 37.8987H47.8785L45.4412 31.3213Z" fill="#00643C"/>
</svg>
