<svg id="Layer_1" data-name="Layer 1" xmlns="http://www.w3.org/2000/svg" xmlns:xlink="http://www.w3.org/1999/xlink" viewBox="0 0 991.85 147.52"><defs><style>.cls-1{fill:url(#linear-gradient);}.cls-2{fill:url(#linear-gradient-2);}.cls-3{fill:url(#linear-gradient-3);}.cls-4{fill:url(#linear-gradient-4);}.cls-5{fill:url(#linear-gradient-5);}.cls-6{fill:url(#linear-gradient-6);}.cls-7{fill:url(#linear-gradient-7);}.cls-8{fill:url(#linear-gradient-8);}.cls-9{fill:url(#linear-gradient-9);}.cls-10{fill:url(#linear-gradient-10);}.cls-11{fill:url(#linear-gradient-11);}.cls-12{fill:#2d2d2d;}</style><linearGradient id="linear-gradient" x1="173.93" y1="0.86" x2="173.93" y2="143.3" gradientUnits="userSpaceOnUse"><stop offset="0" stop-color="#ebbe06"/><stop offset="1" stop-color="#b27817"/></linearGradient><linearGradient id="linear-gradient-2" x1="232.73" y1="0.86" x2="232.73" y2="143.3" xlink:href="#linear-gradient"/><linearGradient id="linear-gradient-3" x1="295.1" y1="0.86" x2="295.1" y2="143.3" xlink:href="#linear-gradient"/><linearGradient id="linear-gradient-4" x1="115.12" y1="0.86" x2="115.12" y2="143.3" xlink:href="#linear-gradient"/><linearGradient id="linear-gradient-5" x1="52.75" y1="0.86" x2="52.75" y2="143.3" xlink:href="#linear-gradient"/><linearGradient id="linear-gradient-6" x1="453.12" y1="0.86" x2="453.12" y2="143.3" xlink:href="#linear-gradient"/><linearGradient id="linear-gradient-7" x1="549.34" y1="0.86" x2="549.34" y2="143.3" xlink:href="#linear-gradient"/><linearGradient id="linear-gradient-8" x1="646.01" y1="0.86" x2="646.01" y2="143.3" xlink:href="#linear-gradient"/><linearGradient id="linear-gradient-9" x1="743.41" y1="0.86" x2="743.41" y2="143.3" xlink:href="#linear-gradient"/><linearGradient id="linear-gradient-10" x1="843.73" y1="0.86" x2="843.73" y2="143.3" xlink:href="#linear-gradient"/><linearGradient id="linear-gradient-11" x1="942.75" y1="0.86" x2="942.75" y2="143.3" xlink:href="#linear-gradient"/></defs><path class="cls-1" d="M210.26,3a2,2,0,0,0-1.86-1.23h-69A2,2,0,0,0,137.59,3l-16.33,38a1,1,0,0,0,.88,1.34H225.71a1,1,0,0,0,.88-1.34Z"/><path class="cls-2" d="M196.39,55.59a2,2,0,0,1,1.86-1.22H267.2a2,2,0,0,1,1.86,1.22l16.33,38a1,1,0,0,1-.88,1.34H180.94a1,1,0,0,1-.88-1.34Z"/><path class="cls-3" d="M258.77,108.22a2,2,0,0,1,1.86-1.22h68.95a2,2,0,0,1,1.85,1.22l16.34,38a1,1,0,0,1-.88,1.34H243.32a1,1,0,0,1-.89-1.34Z"/><path class="cls-4" d="M151.46,55.59a2,2,0,0,0-1.86-1.22H80.65a2,2,0,0,0-1.86,1.22l-16.33,38a1,1,0,0,0,.88,1.34H166.91a1,1,0,0,0,.88-1.34Z"/><path class="cls-5" d="M89.08,108.22A2,2,0,0,0,87.22,107H18.27a2,2,0,0,0-1.85,1.22l-16.34,38A1,1,0,0,0,1,147.52H104.53a1,1,0,0,0,.89-1.34Z"/><path class="cls-6" d="M426,73.41l4.18-9.68h46.17l4.3,9.81a18.29,18.29,0,0,1,.75,2h20.75c-.22-.63-.46-1.25-.78-2L474,13.43C469.88,4.27,463.22,0,453.06,0,442.69,0,436.19,4.14,432,13.43L404.85,73.55c-.32.7-.56,1.32-.78,2h21.26A18.91,18.91,0,0,1,426,73.41ZM448.9,20.48a4.42,4.42,0,0,1,4.28-3,4.55,4.55,0,0,1,4.39,3L469.82,49H436.75Z"/><path class="cls-7" d="M573.49,50c0,5.35-2.86,8.06-8.51,8.06H533.47c-5.5,0-8.28-2.71-8.28-8.06V1.68H506.77V52.27c0,16.5,7.41,23.23,25.58,23.23h34c18.17,0,25.58-6.73,25.58-23.23V1.68H573.49Z"/><path class="cls-8" d="M687.13,54.18c0-9-2.61-12.33-6.81-14.85L679,38.56l1.21-.88c4.56-3.32,6.77-8.2,6.77-14.9a20.72,20.72,0,0,0-5.78-14.23c-4.38-4.62-10.49-6.87-18.68-6.87H608.72c-2.8,0-4.05,1.15-4.05,3.72V75.5H623V48.59H659.3c6.51,0,9.29,2.31,9.29,7.72V71.45a39.1,39.1,0,0,0,.22,4h18.55c-.15-1.67-.23-3.41-.23-6.18ZM666.34,30.49a7.9,7.9,0,0,1-6.48,2.82H623V18.65h36.88a8.12,8.12,0,0,1,6.2,2.31,7,7,0,0,1,2,5A7.33,7.33,0,0,1,666.34,30.49Z"/><path class="cls-9" d="M735.45,75.5h15.92c12.49,0,22.5-4,29.77-12a36.68,36.68,0,0,0,9.5-24.9,37.18,37.18,0,0,0-11.9-27.19c-7-6.45-16.24-9.72-27.37-9.72H735.45c-11.12,0-20.33,3.27-27.36,9.72a37.15,37.15,0,0,0-11.91,27.19,36.73,36.73,0,0,0,9.5,24.9C713,71.46,723,75.5,735.45,75.5ZM720.42,25c3.81-3.55,8.58-5.2,15-5.2h15.92c6.45,0,11.23,1.65,15,5.2a18.87,18.87,0,0,1,5.92,13.73,18.56,18.56,0,0,1-5,12.67c-3.7,4.09-9.08,6.16-16,6.16H735.45c-6.91,0-12.29-2.07-16-6.15a18.57,18.57,0,0,1-5-12.68A18.84,18.84,0,0,1,720.42,25Z"/><path class="cls-10" d="M820.69,48.59H857c6.52,0,9.3,2.31,9.3,7.72V71.45a36.51,36.51,0,0,0,.22,4h18.55c-.15-1.67-.24-3.41-.24-6.18V54.18c0-9-2.6-12.33-6.81-14.85l-1.28-.77,1.21-.88c4.56-3.32,6.77-8.2,6.77-14.9A20.77,20.77,0,0,0,879,8.55c-4.39-4.62-10.5-6.87-18.68-6.87H806.44c-2.81,0-4.05,1.15-4.05,3.72V75.5h18.3Zm0-27.27V18.65h36.89A8.1,8.1,0,0,1,863.77,21a7,7,0,0,1,2,5,7.28,7.28,0,0,1-1.7,4.57,7.86,7.86,0,0,1-6.47,2.82H820.69Z"/><path class="cls-11" d="M915.65,73.41l4.19-9.68H966l4.3,9.81a18.29,18.29,0,0,1,.75,2H991.8c-.22-.63-.46-1.25-.78-2L963.66,13.43C959.51,4.27,952.85,0,942.69,0c-10.37,0-16.87,4.14-21.07,13.43L894.48,73.55c-.32.7-.56,1.32-.78,2H915A18.91,18.91,0,0,1,915.65,73.41Zm22.88-52.93a4.43,4.43,0,0,1,4.28-3,4.54,4.54,0,0,1,4.39,3L959.46,49H926.39Z"/><path class="cls-12" d="M454.4,121.08h-6.66a2.76,2.76,0,0,0-2.76,2.76v11.88H430.35c-4.49,0-8.09-1.46-10.7-4.34a12.49,12.49,0,0,1-3.33-8.49,12.63,12.63,0,0,1,4-9.19c2.55-2.38,5.75-3.48,10.06-3.48h24a2.76,2.76,0,0,0,2.76-2.76v-6.59a2.76,2.76,0,0,0-2.76-2.76h-24c-7.44,0-13.61,2.19-18.31,6.5a24.87,24.87,0,0,0-8,18.21,24.58,24.58,0,0,0,6.36,16.66c4.86,5.34,11.56,8,19.92,8h21.49a5.32,5.32,0,0,0,5.32-5.32V123.84A2.77,2.77,0,0,0,454.4,121.08Z"/><path class="cls-12" d="M519.9,104.62c-4.71-4.32-10.87-6.51-18.31-6.51H490.93c-7.45,0-13.61,2.19-18.32,6.5a24.9,24.9,0,0,0-8,18.21A24.57,24.57,0,0,0,471,139.48c4.87,5.34,11.57,8,19.93,8h10.66c8.35,0,15.06-2.7,19.92-8a24.58,24.58,0,0,0,6.36-16.66A24.87,24.87,0,0,0,519.9,104.62Zm-7.61,26.75c-2.48,2.74-6.08,4.12-10.7,4.12H490.93c-4.63,0-8.23-1.38-10.7-4.11a12.44,12.44,0,0,1-3.33-8.49,12.62,12.62,0,0,1,4-9.19c2.56-2.38,5.75-3.48,10.07-3.48h10.66c4.31,0,7.51,1.1,10.06,3.48a12.62,12.62,0,0,1,4,9.19A12.44,12.44,0,0,1,512.29,131.37Z"/><path class="cls-12" d="M584.48,135.87H552.71c-3.87,0-5.17-1.38-5.17-5.47V100.87a2.77,2.77,0,0,0-2.77-2.76H538a2.76,2.76,0,0,0-2.76,2.76v28a18.61,18.61,0,0,0,18.6,18.61h30.67a2.75,2.75,0,0,0,2.76-2.76v-6.13A2.75,2.75,0,0,0,584.48,135.87Z"/><path class="cls-12" d="M642.18,104.62c-4.71-4.32-10.87-6.51-18.32-6.51H596.47c-1.83,0-2.64.77-2.64,2.49V145c0,1.77.81,2.56,2.64,2.56h27.39c8.36,0,15.07-2.7,19.93-8a24.58,24.58,0,0,0,6.36-16.66A24.87,24.87,0,0,0,642.18,104.62Zm-7.61,26.75c-2.48,2.74-6.08,4.12-10.71,4.12H606.08V110.22h17.78c4.32,0,7.52,1.1,10.07,3.48a12.62,12.62,0,0,1,4,9.19A12.44,12.44,0,0,1,634.57,131.37Z"/><path class="cls-12" d="M738.18,123.26l-1-.53,1-.62a11.31,11.31,0,0,0,4.8-9.73,13.84,13.84,0,0,0-3.65-9.68c-2.82-3-6.85-4.59-12-4.59H691.05c-1.88,0-2.72.77-2.72,2.49V145c0,1.8.81,2.56,2.72,2.56h37c5.34,0,9.28-1.57,12-4.79a14,14,0,0,0,3.37-9C743.45,129,741.43,125,738.18,123.26Zm-37.59-7.12v-6.6H724.9a5.2,5.2,0,0,1,4.28,1.76,4.52,4.52,0,0,1,0,5.77,5,5,0,0,1-4.28,1.83H700.59Zm28.72,18.66a5.46,5.46,0,0,1-4.49,1.74H700.59v-9.89h24.23a5.43,5.43,0,0,1,4.4,1.65,4.83,4.83,0,0,1,1.3,3.22A5.12,5.12,0,0,1,729.31,134.8Z"/><path class="cls-12" d="M804,98.11h-6.81a2.76,2.76,0,0,0-2.76,2.76v29.6c0,3.58-1.92,5.4-5.7,5.4H767.61c-3.68,0-5.54-1.82-5.54-5.4v-29.6a2.77,2.77,0,0,0-2.76-2.76H752.5a2.76,2.76,0,0,0-2.76,2.76V132c0,11.05,5,15.55,17.12,15.55H789.6c12.17,0,17.13-4.5,17.13-15.55v-31.1A2.77,2.77,0,0,0,804,98.11Z"/><path class="cls-12" d="M857.76,99.1c-.15.18-.32.35-.48.52l-12.71,13.91a2,2,0,0,1-3.06,0L828.77,99.64a5.68,5.68,0,0,1-.48-.52,2.74,2.74,0,0,0-2.13-1H812.52c.15.17.32.37.55.61l22.5,24.78a2.74,2.74,0,0,1,.71,1.85v19.41a2.76,2.76,0,0,0,2.76,2.76h6.89a2.76,2.76,0,0,0,2.76-2.76V126.25a2.76,2.76,0,0,1,.71-1.85l23.26-25.68.54-.61H859.87A2.77,2.77,0,0,0,857.76,99.1Z"/><path class="cls-12" d="M889.15,136.86V127H926a2.77,2.77,0,0,0,2.76-2.76v-2.91A2.77,2.77,0,0,0,926,118.6h-36.8v-9.38h37a2.77,2.77,0,0,0,2.76-2.76v-5.59a2.77,2.77,0,0,0-2.76-2.76H883.43c-4.46,0-6.54,2-6.54,6.17v36.85c0,4.36,2.06,6.39,6.47,6.39h42.81a2.76,2.76,0,0,0,2.76-2.76v-5.14a2.77,2.77,0,0,0-2.76-2.76h-37Z"/><path class="cls-12" d="M991.83,143.38V133.25c0-6-1.74-8.25-4.55-9.94l-.86-.51.81-.6c3-2.22,4.53-5.48,4.53-10a13.89,13.89,0,0,0-3.87-9.52c-2.94-3.09-7-4.6-12.5-4.6h-36c-1.87,0-2.71.77-2.71,2.49v44.16a2.76,2.76,0,0,0,2.76,2.76h6.74a2.76,2.76,0,0,0,2.76-2.76V129.51h24.31c4.36,0,6.22,1.54,6.22,5.17v10.16a2.73,2.73,0,0,0,2.76,2.68h6.9a2.77,2.77,0,0,0,2.76-2.82C991.84,144.3,991.83,143.87,991.83,143.38Zm-13.91-26a5.27,5.27,0,0,1-4.34,1.89H948.9v-9.81h24.68a5.44,5.44,0,0,1,4.15,1.54,4.7,4.7,0,0,1,1.32,3.32A4.83,4.83,0,0,1,977.92,117.39Z"/></svg>