<svg width="231" height="58" viewBox="0 0 231 58" fill="none" xmlns="http://www.w3.org/2000/svg">
<rect y="7.09009" width="50.7561" height="50.7561" rx="25.3781" fill="url(#paint0_linear_444_2326)"/>
<path d="M34.9376 24.5853C34.9376 24.5853 37.7943 24.064 39.7009 25.8936C39.7009 25.8936 41.5631 24.9554 43.9891 26.024C43.9891 26.024 41.0691 25.0909 39.5109 26.8006C38.8901 24.8094 34.9376 24.5853 34.9376 24.5853Z" fill="#00123B"/>
<path d="M8.20569 19.763C8.20569 19.763 11.0624 19.2418 12.969 21.0714C12.969 21.0714 14.8312 20.1331 17.2572 21.2017C17.2572 21.2017 14.3372 20.2686 12.7789 21.9784C12.1582 19.9872 8.20569 19.763 8.20569 19.763Z" fill="#00123B"/>
<path d="M5.49866 25.4875C5.49866 25.4875 7.18064 25.1786 8.30321 26.2628C8.30321 26.2628 9.39967 25.7068 10.8281 26.34C10.8281 26.34 9.10877 25.7871 8.19132 26.8003C7.82584 25.6203 5.49866 25.4875 5.49866 25.4875Z" fill="#00123B"/>
<mask id="mask0_444_2326" style="mask-type:alpha" maskUnits="userSpaceOnUse" x="0" y="7" width="51" height="51">
<rect y="7.09033" width="50.7561" height="50.7561" rx="25.3781" fill="url(#paint1_linear_444_2326)"/>
<path d="M34.9376 24.5855C34.9376 24.5855 37.7943 24.0643 39.7009 25.8939C39.7009 25.8939 41.5631 24.9556 43.9891 26.0242C43.9891 26.0242 41.0691 25.0911 39.5109 26.8009C38.8901 24.8097 34.9376 24.5855 34.9376 24.5855Z" fill="#00123B"/>
<path d="M8.20569 19.7635C8.20569 19.7635 11.0624 19.2422 12.969 21.0719C12.969 21.0719 14.8312 20.1336 17.2572 21.2022C17.2572 21.2022 14.3372 20.2691 12.7789 21.9788C12.1582 19.9876 8.20569 19.7635 8.20569 19.7635Z" fill="#00123B"/>
<path d="M5.49866 25.488C5.49866 25.488 7.18064 25.1791 8.30321 26.2633C8.30321 26.2633 9.39967 25.7073 10.8281 26.3405C10.8281 26.3405 9.10877 25.7876 8.19132 26.8008C7.82584 25.6208 5.49866 25.488 5.49866 25.488Z" fill="#00123B"/>
</mask>
<g mask="url(#mask0_444_2326)">
<path d="M29.5249 11.6622L24.1175 11.467L29.5249 11.6622Z" fill="white"/>
<path d="M30.5166 11.7564L30.4783 11.753L30.5166 11.7361L30.4783 11.753L30.5166 11.7564Z" fill="white"/>
<path d="M29.4028 10.3239H29.3807L29.3606 10.3218L28.8417 10.3154L29.3606 10.3218L29.4028 10.3239Z" fill="white"/>
<path d="M29.547 11.1409L29.5428 10.9943L24.8684 10.8171L29.527 10.4596L29.5238 10.3267V10.3236L29.5175 10.1453L29.5101 9.87743L25.8324 10.1864L29.5101 9.87743L29.5069 9.75086L26.9377 9.65383L29.1768 9.43235L26.9377 9.65383L29.5069 9.75086L29.4964 9.40071L29.4932 9.25727L29.4837 8.95774L29.4795 8.79321L29.9573 8.79954V10.1516L29.5175 10.1453L29.5238 10.3236L29.9573 10.3299V11.702L29.5618 11.6641V11.663L29.547 11.1409ZM29.527 10.4607L24.8684 10.8182L29.5428 10.9954L29.527 10.4607Z" fill="white"/>
<path d="M31.9875 9.65869V10.8378L30.6449 10.243L31.9875 9.65869Z" fill="white"/>
<path d="M28.1939 5.19702L29.0925 5.52608V8.55513L28.1939 8.35158V5.19702Z" fill="white"/>
<path d="M20.9531 5.50355L21.761 5.20508V8.23729L20.9531 8.24151V5.50355Z" fill="white"/>
<path d="M30.5142 11.7359L31.9875 11.083V12.1514L30.5142 11.7464V11.7359Z" fill="white"/>
<path d="M25.1558 5.13965L27.7861 5.1407V8.33112L25.1558 8.26889V5.13965Z" fill="white"/>
<path d="M30.5123 10.1316V8.9314L31.856 9.52518L30.5123 10.1316Z" fill="white"/>
<path d="M30.5184 11.5421V10.3799L31.8325 10.961L30.5184 11.5421Z" fill="white"/>
<path d="M20.5391 11.2202H19.9569V9.89233L20.5359 9.90077L20.5391 11.2202Z" fill="white"/>
<path d="M24.7548 8.26151L24.0407 8.25518V7.70675L24.4405 7.39878V5.6923L24.0407 5.44551V5.13965H24.7548V8.26151Z" fill="white"/>
<path d="M19.3971 9.76367L19.3542 9.78206L19.3971 9.80045L19.3542 9.78206L19.3971 9.76367Z" fill="white"/>
<path d="M22.1619 5.1377H23.6268V5.44672L23.2261 5.69246V7.39893L23.6268 7.70585V8.25217L22.1619 8.24057V5.1377Z" fill="white"/>
<path d="M19.3971 8.40625V9.60753L18.0176 9.01691L19.3971 8.40625Z" fill="white"/>
<path d="M17.952 9.18164L19.3547 9.78281L17.952 10.3987V9.18164Z" fill="white"/>
<path d="M20.5391 9.72283L19.96 9.7165V8.40869L20.5348 8.41607L20.5391 9.72283Z" fill="white"/>
<path d="M19.3971 9.95801V11.1371L18.0587 10.5465L19.3971 9.95801Z" fill="white"/>
<path d="M19.3501 11.311L17.9516 11.6896V10.6919L19.3501 11.311Z" fill="white"/>
<path d="M29.5485 11.6634L29.542 11.6621L29.5485 11.6634Z" fill="white"/>
<path d="M33.6385 50.4102L33.9053 50.9049L33.938 54.591L17.3658 54.9348L24.044 53.7609L24.2729 52.6187L23.7403 52.4668L24.121 51.8572L23.3595 51.3246L24.1969 50.6391L24.4258 45.9183L26.7461 45.68L26.7493 45.6768V47.34L28.5581 47.3464L28.5528 43.8627L30.8931 41.6595L30.8994 41.6542L32.8886 41.6279L32.8981 41.6089L33.5741 49.5696L33.5762 49.5876L33.5657 49.5443L33.6385 50.4102ZM28.6888 44.9037V45.0239H30.5925L28.6888 44.9037ZM24.5513 47.4539L24.564 47.8094L30.8203 47.7841L24.5513 47.4539ZM24.4374 49.5855V49.9282L30.9353 49.9156L24.4374 49.5855ZM24.1959 51.9711V52.3139L31.1251 52.3519L24.1959 51.9711Z" fill="white"/>
<path d="M32.1922 35.0556L32.1163 36.2231L32.4021 40.0274L32.9463 40.58L20.7267 40.4102L24.3443 39.3693L24.3485 39.3682L24.3506 39.2459L24.6797 18.8757H26.0666L26.0592 20.2647H28.1823V18.8757H30.8496L31.3305 26.7278L31.5615 27.4134L31.5499 27.2383L32.1932 35.0535L32.574 39.8639L32.594 39.8755L32.574 39.866L32.1922 35.0556ZM25.149 21.0937V21.4365H28.9564L25.149 21.0937ZM25.149 23.4921V23.8348H28.9564L25.149 23.4921ZM24.9961 25.8525V26.1952H28.9554L24.9961 25.8525ZM24.8948 28.2255V28.5683L29.0703 28.5556L24.8948 28.2255ZM24.8695 30.5732V30.916H29.2602L24.8695 30.5732ZM24.743 32.9346V33.2774H29.5281L24.743 32.9346ZM24.6786 35.3077V35.6505L29.8698 35.6378L24.6786 35.3077ZM24.6154 37.6554V37.9982H29.9457L24.6154 37.6554Z" fill="white"/>
<path d="M30.7232 16.8685L30.8456 18.8767H28.1793V16.8042H26.0753L26.0636 18.8767H24.6767L24.7358 15.2253L29.2393 15.2306L30.758 15.8655L30.8097 16.549L30.7232 16.8685Z" fill="white"/>
<path d="M29.5186 10.1466L29.5249 10.3248V10.328L29.3983 10.3237L29.3562 10.3216L27.6286 10.2562H27.6275L25.8335 10.1877L29.5112 9.87866L29.5186 10.1466Z" fill="white"/>
<path d="M26.9369 9.65498L29.176 9.4335L29.4956 9.40186L29.5061 9.75201L26.9369 9.65498Z" fill="white"/>
<path d="M27.6321 9.18785L29.4884 8.95898L29.4968 9.25957L27.6321 9.18785Z" fill="white"/>
<path d="M29.5279 10.4609L29.5437 10.9957L24.8693 10.8185L29.5279 10.4609Z" fill="white"/>
<path d="M26.1801 11.3439L29.5477 11.1414L29.5625 11.6645L29.5404 11.6624H29.5277L24.1203 11.4673L26.1759 11.3439H26.1801Z" fill="white"/>
<path d="M31.9876 12.1557L32.5466 12.3096V12.3054L32.9558 12.4172L32.4728 13.1355L32.4475 13.1745L30.5174 12.4636L30.5142 11.93V11.7549L30.5248 11.757L31.9876 12.1557Z" fill="white"/>
<path d="M20.5322 8.24312V8.41609L19.9574 8.40871V8.23047L20.5438 8.23785V8.24312H20.5322Z" fill="#5E5E5E"/>
<path d="M19.3971 9.76367V9.80045L19.3542 9.78206L19.3971 9.76367Z" fill="#5E5E5E"/>
<path d="M30.5166 11.7564L30.4783 11.753L30.5166 11.7361V11.7473V11.7564Z" fill="#5E5E5E"/>
<path d="M17.0731 54.9515L16.6575 55.0295L33.9396 54.6593L33.9448 55.2078L34.5059 55.1983L34.4753 54.5802L34.5312 54.5792L34.4384 53.8556L34.4015 53.1142L39.4555 51.7484L43.187 53.4338V57.8529H8.20846V52.6807L14.8234 50.623L14.4859 53.2408L17.0731 54.9515Z" fill="#08324C"/>
<path d="M17.3647 54.9364L33.9369 54.5925L33.938 54.66L16.656 55.0302L17.0715 54.9522L17.1137 54.9796L17.3647 54.9364Z" fill="#08324C"/>
<path d="M31.9875 12.1516V12.1558L30.5247 11.7571L30.5142 11.755V11.7466L31.9875 12.1516Z" fill="white"/>
<path d="M32.5469 12.3096L31.9879 12.1556V12.1514L32.5469 12.3054V12.3096Z" fill="white"/>
<path d="M29.5625 11.6648V11.6659L29.5476 11.6648H29.5625Z" fill="#5E5E5E"/>
<path d="M27.6271 10.2561H27.6281L29.3557 10.3215L28.8368 10.3152L27.6271 10.3004V10.2561Z" fill="#5E5E5E"/>
<path d="M29.5625 11.6644H29.5468L29.5445 11.6632L29.5389 11.6621L29.5625 11.6644Z" fill="#5E5E5E"/>
<path d="M24.553 47.4541L30.822 47.7832L24.5656 47.8095L24.553 47.4541Z" fill="#08324C"/>
<path d="M28.6927 44.9038L30.5964 45.023H28.6927V44.9038Z" fill="#08324C"/>
<path d="M24.4369 49.5854L30.9348 49.9156L24.4369 49.9282V49.5854Z" fill="#08324C"/>
<path d="M24.1935 51.9714L31.1228 52.3522L24.1935 52.3142V51.9714Z" fill="#08324C"/>
<path d="M25.1489 23.4924L28.9563 23.8352H25.1489V23.4924Z" fill="#08324C"/>
<path d="M24.996 25.8533L28.9563 26.196H24.996V25.8533Z" fill="#08324C"/>
<path d="M25.1489 21.0942L28.9563 21.437H25.1489V21.0942Z" fill="#08324C"/>
<path d="M24.8936 28.2258L29.0691 28.5559L24.8936 28.5686V28.2258Z" fill="#08324C"/>
<path d="M24.8664 30.5737L29.2571 30.9165H24.8664V30.5737Z" fill="#08324C"/>
<path d="M24.7409 32.9353L29.5249 33.2781H24.7409V32.9353Z" fill="#08324C"/>
<path d="M24.6817 35.3081L29.8728 35.6382L24.6817 35.6509V35.3081Z" fill="#08324C"/>
<path d="M24.6129 37.656L29.9432 37.9988H24.6129V37.656Z" fill="#08324C"/>
<path d="M31.3312 26.7278L30.943 18.8757H30.9831L31.5505 27.2383L31.4577 26.1193L31.3312 26.7278Z" fill="#08324C"/>
<path d="M30.8543 17.1025L30.8132 16.5488L30.8216 16.5161L30.9819 18.8765H30.9419L30.8543 17.1025Z" fill="#08324C"/>
<path d="M31.329 26.7287L31.4555 26.1201L31.5483 27.2391L31.5599 27.4142L31.329 26.7287Z" fill="#08324C"/>
<path d="M31.3296 26.7278L30.8487 18.8757H30.9415L31.3296 26.7278Z" fill="#08324C"/>
<path d="M30.8109 16.5481L30.852 17.1018L30.9396 18.8758H30.8468L30.7244 16.8677L30.8109 16.5481Z" fill="#08324C"/>
<path d="M33.8848 40.6259L32.5886 39.876L34.2434 40.6385L33.2963 40.8052L33.3891 40.6195L33.8848 40.6259Z" fill="#08324C"/>
<path d="M33.3953 40.6196L33.4122 40.588L32.9481 40.5816L32.4039 40.0279L32.1181 36.2237L32.194 35.0562L32.5747 39.8666L32.5948 39.8761L33.891 40.6259L33.3953 40.6196Z" fill="#08324C"/>
<path d="M34.4416 53.8559L34.4785 54.5805L33.9797 54.5911L33.9332 50.8649L33.6622 50.3934L33.5778 49.5876L33.7951 50.4483L34.1284 50.906L34.2138 52.0482L34.3667 52.352L34.4047 53.1145L34.3498 53.1293L34.4416 53.8559Z" fill="#08324C"/>
<path d="M33.9292 50.8647L33.9756 54.5908L33.9376 54.5919L33.906 50.9058L33.6391 50.4101L33.5632 49.5442L33.5738 49.5874L33.6581 50.3932L33.9292 50.8647Z" fill="#08324C"/>
<path d="M33.9725 54.5909L34.4714 54.5803L34.502 55.1984L33.9409 55.2079L33.9356 54.6594L33.9736 54.6584L33.9725 54.5909Z" fill="#08324C"/>
<path d="M34.3492 53.1293L34.404 53.1145L34.4409 53.8559L34.3492 53.1293Z" fill="#08324C"/>
<path d="M33.9792 54.5911L33.9802 54.658L33.9426 54.659L33.9416 54.5921L33.9792 54.5911Z" fill="#08324C"/>
<path d="M26.3278 19.4695H27.3424V18.8757H28.1809V20.2647H26.0578L26.0652 18.8757H26.3299L26.3278 19.4695Z" fill="#08324C"/>
<path d="M28.1809 16.8037V18.8762H27.3424V17.1465H26.3363L26.3299 18.8762H26.0652L26.0768 16.8037H28.1809Z" fill="#08324C"/>
<path d="M27.9715 45.6644V44.4073L28.5506 43.863L28.5569 47.3456L26.7481 47.3393V45.6771L26.7544 45.6697L27.9715 45.6644Z" fill="#08324C"/>
<path d="M24.3534 39.2463L24.3513 39.3686L24.3471 39.3697L20.5703 40.4085L20.7295 40.4107L20.5154 40.4718L32.9828 40.6142L33.1896 40.8241L33.3035 40.804L32.8985 41.6077L32.889 41.5001L30.8998 41.652L30.8935 41.6573L28.5532 43.7888L28.5521 43.4091L26.7497 43.4028V45.4309L26.5081 45.6514L24.3629 45.8549L24.1467 50.601L23.265 51.3435L24.0296 51.8814L23.6489 52.491L24.1815 52.6745L23.9294 53.6691L17.3282 54.903L14.9056 50.5968L14.8244 50.6221L14.8318 50.562L15.4414 50.0294L16.6353 40.7777L15.4245 40.5372L16.8114 39.8264L18.8807 18.8772H24.616L24.3534 39.2463ZM25.1518 45.3276H26.5989V45.0755L25.1518 44.9848V45.3276Z" fill="#08324C"/>
<path d="M17.0641 11.9302L17.3943 11.8405V8.55517H17.9522V8.85048L19.3992 8.21239V7.98353H19.9582V8.22927L19.588 8.22505L19.5859 8.40224L19.9592 8.40646V9.71426L20.5383 9.72059L20.534 8.41384L22.2099 8.43493L22.212 8.25774L20.5467 8.23665V5.65268H20.5456V5.13167L19.9065 4.83635L24.4279 2.05727L24.4659 1.18188L24.237 0.687234L24.8814 0.153564L25.605 0.610242L25.491 1.06692V1.19454L25.2305 1.22512H25.2316H25.2305L25.491 1.24832V1.54996L25.0027 1.60586H25.0038H25.0027L25.4921 1.64805V1.96024L24.8603 2.03301H24.8614H24.8603L25.4921 2.08785V2.09418L25.761 2.25133L24.4321 2.40531H24.4332H24.4321L26.3053 2.56668L26.3063 2.56773L26.5542 2.71117L24.0071 2.87359H24.0082H24.0061L27.1058 3.03179H27.1068L27.3178 3.15308L23.0284 3.43785H23.0294H23.0273L28.248 3.69413L28.4716 3.82386L22.1393 4.24468H22.1403H22.1382L29.6908 4.53261L30.2487 4.85534L29.4967 5.13061V5.59678H29.4978V8.61528L29.9576 8.62161V8.09743H30.5156V8.73657L31.9879 9.38731V9.11204H32.5469V12.3046L31.9879 12.1506V11.0832L30.5156 11.735L30.4786 11.7519L30.5156 11.7551V11.9302L30.5187 12.4628L32.4488 13.1736L30.7613 15.8652V15.8641L29.2415 15.2292L24.6621 15.1912L24.6146 18.8752H18.8792L19.1767 15.8641L17.0641 11.9302ZM21.7585 5.20549L20.9496 5.50397V8.24193L21.7585 8.23771V5.20549ZM31.9889 9.65836L30.6474 10.2427L31.9889 10.8364V9.65836ZM30.5156 11.542L31.8297 10.9598L30.5156 10.3798V11.542ZM30.5156 10.1319L31.8592 9.52547L30.5156 8.93169V10.1319ZM27.7881 5.14116L25.1578 5.1401V8.26935L27.7881 8.33157V5.14116ZM29.0917 5.52612L28.1931 5.19706V8.35161L29.0917 8.55517V5.52612ZM29.5273 11.6623H29.54L29.5452 11.6633H29.5474L29.5621 11.6644L29.9576 11.7023V10.3313L29.5242 10.3249L29.5178 10.1467L29.9576 10.153V8.80091L29.4799 8.79458L29.4841 8.95911L27.6278 9.18797L29.4936 9.25969L29.4967 9.40313L29.1772 9.43477L26.9381 9.65625L29.5073 9.75328L29.5104 9.87985L25.8328 10.1889L27.6268 10.2574V10.3017L28.8365 10.3165L29.3554 10.3228L29.3754 10.3239H29.3986L29.5252 10.3281L29.5284 10.461L24.8698 10.8185L29.5442 10.9957L29.5484 11.1423L26.1808 11.3448H26.1766L24.121 11.4682L29.5273 11.6623ZM24.0377 5.44596L24.4385 5.69276V7.39923L24.0377 7.7072V8.25564L24.7517 8.26196V5.1401H24.0377V5.44596ZM23.6306 7.70615L23.2298 7.40029V5.69276L23.6306 5.44807V5.13905H22.1656V8.24087L23.6306 8.25353V7.70615ZM19.9571 11.484L19.994 11.4007L19.9571 11.3838V11.484ZM19.9571 11.2203H20.5393L20.5362 9.89989L19.9571 9.8925V11.2203ZM19.3981 8.40646L18.0186 9.01712L19.3981 9.60774V8.40646ZM19.3981 9.76383L19.3539 9.78387L17.9511 9.1827V10.3998L19.3539 9.78493L19.3981 9.80285V9.76383ZM19.3981 9.95789L18.0598 10.5454L19.3981 11.136V9.95789ZM19.3981 11.2973L19.3496 11.3111L17.9511 10.693V11.6907L19.3496 11.3111L19.3981 11.3321V11.2973Z" fill="#08324C"/>
<path d="M28.5512 43.7912L30.8926 41.6597L28.5512 43.8629V43.7912Z" fill="#08324C"/>
<path d="M26.7511 45.6694H26.7522V45.6767L26.749 45.6788L24.4287 45.9183L24.2009 50.639L23.3635 51.3246L24.125 51.8572L23.7442 52.4668L24.2769 52.6187L24.048 53.7609L17.3697 54.9358H17.3486L17.3307 54.9042L23.932 53.6702L24.184 52.6756L23.6514 52.4921L24.0322 51.8825L23.2675 51.3446L24.1503 50.6021L24.3655 45.856L26.5107 45.6535L26.7522 45.4331V45.6694H26.7511Z" fill="#08324C"/>
<path d="M30.896 41.6539L30.8971 41.6529L32.8852 41.501L32.8947 41.6086L32.8852 41.6275L30.896 41.6539Z" fill="#08324C"/>
<path d="M24.3505 39.2459L24.6142 18.8757H24.6796L24.3505 39.2459Z" fill="#08324C"/>
<path d="M32.9792 40.6152L20.5118 40.4728L20.7259 40.4116L32.9455 40.5814L32.9792 40.6152Z" fill="#08324C"/>
<path d="M24.3414 39.3708L24.3459 39.3696L24.3414 39.3708Z" fill="#08324C"/>
<path d="M24.7387 15.2246L24.6797 18.8759H24.6143L24.6628 15.1919L29.2412 15.2299L30.761 15.8648L29.2422 15.2299L24.7387 15.2246Z" fill="#08324C"/>
<path d="M27.6262 10.2565L25.8322 10.188L27.6262 10.2565Z" fill="#08324C"/>
<path d="M29.4968 9.40186L29.1773 9.4335L29.4968 9.40186Z" fill="#08324C"/>
<path d="M29.4968 9.25957L27.6311 9.18785L29.4884 8.95898L27.6321 9.18785L29.4968 9.25957Z" fill="#08324C"/>
<path d="M26.5923 45.3271H25.1463V44.9844L26.5923 45.0751V45.3271Z" fill="#08324C"/>
<path d="M19.584 8.40302L19.5861 8.22583L19.9563 8.23005V8.40829L19.584 8.40302Z" fill="#08324C"/>
<path d="M22.2054 8.43688L20.5306 8.41579V8.24282H20.5422V8.23755L22.2075 8.25864L22.2054 8.43688Z" fill="#08324C"/>
<path d="M19.9569 11.4841V11.3838L19.9939 11.4007L19.9569 11.4841Z" fill="#08324C"/>
<path d="M19.349 11.3107L19.3971 11.2971V11.3316L19.349 11.3107Z" fill="#08324C"/>
<path d="M17.3292 54.9044L17.075 54.9519L14.4879 53.2412L14.8254 50.6235L14.9066 50.5981L17.3292 54.9044Z" fill="#08324C"/>
<path d="M17.3621 54.9354L17.111 54.9787L17.0689 54.9513L17.323 54.9038L17.341 54.9354H17.3621Z" fill="#08324C"/>
<path d="M27.6244 10.3004L28.8341 10.3152L27.6244 10.3004V10.2561V10.3004Z" fill="#08324C"/>
<path d="M29.5485 11.6647L29.5452 11.6631L29.5485 11.6647Z" fill="#08324C"/>
<path d="M32.9794 40.6152L33.3928 40.6195L33.3 40.8051L33.1861 40.8251L32.9794 40.6152Z" fill="#08324C"/>
<path d="M33.407 40.5879L33.3901 40.6195L32.9767 40.6153L32.9429 40.5815L33.407 40.5879Z" fill="#08324C"/>
<path d="M26.7497 43.4045L28.5521 43.4109V43.7906L26.7497 45.4327V43.4045Z" fill="#08324C"/>
<path d="M26.7568 45.6692L26.7493 45.678V45.6692H26.7568Z" fill="#08324C"/>
<path d="M27.9731 44.4072L26.7497 45.6696V45.4334L28.5521 43.7913V43.863L27.9731 44.4072Z" fill="#08324C"/>
<path d="M26.7523 45.6694L27.9694 44.407V45.6642L26.7523 45.6694Z" fill="white"/>
<path d="M26.7459 45.6694L27.9694 44.407L26.7523 45.6694H26.7459Z" fill="white"/>
<path d="M26.3296 19.4695L26.3317 18.8757H27.3442V19.4695H26.3296Z" fill="white"/>
<path d="M26.3381 17.147H27.3442V18.8767H26.3317L26.3381 17.147Z" fill="white"/>
</g>
<path d="M29.5249 11.6622L24.1175 11.467L29.5249 11.6622Z" fill="white"/>
<path d="M30.5166 11.7561L30.4783 11.7527L30.5166 11.7358L30.4783 11.7527L30.5166 11.7561Z" fill="white"/>
<path d="M29.4028 10.3239H29.3807L29.3606 10.3218L28.8417 10.3154L29.3606 10.3218L29.4028 10.3239Z" fill="white"/>
<path d="M29.547 11.1407L29.5428 10.9941L24.8684 10.8169L29.527 10.4594L29.5238 10.3265V10.3233L29.5175 10.1451L29.5101 9.87718L25.8324 10.1862L29.5101 9.87718L29.5069 9.75062L26.9377 9.65359L29.1768 9.43211L26.9377 9.65359L29.5069 9.75062L29.4964 9.40047L29.4932 9.25703L29.4837 8.9575L29.4795 8.79297L29.9573 8.7993V10.1514L29.5175 10.1451L29.5238 10.3233L29.9573 10.3296V11.7018L29.5618 11.6638V11.6628L29.547 11.1407ZM29.527 10.4604L24.8684 10.818L29.5428 10.9951L29.527 10.4604Z" fill="white"/>
<path d="M31.9875 9.65796V10.8371L30.6449 10.2423L31.9875 9.65796Z" fill="white"/>
<path d="M28.1939 5.19653L29.0925 5.52559V8.55464L28.1939 8.35109V5.19653Z" fill="white"/>
<path d="M20.9531 5.50331L21.761 5.20483V8.23705L20.9531 8.24126V5.50331Z" fill="white"/>
<path d="M30.5142 11.7359L31.9875 11.083V12.1514L30.5142 11.7464V11.7359Z" fill="white"/>
<path d="M25.1558 5.13916L27.7861 5.14022V8.33063L25.1558 8.2684V5.13916Z" fill="white"/>
<path d="M30.5123 10.1316V8.9314L31.856 9.52518L30.5123 10.1316Z" fill="white"/>
<path d="M30.5184 11.5417V10.3794L31.8325 10.9605L30.5184 11.5417Z" fill="white"/>
<path d="M20.5391 11.2202H19.9569V9.89233L20.5359 9.90077L20.5391 11.2202Z" fill="white"/>
<path d="M24.7548 8.26102L24.0407 8.25469V7.70626L24.4405 7.39829V5.69181L24.0407 5.44502V5.13916H24.7548V8.26102Z" fill="white"/>
<path d="M19.3971 9.76318L19.3542 9.78157L19.3971 9.79996L19.3542 9.78157L19.3971 9.76318Z" fill="white"/>
<path d="M22.1619 5.1377H23.6268V5.44672L23.2261 5.69246V7.39893L23.6268 7.70585V8.25217L22.1619 8.24057V5.1377Z" fill="white"/>
<path d="M19.3971 8.40625V9.60753L18.0176 9.01691L19.3971 8.40625Z" fill="white"/>
<path d="M17.952 9.18164L19.3547 9.78281L17.952 10.3987V9.18164Z" fill="white"/>
<path d="M20.5391 9.72258L19.96 9.71625V8.40845L20.5348 8.41583L20.5391 9.72258Z" fill="white"/>
<path d="M19.3971 9.95752V11.1367L18.0587 10.546L19.3971 9.95752Z" fill="white"/>
<path d="M19.3501 11.3112L17.9516 11.6899V10.6921L19.3501 11.3112Z" fill="white"/>
<path d="M29.5485 11.6631L29.542 11.6619L29.5485 11.6631Z" fill="white"/>
<path d="M33.6385 50.41L33.9053 50.9046L33.938 54.5907L17.3658 54.9346L24.044 53.7607L24.2729 52.6185L23.7403 52.4666L24.121 51.857L23.3595 51.3244L24.1969 50.6388L24.4258 45.9181L26.7461 45.6797L26.7493 45.6766V47.3398L28.5581 47.3461L28.5528 43.8625L30.8931 41.6593L30.8994 41.654L32.8886 41.6276L32.8981 41.6086L33.5741 49.5694L33.5762 49.5873L33.5657 49.5441L33.6385 50.41ZM28.6888 44.9035V45.0237H30.5925L28.6888 44.9035ZM24.5513 47.4537L24.564 47.8091L30.8203 47.7838L24.5513 47.4537ZM24.4374 49.5852V49.928L30.9353 49.9153L24.4374 49.5852ZM24.1959 51.9709V52.3137L31.1251 52.3516L24.1959 51.9709Z" fill="white"/>
<path d="M32.1922 35.0559L32.1163 36.2234L32.4021 40.0276L32.9463 40.5803L20.7267 40.4105L24.3443 39.3695L24.3485 39.3685L24.3506 39.2461L24.6797 18.876H26.0666L26.0592 20.265H28.1823V18.876H30.8496L31.3305 26.7281L31.5615 27.4136L31.5499 27.2386L32.1932 35.0538L32.574 39.8642L32.594 39.8758L32.574 39.8663L32.1922 35.0559ZM25.149 21.094V21.4367H28.9564L25.149 21.094ZM25.149 23.4923V23.8351H28.9564L25.149 23.4923ZM24.9961 25.8527V26.1955H28.9554L24.9961 25.8527ZM24.8948 28.2257V28.5685L29.0703 28.5559L24.8948 28.2257ZM24.8695 30.5735V30.9162H29.2602L24.8695 30.5735ZM24.743 32.9349V33.2777H29.5281L24.743 32.9349ZM24.6786 35.3079V35.6507L29.8698 35.638L24.6786 35.3079ZM24.6154 37.6556V37.9984H29.9457L24.6154 37.6556Z" fill="white"/>
<path d="M30.7232 16.8683L30.8456 18.8764H28.1793V16.804H26.0753L26.0636 18.8764H24.6767L24.7358 15.2251L29.2393 15.2304L30.758 15.8653L30.8097 16.5487L30.7232 16.8683Z" fill="white"/>
<path d="M27.1046 3.03229L24.007 2.87409L26.553 2.71167L27.1046 3.03229Z" fill="white"/>
<path d="M26.3057 2.56755L24.4336 2.40618L25.7625 2.2522L26.3057 2.56755Z" fill="white"/>
<path d="M25.4879 1.24819L25.229 1.22503L25.4879 1.19556V1.24819Z" fill="white"/>
<path d="M25.4879 1.64919L25.0007 1.60595L25.4879 1.55005V1.64919Z" fill="white"/>
<path d="M25.4879 2.08904L24.8572 2.0342L25.4879 1.96143V2.08904Z" fill="white"/>
<path d="M28.2466 3.69608L23.028 3.43979L27.3164 3.15503L28.2466 3.69608Z" fill="white"/>
<path d="M29.6941 4.53345L22.1436 4.24553L28.4738 3.82471H28.4749L29.6941 4.53345Z" fill="white"/>
<path d="M29.5186 10.1468L29.5249 10.325V10.3282L29.3983 10.324L29.3562 10.3219L27.6286 10.2565H27.6275L25.8335 10.1879L29.5112 9.87891L29.5186 10.1468Z" fill="white"/>
<path d="M26.9369 9.65473L29.176 9.43325L29.4956 9.40161L29.5061 9.75177L26.9369 9.65473Z" fill="white"/>
<path d="M27.6321 9.18761L29.4884 8.95874L29.4968 9.25932L27.6321 9.18761Z" fill="white"/>
<path d="M29.5279 10.4607L29.5437 10.9954L24.8693 10.8182L29.5279 10.4607Z" fill="white"/>
<path d="M26.1801 11.3436L29.5477 11.1411L29.5625 11.6642L29.5404 11.6621H29.5277L24.1203 11.467L26.1759 11.3436H26.1801Z" fill="white"/>
<path d="M31.9876 12.1554L32.5466 12.3094V12.3052L32.9558 12.417L32.4728 13.1352L32.4475 13.1742L30.5174 12.4634L30.5142 11.9297V11.7546L30.5248 11.7567L31.9876 12.1554Z" fill="white"/>
<path d="M20.5322 8.24264V8.4156L19.9574 8.40822V8.22998L20.5438 8.23736V8.24264H20.5322Z" fill="#5E5E5E"/>
<path d="M19.3971 9.76318V9.79996L19.3542 9.78157L19.3971 9.76318Z" fill="#5E5E5E"/>
<path d="M30.5166 11.7561L30.4783 11.7527L30.5166 11.7358V11.7471V11.7561Z" fill="#5E5E5E"/>
<path d="M17.3647 54.9361L33.9369 54.5923L33.938 54.6598L16.656 55.03L17.0715 54.9519L17.1137 54.9794L17.3647 54.9361Z" fill="#08324C"/>
<path d="M31.9875 12.1513V12.1556L30.5247 11.7569L30.5142 11.7548V11.7463L31.9875 12.1513Z" fill="white"/>
<path d="M32.5469 12.3096L31.9879 12.1556V12.1514L32.5469 12.3054V12.3096Z" fill="white"/>
<path d="M29.5625 11.6643V11.6654L29.5476 11.6643H29.5625Z" fill="#5E5E5E"/>
<path d="M27.6271 10.2556H27.6281L29.3557 10.321L28.8368 10.3147L27.6271 10.2999V10.2556Z" fill="#5E5E5E"/>
<path d="M29.5625 11.6641H29.5468L29.5445 11.663L29.5389 11.6619L29.5625 11.6641Z" fill="#5E5E5E"/>
<path d="M24.553 47.4539L30.822 47.7829L24.5656 47.8093L24.553 47.4539Z" fill="#08324C"/>
<path d="M28.6927 44.9038L30.5964 45.023H28.6927V44.9038Z" fill="#08324C"/>
<path d="M24.4369 49.5852L30.9348 49.9153L24.4369 49.928V49.5852Z" fill="#08324C"/>
<path d="M24.1935 51.9712L31.1228 52.3519L24.1935 52.314V51.9712Z" fill="#08324C"/>
<path d="M25.1489 23.4924L28.9563 23.8352H25.1489V23.4924Z" fill="#08324C"/>
<path d="M24.996 25.853L28.9563 26.1958H24.996V25.853Z" fill="#08324C"/>
<path d="M25.1489 21.094L28.9563 21.4368H25.1489V21.094Z" fill="#08324C"/>
<path d="M24.8936 28.2253L29.0691 28.5555L24.8936 28.5681V28.2253Z" fill="#08324C"/>
<path d="M24.8664 30.5732L29.2571 30.916H24.8664V30.5732Z" fill="#08324C"/>
<path d="M24.7409 32.9351L29.5249 33.2778H24.7409V32.9351Z" fill="#08324C"/>
<path d="M24.6817 35.3079L29.8728 35.638L24.6817 35.6506V35.3079Z" fill="#08324C"/>
<path d="M24.6129 37.656L29.9432 37.9988H24.6129V37.656Z" fill="#08324C"/>
<path d="M31.3312 26.7281L30.943 18.876H30.9831L31.5505 27.2386L31.4577 26.1195L31.3312 26.7281Z" fill="#08324C"/>
<path d="M30.8543 17.1018L30.8132 16.5481L30.8216 16.5154L30.9819 18.8758H30.9419L30.8543 17.1018Z" fill="#08324C"/>
<path d="M31.329 26.7282L31.4555 26.1196L31.5483 27.2386L31.5599 27.4137L31.329 26.7282Z" fill="#08324C"/>
<path d="M31.3296 26.7281L30.8487 18.876H30.9415L31.3296 26.7281Z" fill="#08324C"/>
<path d="M30.8109 16.5479L30.852 17.1016L30.9396 18.8755H30.8468L30.7244 16.8674L30.8109 16.5479Z" fill="#08324C"/>
<path d="M33.8848 40.6254L32.5886 39.8755L34.2434 40.638L33.2963 40.8047L33.3891 40.619L33.8848 40.6254Z" fill="#08324C"/>
<path d="M33.3953 40.6194L33.4122 40.5877L32.9481 40.5814L32.4039 40.0277L32.1181 36.2234L32.194 35.0559L32.5747 39.8663L32.5948 39.8758L33.891 40.6257L33.3953 40.6194Z" fill="#08324C"/>
<path d="M34.4416 53.8562L34.4785 54.5808L33.9797 54.5913L33.9332 50.8651L33.6622 50.3937L33.5778 49.5879L33.7951 50.4485L34.1284 50.9062L34.2138 52.0485L34.3667 52.3522L34.4047 53.1148L34.3498 53.1295L34.4416 53.8562Z" fill="#08324C"/>
<path d="M33.9292 50.8644L33.9756 54.5906L33.9376 54.5917L33.906 50.9055L33.6391 50.4098L33.5632 49.5439L33.5738 49.5872L33.6581 50.393L33.9292 50.8644Z" fill="#08324C"/>
<path d="M33.9725 54.5909L34.4714 54.5803L34.502 55.1984L33.9409 55.2079L33.9356 54.6594L33.9736 54.6584L33.9725 54.5909Z" fill="#08324C"/>
<path d="M34.3492 53.1285L34.404 53.1138L34.4409 53.8552L34.3492 53.1285Z" fill="#08324C"/>
<path d="M33.9792 54.5906L33.9802 54.6575L33.9426 54.6585L33.9416 54.5916L33.9792 54.5906Z" fill="#08324C"/>
<path d="M26.3278 19.4698H27.3424V18.876H28.1809V20.265H26.0578L26.0652 18.876H26.3299L26.3278 19.4698Z" fill="#08324C"/>
<path d="M28.1809 16.8037V18.8762H27.3424V17.1465H26.3363L26.3299 18.8762H26.0652L26.0768 16.8037H28.1809Z" fill="#08324C"/>
<path d="M27.9715 45.6637V44.4065L28.5506 43.8623L28.5569 47.3449L26.7481 47.3385V45.6764L26.7544 45.669L27.9715 45.6637Z" fill="#08324C"/>
<path d="M24.3534 39.2463L24.3513 39.3686L24.3471 39.3697L20.5703 40.4085L20.7295 40.4107L20.5154 40.4718L32.9828 40.6142L33.1896 40.8241L33.3035 40.804L32.8985 41.6077L32.889 41.5001L30.8998 41.652L30.8935 41.6573L28.5532 43.7888L28.5521 43.4091L26.7497 43.4028V45.4309L26.5081 45.6514L24.3629 45.8549L24.1467 50.601L23.265 51.3435L24.0296 51.8814L23.6489 52.491L24.1815 52.6745L23.9294 53.6691L17.3282 54.903L14.9056 50.5968L14.8244 50.6221L14.8318 50.562L15.4414 50.0294L16.6353 40.7777L15.4245 40.5372L16.8114 39.8264L18.8807 18.8772H24.616L24.3534 39.2463ZM25.1518 45.3276H26.5989V45.0755L25.1518 44.9848V45.3276Z" fill="#08324C"/>
<path d="M17.0641 11.9299L17.3943 11.8403V8.55492H17.9522V8.85023L19.3992 8.21215V7.98328H19.9582V8.22902L19.588 8.22481L19.5859 8.40199L19.9592 8.40621V9.71402L20.5383 9.72035L20.534 8.41359L22.2099 8.43469L22.212 8.2575L20.5467 8.23641V5.65243H20.5456V5.13142L19.9065 4.83611L24.4279 2.05702L24.4659 1.18164L24.237 0.68699L24.8814 0.15332L25.605 0.609998L25.491 1.06668V1.19429L25.2305 1.22488H25.2316H25.2305L25.491 1.24808V1.54972L25.0027 1.60562H25.0038H25.0027L25.4921 1.64781V1.95999L24.8603 2.03276H24.8614H24.8603L25.4921 2.08761V2.09394L25.761 2.25108L24.4321 2.40507H24.4332H24.4321L26.3053 2.56643L26.3063 2.56749L26.5542 2.71093L24.0071 2.87335H24.0082H24.0061L27.1058 3.03155H27.1068L27.3178 3.15284L23.0284 3.4376H23.0294H23.0273L28.248 3.69389L28.4716 3.82362L22.1393 4.24443H22.1403H22.1382L29.6908 4.53236L30.2487 4.85509L29.4967 5.13037V5.59654H29.4978V8.61504L29.9576 8.62137V8.09719H30.5156V8.73633L31.9879 9.38707V9.11179H32.5469V12.3043L31.9879 12.1503V11.083L30.5156 11.7348L30.4786 11.7517L30.5156 11.7548V11.9299L30.5187 12.4625L32.4488 13.1734L30.7613 15.8649V15.8639L29.2415 15.229L24.6621 15.191L24.6146 18.875H18.8792L19.1767 15.8639L17.0641 11.9299ZM21.7585 5.20525L20.9496 5.50372V8.24168L21.7585 8.23746V5.20525ZM31.9889 9.65812L30.6474 10.2424L31.9889 10.8362V9.65812ZM30.5156 11.5418L31.8297 10.9596L30.5156 10.3795V11.5418ZM30.5156 10.1317L31.8592 9.52523L30.5156 8.93144V10.1317ZM27.7881 5.14091L25.1578 5.13986V8.2691L27.7881 8.33133V5.14091ZM29.0917 5.52587L28.1931 5.19681V8.35137L29.0917 8.55492V5.52587ZM29.5273 11.662H29.54L29.5452 11.6631H29.5474L29.5621 11.6641L29.9576 11.7021V10.331L29.5242 10.3247L29.5178 10.1464L29.9576 10.1528V8.80066L29.4799 8.79433L29.4841 8.95886L27.6278 9.18773L29.4936 9.25945L29.4967 9.40289L29.1772 9.43453L26.9381 9.65601L29.5073 9.75304L29.5104 9.8796L25.8328 10.1886L27.6268 10.2572V10.3015L28.8365 10.3162L29.3554 10.3226L29.3754 10.3236H29.3986L29.5252 10.3278L29.5284 10.4607L24.8698 10.8183L29.5442 10.9955L29.5484 11.1421L26.1808 11.3446H26.1766L24.121 11.468L29.5273 11.662ZM24.0377 5.44572L24.4385 5.69251V7.39899L24.0377 7.70696V8.25539L24.7517 8.26172V5.13986H24.0377V5.44572ZM23.6306 7.7059L23.2298 7.40004V5.69251L23.6306 5.44783V5.1388H22.1656V8.24063L23.6306 8.25328V7.7059ZM19.9571 11.4838L19.994 11.4005L19.9571 11.3836V11.4838ZM19.9571 11.2201H20.5393L20.5362 9.89964L19.9571 9.89226V11.2201ZM19.3981 8.40621L18.0186 9.01687L19.3981 9.60749V8.40621ZM19.3981 9.76359L19.3539 9.78363L17.9511 9.18246V10.3996L19.3539 9.78468L19.3981 9.80261V9.76359ZM19.3981 9.95765L18.0598 10.5451L19.3981 11.1357V9.95765ZM19.3981 11.2971L19.3496 11.3108L17.9511 10.6928V11.6905L19.3496 11.3108L19.3981 11.3319V11.2971Z" fill="#08324C"/>
<path d="M28.5512 43.7907L30.8926 41.6592L28.5512 43.8624V43.7907Z" fill="#08324C"/>
<path d="M26.7464 45.6691H26.7474V45.6765L26.7443 45.6786L24.424 45.918L24.1962 50.6388L23.3587 51.3243L24.1202 51.8569L23.7395 52.4665L24.2721 52.6184L24.0432 53.7606L17.365 54.9355H17.3439L17.326 54.9039L23.9272 53.6699L24.1793 52.6754L23.6467 52.4918L24.0274 51.8822L23.2628 51.3444L24.1455 50.6019L24.3607 45.8558L26.5059 45.6533L26.7474 45.4329V45.6691H26.7464Z" fill="#08324C"/>
<path d="M30.896 41.6539L30.8971 41.6529L32.8852 41.501L32.8947 41.6086L32.8852 41.6275L30.896 41.6539Z" fill="#08324C"/>
<path d="M24.3505 39.2461L24.6142 18.876H24.6796L24.3505 39.2461Z" fill="#08324C"/>
<path d="M32.9792 40.6154L20.5118 40.473L20.7259 40.4119L32.9455 40.5817L32.9792 40.6154Z" fill="#08324C"/>
<path d="M24.3414 39.3705L24.3459 39.3694L24.3414 39.3705Z" fill="#08324C"/>
<path d="M24.7387 15.2248L24.6797 18.8761H24.6143L24.6628 15.1921L29.2412 15.2301L30.761 15.865L29.2422 15.2301L24.7387 15.2248Z" fill="#08324C"/>
<path d="M24.004 2.87409H24.0019L26.55 2.71167L24.004 2.87409Z" fill="#08324C"/>
<path d="M25.1532 1.66128L25.1543 1.66138L25.0361 2.9935L25.035 2.99341L25.1532 1.66128Z" fill="#08324C"/>
<path d="M23.0278 3.43979H23.0257L27.3162 3.15503L23.0278 3.43979Z" fill="#08324C"/>
<path d="M22.142 4.24553H22.1409L28.4722 3.82471L22.142 4.24553Z" fill="#08324C"/>
<path d="M27.6262 10.2558L25.8322 10.1873L27.6262 10.2558Z" fill="#08324C"/>
<path d="M29.4968 9.40161L29.1773 9.43325L29.4968 9.40161Z" fill="#08324C"/>
<path d="M29.4968 9.25932L27.6311 9.18761L29.4884 8.95874L27.6321 9.18761L29.4968 9.25932Z" fill="#08324C"/>
<path d="M26.5923 45.3271H25.1463V44.9844L26.5923 45.0751V45.3271Z" fill="#08324C"/>
<path d="M19.584 8.40277L19.5861 8.22559L19.9563 8.2298V8.40805L19.584 8.40277Z" fill="#08324C"/>
<path d="M22.2054 8.43664L20.5306 8.41555V8.24258H20.5422V8.2373L22.2075 8.2584L22.2054 8.43664Z" fill="#08324C"/>
<path d="M19.9569 11.4843V11.384L19.9939 11.4009L19.9569 11.4843Z" fill="#08324C"/>
<path d="M19.349 11.3107L19.3971 11.2971V11.3316L19.349 11.3107Z" fill="#08324C"/>
<path d="M17.3292 54.9042L17.075 54.9516L14.4879 53.2409L14.8254 50.6232L14.9066 50.5979L17.3292 54.9042Z" fill="#08324C"/>
<path d="M17.3621 54.9352L17.111 54.9784L17.0689 54.951L17.323 54.9036L17.341 54.9352H17.3621Z" fill="#08324C"/>
<path d="M27.6244 10.2999L28.8341 10.3147L27.6244 10.2999V10.2556V10.2999Z" fill="#08324C"/>
<path d="M29.5485 11.6645L29.5452 11.6628L29.5485 11.6645Z" fill="#08324C"/>
<path d="M32.9794 40.615L33.3928 40.6192L33.3 40.8048L33.1861 40.8249L32.9794 40.615Z" fill="#08324C"/>
<path d="M33.407 40.5881L33.3901 40.6198L32.9767 40.6155L32.9429 40.5818L33.407 40.5881Z" fill="#08324C"/>
<path d="M26.7497 43.4045L28.5521 43.4109V43.7906L26.7497 45.4327V43.4045Z" fill="#08324C"/>
<path d="M26.7568 45.6689L26.7493 45.6777V45.6689H26.7568Z" fill="#08324C"/>
<path d="M27.9731 44.4069L26.7497 45.6694V45.4332L28.5521 43.791V43.8627L27.9731 44.4069Z" fill="#08324C"/>
<path d="M26.7523 45.6692L27.9694 44.4067V45.6639L26.7523 45.6692Z" fill="white"/>
<path d="M26.7459 45.6692L27.9694 44.4067L26.7523 45.6692H26.7459Z" fill="white"/>
<path d="M26.3296 19.4698L26.3317 18.876H27.3442V19.4698H26.3296Z" fill="white"/>
<path d="M26.3381 17.1465H27.3442V18.8762H26.3317L26.3381 17.1465Z" fill="white"/>
<path d="M75.4816 29.2903C69.3894 29.2903 65.9898 25.4011 65.9898 19.4177V19.2001C65.9898 13.3527 70.015 9.27306 75.4272 9.27306C79.8876 9.27306 83.3417 11.5032 83.7768 16.0724H80.1052C79.6972 13.4886 78.2558 12.156 75.4544 12.156C72.0276 12.156 69.7974 14.8213 69.7974 19.1729V19.3905C69.7974 23.7692 71.8916 26.353 75.4816 26.353C78.1742 26.353 80.078 24.9931 80.4587 22.2462H83.9944C83.4233 26.9241 80.1052 29.2903 75.4816 29.2903ZM86.8559 29.0183V14.7941H90.1467V17.4594C91.0442 15.6644 92.3769 14.6037 94.7703 14.5765V17.6498C91.8874 17.677 90.1467 18.6017 90.1467 21.6206V29.0183H86.8559ZM103.656 29.2903C99.4671 29.2903 96.4482 26.5434 96.4482 22.0558V21.8382C96.4482 17.4323 99.4671 14.4949 103.52 14.4949C107.055 14.4949 110.237 16.5891 110.237 21.675V22.6269H99.8207C99.9295 25.3195 101.289 26.8425 103.737 26.8425C105.723 26.8425 106.756 26.0538 107.001 24.6667H110.183C109.721 27.6584 107.3 29.2903 103.656 29.2903ZM99.8751 20.424H106.974C106.81 17.9762 105.559 16.8883 103.52 16.8883C101.534 16.8883 100.201 18.221 99.8751 20.424ZM118.507 29.2903C114.945 29.2903 112.252 26.7609 112.252 22.1374V21.9198C112.252 17.3779 114.945 14.4949 118.643 14.4949C120.955 14.4949 122.397 15.5556 123.185 16.9699V8.21236H126.476V29.0183H123.185V26.6249C122.424 28.0392 120.602 29.2903 118.507 29.2903ZM119.323 26.6793C121.608 26.6793 123.294 25.1563 123.294 21.9742V21.7566C123.294 18.6289 121.853 17.0787 119.459 17.0787C117.039 17.0787 115.624 18.7649 115.624 21.8382V22.0558C115.624 25.1835 117.202 26.6793 119.323 26.6793ZM130.469 29.0183V14.7941H133.76V29.0183H130.469ZM132.074 12.4551C130.986 12.4551 130.116 11.6392 130.116 10.5785C130.116 9.49063 130.986 8.67471 132.074 8.67471C133.162 8.67471 134.032 9.49063 134.032 10.5785C134.032 11.6392 133.162 12.4551 132.074 12.4551ZM142.612 29.2631C139.784 29.2631 138.315 27.74 138.315 25.0475V17.2691H136.411V14.7941H138.315V11.6664H141.606V14.7941H144.734V17.2691H141.606V24.7483C141.606 25.9994 142.204 26.5706 143.238 26.5706C143.891 26.5706 144.38 26.489 144.842 26.2986V28.9095C144.326 29.0999 143.619 29.2631 142.612 29.2631ZM161.172 29.2903C155.869 29.2903 153.639 26.6521 153.367 22.9805H156.848C157.093 24.9387 157.881 26.5706 161.172 26.5706C163.321 26.5706 164.844 25.3739 164.844 23.5788C164.844 21.7838 163.946 21.1039 160.792 20.5871C156.141 19.9616 153.938 18.5473 153.938 14.9029C153.938 11.7208 156.658 9.32745 160.71 9.32745C164.898 9.32745 167.401 11.2313 167.781 14.9573H164.463C164.11 12.9175 162.94 12.0472 160.71 12.0472C158.507 12.0472 157.365 13.1079 157.365 14.6037C157.365 16.1812 158.017 16.9699 161.39 17.4594C165.959 18.085 168.325 19.3905 168.325 23.2797C168.325 26.6521 165.469 29.2903 161.172 29.2903ZM175.281 29.2903C172.67 29.2903 170.522 28.0392 170.522 25.0747C170.522 21.7566 173.731 20.5599 177.811 20.5599H179.579V19.8256C179.579 17.9218 178.926 16.9699 176.995 16.9699C175.281 16.9699 174.438 17.7858 174.275 19.2001H171.093C171.365 15.882 174.003 14.4949 177.185 14.4949C180.367 14.4949 182.869 15.8004 182.869 19.6896V29.0183H179.633V27.2777C178.708 28.5016 177.457 29.2903 175.281 29.2903ZM176.07 26.9241C178.083 26.9241 179.579 25.8634 179.579 24.0412V22.6269H177.892C175.39 22.6269 173.786 23.1981 173.786 24.9387C173.786 26.1354 174.438 26.9241 176.07 26.9241ZM186.723 29.0183V14.7941H190.014V29.0183H186.723ZM188.328 12.4551C187.24 12.4551 186.369 11.6392 186.369 10.5785C186.369 9.49063 187.24 8.67471 188.328 8.67471C189.415 8.67471 190.286 9.49063 190.286 10.5785C190.286 11.6392 189.415 12.4551 188.328 12.4551ZM194.025 29.0183V14.7941H197.316V17.0515C197.996 15.6644 199.573 14.4949 201.912 14.4949C204.768 14.4949 206.781 16.154 206.781 20.0704V29.0183H203.49V20.3696C203.49 18.221 202.619 17.2419 200.661 17.2419C198.812 17.2419 197.316 18.3842 197.316 20.6415V29.0183H194.025ZM215.413 29.2631C212.584 29.2631 211.116 27.74 211.116 25.0475V17.2691H209.212V14.7941H211.116V11.6664H214.407V14.7941H217.534V17.2691H214.407V24.7483C214.407 25.9994 215.005 26.5706 216.038 26.5706C216.691 26.5706 217.181 26.489 217.643 26.2986V28.9095C217.126 29.0999 216.419 29.2631 215.413 29.2631Z" fill="#08324C"/>
<path d="M222.4 18.1199V14.1382H221.101V13.4528H224.574V14.1382H223.275V18.1199H222.4ZM225.273 18.1199V13.4528H226.434L227.662 16.6382L228.863 13.4528H230.011V18.1199H229.143V14.5951L227.753 18.1199H227.472L226.056 14.5951V18.1199H225.273Z" fill="#08324C"/>
<path d="M64.729 35.8589L218.666 35.8589" stroke="#08324C" stroke-width="0.81592"/>
<path d="M67.1323 50.8816H66.2849L66.8213 48.7683H65.7915V47.9424H66.9822L67.3362 46.6122H66.2205V45.7755H67.5078L68.0441 43.6301H68.8916L68.3552 45.7755H69.4816L70.0287 43.6301H70.8761L70.329 45.7755H71.3696V46.6122H70.1574L69.8141 47.9424H70.9405V48.7683H69.6425L69.1169 50.8816H68.2694L68.8058 48.7683H67.6687L67.1323 50.8816ZM68.1836 46.6122L67.8296 47.9424H68.9667L69.3207 46.6122H68.1836ZM76.1555 50.8816H75.0614V44.574H73.6561V43.6301H76.1555V50.8816ZM83.9441 50.8816H82.7641V43.1795H87.4411V44.2093H83.9441V46.7195H86.9262V47.7493H83.9441V50.8816ZM93.4048 51.0425C91.1736 51.0425 89.4894 49.294 89.4894 47.0198C89.4894 44.7457 91.1736 43.0186 93.4048 43.0186C95.6361 43.0186 97.3202 44.7457 97.3202 47.0198C97.3202 49.294 95.6361 51.0425 93.4048 51.0425ZM93.4048 49.9805C95.0354 49.9805 96.0973 48.6718 96.0973 47.0198C96.0973 45.3678 95.0354 44.0806 93.4048 44.0806C91.7743 44.0806 90.7123 45.3678 90.7123 47.0198C90.7123 48.6718 91.7743 49.9805 93.4048 49.9805ZM101.061 50.8816H99.8814V43.1795H102.756C104.526 43.1795 105.588 44.0484 105.588 45.5824C105.588 46.6873 104.891 47.5347 103.722 47.8136L105.814 50.8816H104.398L102.477 47.9853H101.061V50.8816ZM101.061 44.1664V46.9984H102.681C103.775 46.9984 104.398 46.5157 104.398 45.5824C104.398 44.6599 103.775 44.1664 102.681 44.1664H101.061ZM117.175 50.8816L116.478 48.9722H113.153L112.445 50.8816H111.254L114.204 43.1795H115.502L118.43 50.8816H117.175ZM114.826 44.4668L113.507 48.0174H116.124L114.826 44.4668ZM125.596 50.8816H124.416V43.1795H127.29C129.06 43.1795 130.122 44.0484 130.122 45.5824C130.122 46.6873 129.425 47.5347 128.256 47.8136L130.348 50.8816H128.932L127.012 47.9853H125.596V50.8816ZM125.596 44.1664V46.9984H127.215C128.309 46.9984 128.932 46.5157 128.932 45.5824C128.932 44.6599 128.309 44.1664 127.215 44.1664H125.596ZM137.708 49.8518V50.8816H132.828V43.1795H137.633V44.2093H134.008V46.3977H137.311V47.4275H134.008V49.8518H137.708ZM145.732 50.8816L145.035 48.9722H141.709L141.001 50.8816H139.811L142.761 43.1795H144.059L146.987 50.8816H145.732ZM143.383 44.4668L142.063 48.0174H144.681L143.383 44.4668ZM154.812 48.6289C154.812 49.9698 153.739 50.9889 151.873 50.9889C150.017 50.9889 148.89 49.9698 148.794 48.4358H149.995C150.049 49.412 150.671 50.0449 151.851 50.0449C152.827 50.0449 153.557 49.5836 153.557 48.7898C153.557 48.1462 153.138 47.8244 152.248 47.6313L151.132 47.4167C150.049 47.2022 149.062 46.6551 149.062 45.3464C149.062 44.0484 150.199 43.0722 151.798 43.0722C153.396 43.0722 154.608 44.0484 154.705 45.5824H153.503C153.439 44.6599 152.774 44.0162 151.808 44.0162C150.811 44.0162 150.264 44.6062 150.264 45.2713C150.264 46.0007 150.896 46.2582 151.615 46.4084L152.752 46.6336C154.072 46.9018 154.812 47.4811 154.812 48.6289ZM160.774 51.0425C158.543 51.0425 156.859 49.294 156.859 47.0198C156.859 44.7457 158.543 43.0186 160.774 43.0186C163.005 43.0186 164.69 44.7457 164.69 47.0198C164.69 49.294 163.005 51.0425 160.774 51.0425ZM160.774 49.9805C162.405 49.9805 163.467 48.6718 163.467 47.0198C163.467 45.3678 162.405 44.0806 160.774 44.0806C159.144 44.0806 158.082 45.3678 158.082 47.0198C158.082 48.6718 159.144 49.9805 160.774 49.9805ZM172.4 50.8816L168.345 44.8637V50.8816H167.251V43.1795H168.538L172.496 49.0365V43.1795H173.59V50.8816H172.4Z" fill="#08324C"/>
<defs>
<linearGradient id="paint0_linear_444_2326" x1="25.3781" y1="7.09009" x2="25.3781" y2="57.8462" gradientUnits="userSpaceOnUse">
<stop stop-color="#3C6F90"/>
<stop offset="1" stop-color="#BAE4FF"/>
</linearGradient>
<linearGradient id="paint1_linear_444_2326" x1="25.3781" y1="7.09033" x2="25.3781" y2="57.8465" gradientUnits="userSpaceOnUse">
<stop stop-color="#3C6F90"/>
<stop offset="1" stop-color="#BAE4FF"/>
</linearGradient>
</defs>
</svg>
