<?xml version="1.0" encoding="UTF-8"?>
<svg id="Layer_2" data-name="Layer 2" xmlns="http://www.w3.org/2000/svg" width="900" height="207.65" xmlns:xlink="http://www.w3.org/1999/xlink" viewBox="0 0 900 207.65">
  <defs>
    <style>
      .cls-1 {
        clip-path: url(#clippath);
      }

      .cls-2 {
        fill: none;
      }

      .cls-2, .cls-3, .cls-4, .cls-5 {
        stroke-width: 0px;
      }

      .cls-3 {
        fill: #3370a7;
      }

      .cls-4 {
        fill: #bf302e;
      }

      .cls-6 {
        clip-path: url(#clippath-1);
      }

      .cls-5 {
        fill: #004a8f;
      }
    </style>
    <clipPath id="clippath">
      <rect class="cls-2" width="900" height="207.65"/>
    </clipPath>
    <clipPath id="clippath-1">
      <rect class="cls-2" width="900" height="207.65"/>
    </clipPath>
  </defs>
  <g id="Layer_1-2" data-name="Layer 1">
    <g>
      <g class="cls-1">
        <path class="cls-4" d="M331.81,0c5.27,6.78,10.43,13.66,15.94,20.24.82.97,3.31.68,5.03.71,1.55.02,3.1-.43,4.66-.51,4.75-.25,9.5-.42,14.25-.61.85-.03,1.69,0,3.34,0-15.07,13.52-29.52,26.47-44.42,39.84V0h1.2Z"/>
        <path class="cls-5" d="M300.28,86.63c-.28-2.84-.33-5.73-.89-8.51-1.43-7.06-4.37-13.29-10.45-17.64-7.6-5.44-16.09-6.25-24.95-4.66-5.42.98-10.25,3.65-13.81,7.68-7.2,8.13-10.83,17.66-8.26,28.64,1.91,8.13,5.66,15.23,12.61,20.44,6.36,4.78,13.56,5.6,20.97,4.83,5.85-.61,11.44-2.69,15.7-7.02,6.45-6.55,9.23-14.59,9.08-23.77M301.32,54.02V1.35h14.17v128.63h-15.35v-10.48c-2.84,2.27-5.31,4.6-8.12,6.42-8.42,5.43-17.54,7.52-27.63,6.12-7.19-.99-13.7-3.05-19.79-7.09-7.36-4.88-11.99-11.68-15.29-19.57-2.4-5.73-3.42-11.77-3.61-17.95-.33-10.12,2.89-19.3,8.47-27.5,5.52-8.1,12.92-14.16,22.4-17.35,15.39-5.17,28.99-1.85,41.07,8.68,1.02.89,2.15,1.62,3.68,2.76"/>
        <path class="cls-5" d="M201.59,77.88c-1-11.68-8.28-21.28-19.76-22.59-17.8-2.02-30,6.16-32.63,22.59h52.39ZM209.48,105.93c0,6.09.1,11.18-.1,16.25-.03.85-1.17,1.94-2.06,2.45-10.73,6.14-22.45,8.68-34.56,7.11-11.03-1.43-21.01-6.18-28.61-14.6-6.34-7.02-9.7-15.4-10.97-24.96-1.73-12.97,2-24.16,9.16-34.5,6.88-9.93,16.54-15.29,28.51-16.99,6.99-.99,13.64-.4,20.26,1.86,9.31,3.16,15.89,9.55,20.68,17.81,5.33,9.2,6.98,19.25,5.86,30.06h-68.94c.52,2.68.73,5.08,1.46,7.3,3.91,11.81,13.11,21.07,27.2,21.03,8.68-.03,16.93-1.49,24.16-6.62,1.6-1.13,2.89-2.69,4.41-3.94.89-.73,1.95-1.25,3.53-2.25"/>
        <path class="cls-3" d="M570.14,77.87c-2.47-16.85-13.46-25.63-32.72-22.07-11.16,2.06-19.58,12.76-19.32,22.07h52.04ZM584.58,90.58h-68.64c1.37,10.04,5.2,18.46,13.63,24.03,6.47,4.27,13.8,4.95,21.31,3.7,3.47-.57,6.98-1.13,10.31-2.19,4.57-1.45,8.39-4.21,11.65-7.78.77-.84,1.94-1.31,3.62-2.41,0,6.18.06,11.43-.08,16.67-.01.61-.99,1.33-1.67,1.76-10.44,6.49-22.01,8.69-33.98,7.41-9.87-1.05-18.81-5.02-26.38-11.83-6.46-5.81-10.73-12.79-12.86-21.2-3.74-14.82-1.13-28.47,7.79-40.75,7.18-9.88,16.69-15.94,29.24-17.36,8.63-.98,16.77-.08,24.31,3.87,10.52,5.51,17.17,14.44,20.18,25.89,1.16,4.42,1.8,9,2.32,13.56.22,1.99-.44,4.08-.76,6.63"/>
        <path class="cls-3" d="M828.09,89.34c-3.91.81-8,1.16-11.7,2.54-6.76,2.52-9.8,6.85-10.17,12.45-.37,5.63,4.26,11.48,9.69,13.91,5.56,2.5,11.22,2.07,16.83,1.02,9.25-1.73,15.6-7,18.19-16.3,1.22-4.36.28-7.5-2.73-8.75-6.39-2.66-12.92-4.7-20.11-4.86M866.11,130.06h-11.87v-11.45c-4.42,3.08-8.54,6.19-12.89,8.92-4.36,2.74-9.22,4.18-14.42,4.4-7.47.33-14.88.06-21.58-3.7-13.66-7.66-18.7-23.96-10.41-37.25,4.32-6.93,11.6-10.29,19.33-12.42,11.32-3.12,22.06-1.17,32.46,3.74,1.14.54,2.33.98,3.8,1.59,0-5.77.49-11.28-.15-16.66-.59-5.07-4.29-8.55-9.04-10-11.52-3.52-22.89-3.66-33.4,3.36-1.55,1.04-2.7,2.64-4.18,3.8-1.06.83-2.36,1.35-4.2,2.37,0-5.91-.06-10.88.07-15.84.02-.64.84-1.46,1.49-1.87,7.32-4.55,15.15-7.43,23.85-8.42,9.3-1.07,18.14-.1,26.25,4.44,8.92,4.97,14.13,12.71,14.28,23.2.29,19.64.43,39.29.63,58.93,0,.87,0,1.74,0,2.85"/>
        <path class="cls-3" d="M594.08,39.72h12.89v13.66c2.26-1.9,4.11-3.59,6.1-5.1,8.01-6.09,16.89-9.85,27.13-8.63,7.35.87,13.82,4.09,19.42,9.01,6.56,5.76,9.5,12.79,9.32,21.69-.38,18.28-.12,36.57-.12,54.85v3.49h-14.39v-3.15c0-17.49-.27-34.98.13-52.46.17-7.28-5.42-15.22-12.8-17.43-8.41-2.52-16.49-2.32-24,2.36-5.05,3.16-8.35,7.64-8.32,14.06.07,17.99.02,35.97.02,53.95v2.75h-15.38V39.72Z"/>
        <path class="cls-3" d="M494.32,107.16c0,5.9.12,10.79-.1,15.66-.05,1.04-1.1,2.53-2.08,2.94-4.63,2.01-9.27,4.18-14.13,5.38-4.35,1.08-9.01,1.46-13.5,1.27-11.03-.45-21.01-3.84-29.71-11.03-8.52-7.05-13.45-16.12-15.28-26.68-2.25-12.99.13-25.16,8.83-35.69,8.12-9.84,18.47-15.51,30.95-17.68,12.46-2.17,23.17,2.1,33.24,8.82.52.35,1.11,1.07,1.12,1.63.08,6.23.06,12.47.06,18.86-1.62.69-2.85-.13-3.99-1.8-6.78-9.91-16.19-14.82-28.18-13.58-9.52.98-16.76,6.1-22,14.13-4.15,6.35-5.78,13.29-5.17,20.77.53,6.44,3.12,12.05,7.27,16.97,7.2,8.54,16.5,12.01,27.41,10.93,7.31-.72,14.07-3.21,19.88-7.98,1.37-1.13,3.17-1.75,5.38-2.93"/>
        <path class="cls-5" d="M75.16,70.48c-3.72,1.29-4.46-1.81-5.7-3.48-9.89-13.21-27.72-15.73-40.42-6.62-9.98,7.16-14.83,17.48-13.74,29.81,1.13,12.71,11.4,25.17,24.71,27.35,11.91,1.96,22.43-.89,31.63-8.73.79-.67,2.08-.77,3.52-1.27,0,5.47.12,10.45-.1,15.42-.05,1.01-1.2,2.25-2.16,2.89-6,3.97-12.79,5.3-19.83,6.15-7.85.94-15.45.3-22.79-2.47C14.17,123.45,3.78,112.3.85,95.04c-2.09-12.3-.54-23.98,7.12-34.38,5.49-7.46,12.68-12.69,21.09-16.23,6.17-2.59,12.64-4.16,19.42-3.65,9.04.67,17.17,3.91,24.58,9.01,1.53,1.05,2.24,2.48,2.16,4.54-.19,5.38-.06,10.76-.06,16.14"/>
        <path class="cls-3" d="M732.38,108.88c0,5.94.08,10.83-.08,15.71-.03.86-.9,1.93-1.68,2.48-10.73,7.53-24.16,7.08-34.45-.12-5-3.5-7.69-8.87-8.72-14.88-.47-2.71-.61-5.5-.62-8.26-.06-14.99-.02-29.98-.02-44.97v-3.58h-15.42v-11.92h15.33v-19.78h14.92v19.53h30.57v11.92h-29.21v3.48c0,9.7.07,19.39-.02,29.08-.06,5.86-.24,11.72-.61,17.57-.56,8.95,10.26,16.51,19.27,12.68,3.18-1.35,5.71-3.38,7.59-6.32.55-.86,1.64-1.38,3.16-2.61"/>
        <path class="cls-5" d="M371.39,55.15h-15.31c-1.25-3.35,1.58-4.9,3.09-6.49,7.86-8.24,16.01-16.2,24.1-24.22.55-.55,1.36-.84,2.5-1.52v20.23h30.46v11.85h-28.36c-.31,3.77-.82,7.27-.85,10.79-.1,13.49.23,26.99-.17,40.46-.17,5.69,7.39,12.39,12.34,12.55,5.78.19,10.21-1.8,13.67-6.39.82-1.08,2.25-1.69,3.4-2.52.23.23.46.46.7.69,0,4.48.2,8.98-.13,13.44-.1,1.27-1.48,2.8-2.68,3.59-6.17,4.04-12.8,5.59-20.3,4.44-6.6-1-12.2-3.28-16.59-8.35-3.55-4.11-5.77-8.89-5.82-14.28-.16-16.89-.06-33.77-.06-50.66v-3.62Z"/>
      </g>
      <rect class="cls-3" x="878.91" y=".73" width="15.23" height="127.95"/>
      <g class="cls-6">
        <path class="cls-3" d="M743.99,39.11h15.29v13.16c3.66-3.37,7.18-7.33,11.41-10.27,3.56-2.48,7.94-3.57,12.56-2.54,2.29.5,4.71.38,7.03.77,2.17.37,3.8,1.62,3.84,4.03.08,4.58.03,9.15.03,14.37-1.77-.64-3.25-.87-4.37-1.63-10.37-7.06-25.88-1.87-29.21,11.88-1.39,5.74-1.64,11.48-.65,17.32.33,1.94.06,3.99.06,5.98v36.49h-15.98V39.11Z"/>
        <path class="cls-5" d="M101.42,54.29c3.74-5.85,7.67-10.39,13.26-13.15,6.78-3.33,13.63-2.12,20.44,0,.52.16,1.14,1.08,1.16,1.65.09,5.08.05,10.15.05,16-1.64-.79-2.88-1.21-3.93-1.9-7.99-5.28-19.75-3.45-25.37,4.07-3.47,4.64-4.97,9.98-4.92,15.86.11,16.17.04,32.35.04,48.52v3.41h-15.44V39.14h14.71v15.15Z"/>
        <path class="cls-4" d="M669.68,182.72c-.09,0-.17-.02-.26-.02v-4.79c0-5.5-2.88-8.79-9.52-10.86-4.24-1.32-9.71.56-12.04,4.51-4.31,7.36-4.12,15.18-.79,22.67,2.34,5.26,7.1,6.48,11.73,5.95,5.76-.65,9.35-4.14,10.01-8.69.42-2.91.59-5.86.88-8.78M669.42,163.91c0-8.27,0-15.94,0-23.62,0-2.84,1.18-4.12,3.74-4.17,3.09-.05,4.04.84,4.05,3.98.01,16.97.17,33.94-.08,50.9-.1,6.7-4.51,13.38-12.45,15.5-8.17,2.18-15.92,1.63-22.3-4.79-3.38-3.4-4.85-7.92-5.17-12.37-.5-7-.79-14.09,2.74-20.75,2.92-5.51,7.49-8.33,13.33-8.99,5.59-.63,11.2-.26,16.14,4.31"/>
        <path class="cls-4" d="M573.85,185.03c-5.5.29-10.83.49-16.14.9-3.02.23-5.93,3.33-6.39,6.42-.33,2.18,1.9,5.85,4.18,6.71,9.58,3.62,19.73-1.47,18.35-14.02M573.89,178.1c.63-7.47-5.19-11.64-12.24-10.99-4.21.39-6.69,2.96-9.52,5.19-2.04,1.6-3.8,1.25-5.22-.21-1.62-1.65-1.36-3.71.09-5.59,3.11-4.02,7.38-6.32,12.2-6.85,5.64-.63,11.31-.48,16.33,3.25,3.38,2.52,5.45,5.78,5.65,9.71.49,9.92.52,19.87.68,29.8.04,2.22-.54,4.18-3.2,4.45-3.23.34-4.21-.51-4.75-3.94-5.62,5.68-18.22,5.71-25.12,1.42-6.26-3.89-7.71-18.01.15-22.76,4.26-2.57,8.76-3.06,13.36-3.42,3.85-.3,7.75-.06,11.59-.06"/>
        <path class="cls-4" d="M765.11,185.03c-5.25.29-10.38.48-15.48.9-3.38.27-5.93,2.51-6.4,5.45-.44,2.78-.04,5.53,2.71,6.94,1.93.99,4.17,1.81,6.3,1.87,6.98.22,14.75-4.3,12.87-15.16M765.25,203.17c-6.59,4.95-13.48,5.32-20.84,3.17-5.86-1.7-11.07-9.11-9.14-16.09,1.92-6.95,6.63-11.22,13.64-11.56,5.42-.26,10.84-.59,16.26-.89,1.23-7.61-4.97-11.25-11.74-10.62-3.84.35-6.56,2.1-9.14,4.66-1.44,1.42-3.24,2.38-5.2.66-1.87-1.64-1.79-3.56-.65-5.55,2.6-4.53,7-6.6,11.74-7.21,5.6-.73,11.37-.86,16.4,2.76,4.19,3.01,6.42,7.13,6.52,12.17.17,8.98,0,17.96.07,26.95.02,2.29,0,4.55-2.68,5.21-2.7.67-4.62-.43-5.27-3.65"/>
        <path class="cls-4" d="M416.11,185.03c-5.23.29-10.34.5-15.44.89-2.83.21-6.11,2.81-6.19,5.64-.06,2.19.74,5.04,2.23,6.5,3.23,3.17,11.48,2.56,15.27-.24,4.27-3.15,4.95-7.38,4.13-12.79M416.16,178.1c1.65-7.9-5.48-11.69-11.76-10.94-3.83.46-6.67,2.13-9.07,4.77-1.73,1.9-3.56,1.78-5.2.48-1.88-1.49-1.91-3.76-.52-5.55,3.09-3.99,7.18-6.9,12.25-7.21,4.04-.26,8.23.29,12.22,1.14,6.07,1.29,10.16,8.17,10.11,13.71-.08,9.28-.01,18.57-.03,27.85,0,1.91.58,4.18-2.42,4.54-3.44.41-4.29-.16-5.21-3.74-5.54,4.5-11.79,5.14-18.51,3.77-7.27-1.49-11.93-6.61-11.75-14.34.2-8.08,5.77-12.8,12.85-13.79,4.59-.64,9.28-.49,13.93-.68.99-.04,1.97,0,3.12,0"/>
        <path class="cls-4" d="M851.63,178.57c.43-4.45-.93-8.08-4.72-10.28-4.17-2.42-8.61-2.18-12.77.17-3.82,2.16-5.74,5.56-5.82,10.11h23.31ZM827.52,185.89c.9,2.85,1.28,5.65,2.57,7.92,3.81,6.7,12.98,8.3,20.51,3.67.66-.4,1.26-.91,1.92-1.31,1.87-1.12,4.03-1.48,5.24.46,1.06,1.68,1.33,3.95-.59,5.66-3.31,2.93-7.3,4.83-11.54,5.01-4.54.2-9.34-.12-13.65-1.46-6.34-1.99-9.88-7.27-11.22-13.59-1.68-7.89-1.73-15.88,2.23-23.22,3.21-5.96,8.38-9.27,15.28-9.51,4.82-.17,9.53-.03,13.79,2.91,4.42,3.05,6.72,7.25,7.39,12.37.35,2.65.19,5.38.06,8.07-.13,2.52-1.87,3.06-4.11,3.05-8.19-.06-16.39-.02-24.58-.02h-3.3Z"/>
        <path class="cls-4" d="M373.39,183.54c-.27-2.32-.3-4.71-.86-6.97-1.57-6.3-4.94-9.19-11.11-9.81-5.52-.56-11.45,2.31-13.08,8.27-1.54,5.63-1.55,11.25-.04,16.86,1.45,5.39,6.98,8.62,12.32,8.4,6.03-.25,10.86-4.09,11.92-9.67.44-2.3.57-4.66.85-7.07M338.9,184.48c.25-7.76,1.14-14.1,5.97-19.3,3.06-3.29,6.84-5.14,11.07-5.55,4.65-.45,9.34-.42,13.91,1.51,6.83,2.88,9.72,8.61,11,15.15,1.19,6.05.95,12.3-1.1,18.24-2.92,8.46-8.83,12.72-17.83,12.85-3.65.05-7.53-.34-10.92-1.57-6.84-2.49-10.12-8.18-11.36-15.11-.43-2.41-.58-4.87-.73-6.23"/>
        <path class="cls-5" d="M346.08,63.67v65.69h-15.35c-.04-.59-.11-1.16-.11-1.72,0-15.37-.02-30.75.03-46.12,0-.99.28-2.23.91-2.92,4.09-4.46,8.31-8.8,12.51-13.17.46-.48,1-.88,2.01-1.76"/>
        <path class="cls-4" d="M599.42,163.47c8.07-5.57,16.26-5.43,24.37-.89,4.26,2.37,5.84,6.84,5.97,11.43.26,9.68.07,19.37.08,29.06,0,2.58-1.22,3.82-3.8,3.82-2.69,0-3.98-1.2-3.99-3.92-.02-8.09.04-16.17-.04-24.27-.02-1.93-.26-3.92-.77-5.79-1.33-4.9-7.08-7.42-12.88-6.05-7.03,1.66-8.69,5.73-9.02,12.42-.38,7.67-.08,15.37-.08,23.06,0,3.34-1.08,4.56-3.98,4.53-2.68-.02-3.81-1.31-3.82-4.39,0-12.69.03-25.37-.03-38.05-.01-2.28.64-3.92,3.01-4.31,2.6-.42,4.43.54,4.98,3.34"/>
        <path class="cls-4" d="M442.35,163.55c6.52-6.01,19.39-5.27,25.57-.01,3.28,2.79,4.66,7,4.75,11.26.2,9.39.07,18.78.05,28.17,0,2.74-1.28,3.95-3.98,3.93-2.56-.03-3.8-1.33-3.81-4.1-.01-8.19.08-16.38-.04-24.57-.05-3.21-.7-6.26-2.98-8.92-3.76-4.37-17.73-3.34-18.7,4.4-.26,2.11-.98,4.19-1.02,6.29-.12,7.59-.04,15.18-.05,22.78,0,2.79-1.22,4.09-3.77,4.12-2.83.04-4.01-1.17-4.02-4.19,0-12.69.03-25.37-.03-38.05-.02-2.23.5-3.97,2.82-4.49,2.73-.62,4.27.48,5.21,3.4"/>
        <path class="cls-4" d="M496.93,159.51c5.13-.17,9.97.86,13.83,4.36,1.32,1.2,2.22,3.2,2.58,4.99.16.81-1.37,2.72-2.28,2.83-1.54.17-3.57-.24-4.72-1.21-3.9-3.28-8.24-4.07-12.85-2.54-1.56.52-3.21,2.2-3.83,3.74-.89,2.22,1.16,3.68,2.87,4.55,2.84,1.43,5.87,2.45,8.81,3.68,2.31.97,4.68,1.85,6.89,3.03,5.49,2.93,7.25,7.87,6.4,13.66-.73,4.96-4.13,8.17-8.77,9.57-9.07,2.74-17.54,1.67-24.78-5.03-1.94-1.79-2.44-3.75-.61-5.89,1.34-1.57,3.95-1.32,5.98.48,4.95,4.38,10.75,5.01,16.69,3.01,1.6-.54,3.2-2.95,3.6-4.76.59-2.74-1.99-4.1-4.11-5-3.82-1.61-7.82-2.76-11.68-4.3-8.08-3.22-12.09-10.68-7.55-19.34,2.31-4.41,6.76-5.11,11.11-5.8.78-.12,1.6-.02,2.39-.02"/>
        <path class="cls-4" d="M882.7,159.28c5.65.13,10.75,1.65,14.46,6,.97,1.13,1.28,3.6.73,5-.39.99-2.73,1.64-4.21,1.65-1.02.01-2.11-1.25-3.08-2.05-3.3-2.72-7.22-2.94-11.16-2.52-2.47.26-4.53,1.75-4.86,4.36-.3,2.45,1.49,4.01,3.56,4.87,3.93,1.62,7.95,2.99,11.91,4.51,9.66,3.7,12.81,13.03,7.07,20.95-1.6,2.21-4.73,3.9-7.47,4.59-7.9,2-15.54.9-22.15-4.23-1.25-.97-2.14-2.8-2.47-4.39-.23-1.05.55-3.15,1.35-3.42,1.27-.44,3.38-.28,4.35.54,3.95,3.35,8.33,4.99,13.47,4.5,1.35-.13,3.01-.1,3.91-.87,1.52-1.3,3.02-3.01,3.65-4.84.77-2.23-1.24-3.65-3.05-4.43-3.62-1.56-7.4-2.78-11.07-4.26-4.82-1.94-9.14-4.41-10.55-10.03-1.97-7.83,2.31-13.34,9.5-15.09,1.99-.48,4.06-.58,6.1-.86"/>
        <path class="cls-4" d="M797.52,189.59c-3.64,5.19-7.23,10.35-10.88,15.47-1.42,2-4.44,2.53-6.28,1.21-1.43-1.03-1.74-4-.45-5.83,4.14-5.87,8.34-11.69,12.51-17.53-4.07-5.38-8.08-10.66-12.06-15.95-1.64-2.18-1.35-5.22.56-6.49,1.67-1.11,4.71-.26,6.12,1.65,3.41,4.62,6.84,9.23,10.5,14.18,2.09-2.85,4.14-5.68,6.23-8.49,1.45-1.96,3.06-3.81,4.36-5.87,1.56-2.46,3.77-2.35,5.84-1.39,2.13.98,2.42,3.93.77,6.19-3.56,4.87-7.2,9.7-10.89,14.48-.95,1.24-1.16,1.92-.04,3.35,3.82,4.91,7.36,10.03,11,15.08,1.72,2.37,1.64,5.46-.15,6.76-1.88,1.37-5.07.35-6.75-2.05-3.43-4.95-6.92-9.85-10.4-14.79"/>
        <path class="cls-4" d="M713.2,168.62c-4.18-.22-6.53-1.7-6.58-3.99-.07-2.82,1.46-3.8,6.58-4,0-2.45-.13-4.92.05-7.36.1-1.4.3-3.19,1.18-4.04,1.03-.98,3.06-1.79,4.3-1.44,1.19.34,2.56,2.18,2.74,3.51.4,3.01.13,6.12.13,9.42,1.93,0,3.6.02,5.27,0,2.25-.03,3.52,1.09,3.71,3.28.21,2.52-.92,4.21-3.52,4.48-1.67.18-3.38.03-5.27.03-.07.85-.18,1.6-.19,2.37-.01,7.78-.01,15.56,0,23.34,0,3.41,1.33,5.04,4.79,5.44,2.53.3,3.8,1.54,3.57,4.04-.22,2.38-1.77,3.2-4.08,3.22-8.64.1-12.4-5.3-12.64-13.84-.22-8.06-.04-16.14-.04-24.45"/>
        <path class="cls-4" d="M321.02,168.5c0-9.39-.01-18.79,0-28.18,0-3.33.81-4.18,3.84-4.2,2.79-.02,3.95,1.21,3.95,4.25.01,17.99.03,35.98-.02,53.96,0,3.05.69,5.08,4.23,5.45,2.11.22,2.52,2.13,2.39,4.05-.12,1.85-1.14,2.77-2.9,3.04-7.06,1.07-11.71-4.69-11.56-10.2.25-9.38.07-18.78.07-28.18"/>
      </g>
    </g>
  </g>
</svg>