<?xml version="1.0" encoding="utf-8"?>
<!-- Generator: Adobe Illustrator 26.3.1, SVG Export Plug-In . SVG Version: 6.00 Build 0)  -->
<svg version="1.1" id="Layer_1" xmlns="http://www.w3.org/2000/svg" xmlns:xlink="http://www.w3.org/1999/xlink" x="0px" y="0px" width="132px" height="76px" viewBox="0 0 132 76" enable-background="new 0 0 132 76" xml:space="preserve">
  <g>
    <path fill="#FFFFFF" d="M56.15,13.09v10.69h-0.08c-1.59-2.26-4.81-3.38-7.9-3.38c-6.28,0-11.32,4.02-11.32,11.01
		s5.04,11.01,11.32,11.01c3.06,0,6.36-1.19,7.9-3.38h0.08v2.66h3.97V13.09H56.15z M48.69,39.07c-5.37,0-7.63-3.74-7.63-7.67
		c0-4.76,3.02-7.67,7.63-7.67s7.7,2.9,7.7,7.67C56.39,35.33,54.09,39.07,48.69,39.07z M32.4,37.28V26.07c0-4.85-5.33-5.92-9.57-5.92
		c-6.24,0-9.82,2.03-10.33,7.23h3.74c0.12-3.22,3.02-4.13,6.43-4.13c3.22,0,6,0.56,6,3.42c0,1.87-1.39,2.26-3.61,2.51l-4.53,0.48
		c-6.68,0.72-8.94,2.66-8.94,6.47c0,2.7,1.55,6.28,8.46,6.28c3.38,0,7.27-1.23,8.86-3.38c0.28,2.34,1.59,2.9,3.58,2.9
		c0.46,0,0.98-0.02,1.51-0.05v-2.81c-1.09-0.07-1.58-0.61-1.58-1.78L32.4,37.28z M28.67,33.46c0,3.45-3.77,5.84-8.27,5.84
		c-2.9,0-4.85-1.36-4.85-3.3c0-2.19,1.63-3.02,4.72-3.42l4.49-0.56c2.22-0.28,3.3-0.56,3.89-1.23L28.67,33.46L28.67,33.46z" />
    <path fill="#FFFFFF" d="M89.36,17.46h3.97v-4.37h-3.97V17.46z M89.36,41.69h3.97V20.87h-3.97V41.69z M118.84,37.28V26.07
		c0-4.85-5.32-5.92-9.57-5.92c-6.24,0-9.82,2.03-10.33,7.23h3.74c0.12-3.22,3.02-4.13,6.43-4.13c3.22,0,6,0.56,6,3.42
		c0,1.87-1.39,2.26-3.62,2.51l-4.53,0.48c-6.68,0.72-8.94,2.66-8.94,6.47c0,2.7,1.55,6.28,8.46,6.28c3.38,0,7.27-1.23,8.86-3.38
		c0.28,2.34,1.58,2.9,3.58,2.9c0.46,0,0.98-0.02,1.51-0.05v-2.81C119.35,38.99,118.84,38.44,118.84,37.28L118.84,37.28z
		 M115.1,33.46c0,3.45-3.78,5.84-8.27,5.84c-2.9,0-4.85-1.36-4.85-3.3c0-2.19,1.63-3.02,4.72-3.42l4.49-0.56
		c2.22-0.28,3.3-0.56,3.89-1.23v2.66C115.09,33.46,115.1,33.46,115.1,33.46z M80.88,23.25l-6.01,14.06l-7.15-16.45h-4.58l9.45,20.82
		h4.37l9.38-20.82h-1.82C82.9,20.87,81.5,21.85,80.88,23.25L80.88,23.25z" />
    <path fill="#FFFFFF" d="M30.49,55.65c-1.62,0-2.35-1.07-2.35-2.49c0-1.42,0.72-2.49,2.35-2.49c1.18,0,1.87,0.52,2.02,1.38h1.35
		c-0.27-1.65-1.68-2.45-3.45-2.45c-2.4,0-3.6,1.62-3.6,3.59c0,1.73,0.98,3.51,3.62,3.51c1.73,0,2.93-0.67,3.46-2.66h-1.35
		C32.25,55.15,31.63,55.64,30.49,55.65L30.49,55.65z M36.51,51.06h-0.03v-1.22h-1.27v6.65h1.27v-3.38c0-1.45,0.88-2.19,2.13-2.19
		c0.35,0,0.58,0.05,0.9,0.13v-1.37c-0.24-0.07-0.4-0.08-0.72-0.08C37.95,49.62,37.1,50,36.51,51.06L36.51,51.06z M44.06,49.62
		c-2.58,0-3.86,1.64-3.86,3.55c0,1.92,1.27,3.55,3.86,3.55c1.3,0,2.79-0.65,3.43-2.24h-1.35c-0.43,0.93-1.42,1.18-2.15,1.18
		c-1.13,0-2.35-0.73-2.45-2.11h6.12v-0.16C47.67,50.63,45.82,49.62,44.06,49.62L44.06,49.62z M41.59,52.56
		c0.19-1.2,1.24-1.88,2.42-1.88s2.13,0.67,2.31,1.88H41.59z M54.96,50.77h-0.03c-0.51-0.72-1.53-1.08-2.53-1.08
		c-2,0-3.62,1.28-3.62,3.51s1.62,3.51,3.62,3.51c0.98,0,2.03-0.38,2.53-1.08h0.03v0.85h1.27v-9.13h-1.27V50.77z M52.58,55.65
		c-1.72,0-2.43-1.2-2.43-2.45c0-1.52,0.96-2.45,2.43-2.45s2.46,0.93,2.46,2.45C55.03,54.46,54.3,55.65,52.58,55.65z M57.91,48.75
		h1.27v-1.4h-1.27V48.75z M57.91,56.48h1.27v-6.65h-1.27V56.48z M62.68,47.79h-1.27v2.04h-1.37v0.99h1.37v4.31
		c0,0.96,0.51,1.57,1.75,1.57c0.52,0,0.99-0.01,1.42-0.08v-1.07c-0.29,0.05-0.58,0.08-0.88,0.08c-0.65,0-1.03-0.19-1.03-0.72v-4.1
		h1.9v-0.99h-1.9C62.68,49.82,62.68,47.79,62.68,47.79z M75.46,53.66c0,1.31-1.03,1.98-2.18,1.98c-1.36,0-1.96-0.56-1.96-1.53v-4.28
		h-1.27v4.54c0,1.66,1.2,2.35,2.79,2.35c0.95,0,2-0.3,2.6-1.23h0.03v1h1.27v-6.65h-1.27L75.46,53.66L75.46,53.66L75.46,53.66z
		 M82.3,49.61c-0.95,0-2,0.3-2.6,1.23h-0.03v-1h-1.26v6.65h1.26v-3.83c0-1.31,1.04-1.98,2.19-1.98c1.36,0,1.97,0.56,1.97,1.54v4.28
		h1.27v-4.53C85.1,50.31,83.91,49.62,82.3,49.61L82.3,49.61z M86.77,56.48h1.27v-6.65h-1.27V56.48z M86.77,48.74h1.27v-1.4h-1.27
		V48.74z M93.28,49.61c-2.58,0-3.86,1.64-3.86,3.55c0,1.92,1.27,3.55,3.86,3.55c2.58,0,3.86-1.64,3.86-3.55
		C97.14,51.24,95.87,49.61,93.28,49.61z M93.28,55.64c-1.84,0-2.51-1.28-2.51-2.49c0-1.21,0.67-2.49,2.51-2.49
		c1.84,0,2.51,1.28,2.51,2.49C95.78,54.36,95.12,55.64,93.28,55.64z M102.42,49.61c-0.95,0-2,0.3-2.6,1.23h-0.03v-1h-1.26v6.65h1.26
		v-3.83c0-1.31,1.04-1.98,2.19-1.98c1.36,0,1.97,0.56,1.97,1.54v4.28h1.27v-4.53C105.21,50.3,104.02,49.61,102.42,49.61
		L102.42,49.61z" />
  </g>
</svg>