<?xml version="1.0" encoding="utf-8"?>
<!-- Generator: Adobe Illustrator 15.0.2, SVG Export Plug-In . SVG Version: 6.00 Build 0)  -->
<!DOCTYPE svg PUBLIC "-//W3C//DTD SVG 1.1//EN" "http://www.w3.org/Graphics/SVG/1.1/DTD/svg11.dtd">
<svg version="1.1" id="FCGJW_x5F_4C_x5F_HS_1_" xmlns="http://www.w3.org/2000/svg" xmlns:xlink="http://www.w3.org/1999/xlink"
	 x="0px" y="0px" width="307.056px" height="63.583px" viewBox="0 0 307.056 63.583" enable-background="new 0 0 307.056 63.583"
	 xml:space="preserve">
<g id="_x3C_Group:_Jewelry__x26__Loan_White_OL_x3E__2_">
	<path d="M83.253,51.111c0.401,0.206,0.908,0.316,1.467,0.316c0.96,0,1.658-0.729,1.658-2.863v-7.508h3.246v8.557
		c0,2.808-1.064,4.737-4.363,4.737c-0.716,0-1.449-0.208-2.008-0.356V51.111z"/>
	<path d="M94.829,50.23c0.174,1.349,1.135,1.873,2.671,1.873c0.854,0,1.832-0.207,2.775-0.749v2.378
		c-1.013,0.431-2.165,0.618-3.334,0.618c-3.003,0-5.29-1.892-5.29-5.112c0-3.22,2.043-5.092,4.871-5.092
		c3.368,0,4.591,2.564,4.591,5.467v0.617H94.829z M98.285,48.321c0-1.123-0.489-2.041-1.746-2.041c-1.134,0-1.676,0.918-1.745,2.041
		H98.285z"/>
	<path d="M102.285,44.371h3.281l1.467,7.021h0.034l1.571-7.021h3.771l1.536,7.021h0.035l1.432-7.021h3.037l-2.775,9.754h-3.648
		l-1.536-7.059h-0.035l-1.728,7.059h-3.648L102.285,44.371z"/>
	<path d="M122.677,50.23c0.174,1.349,1.135,1.873,2.671,1.873c0.854,0,1.832-0.207,2.775-0.749v2.378
		c-1.013,0.431-2.165,0.618-3.334,0.618c-3.003,0-5.29-1.892-5.29-5.112c0-3.22,2.043-5.092,4.871-5.092
		c3.368,0,4.591,2.564,4.591,5.467v0.617H122.677z M126.133,48.321c0-1.123-0.489-2.041-1.746-2.041
		c-1.134,0-1.676,0.918-1.745,2.041H126.133z"/>
	<path d="M131.32,40.083h3.143v14.042h-3.143V40.083z"/>
	<path d="M143.627,47.066c-0.349-0.112-0.698-0.112-1.064-0.112c-1.467,0-2.287,1.143-2.287,3.052v4.119h-3.142v-9.754h2.862v1.797
		h0.035c0.541-1.235,1.327-2.021,2.688-2.021c0.366,0,0.75,0.056,1.064,0.112L143.627,47.066z"/>
	<path d="M145.252,55.492c0.419,0.149,0.803,0.205,1.239,0.205c0.769,0,1.362-0.486,1.589-1.347l-3.684-9.979h3.387l1.955,6.366
		h0.035l1.868-6.366h3.142l-3.334,9.08c-0.891,2.453-1.571,4.831-4.451,4.831c-0.664,0-1.31-0.075-1.955-0.226L145.252,55.492z"/>
	<path d="M173.063,47.066c-0.068,1.667-0.732,3.277-1.867,4.476l2.164,2.583h-3.473c-0.244-0.355-0.473-0.693-0.734-0.991
		c-1.047,0.972-2.461,1.217-3.787,1.217c-2.322,0-4.609-1.274-4.609-3.97c0-1.816,0.891-2.809,2.393-3.558
		c-0.979-0.823-1.467-1.723-1.467-2.864c0-2.303,2.131-3.127,4.051-3.127c2.129,0,4.225,0.786,4.225,3.221
		c0,1.647-1.328,2.49-2.619,3.295c0.715,0.674,1.414,1.367,2.094,2.078c0.559-0.655,0.77-1.517,0.805-2.359H173.063z
		 M165.681,52.103c0.732,0,1.238-0.225,1.85-0.712c-0.873-1.029-1.779-1.966-2.705-2.883c-0.682,0.393-1.1,0.861-1.1,1.797
		C163.726,51.427,164.702,52.103,165.681,52.103z M165.646,45.887c0.594-0.375,1.484-0.899,1.484-1.761
		c0-0.768-0.611-1.16-1.361-1.16c-0.752,0-1.293,0.505-1.293,1.16C164.476,44.875,165.157,45.475,165.646,45.887z"/>
	<path d="M179.196,41.056h3.246v10.485h5.027v2.583h-8.273V41.056z"/>
	<path d="M188.659,49.257c0-3.239,2.287-5.111,5.289-5.111c3.004,0,5.289,1.872,5.289,5.111c0,3.219-2.285,5.093-5.289,5.093
		C190.946,54.35,188.659,52.476,188.659,49.257z M195.991,49.257c0-1.461-0.594-2.753-2.043-2.753c-1.447,0-2.041,1.292-2.041,2.753
		c0,1.441,0.594,2.732,2.041,2.732C195.397,51.99,195.991,50.699,195.991,49.257z"/>
	<path d="M207.06,54.125c-0.018-0.524-0.068-1.029-0.068-1.535h-0.035c-0.717,1.217-1.59,1.761-2.881,1.761
		c-1.797,0-3.404-0.956-3.404-3.071c0-2.977,3.02-3.332,4.695-3.332c0.508,0,1.066,0.056,1.467,0.131
		c-0.018-1.329-0.941-1.686-2.076-1.686c-1.014,0-2.025,0.206-2.898,0.73l-0.053-2.284c1.117-0.486,2.287-0.692,3.631-0.692
		c2.322,0,4.33,1.066,4.33,4.044v3.632c0,0.768,0.035,1.536,0.174,2.303H207.06z M204.896,52.103c1.188,0,1.938-1.161,1.938-2.303
		c-0.4-0.02-0.855-0.057-1.326-0.057c-1.064,0-1.902,0.355-1.902,1.291C203.604,51.708,204.163,52.103,204.896,52.103z"/>
	<path d="M212.126,44.371h2.861v1.797h0.035c0.629-1.404,1.887-2.021,3.316-2.021c2.48,0,3.475,1.872,3.475,3.894v6.085h-3.143
		v-4.718c0-1.835-0.594-2.453-1.449-2.453c-1.291,0-1.955,0.955-1.955,3.052v4.119h-3.141V44.371z"/>
</g>
<g id="_x3C_Group:Logotype_Hard_Shadow_Blk_OL_x3E_">
	<path d="M106.703,16.944c-1.793-1.752-4.267-2.654-6.954-2.688c-2.453,0.003-4.868,0.874-6.704,2.571
		c-1.029,0.945-1.85,2.165-2.384,3.587c-0.146-1.132-0.442-2.271-1.038-3.322c-0.977-1.791-3.051-3.079-5.769-3.03
		c-1.445-0.008-2.686,0.488-3.696,1.245l-0.23-0.664h-8.973v0.001h-5.093l-0.05,0.44c-0.975-0.521-2.118-0.814-3.333-0.828
		c-1.383,0.01-2.95,0.416-4.32,1.387c-0.843,0.586-1.592,1.456-2.039,2.54c-1.538-2.431-4.403-4.002-7.776-3.99
		c-2.611-0.004-5.045,0.911-6.805,2.658c-0.126,0.124-0.239,0.262-0.357,0.394v-3.406h-1.501c-1.746-0.008-3.116,0.39-4.115,1.165
		c-0.079,0.062-0.155,0.124-0.228,0.188l-0.24-0.548h-6.667V8.226H7.445v7.258h1.865v10.993H7.445v7.288h14.189v-7.288h-3.069
		v-1.096h5.716v-7.027h2.921v3.48h1.055v4.706h-1.323v7.225h11.51v-7.225h-1.504v-1.819c0.025-1.188,0.265-1.457,0.505-1.653
		c0.193-0.164,0.661-0.327,1.399-0.395c-0.055,0.467-0.092,0.941-0.091,1.435c-0.011,3.43,1.206,6.091,3.051,7.789
		c1.84,1.703,4.191,2.449,6.391,2.449c0.048,0,0.096,0,0.145,0c2.68,0,5.097-0.616,7.228-2.085v1.505h6.566l0.065-0.479
		c0.992,0.532,2.181,0.856,3.5,0.865c1.765-0.002,3.483-0.535,4.829-1.61c0.148-0.118,0.29-0.246,0.428-0.378v1.603h21.254v-2.98
		c0.273,0.325,0.559,0.636,0.871,0.913c1.883,1.685,4.343,2.484,6.8,2.487c2.594,0,5.041-0.872,6.838-2.581
		c1.803-1.703,2.88-4.227,2.872-7.209v-0.127C109.547,21.236,108.505,18.69,106.703,16.944z M20.106,18.093h-1.541v-2.609h1.541
		V18.093z M57.328,24.96c0.003-0.021,0.009-0.041,0.012-0.062c0.019,0.021,0.037,0.041,0.057,0.062H57.328z M72.217,25.093
		c-0.302-0.643-0.7-1.201-1.164-1.646h1.164V25.093z M81.633,23.461l-0.001,3.079h-0.578l-0.002-3.079
		c-0.008-0.562,0.097-1.134,0.22-1.36c0.058-0.116,0.088-0.127,0.086-0.131c0,0-0.002-0.002,0.005-0.004
		c0.004-0.003,0.014-0.005,0.035-0.005c0.013,0,0.029,0,0.051,0.003c0.024,0,0.044,0.001,0.061,0.002l0.001,0.002
		c0.076,0.153,0.131,0.665,0.123,1.173C81.631,23.254,81.631,23.361,81.633,23.461z M100.021,26.699
		c-0.062,0.137-0.124,0.236-0.171,0.299c-0.006-0.007-0.013-0.014-0.02-0.021c-0.265-0.255-0.695-1.307-0.677-2.805
		c-0.004-0.982,0.201-1.849,0.445-2.335c0.068-0.145,0.139-0.252,0.194-0.322c0.225,0.236,0.667,1.322,0.63,2.754
		C100.43,25.32,100.245,26.221,100.021,26.699z"/>
	<path d="M183.026,26.542v-3.884c-0.01-1.806-0.176-3.808-1.174-5.565c-0.977-1.789-3.049-3.079-5.77-3.029
		c-1.443-0.009-2.684,0.488-3.695,1.245l-0.23-0.665h-8.793v-0.001h-0.734c0.783-0.891,1.158-2.044,1.154-3.205
		c-0.002-2.228-1.764-4.739-4.805-4.788c-1.492-0.011-2.768,0.679-3.551,1.607c-0.793,0.931-1.194,2.057-1.202,3.181
		c0.016,1.165,0.479,2.323,1.288,3.205h-2.127v3.882c-0.369-0.579-0.793-1.111-1.277-1.581c-1.795-1.75-4.267-2.653-6.954-2.686
		c-2.455,0-4.869,0.874-6.705,2.57c-0.515,0.472-0.973,1.018-1.375,1.616V8.227h-7.254l-0.275,0.719
		c-0.954-0.6-2.281-1.112-4.018-1.104c-5.007,0.071-10.603,5.232-10.644,13.364c-0.002,3.882,1.157,7.182,3.32,9.505
		c2.151,2.321,5.251,3.57,8.765,3.57h0.034c4.233-0.006,7.577-2.148,9.819-4.603c0.465,0.768,1.021,1.449,1.662,2.02
		c1.883,1.684,4.342,2.483,6.8,2.486h0.009c2.592,0,5.035-0.872,6.83-2.581c0.476-0.448,0.896-0.958,1.263-1.515v3.677h11.423
		v-0.001h19.631v-7.223H183.026z M135.396,24.067L135.396,24.067c-0.005,0.102-0.003,0.165-0.003,0.195
		c-0.001,0.293,0.019,0.575,0.038,0.857l-2.844-3.336l-1.139,1.358c-0.226,0.275-0.663,0.893-1.391,1.543
		c-0.71,0.641-1.566,1.101-2.243,1.082c-0.903-0.021-1.461-0.371-2.018-1.164c-0.531-0.79-0.878-2.039-0.874-3.397
		c-0.004-1.556,0.329-2.94,0.799-3.798c0.5-0.885,0.925-1.086,1.282-1.086c0.589,0.024,0.8,0.175,1.124,0.595
		c0.302,0.425,0.532,1.188,0.562,2.032l0.062,1.357h7.326C135.656,21.496,135.406,22.727,135.396,24.067z M145.427,26.699
		c-0.062,0.138-0.123,0.236-0.171,0.299c-0.006-0.007-0.013-0.015-0.021-0.022c-0.263-0.253-0.695-1.306-0.677-2.803
		c-0.004-0.985,0.202-1.851,0.446-2.336c0.069-0.144,0.14-0.251,0.195-0.322c0.224,0.237,0.667,1.322,0.63,2.755
		C145.836,25.32,145.65,26.222,145.427,26.699z M164.448,21.834v4.707h-1.084v-4.707H164.448z M173.862,23.462v3.079h-0.58v-3.079
		c-0.008-0.563,0.098-1.133,0.219-1.36c0.061-0.117,0.09-0.128,0.088-0.132c0,0-0.002-0.002,0.004-0.004
		c0.004-0.003,0.016-0.005,0.035-0.005c0.014,0,0.029,0.001,0.049,0.003c0.025,0,0.047,0.001,0.062,0.002
		c0.002,0.001,0.002,0.002,0.002,0.002c0.076,0.155,0.129,0.665,0.121,1.172C173.86,23.254,173.86,23.361,173.862,23.462z"/>
	<path d="M282.028,14.644l0.018-0.807h-1.502c-1.746-0.008-3.115,0.391-4.115,1.166c-0.078,0.062-0.154,0.124-0.229,0.188
		l-0.238-0.547h-8.137v2.881c-1.615-2.057-4.275-3.343-7.336-3.332c-2.611-0.004-5.047,0.911-6.807,2.658
		c-0.91,0.899-1.619,2.013-2.096,3.285V6.646h-9.795V6.645h-9.77v7.16h1.053v12.799h-1.293v0.003h-0.379v-4.693
		c0.037-3.043-1.455-5.327-3.416-6.532c-1.949-1.231-4.234-1.603-6.232-1.611c-3.316,0.022-6.076,1.717-7.369,2.528l-0.984,0.633
		l0.373,1.108l0.41,1.215h-1.117V8.227h-7.129l-0.26,0.955c-1.119-0.745-2.775-1.406-5.09-1.343
		c-5.771,0.059-10.723,5.72-10.732,13.366c0,3.778,1.139,6.987,3.115,9.268c1.959,2.275,4.76,3.581,7.801,3.581h0.029
		c1.701-0.021,3.207-0.481,4.369-1.249l0.439,0.959h8.48v-2.517c0.396,0.624,0.887,1.159,1.441,1.585
		c1.457,1.129,3.246,1.603,4.957,1.607c0.959-0.004,2.35-0.235,3.623-1.074l0.23,0.461h19.223v-0.001h9.793V31.29
		c0.189,0.213,0.385,0.419,0.59,0.607c1.838,1.704,4.189,2.447,6.391,2.449c0.045,0,0.09,0,0.135,0c2.719,0,5.168-0.629,7.322-2.145
		v1.563h11.512v-7.223h-1.504l0.002-1.82c0.021-1.188,0.262-1.458,0.502-1.654c0.26-0.217,1.004-0.437,2.236-0.426h2.088
		l4.758,9.684l-0.242,0.785c-0.078,0.265-0.225,0.523-0.324,0.638c-0.195-0.098-0.551-0.342-0.881-0.672l-1.367-1.287l-3.826,6.459
		l0.887,0.825c1.068,1.004,2.607,1.894,4.566,2.009l0.105,0.006l0.053-0.004h0.014c2.438,0.015,4.287-0.776,5.504-1.932
		c1.219-1.145,1.811-2.503,2.258-3.514l0.016-0.039l5.355-13.957h1.912v-6.998H282.028z M202.308,19.254v6.335
		c-0.535-0.111-0.928-0.417-1.34-1.007c-0.494-0.742-0.838-1.96-0.834-3.377c-0.004-1.353,0.369-2.609,0.902-3.422
		c0.559-0.824,1.119-1.137,1.721-1.139c0.859,0.028,1.779,0.592,1.926,2.609H202.308z M242.87,26.603h-1.08V13.804h1.08V26.603z"/>
</g>
<g id="_x3C_Group:_Logotype_Stroke_White_OL_x3E__2_">
	<g>
		<path fill="#FFFFFF" d="M105.592,15.483c-1.793-1.752-4.267-2.654-6.955-2.688c-2.453,0.003-4.868,0.874-6.704,2.571
			c-1.029,0.945-1.849,2.165-2.384,3.587c-0.146-1.132-0.442-2.271-1.038-3.322c-0.977-1.791-3.05-3.079-5.769-3.03
			c-1.445-0.008-2.685,0.488-3.696,1.245l-0.23-0.664h-8.973v0.001h-5.093l-0.05,0.44c-0.974-0.521-2.118-0.814-3.333-0.828
			c-1.382,0.01-2.95,0.416-4.32,1.387c-0.843,0.586-1.591,1.456-2.039,2.54c-1.538-2.431-4.403-4.002-7.777-3.99
			c-2.611-0.004-5.044,0.911-6.805,2.658c-0.125,0.124-0.239,0.262-0.357,0.394v-3.406h-1.501c-1.746-0.008-3.116,0.39-4.115,1.165
			c-0.079,0.062-0.155,0.124-0.228,0.188l-0.24-0.548H27.32V6.765H6.334v7.258h1.865v10.993H6.334v7.288h14.189v-7.288h-3.069V23.92
			h5.715v-7.027h2.681v3.48h1.294v4.706h-1.323v7.225h11.51V25.08h-1.504V23.26c0.025-1.188,0.265-1.457,0.505-1.653
			c0.193-0.164,0.661-0.327,1.399-0.395c-0.054,0.467-0.092,0.941-0.091,1.435c-0.01,3.43,1.207,6.091,3.051,7.789
			c1.84,1.703,4.191,2.448,6.391,2.448c0.048,0,0.096,0,0.145,0c2.68,0,5.097-0.615,7.228-2.085v1.505h6.566l0.066-0.479
			c0.992,0.532,2.18,0.856,3.5,0.865c1.765-0.002,3.483-0.535,4.829-1.61c0.149-0.118,0.291-0.246,0.428-0.378v1.603h21.254v-2.98
			c0.273,0.325,0.559,0.636,0.871,0.913c1.883,1.685,4.343,2.484,6.8,2.487c2.593,0,5.041-0.872,6.837-2.581
			c1.803-1.703,2.88-4.227,2.872-7.209v-0.127C108.436,19.775,107.394,17.229,105.592,15.483z M18.995,16.632h-1.541v-2.609h1.541
			V16.632z M71.106,23.632c-0.302-0.643-0.7-1.201-1.165-1.646h1.165V23.632z M80.521,22l0,3.079h-0.578L79.941,22
			c-0.008-0.562,0.097-1.134,0.22-1.36c0.057-0.116,0.088-0.127,0.086-0.131c0,0-0.002-0.002,0.004-0.004
			c0.004-0.003,0.014-0.005,0.036-0.005c0.013,0,0.029,0,0.05,0.003c0.024,0,0.044,0.001,0.061,0.002l0,0.002
			c0.076,0.153,0.131,0.665,0.123,1.173C80.52,21.793,80.52,21.9,80.521,22z M98.911,25.238c-0.062,0.137-0.124,0.236-0.171,0.299
			c-0.006-0.007-0.013-0.014-0.02-0.021c-0.265-0.255-0.695-1.307-0.677-2.805c-0.004-0.982,0.201-1.849,0.445-2.335
			c0.068-0.145,0.139-0.252,0.195-0.322c0.225,0.236,0.667,1.322,0.63,2.754C99.319,23.859,99.134,24.76,98.911,25.238z"/>
	</g>
	<g>
		<path fill="#FFFFFF" d="M181.917,25.081v-3.884c-0.01-1.806-0.176-3.808-1.174-5.565c-0.977-1.789-3.051-3.079-5.77-3.029
			c-1.445-0.009-2.684,0.488-3.695,1.245l-0.23-0.665h-8.793v-0.001h-0.736c0.783-0.891,1.16-2.044,1.156-3.205
			c-0.004-2.228-1.766-4.739-4.807-4.788c-1.492-0.011-2.766,0.679-3.552,1.607c-0.793,0.931-1.192,2.057-1.2,3.181
			c0.016,1.165,0.477,2.323,1.286,3.205h-2.126v3.882c-0.37-0.579-0.794-1.111-1.278-1.581c-1.795-1.75-4.267-2.653-6.954-2.686
			c-2.455,0-4.869,0.874-6.705,2.57c-0.514,0.472-0.972,1.018-1.375,1.616V6.766h-7.254l-0.275,0.719
			c-0.954-0.6-2.281-1.112-4.017-1.104c-5.007,0.071-10.603,5.232-10.644,13.364c-0.002,3.882,1.157,7.182,3.32,9.505
			c2.151,2.321,5.251,3.57,8.764,3.57h0.034c4.234-0.006,7.577-2.148,9.819-4.603c0.465,0.768,1.021,1.449,1.662,2.02
			c1.883,1.684,4.342,2.483,6.8,2.486h0.009c2.592,0,5.035-0.872,6.83-2.581c0.475-0.448,0.896-0.958,1.264-1.515v3.677h11.422
			v-0.001h19.633v-7.223H181.917z M134.284,22.606L134.284,22.606c-0.005,0.102-0.003,0.165-0.003,0.195
			c-0.001,0.293,0.019,0.575,0.039,0.857l-2.844-3.336l-1.139,1.358c-0.226,0.275-0.663,0.893-1.391,1.543
			c-0.71,0.641-1.566,1.101-2.243,1.082c-0.903-0.021-1.461-0.371-2.017-1.164c-0.531-0.79-0.878-2.039-0.874-3.397
			c-0.004-1.556,0.329-2.94,0.798-3.798c0.5-0.885,0.925-1.086,1.282-1.086c0.589,0.024,0.8,0.175,1.125,0.595
			c0.302,0.425,0.532,1.188,0.562,2.032l0.062,1.436h7.326C134.545,20.035,134.295,21.266,134.284,22.606z M144.315,25.238
			c-0.061,0.138-0.123,0.236-0.17,0.299c-0.006-0.007-0.013-0.015-0.021-0.022c-0.263-0.253-0.695-1.306-0.677-2.803
			c-0.004-0.985,0.202-1.851,0.446-2.336c0.069-0.144,0.14-0.251,0.195-0.322c0.224,0.237,0.667,1.322,0.63,2.755
			C144.725,23.859,144.54,24.761,144.315,25.238z M163.339,20.374v4.707h-1.084v-4.707H163.339z M172.753,22.001l-0.002,3.079
			h-0.578v-3.079c-0.008-0.563,0.096-1.133,0.219-1.36c0.059-0.117,0.088-0.128,0.086-0.132c0,0-0.002-0.002,0.004-0.004
			c0.006-0.003,0.016-0.005,0.037-0.005c0.012,0,0.027,0.001,0.049,0.003c0.025,0,0.045,0.001,0.062,0.002c0,0.001,0,0.002,0,0.002
			c0.076,0.155,0.131,0.665,0.123,1.172C172.751,21.793,172.751,21.9,172.753,22.001z"/>
	</g>
	<g>
		<path fill="#FFFFFF" d="M280.917,13.183l0.018-0.807h-1.5c-1.746-0.008-3.115,0.391-4.115,1.166
			c-0.08,0.062-0.156,0.124-0.229,0.188l-0.24-0.547h-8.135v2.881c-1.617-2.057-4.275-3.343-7.338-3.332
			c-2.611-0.004-5.047,0.911-6.807,2.658c-0.908,0.899-1.617,2.013-2.096,3.285V5.185h-9.795V5.184h-9.979v7.16h1.262v12.799h-1.293
			v0.003h-0.379v-4.693c0.037-3.043-1.455-5.327-3.414-6.532c-1.949-1.231-4.234-1.603-6.234-1.611
			c-3.314,0.022-6.076,1.717-7.369,2.528l-0.984,0.633l0.375,1.108l0.41,1.215h-1.119V6.766h-7.129l-0.26,0.955
			c-1.119-0.745-2.773-1.406-5.088-1.343c-5.773,0.059-10.723,5.72-10.734,13.366c0,3.778,1.141,6.987,3.115,9.268
			c1.961,2.275,4.762,3.581,7.801,3.581h0.029c1.701-0.021,3.209-0.481,4.371-1.249l0.439,0.959h8.479v-2.517
			c0.396,0.624,0.887,1.159,1.443,1.585c1.457,1.129,3.244,1.603,4.957,1.606c0.959-0.004,2.35-0.234,3.623-1.073l0.229,0.461
			h19.225v-0.001h9.793v-2.536c0.189,0.213,0.383,0.419,0.588,0.607c1.84,1.704,4.191,2.446,6.391,2.448c0.045,0,0.092,0,0.137,0
			c2.719,0,5.168-0.629,7.322-2.145v1.563h11.512v-7.223h-1.506l0.002-1.82c0.023-1.188,0.264-1.458,0.504-1.654
			c0.258-0.217,1.004-0.437,2.236-0.426h2.086l4.76,9.684l-0.242,0.785c-0.08,0.265-0.225,0.523-0.326,0.638
			c-0.195-0.098-0.551-0.342-0.881-0.672l-1.365-1.287l-3.828,6.459l0.887,0.825c1.07,1.004,2.607,1.894,4.566,2.009l0.107,0.006
			l0.053-0.004h0.012c2.438,0.015,4.289-0.776,5.504-1.932c1.221-1.145,1.812-2.503,2.258-3.515l0.018-0.039l5.355-13.956h1.912
			v-6.998H280.917z M201.196,17.793v6.335c-0.535-0.111-0.928-0.417-1.338-1.007c-0.496-0.742-0.84-1.96-0.834-3.377
			c-0.006-1.353,0.367-2.609,0.902-3.422c0.557-0.824,1.119-1.137,1.719-1.139c0.861,0.028,1.779,0.592,1.926,2.609H201.196z
			 M241.759,25.142h-1.08l0.002-12.799h1.078V25.142z"/>
	</g>
</g>
<g id="_x3C_Group:_Logotype_OL_x3E__2_">
	<g>
		<linearGradient id="SVGID_1_" gradientUnits="userSpaceOnUse" x1="16.8276" y1="8.2671" x2="16.8276" y2="30.5171">
			<stop  offset="0" style="stop-color:#9B383B"/>
			<stop  offset="0.25" style="stop-color:#E84139"/>
			<stop  offset="0.5" style="stop-color:#F05146"/>
			<stop  offset="0.75" style="stop-color:#E84139"/>
			<stop  offset="1" style="stop-color:#8B3539"/>
		</linearGradient>
		<path fill="url(#SVGID_1_)" d="M25.82,8.267v7.125h-5.323v-2.869h-4.542v5.61h5.714v4.288h-5.714v4.095h3.068v4.288H7.835v-4.288
			H9.7V12.523H7.835V8.267H25.82z"/>
	</g>
	<g>
		<linearGradient id="SVGID_2_" gradientUnits="userSpaceOnUse" x1="32.9463" y1="14.8193" x2="32.9463" y2="30.5762">
			<stop  offset="0" style="stop-color:#9B383B"/>
			<stop  offset="0.25" style="stop-color:#E84139"/>
			<stop  offset="0.5" style="stop-color:#F05146"/>
			<stop  offset="0.75" style="stop-color:#E84139"/>
			<stop  offset="1" style="stop-color:#8B3539"/>
		</linearGradient>
		<path fill="url(#SVGID_2_)" d="M27.322,30.804v-4.224h1.323v-7.706h-1.293v-4.191h5.654l0.902,2.063
			c0.782-1.548,1.564-2.869,4.662-2.869v5.803c-2.707,0-4.241,0.742-4.241,3.579v3.321h1.504v4.224H27.322z"/>
	</g>
	<g>
		<linearGradient id="SVGID_3_" gradientUnits="userSpaceOnUse" x1="46.9927" y1="14.8193" x2="46.9927" y2="30.5757">
			<stop  offset="0" style="stop-color:#9B383B"/>
			<stop  offset="0.25" style="stop-color:#E84139"/>
			<stop  offset="0.5" style="stop-color:#F05146"/>
			<stop  offset="0.75" style="stop-color:#E84139"/>
			<stop  offset="1" style="stop-color:#8B3539"/>
		</linearGradient>
		<path fill="url(#SVGID_3_)" d="M54.842,28.58c-2.226,2.063-4.632,2.805-7.759,2.805c-3.729,0-7.94-2.547-7.94-8.737
			c0-5.288,3.549-8.415,8.09-8.415c3.579,0,6.315,1.967,7.188,4.675c0.361,1.129,0.691,3.611,0.06,5.449h-9.474
			c0.18,0.87,0.571,2.644,3.098,2.644c1.022,0,2.586-0.097,4.21-1.548L54.842,28.58z M49.639,21.164
			c-0.03-1.226-0.301-2.579-2.226-2.579c-1.834,0-2.255,1.773-2.315,2.579H49.639z"/>
	</g>
	<g>
		<linearGradient id="SVGID_4_" gradientUnits="userSpaceOnUse" x1="63.0684" y1="14.8193" x2="63.0684" y2="30.5762">
			<stop  offset="0" style="stop-color:#9B383B"/>
			<stop  offset="0.25" style="stop-color:#E84139"/>
			<stop  offset="0.5" style="stop-color:#F05146"/>
			<stop  offset="0.75" style="stop-color:#E84139"/>
			<stop  offset="1" style="stop-color:#8B3539"/>
		</linearGradient>
		<path fill="url(#SVGID_4_)" d="M55.956,25h4.03c0,1.709,2.286,2.16,3.188,2.16c0.602,0,1.324-0.193,1.324-1.097
			c0-0.967-2.256-1.128-4.421-1.934c-2.045-0.774-4-2.129-4-5.159c0-3.289,3.158-4.675,5.293-4.675c2.045,0,3.85,1.128,4.481,2.515
			l0.241-2.128h3.699v5.804h-3.91c0-1.354-1.564-2.45-3.068-2.45c-0.631,0-1.173,0.354-1.173,1.16c0,0.903,1.774,1.29,3.699,1.999
			c2.286,0.839,4.842,1.773,4.842,5.159c0,3.03-2.677,4.836-5.594,4.836c-2.165,0-3.879-1.129-4.602-2.354l-0.271,1.967h-3.759V25z"
			/>
	</g>
	<g>
		<linearGradient id="SVGID_5_" gradientUnits="userSpaceOnUse" x1="80.4722" y1="14.8193" x2="80.4722" y2="30.5762">
			<stop  offset="0" style="stop-color:#9B383B"/>
			<stop  offset="0.25" style="stop-color:#E84139"/>
			<stop  offset="0.5" style="stop-color:#F05146"/>
			<stop  offset="0.75" style="stop-color:#E84139"/>
			<stop  offset="1" style="stop-color:#8B3539"/>
		</linearGradient>
		<path fill="url(#SVGID_5_)" d="M71.344,30.804v-4.224h1.263v-7.706h-1.263v-4.191h6.406l0.692,1.999
			c1.022-1.516,2.406-2.579,4.301-2.579c4.662,0,5.443,3.707,5.443,7.093v5.385H89.6v4.224h-7.579v-8.803
			c0-1.096,0.09-2.998-1.685-2.998c-1.534,0-1.895,1.612-1.895,2.998v4.579h2.166v4.224H71.344z"/>
	</g>
	<g>
		<linearGradient id="SVGID_6_" gradientUnits="userSpaceOnUse" x1="98.6782" y1="14.8193" x2="98.6782" y2="30.5762">
			<stop  offset="0" style="stop-color:#9B383B"/>
			<stop  offset="0.25" style="stop-color:#E84139"/>
			<stop  offset="0.5" style="stop-color:#F05146"/>
			<stop  offset="0.75" style="stop-color:#E84139"/>
			<stop  offset="1" style="stop-color:#8B3539"/>
		</linearGradient>
		<path fill="url(#SVGID_6_)" d="M90.378,22.679c0.03-5.385,4.09-8.383,8.24-8.383c4.752,0.064,8.271,3.127,8.361,8.512
			c0.06,5.352-3.639,8.415-8.21,8.415C94.468,31.223,90.317,28.386,90.378,22.679z M100.814,22.808c0-2.418-0.782-4.288-2.196-4.32
			c-1.173,0-2.075,1.87-2.075,4.224c0,2.644,0.962,4.385,2.226,4.385C100.062,27.096,100.814,25.226,100.814,22.808z"/>
	</g>
	<g>
		<linearGradient id="SVGID_7_" gradientUnits="userSpaceOnUse" x1="125.1401" y1="7.8804" x2="125.1401" y2="31.0088">
			<stop  offset="0" style="stop-color:#9B383B"/>
			<stop  offset="0.25" style="stop-color:#E84139"/>
			<stop  offset="0.5" style="stop-color:#F05146"/>
			<stop  offset="0.75" style="stop-color:#E84139"/>
			<stop  offset="1" style="stop-color:#8B3539"/>
		</linearGradient>
		<path fill="url(#SVGID_7_)" d="M135.004,26.774c-2.045,2.418-5.173,4.546-9.112,4.546c-6.376,0-10.617-4.385-10.617-11.575
			c0-7.415,5.203-11.864,9.143-11.864c3.008,0,4.361,1.806,4.632,2.192l0.692-1.806h4.722v9.156h-5.384
			c-0.09-2.096-1.052-4.062-3.188-4.062c-2.166,0-3.579,2.87-3.579,6.384c0,3.192,1.534,6.062,4.391,6.062
			c2.526,0,4.511-2.837,4.782-3.159L135.004,26.774z"/>
	</g>
	<g>
		<linearGradient id="SVGID_8_" gradientUnits="userSpaceOnUse" x1="144.0835" y1="14.8193" x2="144.0835" y2="30.5762">
			<stop  offset="0" style="stop-color:#9B383B"/>
			<stop  offset="0.25" style="stop-color:#E84139"/>
			<stop  offset="0.5" style="stop-color:#F05146"/>
			<stop  offset="0.75" style="stop-color:#E84139"/>
			<stop  offset="1" style="stop-color:#8B3539"/>
		</linearGradient>
		<path fill="url(#SVGID_8_)" d="M135.783,22.679c0.03-5.385,4.09-8.383,8.24-8.383c4.752,0.064,8.271,3.127,8.361,8.512
			c0.06,5.352-3.639,8.415-8.21,8.415C139.873,31.223,135.723,28.386,135.783,22.679z M146.219,22.808
			c0-2.418-0.782-4.288-2.196-4.32c-1.173,0-2.075,1.87-2.075,4.224c0,2.644,0.962,4.385,2.226,4.385
			C145.467,27.096,146.219,25.226,146.219,22.808z"/>
	</g>
	<g>
		<linearGradient id="SVGID_9_" gradientUnits="userSpaceOnUse" x1="157.9883" y1="14.8188" x2="157.9883" y2="30.576">
			<stop  offset="0" style="stop-color:#9B383B"/>
			<stop  offset="0.25" style="stop-color:#E84139"/>
			<stop  offset="0.5" style="stop-color:#F05146"/>
			<stop  offset="0.75" style="stop-color:#E84139"/>
			<stop  offset="1" style="stop-color:#8B3539"/>
		</linearGradient>
		<path fill="url(#SVGID_9_)" d="M153.777,30.804v-4.224h1.263v-7.706h-1.263v-4.191h6.978v11.897h1.443v4.224H153.777z
			 M157.868,6.687c2.074,0,3.309,1.806,3.309,3.289c0,1.773-1.174,3.256-3.309,3.256c-1.895,0-3.249-1.709-3.249-3.256
			C154.619,8.493,155.763,6.687,157.868,6.687z"/>
	</g>
	<g>
		<linearGradient id="SVGID_10_" gradientUnits="userSpaceOnUse" x1="172.7031" y1="14.8193" x2="172.7031" y2="30.5762">
			<stop  offset="0" style="stop-color:#9B383B"/>
			<stop  offset="0.25" style="stop-color:#E84139"/>
			<stop  offset="0.5" style="stop-color:#F05146"/>
			<stop  offset="0.75" style="stop-color:#E84139"/>
			<stop  offset="1" style="stop-color:#8B3539"/>
		</linearGradient>
		<path fill="url(#SVGID_10_)" d="M163.575,30.804v-4.224h1.264v-7.706h-1.264v-4.191h6.406l0.691,1.999
			c1.023-1.516,2.406-2.579,4.301-2.579c4.662,0,5.443,3.707,5.443,7.093v5.385h1.414v4.224h-7.578v-8.803
			c0-1.096,0.09-2.998-1.686-2.998c-1.533,0-1.895,1.612-1.895,2.998v4.579h2.166v4.224H163.575z"/>
	</g>
	<g>
		<linearGradient id="SVGID_11_" gradientUnits="userSpaceOnUse" x1="201.4648" y1="7.8804" x2="201.4648" y2="30.7588">
			<stop  offset="0" style="stop-color:#9B383B"/>
			<stop  offset="0.25" style="stop-color:#E84139"/>
			<stop  offset="0.5" style="stop-color:#F05146"/>
			<stop  offset="0.75" style="stop-color:#E84139"/>
			<stop  offset="1" style="stop-color:#8B3539"/>
		</linearGradient>
		<path fill="url(#SVGID_11_)" d="M204.532,28.773c-0.662,1.192-2.525,2.321-4.842,2.321c-5.264,0-9.443-4.385-9.443-11.35
			c0-7.028,4.541-11.864,9.232-11.864c4.361,0,5.383,2.192,5.865,2.708l0.631-2.321h4.482v9.511h-5.385
			c-0.09-2.611-1.654-4.095-3.428-4.095c-2.436,0-4.121,2.838-4.121,6.062c0,3.289,1.504,5.933,4.121,5.933
			c1.715,0,2.436-0.741,2.887-1.579v-1.354h-1.834v-3.45h9.984v3.45h-1.203v8.061h-6.016L204.532,28.773z"/>
	</g>
	<g>
		<linearGradient id="SVGID_12_" gradientUnits="userSpaceOnUse" x1="222.0273" y1="14.8188" x2="222.0273" y2="30.5757">
			<stop  offset="0" style="stop-color:#9B383B"/>
			<stop  offset="0.25" style="stop-color:#E84139"/>
			<stop  offset="0.5" style="stop-color:#F05146"/>
			<stop  offset="0.75" style="stop-color:#E84139"/>
			<stop  offset="1" style="stop-color:#8B3539"/>
		</linearGradient>
		<path fill="url(#SVGID_12_)" d="M214.087,16.1c1.203-0.774,3.789-2.29,6.557-2.29c3.609,0,8.15,1.451,8.15,6.643v6.287h1.805
			v4.127h-6.436l-0.723-1.451c-1.113,1.645-2.977,2.063-4.061,2.063c-2.857,0-5.924-1.645-5.924-5.385
			c0-3.643,2.857-5.932,6.256-5.932c1.773,0,2.826,0.935,2.977,1.128v-1.128c0-1.451-1.232-1.806-2.857-1.806
			c-1.773,0-3.338,0.806-4.48,1.482L214.087,16.1z M222.688,24.999c-0.09-0.161-0.512-0.936-1.773-0.936
			c-1.203,0-1.744,0.71-1.744,1.709c0,0.903,0.691,1.516,1.594,1.516s1.654-0.58,1.924-1.063V24.999z"/>
	</g>
	<g>
		<linearGradient id="SVGID_13_" gradientUnits="userSpaceOnUse" x1="236.5645" y1="6.7583" x2="236.5645" y2="30.7588">
			<stop  offset="0" style="stop-color:#9B383B"/>
			<stop  offset="0.25" style="stop-color:#E84139"/>
			<stop  offset="0.5" style="stop-color:#F05146"/>
			<stop  offset="0.75" style="stop-color:#E84139"/>
			<stop  offset="1" style="stop-color:#8B3539"/>
		</linearGradient>
		<path fill="url(#SVGID_13_)" d="M232.173,30.851v-4.271h1.293V10.782h-1.262V6.623h6.977v19.958h1.775v4.271H232.173z"/>
	</g>
	<g>
		<linearGradient id="SVGID_14_" gradientUnits="userSpaceOnUse" x1="246.3594" y1="6.7583" x2="246.3594" y2="30.7588">
			<stop  offset="0" style="stop-color:#9B383B"/>
			<stop  offset="0.25" style="stop-color:#E84139"/>
			<stop  offset="0.5" style="stop-color:#F05146"/>
			<stop  offset="0.75" style="stop-color:#E84139"/>
			<stop  offset="1" style="stop-color:#8B3539"/>
		</linearGradient>
		<path fill="url(#SVGID_14_)" d="M241.968,30.851v-4.271h1.293V10.782h-1.262V6.623h6.977v19.958h1.775v4.271H241.968z"/>
	</g>
	<g>
		<linearGradient id="SVGID_15_" gradientUnits="userSpaceOnUse" x1="259.1377" y1="14.8193" x2="259.1377" y2="30.5757">
			<stop  offset="0" style="stop-color:#9B383B"/>
			<stop  offset="0.25" style="stop-color:#E84139"/>
			<stop  offset="0.5" style="stop-color:#F05146"/>
			<stop  offset="0.75" style="stop-color:#E84139"/>
			<stop  offset="1" style="stop-color:#8B3539"/>
		</linearGradient>
		<path fill="url(#SVGID_15_)" d="M266.987,28.58c-2.227,2.063-4.633,2.805-7.76,2.805c-3.73,0-7.939-2.547-7.939-8.737
			c0-5.288,3.549-8.415,8.09-8.415c3.578,0,6.314,1.967,7.188,4.675c0.361,1.129,0.691,3.611,0.061,5.449h-9.475
			c0.182,0.87,0.572,2.644,3.098,2.644c1.023,0,2.588-0.097,4.211-1.548L266.987,28.58z M261.784,21.164
			c-0.031-1.226-0.301-2.579-2.227-2.579c-1.834,0-2.256,1.773-2.314,2.579H261.784z"/>
	</g>
	<g>
		<linearGradient id="SVGID_16_" gradientUnits="userSpaceOnUse" x1="273.8105" y1="14.8193" x2="273.8105" y2="30.5762">
			<stop  offset="0" style="stop-color:#9B383B"/>
			<stop  offset="0.25" style="stop-color:#E84139"/>
			<stop  offset="0.5" style="stop-color:#F05146"/>
			<stop  offset="0.75" style="stop-color:#E84139"/>
			<stop  offset="1" style="stop-color:#8B3539"/>
		</linearGradient>
		<path fill="url(#SVGID_16_)" d="M268.187,30.804v-4.224h1.324v-7.706h-1.295v-4.191h5.654l0.902,2.063
			c0.783-1.548,1.564-2.869,4.662-2.869v5.803c-2.707,0-4.24,0.742-4.24,3.579v3.321h1.504v4.224H268.187z"/>
	</g>
	<g>
		<linearGradient id="SVGID_17_" gradientUnits="userSpaceOnUse" x1="289.7451" y1="15.0088" x2="289.7451" y2="37.2593">
			<stop  offset="0" style="stop-color:#9B383B"/>
			<stop  offset="0.25" style="stop-color:#E84139"/>
			<stop  offset="0.5" style="stop-color:#F05146"/>
			<stop  offset="0.75" style="stop-color:#E84139"/>
			<stop  offset="1" style="stop-color:#8B3539"/>
		</linearGradient>
		<path fill="url(#SVGID_17_)" d="M291.114,18.778v-4.095h7.639v3.998h-1.443l-5.715,14.896c-0.871,2-2.105,4.579-6.467,4.547
			c-1.562-0.097-2.736-0.773-3.639-1.611l2.256-3.806c0.512,0.483,1.113,0.967,1.744,1.096c0.934,0.193,1.625-0.741,1.926-1.709
			l0.42-1.354l-5.863-11.93h-1.234v-4.127h9.264v4.095h-1.414l1.955,5.029l1.955-5.029H291.114z"/>
	</g>
</g>
</svg>
