<svg width="157" height="50" viewBox="0 0 157 50" fill="none" xmlns="http://www.w3.org/2000/svg">
<circle cx="23.1368" cy="33.2632" r="12.1193" fill="white"/>
<circle cx="22.8614" cy="9.30002" r="6.33509" fill="white"/>
<path fill-rule="evenodd" clip-rule="evenodd" d="M18.1551 17.6308C19.5228 18.6086 23.444 19.9818 28.1663 17.6351C31.8109 18.0742 40.4174 21.2182 45.6866 30.2813C50.9559 39.3445 47.0039 44.1571 44.3693 45.4305C42.2616 46.66 35.2798 49.0399 24.2144 48.7238C10.3826 48.3286 6.95756 47.4064 3.92774 45.4305C0.897913 43.4545 -1.34152 38.9756 2.87389 30.2813C6.24621 23.3259 14.4665 18.9496 18.1551 17.6308ZM26.7173 25.8025C26.0586 27.0759 25.3736 29.649 27.9029 29.7544C30.4321 29.8598 30.6253 28.1297 30.4058 27.2515C30.1862 26.1977 28.6933 24.09 24.4779 24.09V21.1919H23.1605V24.09C21.4919 24.1339 18.8134 24.7486 17.6278 27.2515C16.574 29.6754 17.3644 31.6426 17.8913 32.2573C18.9451 33.4868 20.6313 34.286 23.1605 34.4968V40.2929C22.5897 40.3808 21.2373 40.3456 20.3942 39.5026C21.0968 38.0974 21.7905 35.2871 18.9451 35.2871C16.0997 35.2871 16.4422 37.5705 16.9692 38.7122C17.54 39.8099 19.5511 41.9001 23.0288 41.4785V45.2987H24.3461V41.4785C25.7074 41.5224 28.7723 41.0306 30.1423 38.7122C31.5123 36.3937 30.7132 34.0577 30.1423 33.1794C29.6154 32.3891 27.7448 30.7556 24.4779 30.5448V25.4073C24.8731 25.3195 25.8742 25.2756 26.7173 25.8025ZM23.1606 25.2756V30.6765C22.1506 30.7205 20.1307 30.2287 20.1307 27.9102C20.1307 25.5917 22.1506 25.1877 23.1606 25.2756ZM24.4779 40.1721V34.7711C25.4878 34.6833 27.5077 35.0873 27.5077 37.4058C27.5077 39.7242 25.4878 40.216 24.4779 40.1721Z" fill="url(#paint0_linear_202_407)"/>
<path fill-rule="evenodd" clip-rule="evenodd" d="M28.1663 15.5274C23.1079 18.162 19.3842 16.6252 18.1547 15.5274C17.6278 14.6843 14.4224 9.90687 12.8855 7.62353C11.4101 4.9889 13.8515 4.5937 15.2567 4.72543C15.4674 1.77465 17.7156 2.35427 18.8134 3.01292C20.8157 -0.148632 23.8631 1.16868 25.1365 2.22253C26.1585 0.774739 27.5934 1.75297 28.7321 2.52928C29.0025 2.71361 29.2562 2.88654 29.4837 3.01292C32.3291 2.80215 32.4257 4.85716 32.1183 5.91102C28.9567 8.8618 28.1663 13.5514 28.1663 15.5274ZM18.1548 9.86296L17.3644 8.94084C17.4862 8.79085 17.6168 8.62818 17.7547 8.4563C19.555 6.21294 22.6144 2.40065 24.0827 4.72543C25.4658 6.91531 20.8193 8.78866 18.2837 9.81096L18.1548 9.86296ZM20.2625 12.8277L21.0528 13.7498C21.0952 13.7327 21.1382 13.7154 21.1818 13.6978C23.7174 12.6755 28.3638 10.8022 26.9808 8.6123C25.5125 6.28752 22.4531 10.0998 20.6528 12.3432C20.5149 12.515 20.3843 12.6777 20.2625 12.8277Z" fill="url(#paint1_linear_202_407)"/>
<g clip-path="url(#clip0_202_407)">
<path d="M64.0816 27.8862C62.3593 27.8862 60.8923 27.5115 59.6803 26.762C58.4684 25.9966 57.5435 24.968 56.9056 23.6763C56.2678 22.3847 55.9488 20.9495 55.9488 19.3708C55.9488 18.2864 56.1163 17.21 56.4512 16.1416C56.802 15.0732 57.3202 14.1084 58.0059 13.2473C58.6916 12.3702 59.5528 11.6766 60.5893 11.1663C61.6418 10.64 62.8617 10.3769 64.249 10.3769C64.6796 10.3769 65.1659 10.4248 65.7081 10.5204C66.2503 10.6002 66.7925 10.7277 67.3347 10.9032C67.8928 11.0786 68.3871 11.2938 68.8177 11.549L68.722 10.5444H70.5638V16.1177H69.0091C68.8655 15.2247 68.5865 14.4832 68.1719 13.8931C67.7573 13.3031 67.239 12.8566 66.6171 12.5536C65.9952 12.2506 65.3095 12.0991 64.56 12.0991C63.7307 12.0991 63.0052 12.2905 62.3833 12.6732C61.7773 13.0559 61.275 13.5662 60.8763 14.2041C60.4777 14.842 60.1747 15.5675 59.9674 16.3808C59.776 17.1941 59.6803 18.0313 59.6803 18.8924C59.6803 20.2638 59.8717 21.4837 60.2544 22.5521C60.6371 23.6205 61.1952 24.4657 61.9288 25.0876C62.6783 25.6936 63.5952 25.9966 64.6796 25.9966C64.9826 25.9966 65.3414 25.9726 65.756 25.9248C66.1706 25.877 66.5852 25.8052 66.9998 25.7095C67.4144 25.6138 67.7652 25.4942 68.0523 25.3507V23.1262C68.0523 22.6956 68.0602 22.281 68.0762 21.8824C68.1081 21.4837 68.132 21.1807 68.1479 20.9734C67.8928 20.9893 67.5739 21.0053 67.1912 21.0212C66.8084 21.0212 66.5294 21.0292 66.354 21.0452V19.2033H72.7166V20.782C72.4455 20.798 72.2063 20.8299 71.999 20.8777C71.8077 20.9256 71.6402 21.0212 71.4967 21.1648C71.3691 21.2923 71.2735 21.4917 71.2097 21.7628C71.1459 22.0338 71.114 22.4006 71.114 22.8631V26.6902H70.5399C70.0775 26.6902 69.615 26.754 69.1526 26.8816C68.6901 27.0092 68.1958 27.1527 67.6695 27.3122C67.1752 27.4557 66.633 27.5832 66.043 27.6949C65.453 27.8224 64.7992 27.8862 64.0816 27.8862ZM82.2823 27.8862C80.7674 27.8862 79.4757 27.6311 78.4073 27.1208C77.3548 26.6105 76.5017 25.9328 75.8479 25.0876C75.1941 24.2265 74.7157 23.2777 74.4127 22.2411C74.1097 21.2046 73.9582 20.1681 73.9582 19.1316C73.9582 18.1269 74.1257 17.1143 74.4605 16.0938C74.8114 15.0572 75.3296 14.1084 76.0153 13.2473C76.717 12.3862 77.594 11.6925 78.6465 11.1663C79.699 10.64 80.9348 10.3769 82.3541 10.3769C83.8052 10.3769 85.057 10.64 86.1095 11.1663C87.162 11.6925 88.0231 12.3942 88.6928 13.2712C89.3626 14.1323 89.8569 15.0732 90.1759 16.0938C90.5107 17.1143 90.6782 18.1269 90.6782 19.1316C90.6782 20.1203 90.5028 21.1249 90.1519 22.1455C89.8171 23.166 89.2988 24.1149 88.5971 24.9919C87.9114 25.853 87.0424 26.5547 85.9899 27.0969C84.9374 27.6231 83.7016 27.8862 82.2823 27.8862ZM82.5454 26.1401C83.3746 26.1401 84.0683 25.9407 84.6265 25.5421C85.1846 25.1275 85.6311 24.5933 85.966 23.9395C86.3008 23.2856 86.54 22.576 86.6836 21.8106C86.8271 21.0292 86.8988 20.2718 86.8988 19.5382C86.8988 18.4379 86.8032 17.4333 86.6118 16.5243C86.4204 15.6154 86.1254 14.834 85.7268 14.1802C85.3281 13.5104 84.8178 13.0001 84.1959 12.6493C83.5899 12.2825 82.8723 12.1071 82.0431 12.1231C81.2298 12.139 80.5441 12.3623 79.986 12.7928C79.4279 13.2074 78.9814 13.7496 78.6465 14.4194C78.3116 15.0732 78.0724 15.7908 77.9289 16.5722C77.7854 17.3535 77.7136 18.111 77.7136 18.8445C77.7136 19.594 77.7934 20.3914 77.9528 21.2365C78.1282 22.0817 78.3993 22.879 78.7661 23.6285C79.1329 24.378 79.6272 24.984 80.2491 25.4464C80.871 25.9089 81.6365 26.1401 82.5454 26.1401ZM92.4204 27.5035V25.9248C92.7872 25.9089 93.0901 25.861 93.3293 25.7813C93.5845 25.7015 93.7758 25.5182 93.9034 25.2311C94.0469 24.9441 94.1187 24.4816 94.1187 23.8438V14.6825C94.1187 14.2519 94.1267 13.8373 94.1426 13.4387C94.1745 13.04 94.1984 12.737 94.2144 12.5297C93.9592 12.5457 93.6403 12.5616 93.2576 12.5775C92.8749 12.5775 92.5958 12.5855 92.4204 12.6015V10.7596H99.2854V12.3383C98.9346 12.3543 98.6316 12.4021 98.3764 12.4819C98.1213 12.5616 97.9219 12.745 97.7784 13.032C97.6509 13.3031 97.5871 13.7656 97.5871 14.4194V23.5807C97.5871 24.0112 97.5791 24.4179 97.5631 24.8006C97.5472 25.1833 97.5233 25.4783 97.4914 25.6856H100.697C101.637 25.6697 102.371 25.3428 102.897 24.7049C103.439 24.0511 103.711 23.0704 103.711 21.7628H105.313L105.17 27.5035H92.4204ZM106.856 25.9248C107.223 25.9089 107.526 25.861 107.765 25.7813C108.02 25.7015 108.212 25.5182 108.339 25.2311C108.483 24.9441 108.555 24.4816 108.555 23.8438V14.6825C108.555 14.2519 108.563 13.8373 108.579 13.4387C108.61 13.04 108.634 12.737 108.65 12.5297C108.395 12.5457 108.076 12.5616 107.694 12.5775C107.311 12.5775 107.032 12.5855 106.856 12.6015V10.7596L113.817 10.7357C115.396 10.7357 116.759 10.9749 117.907 11.4533C119.071 11.9158 120.02 12.5457 120.754 13.343C121.503 14.1403 122.061 15.0333 122.428 16.022C122.795 16.9947 122.978 17.9754 122.978 18.9641C122.978 19.9369 122.803 20.9256 122.452 21.9302C122.117 22.9348 121.583 23.8597 120.849 24.7049C120.116 25.5341 119.159 26.2118 117.979 26.7381C116.799 27.2484 115.372 27.5035 113.697 27.5035H106.856V25.9248ZM112.023 23.5807C112.023 24.0112 112.015 24.4258 111.999 24.8245C111.983 25.2232 111.959 25.5261 111.927 25.7334C112.087 25.7175 112.302 25.7175 112.573 25.7334C112.86 25.7334 113.155 25.7414 113.458 25.7574C113.761 25.7574 114.008 25.7574 114.2 25.7574C115.077 25.7574 115.826 25.582 116.448 25.2311C117.086 24.8803 117.604 24.4099 118.003 23.8199C118.418 23.2139 118.721 22.5362 118.912 21.7867C119.103 21.0372 119.199 20.2638 119.199 19.4665C119.199 17.8399 118.976 16.5084 118.529 15.4718C118.083 14.4353 117.453 13.6619 116.64 13.1516C115.842 12.6413 114.885 12.3702 113.769 12.3383C113.386 12.3224 113.06 12.3623 112.788 12.4579C112.533 12.5377 112.342 12.7211 112.214 13.0081C112.087 13.2951 112.023 13.7496 112.023 14.3715V23.5807ZM132.812 21.7388C132.812 21.0691 132.709 20.5907 132.501 20.3036C132.294 20.0007 132.007 19.8093 131.64 19.7296C131.289 19.6498 130.899 19.6179 130.468 19.6339L129.846 19.6578V23.5807C129.846 24.0112 129.838 24.4179 129.822 24.8006C129.806 25.1833 129.782 25.4783 129.75 25.6856H132.956C133.434 25.6856 133.897 25.582 134.343 25.3746C134.79 25.1514 135.156 24.7926 135.443 24.2983C135.73 23.788 135.874 23.1023 135.874 22.2411H137.429L137.309 27.5035H124.679V25.9248C125.046 25.9089 125.349 25.861 125.588 25.7813C125.844 25.7015 126.035 25.5182 126.162 25.2311C126.306 24.9441 126.378 24.4816 126.378 23.8438V14.6825C126.378 14.2519 126.386 13.8373 126.402 13.4387C126.434 13.04 126.457 12.737 126.473 12.5297C126.218 12.5457 125.899 12.5616 125.517 12.5775C125.134 12.5775 124.855 12.5855 124.679 12.6015V10.7596H136.639L136.783 15.4001H135.204C135.204 14.523 135.053 13.8612 134.75 13.4147C134.447 12.9682 134.072 12.6732 133.625 12.5297C133.179 12.3702 132.74 12.2985 132.31 12.3144L131.449 12.3383C131.114 12.3383 130.827 12.3862 130.588 12.4819C130.348 12.5616 130.165 12.753 130.037 13.0559C129.91 13.343 129.846 13.7975 129.846 14.4194V18.0073H132.645L132.549 15.9263H134.391V21.7388H132.812ZM152.331 27.7427L144.677 17.9595C144.47 17.6884 144.254 17.4014 144.031 17.0984C143.808 16.7954 143.585 16.4844 143.361 16.1655H143.337L143.385 23.5807C143.385 24.0112 143.377 24.4258 143.361 24.8245C143.345 25.2232 143.322 25.5261 143.29 25.7334C143.545 25.7016 143.864 25.6856 144.246 25.6856C144.645 25.6697 144.924 25.6617 145.084 25.6617V27.5035H139.63V25.9248C139.997 25.9089 140.3 25.861 140.539 25.7813C140.794 25.7015 140.985 25.5182 141.113 25.2311C141.256 24.9441 141.328 24.4816 141.328 23.8438L141.28 14.6825C141.28 14.2519 141.288 13.8373 141.304 13.4387C141.32 13.04 141.344 12.737 141.376 12.5297C141.121 12.5457 140.794 12.5616 140.395 12.5775C140.013 12.5775 139.734 12.5855 139.558 12.6015V10.7596H143.314L150.633 19.9927C151.032 20.503 151.359 20.9415 151.614 21.3083C151.885 21.675 152.116 21.994 152.307 22.2651H152.331V14.6825C152.331 14.2519 152.339 13.8373 152.355 13.4387C152.371 13.04 152.387 12.737 152.403 12.5297C152.148 12.5457 151.829 12.5616 151.446 12.5775C151.064 12.5775 150.784 12.5855 150.609 12.6015V10.7596H156.063V12.3383C155.712 12.3543 155.409 12.4021 155.154 12.4819C154.899 12.5616 154.699 12.745 154.556 13.032C154.428 13.3031 154.364 13.7656 154.364 14.4194V27.7427H152.331Z" fill="black"/>
<path d="M64.0816 27.8862C62.3593 27.8862 60.8923 27.5115 59.6803 26.762C58.4684 25.9966 57.5435 24.968 56.9056 23.6763C56.2678 22.3847 55.9488 20.9495 55.9488 19.3708C55.9488 18.2864 56.1163 17.21 56.4512 16.1416C56.802 15.0732 57.3202 14.1084 58.0059 13.2473C58.6916 12.3702 59.5528 11.6766 60.5893 11.1663C61.6418 10.64 62.8617 10.3769 64.249 10.3769C64.6796 10.3769 65.1659 10.4248 65.7081 10.5204C66.2503 10.6002 66.7925 10.7277 67.3347 10.9032C67.8928 11.0786 68.3871 11.2938 68.8177 11.549L68.722 10.5444H70.5638V16.1177H69.0091C68.8655 15.2247 68.5865 14.4832 68.1719 13.8931C67.7573 13.3031 67.239 12.8566 66.6171 12.5536C65.9952 12.2506 65.3095 12.0991 64.56 12.0991C63.7307 12.0991 63.0052 12.2905 62.3833 12.6732C61.7773 13.0559 61.275 13.5662 60.8763 14.2041C60.4777 14.842 60.1747 15.5675 59.9674 16.3808C59.776 17.1941 59.6803 18.0313 59.6803 18.8924C59.6803 20.2638 59.8717 21.4837 60.2544 22.5521C60.6371 23.6205 61.1952 24.4657 61.9288 25.0876C62.6783 25.6936 63.5952 25.9966 64.6796 25.9966C64.9826 25.9966 65.3414 25.9726 65.756 25.9248C66.1706 25.877 66.5852 25.8052 66.9998 25.7095C67.4144 25.6138 67.7652 25.4942 68.0523 25.3507V23.1262C68.0523 22.6956 68.0602 22.281 68.0762 21.8824C68.1081 21.4837 68.132 21.1807 68.1479 20.9734C67.8928 20.9893 67.5739 21.0053 67.1912 21.0212C66.8084 21.0212 66.5294 21.0292 66.354 21.0452V19.2033H72.7166V20.782C72.4455 20.798 72.2063 20.8299 71.999 20.8777C71.8077 20.9256 71.6402 21.0212 71.4967 21.1648C71.3691 21.2923 71.2735 21.4917 71.2097 21.7628C71.1459 22.0338 71.114 22.4006 71.114 22.8631V26.6902H70.5399C70.0775 26.6902 69.615 26.754 69.1526 26.8816C68.6901 27.0092 68.1958 27.1527 67.6695 27.3122C67.1752 27.4557 66.633 27.5832 66.043 27.6949C65.453 27.8224 64.7992 27.8862 64.0816 27.8862ZM82.2823 27.8862C80.7674 27.8862 79.4757 27.6311 78.4073 27.1208C77.3548 26.6105 76.5017 25.9328 75.8479 25.0876C75.1941 24.2265 74.7157 23.2777 74.4127 22.2411C74.1097 21.2046 73.9582 20.1681 73.9582 19.1316C73.9582 18.1269 74.1257 17.1143 74.4605 16.0938C74.8114 15.0572 75.3296 14.1084 76.0153 13.2473C76.717 12.3862 77.594 11.6925 78.6465 11.1663C79.699 10.64 80.9348 10.3769 82.3541 10.3769C83.8052 10.3769 85.057 10.64 86.1095 11.1663C87.162 11.6925 88.0231 12.3942 88.6928 13.2712C89.3626 14.1323 89.8569 15.0732 90.1759 16.0938C90.5107 17.1143 90.6782 18.1269 90.6782 19.1316C90.6782 20.1203 90.5028 21.1249 90.1519 22.1455C89.8171 23.166 89.2988 24.1149 88.5971 24.9919C87.9114 25.853 87.0424 26.5547 85.9899 27.0969C84.9374 27.6231 83.7016 27.8862 82.2823 27.8862ZM82.5454 26.1401C83.3746 26.1401 84.0683 25.9407 84.6265 25.5421C85.1846 25.1275 85.6311 24.5933 85.966 23.9395C86.3008 23.2856 86.54 22.576 86.6836 21.8106C86.8271 21.0292 86.8988 20.2718 86.8988 19.5382C86.8988 18.4379 86.8032 17.4333 86.6118 16.5243C86.4204 15.6154 86.1254 14.834 85.7268 14.1802C85.3281 13.5104 84.8178 13.0001 84.1959 12.6493C83.5899 12.2825 82.8723 12.1071 82.0431 12.1231C81.2298 12.139 80.5441 12.3623 79.986 12.7928C79.4279 13.2074 78.9814 13.7496 78.6465 14.4194C78.3116 15.0732 78.0724 15.7908 77.9289 16.5722C77.7854 17.3535 77.7136 18.111 77.7136 18.8445C77.7136 19.594 77.7934 20.3914 77.9528 21.2365C78.1282 22.0817 78.3993 22.879 78.7661 23.6285C79.1329 24.378 79.6272 24.984 80.2491 25.4464C80.871 25.9089 81.6365 26.1401 82.5454 26.1401ZM92.4204 27.5035V25.9248C92.7872 25.9089 93.0901 25.861 93.3293 25.7813C93.5845 25.7015 93.7758 25.5182 93.9034 25.2311C94.0469 24.9441 94.1187 24.4816 94.1187 23.8438V14.6825C94.1187 14.2519 94.1267 13.8373 94.1426 13.4387C94.1745 13.04 94.1984 12.737 94.2144 12.5297C93.9592 12.5457 93.6403 12.5616 93.2576 12.5775C92.8749 12.5775 92.5958 12.5855 92.4204 12.6015V10.7596H99.2854V12.3383C98.9346 12.3543 98.6316 12.4021 98.3764 12.4819C98.1213 12.5616 97.9219 12.745 97.7784 13.032C97.6509 13.3031 97.5871 13.7656 97.5871 14.4194V23.5807C97.5871 24.0112 97.5791 24.4179 97.5631 24.8006C97.5472 25.1833 97.5233 25.4783 97.4914 25.6856H100.697C101.637 25.6697 102.371 25.3428 102.897 24.7049C103.439 24.0511 103.711 23.0704 103.711 21.7628H105.313L105.17 27.5035H92.4204ZM106.856 25.9248C107.223 25.9089 107.526 25.861 107.765 25.7813C108.02 25.7015 108.212 25.5182 108.339 25.2311C108.483 24.9441 108.555 24.4816 108.555 23.8438V14.6825C108.555 14.2519 108.563 13.8373 108.579 13.4387C108.61 13.04 108.634 12.737 108.65 12.5297C108.395 12.5457 108.076 12.5616 107.694 12.5775C107.311 12.5775 107.032 12.5855 106.856 12.6015V10.7596L113.817 10.7357C115.396 10.7357 116.759 10.9749 117.907 11.4533C119.071 11.9158 120.02 12.5457 120.754 13.343C121.503 14.1403 122.061 15.0333 122.428 16.022C122.795 16.9947 122.978 17.9754 122.978 18.9641C122.978 19.9369 122.803 20.9256 122.452 21.9302C122.117 22.9348 121.583 23.8597 120.849 24.7049C120.116 25.5341 119.159 26.2118 117.979 26.7381C116.799 27.2484 115.372 27.5035 113.697 27.5035H106.856V25.9248ZM112.023 23.5807C112.023 24.0112 112.015 24.4258 111.999 24.8245C111.983 25.2232 111.959 25.5261 111.927 25.7334C112.087 25.7175 112.302 25.7175 112.573 25.7334C112.86 25.7334 113.155 25.7414 113.458 25.7574C113.761 25.7574 114.008 25.7574 114.2 25.7574C115.077 25.7574 115.826 25.582 116.448 25.2311C117.086 24.8803 117.604 24.4099 118.003 23.8199C118.418 23.2139 118.721 22.5362 118.912 21.7867C119.103 21.0372 119.199 20.2638 119.199 19.4665C119.199 17.8399 118.976 16.5084 118.529 15.4718C118.083 14.4353 117.453 13.6619 116.64 13.1516C115.842 12.6413 114.885 12.3702 113.769 12.3383C113.386 12.3224 113.06 12.3623 112.788 12.4579C112.533 12.5377 112.342 12.7211 112.214 13.0081C112.087 13.2951 112.023 13.7496 112.023 14.3715V23.5807ZM132.812 21.7388C132.812 21.0691 132.709 20.5907 132.501 20.3036C132.294 20.0007 132.007 19.8093 131.64 19.7296C131.289 19.6498 130.899 19.6179 130.468 19.6339L129.846 19.6578V23.5807C129.846 24.0112 129.838 24.4179 129.822 24.8006C129.806 25.1833 129.782 25.4783 129.75 25.6856H132.956C133.434 25.6856 133.897 25.582 134.343 25.3746C134.79 25.1514 135.156 24.7926 135.443 24.2983C135.73 23.788 135.874 23.1023 135.874 22.2411H137.429L137.309 27.5035H124.679V25.9248C125.046 25.9089 125.349 25.861 125.588 25.7813C125.844 25.7015 126.035 25.5182 126.162 25.2311C126.306 24.9441 126.378 24.4816 126.378 23.8438V14.6825C126.378 14.2519 126.386 13.8373 126.402 13.4387C126.434 13.04 126.457 12.737 126.473 12.5297C126.218 12.5457 125.899 12.5616 125.517 12.5775C125.134 12.5775 124.855 12.5855 124.679 12.6015V10.7596H136.639L136.783 15.4001H135.204C135.204 14.523 135.053 13.8612 134.75 13.4147C134.447 12.9682 134.072 12.6732 133.625 12.5297C133.179 12.3702 132.74 12.2985 132.31 12.3144L131.449 12.3383C131.114 12.3383 130.827 12.3862 130.588 12.4819C130.348 12.5616 130.165 12.753 130.037 13.0559C129.91 13.343 129.846 13.7975 129.846 14.4194V18.0073H132.645L132.549 15.9263H134.391V21.7388H132.812ZM152.331 27.7427L144.677 17.9595C144.47 17.6884 144.254 17.4014 144.031 17.0984C143.808 16.7954 143.585 16.4844 143.361 16.1655H143.337L143.385 23.5807C143.385 24.0112 143.377 24.4258 143.361 24.8245C143.345 25.2232 143.322 25.5261 143.29 25.7334C143.545 25.7016 143.864 25.6856 144.246 25.6856C144.645 25.6697 144.924 25.6617 145.084 25.6617V27.5035H139.63V25.9248C139.997 25.9089 140.3 25.861 140.539 25.7813C140.794 25.7015 140.985 25.5182 141.113 25.2311C141.256 24.9441 141.328 24.4816 141.328 23.8438L141.28 14.6825C141.28 14.2519 141.288 13.8373 141.304 13.4387C141.32 13.04 141.344 12.737 141.376 12.5297C141.121 12.5457 140.794 12.5616 140.395 12.5775C140.013 12.5775 139.734 12.5855 139.558 12.6015V10.7596H143.314L150.633 19.9927C151.032 20.503 151.359 20.9415 151.614 21.3083C151.885 21.675 152.116 21.994 152.307 22.2651H152.331V14.6825C152.331 14.2519 152.339 13.8373 152.355 13.4387C152.371 13.04 152.387 12.737 152.403 12.5297C152.148 12.5457 151.829 12.5616 151.446 12.5775C151.064 12.5775 150.784 12.5855 150.609 12.6015V10.7596H156.063V12.3383C155.712 12.3543 155.409 12.4021 155.154 12.4819C154.899 12.5616 154.699 12.745 154.556 13.032C154.428 13.3031 154.364 13.7656 154.364 14.4194V27.7427H152.331Z" fill="url(#paint2_linear_202_407)"/>
<path d="M62.9041 43.6756C64.5544 43.6756 65.8849 43.0743 66.7548 41.9869L65.1429 40.5285C64.58 41.2066 63.8892 41.5775 63.032 41.5775C61.5609 41.5775 60.5374 40.5541 60.5374 39.019C60.5374 37.4838 61.5609 36.4604 63.032 36.4604C63.8892 36.4604 64.58 36.8314 65.1429 37.5094L66.7548 36.051C65.8849 34.9636 64.5544 34.3623 62.9041 34.3623C60.0641 34.3623 57.9788 36.2941 57.9788 39.019C57.9788 41.7439 60.0641 43.6756 62.9041 43.6756ZM70.6992 36.4476C69.6118 36.4476 68.4349 36.729 67.6417 37.2535L68.4604 38.9038C68.9338 38.5328 69.6758 38.3026 70.341 38.3026C71.3005 38.3026 71.7738 38.6991 71.8122 39.4027H70.4306C68.2813 39.4027 67.3475 40.1959 67.3475 41.4752C67.3475 42.6777 68.2686 43.6116 69.9316 43.6116C70.9423 43.6116 71.6331 43.2662 71.9785 42.601V43.4965H74.2429V39.6458C74.2429 37.4454 72.9508 36.4476 70.6992 36.4476ZM70.6097 42.0765C70.034 42.0765 69.7014 41.7822 69.7014 41.3729C69.7014 40.9507 69.9828 40.6693 70.7632 40.6693H71.8122V41.2705C71.6203 41.8206 71.147 42.0765 70.6097 42.0765ZM78.2973 43.6116C80.5489 43.6116 81.7258 42.6138 81.7258 41.3345C81.7258 38.584 77.6449 39.6202 77.6449 38.6608C77.6449 38.4049 77.9391 38.1746 78.7579 38.1746C79.3719 38.1746 80.0627 38.3026 80.7536 38.6863L81.4828 37.0361C80.7919 36.6523 79.7173 36.4476 78.7451 36.4476C76.5703 36.4476 75.3677 37.4454 75.3677 38.7503C75.3677 41.5264 79.4615 40.4646 79.4615 41.3984C79.4615 41.6927 79.1928 41.8718 78.3741 41.8718C77.5297 41.8718 76.5959 41.6287 75.9562 41.2321L75.227 42.8952C75.905 43.3174 77.1204 43.6116 78.2973 43.6116ZM87.2892 36.4476C86.4704 36.4476 85.7412 36.7034 85.2039 37.2024V34.0041H82.7732V43.4965H85.2039V40.1447C85.2039 38.9934 85.8052 38.5072 86.5855 38.5072C87.2892 38.5072 87.7241 38.9294 87.7241 39.9273V43.4965H90.1548V39.5307C90.1548 37.3815 88.9139 36.4476 87.2892 36.4476ZM102.222 43.4965H104.858L100.892 34.5414H98.3973L94.4443 43.4965H97.0285L97.7321 41.7567H101.519L102.222 43.4965ZM98.4741 39.8889L99.6255 37.0233L100.777 39.8889H98.4741ZM110.336 34.0041V37.164C109.876 36.6779 109.223 36.4476 108.417 36.4476C106.524 36.4476 105.002 37.8164 105.002 40.0168C105.002 42.23 106.524 43.6116 108.417 43.6116C109.313 43.6116 109.991 43.3558 110.451 42.8057V43.4965H112.767V34.0041H110.336ZM108.929 41.6799C108.098 41.6799 107.471 41.0786 107.471 40.0168C107.471 38.9678 108.098 38.3793 108.929 38.3793C109.748 38.3793 110.375 38.9678 110.375 40.0168C110.375 41.0786 109.748 41.6799 108.929 41.6799ZM119.32 36.5627L117.567 40.7972L115.904 36.5627H113.41L116.263 43.4965H118.77L121.636 36.5627H119.32ZM124.982 36.4476C123.894 36.4476 122.717 36.729 121.924 37.2535L122.743 38.9038C123.216 38.5328 123.958 38.3026 124.624 38.3026C125.583 38.3026 126.056 38.6991 126.095 39.4027H124.713C122.564 39.4027 121.63 40.1959 121.63 41.4752C121.63 42.6777 122.551 43.6116 124.214 43.6116C125.225 43.6116 125.916 43.2662 126.261 42.601V43.4965H128.525V39.6458C128.525 37.4454 127.233 36.4476 124.982 36.4476ZM124.892 42.0765C124.317 42.0765 123.984 41.7822 123.984 41.3729C123.984 40.9507 124.265 40.6693 125.046 40.6693H126.095V41.2705C125.903 41.8206 125.43 42.0765 124.892 42.0765ZM134.576 36.4476C133.706 36.4476 132.925 36.7418 132.375 37.3175V36.5627H130.06V43.4965H132.49V40.1447C132.49 38.9934 133.092 38.5072 133.872 38.5072C134.576 38.5072 135.011 38.9294 135.011 39.9273V43.4965H137.441V39.5307C137.441 37.3815 136.2 36.4476 134.576 36.4476ZM142.611 43.6116C144.184 43.6116 145.387 42.908 145.86 41.7055L143.98 40.746C143.647 41.3984 143.161 41.6799 142.598 41.6799C141.754 41.6799 141.088 41.0914 141.088 40.0168C141.088 38.9678 141.754 38.3793 142.598 38.3793C143.161 38.3793 143.647 38.6608 143.98 39.3132L145.86 38.3537C145.387 37.1512 144.184 36.4476 142.611 36.4476C140.283 36.4476 138.632 37.9316 138.632 40.0168C138.632 42.1276 140.283 43.6116 142.611 43.6116ZM153.788 40.0424C153.788 37.7525 152.125 36.4476 150.078 36.4476C147.89 36.4476 146.266 37.9316 146.266 40.0168C146.266 42.0893 147.865 43.6116 150.334 43.6116C151.651 43.6116 152.624 43.2278 153.289 42.4858L152.01 41.1554C151.536 41.5648 151.088 41.7567 150.41 41.7567C149.515 41.7567 148.914 41.3473 148.709 40.6437H153.749C153.762 40.4518 153.788 40.2215 153.788 40.0424ZM150.091 38.1746C150.845 38.1746 151.383 38.6352 151.511 39.3644H148.671C148.811 38.6352 149.336 38.1746 150.091 38.1746Z" fill="white"/>
</g>
<defs>
<linearGradient id="paint0_linear_202_407" x1="-20.8069" y1="33.3492" x2="6.31743" y2="74.9513" gradientUnits="userSpaceOnUse">
<stop stop-color="#FBDA61"/>
<stop offset="1" stop-color="#F76B1C"/>
</linearGradient>
<linearGradient id="paint1_linear_202_407" x1="3.56386" y1="9.0873" x2="18.4077" y2="27.5221" gradientUnits="userSpaceOnUse">
<stop stop-color="#FBDA61"/>
<stop offset="1" stop-color="#F76B1C"/>
</linearGradient>
<linearGradient id="paint2_linear_202_407" x1="9.48797" y1="17.1367" x2="22.215" y2="65.1877" gradientUnits="userSpaceOnUse">
<stop stop-color="#FBDA61"/>
<stop offset="1" stop-color="#F76B1C"/>
</linearGradient>
<clipPath id="clip0_202_407">
<rect width="101.912" height="42.993" fill="white" transform="translate(55.0877 3.50351)"/>
</clipPath>
</defs>
</svg>
