<?xml version="1.0" encoding="UTF-8"?> <svg xmlns="http://www.w3.org/2000/svg" xmlns:xlink="http://www.w3.org/1999/xlink" version="1.1" x="0px" y="0px" viewBox="0 0 396.14 74.69" xml:space="preserve"> <g id="TM"> <g> <path fill="#87BD48" d="M389.43,38.76v0.97h-2.09v4.94h-1.14v-4.94h-2.07v-0.97H389.43z"></path> <path fill="#87BD48" d="M391.27,38.76l1.92,2.36l1.91-2.36h1.05v5.91H395v-4.22l-1.74,2.18h-0.16l-1.76-2.18v4.22h-1.13v-5.91 H391.27z"></path> </g> </g> <g id="financial_wellness"> <path d="M160.36,59.85c0.63,0,1.26-0.01,1.89-0.01c0.19,0,0.38,0,0.59,0c0-0.06,0-0.11,0-0.16c0.01-0.62,0-1.25,0.03-1.87 c0.07-1.23,0.34-2.4,0.97-3.47c0.57-0.97,1.37-1.66,2.42-2.05c0.46-0.17,0.95-0.25,1.44-0.27c0.65-0.03,1.3-0.01,1.93,0.15 c0.55,0.14,1.07,0.37,1.57,0.64c0.01,0.01,0.02,0.01,0.04,0.03c-0.93,0.42-1.47,1.12-1.65,2.12c-0.22-0.06-0.43-0.13-0.65-0.17 c-0.82-0.12-1.61-0.05-2.26,0.54c-0.4,0.36-0.59,0.84-0.72,1.35c-0.16,0.61-0.2,1.24-0.21,1.87c0,0.43,0,0.85,0,1.3 c0.97,0,1.94,0,2.92,0c0,0.87,0,1.73,0,2.6c-0.97,0-1.94,0-2.92,0c0,4,0,7.98,0,11.97c-0.98,0-1.94,0-2.92,0c0-3.98,0-7.96,0-11.96 c-0.84,0-1.67,0-2.49,0C160.36,61.57,160.36,60.71,160.36,59.85z"></path> <g> <path d="M174.79,55.44c0,0.91-0.78,1.71-1.72,1.71c-0.97,0-1.68-0.87-1.68-1.71c0-0.84,0.71-1.68,1.68-1.68 C174.01,53.75,174.79,54.53,174.79,55.44z M174.53,59.87V74.4h-2.88V59.87H174.53z"></path> </g> <g> <path d="M190.99,65.63v8.77h-2.88v-8.71c0-3.01-1.42-3.72-2.98-3.72c-1.33,0-2.62,0.78-3.5,2.04V74.4h-2.88V59.87h2.88v1.84 c1.29-1.49,3.11-2.14,4.43-2.14C189.18,59.58,190.99,61.78,190.99,65.63z"></path> </g> <g> <path d="M203.05,64.27v7.31c0,0.45,0.16,0.68,0.55,0.68c0.29,0,0.84-0.26,1.52-0.78v2.07c-1.1,0.75-2.07,1.13-3.01,1.13 c-1.04,0-1.71-0.42-1.97-1.49c-1.26,1-2.59,1.49-3.92,1.49c-2.07,0-3.56-1.65-3.56-3.56c0-2.65,1.81-3.59,7.51-5.5v-0.81 c0-1.81-0.91-2.52-2.62-2.52c-1.59,0-3.2,0.75-4.6,2.4v-3.14c1.13-1.33,2.78-1.97,4.82-1.97 C201.11,59.58,203.05,61.49,203.05,64.27z M197.64,72.65c0.91,0,1.75-0.45,2.52-1.2v-4.24c-3.33,1.1-4.6,2.04-4.6,3.4 C195.57,71.75,196.41,72.65,197.64,72.65z"></path> </g> <g> <path d="M220.06,65.63v8.77h-2.88v-8.71c0-3.01-1.42-3.72-2.98-3.72c-1.33,0-2.62,0.78-3.5,2.04V74.4h-2.88V59.87h2.88v1.84 c1.29-1.49,3.11-2.14,4.43-2.14C218.25,59.58,220.06,61.78,220.06,65.63z"></path> </g> <g> <path d="M234.17,60.58v3.07c-1.46-0.97-2.65-1.36-4.04-1.36c-2.88,0-4.4,2.4-4.4,4.82c0,2.07,1.07,4.85,4.95,4.85 c1.52,0,2.69-0.45,3.82-0.97v2.85c-1.39,0.55-2.82,0.84-4.24,0.84c-5.6,0-7.48-4.21-7.48-7.35c0-4.82,3.01-7.77,7.15-7.77 C231.32,59.58,232.52,59.84,234.17,60.58z"></path> </g> <g> <path d="M241.13,55.43c0,0.91-0.78,1.71-1.72,1.71c-0.97,0-1.68-0.87-1.68-1.71c0-0.84,0.71-1.68,1.68-1.68 C240.35,53.75,241.13,54.53,241.13,55.43z M240.87,59.87V74.4h-2.88V59.87H240.87z"></path> </g> <g> <path d="M254.38,64.27v7.31c0,0.45,0.16,0.68,0.55,0.68c0.29,0,0.84-0.26,1.52-0.78v2.07c-1.1,0.75-2.07,1.13-3.01,1.13 c-1.04,0-1.71-0.42-1.97-1.49c-1.26,1-2.59,1.49-3.92,1.49c-2.07,0-3.56-1.65-3.56-3.56c0-2.65,1.81-3.59,7.51-5.5v-0.81 c0-1.81-0.91-2.52-2.62-2.52c-1.59,0-3.2,0.75-4.6,2.4v-3.14c1.13-1.33,2.78-1.97,4.82-1.97 C252.44,59.58,254.38,61.49,254.38,64.27z M248.98,72.65c0.91,0,1.75-0.45,2.52-1.2v-4.24c-3.33,1.1-4.6,2.04-4.6,3.4 C246.91,71.75,247.75,72.65,248.98,72.65z"></path> </g> <g> <path d="M262.04,52.33V74.4h-2.88V52.33H262.04z"></path> </g> <g> <path d="M276.62,59.87l3.82,8.8l3.69-8.8h2.14l3.69,8.8l3.79-8.8h3.07l-6.41,14.82h-0.91l-4.3-10.16l-4.24,10.16h-0.94 l-6.47-14.82H276.62z"></path> </g> <g> <path d="M310.87,67.08v0.29h-10.23c0.19,2.75,1.97,4.56,4.69,4.56c1.88,0,3.72-0.65,5.28-1.78v2.82 c-1.91,1.26-3.59,1.71-5.66,1.71c-3.88,0-7.22-2.88-7.22-7.67c0-4.21,2.62-7.44,6.8-7.44C308.15,59.58,310.87,62.33,310.87,67.08z M308.02,65.66c-0.13-2.23-1.36-3.59-3.53-3.59c-2.07,0-3.62,1.59-3.79,3.59H308.02z"></path> </g> <g> <path d="M317.13,52.33V74.4h-2.88V52.33H317.13z"></path> </g> <g> <path d="M324.3,52.33V74.4h-2.88V52.33H324.3z"></path> </g> <g> <path d="M340.62,65.63v8.77h-2.88v-8.71c0-3.01-1.42-3.72-2.98-3.72c-1.33,0-2.62,0.78-3.5,2.04V74.4h-2.88V59.87h2.88v1.84 c1.29-1.49,3.11-2.14,4.43-2.14C338.81,59.58,340.62,61.78,340.62,65.63z"></path> </g> <g> <path d="M357.33,67.09v0.29H347.1c0.19,2.75,1.97,4.56,4.69,4.56c1.88,0,3.72-0.65,5.28-1.78v2.82c-1.91,1.26-3.59,1.71-5.66,1.71 c-3.88,0-7.22-2.88-7.22-7.67c0-4.21,2.62-7.44,6.8-7.44C354.61,59.58,357.33,62.33,357.33,67.09z M354.48,65.66 c-0.13-2.23-1.36-3.59-3.53-3.59c-2.07,0-3.62,1.59-3.79,3.59H354.48z"></path> </g> <g> <path d="M364.72,59.58c1.49,0,2.95,0.39,4.4,1.2v2.88c-1.65-1-2.88-1.55-4.21-1.55s-1.84,0.55-1.84,1.1 c0,0.71,0.19,1.13,2.88,2.65c1.75,1,3.88,2.33,3.88,4.69c0,1.72-1.29,4.14-4.98,4.14c-1.59,0-2.69-0.26-4.85-1.33v-3.11 c1.36,1.07,3.27,1.91,4.63,1.91c1.62,0,2.23-0.68,2.23-1.36c0-0.91-0.26-1.2-3.46-3.07c-1.91-1.17-3.3-2.36-3.3-4.37 C360.09,61.16,362.03,59.58,364.72,59.58z"></path> </g> <g> <path d="M377.28,59.58c1.49,0,2.95,0.39,4.4,1.2v2.88c-1.65-1-2.88-1.55-4.21-1.55s-1.84,0.55-1.84,1.1 c0,0.71,0.19,1.13,2.88,2.65c1.75,1,3.88,2.33,3.88,4.69c0,1.72-1.29,4.14-4.98,4.14c-1.59,0-2.69-0.26-4.85-1.33v-3.11 c1.36,1.07,3.27,1.91,4.63,1.91c1.62,0,2.23-0.68,2.23-1.36c0-0.91-0.26-1.2-3.46-3.07c-1.91-1.17-3.3-2.36-3.3-4.37 C372.65,61.16,374.59,59.58,377.28,59.58z"></path> </g> </g> <g id="GreenPath"> <g> <path fill="#87BD48" d="M142.15,11.24c-4.94-2.89-10.2-4.3-15.33-4.3c-10.4,0-16.63,7.38-16.63,15.6c0,8.67,6.5,15.41,16.31,15.41 c2.99,0,4.61-0.32,8.51-1.48v-7.9h-7.67v-6.55h15.72v19.33c-5.98,2.57-11.5,3.6-17.28,3.6c-16.11,0-24.43-10.59-24.43-22.22 c0-12.14,9.1-22.73,24.49-22.73c5.52,0,9.75,0.83,16.31,3.53V11.24z"></path> </g> <g> <path fill="#87BD48" d="M171.3,16.89l-3.44,7.06c-1.69-1.67-3.77-2.7-5.46-2.7c-3.12,0-6.43,2.89-7.08,8.22v14.9h-7.6V14.45h7.6v7 c2.86-5.14,5.91-7.58,9.16-7.58C166.81,13.87,169.09,14.96,171.3,16.89z"></path> </g> <g> <path fill="#87BD48" d="M200.1,29.47v1.16h-21.25c0.52,4.94,4.16,8.28,9.36,8.28c3.9,0,7.8-1.28,11.24-3.4v6.04 c-3.83,2.38-7.8,3.4-12.54,3.4c-9.03,0-15.79-6.04-15.79-15.73c0-8.86,5.78-15.35,15.14-15.35 C193.99,13.87,200.1,19.39,200.1,29.47z M192.76,26.52c-0.19-4.37-2.6-7-6.69-7c-4.03,0-7.02,2.95-7.21,7H192.76z"></path> </g> <g> <path fill="#87BD48" d="M231.32,29.47v1.16h-21.25c0.52,4.94,4.16,8.28,9.36,8.28c3.9,0,7.8-1.28,11.24-3.4v6.04 c-3.83,2.38-7.8,3.4-12.54,3.4c-9.03,0-15.79-6.04-15.79-15.73c0-8.86,5.78-15.35,15.14-15.35 C225.21,13.87,231.32,19.39,231.32,29.47z M223.98,26.52c-0.19-4.37-2.6-7-6.69-7c-4.03,0-7.02,2.95-7.21,7H223.98z"></path> </g> <g> <path fill="#87BD48" d="M262.89,26.2v18.17h-7.6v-17.4c0-5.39-2.47-7-5.59-7c-2.6,0-5,1.48-6.95,4.37v20.03h-7.6V14.45h7.6v3.98 c2.86-3.15,6.43-4.56,9.68-4.56C259.44,13.87,262.89,18.68,262.89,26.2z"></path> </g> <g> <path fill="#87BD48" d="M284.97,0.58c9.55,0,15.27,4.75,15.27,12.84c0,7.96-5.52,12.78-15.59,12.78h-7.02v18.17h-8.58V0.58H284.97 z M277.63,19.71h5.72c6.3,0,8.12-2.5,8.12-6.36c0-4.11-2.14-6.36-8.32-6.36h-5.52V19.71z"></path> </g> <g> <path fill="#87BD48" d="M324.62,23.44v13.74c0,1.16,0.26,1.99,1.23,1.99c0.71,0,1.62-0.45,2.99-1.35v4.88 c-2.73,1.54-4.94,2.25-7.21,2.25c-2.4,0-3.9-0.9-4.48-3.08c-2.66,2.12-5.46,3.08-8.51,3.08c-4.87,0-7.93-3.27-7.93-7.38 c0-6.68,7.21-8.67,16.31-11.56v-1.22c0-3.66-1.88-4.88-5.2-4.88c-3.64,0-7.34,1.67-10.4,5.07v-7c2.99-2.83,6.89-4.11,11.43-4.11 C320.4,13.87,324.62,17.72,324.62,23.44z M312.08,40.19c1.62,0,3.31-0.83,4.94-2.31v-8.15c-5.98,2.12-8.77,3.72-8.77,6.68 C308.25,38.59,309.81,40.19,312.08,40.19z"></path> </g> <g> <path fill="#87BD48" d="M340.76,7.32h0.52v7.13h9.75v5.97h-9.75v12.65c0,3.02,0.65,5.46,4.29,5.46c2.4,0,4.81-0.96,6.76-2.12v6.42 c-2.4,1.35-5.98,2.12-8.58,2.12c-6.69,0-10.07-3.4-10.07-11.17V20.42h-5.07v-1.03L340.76,7.32z"></path> </g> <g> <path fill="#87BD48" d="M381.7,25.81v18.56h-7.6V26.45c0-4.3-1.88-6.49-5.33-6.49c-2.66,0-4.74,1.16-7.21,4.3v20.1h-7.6V0.58h7.6 v17.91c2.66-3.02,5.91-4.62,9.75-4.62C378.51,13.87,381.7,18.68,381.7,25.81z"></path> </g> </g> <g id="path_icon"> <path fill="#87C140" d="M39.05,12.32c-6.3,0.51-12.53,1.4-18.62,3.1c-1.39,0.39-2.73,0.94-3.8,1.94c-1.06,0.99-0.97,1.94,0.24,2.74 c1.25,0.82,2.7,0.97,4.13,1.06c4.26,0.29,8.53,0.49,12.79,0.75c1.83,0.11,3.67,0.26,5.45,0.73c0.59,0.16,1.4,0.21,1.5,0.98 c0.09,0.7-0.66,0.93-1.15,1.23c-1.85,1.11-3.87,1.88-5.83,2.77c-2,0.9-4.05,1.7-5.9,2.9c-3.82,2.49-5.52,6.53-4.31,10.35 c0.8,2.55,2.62,4.33,4.73,5.85c0.61,0.44,1.24,0.84,1.82,1.34c-9.1-1.56-17.61-4.4-24.39-11.03c-2.62-2.56-4.5-5.57-5.36-9.16 C0.27,27.64,0.34,27.3,0,27.17c0-1.75,0-3.51,0-5.26c0.06-0.05,0.16-0.09,0.17-0.14c1.55-6.9,6.23-11.31,12.03-14.74 c6.25-3.69,13.1-5.59,20.27-6.43c9.16-1.07,18.18-0.41,26.98,2.42c5.53,1.78,10.65,4.33,14.91,8.35c3.94,3.73,6.51,8.12,6.31,13.76 c-0.17,4.69-2.35,8.43-5.49,11.72c-1.44,1.5-3.07,2.78-4.78,3.97c-0.55,0.39-0.98,0.47-1.61,0.1c-1.71-1.02-3.52-1.87-5.16-3.02 c-0.86-0.6-1.63-1.29-2.18-2.19c-0.83-1.38-0.73-2.76,0.17-4.04c0.83-1.17,1.77-2.25,2.66-3.38c0.75-0.94,1.41-1.92,1.77-3.09 c0.54-1.8,0.18-2.87-1.42-3.86c-2.26-1.39-4.81-1.87-7.37-2.31c-4.03-0.7-8.11-0.66-12.18-0.78c-3.71-0.1-7.42-0.41-11.02-1.39 c-0.73-0.2-1.83-0.23-1.85-1.19c-0.02-0.92,1.04-1.1,1.76-1.37c2.06-0.78,4.2-1.24,6.33-1.78c0.41-0.29,0.87-0.4,1.36-0.43 c0.37,0.08,0.74-0.27,0.96-0.12c-0.53,0.1-1.11,0.18-1.74,0.24C40.22,12.3,39.61,12.32,39.05,12.32z"></path> </g> </svg> 