<svg xmlns="http://www.w3.org/2000/svg" width="300" height="50" viewBox="0 0 300 50"><path d="M102.962 18.142v2.586c-1.017-.455-1.91-.932-2.857-1.27-6.449-2.308-10.129 3.246-9.231 7.957.908 4.782 5.62 7.03 10 4.661v-3.481h-3.105v-2.473h5.637v7.767c-3.085 2.297-9.229 2.813-12.478-.57-3.465-3.611-3.742-9.979-.503-13.951 3.042-3.734 7.887-4.225 12.537-1.226zm-25.055 6.504v-8.155h2.458v18.913h-2.501v-8.092h-9.132v8.121h-2.405V16.515h2.347v8.131h9.233zm30.825 2.687v8.078h-2.395v-18.91h2.351v8.161h9.159V16.5h2.524v18.92h-2.429v-8.087h-9.21zm23.538.026v8.064h-2.456V16.587c1.966 0 3.933-.192 5.842.054 1.972.253 3.212 1.634 3.645 3.6.476 2.169.132 4.13-1.669 5.642-.221.185-.463.345-.521.386l5.492 9.131h-2.996c-.734-1.319-1.508-2.797-2.367-4.223a29.18 29.18 0 0 0-2.043-2.951c-.685-.874-1.643-1.143-2.927-.867zm.078-2.754c2.179.313 3.485-.093 4.138-1.256.585-1.04.538-2.536-.197-3.395-1.07-1.251-2.503-1.028-3.94-.981l-.001 5.632zm29.81-5.706v5.805h6.63v2.509h-6.595v5.798h7.123v2.427h-9.607V16.502h9.378v2.397h-6.929zm-5.14-1.343v3.04c-.428-.308-.729-.534-1.043-.745-1.136-.761-2.354-1.167-3.723-.784-1.645.463-2.181 2.032-1.055 3.31.664.755 1.531 1.334 2.316 1.976.85.688 1.779 1.288 2.549 2.051 1.615 1.601 1.989 3.619 1.506 5.763-.605 2.685-3.178 4.159-6.021 3.427-1.096-.283-2.102-.904-3.102-1.351v-3.757c.449.443.76.752 1.074 1.057.983.954 2.138 1.525 3.533 1.449 1.971-.108 2.967-1.906 1.918-3.577-.451-.72-1.14-1.315-1.799-1.874-.971-.823-2.066-1.501-3.014-2.349-2.443-2.191-2.506-5.931-.189-7.912 1.828-1.56 4.829-1.469 7.05.276zM85.757 35.438h-2.401V16.496h2.401v18.942zm60.375-.004h-2.406V16.492h2.406v18.942zm51.925-13.707v13.68h-2.143V16.522h1.878c3.351 4.615 6.708 9.244 10.063 13.873l.377-.082V16.542h2.211v18.896c-.608.027-1.18.058-1.877.092-3.365-4.635-6.746-9.287-10.127-13.932-.126.04-.253.086-.382.129zm31.695 13.693V16.514h1.868l10.073 13.888c.131-.036.264-.068.395-.103v-13.77h2.199v18.898h-1.967c-3.289-4.529-6.646-9.16-10.004-13.792-.129.021-.252.046-.379.068v13.715c-.876.002-1.486.002-2.185.002zm-10.921-19.249h1.739c2.326 6.378 4.654 12.755 7.031 19.267h-2.406c-.686-1.742-1.379-3.525-2.082-5.328h-6.731c-.631 1.772-1.259 3.529-1.901 5.328h-2.379c2.259-6.472 4.478-12.819 6.729-19.267zm-1.451 11.142h4.747c-.788-2.188-1.539-4.258-2.455-6.775-.854 2.521-1.552 4.575-2.292 6.775zm59.227-11.206c2.283 6.241 4.494 12.28 6.695 18.32.106.296.146.612.237 1.013h-2.281l-2.082-5.328h-6.731c-.629 1.769-1.258 3.527-1.9 5.328h-2.377c2.242-6.426 4.439-12.719 6.705-19.208.518-.039 1.066-.079 1.734-.125zm1.584 11.195l-2.287-6.306-.346.048c-.689 2.046-1.379 4.094-2.105 6.257l4.738.001zm-17.125-9.219v2.284c-6.092-2.12-8.26-1.877-10.293 1.107-1.943 2.851-1.707 7.292.521 9.77 2.232 2.479 4.879 2.492 9.943-.031v2.271c-2.938 3.317-8.684 3.209-11.741-.319-3.257-3.761-3.328-10.179-.151-14.016 2.987-3.61 7.426-4.037 11.721-1.066zm-73.605-1.56v2.501h-5.913v5.09h5.875v2.678h-5.979v8.599h-2.313V16.523h8.33zm98.289-.019h2.281v16.323h6.973c.04.903.072 1.669.113 2.563h-9.367V16.504zm-93.561 18.937h-2.105v-18.91h2.105v18.91zm74.124-.007h-2.127V16.52h2.127v18.914zM15.066 17.907l5.236-3.293v22.429c-1.648.467-3.406.598-5.236.864v-20zm19.688 19.33c-1.939-.39-3.622-.323-5.38-.396v-9.54c1.007-.425 2.09-.884 3.313-1.399v-9.579l4.488 2.983v6.756c-.835.233-1.46-.526-2.421-.389v11.564zm-7.245-.562c-.678.211-1.215.199-1.877.024V18.074l-3.406-2.221v-5.156l5.284-4.342v30.32zM6.41 43.231c8.039-6.22 34.407-6.18 42.102 0-14.056-3.049-27.971-3.068-42.102 0m35.428-4.879l-1.973-.424v-6.609c.682-.008 1.308.185 1.973.488v6.545z" fill="#FFF"/><path fill="#FFF" d="M51.025 46.453H3.65V3.479h47.375v42.974zM53.504 1H1.171v47.932h52.333V1z"/></svg>