<svg xmlns="http://www.w3.org/2000/svg" xmlns:xlink="http://www.w3.org/1999/xlink" width="172px" height="51px" viewBox="0 0 173 51" version="1.1"><g id="surface1"><path style="fill:none;stroke-width:5;stroke-linecap:round;stroke-linejoin:round;stroke:rgb(42.745098%,57.254902%,25.490196%);stroke-opacity:1;stroke-miterlimit:4;" d="M 9.900786 36.928539 C 6.238123 38.85386 3.739975 42.694853 3.739975 47.119715 C 3.739975 53.469899 8.890896 58.618566 15.240155 58.618566 C 18.226337 58.618566 20.941926 57.479779 22.985865 55.617188 M 22.985865 55.617188 C 25.290733 53.513327 26.740336 50.482996 26.740336 47.119715 C 26.740336 44.3017 25.730446 41.724954 24.048907 39.722426 L 9.074512 24.454963 C 6.286443 21.612822 3.435558 18.317096 3.681991 14.345818 C 3.923591 10.379366 6.218795 6.644531 10.036082 4.743336 C 14.781115 2.378906 20.371749 3.599724 23.739659 7.377987 L 39.472679 24.117188 C 40.603369 25.400735 41.463466 26.959329 41.941835 28.720588 C 43.140173 33.179228 41.550443 37.72955 38.240517 40.518612 Z M 22.985865 55.617188 " transform="matrix(0.808411,0,0,0.809524,0,0)"></path><path style=" stroke:none;fill-rule:nonzero;fill:rgb(42.745098%,57.254902%,25.490196%);fill-opacity:1;" d="M 47.84375 30.355469 L 47.84375 5.480469 L 52.722656 5.480469 L 52.722656 30.355469 Z M 60.464844 30.355469 L 60.464844 5.480469 L 64.710938 5.480469 L 69.878906 20.550781 L 69.878906 5.480469 L 74.167969 5.480469 L 74.167969 30.355469 L 69.921875 30.355469 L 64.753906 16.296875 L 64.753906 30.355469 Z M 88.175781 30.652344 C 86.6875 30.652344 85.414062 30.441406 84.351562 30.019531 C 83.3125 29.597656 82.515625 28.855469 81.953125 27.789062 C 81.390625 26.722656 81.113281 25.222656 81.113281 23.285156 L 81.113281 21.8125 C 81.980469 21.8125 82.835938 21.8125 83.675781 21.8125 C 84.519531 21.8125 85.359375 21.8125 86.199219 21.8125 L 86.199219 23.707031 C 86.199219 24.746094 86.285156 25.542969 86.453125 26.105469 C 86.621094 26.640625 86.855469 27.019531 87.167969 27.242188 C 87.472656 27.4375 87.839844 27.535156 88.257812 27.535156 C 88.902344 27.535156 89.40625 27.3125 89.773438 26.863281 C 90.164062 26.386719 90.359375 25.472656 90.359375 24.128906 C 90.359375 23.089844 90.191406 22.316406 89.855469 21.8125 C 89.546875 21.277344 89.042969 20.859375 88.34375 20.550781 C 87.640625 20.210938 86.746094 19.804688 85.652344 19.328125 C 84.671875 18.90625 83.859375 18.402344 83.214844 17.8125 C 82.570312 17.222656 82.09375 16.480469 81.785156 15.582031 C 81.476562 14.683594 81.324219 13.589844 81.324219 12.296875 C 81.324219 10.671875 81.53125 9.351562 81.953125 8.339844 C 82.402344 7.332031 83.128906 6.601562 84.140625 6.152344 C 85.175781 5.675781 86.5625 5.4375 88.300781 5.4375 C 90.542969 5.4375 92.253906 5.929688 93.429688 6.910156 C 94.632812 7.863281 95.238281 9.308594 95.238281 11.246094 L 95.238281 14.234375 C 94.425781 14.234375 93.613281 14.234375 92.800781 14.234375 C 92.015625 14.234375 91.203125 14.234375 90.359375 14.234375 L 90.359375 12.71875 C 90.359375 11.457031 90.207031 10.574219 89.898438 10.066406 C 89.617188 9.5625 89.101562 9.308594 88.34375 9.308594 C 87.613281 9.308594 87.097656 9.535156 86.789062 9.984375 C 86.480469 10.433594 86.324219 11.160156 86.324219 12.171875 C 86.324219 13.097656 86.507812 13.828125 86.871094 14.359375 C 87.265625 14.867188 87.753906 15.257812 88.34375 15.539062 C 88.933594 15.792969 89.5625 16.042969 90.234375 16.296875 C 91.46875 16.773438 92.476562 17.265625 93.261719 17.769531 C 94.046875 18.246094 94.621094 18.921875 94.984375 19.792969 C 95.347656 20.632812 95.53125 21.855469 95.53125 23.453125 C 95.53125 25.25 95.222656 26.679688 94.605469 27.746094 C 94.019531 28.785156 93.164062 29.527344 92.042969 29.976562 C 90.949219 30.425781 89.660156 30.652344 88.175781 30.652344 Z M 104.972656 30.355469 L 104.972656 8.929688 L 101.105469 8.929688 L 101.105469 5.480469 L 113.71875 5.480469 L 113.71875 8.929688 L 109.851562 8.929688 L 109.851562 30.355469 Z M 117.789062 30.355469 L 122.246094 5.480469 L 129.222656 5.480469 L 133.59375 30.355469 L 128.128906 30.355469 L 127.375 25.769531 L 123.757812 25.769531 L 123.042969 30.355469 Z M 123.84375 23.328125 L 127.332031 23.328125 L 125.609375 9.816406 Z M 139.882812 30.355469 L 139.882812 5.480469 L 144.128906 5.480469 L 149.300781 20.550781 L 149.300781 5.480469 L 153.589844 5.480469 L 153.589844 30.355469 L 149.34375 30.355469 L 144.171875 16.296875 L 144.171875 30.355469 Z M 163.769531 30.355469 L 163.769531 8.929688 L 159.902344 8.929688 L 159.902344 5.480469 L 172.511719 5.480469 L 172.511719 8.929688 L 168.644531 8.929688 L 168.644531 30.355469 Z M 163.769531 30.355469 "></path><path style=" stroke:none;fill-rule:nonzero;fill:rgb(5.098039%,22.745098%,26.666667%);fill-opacity:1;" d="M 49.226562 38.734375 L 49.226562 47.460938 L 53.65625 47.460938 L 53.65625 48.976562 L 47.378906 48.976562 L 47.378906 38.734375 Z M 64.53125 43.847656 C 64.53125 44.890625 64.351562 45.8125 63.996094 46.609375 C 63.652344 47.402344 63.117188 48.019531 62.394531 48.460938 C 61.683594 48.898438 60.769531 49.117188 59.65625 49.117188 C 58.566406 49.117188 57.652344 48.898438 56.917969 48.460938 C 56.195312 48.019531 55.65625 47.402344 55.300781 46.609375 C 54.957031 45.800781 54.785156 44.875 54.785156 43.828125 C 54.785156 42.785156 54.960938 41.871094 55.316406 41.085938 C 55.671875 40.292969 56.210938 39.671875 56.933594 39.234375 C 57.660156 38.796875 58.570312 38.574219 59.675781 38.574219 C 60.777344 38.574219 61.683594 38.796875 62.394531 39.234375 C 63.117188 39.671875 63.652344 40.292969 63.996094 41.085938 C 64.351562 41.871094 64.53125 42.789062 64.53125 43.847656 Z M 56.722656 43.847656 C 56.722656 44.59375 56.824219 45.25 57.023438 45.804688 C 57.226562 46.363281 57.539062 46.796875 57.96875 47.105469 C 58.40625 47.414062 58.96875 47.570312 59.65625 47.570312 C 60.34375 47.570312 60.902344 47.421875 61.328125 47.125 C 61.753906 46.816406 62.070312 46.382812 62.269531 45.824219 C 62.472656 45.265625 62.574219 44.605469 62.574219 43.847656 C 62.574219 42.671875 62.335938 41.757812 61.863281 41.105469 C 61.386719 40.453125 60.652344 40.125 59.65625 40.125 C 58.980469 40.125 58.421875 40.277344 57.984375 40.589844 C 57.558594 40.882812 57.238281 41.3125 57.023438 41.871094 C 56.824219 42.417969 56.722656 43.074219 56.722656 43.847656 Z M 65.183594 48.976562 L 68.972656 38.699219 L 71.160156 38.699219 L 74.914062 48.976562 L 72.902344 48.976562 L 71.996094 46.269531 L 68.15625 46.269531 L 67.195312 48.976562 Z M 70.625 42.121094 C 70.566406 41.953125 70.503906 41.761719 70.429688 41.550781 C 70.359375 41.335938 70.289062 41.117188 70.21875 40.890625 C 70.160156 40.664062 70.105469 40.453125 70.058594 40.25 C 70.011719 40.453125 69.957031 40.664062 69.898438 40.890625 C 69.839844 41.105469 69.773438 41.324219 69.703125 41.550781 C 69.644531 41.761719 69.578125 41.960938 69.507812 42.136719 L 68.617188 44.753906 L 71.5 44.753906 Z M 85.03125 38.734375 L 85.03125 48.976562 L 82.734375 48.976562 L 77.828125 40.910156 L 77.757812 40.910156 C 77.769531 41.050781 77.78125 41.230469 77.792969 41.441406 C 77.804688 41.65625 77.816406 41.882812 77.828125 42.121094 C 77.839844 42.355469 77.84375 42.59375 77.84375 42.832031 C 77.855469 43.070312 77.863281 43.289062 77.863281 43.492188 L 77.863281 48.976562 L 76.210938 48.976562 L 76.210938 38.734375 L 78.519531 38.734375 L 83.410156 46.75 L 83.464844 46.75 C 83.453125 46.621094 83.441406 46.460938 83.429688 46.269531 C 83.417969 46.078125 83.40625 45.871094 83.394531 45.644531 C 83.394531 45.421875 83.386719 45.195312 83.375 44.96875 C 83.375 44.730469 83.375 44.5 83.375 44.273438 L 83.375 38.734375 Z M 93.898438 46.109375 C 93.898438 46.691406 93.75 47.214844 93.453125 47.675781 C 93.15625 48.128906 92.722656 48.484375 92.15625 48.746094 C 91.585938 48.992188 90.898438 49.117188 90.089844 49.117188 C 89.664062 49.117188 89.265625 49.09375 88.898438 49.046875 C 88.542969 49.011719 88.21875 48.957031 87.921875 48.886719 C 87.625 48.804688 87.335938 48.703125 87.050781 48.585938 L 87.050781 46.910156 C 87.511719 47.125 88.011719 47.296875 88.542969 47.425781 C 89.078125 47.558594 89.605469 47.621094 90.128906 47.621094 C 90.71875 47.621094 91.1875 47.503906 91.53125 47.265625 C 91.875 47.015625 92.046875 46.679688 92.046875 46.25 C 92.046875 45.941406 91.960938 45.6875 91.78125 45.484375 C 91.613281 45.285156 91.359375 45.101562 91.015625 44.933594 C 90.683594 44.765625 90.273438 44.59375 89.789062 44.417969 C 89.265625 44.203125 88.804688 43.976562 88.402344 43.738281 C 88.011719 43.492188 87.703125 43.183594 87.476562 42.8125 C 87.265625 42.445312 87.15625 41.984375 87.15625 41.425781 C 87.15625 40.808594 87.3125 40.292969 87.621094 39.875 C 87.925781 39.460938 88.347656 39.144531 88.882812 38.929688 C 89.425781 38.707031 90.050781 38.59375 90.75 38.59375 C 91.320312 38.59375 91.851562 38.660156 92.351562 38.789062 C 92.859375 38.90625 93.335938 39.0625 93.773438 39.253906 L 93.1875 40.675781 C 92.746094 40.488281 92.320312 40.339844 91.90625 40.230469 C 91.492188 40.125 91.085938 40.070312 90.695312 40.070312 C 90.164062 40.070312 89.742188 40.183594 89.433594 40.410156 C 89.136719 40.636719 88.988281 40.949219 88.988281 41.355469 C 88.988281 41.652344 89.070312 41.898438 89.238281 42.101562 C 89.402344 42.304688 89.652344 42.480469 89.984375 42.636719 C 90.328125 42.789062 90.742188 42.960938 91.230469 43.152344 C 91.761719 43.367188 92.230469 43.597656 92.636719 43.847656 C 93.039062 44.097656 93.347656 44.398438 93.558594 44.753906 C 93.785156 45.101562 93.898438 45.550781 93.898438 46.109375 Z M 93.898438 46.109375 "></path></g></svg>