<?xml version="1.0" encoding="UTF-8"?>
<svg xmlns="http://www.w3.org/2000/svg" width="148" height="44" viewBox="0 0 148 44" fill="none">
  <g clip-path="url(#clip0_1_23281)">
    <path d="M18.4842 0H8.95695L0.598564 22.582C-1.29902 27.4176 1.76573 28.4745 3.5353 28.3984H18.5971C19.5007 28.3984 22.8893 28.1703 22.8893 24.5208C22.8893 21.6012 20.4044 20.8713 18.4842 20.8713H12.7237C11.5942 20.8713 11.333 20.2275 11.5942 19.6168L18.4842 0Z" fill="#96C67F"></path>
    <path d="M12.7232 19.845L15.7061 11.3057H20.563C26.6623 11.3057 34.5228 15.8534 33.3933 26.1176C32.3585 35.5216 24.0184 38.7284 16.6765 38.7284H14.4175L12.3844 43.6808H2.89648L8.76995 29.539H18.4838C20.3286 29.577 24.0184 28.5582 24.0184 24.635C24.0184 20.7118 20.931 19.845 19.3874 19.845H12.7232Z" fill="#FEB98A"></path>
    <path d="M45.9219 36.8601V29.4637H50.8195V30.6057H47.3308V32.4948H50.4282V33.6368H47.3308V36.8601H45.9219Z" fill="#2A2C38"></path>
    <path d="M53.3359 33.1566C53.3359 33.5621 53.3881 33.9321 53.4924 34.2665C53.5968 34.5938 53.7459 34.8749 53.9397 35.1097C54.141 35.3374 54.3833 35.5153 54.6665 35.6434C54.9498 35.7714 55.2704 35.8355 55.6282 35.8355C55.9785 35.8355 56.2954 35.7714 56.5786 35.6434C56.8619 35.5153 57.1005 35.3374 57.2943 35.1097C57.4956 34.8749 57.6484 34.5938 57.7527 34.2665C57.8571 33.9321 57.9093 33.5621 57.9093 33.1566C57.9093 32.751 57.8571 32.3846 57.7527 32.0573C57.6484 31.7228 57.4956 31.4418 57.2943 31.2141C57.1005 30.9793 56.8619 30.7978 56.5786 30.6698C56.2954 30.5417 55.9785 30.4777 55.6282 30.4777C55.2704 30.4777 54.9498 30.5417 54.6665 30.6698C54.3833 30.7978 54.141 30.9793 53.9397 31.2141C53.7459 31.4489 53.5968 31.7299 53.4924 32.0573C53.3881 32.3846 53.3359 32.751 53.3359 33.1566ZM59.3853 33.1566C59.3853 33.7898 59.2846 34.3484 59.0834 34.8322C58.8896 35.316 58.6212 35.7216 58.2783 36.0489C57.9428 36.3691 57.5477 36.611 57.093 36.7747C56.6383 36.9383 56.1537 37.0202 55.6394 37.0202C55.125 37.0202 54.6367 36.9383 54.1745 36.7747C53.7198 36.611 53.321 36.3691 52.9781 36.0489C52.6426 35.7216 52.3743 35.316 52.173 34.8322C51.9717 34.3484 51.8711 33.7898 51.8711 33.1566C51.8711 32.5233 51.9717 31.9683 52.173 31.4916C52.3743 31.0077 52.6463 30.6022 52.9893 30.2749C53.3396 29.9476 53.7422 29.7021 54.1969 29.5384C54.6516 29.3748 55.1324 29.293 55.6394 29.293C56.1463 29.293 56.6271 29.3748 57.0818 29.5384C57.5365 29.7021 57.9316 29.9476 58.2671 30.2749C58.61 30.6022 58.8821 31.0077 59.0834 31.4916C59.2846 31.9683 59.3853 32.5233 59.3853 33.1566Z" fill="#2A2C38"></path>
    <path d="M63.2903 29.389C64.4085 29.389 65.262 29.5847 65.8509 29.976C66.4473 30.3674 66.7455 30.9651 66.7455 31.7691C66.7455 32.7723 66.2274 33.4518 65.1912 33.8076C65.3328 33.9713 65.4931 34.1705 65.672 34.4053C65.8509 34.6401 66.0336 34.8962 66.2199 35.1737C66.4063 35.4441 66.5852 35.7252 66.7567 36.0169C66.9281 36.3015 67.0809 36.5826 67.2151 36.8601H65.6385C65.4968 36.6039 65.344 36.3478 65.18 36.0916C65.016 35.8283 64.8483 35.5758 64.6768 35.3338C64.5128 35.0848 64.3488 34.8536 64.1848 34.6401C64.0208 34.4195 63.868 34.2239 63.7264 34.0531C63.622 34.0602 63.5326 34.0638 63.458 34.0638C63.3835 34.0638 63.3127 34.0638 63.2456 34.0638H62.5635V36.8601H61.1546V29.5705C61.4975 29.4993 61.8627 29.4531 62.2504 29.4317C62.638 29.4033 62.9847 29.389 63.2903 29.389ZM63.3909 30.5524C63.0927 30.5524 62.8169 30.563 62.5635 30.5844V32.9751H63.1785C63.5214 32.9751 63.8233 32.9573 64.0842 32.9218C64.3451 32.8862 64.5613 32.8221 64.7328 32.7296C64.9117 32.6371 65.0458 32.5126 65.1353 32.3561C65.2248 32.1996 65.2695 32.0003 65.2695 31.7584C65.2695 31.5307 65.2248 31.3386 65.1353 31.1821C65.0458 31.0255 64.9154 30.901 64.7439 30.8085C64.5799 30.716 64.3824 30.652 64.1513 30.6164C63.9202 30.5737 63.6667 30.5524 63.3909 30.5524Z" fill="#2A2C38"></path>
    <path d="M76.5078 36.8601C76.4034 36.5683 76.2953 36.2802 76.1835 35.9956C76.0717 35.7109 75.9636 35.4192 75.8592 35.1204H72.5941C72.4898 35.4192 72.3817 35.7145 72.2699 36.0062C72.1655 36.2908 72.0611 36.5755 71.9568 36.8601H70.4919C70.7827 36.0703 71.0585 35.341 71.3194 34.6721C71.5803 34.0033 71.8338 33.37 72.0798 32.7723C72.3332 32.1747 72.583 31.6054 72.829 31.0647C73.075 30.5239 73.3284 29.9903 73.5893 29.4637H74.92C75.1809 29.9903 75.4343 30.5239 75.6803 31.0647C75.9263 31.6054 76.1723 32.1747 76.4183 32.7723C76.6718 33.37 76.929 34.0033 77.1899 34.6721C77.4583 35.341 77.7378 36.0703 78.0285 36.8601H76.5078ZM74.2267 30.8939C74.0552 31.271 73.8577 31.7299 73.634 32.2707C73.4179 32.8115 73.1905 33.3985 72.952 34.0317H75.5014C75.2629 33.3985 75.0318 32.8079 74.8081 32.26C74.5845 31.7122 74.3907 31.2568 74.2267 30.8939Z" fill="#2A2C38"></path>
    <path d="M84.4536 36.8601C84.2001 36.4545 83.9168 36.0205 83.6037 35.558C83.2906 35.0884 82.9664 34.6188 82.6309 34.1491C82.2955 33.6724 81.9525 33.2135 81.6022 32.7723C81.2593 32.3241 80.9313 31.9221 80.6182 31.5663V36.8601H79.2316V29.4637H80.3834C80.6815 29.7626 81.0021 30.1183 81.345 30.531C81.6879 30.9366 82.0308 31.36 82.3737 31.8011C82.7241 32.2422 83.0596 32.687 83.3801 33.1352C83.7081 33.5764 83.9988 33.989 84.2523 34.3733V29.4637H85.65V36.8601H84.4536Z" fill="#2A2C38"></path>
    <path d="M90.3378 32.7403C90.6733 32.2067 91.0013 31.6659 91.3218 31.118C91.6424 30.5702 91.9331 30.0187 92.194 29.4637H93.7595C93.342 30.218 92.9059 30.9686 92.4512 31.7157C92.0039 32.4557 91.5231 33.2028 91.0088 33.957V36.8601H89.5998V33.9784C89.0855 33.217 88.6009 32.4628 88.1462 31.7157C87.6915 30.9686 87.2554 30.218 86.8379 29.4637H88.4928C88.7537 30.0187 89.0407 30.5702 89.3538 31.118C89.6669 31.6659 89.9949 32.2067 90.3378 32.7403Z" fill="#2A2C38"></path>
    <path d="M99.9699 29.389C101.096 29.389 101.957 29.5847 102.553 29.976C103.157 30.3674 103.459 30.9793 103.459 31.8118C103.459 32.2458 103.377 32.6194 103.213 32.9324C103.056 33.2384 102.825 33.491 102.519 33.6902C102.214 33.8823 101.841 34.0246 101.401 34.1171C100.961 34.2096 100.458 34.2559 99.8916 34.2559H99.1872V36.8601H97.7782V29.5705C98.1062 29.4993 98.4678 29.4531 98.8629 29.4317C99.2654 29.4033 99.6344 29.389 99.9699 29.389ZM100.071 30.5524C99.7127 30.5524 99.4183 30.563 99.1872 30.5844V33.1032H99.8693C100.548 33.1032 101.069 33.0143 101.435 32.8364C101.8 32.6514 101.983 32.3063 101.983 31.8011C101.983 31.5592 101.934 31.3564 101.837 31.1927C101.74 31.0291 101.606 30.901 101.435 30.8085C101.263 30.716 101.058 30.652 100.82 30.6164C100.589 30.5737 100.339 30.5524 100.071 30.5524Z" fill="#2A2C38"></path>
    <path d="M107.954 37.0202C107.425 37.0202 106.97 36.949 106.59 36.8067C106.21 36.6573 105.893 36.4509 105.64 36.1877C105.394 35.9244 105.211 35.6149 105.092 35.2591C104.972 34.9034 104.913 34.512 104.913 34.0851V29.4637H106.333V33.957C106.333 34.2914 106.37 34.5796 106.445 34.8215C106.527 35.0563 106.639 35.2485 106.78 35.3979C106.929 35.5473 107.101 35.6576 107.295 35.7287C107.496 35.7999 107.719 35.8355 107.965 35.8355C108.211 35.8355 108.435 35.7999 108.636 35.7287C108.838 35.6576 109.009 35.5473 109.151 35.3979C109.3 35.2485 109.412 35.0563 109.486 34.8215C109.568 34.5796 109.609 34.2914 109.609 33.957V29.4637H111.029V34.0851C111.029 34.512 110.966 34.9034 110.839 35.2591C110.72 35.6149 110.534 35.9244 110.28 36.1877C110.034 36.4509 109.717 36.6573 109.33 36.8067C108.942 36.949 108.484 37.0202 107.954 37.0202Z" fill="#2A2C38"></path>
    <path d="M115.19 29.389C116.309 29.389 117.162 29.5847 117.751 29.976C118.347 30.3674 118.646 30.9651 118.646 31.7691C118.646 32.7723 118.127 33.4518 117.091 33.8076C117.233 33.9713 117.393 34.1705 117.572 34.4053C117.751 34.6401 117.934 34.8962 118.12 35.1737C118.306 35.4441 118.485 35.7252 118.657 36.0169C118.828 36.3015 118.981 36.5826 119.115 36.8601H117.539C117.397 36.6039 117.244 36.3478 117.08 36.0916C116.916 35.8283 116.748 35.5758 116.577 35.3338C116.413 35.0848 116.249 34.8536 116.085 34.6401C115.921 34.4195 115.768 34.2239 115.626 34.0531C115.522 34.0602 115.433 34.0638 115.358 34.0638C115.284 34.0638 115.213 34.0638 115.146 34.0638H114.464V36.8601H113.055V29.5705C113.398 29.4993 113.763 29.4531 114.15 29.4317C114.538 29.4033 114.885 29.389 115.19 29.389ZM115.291 30.5524C114.993 30.5524 114.717 30.563 114.464 30.5844V32.9751H115.079C115.421 32.9751 115.723 32.9573 115.984 32.9218C116.245 32.8862 116.461 32.8221 116.633 32.7296C116.812 32.6371 116.946 32.5126 117.035 32.3561C117.125 32.1996 117.17 32.0003 117.17 31.7584C117.17 31.5307 117.125 31.3386 117.035 31.1821C116.946 31.0255 116.815 30.901 116.644 30.8085C116.48 30.716 116.282 30.652 116.051 30.6164C115.82 30.5737 115.567 30.5524 115.291 30.5524Z" fill="#2A2C38"></path>
    <path d="M122.622 29.389C123.748 29.389 124.609 29.5847 125.205 29.976C125.809 30.3674 126.111 30.9793 126.111 31.8118C126.111 32.2458 126.029 32.6194 125.865 32.9324C125.709 33.2384 125.477 33.491 125.172 33.6902C124.866 33.8823 124.493 34.0246 124.054 34.1171C123.614 34.2096 123.111 34.2559 122.544 34.2559H121.84V36.8601H120.431V29.5705C120.759 29.4993 121.12 29.4531 121.515 29.4317C121.918 29.4033 122.287 29.389 122.622 29.389ZM122.723 30.5524C122.365 30.5524 122.071 30.563 121.84 30.5844V33.1032H122.522C123.2 33.1032 123.722 33.0143 124.087 32.8364C124.452 32.6514 124.635 32.3063 124.635 31.8011C124.635 31.5592 124.587 31.3564 124.49 31.1927C124.393 31.0291 124.259 30.901 124.087 30.8085C123.916 30.716 123.711 30.652 123.472 30.6164C123.241 30.5737 122.991 30.5524 122.723 30.5524Z" fill="#2A2C38"></path>
    <path d="M128.773 33.1566C128.773 33.5621 128.825 33.9321 128.929 34.2665C129.034 34.5938 129.183 34.8749 129.377 35.1097C129.578 35.3374 129.82 35.5153 130.104 35.6434C130.387 35.7714 130.707 35.8355 131.065 35.8355C131.416 35.8355 131.732 35.7714 132.016 35.6434C132.299 35.5153 132.537 35.3374 132.731 35.1097C132.933 34.8749 133.085 34.5938 133.19 34.2665C133.294 33.9321 133.346 33.5621 133.346 33.1566C133.346 32.751 133.294 32.3846 133.19 32.0573C133.085 31.7228 132.933 31.4418 132.731 31.2141C132.537 30.9793 132.299 30.7978 132.016 30.6698C131.732 30.5417 131.416 30.4777 131.065 30.4777C130.707 30.4777 130.387 30.5417 130.104 30.6698C129.82 30.7978 129.578 30.9793 129.377 31.2141C129.183 31.4489 129.034 31.7299 128.929 32.0573C128.825 32.3846 128.773 32.751 128.773 33.1566ZM134.822 33.1566C134.822 33.7898 134.722 34.3484 134.52 34.8322C134.327 35.316 134.058 35.7216 133.715 36.0489C133.38 36.3691 132.985 36.611 132.53 36.7747C132.075 36.9383 131.591 37.0202 131.076 37.0202C130.562 37.0202 130.074 36.9383 129.612 36.7747C129.157 36.611 128.758 36.3691 128.415 36.0489C128.08 35.7216 127.811 35.316 127.61 34.8322C127.409 34.3484 127.308 33.7898 127.308 33.1566C127.308 32.5233 127.409 31.9683 127.61 31.4916C127.811 31.0077 128.083 30.6022 128.426 30.2749C128.777 29.9476 129.179 29.7021 129.634 29.5384C130.089 29.3748 130.569 29.293 131.076 29.293C131.583 29.293 132.064 29.3748 132.519 29.5384C132.974 29.7021 133.369 29.9476 133.704 30.2749C134.047 30.6022 134.319 31.0077 134.52 31.4916C134.722 31.9683 134.822 32.5233 134.822 33.1566Z" fill="#2A2C38"></path>
    <path d="M138.372 35.8568C138.879 35.8568 139.248 35.775 139.479 35.6113C139.71 35.4477 139.825 35.2164 139.825 34.9176C139.825 34.7397 139.784 34.5867 139.702 34.4587C139.628 34.3306 139.516 34.2167 139.367 34.1171C139.225 34.0104 139.05 33.9143 138.841 33.829C138.633 33.7365 138.394 33.6475 138.126 33.5621C137.857 33.4696 137.597 33.37 137.343 33.2633C137.097 33.1494 136.877 33.0107 136.683 32.847C136.497 32.6834 136.344 32.4877 136.225 32.26C136.113 32.0323 136.057 31.7584 136.057 31.4382C136.057 30.7694 136.299 30.2464 136.784 29.8693C137.269 29.4851 137.928 29.293 138.763 29.293C139.248 29.293 139.676 29.3463 140.049 29.4531C140.429 29.5527 140.727 29.663 140.944 29.7839L140.508 30.8726C140.254 30.7374 139.975 30.6342 139.669 30.563C139.371 30.4919 139.061 30.4563 138.741 30.4563C138.361 30.4563 138.062 30.531 137.846 30.6804C137.638 30.8299 137.533 31.0398 137.533 31.3101C137.533 31.4738 137.567 31.6161 137.634 31.7371C137.708 31.8509 137.809 31.9541 137.936 32.0466C138.07 32.1391 138.223 32.2245 138.394 32.3027C138.573 32.381 138.767 32.4557 138.976 32.5269C139.341 32.6549 139.665 32.7866 139.948 32.9218C140.239 33.0498 140.481 33.2064 140.675 33.3914C140.877 33.5692 141.029 33.7827 141.134 34.0317C141.238 34.2737 141.29 34.5689 141.29 34.9176C141.29 35.5864 141.041 36.1058 140.541 36.4758C140.049 36.8387 139.326 37.0202 138.372 37.0202C138.051 37.0202 137.757 36.9988 137.488 36.9561C137.228 36.9205 136.993 36.8743 136.784 36.8174C136.583 36.7604 136.408 36.7035 136.258 36.6466C136.109 36.5826 135.99 36.5256 135.901 36.4758L136.314 35.3765C136.516 35.4833 136.788 35.59 137.131 35.6967C137.474 35.8034 137.887 35.8568 138.372 35.8568Z" fill="#2A2C38"></path>
    <path d="M142.756 36.8601V29.4637H147.732V30.6057H144.164V32.4308H147.34V33.5515H144.164V35.7181H148V36.8601H142.756Z" fill="#2A2C38"></path>
    <path d="M58.1574 20.158V23.4315H45.9219V6.50219H50.0444V20.158H58.1574Z" fill="#2A2C38"></path>
    <path d="M64.2869 14.9546C64.2869 15.7852 64.3926 16.5344 64.604 17.2021C64.8331 17.8698 65.1502 18.448 65.5554 18.9365C65.9782 19.4088 66.4891 19.7753 67.0882 20.0358C67.6872 20.2964 68.3742 20.4267 69.1494 20.4267C69.907 20.4267 70.5853 20.2964 71.1843 20.0358C71.8009 19.7753 72.3118 19.4088 72.717 18.9365C73.1398 18.448 73.457 17.8698 73.6684 17.2021C73.8974 16.5344 74.0119 15.7852 74.0119 14.9546C74.0119 14.124 73.8974 13.3749 73.6684 12.7071C73.457 12.0231 73.1398 11.445 72.717 10.9727C72.3118 10.4841 71.8009 10.1095 71.1843 9.84896C70.5853 9.58838 69.907 9.4581 69.1494 9.4581C68.3742 9.4581 67.6872 9.59653 67.0882 9.87339C66.4891 10.134 65.9782 10.5085 65.5554 10.9971C65.1502 11.4694 64.8331 12.0476 64.604 12.7316C64.3926 13.3993 64.2869 14.1403 64.2869 14.9546ZM78.2666 14.9546C78.2666 16.4041 78.0288 17.6825 77.5531 18.79C77.095 19.8811 76.4608 20.8013 75.6504 21.5504C74.84 22.2833 73.871 22.837 72.7434 23.2116C71.6335 23.5862 70.4355 23.7735 69.1494 23.7735C67.8986 23.7735 66.7182 23.5862 65.6083 23.2116C64.4983 22.837 63.5294 22.2833 62.7013 21.5504C61.8733 20.8013 61.2214 19.8811 60.7458 18.79C60.2701 17.6825 60.0322 16.4041 60.0322 14.9546C60.0322 13.5052 60.2789 12.2349 60.7722 11.1437C61.2655 10.0362 61.9262 9.10795 62.7542 8.35879C63.5998 7.60964 64.5688 7.04777 65.6611 6.67319C66.771 6.29862 67.9338 6.11133 69.1494 6.11133C70.4003 6.11133 71.5807 6.29862 72.6906 6.67319C73.8005 7.04777 74.7695 7.60964 75.5975 8.35879C76.4256 9.10795 77.0774 10.0362 77.5531 11.1437C78.0288 12.2349 78.2666 13.5052 78.2666 14.9546Z" fill="#2A2C38"></path>
    <path d="M93.8226 23.4315C93.6288 22.8452 93.4086 22.2426 93.1619 21.6237C92.9329 21.0049 92.7039 20.386 92.4748 19.7671H85.3397C85.1106 20.386 84.8728 21.0049 84.6261 21.6237C84.3971 22.2426 84.1857 22.8452 83.9919 23.4315H79.7108C80.3979 21.6074 81.0497 19.9218 81.6664 18.3747C82.283 16.8275 82.882 15.3699 83.4634 14.0019C84.0624 12.6339 84.6437 11.3391 85.2075 10.1177C85.7889 8.87994 86.3879 7.67478 87.0045 6.50219H90.9421C91.5411 7.67478 92.1313 8.87994 92.7127 10.1177C93.2941 11.3391 93.8755 12.6339 94.4568 14.0019C95.0558 15.3699 95.6637 16.8275 96.2803 18.3747C96.8969 19.9218 97.5487 21.6074 98.2358 23.4315H93.8226ZM88.8808 10.3375C88.7927 10.5818 88.6606 10.9157 88.4844 11.3391C88.3082 11.7626 88.1056 12.2511 87.8766 12.8049C87.6476 13.3586 87.3921 13.9693 87.1102 14.637C86.846 15.3048 86.5729 16.0051 86.291 16.7379H91.4971C91.2152 16.0051 90.9421 15.3048 90.6778 14.637C90.4136 13.9693 90.1581 13.3586 89.9115 12.8049C89.6824 12.2511 89.4798 11.7626 89.3036 11.3391C89.1275 10.9157 88.9865 10.5818 88.8808 10.3375Z" fill="#2A2C38"></path>
    <path d="M113.423 23.4315C112.243 21.4934 110.966 19.5798 109.591 17.6907C108.217 15.8015 106.755 14.0182 105.205 12.3407V23.4315H101.135V6.50219H104.491C105.072 7.03963 105.716 7.69921 106.42 8.48094C107.125 9.26266 107.838 10.1014 108.561 10.9971C109.301 11.8766 110.032 12.7967 110.754 13.7576C111.477 14.7022 112.155 15.6142 112.789 16.4936V6.50219H116.885V23.4315H113.423Z" fill="#2A2C38"></path>
  </g>
  <defs>
    <clipPath id="clip0_1_23281">
      <rect width="148" height="44" fill="white"></rect>
    </clipPath>
  </defs>
</svg>
