<?xml version="1.0" encoding="UTF-8"?> <svg xmlns="http://www.w3.org/2000/svg" width="150" height="49" viewBox="0 0 150 49" fill="none"><g clip-path="url(#clip0)"><path d="M38.2114 15.1423L32.2051 18.6391L25.8248 22.3237L19.1174 26.2195L12.2931 22.2768L5.91283 18.5687L0 15.1423L19.1174 4.06503L38.2114 15.1423Z" fill="#3749EF"></path><path d="M19.1174 26.2195V35.607L12.2931 31.6642V44.4312L5.91284 40.7232V18.5687L12.2931 22.2768L19.1174 26.2195Z" fill="white"></path><path d="M0 15.1423L5.91283 18.5687V40.7232L0 37.2968V15.1423Z" fill="#2937BB"></path><path d="M19.1174 35.607V48.374L12.2931 44.4312V31.6642L19.1174 35.607Z" fill="#2937BB"></path><path d="M19.1174 35.607L25.8248 31.7112V44.4782L19.1174 48.374V35.607Z" fill="#071491"></path><path d="M38.2114 15.1423V37.2967L32.2051 40.7936V18.6391L38.2114 15.1423Z" fill="#071491"></path><path d="M32.2051 18.6391V40.7936L25.8248 44.4782V31.7112L19.1174 35.607V26.2195L25.8248 22.3237L32.2051 18.6391Z" fill="#E8E8E8"></path></g><path d="M49.534 11.729H55.015L60.525 23.648L66.035 11.729H71.516V32H65.919V23.01L61.772 32H59.278L55.131 23.01V32H49.534V11.729ZM79.4298 32.435C77.6511 32.435 76.2205 32.029 75.1378 31.217C74.0745 30.3857 73.5428 29.2063 73.5428 27.679C73.5428 26.113 74.0648 24.924 75.1088 24.112C76.1528 23.2807 77.6705 22.865 79.6618 22.865C80.3771 22.865 81.1021 22.9423 81.8368 23.097C82.5715 23.2517 83.1901 23.445 83.6928 23.677V23.416C83.6928 22.778 83.3738 22.2947 82.7358 21.966C82.1171 21.6373 81.2471 21.473 80.1258 21.473C78.4438 21.473 76.8971 21.8113 75.4858 22.488V18.66C76.1238 18.3507 76.9551 18.109 77.9798 17.935C79.0045 17.7417 80.0968 17.645 81.2568 17.645C83.9441 17.645 85.9935 18.1573 87.4048 19.182C88.8161 20.2067 89.5218 21.6567 89.5218 23.532V32H84.0408V30.898C83.5768 31.362 82.9388 31.7293 82.1268 32C81.3148 32.29 80.4158 32.435 79.4298 32.435ZM81.2278 29.071C81.7498 29.071 82.2331 28.9743 82.6778 28.781C83.1225 28.5877 83.4608 28.3363 83.6928 28.027V26.954C82.9775 26.49 82.1655 26.258 81.2568 26.258C80.7155 26.258 80.2901 26.3837 79.9808 26.635C79.6908 26.8863 79.5458 27.2343 79.5458 27.679C79.5458 28.1043 79.6908 28.4427 79.9808 28.694C80.2708 28.9453 80.6865 29.071 81.2278 29.071ZM91.9997 18.08H97.5967V19.588C98.138 19.0273 98.8824 18.5827 99.8297 18.254C100.796 17.9253 101.85 17.761 102.991 17.761V22.256C101.773 22.256 100.69 22.4203 99.7427 22.749C98.7954 23.0777 98.1477 23.561 97.7997 24.199V32H91.9997V18.08ZM103.718 18.08H109.518L112.36 25.388L115.202 18.08H121.002L115.144 32H109.576L103.718 18.08ZM129.761 32.435C126.958 32.435 124.773 31.797 123.207 30.521C121.641 29.245 120.858 27.4373 120.858 25.098C120.858 22.7973 121.564 20.98 122.975 19.646C124.386 18.312 126.416 17.645 129.065 17.645C130.766 17.645 132.216 17.964 133.415 18.602C134.633 19.2207 135.551 20.081 136.17 21.183C136.789 22.285 137.098 23.5223 137.098 24.895V26.78H126.368C126.832 28.0173 128.234 28.636 130.573 28.636C131.501 28.636 132.448 28.5683 133.415 28.433C134.401 28.2783 135.232 28.0657 135.909 27.795V31.42C135.174 31.7293 134.256 31.971 133.154 32.145C132.052 32.3383 130.921 32.435 129.761 32.435ZM131.617 23.416C131.52 22.7973 131.25 22.3237 130.805 21.995C130.36 21.647 129.751 21.473 128.978 21.473C128.205 21.473 127.596 21.647 127.151 21.995C126.726 22.343 126.465 22.8167 126.368 23.416H131.617ZM139.117 10.569H144.917V32H139.117V10.569Z" fill="#071491"></path><path d="M49.847 37.6443H53.499C54.203 37.6443 54.7493 37.8203 55.138 38.1723C55.534 38.5243 55.732 39.0377 55.732 39.7123C55.732 40.0717 55.644 40.398 55.468 40.6913C55.2993 40.9773 55.072 41.1973 54.786 41.3513C55.5853 41.6153 55.985 42.2057 55.985 43.1223C55.985 43.577 55.8823 43.973 55.677 44.3103C55.4717 44.6403 55.193 44.8933 54.841 45.0693C54.4963 45.2453 54.1113 45.3333 53.686 45.3333H49.847V37.6443ZM53.279 40.8453C53.5943 40.8453 53.8473 40.761 54.038 40.5923C54.2287 40.4163 54.324 40.1523 54.324 39.8003C54.324 39.397 54.2287 39.122 54.038 38.9753C53.8547 38.8213 53.5797 38.7443 53.213 38.7443H51.233V40.8453H53.279ZM53.367 44.2333C53.7557 44.2333 54.0527 44.1527 54.258 43.9913C54.4707 43.83 54.577 43.544 54.577 43.1333C54.577 42.7227 54.467 42.4257 54.247 42.2423C54.027 42.059 53.708 41.9673 53.29 41.9673H51.233V44.2333H53.367ZM59.2432 45.4983C58.6126 45.4983 58.0956 45.3333 57.6922 45.0033C57.2889 44.666 57.0872 44.215 57.0872 43.6503C57.0872 43.0637 57.2779 42.6053 57.6592 42.2753C58.0406 41.9453 58.5759 41.7803 59.2652 41.7803C59.9326 41.7803 60.5082 41.916 60.9922 42.1873V42.0443C60.9922 41.6703 60.8749 41.399 60.6402 41.2303C60.4129 41.0617 60.0426 40.9773 59.5292 40.9773C59.2066 40.9773 58.8876 41.0103 58.5722 41.0763C58.2569 41.135 57.9782 41.2193 57.7362 41.3293V40.2403C57.9562 40.1377 58.2496 40.0533 58.6162 39.9873C58.9902 39.9213 59.3496 39.8883 59.6942 39.8883C60.6109 39.8883 61.2892 40.0863 61.7292 40.4823C62.1692 40.871 62.3892 41.4137 62.3892 42.1103V45.3333H61.0802V44.8163C60.8529 45.0363 60.5926 45.205 60.2992 45.3223C60.0132 45.4397 59.6612 45.4983 59.2432 45.4983ZM59.5842 44.4863C59.8922 44.4863 60.1709 44.4277 60.4202 44.3103C60.6696 44.1857 60.8602 44.017 60.9922 43.8043V43.2213C60.5889 42.9353 60.1269 42.7923 59.6062 42.7923C58.8656 42.7923 58.4952 43.0783 58.4952 43.6503C58.4952 43.929 58.5869 44.138 58.7702 44.2773C58.9609 44.4167 59.2322 44.4863 59.5842 44.4863ZM66.4389 45.4983C65.9035 45.4983 65.4232 45.3847 64.9979 45.1573C64.5799 44.9227 64.2499 44.5963 64.0079 44.1783C63.7732 43.753 63.6559 43.2617 63.6559 42.7043C63.6559 42.1543 63.7732 41.6667 64.0079 41.2413C64.2499 40.816 64.5799 40.486 64.9979 40.2513C65.4232 40.0093 65.9035 39.8883 66.4389 39.8883C67.3042 39.8883 67.9862 40.1157 68.4849 40.5703V37.2043H69.8709V45.3333H68.5289V44.7173C68.2282 44.996 67.9165 45.1977 67.5939 45.3223C67.2712 45.4397 66.8862 45.4983 66.4389 45.4983ZM66.7799 44.4093C67.1759 44.4093 67.5279 44.303 67.8359 44.0903C68.1439 43.8777 68.3602 43.5917 68.4849 43.2323V42.1653C68.3675 41.806 68.1512 41.52 67.8359 41.3073C67.5279 41.0873 67.1759 40.9773 66.7799 40.9773C66.2812 40.9773 65.8705 41.1387 65.5479 41.4613C65.2252 41.784 65.0639 42.1983 65.0639 42.7043C65.0639 43.2103 65.2252 43.621 65.5479 43.9363C65.8705 44.2517 66.2812 44.4093 66.7799 44.4093ZM79.4892 45.4983C78.6825 45.4983 77.9675 45.337 77.3442 45.0143C76.7208 44.6843 76.2368 44.2187 75.8922 43.6173C75.5475 43.0087 75.3752 42.301 75.3752 41.4943C75.3752 40.6877 75.5475 39.9837 75.8922 39.3823C76.2368 38.7737 76.7208 38.3043 77.3442 37.9743C77.9675 37.6443 78.6825 37.4793 79.4892 37.4793C80.5525 37.4793 81.4398 37.7323 82.1512 38.2383V39.5693C81.5132 39.0267 80.6662 38.7553 79.6102 38.7553C79.0455 38.7553 78.5505 38.869 78.1252 39.0963C77.6998 39.3163 77.3698 39.6317 77.1352 40.0423C76.9005 40.453 76.7832 40.937 76.7832 41.4943C76.7832 42.0517 76.9005 42.5357 77.1352 42.9463C77.3772 43.357 77.7108 43.676 78.1362 43.9033C78.5615 44.1233 79.0528 44.2333 79.6102 44.2333C80.1528 44.2333 80.6368 44.1673 81.0622 44.0353C81.4875 43.896 81.8798 43.676 82.2392 43.3753V44.7063C81.5645 45.2343 80.6478 45.4983 79.4892 45.4983ZM83.281 40.0533H84.623V40.9003C84.8357 40.6143 85.1363 40.4017 85.525 40.2623C85.921 40.123 86.372 40.0533 86.878 40.0533V41.1093C86.3427 41.1093 85.877 41.1937 85.481 41.3623C85.0923 41.5237 84.821 41.7803 84.667 42.1323V45.3333H83.281V40.0533ZM90.6175 45.4983C89.6348 45.4983 88.8575 45.2527 88.2855 44.7613C87.7135 44.27 87.4275 43.5843 87.4275 42.7043C87.4275 41.839 87.6805 41.1533 88.1865 40.6473C88.6925 40.1413 89.4148 39.8883 90.3535 39.8883C90.9695 39.8883 91.4938 40.0057 91.9265 40.2403C92.3665 40.475 92.6965 40.7977 92.9165 41.2083C93.1365 41.6117 93.2465 42.0737 93.2465 42.5943V43.2323H88.7475C88.8428 44.017 89.5248 44.4093 90.7935 44.4093C91.1308 44.4093 91.4755 44.38 91.8275 44.3213C92.1795 44.2627 92.4875 44.182 92.7515 44.0793V45.1463C92.5021 45.249 92.1795 45.3333 91.7835 45.3993C91.3948 45.4653 91.0061 45.4983 90.6175 45.4983ZM91.9375 42.2863C91.9228 41.8683 91.7725 41.5457 91.4865 41.3183C91.2078 41.091 90.8228 40.9773 90.3315 40.9773C89.8475 40.9773 89.4661 41.0947 89.1875 41.3293C88.9088 41.564 88.7621 41.883 88.7475 42.2863H91.9375ZM97.1336 45.4983C96.5983 45.4983 96.1179 45.3847 95.6926 45.1573C95.2746 44.9227 94.9446 44.5963 94.7026 44.1783C94.4679 43.753 94.3506 43.2617 94.3506 42.7043C94.3506 42.1543 94.4679 41.6667 94.7026 41.2413C94.9446 40.816 95.2746 40.486 95.6926 40.2513C96.1179 40.0093 96.5983 39.8883 97.1336 39.8883C97.9989 39.8883 98.6809 40.1157 99.1796 40.5703V37.2043H100.566V45.3333H99.2236V44.7173C98.9229 44.996 98.6113 45.1977 98.2886 45.3223C97.9659 45.4397 97.5809 45.4983 97.1336 45.4983ZM97.4746 44.4093C97.8706 44.4093 98.2226 44.303 98.5306 44.0903C98.8386 43.8777 99.0549 43.5917 99.1796 43.2323V42.1653C99.0623 41.806 98.8459 41.52 98.5306 41.3073C98.2226 41.0873 97.8706 40.9773 97.4746 40.9773C96.9759 40.9773 96.5653 41.1387 96.2426 41.4613C95.9199 41.784 95.7586 42.1983 95.7586 42.7043C95.7586 43.2103 95.9199 43.621 96.2426 43.9363C96.5653 44.2517 96.9759 44.4093 97.4746 44.4093ZM102.887 39.1293C102.667 39.1293 102.48 39.056 102.326 38.9093C102.179 38.7627 102.106 38.5793 102.106 38.3593C102.106 38.1393 102.179 37.956 102.326 37.8093C102.48 37.6553 102.667 37.5783 102.887 37.5783C103.107 37.5783 103.294 37.6553 103.448 37.8093C103.602 37.956 103.679 38.1393 103.679 38.3593C103.679 38.5793 103.602 38.7627 103.448 38.9093C103.294 39.056 103.107 39.1293 102.887 39.1293ZM102.183 40.0533H103.591V45.3333H102.183V40.0533ZM107.339 45.4983C106.759 45.4983 106.319 45.337 106.019 45.0143C105.718 44.6917 105.568 44.237 105.568 43.6503V41.1093H104.776V40.0533H105.568V38.4693H106.954V40.0533H108.219V41.1093H106.954V43.4743C106.954 43.8117 107.016 44.0537 107.141 44.2003C107.265 44.3397 107.493 44.4093 107.823 44.4093C108.05 44.4093 108.274 44.358 108.494 44.2553V45.3113C108.178 45.436 107.793 45.4983 107.339 45.4983ZM113.884 37.6443H115.281V44.1783H118.977V45.3333H113.884V37.6443ZM122.507 45.4983C121.891 45.4983 121.349 45.3883 120.879 45.1683C120.417 44.941 120.058 44.6183 119.801 44.2003C119.545 43.775 119.416 43.2727 119.416 42.6933C119.416 42.1287 119.541 41.6373 119.79 41.2193C120.047 40.794 120.41 40.4677 120.879 40.2403C121.349 40.0057 121.891 39.8883 122.507 39.8883C123.123 39.8883 123.662 40.0057 124.124 40.2403C124.594 40.4677 124.957 40.794 125.213 41.2193C125.47 41.6373 125.598 42.1287 125.598 42.6933C125.598 43.2727 125.47 43.775 125.213 44.2003C124.957 44.6183 124.594 44.941 124.124 45.1683C123.662 45.3883 123.123 45.4983 122.507 45.4983ZM122.507 44.4093C123.013 44.4093 123.417 44.2517 123.717 43.9363C124.018 43.6137 124.168 43.1993 124.168 42.6933C124.168 42.158 124.018 41.74 123.717 41.4393C123.424 41.1313 123.021 40.9773 122.507 40.9773C121.994 40.9773 121.587 41.1313 121.286 41.4393C120.993 41.74 120.846 42.158 120.846 42.6933C120.846 43.1993 120.997 43.6137 121.297 43.9363C121.598 44.2517 122.001 44.4093 122.507 44.4093ZM128.571 45.4983C127.94 45.4983 127.423 45.3333 127.02 45.0033C126.616 44.666 126.415 44.215 126.415 43.6503C126.415 43.0637 126.605 42.6053 126.987 42.2753C127.368 41.9453 127.903 41.7803 128.593 41.7803C129.26 41.7803 129.836 41.916 130.32 42.1873V42.0443C130.32 41.6703 130.202 41.399 129.968 41.2303C129.74 41.0617 129.37 40.9773 128.857 40.9773C128.534 40.9773 128.215 41.0103 127.9 41.0763C127.584 41.135 127.306 41.2193 127.064 41.3293V40.2403C127.284 40.1377 127.577 40.0533 127.944 39.9873C128.318 39.9213 128.677 39.8883 129.022 39.8883C129.938 39.8883 130.617 40.0863 131.057 40.4823C131.497 40.871 131.717 41.4137 131.717 42.1103V45.3333H130.408V44.8163C130.18 45.0363 129.92 45.205 129.627 45.3223C129.341 45.4397 128.989 45.4983 128.571 45.4983ZM128.912 44.4863C129.22 44.4863 129.498 44.4277 129.748 44.3103C129.997 44.1857 130.188 44.017 130.32 43.8043V43.2213C129.916 42.9353 129.454 42.7923 128.934 42.7923C128.193 42.7923 127.823 43.0783 127.823 43.6503C127.823 43.929 127.914 44.138 128.098 44.2773C128.288 44.4167 128.56 44.4863 128.912 44.4863ZM133.203 40.0533H134.545V40.7683C134.795 40.4677 135.092 40.2477 135.436 40.1083C135.781 39.9617 136.144 39.8883 136.525 39.8883C137.237 39.8883 137.768 40.0827 138.12 40.4713C138.472 40.8527 138.648 41.3623 138.648 42.0003V45.3333H137.262V42.1323C137.262 41.3623 136.903 40.9773 136.184 40.9773C135.869 40.9773 135.572 41.0543 135.293 41.2083C135.015 41.355 134.78 41.5787 134.589 41.8793V45.3333H133.203V40.0533ZM142.194 45.4983C141.813 45.4983 141.406 45.4543 140.973 45.3663C140.541 45.2783 140.203 45.1573 139.961 45.0033V43.8263C140.247 44.0023 140.588 44.1453 140.984 44.2553C141.38 44.358 141.754 44.4093 142.106 44.4093C142.458 44.4093 142.715 44.38 142.876 44.3213C143.038 44.2553 143.118 44.138 143.118 43.9693C143.118 43.8373 143.074 43.731 142.986 43.6503C142.906 43.5623 142.77 43.4853 142.579 43.4193C142.396 43.346 142.11 43.258 141.721 43.1553C141.281 43.0307 140.933 42.9023 140.676 42.7703C140.427 42.6383 140.236 42.4733 140.104 42.2753C139.98 42.07 139.917 41.806 139.917 41.4833C139.917 40.9553 140.126 40.5593 140.544 40.2953C140.962 40.024 141.527 39.8883 142.238 39.8883C142.605 39.8883 142.968 39.925 143.327 39.9983C143.694 40.0643 143.98 40.1597 144.185 40.2843V41.4173C143.965 41.2853 143.698 41.179 143.382 41.0983C143.067 41.0177 142.744 40.9773 142.414 40.9773C142.055 40.9773 141.784 41.014 141.6 41.0873C141.417 41.1533 141.325 41.2853 141.325 41.4833C141.325 41.6153 141.373 41.7217 141.468 41.8023C141.571 41.8757 141.703 41.9417 141.864 42.0003C142.026 42.0517 142.319 42.1323 142.744 42.2423C143.199 42.367 143.555 42.5027 143.811 42.6493C144.068 42.796 144.251 42.972 144.361 43.1773C144.471 43.3827 144.526 43.6393 144.526 43.9473C144.526 44.4167 144.325 44.7943 143.921 45.0803C143.525 45.359 142.95 45.4983 142.194 45.4983Z" fill="#393434"></path><defs><clipPath id="clip0"><rect width="38.2114" height="44.3089" fill="white" transform="translate(0 4.06503)"></rect></clipPath></defs></svg> 