<svg width="192" height="48" viewBox="0 0 192 48" fill="none" xmlns="http://www.w3.org/2000/svg">
<g clip-path="url(#clip0_2331_63)">
<path d="M23.0504 0C22.2981 0 21.7282 0 22.1411 0C16.5457 0 11.4291 2.00865 7.44976 5.33699C7.32058 5.44338 7.19393 5.54976 7.06728 5.65868C7.05461 5.66881 7.04448 5.67894 7.03182 5.68908C4.38485 7.98649 2.27741 10.8893 0.93493 14.1872C0.276354 16.1174 -0.00987251 17.7739 0.000259415 19.8206C0.000259415 20.1904 0.104112 22.7918 1.53018 25.3349C4.25314 30.1931 9.06073 31.5052 11.7533 31.4799C17.0827 31.4318 23.3214 28.8203 28.5698 23.9797C28.5698 23.9797 27.8909 27.7843 27.6832 28.9621C27.4831 30.0994 28.2278 31.0999 29.3651 31.1075H29.8362C31.0141 31.1075 31.8525 30.1475 32.0653 28.9621L33.9574 18.3211C34.1828 17.1382 33.4078 16.1807 32.2249 16.1807H21.5661C20.3806 16.1807 19.294 16.8089 19.0863 17.9968C19.0761 18.0652 19.0128 18.4021 19.0027 18.4781C18.8355 19.6078 19.6233 20.4614 20.753 20.4614H26.3129C26.2242 20.545 26.1381 20.6286 26.0469 20.7198C22.212 24.3521 17.4778 26.3379 13.5669 26.3379C9.65599 26.3379 5.41324 23.8658 5.27899 18.3135C5.241 16.6873 5.54496 15.8261 5.77546 15.0459C8.02475 8.38164 16.685 4.62776 23.0479 4.81013C33.6307 5.11156 41.5994 13.6958 41.5994 24.2786C41.5994 34.8614 31.8145 43.7699 21.2266 43.7699C10.5653 43.7699 5.09409 38.3924 2.25715 33.9166C0.511922 31.1607 0.489125 32.4374 1.43139 34.3903C5.30939 42.4325 13.534 48 23.0504 48C36.2928 48 47.0631 37.2348 47.0631 24.0025C47.0631 10.7702 36.2928 0 23.0504 0Z" fill="#ED0000"/>
<path d="M53.5015 33.1415L56.997 15.0307H60.067L63.0229 23.6935L69.672 15.0307H72.7648L69.2617 33.1415H66.06L68.8361 20.4918L63.0559 27.9818H61.4829L58.7422 20.5729L56.5714 33.1415H53.5015Z" fill="white"/>
<path d="M79.3634 22.6854C78.7073 22.6854 78.0868 22.8982 77.4814 23.3237C76.876 23.7492 76.377 24.3217 75.9742 25.036C75.574 25.7478 75.3765 26.5583 75.3765 27.4677C75.3765 28.4251 75.6044 29.2357 76.073 29.8816C76.5315 30.5376 77.2433 30.8568 78.2007 30.8568C78.8568 30.8568 79.485 30.6516 80.1005 30.2438C80.7135 29.8335 81.2226 29.2686 81.6228 28.5492C82.023 27.8299 82.2206 26.9864 82.2206 26.0264C82.2206 25.0107 81.9901 24.2001 81.524 23.5947C81.0655 22.9893 80.3462 22.6854 79.3634 22.6854ZM79.7737 19.9675C81.4759 19.9675 82.8285 20.4665 83.8341 21.4746C84.8422 22.4827 85.3412 23.8404 85.3412 25.5603C85.3412 27.0421 85.0221 28.3922 84.3761 29.6055C83.7378 30.8163 82.8538 31.7839 81.7317 32.4956C80.6096 33.2074 79.3178 33.5671 77.8512 33.5671C76.7468 33.5671 75.7716 33.329 74.9357 32.8629C74.0922 32.3892 73.4463 31.7332 72.9803 30.8821C72.5142 30.031 72.2837 29.0482 72.2837 27.9185C72.2837 26.7888 72.4813 25.7807 72.8637 24.8232C73.2488 23.8658 73.7883 23.0147 74.4773 22.2852C75.1637 21.5481 75.959 20.9832 76.8684 20.5729C77.7777 20.1625 78.7428 19.9599 79.7737 19.9599V19.9675Z" fill="white"/>
<path d="M85.8553 33.1415L88.3275 20.4108H91.2582L91.0378 21.852C91.5444 21.4012 92.0029 21.0491 92.4208 20.8034C92.8388 20.5577 93.2719 20.3854 93.738 20.2866C94.1965 20.1879 94.7284 20.1397 95.3262 20.1397C95.9239 20.1397 96.5141 20.2866 97.0537 20.5906C97.5856 20.8844 98.0187 21.3201 98.3556 21.8926C98.6925 22.465 98.8546 23.1464 98.8546 23.9392C98.8546 24.1368 98.847 24.3647 98.8293 24.618C98.8141 24.8713 98.771 25.1348 98.7229 25.4033L97.2335 33.139H94.1635L95.5719 25.8111C95.6048 25.6312 95.6377 25.4514 95.6529 25.2792C95.6681 25.1069 95.6783 24.9524 95.6783 24.8055C95.6783 24.2812 95.5871 23.8632 95.4072 23.5517C95.1362 23.0856 94.622 22.8475 93.8596 22.8475C92.9021 22.8475 92.0915 23.2148 91.4456 23.9443C90.7997 24.6738 90.3641 25.5806 90.169 26.647L88.9152 33.139H85.8452H85.8528L85.8553 33.1415Z" fill="white"/>
<path d="M103.475 25.4767H109.395C109.41 25.3855 109.42 25.3121 109.42 25.2564V25.0689C109.42 24.2178 109.182 23.5947 108.716 23.1945C108.242 22.7943 107.667 22.5967 106.981 22.5967C106.145 22.5967 105.418 22.8424 104.795 23.3338C104.172 23.8252 103.731 24.537 103.477 25.4793L103.475 25.4767ZM107.226 20.0485C108.422 20.0485 109.397 20.2942 110.149 20.7932C110.902 21.2922 111.459 21.9407 111.819 22.7487C112.178 23.5517 112.358 24.4357 112.358 25.3931C112.358 25.7934 112.333 26.1784 112.277 26.5482C112.219 26.9155 112.155 27.3106 112.064 27.726H103.239V27.8907C103.239 28.8152 103.518 29.5447 104.065 30.0766C104.615 30.6085 105.367 30.8796 106.309 30.8796C107.029 30.8796 107.677 30.758 108.234 30.5123C108.792 30.2666 109.349 29.9322 109.888 29.4966L111.436 31.642C110.75 32.2221 109.954 32.6907 109.063 33.0427C108.171 33.3948 107.13 33.5747 105.952 33.5747C104.774 33.5747 103.824 33.3543 102.94 32.9186C102.056 32.4855 101.36 31.8472 100.861 31.0037C100.362 30.1602 100.116 29.1546 100.116 27.9742C100.116 26.4519 100.428 25.1018 101.041 23.9063C101.654 22.7107 102.497 21.7684 103.561 21.082C104.625 20.3956 105.853 20.0511 107.229 20.0511L107.226 20.0485Z" fill="white"/>
<path d="M115.934 32.9186L112.897 20.4006H116.073L118.138 29.1116L122.778 20.4006H126.332L115.876 38.7141H112.34L115.934 32.9186Z" fill="white"/>
<path d="M142.87 23.577L141.429 31.0189C140.487 31.7965 139.448 32.4272 138.311 32.9009C137.174 33.3746 135.821 33.6203 134.266 33.6203C132.71 33.6203 131.343 33.2834 130.165 32.6045C128.987 31.9257 128.07 30.9834 127.406 29.7803C126.743 28.5771 126.416 27.1764 126.416 25.5882C126.416 24.1216 126.669 22.7234 127.178 21.3961C127.685 20.0688 128.399 18.891 129.306 17.8677C130.223 16.8443 131.312 16.0338 132.581 15.436C133.85 14.8382 135.241 14.5444 136.766 14.5444C138.519 14.5444 139.95 14.9218 141.039 15.6741C142.136 16.4264 142.972 17.4497 143.552 18.7517L140.808 20.2993C140.302 19.3748 139.727 18.6959 139.081 18.2603C138.435 17.8271 137.584 17.6042 136.518 17.6042C135.52 17.6042 134.618 17.817 133.8 18.2425C132.982 18.6681 132.285 19.2405 131.712 19.97C131.132 20.6894 130.689 21.5177 130.37 22.427C130.051 23.3364 129.896 24.2862 129.896 25.2589C129.896 26.2316 130.076 27.0674 130.436 27.8552C130.796 28.6404 131.32 29.2711 132.009 29.7372C132.698 30.2109 133.531 30.4414 134.506 30.4414C135.39 30.4414 136.135 30.3679 136.751 30.2134C137.356 30.0589 137.979 29.7397 138.61 29.2483L139.149 26.3987H136.079L136.619 23.5745H142.873L142.87 23.577Z" fill="white"/>
<path d="M143.116 33.139L145.588 20.4082H148.519L148.273 22.0623C148.706 21.5962 149.23 21.1605 149.846 20.7603C150.459 20.3601 151.214 20.1625 152.098 20.1625C152.68 20.1625 153.212 20.2613 153.704 20.4665L152.614 23.4554C152.361 23.349 152.141 23.268 151.951 23.2249C151.763 23.1844 151.518 23.1591 151.231 23.1591C150.233 23.1591 149.398 23.5263 148.709 24.2736C148.02 25.0183 147.579 25.9099 147.381 26.9585L146.186 33.1491H143.116V33.1415V33.139Z" fill="white"/>
<path d="M160.515 28.4403L160.735 27.3511C160.515 27.3182 160.261 27.2777 159.957 27.2447C159.663 27.2118 159.253 27.1865 158.747 27.1865C157.477 27.1865 156.586 27.4246 156.062 27.8907C155.537 28.3643 155.276 28.9064 155.276 29.5194C155.276 30.5351 155.932 31.0417 157.232 31.0417C157.921 31.0417 158.6 30.8112 159.271 30.3629C159.942 29.912 160.36 29.2661 160.525 28.4302L160.517 28.4378L160.515 28.4403ZM159.679 33.1415L159.866 31.8877C159.286 32.4855 158.671 32.9034 158.025 33.1491C157.369 33.3948 156.697 33.5164 155.986 33.5164C155.314 33.5164 154.709 33.3771 154.152 33.0985C153.602 32.8198 153.154 32.412 152.809 31.8776C152.465 31.3456 152.292 30.7073 152.292 29.9626C152.292 28.9469 152.553 28.0629 153.078 27.303C153.602 26.5406 154.339 25.9529 155.289 25.535C156.239 25.117 157.343 24.9119 158.612 24.9119C159.137 24.9119 159.61 24.9271 160.021 24.9524C160.431 24.9777 160.816 25.0107 161.158 25.0512C161.216 24.8308 161.239 24.6256 161.239 24.4281C161.239 23.848 161.008 23.3972 160.56 23.0679C160.109 22.7411 159.544 22.5765 158.873 22.5765C158.004 22.5765 157.3 22.6904 156.768 22.9285C156.236 23.1666 155.745 23.4199 155.286 23.691L154.091 21.6849C154.63 21.2846 155.36 20.8996 156.277 20.5298C157.194 20.1625 158.283 19.9726 159.552 19.9726C160.927 19.9726 162.042 20.35 162.893 21.1023C163.744 21.8546 164.17 22.9108 164.17 24.2634C164.17 24.4433 164.154 24.6307 164.129 24.8359C164.104 25.0411 164.071 25.2538 164.03 25.4919L162.564 33.1466H159.658L159.674 33.139L159.679 33.1415Z" fill="white"/>
<path d="M181.014 33.139L182.423 25.8111C182.514 25.3931 182.562 25.0081 182.562 24.6408C182.562 24.1748 182.448 23.7568 182.218 23.387C181.987 23.0273 181.546 22.8475 180.875 22.8475C180.006 22.8475 179.254 23.1515 178.608 23.7391C177.962 24.3369 177.519 25.2614 177.266 26.5051L175.989 33.1289H172.919L174.327 25.8009C174.419 25.383 174.467 24.998 174.467 24.6307C174.467 24.1646 174.353 23.7467 174.13 23.3769C173.899 23.0172 173.459 22.8374 172.787 22.8374C171.83 22.8374 171.034 23.2046 170.414 23.9341C169.791 24.6636 169.375 25.5704 169.178 26.6368L167.924 33.1289H164.854L167.326 20.3981H170.257L170.036 21.8394C170.543 21.3885 171.002 21.0364 171.404 20.7907C171.815 20.545 172.24 20.3728 172.681 20.274C173.124 20.1752 173.646 20.1271 174.244 20.1271C174.874 20.1271 175.455 20.2917 175.979 20.6185C176.503 20.9452 176.911 21.4037 177.2 22.0015C177.889 21.3708 178.568 20.8971 179.246 20.5931C179.925 20.2892 180.835 20.1347 181.972 20.1347C183.003 20.1347 183.879 20.4716 184.609 21.1428C185.328 21.814 185.698 22.7487 185.698 23.9417C185.698 24.1393 185.69 24.3673 185.673 24.6206C185.657 24.8739 185.614 25.1373 185.566 25.4058L184.077 33.1415H181.007L181.014 33.1339V33.139Z" fill="white"/>
<path d="M188.376 28.5C187.064 28.5 186 29.5628 186 30.8737C186 32.1847 187.064 33.2475 188.376 33.2475C189.687 33.2475 190.751 32.1847 190.751 30.8737C190.751 29.5628 189.687 28.5 188.376 28.5ZM188.376 32.7678C187.329 32.7678 186.478 31.92 186.478 30.8717C186.478 29.8233 187.327 28.9756 188.376 28.9756C189.425 28.9756 190.273 29.8233 190.273 30.8717C190.273 31.92 189.425 32.7678 188.376 32.7678Z" fill="white"/>
<path d="M188.349 31.236H187.968V32.1242H187.5V29.5659H188.494C188.972 29.5659 189.356 29.9456 189.356 30.4132C189.356 30.7358 189.154 31.0237 188.856 31.1584L189.402 32.1242H188.841L188.347 31.236H188.349ZM187.968 30.8072H188.512C188.711 30.8072 188.876 30.6337 188.876 30.4132C188.876 30.1927 188.711 30.0232 188.512 30.0232H187.968V30.8072Z" fill="white"/>
</g>
<defs>
<clipPath id="clip0_2331_63">
<rect width="191.25" height="48" fill="white"/>
</clipPath>
</defs>
</svg>
