<svg width="46" height="46" viewBox="0 0 46 46" fill="none" xmlns="http://www.w3.org/2000/svg">
<g clip-path="url(#clip0_2334_75)">
<path d="M22.0901 -7.00951e-05C21.3691 -7.00951e-05 20.823 -7.00951e-05 21.2186 -7.00951e-05C15.8564 -7.00951e-05 10.953 1.92489 7.13949 5.11455C7.01569 5.2165 6.89431 5.31845 6.77294 5.42283C6.7608 5.43254 6.75109 5.44225 6.73896 5.45196C4.20228 7.65365 2.18265 10.4355 0.893678 13.596C0.264971 15.4457 -0.0117553 17.0309 0.000381894 18.9947C0.000381894 19.3491 0.0999053 21.842 1.46655 24.2792C4.07605 28.935 8.68334 30.1924 11.2637 30.1682C16.371 30.122 22.3498 27.6193 27.3795 22.9805C27.3795 22.9805 26.7289 26.6265 26.5299 27.7553C26.3381 28.8452 27.0518 29.804 28.1417 29.8113H28.5932C29.722 29.8113 30.5255 28.8913 30.7294 27.7553L32.5426 17.5576C32.7587 16.424 32.0159 15.5064 30.8823 15.5064H20.6676C19.5316 15.5064 18.4902 16.1084 18.2911 17.2469C18.2814 17.3124 18.2208 17.6353 18.211 17.7081C18.0508 18.7907 18.8058 19.6088 19.8884 19.6088H25.2166C25.1317 19.6889 25.0491 19.769 24.9618 19.8564C21.2866 23.3373 16.7497 25.2405 13.0018 25.2405C9.25379 25.2405 5.18782 22.8713 5.05917 17.5503C5.02276 15.9919 5.31405 15.1666 5.53495 14.4189C7.69051 8.03233 15.9899 4.43486 22.0877 4.60964C32.2295 4.8985 39.8662 13.1251 39.8662 23.2669C39.8662 33.4088 30.489 41.9461 20.3423 41.9461C10.1252 41.9461 4.88197 36.7926 2.16323 32.5034C0.490726 29.8623 0.468876 31.0857 1.37188 32.9573C5.0883 40.6644 12.9702 45.9999 22.0901 45.9999C34.7807 45.9999 45.1022 35.6833 45.1022 23.0024C45.1022 10.3214 34.7783 -7.00951e-05 22.0901 -7.00951e-05Z" fill="#ED0000"/>
</g>
<defs>
<clipPath id="clip0_2334_75">
<rect width="46" height="46" fill="white"/>
</clipPath>
</defs>
</svg>
