<svg width="126" height="50" viewBox="0 0 126 50" fill="none" xmlns="http://www.w3.org/2000/svg">
<path d="M59.8727 19.4612L47.2901 8.41553L34.7074 19.4612H59.8727Z" fill="#14DF65"/>
<path d="M91.8535 19.4612L79.2709 8.41553L66.6883 19.4612H91.8535Z" fill="#14DF65"/>
<path d="M19.4727 19.4727L35.2317 5.25977L50.405 19.4727H19.4727Z" fill="#00B347"/>
<path d="M75.5951 19.4727L91.354 5.25977L106.527 19.4727H75.5951Z" fill="#00B347"/>
<path opacity="0.8" d="M63.0183 0L41.523 19.4614H85.0379L63.0183 0Z" fill="#0B653A"/>
<path d="M12.0534 25.7465V35.6182H10.0343V29.9404C10.0343 29.8094 10.0366 29.6671 10.0411 29.5136C10.0501 29.36 10.0637 29.2042 10.0817 29.0461L7.45968 34.1208C7.37837 34.2789 7.26771 34.3986 7.12768 34.4799C6.99218 34.5612 6.83634 34.6019 6.66018 34.6019H6.34852C6.17236 34.6019 6.01426 34.5612 5.87424 34.4799C5.73873 34.3986 5.63033 34.2789 5.54902 34.1208L2.92696 29.0325C2.94051 29.1951 2.9518 29.3555 2.96083 29.5136C2.96987 29.6671 2.97438 29.8094 2.97438 29.9404V35.6182H0.955326V25.7465H2.70337C2.80274 25.7465 2.88856 25.7487 2.96083 25.7532C3.03762 25.7578 3.10538 25.7713 3.16409 25.7939C3.22281 25.8165 3.27476 25.8526 3.31993 25.9023C3.36961 25.9475 3.41704 26.013 3.46221 26.0988L6.00297 31.1058C6.09331 31.2774 6.17913 31.4558 6.26044 31.641C6.34626 31.8262 6.42756 32.0159 6.50435 32.2102C6.58114 32.0114 6.66018 31.8172 6.74149 31.6275C6.82731 31.4378 6.91765 31.2571 7.0125 31.0854L9.54649 26.0988C9.59166 26.013 9.63683 25.9475 9.68199 25.9023C9.73168 25.8526 9.78588 25.8165 9.8446 25.7939C9.90332 25.7713 9.96882 25.7578 10.0411 25.7532C10.1179 25.7487 10.206 25.7465 10.3053 25.7465H12.0534ZM23.6523 30.6789C23.6523 31.3926 23.528 32.0566 23.2796 32.6709C23.0357 33.2852 22.6902 33.8204 22.243 34.2766C21.7958 34.7283 21.256 35.0829 20.6237 35.3404C19.9958 35.5978 19.298 35.7266 18.5301 35.7266C17.7622 35.7266 17.0621 35.5978 16.4297 35.3404C15.7974 35.0829 15.2553 34.7283 14.8036 34.2766C14.3565 33.8204 14.0087 33.2852 13.7602 32.6709C13.5163 32.0566 13.3944 31.3926 13.3944 30.6789C13.3944 29.9653 13.5163 29.3013 13.7602 28.687C14.0087 28.0727 14.3565 27.5397 14.8036 27.088C15.2553 26.6363 15.7974 26.2817 16.4297 26.0242C17.0621 25.7668 17.7622 25.6381 18.5301 25.6381C19.298 25.6381 19.9958 25.769 20.6237 26.031C21.256 26.2885 21.7958 26.6431 22.243 27.0948C22.6902 27.5464 23.0357 28.0794 23.2796 28.6937C23.528 29.308 23.6523 29.9698 23.6523 30.6789ZM21.308 30.6789C21.308 30.1911 21.2448 29.753 21.1183 29.3645C20.9918 28.9715 20.8089 28.6395 20.5695 28.3685C20.3346 28.0975 20.0455 27.8897 19.7022 27.7452C19.3589 27.6007 18.9682 27.5284 18.5301 27.5284C18.0874 27.5284 17.6922 27.6007 17.3444 27.7452C17.0011 27.8897 16.7098 28.0975 16.4704 28.3685C16.2355 28.6395 16.0548 28.9715 15.9284 29.3645C15.8019 29.753 15.7386 30.1911 15.7386 30.6789C15.7386 31.1713 15.8019 31.6139 15.9284 32.0069C16.0548 32.3953 16.2355 32.7251 16.4704 32.9961C16.7098 33.2671 17.0011 33.4749 17.3444 33.6194C17.6922 33.7595 18.0874 33.8295 18.5301 33.8295C18.9682 33.8295 19.3589 33.7595 19.7022 33.6194C20.0455 33.4749 20.3346 33.2671 20.5695 32.9961C20.8089 32.7251 20.9918 32.3953 21.1183 32.0069C21.2448 31.6139 21.308 31.1713 21.308 30.6789ZM33.6182 25.7465V35.6182H32.4257C32.2496 35.6182 32.1005 35.5911 31.9786 35.5369C31.8611 35.4781 31.7437 35.3788 31.6262 35.2387L26.9716 29.351C26.9896 29.5271 27.0009 29.6988 27.0054 29.8659C27.0145 30.0285 27.019 30.1821 27.019 30.3266V35.6182H24.9999V25.7465H26.2059C26.3053 25.7465 26.3889 25.751 26.4566 25.76C26.5244 25.769 26.5854 25.7871 26.6396 25.8142C26.6938 25.8368 26.7457 25.8707 26.7954 25.9158C26.8451 25.961 26.9015 26.022 26.9648 26.0988L31.6601 32.0272C31.6375 31.8375 31.6217 31.6546 31.6127 31.4784C31.6036 31.2977 31.5991 31.1284 31.5991 30.9703V25.7465H33.6182ZM42.6273 27.5623H39.8494V35.6182H37.5593V27.5623H34.7814V25.7465H42.6273V27.5623ZM48.042 31.8443L47.1273 29.1409C47.0596 28.9693 46.9873 28.7683 46.9105 28.5379C46.8337 28.303 46.7569 28.0501 46.6801 27.7791C46.6124 28.0546 46.5401 28.3098 46.4633 28.5447C46.3865 28.7796 46.3143 28.9828 46.2465 29.1545L45.3386 31.8443H48.042ZM51.6804 35.6182H49.9052C49.7065 35.6182 49.5461 35.573 49.4242 35.4827C49.3022 35.3878 49.2096 35.2681 49.1464 35.1236L48.5637 33.4026H44.8101L44.2275 35.1236C44.1778 35.25 44.0874 35.3652 43.9564 35.4691C43.83 35.5685 43.6719 35.6182 43.4822 35.6182H41.6935L45.5148 25.7465H47.8591L51.6804 35.6182ZM61.0769 25.7465V35.6182H59.8845C59.7083 35.6182 59.5593 35.5911 59.4373 35.5369C59.3199 35.4781 59.2024 35.3788 59.085 35.2387L54.4303 29.351C54.4484 29.5271 54.4597 29.6988 54.4642 29.8659C54.4732 30.0285 54.4777 30.1821 54.4777 30.3266V35.6182H52.4587V25.7465H53.6647C53.7641 25.7465 53.8476 25.751 53.9154 25.76C53.9831 25.769 54.0441 25.7871 54.0983 25.8142C54.1525 25.8368 54.2045 25.8707 54.2541 25.9158C54.3038 25.961 54.3603 26.022 54.4235 26.0988L59.1189 32.0272C59.0963 31.8375 59.0805 31.6546 59.0714 31.4784C59.0624 31.2977 59.0579 31.1284 59.0579 30.9703V25.7465H61.0769ZM68.2093 31.8443L67.2946 29.1409C67.2269 28.9693 67.1546 28.7683 67.0778 28.5379C67.001 28.303 66.9242 28.0501 66.8474 27.7791C66.7797 28.0546 66.7074 28.3098 66.6306 28.5447C66.5538 28.7796 66.4816 28.9828 66.4138 29.1545L65.5059 31.8443H68.2093ZM71.8476 35.6182H70.0725C69.8738 35.6182 69.7134 35.573 69.5915 35.4827C69.4695 35.3878 69.3769 35.2681 69.3137 35.1236L68.731 33.4026H64.9774L64.3947 35.1236C64.3451 35.25 64.2547 35.3652 64.1237 35.4691C63.9973 35.5685 63.8392 35.6182 63.6495 35.6182H61.8608L65.6821 25.7465H68.0263L71.8476 35.6182ZM79.7265 33.6127C79.7988 33.6127 79.8621 33.642 79.9163 33.7007L80.438 34.2631C80.0405 34.7238 79.5572 35.0829 78.988 35.3404C78.4234 35.5978 77.7391 35.7266 76.9351 35.7266C76.2395 35.7266 75.6071 35.6069 75.038 35.3675C74.4689 35.1236 73.9833 34.7848 73.5813 34.3512C73.1793 33.913 72.8676 33.3891 72.6463 32.7793C72.425 32.1695 72.3143 31.4987 72.3143 30.767C72.3143 30.0353 72.4295 29.3645 72.6598 28.7547C72.8902 28.1449 73.2132 27.621 73.6287 27.1828C74.0488 26.7447 74.5502 26.4059 75.1329 26.1665C75.7155 25.9226 76.3592 25.8007 77.0638 25.8007C77.7549 25.8007 78.3647 25.9113 78.8932 26.1327C79.4217 26.354 79.8869 26.6544 80.2889 27.0338L79.8553 27.6368C79.8282 27.682 79.792 27.7203 79.7469 27.752C79.7062 27.7791 79.6498 27.7926 79.5775 27.7926C79.4962 27.7926 79.3968 27.7497 79.2794 27.6639C79.1619 27.5735 79.0084 27.4742 78.8186 27.3658C78.6289 27.2574 78.3918 27.1603 78.1072 27.0744C77.8227 26.9841 77.4726 26.9389 77.0571 26.9389C76.5557 26.9389 76.0972 27.027 75.6817 27.2032C75.2661 27.3748 74.907 27.6255 74.6044 27.9552C74.3063 28.285 74.0736 28.687 73.9065 29.1612C73.7394 29.6355 73.6558 30.1708 73.6558 30.767C73.6558 31.3723 73.7416 31.912 73.9133 32.3863C74.0894 32.8606 74.3266 33.2626 74.6247 33.5923C74.9273 33.9175 75.2819 34.166 75.6884 34.3376C76.0995 34.5093 76.5421 34.5951 77.0164 34.5951C77.3055 34.5951 77.5652 34.5793 77.7956 34.5477C78.0304 34.5115 78.245 34.4573 78.4392 34.385C78.638 34.3128 78.8209 34.2224 78.988 34.114C79.1597 34.0011 79.3291 33.8679 79.4962 33.7143C79.573 33.6465 79.6498 33.6127 79.7265 33.6127ZM87.1181 32.0137L85.5936 28.0636C85.5484 27.9462 85.501 27.8107 85.4513 27.6571C85.4016 27.499 85.3542 27.3319 85.309 27.1557C85.2142 27.5216 85.1171 27.8265 85.0177 28.0704L83.4932 32.0137H87.1181ZM89.8553 35.6182H88.839C88.7216 35.6182 88.6267 35.5888 88.5544 35.5301C88.4822 35.4714 88.428 35.3968 88.3918 35.3065L87.4839 32.9622H83.1274L82.2195 35.3065C82.1924 35.3878 82.1404 35.4601 82.0636 35.5233C81.9868 35.5865 81.892 35.6182 81.7791 35.6182H80.7628L84.645 25.9091H85.973L89.8553 35.6182ZM93.9985 30.9432C94.3734 30.9432 94.7032 30.8935 94.9877 30.7941C95.2768 30.6947 95.5185 30.557 95.7127 30.3808C95.9114 30.2001 96.0605 29.9856 96.1599 29.7371C96.2592 29.4887 96.3089 29.2154 96.3089 28.9173C96.3089 28.2985 96.117 27.8152 95.733 27.4674C95.3536 27.1196 94.7754 26.9457 93.9985 26.9457H92.4402V30.9432H93.9985ZM93.9985 25.9091C94.6128 25.9091 95.1458 25.9813 95.5975 26.1259C96.0537 26.2659 96.4309 26.4669 96.729 26.7289C97.0271 26.9909 97.2484 27.3071 97.393 27.6774C97.542 28.0478 97.6166 28.4611 97.6166 28.9173C97.6166 29.369 97.5375 29.7823 97.3794 30.1572C97.2213 30.5321 96.9887 30.8551 96.6816 31.1261C96.3789 31.3971 96.0018 31.6094 95.5501 31.763C95.1029 31.912 94.5857 31.9866 93.9985 31.9866H92.4402V35.6182H91.1326V25.9091H93.9985ZM100.585 35.6182H99.2709V25.9091H100.585V35.6182ZM109.634 27.0135H106.49V35.6182H105.183V27.0135H102.032V25.9091H109.634V27.0135ZM115.278 32.0137L113.754 28.0636C113.709 27.9462 113.661 27.8107 113.611 27.6571C113.562 27.499 113.514 27.3319 113.469 27.1557C113.374 27.5216 113.277 27.8265 113.178 28.0704L111.653 32.0137H115.278ZM118.015 35.6182H116.999C116.882 35.6182 116.787 35.5888 116.715 35.5301C116.642 35.4714 116.588 35.3968 116.552 35.3065L115.644 32.9622H111.287L110.38 35.3065C110.352 35.3878 110.301 35.4601 110.224 35.5233C110.147 35.5865 110.052 35.6182 109.939 35.6182H108.923L112.805 25.9091H114.133L118.015 35.6182ZM124.801 34.5138V35.6182H119.293V25.9091H120.6V34.5138H124.801Z" fill="white"/>
<path d="M28.7091 45.0581H19.9073M19.9073 45.0581L20.952 44.1875V45.8126L19.9073 45.0581Z" stroke="#00B247" stroke-width="0.833891" stroke-linecap="round" stroke-linejoin="round"/>
<path d="M35.2101 46.7559C35.2636 46.7559 35.311 46.7766 35.3524 46.818L35.7391 47.2375C35.5251 47.5026 35.2612 47.7057 34.9474 47.8468C34.6361 47.9878 34.2616 48.0584 33.8238 48.0584C33.4322 48.0584 33.0795 47.9915 32.7658 47.8577C32.4544 47.7239 32.1881 47.5379 31.9668 47.2995C31.7455 47.0612 31.5752 46.7766 31.456 46.4458C31.3393 46.1151 31.2809 45.7539 31.2809 45.3623C31.2809 44.9659 31.3442 44.6035 31.4706 44.2751C31.5971 43.9443 31.7746 43.6598 32.0033 43.4214C32.2343 43.1831 32.5092 42.9982 32.8278 42.8669C33.1464 42.7331 33.4991 42.6662 33.8858 42.6662C34.2701 42.6662 34.6106 42.7295 34.9073 42.8559C35.2065 42.9824 35.4606 43.1478 35.6698 43.3521L35.3414 43.8081C35.322 43.8373 35.2964 43.8629 35.2648 43.8847C35.2356 43.9066 35.1943 43.9176 35.1408 43.9176C35.1043 43.9176 35.0666 43.9079 35.0277 43.8884C34.9888 43.8665 34.9462 43.841 34.9 43.8118C34.8538 43.7802 34.8003 43.7461 34.7395 43.7096C34.6787 43.6731 34.6081 43.6403 34.5279 43.6111C34.4476 43.5795 34.354 43.554 34.247 43.5345C34.1424 43.5126 34.0208 43.5017 33.8821 43.5017C33.6462 43.5017 33.4297 43.5442 33.2327 43.6294C33.0382 43.7121 32.8703 43.8337 32.7293 43.9942C32.5882 44.1523 32.4788 44.3469 32.4009 44.5779C32.3231 44.8065 32.2842 45.068 32.2842 45.3623C32.2842 45.659 32.3255 45.9229 32.4082 46.154C32.4934 46.385 32.6077 46.5796 32.7512 46.7377C32.8947 46.8958 33.0637 47.0174 33.2583 47.1025C33.4529 47.1852 33.662 47.2266 33.8858 47.2266C34.0196 47.2266 34.1399 47.2193 34.247 47.2047C34.3564 47.1901 34.4561 47.167 34.5461 47.1354C34.6385 47.1037 34.7249 47.0636 34.8051 47.015C34.8878 46.9639 34.9693 46.9019 35.0496 46.8289C35.0739 46.807 35.0994 46.79 35.1262 46.7778C35.153 46.7632 35.1809 46.7559 35.2101 46.7559ZM39.4175 46.008L38.7754 44.2532C38.7438 44.1754 38.711 44.083 38.6769 43.976C38.6429 43.8689 38.6088 43.7534 38.5748 43.6294C38.5432 43.7534 38.5103 43.8702 38.4763 43.9796C38.4422 44.0866 38.4094 44.1803 38.3778 44.2605L37.7393 46.008H39.4175ZM41.1505 48H40.3916C40.3065 48 40.2372 47.9793 40.1837 47.938C40.1302 47.8942 40.09 47.8407 40.0633 47.7775L39.6693 46.7012H37.4839L37.0899 47.7775C37.0705 47.8334 37.0328 47.8845 36.9768 47.9307C36.9209 47.9769 36.8516 48 36.7689 48H36.0028L38.0786 42.7246H39.0782L41.1505 48ZM43.5097 45.2346C43.6945 45.2346 43.8551 45.2115 43.9913 45.1653C44.1299 45.1191 44.243 45.0558 44.3306 44.9756C44.4206 44.8929 44.4874 44.7956 44.5312 44.6837C44.575 44.5718 44.5969 44.449 44.5969 44.3152C44.5969 44.0477 44.5081 43.8422 44.3306 43.6987C44.1554 43.5552 43.8867 43.4834 43.5243 43.4834H42.8968V45.2346H43.5097ZM46.0343 48H45.1478C44.98 48 44.8583 47.9343 44.7829 47.803L43.6739 46.1138C43.6325 46.0506 43.5863 46.0056 43.5352 45.9789C43.4866 45.9521 43.4136 45.9387 43.3163 45.9387H42.8968V48H41.9154V42.7246H43.5243C43.8818 42.7246 44.1883 42.7623 44.4437 42.8377C44.7015 42.9107 44.9119 43.014 45.0748 43.1478C45.2402 43.2816 45.3618 43.4421 45.4396 43.6294C45.5175 43.8142 45.5564 44.0185 45.5564 44.2423C45.5564 44.4198 45.5296 44.5876 45.4761 44.7457C45.425 44.9038 45.3496 45.0473 45.2499 45.1762C45.1526 45.3051 45.031 45.4182 44.8851 45.5155C44.7416 45.6128 44.5774 45.6894 44.3926 45.7454C44.4558 45.7819 44.5142 45.8256 44.5677 45.8767C44.6212 45.9253 44.6698 45.9837 44.7136 46.0518L46.0343 48ZM52.2799 43.5309H50.6893V48H49.7079V43.5309H48.1172V42.7246H52.2799V43.5309ZM54.1742 48H53.1891V42.7246H54.1742V48ZM59.259 43.5309H57.6683V48H56.6869V43.5309H55.0963V42.7246H59.259V43.5309ZM63.2583 47.1901V48H60.1682V42.7246H61.1496V47.1901H63.2583ZM65.1629 43.5053V44.9683H67.0089V45.7235H65.1629V47.2156H67.5051V48H64.1778V42.7246H67.5051V43.5053H65.1629ZM73.6769 47.1901V48H70.5868V42.7246H71.5682V47.1901H73.6769ZM79.4422 45.3623C79.4422 45.749 79.3778 46.1078 79.2489 46.4385C79.1224 46.7669 78.9424 47.0514 78.7089 47.2922C78.4754 47.533 78.1945 47.7215 77.8662 47.8577C77.5378 47.9915 77.173 48.0584 76.7717 48.0584C76.3728 48.0584 76.0092 47.9915 75.6809 47.8577C75.3525 47.7215 75.0704 47.533 74.8345 47.2922C74.601 47.0514 74.4198 46.7669 74.2909 46.4385C74.162 46.1078 74.0975 45.749 74.0975 45.3623C74.0975 44.9756 74.162 44.6181 74.2909 44.2897C74.4198 43.9589 74.601 43.6731 74.8345 43.4324C75.0704 43.1916 75.3525 43.0043 75.6809 42.8705C76.0092 42.7343 76.3728 42.6662 76.7717 42.6662C77.0392 42.6662 77.291 42.6978 77.5269 42.7611C77.7628 42.8219 77.9793 42.9094 78.1763 43.0238C78.3733 43.1356 78.5496 43.2731 78.7053 43.436C78.8634 43.5965 78.9971 43.7765 79.1066 43.976C79.216 44.1754 79.2987 44.3919 79.3547 44.6253C79.413 44.8588 79.4422 45.1045 79.4422 45.3623ZM78.4389 45.3623C78.4389 45.0729 78.4 44.8138 78.3222 44.5852C78.2444 44.3542 78.1337 44.1584 77.9902 43.9978C77.8467 43.8373 77.6716 43.7145 77.4649 43.6294C77.2606 43.5442 77.0295 43.5017 76.7717 43.5017C76.5139 43.5017 76.2816 43.5442 76.0749 43.6294C75.8706 43.7145 75.6954 43.8373 75.5495 43.9978C75.406 44.1584 75.2954 44.3542 75.2175 44.5852C75.1397 44.8138 75.1008 45.0729 75.1008 45.3623C75.1008 45.6517 75.1397 45.912 75.2175 46.143C75.2954 46.3717 75.406 46.5662 75.5495 46.7268C75.6954 46.8848 75.8706 47.0065 76.0749 47.0916C76.2816 47.1767 76.5139 47.2193 76.7717 47.2193C77.0295 47.2193 77.2606 47.1767 77.4649 47.0916C77.6716 47.0065 77.8467 46.8848 77.9902 46.7268C78.1337 46.5662 78.2444 46.3717 78.3222 46.143C78.4 45.912 78.4389 45.6517 78.4389 45.3623ZM83.1464 46.008L82.5043 44.2532C82.4726 44.1754 82.4398 44.083 82.4058 43.976C82.3717 43.8689 82.3377 43.7534 82.3036 43.6294C82.272 43.7534 82.2392 43.8702 82.2051 43.9796C82.1711 44.0866 82.1382 44.1803 82.1066 44.2605L81.4682 46.008H83.1464ZM84.8793 48H84.1204C84.0353 48 83.966 47.9793 83.9125 47.938C83.859 47.8942 83.8189 47.8407 83.7921 47.7775L83.3981 46.7012H81.2128L80.8188 47.7775C80.7993 47.8334 80.7616 47.8845 80.7057 47.9307C80.6497 47.9769 80.5804 48 80.4977 48H79.7316L81.8074 42.7246H82.8071L84.8793 48ZM90.0915 42.7246V48H89.588C89.5102 48 89.4445 47.9878 89.391 47.9635C89.3399 47.9368 89.2901 47.893 89.2414 47.8322L86.487 44.3152C86.5016 44.4758 86.5089 44.6241 86.5089 44.7603V48H85.6442V42.7246H86.1586C86.2 42.7246 86.2353 42.727 86.2644 42.7319C86.2961 42.7343 86.3228 42.7416 86.3447 42.7538C86.369 42.7635 86.3921 42.7793 86.414 42.8012C86.4359 42.8207 86.4602 42.8474 86.487 42.8815L89.2524 46.413C89.2451 46.3279 89.239 46.244 89.2341 46.1613C89.2293 46.0786 89.2268 46.002 89.2268 45.9314V42.7246H90.0915ZM94.2943 43.6841C94.2652 43.7352 94.2335 43.7729 94.1995 43.7972C94.1679 43.8191 94.1277 43.83 94.0791 43.83C94.028 43.83 93.9721 43.8118 93.9113 43.7753C93.8529 43.7364 93.7824 43.6938 93.6997 43.6476C93.617 43.6014 93.5197 43.5601 93.4078 43.5236C93.2984 43.4847 93.1682 43.4652 93.0174 43.4652C92.8812 43.4652 92.7621 43.4822 92.6599 43.5163C92.5578 43.5479 92.4714 43.5929 92.4009 43.6513C92.3328 43.7096 92.2817 43.7802 92.2477 43.8629C92.2136 43.9431 92.1966 44.0319 92.1966 44.1292C92.1966 44.2532 92.2306 44.3566 92.2987 44.4393C92.3693 44.522 92.4617 44.5925 92.576 44.6509C92.6903 44.7093 92.8204 44.7615 92.9664 44.8078C93.1123 44.854 93.2619 44.9038 93.4151 44.9573C93.5683 45.0084 93.7179 45.0692 93.8638 45.1398C94.0098 45.2079 94.1399 45.2954 94.2542 45.4024C94.3685 45.507 94.4597 45.6359 94.5278 45.7891C94.5984 45.9424 94.6336 46.1284 94.6336 46.3473C94.6336 46.5857 94.5923 46.8094 94.5096 47.0186C94.4293 47.2254 94.3101 47.4065 94.1521 47.5622C93.9964 47.7154 93.8055 47.837 93.5793 47.927C93.3531 48.0146 93.0941 48.0584 92.8022 48.0584C92.6344 48.0584 92.469 48.0413 92.306 48.0073C92.1431 47.9757 91.9862 47.9295 91.8354 47.8687C91.687 47.8079 91.5472 47.7349 91.4159 47.6498C91.2845 47.5646 91.1678 47.4698 91.0656 47.3652L91.3538 46.8946C91.3782 46.8605 91.4098 46.8326 91.4487 46.8107C91.4876 46.7863 91.5289 46.7742 91.5727 46.7742C91.6335 46.7742 91.6992 46.7997 91.7697 46.8508C91.8403 46.8994 91.9242 46.9542 92.0215 47.015C92.1188 47.0758 92.2318 47.1317 92.3608 47.1828C92.4921 47.2314 92.649 47.2558 92.8314 47.2558C93.1111 47.2558 93.3275 47.1901 93.4808 47.0587C93.634 46.925 93.7106 46.734 93.7106 46.486C93.7106 46.3473 93.6753 46.2342 93.6048 46.1467C93.5367 46.0591 93.4455 45.9862 93.3312 45.9278C93.2169 45.867 93.0868 45.8159 92.9408 45.7746C92.7949 45.7332 92.6465 45.6882 92.4957 45.6396C92.3449 45.5909 92.1966 45.5326 92.0507 45.4645C91.9047 45.3963 91.7746 45.3076 91.6603 45.1981C91.546 45.0887 91.4536 44.9525 91.383 44.7895C91.3149 44.6241 91.2809 44.421 91.2809 44.1803C91.2809 43.9881 91.3186 43.8008 91.394 43.6184C91.4718 43.436 91.5837 43.2743 91.7296 43.1332C91.8755 42.9921 92.0555 42.879 92.2695 42.7939C92.4836 42.7088 92.7292 42.6662 93.0065 42.6662C93.3178 42.6662 93.6048 42.7149 93.8675 42.8122C94.1302 42.9094 94.3539 43.0456 94.5388 43.2208L94.2943 43.6841Z" fill="white"/>
<path d="M97.2909 45.0581H106.093M106.093 45.0581L105.048 44.1875V45.8126L106.093 45.0581Z" stroke="#00B247" stroke-width="0.833891" stroke-linecap="round" stroke-linejoin="round"/>
</svg>
