<?xml version="1.0" encoding="UTF-8"?> <svg xmlns="http://www.w3.org/2000/svg" width="257" height="57" viewBox="0 0 257 57" fill="none"><path fill-rule="evenodd" clip-rule="evenodd" d="M52.6887 51.6593H55.1037C56.5017 51.5943 57.6637 50.4013 57.6637 48.8803C57.6637 47.4743 56.6097 46.2983 55.2847 46.1343H52.6887V51.6593ZM54.6677 53.1963H52.6887V56.0413H50.7827V44.5973H52.3977H52.6887H55.2847C57.5727 44.6953 59.4057 46.5753 59.4057 48.8803C59.4057 50.6463 58.3527 52.1823 56.8277 52.8373C56.8277 52.8373 56.1197 53.1963 54.6677 53.1963Z" fill="#BE1E2D"></path><path fill-rule="evenodd" clip-rule="evenodd" d="M69.9027 52.7061C69.9027 52.7061 69.5757 52.0681 69.4487 51.7741C69.1757 51.0881 68.9037 50.5311 68.7767 50.2041C68.1597 48.8141 67.8327 47.8841 67.8327 47.8841C67.8327 47.8841 67.4337 48.8311 66.8167 50.2041C66.6707 50.5641 66.4347 51.1371 66.1447 51.7741C66.0177 52.0681 65.7087 52.7061 65.7087 52.7061C65.7087 52.7061 65.9627 52.6731 67.8327 52.6731C69.6847 52.6731 69.9027 52.7061 69.9027 52.7061ZM70.5377 54.1931H65.0557C64.6197 55.2071 64.2567 56.0241 64.2567 56.0241H62.2227L67.7967 44.3191L73.4067 56.0241H71.3727C71.3727 56.0241 71.0097 55.2071 70.5377 54.1931Z" fill="#BE1E2D"></path><mask id="mask0_1_70" style="mask-type:luminance" maskUnits="userSpaceOnUse" x="75" y="44" width="18" height="13"><path fill-rule="evenodd" clip-rule="evenodd" d="M75.7151 56.319H92.8531V44.5813H75.7151L75.7151 56.319H75.7151Z" fill="white"></path></mask><g mask="url(#mask0_1_70)"><path fill-rule="evenodd" clip-rule="evenodd" d="M88.0061 56.3193L84.2841 48.7003L80.5631 56.3193L75.7151 44.5813H77.8941L80.0181 49.8773L80.7621 51.9043L81.6881 49.9103L84.2841 44.5813V44.6953V44.5813L86.9171 50.0413L87.7881 51.9373L88.4781 50.0743L90.6741 44.5813H92.8531L88.0061 56.3193Z" fill="#BE1E2D"></path></g><path fill-rule="evenodd" clip-rule="evenodd" d="M96.1982 44.3516L103.205 50.5806L104.731 52.0026L104.713 50.2526V44.6136H106.8V56.1876L99.4482 49.7796L98.1952 48.5706L98.2132 49.9926V55.9756H96.1982V44.3516Z" fill="#BE1E2D"></path><path fill-rule="evenodd" clip-rule="evenodd" d="M126.777 52.4776C126.777 51.3816 126.486 50.5476 124.381 50.5476H121.131V54.5046H125.143C126.196 54.5046 126.777 53.5556 126.777 52.4776ZM121.131 45.8396V49.0436H124.308C125.56 49.0436 126.123 48.1616 126.123 47.3606C126.123 46.6086 125.778 45.8396 124.507 45.8396H121.131ZM128.665 52.4776C128.665 54.4386 127.031 56.0406 125.143 56.0406H119.26V44.5646H124.979C126.668 44.6136 127.975 45.7246 127.975 47.3756C127.975 48.2596 127.249 49.1586 126.559 49.5176C126.486 49.5666 126.359 49.5826 126.359 49.5826C126.359 49.5826 126.486 49.5996 126.595 49.6326C127.648 50.0086 128.665 51.1856 128.665 52.4776Z" fill="#BE1E2D"></path><path fill-rule="evenodd" clip-rule="evenodd" d="M134.278 51.6924H136.674C138.091 51.6104 139.253 50.4014 139.253 48.9134C139.253 47.4744 138.199 46.2974 136.874 46.1504H134.278V51.6924ZM138.399 52.8694L140.941 56.0414H138.508L136.257 53.2134H134.278V56.0414H132.372V44.5964H133.988H134.278H136.874V44.6304C139.162 44.6954 140.995 46.6084 140.995 48.9134C140.995 50.6784 139.943 52.1824 138.399 52.8694Z" fill="#BE1E2D"></path><path fill-rule="evenodd" clip-rule="evenodd" d="M155.285 50.2872C155.285 47.9482 153.325 46.0522 150.91 46.0522C148.495 46.0522 146.553 47.9482 146.553 50.2872C146.553 52.6242 148.495 54.5202 150.91 54.5202C153.325 54.5202 155.285 52.6242 155.285 50.2872ZM157.282 50.2872C157.282 53.5562 154.432 56.2212 150.91 56.2212C147.37 56.2212 144.519 53.5562 144.519 50.2872C144.519 47.0162 147.37 44.3512 150.91 44.3512C154.432 44.3512 157.282 47.0162 157.282 50.2872Z" fill="#BE1E2D"></path><path fill-rule="evenodd" clip-rule="evenodd" d="M165.383 50.5478L170.103 56.0248H167.507L163.694 51.4148L163.404 51.0548L163.277 51.2018L163.023 51.4798V56.0408H161.026L161.007 44.5808H163.023V47.9818V49.1098L163.93 48.0468L167.107 44.5808H169.594L165.437 48.9948L164.693 49.7958L165.383 50.5478Z" fill="#BE1E2D"></path><path fill-rule="evenodd" clip-rule="evenodd" d="M175.298 46.1338V51.0058H180.272V52.5418H175.298V54.5048H181.108V56.0408H173.428V44.5968H181.108V46.1338H175.298Z" fill="#BE1E2D"></path><path fill-rule="evenodd" clip-rule="evenodd" d="M187.048 51.6924H189.444C190.86 51.6104 192.022 50.4014 192.022 48.9134C192.022 47.4744 190.969 46.2974 189.644 46.1504H187.048V51.6924ZM191.169 52.8694L193.711 56.0414H191.277L189.027 53.2134H187.048V56.0414H185.141V44.5964H186.757H187.048H189.644V44.6304C191.931 44.6954 193.765 46.6084 193.765 48.9134C193.765 50.6784 192.712 52.1824 191.169 52.8694Z" fill="#BE1E2D"></path><path fill-rule="evenodd" clip-rule="evenodd" d="M206.349 53.0987C206.258 54.9457 204.061 56.3347 201.465 56.2207C199.323 56.1067 197.616 55.0107 197.108 53.6377L199.323 53.0987C199.668 53.9157 200.394 54.3577 201.574 54.4067C202.917 54.4717 204.061 53.9647 204.098 52.9837C204.188 52.0367 203.136 51.2667 201.774 51.2027C201.719 51.2027 201.683 51.2027 201.628 51.1687C199.105 50.9897 197.398 49.3547 197.489 47.5737C197.616 45.7087 199.595 44.2857 202.173 44.4337C203.953 44.5157 205.405 45.2847 206.149 46.3137L204.188 47.0487C203.789 46.4947 202.99 46.1837 202.064 46.1337C200.757 46.0517 199.504 46.6897 199.468 47.6547C199.413 48.6027 200.521 49.4367 201.864 49.5017C204.461 49.6327 206.476 51.2667 206.349 53.0987Z" fill="#BE1E2D"></path><path d="M45.9074 48.2451H29.4214" stroke="#BE1E2D" stroke-width="0.25" stroke-linecap="round"></path><path d="M45.9074 52.3927H29.4214" stroke="#BE1E2D" stroke-width="0.25" stroke-linecap="round"></path><path d="M45.9072 50.3927H20.9072" stroke="#BE1E2D" stroke-width="0.25" stroke-linecap="round"></path><path d="M210.336 52.3927H226.822" stroke="#BE1E2D" stroke-width="0.25" stroke-linecap="round"></path><path d="M210.336 48.2451H226.822" stroke="#BE1E2D" stroke-width="0.25" stroke-linecap="round"></path><path d="M210.336 50.2451H235.336" stroke="#BE1E2D" stroke-width="0.25" stroke-linecap="round"></path><mask id="mask1_1_70" style="mask-type:luminance" maskUnits="userSpaceOnUse" x="0" y="1" width="257" height="33"><path fill-rule="evenodd" clip-rule="evenodd" d="M256.243 33.5932V1.00024L0.000244141 1.00024V33.5932H256.243Z" fill="white"></path></mask><g mask="url(#mask1_1_70)"><path fill-rule="evenodd" clip-rule="evenodd" d="M114.14 18.0752C114.14 12.9152 110.265 8.71724 105.501 8.71724C100.76 8.71724 96.9032 12.9152 96.9032 18.0752C96.9032 23.2352 100.76 27.4332 105.501 27.4332C110.265 27.4332 114.14 23.2352 114.14 18.0752ZM120.539 18.0752C120.539 26.6322 113.793 33.5932 105.501 33.5932C97.1872 33.5932 90.4232 26.6322 90.4232 18.0752C90.4232 9.51824 97.1872 2.55724 105.501 2.55724C113.793 2.55724 120.539 9.51824 120.539 18.0752ZM138.98 14.7162C138.98 11.8072 137.095 9.29124 134.677 8.95724H130.022V20.5142H134.302C136.852 20.3482 138.98 17.7472 138.98 14.7162ZM139.565 24.7152L144.788 33.1532H137.72L133.433 26.2332H132.868H130.022V33.1532H123.823V3.15724H134.178C134.178 3.15724 134.956 3.18424 135.938 3.35824C136.012 3.37024 136.085 3.38724 136.159 3.40024C136.449 3.45624 136.749 3.52724 137.053 3.61224C137.18 3.64924 137.307 3.68424 137.432 3.72624C137.536 3.76124 137.638 3.79824 137.739 3.83624C141.834 5.37524 144.819 9.71024 144.819 14.7162C144.819 18.9052 142.833 22.6342 139.565 24.7152ZM177.22 27.4332C172.478 27.4332 168.622 23.2352 168.622 18.0752C168.622 12.9152 172.478 8.71724 177.22 8.71724C180.539 8.71724 183.422 10.7582 184.869 13.7402L190.096 10.1012C187.463 5.59124 182.684 2.55724 177.22 2.55724C168.906 2.55724 162.142 9.51824 162.142 18.0752C162.142 26.6322 168.906 33.5932 177.22 33.5932C182.986 33.5932 187.998 30.2212 190.52 25.2942L184.672 22.7852C183.171 25.5602 180.397 27.4332 177.22 27.4332ZM193.924 33.1122H200.483V3.15724H193.924V33.1122ZM58.5012 18.0752C58.5012 13.0132 54.7702 8.88724 50.1322 8.73124V16.0992C51.1182 16.2242 51.8822 17.0552 51.8822 18.0752C51.8822 19.1792 50.9872 20.0752 49.8822 20.0752C48.7782 20.0752 47.8822 19.1792 47.8822 18.0752C47.8822 17.0552 48.6472 16.2242 49.6322 16.0992V8.72924C44.9982 8.86324 41.2642 12.9992 41.2642 18.0752C41.2642 23.2352 45.1212 27.4332 49.8622 27.4332C54.6262 27.4332 58.5012 23.2352 58.5012 18.0752ZM64.9002 18.0752C64.9002 26.6322 58.1542 33.5932 49.8622 33.5932C41.5482 33.5932 34.7842 26.6322 34.7842 18.0752C34.7842 9.51824 41.5482 2.55724 49.8622 2.55724C58.1542 2.55724 64.9002 9.51824 64.9002 18.0752ZM203.983 9.23724H212.341V33.1122H215.62H218.9V9.23724H227.259V3.15724H203.983V9.23724ZM256.243 3.15724H249.099L242.427 14.0222L235.697 3.15724H228.628L239.201 20.2372V33.1122H245.759V22.9672L245.707 20.2392L246.831 18.5162L256.243 3.15724ZM15.6102 16.7502L15.5742 16.7892L0.000244141 1.00024V33.1532H6.55824V17.7562L15.6102 26.1272L24.6612 17.7562V33.1532H31.2202V1.00024L15.6452 16.7892L15.6102 16.7502ZM66.1442 3.15724H89.4212V9.23724H81.0622V33.1122H77.7832H74.5032V9.23724H66.1442V3.15724Z" fill="#231F20"></path></g><path fill-rule="evenodd" clip-rule="evenodd" d="M61.7022 16.0752C60.7912 10.0122 55.8332 5.35723 49.8542 5.35723C43.9022 5.35723 38.9662 10.0132 38.0612 16.0782C38.0492 16.0782 38.0382 16.0752 38.0262 16.0752C36.9212 16.0752 36.0262 16.9712 36.0262 18.0752C36.0262 19.1792 36.9212 20.0752 38.0262 20.0752C39.1312 20.0752 40.0262 19.1792 40.0262 18.0752C40.0262 17.0672 39.2792 16.2422 38.3102 16.1032C39.2022 10.1642 44.0312 5.60723 49.8542 5.60723C55.7042 5.60723 60.5562 10.1622 61.4532 16.0992C60.4672 16.2222 59.7012 17.0542 59.7012 18.0752C59.7012 19.1792 60.5962 20.0752 61.7012 20.0752C62.8052 20.0752 63.7012 19.1792 63.7012 18.0752C63.7012 16.9712 62.8062 16.0762 61.7022 16.0752ZM177.213 30.5432C170.758 30.5432 165.507 24.9502 165.507 18.0752C165.507 11.2002 170.758 5.60723 177.213 5.60723C181.483 5.60723 185.353 8.02423 187.445 11.9462L187.652 11.8032C185.513 7.81323 181.567 5.35723 177.213 5.35723C170.62 5.35723 165.257 11.0622 165.257 18.0752C165.257 25.0882 170.62 30.7932 177.213 30.7932C181.598 30.7932 185.684 28.1862 187.773 24.1152L187.542 24.0162C185.494 27.9962 181.499 30.5432 177.213 30.5432ZM197.078 33.1122H197.328V3.15723H197.078V33.1122ZM203.983 6.32223H215.495V33.1122H215.745V6.32223H227.259V6.07223H203.983V6.32223ZM252.562 3.15723L242.436 19.5162L232.309 3.15723H232.015L242.311 19.7892V33.1122H242.561V19.7892L252.856 3.15723H252.562ZM140.183 20.0082C141.862 17.5402 142.226 14.1212 141.112 11.2972C139.212 6.48423 134.542 6.18323 134.495 6.18123H127.048V23.2782H133.798C137.236 23.2782 139.168 21.5002 140.183 20.0082ZM135.348 23.3822L141.401 33.1532H141.107L135.082 23.4272C134.665 23.4872 134.239 23.5282 133.798 23.5282H127.048V33.1532H126.798V23.5282H123.823V23.2782H126.798V5.93123H134.501C134.556 5.93423 139.387 6.24423 141.344 11.2052C142.489 14.1042 142.114 17.6142 140.39 20.1482C139.194 21.9062 137.434 23.0132 135.348 23.3822ZM117.255 18.0752C117.255 11.2002 111.979 5.60723 105.494 5.60723C99.0392 5.60723 93.7882 11.2002 93.7882 18.0752C93.7882 24.9502 99.0392 30.5432 105.494 30.5432C111.979 30.5432 117.255 24.9502 117.255 18.0752ZM117.505 18.0752C117.505 25.0882 112.117 30.7932 105.494 30.7932C98.9012 30.7932 93.5382 25.0882 93.5382 18.0752C93.5382 11.0622 98.9012 5.35723 105.494 5.35723C112.117 5.35723 117.505 11.0622 117.505 18.0752ZM0.000244141 6.17923V6.52623L3.15424 9.58223V33.1532H3.40424V9.82423L15.5232 21.5642L15.6102 21.6482L27.8152 9.82423V33.1532H28.0652V9.58223L31.2202 6.52623V6.17823L15.6102 21.3012L0.000244141 6.17923ZM49.8542 30.5432C44.1922 30.5432 39.4572 26.2372 38.3802 20.5392C38.2992 20.5512 38.2162 20.5602 38.1322 20.5642C39.2232 26.3882 44.0632 30.7932 49.8542 30.7932C55.6722 30.7932 60.5332 26.3902 61.6312 20.5672C61.5462 20.5652 61.4652 20.5542 61.3822 20.5432C60.2992 26.2392 55.5432 30.5432 49.8542 30.5432ZM66.1442 6.07223H89.4212V6.32223H77.9082V33.1122H77.6582V6.32223H66.1442V6.07223Z" fill="white"></path></svg> 