<?xml version="1.0" encoding="UTF-8"?> <svg xmlns="http://www.w3.org/2000/svg" width="105" height="50" viewBox="0 0 105 50" fill="none"><g clip-path="url(#clip0_107_85)"><path d="M36.0321 0.792801V4.33204L29.7269 14.072L24.0182 22.8776H18.3379L16.0373 19.5083L20.042 13.9021L22.9389 9.85324L29.4145 0.792801H36.0321Z" fill="url(#paint0_linear_107_85)"></path><path d="M24.0182 22.8776H18.3379L8.11328 7.89957V32.8441H1.77971V0H8.3973L24.0182 22.8776Z" fill="url(#paint1_linear_107_85)"></path><path d="M36.032 0.792801V32.8441H29.7269V8.40924L22.882 17.8661L22.4844 17.3281L20.0419 13.9021L10.7545 0.792801H16.4633L22.9389 9.85324L29.4144 0.792801H36.032Z" fill="url(#paint2_linear_107_85)"></path></g><path d="M73.7976 0.457108L61.3481 32.6443H53.5096L41.5212 0.457108H48.4376C51.1273 9.37282 57.8899 27.2042 57.8899 27.2042L67.3423 0.457108H73.7976Z" fill="url(#paint3_linear_107_85)"></path><path d="M73.7976 0.457108L61.3481 32.6443H54.4318L67.3423 0.457108H73.7976Z" fill="url(#paint4_linear_107_85)"></path><path fill-rule="evenodd" clip-rule="evenodd" d="M96.8792 10.6628C96.8792 12.9752 95.0526 14.8498 92.7995 14.8498H89.4847V8.56933H83.6202V32.6443H89.4847V20.8685H92.7995C98.2915 20.8685 102.744 16.2993 102.744 10.6628C102.744 5.02636 98.2915 0.457108 92.7995 0.457108H87.9548H79.0305V6.47586H92.7995C94.4125 6.47586 95.8069 7.43664 96.469 8.83102C96.7318 9.38432 96.8792 10.0059 96.8792 10.6628Z" fill="url(#paint5_linear_107_85)"></path><path d="M79.0305 6.47586H92.7995C94.4125 6.47586 95.8069 7.43664 96.469 8.83102C96.1409 2.44591 90.6562 0.58795 87.9548 0.457108H79.0305V6.47586Z" fill="url(#paint6_linear_107_85)"></path><path d="M3.17741 44.0212H2.5609V47.2104H0.841777V38.9112H3.4501C4.42229 38.9112 5.12575 39.1207 5.56047 39.5396C5.99519 39.9506 6.21255 40.5908 6.21255 41.4603C6.21255 42.3218 5.94382 42.966 5.40634 43.3928C4.87677 43.8117 4.1338 44.0212 3.17741 44.0212ZM3.047 40.2628H2.5609V42.6696H2.7506C3.3513 42.6696 3.78997 42.5787 4.06661 42.3969C4.35116 42.2151 4.49343 41.9108 4.49343 41.484C4.49343 41.0493 4.37882 40.7371 4.1496 40.5474C3.92039 40.3577 3.55285 40.2628 3.047 40.2628ZM13.1485 47.2104H8.20455V38.9112H13.1485V40.2747H9.92367V42.0175H12.8521V43.4047H9.92367V45.847H13.1485V47.2104ZM17.4403 43.6062H17.298V47.1986H15.5789V38.8994H18.2109C19.1041 38.8994 19.772 39.097 20.2146 39.4922C20.6572 39.8795 20.8785 40.4367 20.8785 41.1639C20.8785 41.6065 20.7244 42.0135 20.4161 42.385C20.1079 42.7486 19.7325 42.9581 19.2898 43.0134C19.606 43.1003 19.851 43.2466 20.0249 43.4521C20.1988 43.6497 20.3806 43.9737 20.5703 44.4243L21.744 47.1986H19.9775L18.8274 44.5428C18.6615 44.1634 18.4836 43.9145 18.2939 43.7959C18.1121 43.6694 17.8276 43.6062 17.4403 43.6062ZM18.1635 40.251H17.298V42.2546H18.0449C18.3611 42.2546 18.6061 42.1519 18.78 41.9464C18.9618 41.7409 19.0527 41.4879 19.0527 41.1876C19.0527 40.5632 18.7563 40.251 18.1635 40.251ZM28.3186 39.2076L28.0341 40.5948L27.299 40.3932C26.7774 40.2747 26.3229 40.2154 25.9356 40.2154C25.3981 40.2154 25.1294 40.4723 25.1294 40.986C25.1294 41.1836 25.2203 41.3654 25.4021 41.5314C25.5918 41.6895 25.8289 41.8239 26.1134 41.9345C26.398 42.0373 26.7023 42.1677 27.0263 42.3258C27.3504 42.4838 27.6547 42.6538 27.9393 42.8356C28.2238 43.0174 28.457 43.2663 28.6388 43.5825C28.8285 43.8987 28.9233 44.2622 28.9233 44.6732C28.9233 45.4874 28.6585 46.1276 28.1289 46.5939C27.6073 47.0524 26.8683 47.2816 25.9119 47.2816C25.4218 47.2816 24.9318 47.2183 24.4417 47.0919C23.9596 46.9575 23.5604 46.8034 23.2443 46.6295L23.7541 45.3609C24.4812 45.6929 25.2005 45.8588 25.9119 45.8588C26.315 45.8588 26.6311 45.768 26.8604 45.5862C27.0896 45.3965 27.2042 45.1554 27.2042 44.8629C27.2042 44.5705 27.0738 44.3294 26.8129 44.1397C26.5521 43.9421 26.2359 43.7682 25.8644 43.6181C25.493 43.46 25.1215 43.2861 24.75 43.0964C24.3785 42.8988 24.0623 42.6261 23.8015 42.2783C23.5407 41.9227 23.4103 41.5037 23.4103 41.0216C23.4103 40.3023 23.6355 39.753 24.086 39.3736C24.5366 38.9863 25.1412 38.7927 25.9 38.7927C26.6667 38.7927 27.4729 38.931 28.3186 39.2076ZM34.1374 47.2697C32.9755 47.2697 32.0981 46.8706 31.5053 46.0723C30.9125 45.266 30.6161 44.2425 30.6161 43.0015C30.6161 41.7606 30.9125 40.7489 31.5053 39.9664C32.106 39.1839 32.9834 38.7927 34.1374 38.7927C35.2992 38.7927 36.1805 39.1839 36.7812 39.9664C37.3819 40.7489 37.6823 41.7606 37.6823 43.0015C37.6823 44.7009 37.1646 45.926 36.1292 46.6769C35.5838 47.0721 34.9199 47.2697 34.1374 47.2697ZM34.1611 40.1561C33.7422 40.1561 33.3904 40.3023 33.1059 40.5948C32.6 41.1006 32.3471 41.9029 32.3471 43.0015C32.3471 43.8315 32.5012 44.5231 32.8095 45.0764C33.1177 45.6217 33.5683 45.8944 34.1611 45.8944C34.7618 45.8944 35.2123 45.6178 35.5127 45.0645C35.813 44.5033 35.9632 43.8236 35.9632 43.0253C35.9632 42.2191 35.8011 41.5393 35.4771 40.986C35.1609 40.4327 34.7223 40.1561 34.1611 40.1561ZM46.1527 47.2223H44.3506L41.5407 42.1123V47.2104H39.786V38.9112H41.5407L44.4336 44.2701V38.9112H46.1527V47.2223ZM54.8871 47.2104H53.1799L52.5871 45.1831H50.0855L49.5045 47.2104H47.8565L50.3463 38.9112H52.3737L54.8871 47.2104ZM52.267 43.8196L51.354 40.4051L50.4293 43.8196H52.267ZM61.5159 47.2104H56.5956V38.9112H58.3147V45.847H61.5159V47.2104ZM71.9806 47.2104H67.0604V38.9112H68.7795V45.847H71.9806V47.2104ZM76.6004 47.2697C75.4385 47.2697 74.5612 46.8706 73.9684 46.0723C73.3756 45.266 73.0792 44.2425 73.0792 43.0015C73.0792 41.7606 73.3756 40.7489 73.9684 39.9664C74.5691 39.1839 75.4464 38.7927 76.6004 38.7927C77.7623 38.7927 78.6436 39.1839 79.2443 39.9664C79.845 40.7489 80.1454 41.7606 80.1454 43.0015C80.1454 44.7009 79.6276 45.926 78.5922 46.6769C78.0468 47.0721 77.3829 47.2697 76.6004 47.2697ZM76.6241 40.1561C76.2052 40.1561 75.8535 40.3023 75.5689 40.5948C75.0631 41.1006 74.8101 41.9029 74.8101 43.0015C74.8101 43.8315 74.9643 44.5231 75.2725 45.0764C75.5808 45.6217 76.0313 45.8944 76.6241 45.8944C77.2248 45.8944 77.6753 45.6178 77.9757 45.0645C78.2761 44.5033 78.4262 43.8236 78.4262 43.0253C78.4262 42.2191 78.2642 41.5393 77.9401 40.986C77.624 40.4327 77.1853 40.1561 76.6241 40.1561ZM88.3549 47.2104H86.6476L86.0548 45.1831H83.5532L82.9723 47.2104H81.3243L83.8141 38.9112H85.8414L88.3549 47.2104ZM85.7347 43.8196L84.8218 40.4051L83.897 43.8196H85.7347ZM96.4301 47.2223H94.6279L91.8181 42.1123V47.2104H90.0634V38.9112H91.8181L94.7109 44.2701V38.9112H96.4301V47.2223ZM103.706 39.2076L103.422 40.5948L102.687 40.3932C102.165 40.2747 101.71 40.2154 101.323 40.2154C100.786 40.2154 100.517 40.4723 100.517 40.986C100.517 41.1836 100.608 41.3654 100.79 41.5314C100.979 41.6895 101.216 41.8239 101.501 41.9345C101.786 42.0373 102.09 42.1677 102.414 42.3258C102.738 42.4838 103.042 42.6538 103.327 42.8356C103.611 43.0174 103.845 43.2663 104.026 43.5825C104.216 43.8987 104.311 44.2622 104.311 44.6732C104.311 45.4874 104.046 46.1276 103.517 46.5939C102.995 47.0524 102.256 47.2816 101.299 47.2816C100.809 47.2816 100.319 47.2183 99.8293 47.0919C99.3472 46.9575 98.948 46.8034 98.6318 46.6295L99.1416 45.3609C99.8688 45.6929 100.588 45.8588 101.299 45.8588C101.703 45.8588 102.019 45.768 102.248 45.5862C102.477 45.3965 102.592 45.1554 102.592 44.8629C102.592 44.5705 102.461 44.3294 102.201 44.1397C101.94 43.9421 101.624 43.7682 101.252 43.6181C100.881 43.46 100.509 43.2861 100.138 43.0964C99.7661 42.8988 99.4499 42.6261 99.1891 42.2783C98.9282 41.9227 98.7978 41.5037 98.7978 41.0216C98.7978 40.3023 99.0231 39.753 99.4736 39.3736C99.9241 38.9863 100.529 38.7927 101.288 38.7927C102.054 38.7927 102.86 38.931 103.706 39.2076Z" fill="#00256F"></path><defs><linearGradient id="paint0_linear_107_85" x1="16.0408" y1="11.8322" x2="36.042" y2="11.8322" gradientUnits="userSpaceOnUse"><stop stop-color="#FF6F42"></stop><stop offset="1" stop-color="#FFBF53"></stop></linearGradient><linearGradient id="paint1_linear_107_85" x1="1.77971" y1="16.4185" x2="24.0307" y2="16.4185" gradientUnits="userSpaceOnUse"><stop stop-color="#2B86FF"></stop><stop offset="1" stop-color="#AD59D8"></stop></linearGradient><linearGradient id="paint2_linear_107_85" x1="10.7552" y1="16.8142" x2="36.0419" y2="16.8142" gradientUnits="userSpaceOnUse"><stop stop-color="#2B86FF"></stop><stop offset="1" stop-color="#AD59D8"></stop></linearGradient><linearGradient id="paint3_linear_107_85" x1="41.5212" y1="16.4339" x2="74.277" y2="16.4339" gradientUnits="userSpaceOnUse"><stop stop-color="#2B86FF"></stop><stop offset="1" stop-color="#AD59D8"></stop></linearGradient><linearGradient id="paint4_linear_107_85" x1="54.4352" y1="16.5464" x2="73.8071" y2="16.5464" gradientUnits="userSpaceOnUse"><stop stop-color="#FF6F42"></stop><stop offset="1" stop-color="#FFBF53"></stop></linearGradient><linearGradient id="paint5_linear_107_85" x1="78.2656" y1="20.9994" x2="102.744" y2="20.6267" gradientUnits="userSpaceOnUse"><stop stop-color="#2B86FF"></stop><stop offset="1" stop-color="#AD59D8"></stop></linearGradient><linearGradient id="paint6_linear_107_85" x1="79.0336" y1="4.64294" x2="96.4776" y2="4.64294" gradientUnits="userSpaceOnUse"><stop stop-color="#FF6F42"></stop><stop offset="1" stop-color="#FFBF53"></stop></linearGradient><clipPath id="clip0_107_85"><rect width="34.2524" height="32.8441" fill="white" transform="translate(1.77971)"></rect></clipPath></defs></svg> 