<svg width="164" height="50" viewBox="0 0 164 50" fill="none" xmlns="http://www.w3.org/2000/svg">
<path d="M15.6629 9.35252L7.11952 13.6691V26.9784L15.6629 33.813V9.35252Z" fill="#0C4F9E"/>
<path d="M15.6629 7.91367V4.31655L24.9183 0V33.813L20.6466 37.4101L19.2227 36.6906V10.0719L15.6629 7.91367Z" fill="#0C4F9E"/>
<path d="M28.4781 30.9353V10.7914L33.4618 13.6691V27.3381L28.4781 30.9353Z" fill="#0C4F9E"/>
<path d="M4.98367 23.741V23.0216H0V23.741L20.6466 50L41.2932 23.741V23.0216H35.5976V23.741H39.1574L20.6466 39.5683L2.13586 23.741H4.98367Z" fill="#0C4F9E"/>
<path d="M50.7487 31.4215H54.5911C56.6842 31.4215 57.7308 32.5865 57.7308 34.9165C57.7308 36.1465 57.4318 37.0215 56.8337 37.5415C56.2357 38.0515 55.4034 38.3065 54.3369 38.3065H53.2006V43.5715H50.7487V31.4215ZM54.0827 36.5665C54.611 36.5665 54.9648 36.4415 55.1443 36.1915C55.3237 35.9415 55.4134 35.5015 55.4134 34.8715C55.4134 34.4615 55.3835 34.1415 55.3237 33.9115C55.2639 33.6715 55.1343 33.4865 54.9349 33.3565C54.7456 33.2265 54.4565 33.1615 54.0678 33.1615H53.2006V36.5665H54.0827Z" fill="#092444"/>
<path d="M59.7309 31.4215H65.0086V33.1315H62.1829V36.3565H64.3657V38.0815H62.1829V41.8915H65.0385V43.5715H59.7309V31.4215Z" fill="#092444"/>
<path d="M67.0487 31.4215H70.1885C71.4942 31.4215 72.476 31.6615 73.1338 32.1415C73.7916 32.6215 74.1206 33.4515 74.1206 34.6315C74.1206 35.4215 74.0109 36.0615 73.7916 36.5515C73.5724 37.0315 73.1836 37.3965 72.6255 37.6465L74.3 43.5715H71.7733L70.3978 38.0665H69.5007V43.5715H67.0487V31.4215ZM70.2333 36.5965C70.8114 36.5965 71.2151 36.4565 71.4443 36.1765C71.6836 35.8865 71.8032 35.4365 71.8032 34.8265C71.8032 34.2265 71.6985 33.7865 71.4892 33.5065C71.2799 33.2265 70.9011 33.0865 70.3529 33.0865H69.5007V36.5965H70.2333Z" fill="#092444"/>
<path d="M79.5938 43.7365C78.4775 43.7365 77.6402 43.4315 77.082 42.8215C76.5239 42.2015 76.2199 41.2465 76.17 39.9565L78.2931 39.5965C78.313 40.3665 78.4177 40.9365 78.607 41.3065C78.8064 41.6665 79.1004 41.8465 79.4891 41.8465C79.7782 41.8465 79.9875 41.7565 80.1171 41.5765C80.2467 41.3865 80.3115 41.1465 80.3115 40.8565C80.3115 40.3765 80.2018 39.9715 79.9825 39.6415C79.7732 39.3015 79.4393 38.9315 78.9808 38.5315L77.7249 37.4365C77.2266 37.0165 76.8428 36.5665 76.5737 36.0865C76.3146 35.6065 76.185 35.0315 76.185 34.3615C76.185 33.3715 76.474 32.6115 77.0521 32.0815C77.6402 31.5415 78.4476 31.2715 79.4742 31.2715C80.5706 31.2715 81.3331 31.5915 81.7617 32.2315C82.1903 32.8615 82.4345 33.6665 82.4943 34.6465L80.3563 34.9615C80.3364 34.3215 80.2616 33.8515 80.132 33.5515C80.0124 33.2415 79.7682 33.0865 79.3994 33.0865C79.1303 33.0865 78.921 33.1915 78.7715 33.4015C78.622 33.6015 78.5472 33.8415 78.5472 34.1215C78.5472 34.5215 78.632 34.8615 78.8014 35.1415C78.9808 35.4115 79.2599 35.7115 79.6387 36.0415L80.8646 37.1215C81.4427 37.6315 81.8963 38.1715 82.2252 38.7415C82.5541 39.3015 82.7186 39.9615 82.7186 40.7215C82.7186 41.3015 82.589 41.8215 82.3298 42.2815C82.0707 42.7315 81.7019 43.0865 81.2235 43.3465C80.755 43.6065 80.2118 43.7365 79.5938 43.7365Z" fill="#092444"/>
<path d="M88.159 43.7365C86.8732 43.7365 85.9562 43.4015 85.408 42.7315C84.8598 42.0515 84.5857 41.0565 84.5857 39.7465V35.2165C84.5857 33.9065 84.8598 32.9215 85.408 32.2615C85.9562 31.6015 86.8732 31.2715 88.159 31.2715C89.4348 31.2715 90.3468 31.6065 90.895 32.2765C91.4532 32.9365 91.7323 33.9165 91.7323 35.2165V39.7615C91.7323 41.0615 91.4532 42.0515 90.895 42.7315C90.3468 43.4015 89.4348 43.7365 88.159 43.7365ZM88.159 41.9665C88.5776 41.9665 88.8567 41.8265 88.9962 41.5465C89.1457 41.2565 89.2205 40.8615 89.2205 40.3615V34.6165C89.2205 34.1165 89.1457 33.7315 88.9962 33.4615C88.8567 33.1815 88.5776 33.0415 88.159 33.0415C87.7403 33.0415 87.4563 33.1815 87.3068 33.4615C87.1672 33.7315 87.0974 34.1165 87.0974 34.6165V40.3615C87.0974 40.8715 87.1672 41.2665 87.3068 41.5465C87.4463 41.8265 87.7304 41.9665 88.159 41.9665Z" fill="#092444"/>
<path d="M94.127 31.4215H95.8464L98.5375 37.7365V31.4215H100.586V43.5715H98.9263L96.2351 36.8515V43.5715H94.127V31.4215Z" fill="#092444"/>
<path d="M104.902 31.4215H107.638L109.971 43.5715H107.698L107.25 40.9015H105.336L104.872 43.5715H102.555L104.902 31.4215ZM107.01 39.3715L106.278 34.4815L105.56 39.3715H107.01Z" fill="#092444"/>
<path d="M111.946 31.4215H114.397V41.8915H117.253V43.5715H111.946V31.4215Z" fill="#092444"/>
<path d="M123.646 31.4215H126.098V41.8915H128.954V43.5715H123.646V31.4215Z" fill="#092444"/>
<path d="M134.095 43.7365C132.81 43.7365 131.893 43.4015 131.344 42.7315C130.796 42.0515 130.522 41.0565 130.522 39.7465V35.2165C130.522 33.9065 130.796 32.9215 131.344 32.2615C131.893 31.6015 132.81 31.2715 134.095 31.2715C135.371 31.2715 136.283 31.6065 136.831 32.2765C137.39 32.9365 137.669 33.9165 137.669 35.2165V39.7615C137.669 41.0615 137.39 42.0515 136.831 42.7315C136.283 43.4015 135.371 43.7365 134.095 43.7365ZM134.095 41.9665C134.514 41.9665 134.793 41.8265 134.933 41.5465C135.082 41.2565 135.157 40.8615 135.157 40.3615V34.6165C135.157 34.1165 135.082 33.7315 134.933 33.4615C134.793 33.1815 134.514 33.0415 134.095 33.0415C133.677 33.0415 133.393 33.1815 133.243 33.4615C133.104 33.7315 133.034 34.1165 133.034 34.6165V40.3615C133.034 40.8715 133.104 41.2665 133.243 41.5465C133.383 41.8265 133.667 41.9665 134.095 41.9665Z" fill="#092444"/>
<path d="M141.681 31.4215H144.417L146.75 43.5715H144.477L144.029 40.9015H142.115L141.651 43.5715H139.334L141.681 31.4215ZM143.789 39.3715L143.057 34.4815L142.339 39.3715H143.789Z" fill="#092444"/>
<path d="M148.724 31.4215H150.444L153.135 37.7365V31.4215H155.183V43.5715H153.524L150.832 36.8515V43.5715H148.724V31.4215Z" fill="#092444"/>
<path d="M160.875 43.7365C159.759 43.7365 158.922 43.4315 158.363 42.8215C157.805 42.2015 157.501 41.2465 157.451 39.9565L159.575 39.5965C159.594 40.3665 159.699 40.9365 159.888 41.3065C160.088 41.6665 160.382 41.8465 160.771 41.8465C161.06 41.8465 161.269 41.7565 161.399 41.5765C161.528 41.3865 161.593 41.1465 161.593 40.8565C161.593 40.3765 161.483 39.9715 161.264 39.6415C161.055 39.3015 160.721 38.9315 160.262 38.5315L159.006 37.4365C158.508 37.0165 158.124 36.5665 157.855 36.0865C157.596 35.6065 157.466 35.0315 157.466 34.3615C157.466 33.3715 157.755 32.6115 158.334 32.0815C158.922 31.5415 159.729 31.2715 160.756 31.2715C161.852 31.2715 162.615 31.5915 163.043 32.2315C163.472 32.8615 163.716 33.6665 163.776 34.6465L161.638 34.9615C161.618 34.3215 161.543 33.8515 161.413 33.5515C161.294 33.2415 161.05 33.0865 160.681 33.0865C160.412 33.0865 160.202 33.1915 160.053 33.4015C159.903 33.6015 159.829 33.8415 159.829 34.1215C159.829 34.5215 159.913 34.8615 160.083 35.1415C160.262 35.4115 160.541 35.7115 160.92 36.0415L162.146 37.1215C162.724 37.6315 163.178 38.1715 163.507 38.7415C163.836 39.3015 164 39.9615 164 40.7215C164 41.3015 163.87 41.8215 163.611 42.2815C163.352 42.7315 162.983 43.0865 162.505 43.3465C162.036 43.6065 161.493 43.7365 160.875 43.7365Z" fill="#092444"/>
<path d="M65.9339 25V18.9772C65.9339 18.2324 65.9581 17.4714 66.0065 16.6943C66.0711 15.901 66.1356 15.2372 66.2002 14.7029C66.2647 14.1686 66.3051 13.8286 66.3212 13.6829H66.2244L63.1502 25H58.9625L55.8641 13.7072H55.7672C55.7834 13.8529 55.8237 14.1929 55.8883 14.7272C55.969 15.2452 56.0416 15.901 56.1061 16.6943C56.1707 17.4714 56.203 18.2324 56.203 18.9772V25H51.2891V8.29144H58.8415L61.3589 17.9329H61.4557L63.949 8.29144H71.2351V25H65.9339Z" fill="#0C4F9E"/>
<path d="M84.823 25H79.4734V18.5157L72.8651 8.29144H79.0135L82.2087 13.8529H82.3056L85.5008 8.29144H91.3345L84.823 18.5157V25Z" fill="#0C4F9E"/>
<path d="M109.328 8.00001C111.797 8.00001 113.75 8.62334 115.186 9.87001C116.622 11.1005 117.34 12.8652 117.34 15.1643H112.233C112.233 14.1929 111.974 13.4238 111.458 12.8572C110.958 12.2905 110.24 12.0072 109.304 12.0072C108.222 12.0072 107.424 12.3472 106.907 13.0272C106.407 13.7072 106.157 14.6543 106.157 15.8686V17.4229C106.157 18.621 106.407 19.5681 106.907 20.2643C107.424 20.9443 108.206 21.2843 109.255 21.2843C110.288 21.2843 111.071 21.0172 111.603 20.4829C112.136 19.9486 112.402 19.1957 112.402 18.2243H117.34C117.34 20.5072 116.638 22.2557 115.234 23.47C113.846 24.6843 111.878 25.2914 109.328 25.2914C106.488 25.2914 104.333 24.5629 102.865 23.1057C101.412 21.6486 100.686 19.4952 100.686 16.6457C100.686 13.7962 101.412 11.6429 102.865 10.1857C104.333 8.72858 106.488 8.00001 109.328 8.00001Z" fill="#0C4F9E"/>
<path d="M120.471 25V8.29144H125.82V25H120.471Z" fill="#0C4F9E"/>
<path d="M139.223 12.5657V25H133.873V12.5657H128.402V8.29144H144.669V12.5657H139.223Z" fill="#0C4F9E"/>
<path d="M157.442 25H152.093V18.5157L145.484 8.29144H151.633L154.828 13.8529H154.925L158.12 8.29144H163.954L157.442 18.5157V25Z" fill="#0C4F9E"/>
</svg>
