<?xml version="1.0" encoding="UTF-8" standalone="no"?><!DOCTYPE svg PUBLIC "-//W3C//DTD SVG 1.1//EN" "http://www.w3.org/Graphics/SVG/1.1/DTD/svg11.dtd"><svg width="100%" height="100%" viewBox="0 0 567 41" version="1.1" xmlns="http://www.w3.org/2000/svg" xmlns:xlink="http://www.w3.org/1999/xlink" xml:space="preserve" xmlns:serif="http://www.serif.com/" style="fill-rule:evenodd;clip-rule:evenodd;stroke-miterlimit:10;"><g><g><path d="M85.689,6.523c-0.41,0.015 -1.04,0.131 -1.889,0.351c-0.85,0.22 -1.457,0.447 -1.823,0.681c-0.527,0.366 -0.882,1.069 -1.065,2.108c-0.183,1.04 -0.274,2.357 -0.274,3.953l-0,22.818l-1.911,0l-18.886,-25.496l-0,16.075c-0,1.801 0.113,3.185 0.34,4.151c0.227,0.966 0.575,1.654 1.043,2.064c0.336,0.321 1.032,0.622 2.086,0.9c1.054,0.278 1.75,0.425 2.086,0.438l-0,1.56l-12.78,0l-0,-1.56c0.395,-0.029 1.062,-0.172 1.999,-0.428c0.937,-0.256 1.522,-0.486 1.757,-0.692c0.512,-0.409 0.864,-1.035 1.054,-1.877c0.19,-0.842 0.285,-2.28 0.285,-4.315l-0,-15.35c-0,-0.673 -0.117,-1.347 -0.351,-2.021c-0.235,-0.673 -0.55,-1.193 -0.945,-1.559c-0.527,-0.483 -1.241,-0.897 -2.141,-1.241c-0.9,-0.344 -1.629,-0.531 -2.186,-0.56l-0,-1.56l8.903,0l17.516,23.758l-0,-14.82c-0,-1.815 -0.117,-3.209 -0.351,-4.183c-0.234,-0.973 -0.571,-1.621 -1.01,-1.943c-0.41,-0.278 -1.08,-0.549 -2.01,-0.813c-0.93,-0.264 -1.636,-0.41 -2.119,-0.439l-0,-1.56l12.672,0l-0,1.56Z" style="fill:#253571;fill-rule:nonzero;"/><path d="M106.882,31.032c-0.908,1.728 -2.123,3.104 -3.646,4.129c-1.523,1.024 -3.272,1.537 -5.249,1.537c-1.742,0 -3.269,-0.308 -4.579,-0.923c-1.311,-0.614 -2.391,-1.449 -3.239,-2.503c-0.85,-1.055 -1.482,-2.284 -1.9,-3.69c-0.417,-1.405 -0.626,-2.891 -0.626,-4.458c0,-1.405 0.223,-2.785 0.67,-4.139c0.446,-1.354 1.102,-2.573 1.965,-3.657c0.835,-1.04 1.871,-1.877 3.108,-2.515c1.237,-0.637 2.624,-0.955 4.162,-0.955c1.581,0 2.935,0.249 4.063,0.747c1.127,0.498 2.042,1.179 2.745,2.042c0.673,0.82 1.175,1.786 1.504,2.899c0.33,1.113 0.494,2.321 0.494,3.624l0,1.449l-14.34,0c0,1.424 0.135,2.715 0.406,3.874c0.271,1.159 0.699,2.179 1.285,3.06c0.571,0.852 1.317,1.522 2.24,2.014c0.922,0.492 2.021,0.737 3.294,0.737c1.303,0 2.427,-0.305 3.371,-0.916c0.944,-0.61 1.855,-1.711 2.734,-3.3l1.538,0.944Zm-4.854,-8.258c0,-0.817 -0.07,-1.692 -0.208,-2.627c-0.14,-0.934 -0.362,-1.715 -0.67,-2.343c-0.337,-0.671 -0.798,-1.219 -1.384,-1.642c-0.586,-0.423 -1.339,-0.635 -2.262,-0.635c-1.538,0 -2.815,0.639 -3.833,1.916c-1.018,1.277 -1.57,3.054 -1.658,5.331l10.015,0Z" style="fill:#253571;fill-rule:nonzero;"/><path d="M141.646,15.879c-0.615,0.059 -1.278,0.315 -1.988,0.769c-0.71,0.454 -1.226,1.135 -1.548,2.042c-0.732,2.152 -1.424,4.191 -2.076,6.116c-0.651,1.926 -1.38,4.089 -2.185,6.49c-0.264,0.761 -0.531,1.581 -0.801,2.459c-0.271,0.879 -0.516,1.721 -0.736,2.525l-1.874,0l-5.841,-15.96l-5.853,15.96l-1.806,0c-1.098,-3.25 -2.17,-6.475 -3.217,-9.674c-1.047,-3.198 -1.973,-5.984 -2.778,-8.356c-0.234,-0.688 -0.681,-1.23 -1.34,-1.625c-0.659,-0.396 -1.296,-0.629 -1.911,-0.703l-0,-1.45l9.658,0l-0,1.537c-0.483,0.015 -1.007,0.096 -1.57,0.242c-0.564,0.146 -0.845,0.388 -0.845,0.725c-0,0.059 0.025,0.184 0.077,0.374c0.051,0.19 0.113,0.396 0.187,0.615c0.468,1.535 0.999,3.248 1.591,5.141c0.593,1.892 1.357,4.351 2.293,7.375l5.522,-15.568l2.127,0l5.642,15.351c0.63,-1.958 1.256,-3.854 1.879,-5.688c0.623,-1.834 1.169,-3.555 1.638,-5.162c0.103,-0.38 0.202,-0.727 0.297,-1.042c0.095,-0.314 0.143,-0.625 0.143,-0.933c-0,-0.264 -0.118,-0.498 -0.352,-0.703c-0.234,-0.205 -0.52,-0.374 -0.856,-0.505c-0.293,-0.117 -0.611,-0.205 -0.955,-0.263c-0.344,-0.059 -0.597,-0.088 -0.758,-0.088l-0,-1.406l8.233,0l-0,1.405l0.003,-0Z" style="fill:#253571;fill-rule:nonzero;"/><path d="M180.671,6.523c-0.249,0.015 -0.645,0.113 -1.186,0.296c-0.541,0.183 -0.93,0.362 -1.164,0.538c-0.571,0.351 -0.959,0.623 -1.164,0.813c-0.205,0.19 -0.601,0.688 -1.186,1.493c-1.142,1.611 -2.196,3.243 -3.162,4.897c-0.966,1.655 -2.174,3.755 -3.624,6.303c-0.542,0.937 -0.9,1.691 -1.076,2.262c-0.176,0.571 -0.264,1.398 -0.264,2.481l0,5.951c0,0.527 0.106,0.985 0.318,1.373c0.212,0.388 0.574,0.699 1.087,0.934c0.308,0.117 0.856,0.26 1.647,0.428c0.791,0.169 1.427,0.261 1.911,0.274l0,1.56l-14.583,0l0,-1.56c0.41,-0.029 1.025,-0.084 1.845,-0.164c0.82,-0.081 1.391,-0.187 1.713,-0.318c0.527,-0.22 0.89,-0.52 1.087,-0.9c0.197,-0.381 0.296,-0.85 0.296,-1.406l0,-7.576c0,-0.234 -0.143,-0.662 -0.428,-1.285c-0.286,-0.622 -0.626,-1.313 -1.021,-2.075c-0.878,-1.698 -1.852,-3.536 -2.92,-5.512c-1.069,-1.977 -1.999,-3.667 -2.789,-5.073c-0.483,-0.834 -0.912,-1.464 -1.285,-1.889c-0.373,-0.425 -0.801,-0.798 -1.285,-1.12c-0.351,-0.22 -0.772,-0.388 -1.263,-0.505c-0.49,-0.117 -0.933,-0.19 -1.329,-0.219l0,-1.56l13.299,0l0,1.56c-1.493,0.029 -2.548,0.131 -3.163,0.306c-0.615,0.175 -0.922,0.423 -0.922,0.744c0,0.088 0.044,0.241 0.132,0.459c0.088,0.219 0.212,0.497 0.373,0.833c0.189,0.38 0.416,0.816 0.679,1.306c0.263,0.49 0.511,0.962 0.746,1.416c0.686,1.303 1.388,2.602 2.104,3.897c0.716,1.295 1.65,2.982 2.804,5.061c2.297,-3.703 4.049,-6.589 5.256,-8.66c1.208,-2.07 1.811,-3.311 1.811,-3.719c0,-0.336 -0.125,-0.607 -0.374,-0.812c-0.249,-0.205 -0.579,-0.365 -0.988,-0.482c-0.425,-0.117 -0.886,-0.193 -1.383,-0.23c-0.498,-0.036 -0.959,-0.077 -1.384,-0.121l0,-1.56l10.834,0l0,1.561l0.001,0Z" style="fill:#253571;fill-rule:nonzero;"/><path d="M202.193,25.08c0,1.523 -0.242,3.021 -0.726,4.491c-0.484,1.472 -1.172,2.72 -2.066,3.745c-1.012,1.171 -2.184,2.042 -3.518,2.613c-1.334,0.57 -2.829,0.856 -4.485,0.856c-1.378,-0 -2.689,-0.261 -3.935,-0.78c-1.246,-0.519 -2.353,-1.277 -3.32,-2.272c-0.953,-0.98 -1.711,-2.178 -2.275,-3.591c-0.564,-1.413 -0.846,-2.998 -0.846,-4.755c0,-3.382 0.986,-6.149 2.957,-8.301c1.971,-2.152 4.554,-3.228 7.749,-3.228c3.034,-0 5.537,1.021 7.508,3.063c1.971,2.042 2.957,4.763 2.957,8.159Zm-4.546,0.044c0,-1.098 -0.11,-2.258 -0.33,-3.48c-0.22,-1.222 -0.55,-2.258 -0.99,-3.107c-0.469,-0.908 -1.085,-1.636 -1.848,-2.185c-0.763,-0.549 -1.694,-0.824 -2.794,-0.824c-1.129,-0 -2.094,0.278 -2.893,0.834c-0.8,0.557 -1.449,1.318 -1.947,2.284c-0.469,0.893 -0.799,1.911 -0.99,3.052c-0.191,1.143 -0.286,2.248 -0.286,3.316c0,1.405 0.114,2.705 0.341,3.898c0.227,1.193 0.59,2.258 1.089,3.195c0.499,0.937 1.125,1.673 1.881,2.207c0.756,0.534 1.69,0.802 2.805,0.802c1.833,-0 3.286,-0.886 4.356,-2.658c1.071,-1.77 1.606,-4.215 1.606,-7.334Z" style="fill:#253571;fill-rule:nonzero;"/><path d="M221.893,17.262c0,0.747 -0.184,1.409 -0.549,1.988c-0.366,0.578 -0.93,0.867 -1.691,0.867c-0.82,0 -1.446,-0.212 -1.878,-0.637c-0.432,-0.425 -0.647,-0.893 -0.647,-1.406c0,-0.322 0.025,-0.615 0.077,-0.878c0.051,-0.263 0.099,-0.527 0.143,-0.791c-0.688,0 -1.493,0.278 -2.416,0.834c-0.922,0.557 -1.706,1.347 -2.35,2.372l0,12.605c0,0.513 0.099,0.93 0.296,1.252c0.197,0.322 0.508,0.563 0.933,0.725c0.366,0.146 0.838,0.257 1.417,0.329c0.578,0.074 1.08,0.125 1.504,0.154l0,1.449l-11.42,0l0,-1.449c0.337,-0.029 0.685,-0.059 1.043,-0.088c0.358,-0.029 0.669,-0.088 0.933,-0.176c0.41,-0.131 0.714,-0.361 0.912,-0.69c0.198,-0.329 0.296,-0.757 0.296,-1.283l0,-13.357c0,-0.453 -0.106,-0.899 -0.318,-1.338c-0.212,-0.438 -0.509,-0.79 -0.89,-1.053c-0.278,-0.175 -0.607,-0.303 -0.988,-0.383c-0.381,-0.081 -0.791,-0.135 -1.229,-0.165l0,-1.449l7.203,-0.483l0.308,0.308l0,3.053l0.109,-0c0.908,-1.186 1.918,-2.086 3.031,-2.701c1.113,-0.615 2.13,-0.922 3.053,-0.922c0.923,-0 1.672,0.3 2.251,0.9c0.577,0.598 0.867,1.403 0.867,2.413Z" style="fill:#253571;fill-rule:nonzero;"/><path d="M246.688,36.127l-6.535,0c-1.143,-1.652 -2.367,-3.423 -3.672,-5.31c-1.305,-1.887 -2.661,-3.723 -4.067,-5.507l-1.803,1.681l0,5.139c0,0.527 0.095,0.963 0.286,1.307c0.19,0.345 0.498,0.597 0.922,0.758c0.351,0.146 0.688,0.257 1.01,0.329c0.322,0.074 0.695,0.125 1.12,0.154l0,1.449l-10.607,0l0,-1.449c0.334,-0.029 0.683,-0.063 1.047,-0.099c0.363,-0.037 0.669,-0.092 0.916,-0.165c0.407,-0.132 0.712,-0.362 0.916,-0.692c0.204,-0.329 0.305,-0.758 0.305,-1.286l0,-25.186c0,-0.542 -0.113,-1.051 -0.34,-1.527c-0.227,-0.477 -0.523,-0.839 -0.889,-1.088c-0.308,-0.234 -0.787,-0.388 -1.438,-0.461c-0.652,-0.074 -1.175,-0.125 -1.57,-0.154l0,-1.406l8.016,-0.483l0.308,0.33l0,22.909c1.143,-1.141 2.377,-2.366 3.703,-3.676c1.326,-1.31 2.443,-2.477 3.352,-3.501c0.117,-0.132 0.245,-0.305 0.384,-0.518c0.139,-0.212 0.209,-0.385 0.209,-0.517c0,-0.397 -0.319,-0.69 -0.956,-0.881c-0.637,-0.191 -1.248,-0.323 -1.833,-0.396l0,-1.406l9.526,-0l0,1.362c-1.23,0.366 -2.317,0.823 -3.261,1.373c-0.944,0.549 -1.666,1.043 -2.164,1.482c-0.351,0.293 -0.85,0.768 -1.495,1.426c-0.645,0.658 -1.546,1.52 -2.704,2.586c1.201,1.479 2.552,3.253 4.054,5.318c1.502,2.065 2.597,3.56 3.285,4.482c0.644,0.864 1.223,1.428 1.735,1.691c0.512,0.264 1.259,0.425 2.24,0.483l0,1.449Z" style="fill:#253571;fill-rule:nonzero;"/><path d="M283.098,12.65c0,1.625 -0.318,3.063 -0.955,4.315c-0.637,1.252 -1.519,2.288 -2.646,3.107c-1.113,0.82 -2.335,1.421 -3.667,1.801c-1.333,0.381 -2.745,0.571 -4.238,0.571l-3.492,0l0,9.443c0,0.513 0.084,0.963 0.252,1.351c0.168,0.388 0.516,0.685 1.043,0.89c0.264,0.103 0.728,0.197 1.395,0.285c0.666,0.088 1.277,0.14 1.833,0.153l0,1.56l-13.374,0l0,-1.56c0.351,-0.029 0.86,-0.08 1.526,-0.153c0.666,-0.073 1.131,-0.168 1.395,-0.285c0.439,-0.19 0.757,-0.469 0.955,-0.835c0.198,-0.366 0.296,-0.835 0.296,-1.405l0,-22.488c0,-0.513 -0.073,-0.974 -0.22,-1.384c-0.146,-0.41 -0.49,-0.717 -1.032,-0.922c-0.557,-0.19 -1.109,-0.326 -1.658,-0.406c-0.549,-0.08 -1.021,-0.135 -1.417,-0.165l0,-1.56l14.231,0c2.899,0 5.252,0.7 7.061,2.098c1.808,1.398 2.712,3.262 2.712,5.589Zm-6.676,5.315c0.498,-0.703 0.827,-1.431 0.988,-2.185c0.161,-0.754 0.242,-1.431 0.242,-2.031c0,-0.834 -0.099,-1.684 -0.296,-2.547c-0.197,-0.863 -0.538,-1.618 -1.021,-2.262c-0.512,-0.688 -1.186,-1.222 -2.02,-1.603c-0.835,-0.381 -1.875,-0.571 -3.119,-0.571l-3.097,0l0,13.77l2.24,0c1.581,0 2.866,-0.245 3.854,-0.736c0.988,-0.491 1.731,-1.103 2.229,-1.835Z" style="fill:#253571;fill-rule:nonzero;"/><path d="M302.688,17.262c0,0.747 -0.184,1.409 -0.549,1.988c-0.366,0.578 -0.931,0.867 -1.691,0.867c-0.82,0 -1.446,-0.212 -1.878,-0.637c-0.432,-0.425 -0.647,-0.893 -0.647,-1.406c0,-0.322 0.025,-0.615 0.077,-0.878c0.051,-0.263 0.099,-0.527 0.143,-0.791c-0.688,0 -1.493,0.278 -2.416,0.834c-0.922,0.557 -1.706,1.347 -2.35,2.372l0,12.605c0,0.513 0.099,0.93 0.296,1.252c0.198,0.322 0.509,0.563 0.934,0.725c0.366,0.146 0.838,0.257 1.417,0.329c0.578,0.074 1.079,0.125 1.504,0.154l0,1.449l-11.42,0l0,-1.449c0.337,-0.029 0.685,-0.059 1.043,-0.088c0.359,-0.029 0.67,-0.088 0.934,-0.176c0.41,-0.131 0.714,-0.361 0.911,-0.69c0.198,-0.329 0.297,-0.757 0.297,-1.283l0,-13.357c0,-0.453 -0.106,-0.899 -0.318,-1.338c-0.213,-0.438 -0.509,-0.79 -0.89,-1.053c-0.278,-0.175 -0.607,-0.303 -0.988,-0.383c-0.381,-0.081 -0.79,-0.135 -1.229,-0.165l0,-1.449l7.203,-0.483l0.308,0.308l0,3.053l0.109,-0c0.908,-1.186 1.918,-2.086 3.031,-2.701c1.112,-0.615 2.13,-0.922 3.052,-0.922c0.923,-0 1.673,0.3 2.252,0.9c0.575,0.598 0.865,1.403 0.865,2.413Z" style="fill:#253571;fill-rule:nonzero;"/><path d="M315.031,36.127l-10.455,0l-0,-1.449c0.337,-0.029 0.685,-0.059 1.043,-0.088c0.359,-0.029 0.67,-0.088 0.934,-0.176c0.41,-0.131 0.714,-0.361 0.911,-0.69c0.198,-0.329 0.297,-0.757 0.297,-1.283l-0,-13.359c-0,-0.468 -0.106,-0.896 -0.318,-1.283c-0.213,-0.388 -0.509,-0.713 -0.89,-0.976c-0.278,-0.175 -0.681,-0.325 -1.208,-0.449c-0.526,-0.125 -1.01,-0.201 -1.449,-0.231l-0,-1.449l7.643,-0.483l0.308,0.308l-0,17.657c-0,0.513 0.098,0.938 0.294,1.273c0.196,0.337 0.505,0.586 0.927,0.747c0.32,0.132 0.633,0.238 0.938,0.318c0.305,0.081 0.646,0.136 1.025,0.165l-0,1.448Zm-2.746,-30.46c0,0.834 -0.275,1.563 -0.824,2.185c-0.549,0.623 -1.227,0.933 -2.031,0.933c-0.747,0 -1.395,-0.296 -1.943,-0.889c-0.549,-0.593 -0.823,-1.27 -0.823,-2.032c0,-0.805 0.274,-1.508 0.823,-2.108c0.549,-0.601 1.196,-0.9 1.943,-0.9c0.835,0 1.519,0.282 2.054,0.845c0.534,0.564 0.801,1.219 0.801,1.966Z" style="fill:#253571;fill-rule:nonzero;"/><path d="M339.1,15.813c-0.659,0.117 -1.285,0.355 -1.878,0.713c-0.593,0.359 -1.102,0.992 -1.526,1.9c-0.864,1.962 -1.757,4.008 -2.68,6.138c-0.922,2.13 -1.881,4.367 -2.876,6.709c-0.294,0.674 -0.604,1.472 -0.934,2.394c-0.33,0.923 -0.634,1.809 -0.912,2.657l-1.713,0c-1.391,-3.44 -2.672,-6.577 -3.843,-9.41c-1.172,-2.833 -2.387,-5.735 -3.646,-8.708c-0.293,-0.673 -0.766,-1.197 -1.417,-1.57c-0.651,-0.373 -1.307,-0.611 -1.965,-0.713l0,-1.45l10.021,0l0,1.537c-0.439,0.015 -0.989,0.106 -1.647,0.274c-0.659,0.168 -0.988,0.398 -0.988,0.69c0,0.044 0.036,0.158 0.109,0.34c0.073,0.183 0.146,0.392 0.22,0.625c0.599,1.492 1.445,3.576 2.541,6.252c1.095,2.677 1.985,4.834 2.672,6.472c0.526,-1.257 1.188,-2.822 1.987,-4.694c0.798,-1.872 1.658,-3.964 2.581,-6.274c0.146,-0.395 0.285,-0.764 0.417,-1.107c0.132,-0.343 0.198,-0.691 0.198,-1.042c0,-0.249 -0.121,-0.472 -0.363,-0.669c-0.241,-0.197 -0.53,-0.369 -0.867,-0.515c-0.337,-0.146 -0.666,-0.256 -0.988,-0.329c-0.322,-0.073 -0.586,-0.124 -0.79,-0.153l0,-1.406l8.286,0l0,1.339l0.001,0Z" style="fill:#253571;fill-rule:nonzero;"/><path d="M360.556,35.731c-0.688,0.249 -1.292,0.45 -1.812,0.604c-0.52,0.153 -1.109,0.23 -1.768,0.23c-1.143,0 -2.054,-0.268 -2.734,-0.802c-0.68,-0.534 -1.117,-1.313 -1.307,-2.339l-0.132,0c-0.952,1.054 -1.974,1.859 -3.063,2.416c-1.091,0.556 -2.405,0.834 -3.942,0.834c-1.625,0 -2.961,-0.498 -4.008,-1.493c-1.047,-0.995 -1.57,-2.299 -1.57,-3.909c0,-0.834 0.117,-1.581 0.352,-2.24c0.234,-0.658 0.585,-1.252 1.054,-1.778c0.366,-0.439 0.85,-0.831 1.45,-1.175c0.6,-0.344 1.163,-0.619 1.69,-0.824c0.659,-0.248 1.995,-0.71 4.008,-1.383c2.013,-0.674 3.371,-1.201 4.074,-1.582l0,-2.174c0,-0.19 -0.041,-0.556 -0.121,-1.098c-0.08,-0.542 -0.252,-1.054 -0.516,-1.537c-0.293,-0.542 -0.707,-1.014 -1.241,-1.417c-0.534,-0.402 -1.292,-0.604 -2.272,-0.604c-0.674,0 -1.3,0.114 -1.878,0.34c-0.579,0.227 -0.985,0.465 -1.219,0.714c0,0.293 0.069,0.725 0.208,1.296c0.14,0.571 0.209,1.098 0.209,1.581c0,0.513 -0.23,0.981 -0.691,1.405c-0.462,0.425 -1.103,0.638 -1.922,0.638c-0.732,0 -1.271,-0.26 -1.614,-0.78c-0.344,-0.52 -0.517,-1.102 -0.517,-1.746c0,-0.673 0.238,-1.317 0.714,-1.933c0.476,-0.615 1.095,-1.164 1.856,-1.647c0.658,-0.41 1.456,-0.757 2.394,-1.043c0.937,-0.286 1.852,-0.428 2.745,-0.428c1.229,0 2.302,0.084 3.217,0.252c0.915,0.168 1.746,0.531 2.493,1.087c0.746,0.542 1.313,1.278 1.702,2.208c0.388,0.93 0.582,2.126 0.582,3.59c0,2.094 -0.022,3.95 -0.066,5.567c-0.044,1.618 -0.065,3.386 -0.065,5.304c0,0.571 0.099,1.025 0.296,1.362c0.198,0.337 0.502,0.622 0.912,0.856c0.219,0.132 0.566,0.205 1.043,0.219c0.476,0.016 0.962,0.022 1.46,0.022l0,1.407l-0.001,0Zm-7.664,-11.595c-1.245,0.367 -2.336,0.727 -3.272,1.079c-0.938,0.352 -1.809,0.792 -2.613,1.32c-0.732,0.499 -1.311,1.09 -1.735,1.771c-0.425,0.683 -0.637,1.493 -0.637,2.433c-0,1.218 0.318,2.112 0.955,2.685c0.638,0.572 1.446,0.858 2.427,0.858c1.04,0 1.955,-0.253 2.745,-0.76c0.791,-0.506 1.457,-1.104 1.999,-1.793l0.131,-7.593Z" style="fill:#253571;fill-rule:nonzero;"/><path d="M376.083,35.183c-0.952,0.396 -1.853,0.729 -2.702,0.999c-0.849,0.271 -1.889,0.406 -3.118,0.406c-1.815,0 -3.093,-0.457 -3.832,-1.372c-0.739,-0.915 -1.109,-2.207 -1.109,-3.876l0,-14.67l-3.909,0l0,-2.108l3.997,0l0,-6.743l3.997,-0l0,6.742l6.215,0l0,2.108l-6.171,0l0,12.1c0,0.908 0.033,1.666 0.099,2.273c0.066,0.607 0.224,1.139 0.473,1.592c0.233,0.425 0.585,0.747 1.054,0.967c0.469,0.22 1.099,0.329 1.889,0.329c0.366,0 0.904,-0.033 1.614,-0.099c0.71,-0.066 1.211,-0.15 1.505,-0.253l0,1.605l-0.002,0Z" style="fill:#253571;fill-rule:nonzero;"/><path d="M397.473,31.032c-0.908,1.728 -2.123,3.104 -3.646,4.129c-1.523,1.024 -3.272,1.537 -5.249,1.537c-1.742,0 -3.269,-0.308 -4.579,-0.923c-1.311,-0.614 -2.39,-1.449 -3.239,-2.503c-0.849,-1.055 -1.482,-2.284 -1.899,-3.69c-0.417,-1.405 -0.626,-2.891 -0.626,-4.458c0,-1.405 0.224,-2.785 0.67,-4.139c0.446,-1.354 1.102,-2.573 1.966,-3.657c0.834,-1.04 1.87,-1.877 3.107,-2.515c1.237,-0.637 2.624,-0.955 4.161,-0.955c1.582,0 2.936,0.249 4.063,0.747c1.127,0.498 2.042,1.179 2.745,2.042c0.673,0.82 1.175,1.786 1.504,2.899c0.329,1.113 0.494,2.321 0.494,3.624l0,1.449l-14.341,0c0,1.424 0.136,2.715 0.406,3.874c0.271,1.159 0.699,2.179 1.285,3.06c0.571,0.852 1.317,1.522 2.24,2.014c0.922,0.492 2.021,0.737 3.294,0.737c1.303,0 2.427,-0.305 3.371,-0.916c0.944,-0.61 1.855,-1.711 2.734,-3.3l1.539,0.944Zm-4.854,-8.258c-0,-0.817 -0.069,-1.692 -0.209,-2.627c-0.139,-0.934 -0.362,-1.715 -0.67,-2.343c-0.337,-0.671 -0.798,-1.219 -1.383,-1.642c-0.586,-0.423 -1.34,-0.635 -2.263,-0.635c-1.537,0 -2.814,0.639 -3.832,1.916c-1.018,1.277 -1.57,3.054 -1.658,5.331l10.015,0Z" style="fill:#253571;fill-rule:nonzero;"/><path d="M435.575,12.76l-1.647,0c-0.308,-1.156 -0.948,-2.394 -1.922,-3.711c-0.974,-1.317 -1.907,-2.042 -2.8,-2.174c-0.454,-0.058 -0.992,-0.102 -1.614,-0.132c-0.622,-0.029 -1.329,-0.044 -2.119,-0.044l-5.227,0l0,12.518l3.588,0c1.086,0 1.93,-0.113 2.531,-0.34c0.603,-0.227 1.116,-0.574 1.542,-1.043c0.293,-0.322 0.561,-0.824 0.803,-1.504c0.243,-0.681 0.4,-1.409 0.474,-2.186l1.647,0l0,12.255l-1.647,0c-0.044,-0.645 -0.194,-1.376 -0.451,-2.196c-0.257,-0.82 -0.532,-1.413 -0.825,-1.779c-0.44,-0.541 -0.994,-0.911 -1.662,-1.108c-0.668,-0.197 -1.472,-0.297 -2.411,-0.297l-3.588,0l0,10.722c0,0.482 0.095,0.914 0.285,1.294c0.19,0.38 0.527,0.687 1.01,0.921c0.22,0.102 0.695,0.227 1.428,0.372c0.732,0.146 1.288,0.228 1.669,0.241l0,1.56l-13.506,0l0,-1.56c0.439,-0.029 1.024,-0.076 1.757,-0.143c0.732,-0.065 1.208,-0.149 1.428,-0.252c0.439,-0.19 0.758,-0.473 0.955,-0.846c0.197,-0.374 0.297,-0.824 0.297,-1.351l0,-22.489c0,-0.483 -0.081,-0.911 -0.242,-1.285c-0.161,-0.373 -0.498,-0.677 -1.01,-0.911c-0.396,-0.19 -0.927,-0.359 -1.593,-0.505c-0.666,-0.146 -1.196,-0.234 -1.592,-0.263l0,-1.56l24.442,0l0,7.796Z" style="fill:#253571;fill-rule:nonzero;"/><path d="M448.27,36.127l-10.455,0l0,-1.449c0.337,-0.029 0.685,-0.059 1.043,-0.088c0.359,-0.029 0.67,-0.088 0.934,-0.176c0.41,-0.131 0.714,-0.361 0.911,-0.69c0.198,-0.329 0.297,-0.757 0.297,-1.283l0,-13.359c0,-0.468 -0.106,-0.896 -0.318,-1.283c-0.213,-0.388 -0.509,-0.713 -0.89,-0.976c-0.278,-0.175 -0.681,-0.325 -1.208,-0.449c-0.526,-0.125 -1.01,-0.201 -1.449,-0.231l0,-1.449l7.643,-0.483l0.308,0.308l0,17.657c0,0.513 0.098,0.938 0.294,1.273c0.196,0.337 0.505,0.586 0.927,0.747c0.32,0.132 0.633,0.238 0.938,0.318c0.305,0.081 0.646,0.136 1.025,0.165l0,1.448Zm-2.747,-30.46c0,0.834 -0.275,1.563 -0.824,2.185c-0.549,0.623 -1.227,0.933 -2.031,0.933c-0.747,0 -1.395,-0.296 -1.943,-0.889c-0.549,-0.593 -0.823,-1.27 -0.823,-2.032c0,-0.805 0.274,-1.508 0.823,-2.108c0.549,-0.601 1.196,-0.9 1.943,-0.9c0.835,0 1.519,0.282 2.054,0.845c0.534,0.564 0.801,1.219 0.801,1.966Z" style="fill:#253571;fill-rule:nonzero;"/><path d="M474.863,36.127l-10.585,0l0,-1.449c0.336,-0.029 0.706,-0.059 1.108,-0.088c0.402,-0.029 0.736,-0.088 0.999,-0.176c0.41,-0.132 0.714,-0.362 0.912,-0.691c0.197,-0.33 0.296,-0.758 0.296,-1.285l0,-11.135c0,-1.537 -0.363,-2.723 -1.09,-3.557c-0.727,-0.834 -1.61,-1.252 -2.652,-1.252c-0.777,-0 -1.489,0.121 -2.136,0.362c-0.646,0.242 -1.218,0.538 -1.716,0.89c-0.485,0.337 -0.87,0.699 -1.156,1.087c-0.286,0.388 -0.495,0.699 -0.627,0.933l0,12.452c0,0.498 0.102,0.908 0.308,1.229c0.204,0.322 0.512,0.571 0.922,0.747c0.308,0.146 0.641,0.257 0.999,0.329c0.359,0.074 0.729,0.125 1.109,0.154l0,1.449l-10.607,0l0,-1.449c0.337,-0.029 0.685,-0.059 1.043,-0.088c0.359,-0.029 0.67,-0.088 0.934,-0.176c0.41,-0.131 0.714,-0.361 0.911,-0.69c0.198,-0.329 0.297,-0.757 0.297,-1.283l0,-13.358c0,-0.497 -0.106,-0.954 -0.318,-1.371c-0.213,-0.417 -0.509,-0.757 -0.89,-1.021c-0.278,-0.175 -0.607,-0.303 -0.988,-0.383c-0.381,-0.081 -0.79,-0.135 -1.229,-0.165l0,-1.449l7.203,-0.483l0.308,0.308l0,3.053l0.109,-0c0.352,-0.352 0.791,-0.772 1.318,-1.263c0.526,-0.491 1.024,-0.89 1.493,-1.197c0.541,-0.351 1.186,-0.644 1.933,-0.878c0.746,-0.234 1.588,-0.351 2.525,-0.351c2.078,-0 3.62,0.648 4.623,1.943c1.002,1.296 1.504,3.02 1.504,5.172l0,11.266c0,0.513 0.088,0.926 0.264,1.241c0.176,0.314 0.476,0.56 0.9,0.735c0.352,0.146 0.655,0.249 0.911,0.308c0.256,0.059 0.611,0.103 1.065,0.132l0,1.448Z" style="fill:#253571;fill-rule:nonzero;"/><path d="M498.032,35.731c-0.688,0.249 -1.292,0.45 -1.812,0.604c-0.52,0.153 -1.109,0.23 -1.768,0.23c-1.143,0 -2.054,-0.268 -2.734,-0.802c-0.68,-0.534 -1.117,-1.313 -1.307,-2.339l-0.132,0c-0.952,1.054 -1.974,1.859 -3.063,2.416c-1.091,0.556 -2.405,0.834 -3.942,0.834c-1.625,0 -2.961,-0.498 -4.008,-1.493c-1.047,-0.995 -1.57,-2.299 -1.57,-3.909c0,-0.834 0.117,-1.581 0.352,-2.24c0.234,-0.658 0.585,-1.252 1.054,-1.778c0.366,-0.439 0.85,-0.831 1.45,-1.175c0.6,-0.344 1.163,-0.619 1.69,-0.824c0.659,-0.248 1.995,-0.71 4.008,-1.383c2.013,-0.674 3.371,-1.201 4.074,-1.582l0,-2.174c0,-0.19 -0.041,-0.556 -0.121,-1.098c-0.08,-0.542 -0.252,-1.054 -0.516,-1.537c-0.293,-0.542 -0.707,-1.014 -1.241,-1.417c-0.534,-0.402 -1.292,-0.604 -2.272,-0.604c-0.674,0 -1.3,0.114 -1.878,0.34c-0.579,0.227 -0.985,0.465 -1.219,0.714c0,0.293 0.069,0.725 0.208,1.296c0.14,0.571 0.209,1.098 0.209,1.581c0,0.513 -0.23,0.981 -0.691,1.405c-0.462,0.425 -1.103,0.638 -1.922,0.638c-0.732,0 -1.271,-0.26 -1.614,-0.78c-0.344,-0.52 -0.517,-1.102 -0.517,-1.746c0,-0.673 0.238,-1.317 0.714,-1.933c0.476,-0.615 1.095,-1.164 1.856,-1.647c0.658,-0.41 1.456,-0.757 2.394,-1.043c0.937,-0.286 1.852,-0.428 2.745,-0.428c1.229,0 2.302,0.084 3.217,0.252c0.915,0.168 1.746,0.531 2.493,1.087c0.746,0.542 1.313,1.278 1.702,2.208c0.388,0.93 0.582,2.126 0.582,3.59c0,2.094 -0.022,3.95 -0.066,5.567c-0.044,1.618 -0.065,3.386 -0.065,5.304c0,0.571 0.099,1.025 0.296,1.362c0.198,0.337 0.502,0.622 0.912,0.856c0.219,0.132 0.566,0.205 1.043,0.219c0.476,0.016 0.962,0.022 1.46,0.022l0,1.407l-0.001,0Zm-7.664,-11.595c-1.245,0.367 -2.336,0.727 -3.272,1.079c-0.938,0.352 -1.809,0.792 -2.613,1.32c-0.732,0.499 -1.311,1.09 -1.735,1.771c-0.425,0.683 -0.637,1.493 -0.637,2.433c-0,1.218 0.318,2.112 0.955,2.685c0.638,0.572 1.446,0.858 2.427,0.858c1.04,0 1.955,-0.253 2.745,-0.76c0.791,-0.506 1.457,-1.104 1.999,-1.793l0.131,-7.593Z" style="fill:#253571;fill-rule:nonzero;"/><path d="M524.101,36.127l-10.585,0l0,-1.449c0.336,-0.029 0.706,-0.059 1.108,-0.088c0.402,-0.029 0.736,-0.088 0.999,-0.176c0.41,-0.132 0.714,-0.362 0.912,-0.691c0.197,-0.33 0.296,-0.758 0.296,-1.285l0,-11.135c0,-1.537 -0.363,-2.723 -1.09,-3.557c-0.727,-0.834 -1.61,-1.252 -2.652,-1.252c-0.777,-0 -1.489,0.121 -2.136,0.362c-0.646,0.242 -1.218,0.538 -1.716,0.89c-0.485,0.337 -0.87,0.699 -1.156,1.087c-0.286,0.388 -0.495,0.699 -0.627,0.933l0,12.452c0,0.498 0.102,0.908 0.308,1.229c0.204,0.322 0.512,0.571 0.922,0.747c0.308,0.146 0.641,0.257 0.999,0.329c0.359,0.074 0.729,0.125 1.109,0.154l0,1.449l-10.607,0l0,-1.449c0.337,-0.029 0.685,-0.059 1.043,-0.088c0.359,-0.029 0.67,-0.088 0.934,-0.176c0.41,-0.131 0.714,-0.361 0.911,-0.69c0.198,-0.329 0.297,-0.757 0.297,-1.283l0,-13.358c0,-0.497 -0.106,-0.954 -0.318,-1.371c-0.213,-0.417 -0.509,-0.757 -0.89,-1.021c-0.278,-0.175 -0.607,-0.303 -0.988,-0.383c-0.381,-0.081 -0.79,-0.135 -1.229,-0.165l0,-1.449l7.203,-0.483l0.308,0.308l0,3.053l0.109,-0c0.352,-0.352 0.791,-0.772 1.318,-1.263c0.526,-0.491 1.024,-0.89 1.493,-1.197c0.541,-0.351 1.186,-0.644 1.933,-0.878c0.746,-0.234 1.588,-0.351 2.525,-0.351c2.078,-0 3.62,0.648 4.623,1.943c1.002,1.296 1.504,3.02 1.504,5.172l0,11.266c0,0.513 0.088,0.926 0.264,1.241c0.176,0.314 0.476,0.56 0.9,0.735c0.352,0.146 0.655,0.249 0.911,0.308c0.256,0.059 0.611,0.103 1.065,0.132l0,1.448Z" style="fill:#253571;fill-rule:nonzero;"/><path d="M536.772,36.698c-3.134,0 -5.586,-1.04 -7.357,-3.119c-1.771,-2.078 -2.657,-4.867 -2.657,-8.367c0,-1.522 0.238,-2.946 0.714,-4.271c0.476,-1.325 1.167,-2.529 2.075,-3.613c0.864,-1.04 1.947,-1.877 3.25,-2.515c1.304,-0.637 2.724,-0.955 4.261,-0.955c2.123,0 3.851,0.509 5.183,1.526c1.332,1.017 1.999,2.405 1.999,4.162c0,0.732 -0.176,1.38 -0.527,1.944c-0.352,0.563 -0.93,0.845 -1.734,0.845c-0.864,0 -1.534,-0.219 -2.01,-0.656c-0.477,-0.438 -0.714,-0.927 -0.714,-1.467c0,-0.657 0.088,-1.332 0.264,-2.025c0.176,-0.693 0.277,-1.2 0.308,-1.521c-0.263,-0.452 -0.654,-0.755 -1.173,-0.908c-0.519,-0.153 -1.077,-0.23 -1.675,-0.23c-0.701,0 -1.369,0.15 -2.005,0.45c-0.636,0.3 -1.252,0.853 -1.851,1.658c-0.541,0.732 -0.979,1.72 -1.314,2.965c-0.336,1.244 -0.504,2.73 -0.504,4.458c0,2.723 0.604,4.945 1.81,6.665c1.205,1.721 2.788,2.58 4.747,2.58c1.418,0 2.605,-0.346 3.563,-1.037c0.958,-0.691 1.846,-1.729 2.665,-3.113l1.403,0.923c-0.967,1.728 -2.24,3.097 -3.821,4.106c-1.581,1.009 -3.216,1.515 -4.9,1.515Z" style="fill:#253571;fill-rule:nonzero;"/><path d="M566.42,31.032c-0.908,1.728 -2.123,3.104 -3.646,4.129c-1.523,1.024 -3.272,1.537 -5.249,1.537c-1.742,0 -3.269,-0.308 -4.579,-0.923c-1.311,-0.614 -2.39,-1.449 -3.239,-2.503c-0.849,-1.055 -1.482,-2.284 -1.899,-3.69c-0.417,-1.405 -0.626,-2.891 -0.626,-4.458c0,-1.405 0.224,-2.785 0.67,-4.139c0.446,-1.354 1.102,-2.573 1.966,-3.657c0.834,-1.04 1.87,-1.877 3.107,-2.515c1.237,-0.637 2.624,-0.955 4.161,-0.955c1.582,0 2.936,0.249 4.063,0.747c1.127,0.498 2.042,1.179 2.745,2.042c0.673,0.82 1.175,1.786 1.504,2.899c0.329,1.113 0.494,2.321 0.494,3.624l0,1.449l-14.341,0c0,1.424 0.136,2.715 0.406,3.874c0.271,1.159 0.699,2.179 1.285,3.06c0.571,0.852 1.317,1.522 2.24,2.014c0.922,0.492 2.021,0.737 3.294,0.737c1.303,0 2.427,-0.305 3.371,-0.916c0.944,-0.61 1.855,-1.711 2.734,-3.3l1.539,0.944Zm-4.854,-8.258c0,-0.817 -0.069,-1.692 -0.209,-2.627c-0.139,-0.934 -0.362,-1.715 -0.67,-2.343c-0.337,-0.671 -0.798,-1.219 -1.383,-1.642c-0.586,-0.423 -1.34,-0.635 -2.263,-0.635c-1.537,0 -2.814,0.639 -3.832,1.916c-1.018,1.277 -1.57,3.054 -1.658,5.331l10.015,0Z" style="fill:#253571;fill-rule:nonzero;"/></g></g><g><g><rect x="23.375" y="11.511" width="4.251" height="4.137" style="fill:#253571;"/><path d="M26.542,18.886l0,17.243" style="fill:none;fill-rule:nonzero;stroke:#5e7eaa;stroke-width:2.54px;"/><path d="M19.854,12.558l-18.375,0" style="fill:none;fill-rule:nonzero;stroke:#5e7eaa;stroke-width:2.54px;"/></g><rect x="15.49" y="18.91" width="4.248" height="4.137" style="fill:#253571;"/><path d="M18.675,26.019l0,10.11" style="fill:none;fill-rule:nonzero;stroke:#a6a8ab;stroke-width:2.54px;"/><path d="M11.849,20.018l-10.37,0" style="fill:none;fill-rule:nonzero;stroke:#a6a8ab;stroke-width:2.54px;"/><rect x="7.601" y="26.019" width="4.248" height="4.139" style="fill:#253571;"/><rect x="31.136" y="4.188" width="4.249" height="4.137" style="fill:#253571;"/><path d="M34.302,11.563l0,24.566" style="fill:none;fill-rule:nonzero;stroke:#1a5ba6;stroke-width:2.54px;"/><path d="M27.614,5.232l-26.176,-0.037" style="fill:none;fill-rule:nonzero;stroke:#1a5ba6;stroke-width:2.54px;"/></g></svg>