<?xml version="1.0" encoding="utf-8"?>
<!-- Generator: Adobe Illustrator 17.1.0, SVG Export Plug-In . SVG Version: 6.00 Build 0)  -->
<!DOCTYPE svg PUBLIC "-//W3C//DTD SVG 1.1//EN" "http://www.w3.org/Graphics/SVG/1.1/DTD/svg11.dtd">
<svg version="1.1" id="Layer_1" xmlns="http://www.w3.org/2000/svg" xmlns:xlink="http://www.w3.org/1999/xlink" x="0px" y="0px"
	 width="157px" height="73.5px" viewBox="26.3 4.5 157 73.5" enable-background="new 26.3 4.5 157 73.5" xml:space="preserve">
<g>
	<g>
		<g>
			<path d="M57,48.6l-0.4,1h-2L54,51.2h2l-0.3,0.9h-2l-1.2,3.2h-0.8l2.5-6.7H57z"/>
			<path d="M63.4,48.6l-2.5,6.7H60l2.5-6.7H63.4z"/>
			<path d="M74.4,48.6l-2.7,7.2l-2.2-5.2l-1.8,4.7h-0.8l2.6-7.1l2.2,5.2l1.8-4.8L74.4,48.6L74.4,48.6z"/>
			<path d="M79.5,53.7l-1.1,1.6h-1l5.2-7.2l0.1,7.2h-0.9l0-1.6L79.5,53.7L79.5,53.7z M80.1,52.8h1.7l0-2.4L80.1,52.8z"/>
			<path d="M95.5,48.6l-2.7,7.2l-2.2-5.2l-1.8,4.7H88l2.6-7.1l2.2,5.2l1.8-4.8L95.5,48.6L95.5,48.6z"/>
			<path d="M105.5,49.3l-0.4,1.1c-0.4-0.6-0.9-0.9-1.6-0.9c-0.6,0-1.2,0.2-1.7,0.7c-0.5,0.5-0.9,1.1-1.1,1.8
				c-0.2,0.7-0.2,1.3,0.1,1.7c0.3,0.4,0.7,0.6,1.4,0.6c0.6,0,1.1-0.2,1.6-0.6l-0.4,1.2c-0.6,0.2-1.1,0.4-1.6,0.4
				c-0.9,0-1.5-0.3-1.8-0.9c-0.3-0.6-0.4-1.4-0.1-2.3c0.3-1,0.8-1.8,1.5-2.5c0.7-0.7,1.5-1,2.4-1C104.4,48.6,105,48.8,105.5,49.3
				C105.5,49.3,105.5,49.3,105.5,49.3z"/>
			<path d="M112.4,48.6l-2.5,6.7H109l2.5-6.7H112.4z"/>
			<path d="M117.4,53.7l-1.1,1.6h-1l5.2-7.2l0.1,7.2h-0.9l0-1.6L117.4,53.7L117.4,53.7z M118.1,52.8h1.7l0-2.4L118.1,52.8z"/>
			<path d="M129.4,48.6l-2.2,5.8h1.7l-0.4,1H126l2.5-6.7H129.4z"/>
		</g>
	</g>
	<path d="M57.8,33.8c-2.9,7.5-10.7,12.9-19.1,12.9c-8.4,0-12-5.4-9-12.9c2.9-7.6,10.8-13,19.1-13C57.1,20.8,60.8,26.2,57.8,33.8
		L57.8,33.8z M37.4,33.8c-1.3,3.3-0.2,6.8,3.7,6.8c3.9,0,7.7-3.5,9-6.8c1.3-3.4,0.3-6.8-3.7-6.8C42.5,26.9,38.7,30.4,37.4,33.8"/>
	<path d="M71.1,23.8h0.1c2.2-1.9,5.2-3,7.7-3c3.3,0,5.5,1.2,6.2,3.8c2.6-2.4,6.2-3.8,9.3-3.8c6.8,0,6.7,4.7,4.6,10l-5.9,15.2h-7.6
		l5-12.8c0.9-2.4,2.8-6.8-1-6.8c-4.1,0-6.1,5.1-7.1,7.6l-4.6,12h-7.6L75,33.6c0.9-2.4,3.1-7.2-0.8-7.2c-4.3,0-6,5.1-7,7.6l-4.6,11.9
		h-7.6l9.5-24.3h7.6L71.1,23.8"/>
	<path d="M112.4,23.8h0.1c2.4-2.2,5.4-3,8.2-3c7.2,0,7.5,4.6,5.3,10.3l-5.8,14.9h-7.6l5-12.9c1.1-2.9,2.8-6.7-1.5-6.7
		c-4.5,0-6.4,4.6-7.5,7.5l-4.7,12h-7.6l9.5-24.3h7.6L112.4,23.8"/>
	<path fill="#507A3D" d="M109.4,7.6c38,1.1,66,15.9,66,34.1c0,18.2-30.8,33-68.7,33c-14.9,0-32.3-2.8-43.5-6.6
		c12.5,5.1,28.6,8.2,46.3,8.2C149,76.3,181,60.9,181,42C181,23,149,7.6,109.4,7.6"/>
	<path d="M131.3,45.9h-7.6l9.5-24.3h7.6L131.3,45.9z M145.4,11.4c-0.9,2.3-3.6,4.1-6.1,4.1c-2.5,0-3.8-1.8-2.9-4.1
		c0.9-2.2,3.6-4.1,6.1-4.1S146.3,9.2,145.4,11.4"/>
	<path d="M175.4,66.6c-0.5,0.5-1.1,0.7-1.8,0.7c-0.7,0-1.3-0.3-1.8-0.7c-0.5-0.5-0.7-1.1-0.7-1.8c0-0.7,0.3-1.3,0.7-1.8
		c0.5-0.5,1.1-0.8,1.8-0.8c0.7,0,1.3,0.3,1.8,0.8c0.5,0.5,0.7,1.1,0.7,1.8C176.1,65.5,175.9,66.1,175.4,66.6L175.4,66.6z
		 M175.6,62.7c-0.6-0.6-1.3-0.9-2.1-0.9c-0.8,0-1.5,0.3-2.1,0.9c-0.6,0.6-0.9,1.3-0.9,2.1c0,0.8,0.3,1.5,0.9,2.1
		c0.6,0.6,1.3,0.9,2.1,0.9c0.8,0,1.5-0.3,2.1-0.9c0.6-0.6,0.9-1.3,0.9-2.1C176.5,64,176.2,63.3,175.6,62.7L175.6,62.7z M174.2,64.9
		c0.2-0.1,0.4-0.2,0.5-0.3c0.1-0.1,0.2-0.3,0.2-0.5c0-0.2,0-0.3-0.1-0.4c-0.1-0.1-0.2-0.2-0.3-0.3c-0.1-0.1-0.3-0.1-0.4-0.1
		c-0.1,0-0.3,0-0.5,0h-1v3.1h0.6v-1.2h0.5l1.1,1.2h0.7L174.2,64.9z M174.2,64.3c0,0.1-0.1,0.1-0.1,0.2c-0.1,0.1-0.1,0.1-0.2,0.1
		c-0.1,0-0.2,0-0.4,0h-0.4v-1h0.5c0.1,0,0.2,0,0.3,0c0.1,0,0.2,0,0.2,0.1c0.1,0,0.1,0.1,0.2,0.2c0,0.1,0.1,0.1,0.1,0.2
		C174.3,64.2,174.3,64.2,174.2,64.3"/>
</g>
</svg>
