<svg width="317" height="85" viewBox="0 0 317 85" fill="none" xmlns="http://www.w3.org/2000/svg">
<path d="M140.84 55.9965L132.624 28.4326H124.977L116.783 55.9122L108.384 28.4326H98.6857L112.791 72.3155H120.437L128.766 44.5689L137.094 72.3155H144.74L158.852 28.4326H149.217L140.84 55.9965Z" fill="#152528"/>
<path d="M185.525 43.7571C183.789 42.8083 181.779 42.3374 179.481 42.3374C177.183 42.3374 175.229 42.8083 173.5 43.7571C172.783 44.1507 172.151 44.6215 171.567 45.1487V28.436H162.318V72.319H171.567V55.5782C171.567 54.5732 171.785 53.6736 172.235 52.8865C172.678 52.0994 173.282 51.4949 174.048 51.0733C174.814 50.6516 175.7 50.4407 176.705 50.4407C178.152 50.4407 179.354 50.9116 180.303 51.8604C181.252 52.8092 181.723 54.0461 181.723 55.5782V72.319H190.972V53.519C190.972 51.3052 190.501 49.3584 189.552 47.6858C188.603 46.0131 187.268 44.7059 185.532 43.7571H185.525Z" fill="#152528"/>
<path d="M218.404 44.1524C216.19 42.9014 213.632 42.2759 210.729 42.2759C207.827 42.2759 205.065 42.9435 202.689 44.2718C200.314 45.6001 198.43 47.4274 197.039 49.7396C195.647 52.0589 194.951 54.6873 194.951 57.6251C194.951 60.5628 195.654 63.2053 197.067 65.5456C198.479 67.886 200.419 69.7062 202.9 71.0134C205.381 72.3206 208.206 72.9742 211.39 72.9742C213.85 72.9742 216.106 72.5526 218.158 71.7022C220.21 70.8518 221.967 69.5867 223.415 67.893L218.341 62.8188C217.455 63.8238 216.429 64.5828 215.255 65.0818C214.089 65.5878 212.774 65.8408 211.327 65.8408C209.752 65.8408 208.396 65.5105 207.243 64.8428C206.098 64.1752 205.205 63.2334 204.587 62.0035C204.383 61.5959 204.221 61.1531 204.081 60.6963L225.101 60.6471C225.263 59.8811 225.376 59.2064 225.432 58.623C225.488 58.0397 225.523 57.4845 225.523 56.9574C225.523 54.097 224.891 51.5599 223.619 49.339C222.346 47.1252 220.604 45.3893 218.39 44.1383L218.404 44.1524ZM204.088 54.357C204.214 53.9353 204.355 53.5348 204.53 53.1623C205.114 51.9535 205.943 51.0187 207.011 50.3511C208.08 49.6834 209.338 49.3531 210.792 49.3531C212.163 49.3531 213.323 49.6483 214.271 50.2316C215.22 50.8149 215.937 51.6653 216.415 52.7687C216.619 53.2326 216.773 53.7597 216.893 54.3219L204.088 54.357Z" fill="#152528"/>
<path d="M250.526 42.9704C249.458 42.5487 248.221 42.3379 246.808 42.3379C243.583 42.3379 241.066 43.2867 239.253 45.1772V42.9423H230.004V72.3194H239.253V56.1831C239.253 54.2925 239.71 52.8729 240.617 51.9241C241.523 50.9753 242.739 50.5044 244.271 50.5044C245.037 50.5044 245.719 50.6239 246.323 50.8699C246.928 51.1088 247.434 51.4532 247.834 51.896L253.337 44.9453C252.529 44.0598 251.594 43.4061 250.526 42.9845V42.9704Z" fill="#152528"/>
<path d="M275.455 44.1524C273.241 42.9014 270.683 42.2759 267.78 42.2759C264.878 42.2759 262.116 42.9435 259.74 44.2718C257.365 45.6001 255.481 47.4274 254.09 49.7396C252.698 52.0589 252.003 54.6873 252.003 57.6251C252.003 60.5628 252.705 63.2053 254.118 65.5456C255.531 67.886 257.47 69.7062 259.951 71.0134C262.432 72.3206 265.257 72.9742 268.441 72.9742C270.901 72.9742 273.157 72.5526 275.209 71.7022C277.261 70.8518 279.018 69.5867 280.466 67.893L275.392 62.8188C274.506 63.8238 273.48 64.5828 272.307 65.0818C271.14 65.5878 269.826 65.8408 268.378 65.8408C266.804 65.8408 265.447 65.5105 264.295 64.8428C263.149 64.1752 262.256 63.2334 261.638 62.0035C261.434 61.5959 261.273 61.1531 261.132 60.6963L282.153 60.6471C282.314 59.8811 282.427 59.2064 282.483 58.623C282.539 58.0397 282.574 57.4845 282.574 56.9574C282.574 54.097 281.942 51.5599 280.67 49.339C279.398 47.1252 277.655 45.3893 275.441 44.1383L275.455 44.1524ZM261.139 54.357C261.265 53.9353 261.406 53.5348 261.582 53.1623C262.165 51.9535 262.994 51.0187 264.063 50.3511C265.131 49.6834 266.389 49.3531 267.844 49.3531C269.214 49.3531 270.374 49.6483 271.323 50.2316C272.271 50.8149 272.988 51.6653 273.466 52.7687C273.67 53.2326 273.825 53.7597 273.944 54.3219L261.139 54.357Z" fill="#152528"/>
<path d="M315.109 49.3428C313.837 47.129 312.094 45.3931 309.88 44.1421C307.667 42.8911 305.108 42.2656 302.206 42.2656C299.303 42.2656 296.541 42.9333 294.166 44.2616C291.79 45.5899 289.907 47.4172 288.515 49.7294C287.124 52.0486 286.428 54.6771 286.428 57.6148C286.428 60.5525 287.131 63.195 288.543 65.5354C289.956 67.8757 291.896 69.696 294.377 71.0032C296.858 72.3104 299.683 72.964 302.867 72.964C305.326 72.964 307.582 72.5423 309.634 71.6919C311.687 70.8415 313.444 69.5765 314.891 67.8827L309.817 62.8085C308.932 63.8135 307.906 64.5725 306.732 65.0715C305.565 65.5775 304.251 65.8306 302.803 65.8306C301.229 65.8306 299.873 65.5002 298.72 64.8326C297.574 64.1649 296.682 63.2232 296.063 61.9933C295.86 61.5856 295.698 61.1429 295.557 60.686L316.578 60.6369C316.74 59.8708 316.852 59.1961 316.908 58.6128C316.965 58.0295 317 57.4742 317 56.9471C317 54.0867 316.367 51.5496 315.095 49.3288L315.109 49.3428ZM298.488 50.3408C299.556 49.6731 300.814 49.3428 302.269 49.3428C303.64 49.3428 304.799 49.638 305.748 50.2213C306.697 50.8047 307.414 51.6551 307.892 52.7584C308.095 53.2223 308.25 53.7494 308.369 54.3116L295.564 54.3468C295.691 53.9251 295.831 53.5245 296.007 53.152C296.59 51.9432 297.42 51.0085 298.488 50.3408Z" fill="#152528"/>
<path d="M22.082 57.0883L26.0599 50.1938C26.081 50.1587 26.102 50.1235 26.1231 50.0884C26.1442 50.0532 26.1653 50.0111 26.1934 49.9689C27.339 47.9378 27.9996 45.5904 27.9996 43.0885C27.9996 40.5865 27.346 38.2602 26.2075 36.2362L26.1231 36.0956L26.0458 35.9621C26.0177 35.9199 25.9966 35.8777 25.9685 35.8356C24.7456 33.8256 23.0378 32.1529 20.9997 30.9722C18.9405 29.7774 16.551 29.0957 13.9998 29.0957C11.4486 29.0957 9.05911 29.7774 6.9999 30.9722C4.87744 32.1951 3.10638 33.9661 1.87648 36.0956C1.87648 36.1026 1.86242 36.1167 1.8554 36.1307C0.681717 38.1829 0 40.5584 0 43.0955C0 45.6326 0.667661 47.9729 1.82728 50.0181C1.84134 50.0392 1.8554 50.0673 1.86945 50.0954V50.1024L5.91056 57.0953L9.95167 64.0882L12.2779 68.1223C13.037 69.4365 14.9416 69.4365 15.7006 68.1223L18.0339 64.0882L22.075 57.0953L22.082 57.0883ZM13.9998 50.0673C10.1344 50.0673 6.9999 46.9328 6.9999 43.0674C6.9999 39.202 10.1344 36.0675 13.9998 36.0675C17.8652 36.0675 20.9997 39.202 20.9997 43.0674C20.9997 46.9328 17.8652 50.0673 13.9998 50.0673Z" fill="#FF7C00"/>
<path d="M80.8478 20.9365C76.7153 18.5399 71.4373 19.9596 69.0478 24.0921L65.8781 29.5809L60.8882 38.2184L55.8983 46.8628L52.3351 53.0334C49.9456 57.1659 51.3653 62.451 55.4977 64.8405C59.6302 67.23 64.9153 65.8103 67.3048 61.6779L70.868 55.5073L75.8579 46.8699L80.8478 38.2254L84.0104 32.7365C86.3929 28.604 84.9803 23.326 80.8478 20.9365Z" fill="#FF7C00"/>
<path d="M60.99 31.4091L65.9799 22.7647L70.9698 14.1273L71.6375 12.9606C74.02 8.82814 72.6073 3.54307 68.4749 1.16058C64.3424 -1.22895 59.0573 0.190709 56.6748 4.32318L56.0072 5.4828L51.2141 13.7759L51.0102 14.1273L50.5745 14.8793L46.0204 22.7647L41.0305 31.4091L36.0406 40.0536L31.0507 48.691L26.0608 57.3355L17.9083 71.4548C15.5258 75.5872 16.9384 80.8723 21.0709 83.2548H21.0779C22.3711 83.9998 23.7697 84.3793 25.1682 84.4144C28.2254 84.4917 31.2334 82.9385 32.878 80.0992L36.0406 74.6244L41.0305 65.9799L41.4381 65.2631C41.6279 64.9468 41.8106 64.6306 41.9933 64.3143L46.0204 57.3355L49.4079 51.4671L51.0102 48.691L56.0001 40.0536L60.99 31.4091Z" fill="#FF7C00"/>
</svg>
