<?xml version="1.0" encoding="UTF-8"?> <svg xmlns="http://www.w3.org/2000/svg" width="175" height="67" viewBox="0 0 175 67" fill="none"><path fill-rule="evenodd" clip-rule="evenodd" d="M49.2645 24.375C49.2645 37.8369 38.2362 48.75 24.6322 48.75C11.0283 48.75 0 37.8369 0 24.375C0 10.9131 11.0283 0 24.6322 0C38.2362 0 49.2645 10.9131 49.2645 24.375ZM41.4269 24.375C41.4269 33.5536 33.9077 40.9943 24.6322 40.9943C15.3568 40.9943 7.83753 33.5536 7.83753 24.375C7.83753 15.1964 15.3568 7.75568 24.6322 7.75568C27.4648 7.75568 30.1335 8.44958 32.4744 9.67496L22.6274 23.1246C22.6274 23.1246 21.093 25.3141 23.3974 26.6281C25.7744 27.9834 26.9342 25.3121 26.9342 25.3121L33.5703 10.3022C38.2906 13.2441 41.4269 18.4471 41.4269 24.375ZM33.5703 10.3022L35.9411 4.93987L32.4744 9.67496C32.8483 9.8707 33.2138 10.08 33.5703 10.3022Z" fill="#0B343D"></path><rect x="37.3225" y="24.7432" width="0.738636" height="2.98572" transform="rotate(-90 37.3225 24.7432)" fill="#0B343D"></rect><rect width="0.740586" height="2.97799" transform="matrix(-0.503045 -0.86426 0.868822 -0.495124 35.8172 18.4264)" fill="#0B343D"></rect><rect width="0.746431" height="2.95412" transform="matrix(-0.999993 0.00381965 -0.00390124 -0.999992 24.9568 11.8179)" fill="#0B343D"></rect><rect width="0.744473" height="2.96244" transform="matrix(-0.867002 0.498305 -0.506242 -0.862391 18.5716 13.3366)" fill="#0B343D"></rect><rect width="0.740586" height="2.97799" transform="matrix(-0.503073 0.864244 -0.868838 -0.495096 13.811 17.808)" fill="#0B343D"></rect><rect width="0.738637" height="2.98572" transform="matrix(0.00780289 0.99997 -0.999971 0.00763856 11.9435 24.1036)" fill="#0B343D"></rect><rect width="0.740636" height="2.97779" transform="matrix(0.50946 0.860495 -0.865187 0.501449 13.4812 30.3784)" fill="#0B343D"></rect><rect width="0.744522" height="2.96224" transform="matrix(0.870631 0.491936 -0.499839 0.866118 18.0063 35.0889)" fill="#0B343D"></rect><rect width="0.74643" height="2.95412" transform="matrix(0.999934 -0.0114584 0.0117031 0.999932 24.4111 36.9322)" fill="#0B343D"></rect><rect width="0.744423" height="2.96264" transform="matrix(0.863328 -0.504643 0.512612 0.858621 30.7314 35.3945)" fill="#0B343D"></rect><rect width="0.740536" height="2.97819" transform="matrix(0.496626 -0.867965 0.872429 0.48874 35.492 30.8855)" fill="#0B343D"></rect><path d="M39.8865 45.5175C42.6169 43.6941 44.958 41.3435 46.7607 38.6132L49.4508 48.1961L39.8865 45.5175Z" fill="#0B343D"></path><path d="M52.8104 38.5938L53.93 18.0966H65.6863L64.5666 32.8694C64.3178 35.0237 64.8279 39.3694 68.8586 39.5171C72.8894 39.6648 74.2702 36.1932 74.4568 32.8694L75.3899 18.0966H86.9596L85.2801 48.3807H74.0836V44.1336C69.2318 48.1961 66.8059 48.5331 60.6479 48.3807C54.6764 48.233 52.4371 44.1336 52.8104 38.5938Z" fill="url(#paint0_linear)"></path><path d="M89.9453 48.3807L91.4382 18.0966H103.754L102.448 48.3807H89.9453Z" fill="url(#paint1_linear)"></path><path d="M91.8114 7.38641L91.6248 14.4035H103.754L103.941 7.38641H91.8114Z" fill="url(#paint2_linear)"></path><path d="M132.119 18.6506L132.492 27.3296C127.118 25.2614 123.037 25.9754 121.669 26.591C120.487 26.8372 118.011 28.3268 117.563 32.3154C117.115 36.304 118.927 38.7512 120.362 39.3324C124.468 40.9944 129.755 39.6402 131.745 38.7785L130.439 47.4574C125.587 48.5654 123.348 48.6304 118.683 48.5654C114.267 48.5038 105.546 45.1677 105.994 32.3154C106.441 19.4631 117.377 16.9887 122.788 17.358C126.52 17.358 130.564 18.2198 132.119 18.6506Z" fill="url(#paint3_linear)"></path><path d="M135.104 48.5654L136.784 8.12505H148.727L147.662 31.2074L156.751 18.0966H170L159.923 31.2074L170 48.5654H157.497L147.662 31.2074L146.861 48.5654H135.104Z" fill="url(#paint4_linear)"></path><path d="M3.17285 60.9902V66H1.48535V53.2031H6.20508C7.60547 53.2031 8.70117 53.5605 9.49219 54.2754C10.2891 54.9902 10.6875 55.9365 10.6875 57.1143C10.6875 58.3564 10.2979 59.3145 9.51855 59.9883C8.74512 60.6562 7.63477 60.9902 6.1875 60.9902H3.17285ZM3.17285 59.6104H6.20508C7.10742 59.6104 7.79883 59.3994 8.2793 58.9775C8.75977 58.5498 9 57.9346 9 57.1318C9 56.3701 8.75977 55.7607 8.2793 55.3037C7.79883 54.8467 7.13965 54.6094 6.30176 54.5918H3.17285V59.6104ZM21.8742 60.085H16.3283V64.6201H22.7707V66H14.6408V53.2031H22.6828V54.5918H16.3283V58.7051H21.8742V60.085ZM31.3646 60.8232H28.3588V66H26.6625V53.2031H30.8988C32.3402 53.2031 33.4477 53.5312 34.2211 54.1875C35.0004 54.8438 35.39 55.7988 35.39 57.0527C35.39 57.8496 35.1732 58.5439 34.7396 59.1357C34.3119 59.7275 33.7143 60.1699 32.9467 60.4629L35.9525 65.8945V66H34.142L31.3646 60.8232ZM28.3588 59.4434H30.9516C31.7895 59.4434 32.4545 59.2266 32.9467 58.793C33.4447 58.3594 33.6938 57.7793 33.6938 57.0527C33.6938 56.2617 33.4564 55.6553 32.9818 55.2334C32.5131 54.8115 31.8334 54.5977 30.9428 54.5918H28.3588V59.4434ZM43.3336 60.2959C41.8863 59.8799 40.8316 59.3701 40.1695 58.7666C39.5133 58.1572 39.1852 57.4072 39.1852 56.5166C39.1852 55.5088 39.5865 54.6768 40.3893 54.0205C41.1979 53.3584 42.2467 53.0273 43.5357 53.0273C44.4146 53.0273 45.1969 53.1973 45.8824 53.5371C46.5738 53.877 47.107 54.3457 47.482 54.9434C47.8629 55.541 48.0533 56.1943 48.0533 56.9033H46.357C46.357 56.1299 46.1109 55.5234 45.6188 55.084C45.1266 54.6387 44.4322 54.416 43.5357 54.416C42.7037 54.416 42.0533 54.6006 41.5846 54.9697C41.1217 55.333 40.8902 55.8398 40.8902 56.4902C40.8902 57.0117 41.11 57.4541 41.5494 57.8174C41.9947 58.1748 42.7477 58.5029 43.8082 58.8018C44.8746 59.1006 45.7066 59.4316 46.3043 59.7949C46.9078 60.1523 47.3531 60.5713 47.6402 61.0518C47.9332 61.5322 48.0797 62.0977 48.0797 62.748C48.0797 63.7852 47.6754 64.6172 46.8668 65.2441C46.0582 65.8652 44.9771 66.1758 43.6236 66.1758C42.7447 66.1758 41.9244 66.0088 41.1627 65.6748C40.401 65.335 39.8121 64.8721 39.3961 64.2861C38.9859 63.7002 38.7809 63.0352 38.7809 62.291H40.4771C40.4771 63.0645 40.7613 63.6768 41.3297 64.1279C41.9039 64.5732 42.6686 64.7959 43.6236 64.7959C44.5143 64.7959 45.1969 64.6143 45.6715 64.251C46.1461 63.8877 46.3834 63.3926 46.3834 62.7656C46.3834 62.1387 46.1637 61.6553 45.7242 61.3154C45.2848 60.9697 44.4879 60.6299 43.3336 60.2959ZM61.8943 60.0146C61.8943 61.2686 61.6834 62.3643 61.2615 63.3018C60.8396 64.2334 60.242 64.9453 59.4686 65.4375C58.6951 65.9297 57.7928 66.1758 56.7615 66.1758C55.7537 66.1758 54.8602 65.9297 54.0809 65.4375C53.3016 64.9395 52.6951 64.2334 52.2615 63.3193C51.8338 62.3994 51.6141 61.3359 51.6023 60.1289V59.2061C51.6023 57.9756 51.8162 56.8887 52.2439 55.9453C52.6717 55.002 53.2752 54.2812 54.0545 53.7832C54.8396 53.2793 55.7361 53.0273 56.7439 53.0273C57.7693 53.0273 58.6717 53.2764 59.451 53.7744C60.2361 54.2666 60.8396 54.9844 61.2615 55.9277C61.6834 56.8652 61.8943 57.958 61.8943 59.2061V60.0146ZM60.2156 59.1885C60.2156 57.6709 59.9109 56.5078 59.3016 55.6992C58.6922 54.8848 57.8396 54.4775 56.7439 54.4775C55.6775 54.4775 54.8367 54.8848 54.2215 55.6992C53.6121 56.5078 53.2986 57.6328 53.2811 59.0742V60.0146C53.2811 61.4854 53.5887 62.6426 54.2039 63.4863C54.825 64.3242 55.6775 64.7432 56.7615 64.7432C57.8514 64.7432 58.6951 64.3477 59.2928 63.5566C59.8904 62.7598 60.198 61.6201 60.2156 60.1377V59.1885ZM76.0605 66H74.3643L67.9219 56.1387V66H66.2256V53.2031H67.9219L74.3818 63.1084V53.2031H76.0605V66ZM88.0822 62.6602H82.7209L81.5168 66H79.7766L84.6633 53.2031H86.1398L91.0354 66H89.3039L88.0822 62.6602ZM83.2307 61.2715H87.5813L85.4016 55.2861L83.2307 61.2715ZM96.2543 64.6201H102.319V66H94.558V53.2031H96.2543V64.6201ZM114.005 64.6201H120.069V66H112.308V53.2031H114.005V64.6201ZM133.058 60.0146C133.058 61.2686 132.847 62.3643 132.425 63.3018C132.003 64.2334 131.405 64.9453 130.632 65.4375C129.858 65.9297 128.956 66.1758 127.925 66.1758C126.917 66.1758 126.023 65.9297 125.244 65.4375C124.465 64.9395 123.858 64.2334 123.425 63.3193C122.997 62.3994 122.777 61.3359 122.766 60.1289V59.2061C122.766 57.9756 122.979 56.8887 123.407 55.9453C123.835 55.002 124.438 54.2812 125.218 53.7832C126.003 53.2793 126.899 53.0273 127.907 53.0273C128.933 53.0273 129.835 53.2764 130.614 53.7744C131.399 54.2666 132.003 54.9844 132.425 55.9277C132.847 56.8652 133.058 57.958 133.058 59.2061V60.0146ZM131.379 59.1885C131.379 57.6709 131.074 56.5078 130.465 55.6992C129.855 54.8848 129.003 54.4775 127.907 54.4775C126.841 54.4775 126 54.8848 125.385 55.6992C124.775 56.5078 124.462 57.6328 124.444 59.0742V60.0146C124.444 61.4854 124.752 62.6426 125.367 63.4863C125.988 64.3242 126.841 64.7432 127.925 64.7432C129.015 64.7432 129.858 64.3477 130.456 63.5566C131.054 62.7598 131.361 61.6201 131.379 60.1377V59.1885ZM144.262 62.6602H138.901L137.696 66H135.956L140.843 53.2031H142.32L147.215 66H145.484L144.262 62.6602ZM139.41 61.2715H143.761L141.581 55.2861L139.41 61.2715ZM160.573 66H158.876L152.434 56.1387V66H150.738V53.2031H152.434L158.894 63.1084V53.2031H160.573V66ZM169.14 60.2959C167.693 59.8799 166.638 59.3701 165.976 58.7666C165.32 58.1572 164.992 57.4072 164.992 56.5166C164.992 55.5088 165.393 54.6768 166.196 54.0205C167.004 53.3584 168.053 53.0273 169.342 53.0273C170.221 53.0273 171.004 53.1973 171.689 53.5371C172.38 53.877 172.914 54.3457 173.289 54.9434C173.67 55.541 173.86 56.1943 173.86 56.9033H172.164C172.164 56.1299 171.918 55.5234 171.425 55.084C170.933 54.6387 170.239 54.416 169.342 54.416C168.51 54.416 167.86 54.6006 167.391 54.9697C166.928 55.333 166.697 55.8398 166.697 56.4902C166.697 57.0117 166.917 57.4541 167.356 57.8174C167.801 58.1748 168.554 58.5029 169.615 58.8018C170.681 59.1006 171.513 59.4316 172.111 59.7949C172.714 60.1523 173.16 60.5713 173.447 61.0518C173.74 61.5322 173.886 62.0977 173.886 62.748C173.886 63.7852 173.482 64.6172 172.673 65.2441C171.865 65.8652 170.784 66.1758 169.43 66.1758C168.551 66.1758 167.731 66.0088 166.969 65.6748C166.208 65.335 165.619 64.8721 165.203 64.2861C164.793 63.7002 164.587 63.0352 164.587 62.291H166.284C166.284 63.0645 166.568 63.6768 167.136 64.1279C167.711 64.5732 168.475 64.7959 169.43 64.7959C170.321 64.7959 171.004 64.6143 171.478 64.251C171.953 63.8877 172.19 63.3926 172.19 62.7656C172.19 62.1387 171.97 61.6553 171.531 61.3154C171.091 60.9697 170.295 60.6299 169.14 60.2959Z" fill="#EA8460"></path><defs><linearGradient id="paint0_linear" x1="111.385" y1="7.38641" x2="111.385" y2="48.5829" gradientUnits="userSpaceOnUse"><stop stop-color="#92A6B0"></stop><stop offset="1" stop-color="#0B343D"></stop></linearGradient><linearGradient id="paint1_linear" x1="111.385" y1="7.38641" x2="111.385" y2="48.5829" gradientUnits="userSpaceOnUse"><stop stop-color="#92A6B0"></stop><stop offset="1" stop-color="#0B343D"></stop></linearGradient><linearGradient id="paint2_linear" x1="111.385" y1="7.38641" x2="111.385" y2="48.5829" gradientUnits="userSpaceOnUse"><stop stop-color="#92A6B0"></stop><stop offset="1" stop-color="#0B343D"></stop></linearGradient><linearGradient id="paint3_linear" x1="111.385" y1="7.38641" x2="111.385" y2="48.5829" gradientUnits="userSpaceOnUse"><stop stop-color="#92A6B0"></stop><stop offset="1" stop-color="#0B343D"></stop></linearGradient><linearGradient id="paint4_linear" x1="111.385" y1="7.38641" x2="111.385" y2="48.5829" gradientUnits="userSpaceOnUse"><stop stop-color="#92A6B0"></stop><stop offset="1" stop-color="#0B343D"></stop></linearGradient></defs></svg> 