<?xml version="1.0" encoding="UTF-8"?> <svg xmlns="http://www.w3.org/2000/svg" width="193" height="48" viewBox="0 0 193 48" fill="none"><path d="M49.016 44.144C48.16 44.144 47.384 43.96 46.688 43.592C46 43.216 45.456 42.7 45.056 42.044C44.664 41.38 44.468 40.632 44.468 39.8C44.468 38.968 44.664 38.224 45.056 37.568C45.456 36.904 46 36.388 46.688 36.02C47.384 35.644 48.164 35.456 49.028 35.456C49.756 35.456 50.412 35.584 50.996 35.84C51.588 36.096 52.084 36.464 52.484 36.944L51.236 38.096C50.668 37.44 49.964 37.112 49.124 37.112C48.604 37.112 48.14 37.228 47.732 37.46C47.324 37.684 47.004 38 46.772 38.408C46.548 38.816 46.436 39.28 46.436 39.8C46.436 40.32 46.548 40.784 46.772 41.192C47.004 41.6 47.324 41.92 47.732 42.152C48.14 42.376 48.604 42.488 49.124 42.488C49.964 42.488 50.668 42.156 51.236 41.492L52.484 42.644C52.084 43.132 51.588 43.504 50.996 43.76C50.404 44.016 49.744 44.144 49.016 44.144ZM60.4741 37.544V44H58.6861V43.256C58.2221 43.816 57.5501 44.096 56.6701 44.096C56.0621 44.096 55.5101 43.96 55.0141 43.688C54.5261 43.416 54.1421 43.028 53.8621 42.524C53.5821 42.02 53.4421 41.436 53.4421 40.772C53.4421 40.108 53.5821 39.524 53.8621 39.02C54.1421 38.516 54.5261 38.128 55.0141 37.856C55.5101 37.584 56.0621 37.448 56.6701 37.448C57.4941 37.448 58.1381 37.708 58.6021 38.228V37.544H60.4741ZM56.9941 42.56C57.4661 42.56 57.8581 42.4 58.1701 42.08C58.4821 41.752 58.6381 41.316 58.6381 40.772C58.6381 40.228 58.4821 39.796 58.1701 39.476C57.8581 39.148 57.4661 38.984 56.9941 38.984C56.5141 38.984 56.1181 39.148 55.8061 39.476C55.4941 39.796 55.3381 40.228 55.3381 40.772C55.3381 41.316 55.4941 41.752 55.8061 42.08C56.1181 42.4 56.5141 42.56 56.9941 42.56ZM64.8593 44.096C64.3233 44.096 63.7993 44.032 63.2873 43.904C62.7753 43.768 62.3673 43.6 62.0633 43.4L62.6873 42.056C62.9753 42.24 63.3233 42.392 63.7313 42.512C64.1393 42.624 64.5393 42.68 64.9313 42.68C65.7233 42.68 66.1193 42.484 66.1193 42.092C66.1193 41.908 66.0113 41.776 65.7953 41.696C65.5793 41.616 65.2473 41.548 64.7993 41.492C64.2713 41.412 63.8353 41.32 63.4913 41.216C63.1473 41.112 62.8473 40.928 62.5913 40.664C62.3433 40.4 62.2193 40.024 62.2193 39.536C62.2193 39.128 62.3353 38.768 62.5673 38.456C62.8073 38.136 63.1513 37.888 63.5993 37.712C64.0553 37.536 64.5913 37.448 65.2073 37.448C65.6633 37.448 66.1153 37.5 66.5633 37.604C67.0193 37.7 67.3953 37.836 67.6913 38.012L67.0673 39.344C66.4993 39.024 65.8793 38.864 65.2073 38.864C64.8073 38.864 64.5073 38.92 64.3073 39.032C64.1073 39.144 64.0073 39.288 64.0073 39.464C64.0073 39.664 64.1153 39.804 64.3313 39.884C64.5473 39.964 64.8913 40.04 65.3633 40.112C65.8913 40.2 66.3233 40.296 66.6593 40.4C66.9953 40.496 67.2873 40.676 67.5353 40.94C67.7833 41.204 67.9073 41.572 67.9073 42.044C67.9073 42.444 67.7873 42.8 67.5473 43.112C67.3073 43.424 66.9553 43.668 66.4913 43.844C66.0353 44.012 65.4913 44.096 64.8593 44.096ZM73.4663 37.448C74.2663 37.448 74.9103 37.688 75.3983 38.168C75.8943 38.648 76.1423 39.36 76.1423 40.304V44H74.2703V40.592C74.2703 40.08 74.1583 39.7 73.9343 39.452C73.7103 39.196 73.3863 39.068 72.9623 39.068C72.4903 39.068 72.1143 39.216 71.8343 39.512C71.5543 39.8 71.4143 40.232 71.4143 40.808V44H69.5423V35.096H71.4143V38.216C71.6623 37.968 71.9623 37.78 72.3143 37.652C72.6663 37.516 73.0503 37.448 73.4663 37.448ZM86.1096 35.456C86.8856 35.456 87.5616 35.608 88.1376 35.912C88.7136 36.216 89.1616 36.664 89.4816 37.256C89.8016 37.848 89.9616 38.564 89.9616 39.404V44H88.0176V41.984H84.1776V44H82.2576V39.404C82.2576 38.564 82.4176 37.848 82.7376 37.256C83.0576 36.664 83.5056 36.216 84.0816 35.912C84.6576 35.608 85.3336 35.456 86.1096 35.456ZM88.0176 40.424V39.224C88.0176 38.528 87.8456 38.004 87.5016 37.652C87.1576 37.292 86.6896 37.112 86.0976 37.112C85.4976 37.112 85.0256 37.292 84.6816 37.652C84.3456 38.004 84.1776 38.528 84.1776 39.224V40.424H88.0176ZM98.8044 35.096V44H97.0164V43.256C96.5524 43.816 95.8804 44.096 95.0004 44.096C94.3924 44.096 93.8404 43.96 93.3444 43.688C92.8564 43.416 92.4724 43.028 92.1924 42.524C91.9124 42.02 91.7724 41.436 91.7724 40.772C91.7724 40.108 91.9124 39.524 92.1924 39.02C92.4724 38.516 92.8564 38.128 93.3444 37.856C93.8404 37.584 94.3924 37.448 95.0004 37.448C95.8244 37.448 96.4684 37.708 96.9324 38.228V35.096H98.8044ZM95.3244 42.56C95.7964 42.56 96.1884 42.4 96.5004 42.08C96.8124 41.752 96.9684 41.316 96.9684 40.772C96.9684 40.228 96.8124 39.796 96.5004 39.476C96.1884 39.148 95.7964 38.984 95.3244 38.984C94.8444 38.984 94.4484 39.148 94.1364 39.476C93.8244 39.796 93.6684 40.228 93.6684 40.772C93.6684 41.316 93.8244 41.752 94.1364 42.08C94.4484 42.4 94.8444 42.56 95.3244 42.56ZM107.425 37.544L104.701 44H102.769L100.057 37.544H101.989L103.777 41.936L105.625 37.544H107.425ZM115.045 37.544V44H113.257V43.256C112.793 43.816 112.121 44.096 111.241 44.096C110.633 44.096 110.081 43.96 109.585 43.688C109.097 43.416 108.713 43.028 108.433 42.524C108.153 42.02 108.013 41.436 108.013 40.772C108.013 40.108 108.153 39.524 108.433 39.02C108.713 38.516 109.097 38.128 109.585 37.856C110.081 37.584 110.633 37.448 111.241 37.448C112.065 37.448 112.709 37.708 113.173 38.228V37.544H115.045ZM111.565 42.56C112.037 42.56 112.429 42.4 112.741 42.08C113.053 41.752 113.209 41.316 113.209 40.772C113.209 40.228 113.053 39.796 112.741 39.476C112.429 39.148 112.037 38.984 111.565 38.984C111.085 38.984 110.689 39.148 110.377 39.476C110.065 39.796 109.909 40.228 109.909 40.772C109.909 41.316 110.065 41.752 110.377 42.08C110.689 42.4 111.085 42.56 111.565 42.56ZM121.182 37.448C121.982 37.448 122.626 37.688 123.114 38.168C123.61 38.648 123.858 39.36 123.858 40.304V44H121.986V40.592C121.986 40.08 121.874 39.7 121.65 39.452C121.426 39.196 121.102 39.068 120.678 39.068C120.206 39.068 119.83 39.216 119.55 39.512C119.27 39.8 119.13 40.232 119.13 40.808V44H117.258V37.544H119.046V38.3C119.294 38.028 119.602 37.82 119.97 37.676C120.338 37.524 120.742 37.448 121.182 37.448ZM129.225 44.096C128.537 44.096 127.917 43.956 127.365 43.676C126.821 43.388 126.393 42.992 126.081 42.488C125.777 41.984 125.625 41.412 125.625 40.772C125.625 40.132 125.777 39.56 126.081 39.056C126.393 38.552 126.821 38.16 127.365 37.88C127.917 37.592 128.537 37.448 129.225 37.448C129.905 37.448 130.497 37.592 131.001 37.88C131.513 38.16 131.885 38.564 132.117 39.092L130.665 39.872C130.329 39.28 129.845 38.984 129.213 38.984C128.725 38.984 128.321 39.144 128.001 39.464C127.681 39.784 127.521 40.22 127.521 40.772C127.521 41.324 127.681 41.76 128.001 42.08C128.321 42.4 128.725 42.56 129.213 42.56C129.853 42.56 130.337 42.264 130.665 41.672L132.117 42.464C131.885 42.976 131.513 43.376 131.001 43.664C130.497 43.952 129.905 44.096 129.225 44.096ZM136.845 42.596C137.181 42.596 137.477 42.548 137.733 42.452C137.997 42.348 138.241 42.188 138.465 41.972L139.461 43.052C138.853 43.748 137.965 44.096 136.797 44.096C136.069 44.096 135.425 43.956 134.865 43.676C134.305 43.388 133.873 42.992 133.569 42.488C133.265 41.984 133.113 41.412 133.113 40.772C133.113 40.14 133.261 39.572 133.557 39.068C133.861 38.556 134.273 38.16 134.793 37.88C135.321 37.592 135.913 37.448 136.569 37.448C137.185 37.448 137.745 37.58 138.249 37.844C138.753 38.1 139.153 38.476 139.449 38.972C139.753 39.46 139.905 40.04 139.905 40.712L135.129 41.636C135.265 41.956 135.477 42.196 135.765 42.356C136.061 42.516 136.421 42.596 136.845 42.596ZM136.569 38.864C136.097 38.864 135.713 39.016 135.417 39.32C135.121 39.624 134.965 40.044 134.949 40.58L138.093 39.968C138.005 39.632 137.825 39.364 137.553 39.164C137.281 38.964 136.953 38.864 136.569 38.864ZM145.654 35.6H147.598V42.416H151.81V44H145.654V35.6ZM156.269 44.096C155.589 44.096 154.977 43.956 154.433 43.676C153.897 43.388 153.477 42.992 153.173 42.488C152.869 41.984 152.717 41.412 152.717 40.772C152.717 40.132 152.869 39.56 153.173 39.056C153.477 38.552 153.897 38.16 154.433 37.88C154.977 37.592 155.589 37.448 156.269 37.448C156.949 37.448 157.557 37.592 158.093 37.88C158.629 38.16 159.049 38.552 159.353 39.056C159.657 39.56 159.809 40.132 159.809 40.772C159.809 41.412 159.657 41.984 159.353 42.488C159.049 42.992 158.629 43.388 158.093 43.676C157.557 43.956 156.949 44.096 156.269 44.096ZM156.269 42.56C156.749 42.56 157.141 42.4 157.445 42.08C157.757 41.752 157.913 41.316 157.913 40.772C157.913 40.228 157.757 39.796 157.445 39.476C157.141 39.148 156.749 38.984 156.269 38.984C155.789 38.984 155.393 39.148 155.081 39.476C154.769 39.796 154.613 40.228 154.613 40.772C154.613 41.316 154.769 41.752 155.081 42.08C155.393 42.4 155.789 42.56 156.269 42.56ZM168.093 37.544V44H166.305V43.256C165.841 43.816 165.169 44.096 164.289 44.096C163.681 44.096 163.129 43.96 162.633 43.688C162.145 43.416 161.761 43.028 161.481 42.524C161.201 42.02 161.061 41.436 161.061 40.772C161.061 40.108 161.201 39.524 161.481 39.02C161.761 38.516 162.145 38.128 162.633 37.856C163.129 37.584 163.681 37.448 164.289 37.448C165.113 37.448 165.757 37.708 166.221 38.228V37.544H168.093ZM164.613 42.56C165.085 42.56 165.477 42.4 165.789 42.08C166.101 41.752 166.257 41.316 166.257 40.772C166.257 40.228 166.101 39.796 165.789 39.476C165.477 39.148 165.085 38.984 164.613 38.984C164.133 38.984 163.737 39.148 163.425 39.476C163.113 39.796 162.957 40.228 162.957 40.772C162.957 41.316 163.113 41.752 163.425 42.08C163.737 42.4 164.133 42.56 164.613 42.56ZM174.23 37.448C175.03 37.448 175.674 37.688 176.162 38.168C176.658 38.648 176.906 39.36 176.906 40.304V44H175.034V40.592C175.034 40.08 174.922 39.7 174.698 39.452C174.474 39.196 174.15 39.068 173.726 39.068C173.254 39.068 172.878 39.216 172.598 39.512C172.318 39.8 172.178 40.232 172.178 40.808V44H170.306V37.544H172.094V38.3C172.342 38.028 172.65 37.82 173.018 37.676C173.386 37.524 173.79 37.448 174.23 37.448ZM181.255 44.096C180.719 44.096 180.195 44.032 179.683 43.904C179.171 43.768 178.763 43.6 178.459 43.4L179.083 42.056C179.371 42.24 179.719 42.392 180.127 42.512C180.535 42.624 180.935 42.68 181.327 42.68C182.119 42.68 182.515 42.484 182.515 42.092C182.515 41.908 182.407 41.776 182.191 41.696C181.975 41.616 181.643 41.548 181.195 41.492C180.667 41.412 180.231 41.32 179.887 41.216C179.543 41.112 179.243 40.928 178.987 40.664C178.739 40.4 178.615 40.024 178.615 39.536C178.615 39.128 178.731 38.768 178.963 38.456C179.203 38.136 179.547 37.888 179.995 37.712C180.451 37.536 180.987 37.448 181.603 37.448C182.059 37.448 182.511 37.5 182.959 37.604C183.415 37.7 183.791 37.836 184.087 38.012L183.463 39.344C182.895 39.024 182.275 38.864 181.603 38.864C181.203 38.864 180.903 38.92 180.703 39.032C180.503 39.144 180.403 39.288 180.403 39.464C180.403 39.664 180.511 39.804 180.727 39.884C180.943 39.964 181.287 40.04 181.759 40.112C182.287 40.2 182.719 40.296 183.055 40.4C183.391 40.496 183.683 40.676 183.931 40.94C184.179 41.204 184.303 41.572 184.303 42.044C184.303 42.444 184.183 42.8 183.943 43.112C183.703 43.424 183.351 43.668 182.887 43.844C182.431 44.012 181.887 44.096 181.255 44.096Z" fill="#0C3982"></path><path d="M56.696 29L53.456 24.32H53.264H49.88V29H45.992V12.2H53.264C54.752 12.2 56.04 12.448 57.128 12.944C58.232 13.44 59.08 14.144 59.672 15.056C60.264 15.968 60.56 17.048 60.56 18.296C60.56 19.544 60.256 20.624 59.648 21.536C59.056 22.432 58.208 23.12 57.104 23.6L60.872 29H56.696ZM56.624 18.296C56.624 17.352 56.32 16.632 55.712 16.136C55.104 15.624 54.216 15.368 53.048 15.368H49.88V21.224H53.048C54.216 21.224 55.104 20.968 55.712 20.456C56.32 19.944 56.624 19.224 56.624 18.296ZM72.1604 11.912C73.7124 11.912 75.0644 12.216 76.2164 12.824C77.3684 13.432 78.2644 14.328 78.9044 15.512C79.5444 16.696 79.8644 18.128 79.8644 19.808V29H75.9764V24.968H68.2964V29H64.4564V19.808C64.4564 18.128 64.7764 16.696 65.4164 15.512C66.0564 14.328 66.9524 13.432 68.1044 12.824C69.2564 12.216 70.6084 11.912 72.1604 11.912ZM75.9764 21.848V19.448C75.9764 18.056 75.6324 17.008 74.9444 16.304C74.2564 15.584 73.3204 15.224 72.1364 15.224C70.9364 15.224 69.9924 15.584 69.3044 16.304C68.6324 17.008 68.2964 18.056 68.2964 19.448V21.848H75.9764ZM91.934 12.2C93.422 12.2 94.71 12.448 95.798 12.944C96.902 13.44 97.75 14.144 98.342 15.056C98.934 15.968 99.23 17.048 99.23 18.296C99.23 19.528 98.934 20.608 98.342 21.536C97.75 22.448 96.902 23.152 95.798 23.648C94.71 24.128 93.422 24.368 91.934 24.368H88.55V29H84.662V12.2H91.934ZM91.718 21.2C92.886 21.2 93.774 20.952 94.382 20.456C94.99 19.944 95.294 19.224 95.294 18.296C95.294 17.352 94.99 16.632 94.382 16.136C93.774 15.624 92.886 15.368 91.718 15.368H88.55V21.2H91.718ZM108.726 15.32V25.88H111.63V29H101.91V25.88H104.838V15.32H101.91V12.2H111.63V15.32H108.726ZM115.527 12.2H123.159C124.983 12.2 126.591 12.552 127.983 13.256C129.391 13.944 130.479 14.92 131.247 16.184C132.031 17.448 132.423 18.92 132.423 20.6C132.423 22.28 132.031 23.752 131.247 25.016C130.479 26.28 129.391 27.264 127.983 27.968C126.591 28.656 124.983 29 123.159 29H115.527V12.2ZM122.967 25.808C124.647 25.808 125.983 25.344 126.975 24.416C127.983 23.472 128.487 22.2 128.487 20.6C128.487 19 127.983 17.736 126.975 16.808C125.983 15.864 124.647 15.392 122.967 15.392H119.415V25.808H122.967Z" fill="#1A6EF4"></path><path d="M0 44V8H16.9745C23.2462 8 30.9495 12.0636 30.9495 18.9316C31.0859 21.3736 30.0224 26.91 24.6778 29.5199L33.8809 44C25.155 43.8665 8.72586 39.6045 12.8161 23.6248C13.1342 24.0445 13.7841 25.1472 13.8387 26.2003L15.7474 24.7122C15.6566 24.1971 15.4066 23.0181 15.1339 22.4229C17.02 21.8315 21.1466 19.4353 22.5645 14.5819C20.3603 15.0207 15.4611 16.9514 13.4978 21.1638C12.907 21.0302 11.589 20.8776 10.8392 20.8776L9.13488 22.5374C9.99838 22.5946 11.8208 22.8006 12.2026 23.1669C7.36244 25.9142 0.381756 34.339 7.36244 44H0Z" fill="url(#paint0_linear_412_344)"></path><defs><linearGradient id="paint0_linear_412_344" x1="31.0575" y1="6.18182" x2="8.8614" y2="52.3351" gradientUnits="userSpaceOnUse"><stop stop-color="#0BC5EE"></stop><stop offset="1" stop-color="#2043F7"></stop></linearGradient></defs></svg> 