<?xml version="1.0" encoding="UTF-8"?> <svg xmlns="http://www.w3.org/2000/svg" width="285" height="127" viewBox="0 0 285 127" fill="none"><path d="M103.484 70.5938L103.359 65.5625H120.719L120.188 70.8438L118.703 70.6094L118.109 67H113.344V83.2188L116.234 83.75L116.016 85H107.594L107.703 83.8438L110.344 83.1094V67H105.734L104.906 70.7969L103.484 70.5938Z" fill="#273891"></path><path d="M131.047 84.5C130.047 85.1146 128.943 85.4219 127.734 85.4219C126.391 85.4219 125.234 85.1146 124.266 84.5C123.307 83.8854 122.573 83.0469 122.062 81.9844C121.562 80.9115 121.312 79.6979 121.312 78.3438C121.312 76.8229 121.63 75.5 122.266 74.375C122.901 73.2396 123.734 72.375 124.766 71.7812C125.807 71.1875 126.922 70.8906 128.109 70.8906C129.37 70.8906 130.464 71.1927 131.391 71.7969C132.328 72.401 133.042 73.25 133.531 74.3438C134.031 75.4271 134.281 76.6823 134.281 78.1094C134.281 79.526 133.99 80.7917 133.406 81.9062C132.833 83.0208 132.047 83.8854 131.047 84.5ZM129.75 73.5625C129.146 72.875 128.38 72.5312 127.453 72.5312C126.703 72.5312 126.073 72.7448 125.562 73.1719C125.062 73.599 124.693 74.1719 124.453 74.8906C124.214 75.599 124.094 76.3802 124.094 77.2344C124.094 78.3906 124.234 79.474 124.516 80.4844C124.797 81.4948 125.25 82.3177 125.875 82.9531C126.5 83.5885 127.297 83.9062 128.266 83.9062C128.964 83.9062 129.557 83.6927 130.047 83.2656C130.536 82.8281 130.901 82.2656 131.141 81.5781C131.38 80.8906 131.5 80.1615 131.5 79.3906C131.5 78.2656 131.359 77.1823 131.078 76.1406C130.807 75.099 130.365 74.2396 129.75 73.5625Z" fill="#273891"></path><path d="M142.719 85H135.25L135.422 83.7656L137.812 83.1875V67.0781L135.344 66.2344L135.531 65.0469L140.031 64.7031L140.422 65.0781V83.1875L142.906 83.75L142.719 85Z" fill="#273891"></path><path d="M152.625 84.9219C151.74 85.2865 150.786 85.4688 149.766 85.4688C148.755 85.4688 147.797 85.1979 146.891 84.6562C145.995 84.1042 145.271 83.2865 144.719 82.2031C144.167 81.1198 143.891 79.8229 143.891 78.3125C143.891 76.8229 144.203 75.5208 144.828 74.4062C145.464 73.2917 146.276 72.4375 147.266 71.8438C148.255 71.25 149.271 70.9531 150.312 70.9531C151.083 70.9531 151.786 71.1458 152.422 71.5312C153.057 71.9062 153.557 72.4688 153.922 73.2188C154.297 73.9583 154.484 74.8594 154.484 75.9219C154.484 76.1615 154.458 76.4948 154.406 76.9219C154.354 77.3385 154.297 77.6823 154.234 77.9531L146.672 78.0469C146.714 78.9219 146.901 79.7708 147.234 80.5938C147.568 81.4167 148.052 82.0938 148.688 82.625C149.333 83.1458 150.115 83.4062 151.031 83.4062C151.531 83.4062 151.927 83.3958 152.219 83.375C152.51 83.3438 152.849 83.2656 153.234 83.1406C153.62 83.0156 154.068 82.8177 154.578 82.5469L154.906 83.375C154.281 84.0312 153.521 84.5469 152.625 84.9219ZM151.703 75.3906C151.703 73.4531 150.984 72.4844 149.547 72.4844C149.109 72.4844 148.682 72.6458 148.266 72.9688C147.849 73.2812 147.495 73.7656 147.203 74.4219C146.922 75.0677 146.755 75.8698 146.703 76.8281L151.609 76.4688C151.641 76.3542 151.661 76.1875 151.672 75.9688C151.693 75.7396 151.703 75.5469 151.703 75.3906Z" fill="#273891"></path><path d="M164.047 84.6719C163.359 85.1094 162.521 85.3281 161.531 85.3281C160.594 85.3281 159.734 85.0781 158.953 84.5781C158.182 84.0677 157.568 83.3177 157.109 82.3281C156.661 81.3385 156.438 80.151 156.438 78.7656C156.438 77.3177 156.776 75.9948 157.453 74.7969C158.13 73.599 158.995 72.6562 160.047 71.9688C161.109 71.2812 162.182 70.9375 163.266 70.9375C163.776 70.9375 164.286 71.0052 164.797 71.1406C165.307 71.276 165.693 71.4375 165.953 71.625H166.062L165.875 69.625V67.1719L163.5 66.3125L163.719 65.1406L168.062 64.7656L168.391 65.1406V81.6406C168.391 82.1615 168.453 82.5521 168.578 82.8125C168.714 83.0625 168.885 83.2344 169.094 83.3281C169.312 83.4115 169.646 83.5052 170.094 83.6094L170.797 83.7656L170.625 85.0625C170.156 85.1875 169.771 85.2656 169.469 85.2969C169.177 85.3385 168.797 85.3594 168.328 85.3594C167.578 85.3594 167 85.1458 166.594 84.7188C166.198 84.2917 166 83.7396 166 83.0625V82.9531H165.859C165.339 83.6615 164.734 84.2344 164.047 84.6719ZM164.297 73.0469C163.661 72.6615 163.068 72.4688 162.516 72.4688C161.359 72.4688 160.516 72.9531 159.984 73.9219C159.453 74.8802 159.188 76.1667 159.188 77.7812C159.188 78.9792 159.333 80 159.625 80.8438C159.927 81.6771 160.339 82.3073 160.859 82.7344C161.38 83.151 161.974 83.3594 162.641 83.3594C163.245 83.3594 163.854 83.2083 164.469 82.9062C165.094 82.6042 165.557 82.276 165.859 81.9219V74.5938C165.464 73.9479 164.943 73.4323 164.297 73.0469Z" fill="#273891"></path><path d="M181.578 84.5C180.578 85.1146 179.474 85.4219 178.266 85.4219C176.922 85.4219 175.766 85.1146 174.797 84.5C173.839 83.8854 173.104 83.0469 172.594 81.9844C172.094 80.9115 171.844 79.6979 171.844 78.3438C171.844 76.8229 172.161 75.5 172.797 74.375C173.432 73.2396 174.266 72.375 175.297 71.7812C176.339 71.1875 177.453 70.8906 178.641 70.8906C179.901 70.8906 180.995 71.1927 181.922 71.7969C182.859 72.401 183.573 73.25 184.062 74.3438C184.562 75.4271 184.812 76.6823 184.812 78.1094C184.812 79.526 184.521 80.7917 183.938 81.9062C183.365 83.0208 182.578 83.8854 181.578 84.5ZM180.281 73.5625C179.677 72.875 178.911 72.5312 177.984 72.5312C177.234 72.5312 176.604 72.7448 176.094 73.1719C175.594 73.599 175.224 74.1719 174.984 74.8906C174.745 75.599 174.625 76.3802 174.625 77.2344C174.625 78.3906 174.766 79.474 175.047 80.4844C175.328 81.4948 175.781 82.3177 176.406 82.9531C177.031 83.5885 177.828 83.9062 178.797 83.9062C179.495 83.9062 180.089 83.6927 180.578 83.2656C181.068 82.8281 181.432 82.2656 181.672 81.5781C181.911 80.8906 182.031 80.1615 182.031 79.3906C182.031 78.2656 181.891 77.1823 181.609 76.1406C181.339 75.099 180.896 74.2396 180.281 73.5625Z" fill="#273891"></path><path d="M194.031 67.4062L191.188 66.75L191.359 65.5625H206.875L206.234 70.5938L204.859 70.375L204.328 67H197.062V74.5312H201.547L202.203 72.6562L203.609 72.4375L203.188 78.5625L201.812 78.7812L201.344 75.9688H197.062V83.0938L200.734 83.7031L200.531 85H191.297L191.422 83.8438L194.031 83.1094V67.4062Z" fill="#273891"></path><path d="M211.703 68.0312C211.411 68.1979 211.099 68.2812 210.766 68.2812C210.432 68.2812 210.12 68.1927 209.828 68.0156C209.547 67.8385 209.323 67.6042 209.156 67.3125C208.99 67.0104 208.906 66.6875 208.906 66.3438C208.906 65.8542 209.089 65.4427 209.453 65.1094C209.828 64.7656 210.266 64.5938 210.766 64.5938C211.286 64.5938 211.734 64.7656 212.109 65.1094C212.484 65.4531 212.672 65.875 212.672 66.375C212.672 66.7188 212.583 67.0365 212.406 67.3281C212.24 67.6198 212.005 67.8542 211.703 68.0312ZM214.547 85H207.047L207.234 83.7656L209.594 83.1875V73.5781L207.234 72.7188L207.438 71.5312L211.828 71.1719L212.219 71.5625V83.1875L214.719 83.75L214.547 85Z" fill="#273891"></path><path d="M222.953 83.7656L222.734 85H215.484L215.641 83.8594L218 83.2188V73.7344L215.594 72.9219L215.75 71.7344L220.406 71.125L220.672 71.4219L220.406 73.4219H220.562C221.156 72.7135 221.859 72.125 222.672 71.6562C223.484 71.1875 224.349 70.9531 225.266 70.9531C226.484 70.9531 227.417 71.3385 228.062 72.1094C228.708 72.8802 229.031 73.9688 229.031 75.375V83.2188L231.281 83.7656L231.125 85H224.109L224.266 83.8594L226.422 83.2188V75.9844C226.422 75.0156 226.172 74.2969 225.672 73.8281C225.182 73.349 224.526 73.1094 223.703 73.1094C223.12 73.1094 222.557 73.2292 222.016 73.4688C221.474 73.6979 221.01 74.026 220.625 74.4531V83.2188L222.953 83.7656Z" fill="#273891"></path><path d="M238.016 84.6094C237.307 85.1198 236.391 85.375 235.266 85.375C234.714 85.375 234.203 85.2552 233.734 85.0156C233.266 84.776 232.891 84.4323 232.609 83.9844C232.339 83.526 232.203 82.9896 232.203 82.375C232.203 81.5729 232.458 80.8177 232.969 80.1094C233.479 79.401 234.271 78.8073 235.344 78.3281C236.427 77.8385 237.781 77.5365 239.406 77.4219V76.5625C239.406 75.3542 239.193 74.3594 238.766 73.5781C238.339 72.7865 237.63 72.3906 236.641 72.3906C236.151 72.3906 235.797 72.4896 235.578 72.6875C235.359 72.8854 235.214 73.1823 235.141 73.5781C235.078 73.974 235 74.6979 234.906 75.75C234.292 75.75 233.776 75.651 233.359 75.4531C232.943 75.2552 232.734 74.8177 232.734 74.1406C232.734 73.599 233.021 73.0833 233.594 72.5938C234.167 72.0938 234.875 71.6927 235.719 71.3906C236.562 71.0885 237.349 70.9375 238.078 70.9375C239.453 70.9375 240.438 71.3229 241.031 72.0938C241.635 72.8542 241.938 74.0677 241.938 75.7344V81.4062C241.938 81.9062 241.984 82.2917 242.078 82.5625C242.172 82.8229 242.339 83.026 242.578 83.1719C242.828 83.3073 243.198 83.4167 243.688 83.5L244.469 83.6406L244.266 84.9844C244.109 85.0052 243.87 85.0469 243.547 85.1094C243.047 85.224 242.578 85.2812 242.141 85.2812C241.578 85.2812 241.115 85.1771 240.75 84.9688C240.385 84.7604 240.12 84.5 239.953 84.1875C239.797 83.8646 239.719 83.5312 239.719 83.1875V82.9531H239.547C239.245 83.5365 238.734 84.0885 238.016 84.6094ZM239.406 82.0625V78.3125C237.781 78.6354 236.63 79.0729 235.953 79.625C235.276 80.1667 234.938 80.8385 234.938 81.6406C234.938 81.9115 235.005 82.1875 235.141 82.4688C235.276 82.75 235.474 82.9844 235.734 83.1719C236.005 83.3594 236.323 83.4531 236.688 83.4531C237.188 83.4531 237.688 83.3073 238.188 83.0156C238.688 82.724 239.094 82.4062 239.406 82.0625Z" fill="#273891"></path><path d="M252.484 83.7656L252.266 85H245.016L245.172 83.8594L247.531 83.2188V73.7344L245.125 72.9219L245.281 71.7344L249.938 71.125L250.203 71.4219L249.938 73.4219H250.094C250.688 72.7135 251.391 72.125 252.203 71.6562C253.016 71.1875 253.88 70.9531 254.797 70.9531C256.016 70.9531 256.948 71.3385 257.594 72.1094C258.24 72.8802 258.562 73.9688 258.562 75.375V83.2188L260.812 83.7656L260.656 85H253.641L253.797 83.8594L255.953 83.2188V75.9844C255.953 75.0156 255.703 74.2969 255.203 73.8281C254.714 73.349 254.057 73.1094 253.234 73.1094C252.651 73.1094 252.089 73.2292 251.547 73.4688C251.005 73.6979 250.542 74.026 250.156 74.4531V83.2188L252.484 83.7656Z" fill="#273891"></path><path d="M270.766 84.9062C269.859 85.2812 268.922 85.4688 267.953 85.4688C266.734 85.4688 265.656 85.1562 264.719 84.5312C263.781 83.8958 263.057 83.0469 262.547 81.9844C262.036 80.9219 261.781 79.7656 261.781 78.5156C261.781 77.026 262.094 75.7083 262.719 74.5625C263.344 73.4062 264.161 72.5156 265.172 71.8906C266.193 71.2552 267.276 70.9375 268.422 70.9375C269.255 70.9375 269.953 71.0469 270.516 71.2656C271.078 71.4844 271.495 71.776 271.766 72.1406C272.047 72.5052 272.188 72.901 272.188 73.3281C272.188 73.7969 272.016 74.1771 271.672 74.4688C271.328 74.7604 270.839 74.9271 270.203 74.9688C269.891 74.2292 269.542 73.6198 269.156 73.1406C268.781 72.651 268.292 72.4062 267.688 72.4062C267.073 72.4062 266.531 72.599 266.062 72.9844C265.604 73.3698 265.245 73.9167 264.984 74.625C264.734 75.3229 264.609 76.1406 264.609 77.0781C264.609 78.026 264.781 79.0052 265.125 80.0156C265.469 81.026 265.99 81.875 266.688 82.5625C267.385 83.25 268.24 83.5938 269.25 83.5938C269.948 83.5938 270.531 83.5104 271 83.3438C271.469 83.1771 271.938 82.9427 272.406 82.6406L272.797 83.5469C272.359 84.0677 271.682 84.5208 270.766 84.9062Z" fill="#273891"></path><path d="M282.719 84.9219C281.833 85.2865 280.88 85.4688 279.859 85.4688C278.849 85.4688 277.891 85.1979 276.984 84.6562C276.089 84.1042 275.365 83.2865 274.812 82.2031C274.26 81.1198 273.984 79.8229 273.984 78.3125C273.984 76.8229 274.297 75.5208 274.922 74.4062C275.557 73.2917 276.37 72.4375 277.359 71.8438C278.349 71.25 279.365 70.9531 280.406 70.9531C281.177 70.9531 281.88 71.1458 282.516 71.5312C283.151 71.9062 283.651 72.4688 284.016 73.2188C284.391 73.9583 284.578 74.8594 284.578 75.9219C284.578 76.1615 284.552 76.4948 284.5 76.9219C284.448 77.3385 284.391 77.6823 284.328 77.9531L276.766 78.0469C276.807 78.9219 276.995 79.7708 277.328 80.5938C277.661 81.4167 278.146 82.0938 278.781 82.625C279.427 83.1458 280.208 83.4062 281.125 83.4062C281.625 83.4062 282.021 83.3958 282.312 83.375C282.604 83.3438 282.943 83.2656 283.328 83.1406C283.714 83.0156 284.161 82.8177 284.672 82.5469L285 83.375C284.375 84.0312 283.615 84.5469 282.719 84.9219ZM281.797 75.3906C281.797 73.4531 281.078 72.4844 279.641 72.4844C279.203 72.4844 278.776 72.6458 278.359 72.9688C277.943 73.2812 277.589 73.7656 277.297 74.4219C277.016 75.0677 276.849 75.8698 276.797 76.8281L281.703 76.4688C281.734 76.3542 281.755 76.1875 281.766 75.9688C281.786 75.7396 281.797 75.5469 281.797 75.3906Z" fill="#273891"></path><path d="M39.444 1.60836C39.72 1.52874 40.015 1.57751 40.3 1.57253C40.567 1.7059 40.869 1.7905 41.085 2.00748C41.451 2.36479 41.621 2.85846 41.858 3.29838C42.66 3.50042 43.199 4.26481 43.262 5.06304C43.389 5.64131 42.847 6.15787 43.061 6.72917C43.221 7.15317 43.452 7.58313 43.325 8.04993C42.939 9.60458 43.402 11.1861 43.372 12.7537C43.37 13.4206 42.964 14.0546 43.151 14.7244C43.289 15.2141 43.286 15.7217 43.276 16.2253C43.3 17.8626 43.15 19.5128 43.444 21.1351C45.197 21.6009 47.028 21.1043 48.791 21.4695C49.454 21.6019 50.111 21.9433 50.453 22.5474C50.973 23.4492 51.086 24.5977 50.708 25.5721C50.506 26.1046 50.056 26.5018 49.53 26.7038C49.004 25.5144 48.179 24.3927 46.983 23.8075C46.083 23.3516 45.046 23.2461 44.051 23.3447C43.439 24.3818 43.575 25.6279 43.548 26.7784C43.472 28.5242 43.364 30.2699 43.34 32.0177C44.534 32.5472 45.728 33.0787 46.932 33.5843C47.546 32.6328 48.133 31.5977 48.192 30.4401C47.854 30.1814 47.442 29.9644 47.001 30.039C46.214 30.1426 45.619 30.7726 45.269 31.4434C44.747 31.2115 44.281 30.7537 44.257 30.1545C44.187 28.9193 45.256 27.7558 46.491 27.6762C47.615 27.5866 48.679 28.0684 49.797 28.0803C50.444 27.5687 50.556 26.7108 50.958 26.0399C51.123 25.7453 51.413 25.5562 51.707 25.4039C51.783 25.0257 51.842 24.6376 51.997 24.2822C52.222 24.0543 52.576 23.9986 52.786 23.7508C52.899 23.477 52.877 23.1645 53.006 22.8948C53.273 22.2986 53.905 21.9761 54.191 21.3929C54.353 21.0953 54.363 20.7499 54.373 20.4215C54.719 20.1229 55.063 19.8223 55.422 19.5387C55.421 19.2032 55.418 18.8658 55.471 18.5324C55.733 18.3921 56.024 18.2547 56.17 17.98C56.449 17.4903 56.505 16.9101 56.778 16.4174C57.031 16.0113 57.501 15.7814 57.705 15.3385C57.809 15.0459 57.773 14.7194 57.902 14.4338C58.075 14.0337 58.402 13.7301 58.622 13.3579C58.816 13.0284 58.761 12.5347 58.417 12.3247C57.847 11.9236 57.146 11.7733 56.555 11.4091C56.068 11.1105 55.612 10.7333 55.304 10.2485C54.901 9.60458 54.935 8.69588 55.47 8.13453C56.144 7.39701 57.254 7.23777 58.183 7.51446C58.279 8.33458 57.817 9.12883 58.029 9.94298C58.206 10.4874 58.6 10.9612 59.093 11.2518C59.318 11.3702 59.621 11.4817 59.85 11.3125C60.496 10.8208 60.744 9.87331 61.574 9.61354C63.194 9.18059 65.067 10.0684 65.759 11.5872C66.031 12.1655 65.98 12.8293 65.759 13.4146C65.601 13.8087 65.771 14.2188 65.838 14.6129C65.913 15.027 66.315 15.229 66.586 15.5057C67.14 16.1596 67.8 16.712 68.427 17.2943C69.817 18.5613 71.235 19.8502 72.226 21.4655C73.038 22.7604 73.511 24.2593 73.601 25.7822C73.747 27.936 73.308 30.1654 72.148 32.0077C71.242 33.4718 69.89 34.6562 68.318 35.3699C66.327 36.2726 64.032 36.4846 61.901 36.0108C59.678 35.5251 57.812 34.1486 55.705 33.3613C55.054 34.3318 54.381 35.2892 53.779 36.2905C57.906 37.7864 62.107 39.1211 66.424 39.9572C68.458 40.3493 70.526 40.5872 72.601 40.5583C73.434 40.5573 74.267 40.5583 75.1 40.5583C75.048 45.085 75.246 49.6086 75.441 54.1292C75.757 61.9383 75.85 69.7932 74.817 77.5575C73.916 84.4022 72.175 91.1792 69.217 97.4396C72.139 97.4386 75.062 97.4406 77.985 97.4396C76.516 100.486 75.068 103.544 73.601 106.591C73.532 106.734 73.441 106.895 73.553 107.044C75.031 110.13 76.5 113.219 77.986 116.3C74.149 116.3 70.312 116.3 66.476 116.3C66.475 118.346 66.477 120.39 66.474 122.436C64.319 121.934 62.175 121.381 60.009 120.924C56.857 120.257 53.672 119.752 50.47 119.402C47.165 121.716 43.635 123.694 40 125.444C36.366 123.693 32.834 121.717 29.53 119.402C26.882 119.694 24.244 120.087 21.628 120.592C18.905 121.107 16.223 121.805 13.525 122.434C13.524 120.389 13.525 118.345 13.524 116.3C9.68801 116.3 5.85101 116.3 2.01401 116.3C3.52901 113.162 5.02201 110.012 6.53401 106.872C5.02501 103.73 3.52601 100.583 2.01901 97.4406C4.94001 97.4386 7.86201 97.4396 10.783 97.4396C7.40901 90.2944 5.62001 82.4942 4.85001 74.6612C4.32901 69.4319 4.27701 64.1688 4.40001 58.9186C4.50601 54.0416 4.83401 49.1697 4.88901 44.2917C4.91401 43.0476 4.89301 41.8025 4.90001 40.5583C6.66901 40.5454 8.44101 40.6041 10.207 40.4648C13.532 40.1911 16.796 39.4257 19.994 38.5031C21.884 37.9556 23.75 37.3276 25.604 36.6717C24.948 35.6207 24.549 34.4213 23.772 33.444C22.217 34.079 20.779 34.9707 19.191 35.5291C18.074 35.9292 16.885 36.1313 15.697 36.1064C13.717 36.1263 11.631 35.7162 10.04 34.4801C9.50301 34.0859 9.11501 33.5385 8.76301 32.9851C8.16201 32.0167 7.34601 31.1597 6.99101 30.057C6.14801 27.4632 6.19401 24.6216 6.95501 22.014C7.34301 20.7151 7.92801 19.458 8.79201 18.403C9.67901 17.358 10.784 16.5309 11.868 15.7038C12.204 15.437 12.667 15.3196 12.896 14.9324C13.164 14.5542 13.169 14.0645 13.014 13.6415C13.047 13.6276 13.115 13.5987 13.148 13.5838C12.792 12.8084 12.92 11.8639 13.465 11.208C14.554 9.84445 16.454 9.26618 18.151 9.53392C18.825 9.73099 18.498 10.7969 19.201 10.9522C19.702 11.001 20.127 10.6367 20.461 10.3073C20.862 9.8763 21.246 9.28111 21.078 8.67099C21.027 8.38037 20.713 8.30771 20.497 8.17534C20.276 8.0768 20.213 7.82499 20.111 7.62991C20.92 7.22284 21.853 7.07454 22.748 7.20592C23.242 7.28853 23.763 7.51247 24.008 7.97329C24.261 8.43909 24.147 9.01139 23.885 9.44832C23.566 9.97782 23.092 10.4038 22.572 10.7342C21.991 11.1035 21.301 11.2349 20.689 11.5404C20.379 11.6947 20.088 11.9734 20.076 12.3407C20.039 12.7447 20.279 13.105 20.566 13.3668C20.867 13.6773 21.313 13.9321 21.348 14.4089C21.594 16.2084 23.32 17.3679 23.537 19.1793C23.263 19.0788 22.97 18.9634 22.806 18.7076C22.331 18.0278 22.283 17.1579 21.871 16.4483C21.632 16.0621 21.195 15.8421 20.974 15.443C20.747 14.9672 20.897 14.389 20.612 13.9331C20.283 13.3598 19.693 13.0194 19.172 12.6432C17.645 13.0354 16.606 14.3999 15.074 14.7682C15.861 13.6296 17.508 13.6166 18.291 12.473C16.92 12.7447 15.79 13.6117 14.699 14.4288C13.049 15.6659 11.25 16.7339 9.80701 18.2239C8.92101 19.1425 8.19701 20.2204 7.72101 21.4048C7.12701 22.859 6.71301 24.3977 6.60701 25.9673C6.52901 27.1059 6.80101 28.2326 7.17201 29.3015C7.56901 30.3824 8.05601 31.4534 8.78701 32.3551C10.114 33.9297 12.064 34.8911 14.078 35.2464C15.8 35.561 17.582 35.3062 19.225 34.7458C19.622 34.6094 19.892 34.2581 20.279 34.1038C20.986 33.8172 21.755 33.7057 22.445 33.3713C23.096 33.0608 23.604 32.5323 24.231 32.1829C24.638 31.946 25.143 31.962 25.536 31.6922C26.94 30.8164 28.305 29.8569 29.823 29.1801C30.617 28.8964 31.455 28.6297 32.309 28.7382C32.82 28.7252 33.234 29.0676 33.717 29.1791C33.603 28.8556 33.466 28.4963 33.125 28.352C32.251 27.9479 31.218 27.9987 30.317 28.2903C28.306 28.9412 26.371 29.8061 24.345 30.4133C21.413 31.316 18.225 31.6076 15.231 30.8283C13.288 30.3137 11.395 29.3174 10.161 27.6991C9.00401 26.2081 8.59601 24.2126 8.93601 22.3733C9.25001 20.9142 10.069 19.6312 10.915 18.4239C11.607 17.4714 12.281 16.4701 13.234 15.7535C13.693 15.4002 14.238 15.1713 14.806 15.0578C14.958 15.4181 15 15.865 15.336 16.1138C15.699 16.0113 15.221 15.2609 15.696 15.227C16.319 15.1235 16.291 15.9964 16.84 16.0969C16.857 15.7635 16.667 15.4928 16.507 15.2191C16.374 14.9991 16.409 14.7363 16.44 14.4955C16.895 14.6109 17.058 15.0777 17.403 15.3385C17.618 15.3166 17.818 15.1564 17.816 14.9274C17.826 14.5214 17.73 14.1183 17.753 13.7112C18.112 13.7371 18.235 14.0775 18.41 14.3322C18.831 14.2287 18.902 13.6017 19.395 13.7012C19.308 14.3352 18.972 14.9045 18.527 15.3564C17.82 16.0671 16.951 16.5846 16.18 17.2196C16.211 17.5879 16.289 17.981 16.57 18.2477C16.753 18.4528 17.04 18.4916 17.295 18.5434C17.142 18.0576 16.657 17.6934 16.755 17.139C17.218 17.0066 17.579 16.6881 17.934 16.3816C18.059 16.7021 18.203 17.0952 18.584 17.1818C18.864 17.141 19.102 16.9101 19.117 16.6234C19.157 16.1118 19.037 15.6022 19.085 15.0897C19.372 15.229 19.533 15.5077 19.728 15.7436C19.818 15.2977 19.576 14.8647 19.689 14.4188C19.995 14.6706 20.345 14.9414 20.442 15.3475C20.541 15.7366 20.34 16.1258 20.09 16.4134C19.374 17.2365 18.365 17.7392 17.645 18.5573C17.222 19.0251 17.133 19.7875 17.482 20.319C17.708 20.6564 18.145 20.6424 18.505 20.6215C18.349 20.311 18.117 20.0492 17.934 19.7566C17.779 19.5227 17.878 19.2371 17.919 18.9863C18.066 19.0062 18.216 19.0151 18.359 19.0559C18.638 19.247 18.826 19.5506 19.146 19.6879C19.041 19.3515 18.804 19.0838 18.664 18.7653C18.56 18.5394 18.671 18.2995 18.743 18.0835C19.106 18.3085 19.163 18.7743 19.476 19.036C19.736 19.247 20.037 18.9405 20.096 18.6867C20.126 18.1263 19.673 17.5849 19.961 17.0335C20.503 17.2027 20.395 17.8666 20.773 18.198C20.872 18.0676 21.009 17.9531 21.054 17.7899C20.953 17.3341 20.605 16.933 20.716 16.4403C21.116 16.7349 21.532 17.1042 21.617 17.6197C21.694 18.1104 21.405 18.5573 21.087 18.9017C20.384 19.6631 19.456 20.2005 18.838 21.0425C18.59 21.378 18.466 21.8547 18.67 22.2409C18.813 22.5126 19.143 22.5693 19.415 22.638C19.323 22.2479 19.083 21.9055 19.022 21.5083C18.981 21.2645 19.224 21.1371 19.381 21.0057C19.598 21.3172 19.747 21.7054 20.114 21.8786C20.189 21.4586 19.954 21.0923 19.867 20.6982C19.891 20.5389 20.001 20.4135 20.078 20.2782C20.32 20.5449 20.49 20.8644 20.688 21.164C20.98 21.0953 21.345 20.938 21.381 20.6006C21.364 20.1368 21.07 19.682 21.29 19.2211C21.498 19.4471 21.611 19.7506 21.847 19.9497C22.053 20.0851 22.301 19.8163 22.235 19.6103C22.149 19.258 22.051 18.9046 22.066 18.5374C22.352 18.6309 22.643 18.7981 22.741 19.1007C22.815 19.6123 22.633 20.1249 22.335 20.5369C21.655 21.5064 20.573 22.0886 19.824 22.9943C19.524 23.3556 19.302 23.8841 19.547 24.33C19.811 24.7331 20.35 24.7331 20.781 24.7411C20.603 24.3857 20.306 24.0802 20.224 23.6841C20.14 23.3566 20.545 22.9515 20.839 23.2322C21.034 23.496 21.125 23.8971 21.528 23.8951C21.531 23.477 21.173 23.2163 21.018 22.8619C20.918 22.637 21.054 22.4141 21.144 22.213C21.423 22.419 21.578 22.7346 21.814 22.9794C22.06 23.1794 22.398 22.9575 22.524 22.7236C22.706 22.4768 22.516 22.1901 22.441 21.9423C22.339 21.7054 22.324 21.4456 22.333 21.1918C22.717 21.1889 22.846 21.588 23.098 21.799C23.096 21.376 22.964 20.9679 22.945 20.5459C23.51 20.7041 23.706 21.3053 24.063 21.7044C23.337 23.1516 21.826 23.9906 20.98 25.3532C20.821 25.6269 20.7 26.0001 20.891 26.2888C21.024 26.4619 21.214 26.6471 21.451 26.6341C21.515 26.2171 21.233 25.815 21.353 25.4C21.413 25.2765 21.531 25.1083 21.692 25.1551C22.085 25.1402 22.21 25.7045 22.597 25.6548C22.626 25.1501 22.058 24.759 22.324 24.2404C22.731 24.329 22.81 24.7809 23.12 24.9909C23.325 24.974 23.516 24.7938 23.503 24.5808C23.502 24.1399 23.225 23.7378 23.284 23.2919C23.356 23.1834 23.452 23.1576 23.572 23.2133C23.745 23.5129 23.773 23.91 24.107 24.0941C24.177 23.9618 24.258 23.8334 24.299 23.688C24.281 23.2531 24.051 22.8341 24.178 22.3932C24.952 22.849 24.85 23.9438 24.423 24.6047C23.736 25.5403 22.654 26.0967 21.968 27.0342C21.77 27.305 21.638 27.6732 21.776 27.9987C21.919 28.3022 22.187 28.5511 22.5 28.6745C22.706 28.6406 22.85 28.4764 23.006 28.354C22.722 28.0922 22.266 28.0146 22.083 27.6573C22.031 27.2164 22.395 26.9118 22.663 26.6212C22.885 26.8033 23.024 27.0551 23.183 27.289C23.31 27.506 23.59 27.4572 23.802 27.4881C23.795 26.9576 23.169 26.7894 23.108 26.2818C23.549 26.2669 23.875 26.5864 24.273 26.7098C24.489 26.6351 24.609 26.3972 24.539 26.1813C24.434 25.8269 24.208 25.4995 24.254 25.1123C24.607 25.1422 24.788 25.4338 24.993 25.6767C25.181 25.9235 25.603 25.6488 25.551 25.382C25.481 25.0227 25.312 24.6893 25.235 24.331C25.581 24.4783 25.865 24.7878 25.852 25.182C25.914 25.6329 25.722 26.0658 25.403 26.3773C24.611 27.2492 23.539 27.8782 22.954 28.9263C22.818 29.194 22.637 29.5414 22.839 29.8231C23.003 30.0311 23.295 30.039 23.53 30.1117C23.706 29.623 23.41 29.0348 23.735 28.6028C24.136 28.4724 24.361 28.8994 24.646 29.0875C24.518 28.7063 24.347 28.3311 24.358 27.921C24.837 28.0435 25.193 28.5939 25.731 28.3729C25.716 27.8504 25.297 27.4224 25.393 26.8899C25.947 26.9377 26.054 27.5229 26.213 27.9449C26.478 27.8782 26.777 27.7668 27.032 27.928C27.391 28.135 27.762 28.346 28.189 28.363C28.245 27.9051 27.829 27.6006 27.792 27.1626C27.996 27.2034 28.249 27.1815 28.398 27.3567C28.613 27.6145 28.772 27.9151 29.006 28.1589C29.901 27.8245 30.835 27.5508 31.796 27.516C32.407 27.4752 33.009 27.715 33.494 28.0713C34.215 28.6486 34.461 29.6001 34.559 30.476C33.554 30.3327 32.626 29.8002 31.593 29.832C31.197 29.828 30.828 29.9863 30.482 30.1625C31.001 31.4892 31.64 32.7652 32.326 34.0123C33.483 33.5176 34.629 33.001 35.772 32.4765C35.772 30.1455 35.686 27.8106 35.82 25.4816C35.819 24.8585 35.882 24.2106 35.671 23.6124C35.545 23.2581 35.15 23.1088 34.803 23.0769C33.532 22.9734 32.279 23.4333 31.236 24.1329C30.838 24.4285 30.281 24.555 30.058 25.0377C29.723 25.6567 29.352 26.3714 28.595 26.5366C28.347 26.2698 28.143 25.9514 28.097 25.5841C27.942 24.6067 28.193 23.6204 28.484 22.6918C28.621 22.1135 29.223 21.8388 29.736 21.6636C31.725 21.0953 33.855 21.6019 35.841 21.0157C36.066 20.9191 36.41 20.8694 36.453 20.5787C36.535 20.1547 36.362 19.7357 36.372 19.3107C36.365 18.9265 36.629 18.5961 36.628 18.2139C36.583 17.7939 36.273 17.4435 36.276 17.0146C36.302 16.5398 36.56 16.1188 36.621 15.651C36.683 15.0847 36.307 14.595 36.279 14.0396C36.29 13.6972 36.43 13.3738 36.449 13.0324C36.477 12.5606 36.271 12.1127 36.28 11.643C36.313 11.2339 36.516 10.8597 36.549 10.4516C36.512 10.0137 36.272 9.61752 36.26 9.17461C36.117 7.4627 36.165 5.6642 36.892 4.0757C37.395 2.9759 38.309 2.05425 39.444 1.60836ZM38.951 2.52901C38.398 2.65143 37.858 3.07444 37.871 3.68654C38.121 3.73233 38.389 3.8229 38.635 3.70943C39.138 3.51336 39.302 2.81466 39.875 2.76291C40.29 2.81466 40.646 3.08538 41.074 3.08041C40.613 2.41157 39.677 2.34289 38.951 2.52901ZM37.2 5.58059C37.216 6.23152 36.807 6.80382 36.823 7.45474C36.814 8.52469 37.061 9.5807 37.024 10.6516C37.027 11.0906 36.706 11.4419 36.657 11.8689C36.681 12.3038 36.912 12.698 36.925 13.1349C36.943 13.539 36.829 13.9341 36.832 14.3382C36.868 14.7473 37.12 15.1126 37.102 15.5306C37.059 15.9466 36.689 16.28 36.75 16.715C36.811 17.2952 37.191 17.7999 37.192 18.3921C37.158 19.0719 36.689 19.7019 36.87 20.3966C36.918 20.733 37.153 20.9888 37.4 21.2028C38.179 20.8753 39.049 20.9122 39.868 21.0366C40.046 20.8325 40.21 20.6166 40.371 20.3996C40.561 20.5976 40.756 20.7967 41.002 20.9271C41.153 20.5658 41.275 20.1518 41.616 19.9189C41.864 19.7367 42.185 19.7357 42.479 19.7088C42.415 19.5048 42.344 19.3038 42.268 19.1037C41.828 19.1236 41.517 19.461 41.14 19.6372C41.172 18.8479 41.12 17.9462 41.689 17.3161C42.037 17.6237 42.218 18.0557 42.483 18.4269C42.65 17.775 42.193 17.1758 42.285 16.5249C42.367 15.647 42.822 14.6965 42.306 13.8674C41.278 14.1591 40.382 14.7692 39.371 15.1026C38.9 15.2638 38.404 15.3415 37.908 15.3703C37.4 14.9404 37.291 14.2188 37.49 13.6087C37.876 13.5091 38.248 13.1518 38.659 13.2772C38.819 13.6107 38.754 14.0048 38.91 14.3392C39.113 14.602 39.644 14.6985 39.802 14.3362C40.033 13.7888 39.861 13.0871 40.339 12.6442C40.408 13.0722 40.43 13.5071 40.519 13.9321C40.711 13.9321 40.903 13.9301 41.096 13.9262C41.228 13.5121 41.239 13.0752 41.342 12.6552C41.401 12.3665 41.769 12.1635 42.031 12.3108C42.244 12.5626 42.305 12.904 42.466 13.1877C42.689 12.5636 42.393 11.9386 42.1 11.3951C42.3 11.0169 42.561 10.5989 42.376 10.1619C42.24 10.4994 42.164 10.8766 41.908 11.1513C41.397 11.7216 40.622 11.9624 40.105 12.5308C39.335 12.3616 38.696 12.9926 37.929 12.9269C37.446 12.487 37.236 11.7186 37.617 11.1493C37.92 11.4379 37.815 11.9624 38.222 12.1625C38.382 11.7674 38.252 11.3543 38.251 10.9482C38.218 10.7233 38.467 10.6556 38.608 10.5481C38.723 10.991 38.685 11.4648 38.846 11.8958C39.154 12.0749 39.615 12.1107 39.855 11.8022C40.228 11.3185 40.18 10.6705 40.277 10.0992C40.73 10.4864 40.352 11.0906 40.495 11.5862C40.736 11.5683 40.976 11.5375 41.214 11.4947C41.26 10.9373 41.208 10.3033 41.577 9.83748C41.766 9.57671 42.107 9.56477 42.398 9.52496C42.337 9.27116 42.264 9.02034 42.159 8.78147C40.761 9.68321 39.118 10.0893 37.495 10.367C37.229 9.71008 37.164 8.66502 37.959 8.35349C38.073 8.76057 38.078 9.18357 38.093 9.6016C38.655 9.21144 38.207 8.35051 38.802 7.99121C38.89 8.41222 38.868 8.84318 38.908 9.26917C39.25 9.35476 39.698 9.64141 40.011 9.36273C40.293 8.8611 40.017 8.23804 40.26 7.72248C40.35 7.59209 40.525 7.56124 40.655 7.48161C40.852 7.99419 40.299 8.52767 40.689 8.99048C41.257 8.59336 41.055 7.8439 41.114 7.25767C41.546 7.23279 41.994 7.3572 42.284 7.69162C42.306 7.94642 42.261 8.20121 42.265 8.45601C42.737 8.11363 42.793 7.45375 42.619 6.93918C42.561 6.85358 42.531 6.64755 42.388 6.69831C41.141 6.89837 40.029 7.56422 38.794 7.81504C38.337 7.91656 37.867 7.92253 37.402 7.91258C37.235 7.51545 37.101 7.05364 37.277 6.63561C37.35 6.41764 37.586 6.34598 37.775 6.2574C37.935 6.60675 37.884 6.99093 37.874 7.36118C38.065 7.36417 38.256 7.36715 38.448 7.37014C38.657 6.93818 38.526 6.44849 38.636 5.99464C38.982 6.12303 39.029 6.50821 39.201 6.7859C39.306 6.96406 39.548 6.8924 39.718 6.93022C39.923 6.52911 39.807 5.94786 40.27 5.71496C40.342 6.00061 40.375 6.29323 40.399 6.58684C41.26 6.21062 40.896 4.99038 41.668 4.54648C41.877 4.44396 42.05 4.12447 41.804 3.96324C41.43 3.71441 40.94 3.96423 40.63 4.21107C40.585 4.46686 40.601 4.72961 40.587 4.98839C39.612 5.23025 38.71 5.77866 37.685 5.79558C37.136 5.24717 37.603 4.42207 37.614 3.76318C37.068 4.21604 37.217 4.95953 37.2 5.58059ZM38.104 4.67786C38.045 4.89782 38.275 5.01228 38.411 5.13271C38.477 4.8391 38.514 4.54051 38.544 4.24192C38.367 4.34941 38.132 4.44297 38.104 4.67786ZM39.077 4.74753C39.234 4.75251 39.418 4.83412 39.562 4.72962C39.732 4.63407 39.771 4.42406 39.849 4.26282C39.7 4.25784 39.551 4.26282 39.403 4.27775C39.205 4.35041 39.162 4.58132 39.077 4.74753ZM42.271 4.80824C42.191 5.0929 42.102 5.37755 42.057 5.67017C41.982 5.87122 42.182 5.97274 42.3 6.09218C42.538 5.69207 42.523 5.19741 42.271 4.80824ZM22.534 8.09372C22.315 8.65407 22.459 9.27713 22.566 9.84943C22.773 9.76682 23.03 9.72004 23.142 9.50207C23.369 9.11191 23.359 8.61824 23.235 8.19524C23.094 7.98623 22.672 7.78418 22.534 8.09372ZM57.53 10.0137C57.63 9.30898 57.76 8.5635 57.489 7.87973C56.632 8.27188 56.769 9.59065 57.53 10.0137ZM55.601 9.07508C55.463 9.45628 55.654 9.86037 55.882 10.1639C56.425 10.8557 57.248 11.3324 58.13 11.424C57.671 10.9821 57.201 10.5372 56.873 9.98578C56.553 9.49012 56.397 8.91584 56.281 8.34454C56.011 8.53862 55.702 8.73867 55.601 9.07508ZM21.728 9.73895C22.024 9.40055 22.33 8.89095 21.956 8.48885C21.738 8.86408 21.567 9.30898 21.728 9.73895ZM15.292 10.5083C15.323 10.7462 15.402 11.001 15.302 11.2339C15.188 11.5623 14.897 11.7733 14.629 11.9724C14.595 11.6907 14.547 11.412 14.483 11.1363C14.063 11.3464 13.676 11.6788 13.547 12.1456C13.448 12.4183 13.532 12.7029 13.601 12.9717C14.828 12.4481 16.156 12.1506 17.299 11.4419C17.673 11.205 18.112 10.9681 18.287 10.5382C18.315 10.2615 18.02 10.145 17.84 10.0037C17.785 10.3023 17.702 10.5939 17.611 10.8825C17.104 11.1214 16.609 11.3961 16.058 11.5245C16.08 10.9791 16.485 10.5431 16.475 9.99175C16.034 10.0365 15.647 10.2565 15.292 10.5083ZM60.952 10.7183C61.066 10.8079 61.178 10.9034 61.305 10.9751C61.566 10.779 61.667 10.4585 61.768 10.1649C61.414 10.2107 61.091 10.3759 60.952 10.7183ZM62.252 10.4058C61.715 10.7313 61.478 11.4389 61.679 12.0271C62.41 11.7475 62.727 10.997 63.006 10.3302C62.753 10.3093 62.478 10.2605 62.252 10.4058ZM62.843 12.7328C63.097 12.5885 63.37 12.4342 63.511 12.1665C63.732 11.7594 63.771 11.2876 63.789 10.8338C62.938 10.9363 62.447 11.9983 62.843 12.7328ZM64.48 12.6084C64.214 12.7965 63.849 12.8393 63.671 13.1409C63.974 13.2842 64.357 13.4434 64.662 13.2135C65.368 12.6562 65.352 11.2777 64.432 10.9353C64.058 11.4738 64.713 12.046 64.48 12.6084ZM19.23 11.9525C19.702 11.8968 20.218 11.7654 20.461 11.3125C19.982 11.3653 19.585 11.6509 19.23 11.9525ZM59.005 11.9933C59.219 12.1366 59.466 12.2103 59.725 12.1914C59.619 12.0779 59.532 11.9306 59.382 11.8719C59.242 11.8341 59.124 11.9455 59.005 11.9933ZM18.515 12.4004C18.714 12.3655 18.902 12.2979 18.974 12.0908C18.77 12.1137 18.569 12.1705 18.515 12.4004ZM16.061 12.8104C16.4 12.7856 16.691 12.6074 16.83 12.2929C16.508 12.3536 16.219 12.5158 16.061 12.8104ZM58.607 14.3482C58.206 14.8767 58.047 15.5385 58.063 16.1935C57.725 16.3358 57.374 16.4443 57.033 16.5766C56.944 17.1012 56.903 17.6337 56.78 18.1522C56.375 18.3662 55.936 18.5941 55.712 19.0141C55.522 19.3346 55.521 19.7158 55.517 20.0771C54.381 20.5976 54.698 22.2817 53.522 22.7545C53.476 23.063 53.435 23.3835 53.273 23.6572C52.978 24.1857 52.454 24.547 52.188 25.0934C52.056 25.3592 52.021 25.6567 51.978 25.9464C51.811 26.0469 51.632 26.1335 51.483 26.2599C51.312 26.5376 51.243 26.867 51.062 27.1397C50.886 27.4543 50.591 27.6712 50.298 27.8683C50.351 28.0693 50.411 28.2694 50.477 28.4675C51.165 28.4884 51.606 29.2229 52.32 29.0806C51.919 28.556 51.457 27.9629 51.533 27.2632C51.568 26.8481 51.954 26.6073 52.295 26.445C52.375 26.9228 52.184 27.3876 52.206 27.8633C52.22 28.1002 52.457 28.1848 52.641 28.2684C52.827 27.9917 52.954 27.6244 53.332 27.5697C53.396 28.0305 53.251 28.4754 53.148 28.9183C53.55 28.8307 53.933 28.6566 54.351 28.6416C54.231 28.9213 53.994 29.1492 53.926 29.4488C53.973 29.7136 54.21 29.9505 54.495 29.9206C54.57 29.7633 54.62 29.5961 54.681 29.4339C55.259 29.4986 55.431 30.256 56.057 30.2142C55.895 29.3234 55.136 28.7392 54.508 28.1589C53.84 27.5369 53.036 26.9606 52.713 26.0728C52.506 25.5363 52.786 24.9819 53.155 24.5948C53.616 25.0566 53.261 25.7244 53.332 26.2858C53.708 26.1186 53.903 25.6776 54.336 25.6269C54.284 26.0499 53.999 26.3754 53.817 26.7456C54.002 26.9914 54.258 27.1666 54.537 27.292C54.782 27.0731 55.036 26.8531 55.358 26.7546C55.381 27.1985 55.123 27.5717 54.97 27.9688C55.135 28.141 55.311 28.3032 55.51 28.4386C55.934 27.9559 56.574 28.2893 57.109 28.2803C56.871 27.4433 56.116 26.9238 55.495 26.3744C54.825 25.7851 54.041 25.2009 53.778 24.3081C53.581 23.7209 53.952 23.1347 54.347 22.7276C54.747 22.643 54.79 23.2143 54.732 23.487C54.715 23.8463 54.308 23.8373 54.045 23.8921C54.017 24.118 54.127 24.3171 54.223 24.5131C54.432 24.4922 54.683 24.5022 54.808 24.3002C54.99 24.0424 55.217 23.8144 55.558 23.8095C55.463 24.2215 55.197 24.5689 55.1 24.9799C55.035 25.2377 55.192 25.603 55.506 25.5562C56.018 25.5313 56.202 24.9093 56.705 24.8426C56.495 25.2825 56.116 25.6538 56.05 26.1534C56.104 26.4828 56.464 26.5655 56.727 26.6749C57.129 26.2977 57.536 25.8459 58.139 25.8459C57.331 24.55 55.953 23.7866 54.973 22.647C54.993 22.1662 54.91 21.6636 55.086 21.2038C55.167 20.956 55.421 20.8475 55.629 20.728C55.834 21.3192 55.456 21.8657 55.347 22.432C55.814 22.2658 56.009 21.7313 56.501 21.6019C56.379 22.0548 56.108 22.4827 56.139 22.9645C56.162 23.3327 56.566 23.5179 56.896 23.492C57.208 23.2431 57.185 22.6718 57.664 22.637C57.682 23.1297 57.381 23.5348 57.257 23.9906C57.166 24.2265 57.42 24.3479 57.565 24.4763C57.887 24.3738 58.195 24.2295 58.518 24.129C58.829 24.0125 59.123 24.2225 59.4 24.332C58.926 23.1486 57.81 22.432 56.991 21.5083C56.567 21.0376 56.107 20.4812 56.148 19.8094C56.163 19.4043 56.425 19.0719 56.7 18.7962C56.765 19.0121 56.901 19.252 56.778 19.475C56.649 19.7686 56.447 20.0821 56.656 20.3936C56.861 20.1826 56.972 19.8999 57.18 19.6929C57.303 19.6442 57.436 19.6233 57.566 19.5924C57.355 20.0413 57.076 20.5379 57.247 21.0465C57.353 21.374 57.694 21.5034 57.995 21.5929C58.215 21.2545 58.364 20.8465 58.732 20.6335C58.785 21.1918 58.385 21.6447 58.325 22.1782C58.374 22.5235 58.796 22.5066 59.059 22.5604C59.327 21.9751 60.023 21.9682 60.546 21.7592C59.898 20.7479 58.785 20.1906 57.932 19.3774C57.529 18.9942 57.068 18.5125 57.153 17.9093C57.223 17.4326 57.649 17.14 58.017 16.8852C58.103 17.4824 57.683 17.9671 57.618 18.5404C57.782 18.5025 57.97 18.5155 58.12 18.4259C58.364 18.2239 58.428 17.8884 58.639 17.6605C58.764 17.568 58.924 17.5481 59.069 17.5003C58.96 18.0427 58.635 18.5453 58.674 19.1107C58.692 19.4411 59.047 19.5486 59.299 19.6631C59.518 19.2799 59.594 18.6578 60.138 18.622C60.209 19.2003 59.799 19.6322 59.573 20.1189C59.715 20.2553 59.854 20.3936 59.99 20.5359C60.314 20.3906 60.53 20.108 60.782 19.8731C60.979 19.6919 61.265 19.7148 61.513 19.675C60.965 18.3533 59.406 17.9263 58.67 16.7538C58.333 16.1974 58.526 15.4967 58.903 15.012C59.196 15.3524 58.894 15.7476 58.889 16.1248C58.97 16.2492 59.112 16.4154 59.265 16.283C59.455 16.1089 59.568 15.8481 59.831 15.7615C59.885 16.2402 59.79 16.7329 59.907 17.2047C59.951 17.4505 60.189 17.564 60.39 17.6665C60.648 17.3649 60.832 17.0006 61.163 16.7658C61.122 17.2584 61.06 17.7491 61.072 18.2448C61.531 17.9621 61.948 17.6068 62.462 17.4217C62.179 16.9927 61.801 16.6364 61.379 16.3447C60.625 15.7993 59.669 15.2469 59.53 14.2377C59.41 13.7998 59.719 13.329 59.487 12.9209C59.245 13.4275 58.95 13.9043 58.607 14.3482ZM14.819 13.3628C14.718 13.4852 14.756 13.6544 14.744 13.7988C15.046 13.6684 15.287 13.4375 15.404 13.1289C15.204 13.1837 14.958 13.1867 14.819 13.3628ZM61.578 13.4285C62.463 14.2964 63.527 14.9553 64.509 15.7058C65.951 16.7687 67.37 17.9123 68.432 19.3675C69.388 20.6693 69.97 22.2688 69.928 23.8921C69.958 25.4587 69.394 26.9984 68.486 28.2644C67.169 30.1067 65.169 31.4563 62.958 31.9809C61.525 32.3312 60.024 32.2546 58.583 31.9888C56.373 31.5798 54.297 30.688 52.242 29.8121C50.687 29.1642 49.113 28.4565 47.415 28.2953C46.649 28.2276 45.779 28.3032 45.193 28.8546C44.79 29.2269 44.652 29.7783 44.578 30.2998C44.702 30.3058 44.828 30.3287 44.954 30.3098C45.213 30.1386 45.318 29.8121 45.582 29.6439C46.204 29.2259 46.989 29.1025 47.726 29.1861C49.042 29.3403 50.241 29.9515 51.398 30.5576C53.028 31.4653 54.819 32.0565 56.413 33.0329C58.446 34.2511 60.6 35.4226 62.992 35.7172C64.637 35.9352 66.356 35.6645 67.811 34.8533C69.407 34.0093 70.643 32.6019 71.477 31.0244C72.468 29.1542 72.91 26.9745 72.591 24.8754C72.346 23.1367 71.566 21.4984 70.476 20.1269C69.567 18.9514 68.451 17.9561 67.295 17.0285C65.961 15.9526 64.658 14.808 63.129 14.0108C62.634 13.7669 62.134 13.4992 61.578 13.4285ZM59.981 13.5937C59.814 13.9282 59.852 14.3064 60.095 14.593C60.392 14.4487 60.67 14.2646 60.987 14.163C61.016 14.5024 60.955 14.8558 61.063 15.1842C61.115 15.3475 61.299 15.3883 61.433 15.4649C61.55 15.3086 61.658 15.1394 61.815 15.018C62.126 15.3912 61.786 15.9048 61.986 16.3278C62.325 16.2004 62.831 16.0651 62.83 15.6202C62.767 15.2459 62.455 14.9842 62.185 14.7463C61.53 14.2317 60.781 13.8316 59.981 13.5937ZM12.921 16.9459C12.016 17.767 11.346 18.8021 10.72 19.8392C9.51301 21.9214 9.22101 24.6346 10.388 26.7974C11.109 28.1788 12.465 29.0905 13.874 29.6768C15.776 30.467 17.845 30.7955 19.898 30.8303C20.449 30.8174 21.02 30.8004 21.536 30.5875C21.815 30.475 22.086 30.1913 21.983 29.8698C21.79 29.3155 21.246 28.9731 21.025 28.4316C20.911 28.1082 20.976 27.7429 20.826 27.4304C20.644 27.1547 20.368 26.9546 20.192 26.6749C20.018 26.3843 20.027 26.028 19.88 25.7264C19.621 25.2596 19.082 25.0247 18.847 24.54C18.438 23.6532 18.272 22.6669 17.788 21.8119C17.537 21.3471 17.057 21.0674 16.784 20.6205C16.534 20.1936 16.703 19.6571 16.48 19.2241C16.173 18.7733 15.614 18.5563 15.335 18.0785C15.153 17.7839 15.168 17.4256 15.196 17.0952C14.995 16.7578 14.713 16.4084 14.298 16.3527C13.768 16.29 13.302 16.6204 12.921 16.9459ZM63.238 18.1462C62.7 19.2868 62.422 20.5519 61.704 21.6049C60.717 22.9137 60.083 24.4375 59.279 25.8558C58.458 27.4523 57.244 28.8636 56.763 30.6213C58.159 31.6007 59.946 31.8356 61.61 31.6474C63.192 31.4603 64.765 30.9557 66.069 30.0281C66.997 29.3274 67.74 28.4107 68.387 27.4543C68.991 26.5694 69.438 25.5672 69.572 24.4992C69.792 23.0162 69.361 21.4944 68.552 20.2493C67.543 18.6827 66.091 17.4605 64.57 16.4084C63.98 16.8583 63.545 17.4774 63.238 18.1462ZM41.963 21.3372C42.235 21.3113 42.325 21.0764 42.391 20.8524C42.145 20.9102 42.008 21.0963 41.963 21.3372ZM30.653 21.9264C29.976 22.0796 29.26 22.3543 28.866 22.9585C28.572 23.3984 28.579 23.9488 28.619 24.4544C29.684 23.5736 30.866 22.7564 32.241 22.4618C33.556 22.1851 34.989 22.2648 36.195 22.8918C37.518 23.5606 38.515 24.6863 39.728 25.5144C40.769 24.5231 41.697 23.3646 42.992 22.6848C44.269 22.002 45.871 21.997 47.17 22.6271C47.922 22.9724 48.584 23.4721 49.266 23.9339C49.221 23.7189 49.165 23.5059 49.147 23.2879C49.311 23.0033 49.622 23.2511 49.771 23.4213C50.031 23.7965 49.827 24.2653 49.792 24.6764C49.728 24.978 49.801 25.2805 49.946 25.5473C50.537 25.1432 50.781 24.3758 50.601 23.694C50.442 22.9217 49.753 22.4031 49.062 22.1115C47.84 21.6178 46.497 21.588 45.198 21.5571C43.198 21.5551 41.198 21.6915 39.2 21.585C37.63 21.5233 36.057 21.5332 34.487 21.6089C33.207 21.6676 31.911 21.6547 30.653 21.9264ZM36.399 23.7816C36.271 24.4654 36.118 25.172 36.29 25.8628C37.115 26.0389 37.969 26.2828 38.61 26.8571C39.137 27.3089 39.393 27.9818 39.508 28.6476C39.262 28.3331 39.025 28.0056 38.718 27.7459C38.051 27.1596 37.219 26.8093 36.391 26.5127C36.061 28.4028 36.178 30.3287 36.29 32.2327C37.552 31.6524 38.781 31.0065 40.024 30.3884C40.091 29.3792 40.158 28.3202 40.648 27.4125C41.182 26.4759 42.356 26.2181 43.001 25.391C43.167 24.967 43.107 24.4226 42.815 24.0663C42.138 24.0046 41.438 24.2653 40.986 24.7729C40.429 25.389 40.163 26.1912 39.731 26.8889C38.893 26.2589 38.471 25.2686 37.754 24.5301C37.388 24.1509 36.906 23.91 36.399 23.7816ZM41.459 27.5199C40.768 28.4038 40.528 29.5344 40.371 30.6193C41.328 31.0742 42.282 31.537 43.25 31.9709C43.249 30.1744 43.305 28.362 42.977 26.5864C42.392 26.7356 41.83 27.0342 41.459 27.5199ZM26.036 29.1871C26.424 29.0627 26.876 29.0338 27.187 28.7461C27.365 28.5849 27.244 28.3421 27.215 28.147C26.662 28.2485 26.169 28.6257 26.036 29.1871ZM26.984 31.3419C26.193 31.8475 25.271 32.171 24.594 32.8398C24.304 33.1056 24.391 33.5276 24.515 33.853C24.874 34.8065 25.508 35.6247 25.927 36.5503C26.752 36.2467 27.576 35.9412 28.393 35.6177C28.086 35.1708 27.705 34.7249 27.155 34.5876C26.368 34.3606 25.441 34.3447 24.864 33.6788C25.447 33.646 26.044 33.656 26.603 33.8421C27.491 34.1048 28.181 34.7697 28.723 35.4913C29.829 35.0583 30.926 34.6025 32.021 34.1446C31.544 33.1842 31.153 32.1322 30.375 31.3648C30.001 30.9607 29.289 31.2135 29.149 31.7131C28.867 32.5462 29.131 33.431 29.091 34.286C28.59 33.9038 28.503 33.2409 28.582 32.6567C28.644 32.1411 28.733 31.6216 28.899 31.1299C29.196 30.8303 29.693 30.7357 29.84 30.2968C28.771 30.1684 27.853 30.8253 26.984 31.3419ZM48.779 30.9258C48.331 31.8883 47.802 32.8099 47.27 33.7276C48.316 34.1655 49.366 34.5935 50.42 35.0125C51.004 34.1407 52.042 33.5753 53.096 33.5903C53.442 33.5704 53.672 33.8461 53.806 34.1267C53.266 34.1018 52.707 34.06 52.19 34.2511C51.669 34.4193 51.255 34.7976 50.9 35.1987C51.75 35.5281 52.601 35.8585 53.46 36.1691C54.051 35.1131 54.577 34.0232 55.056 32.9125C53.888 32.2476 52.72 31.5668 51.464 31.0741C50.716 30.7965 49.925 30.5257 49.116 30.5984C48.918 30.5845 48.851 30.7835 48.779 30.9258ZM30.132 37.45C25.62 39.2396 21.01 40.8201 16.264 41.8741C13.299 42.526 10.268 42.962 7.22501 42.8724C7.23501 44.4768 7.22401 46.0803 7.16201 47.6827C6.99901 52.5228 6.71301 57.359 6.70001 62.2021C6.65501 67.2204 6.85401 72.2486 7.50501 77.2281C8.51701 85.078 10.723 92.8483 14.62 99.7796C11.66 99.7766 8.70101 99.7795 5.74101 99.7786C6.84101 102.102 7.96201 104.415 9.06401 106.737C9.15101 106.862 9.06701 106.993 9.01601 107.115C7.91801 109.394 6.83101 111.678 5.74001 113.962C9.11801 113.962 12.497 113.962 15.875 113.962C15.876 115.798 15.874 117.634 15.876 119.471C20.57 118.308 25.344 117.455 30.159 116.978C33.255 119.217 36.568 121.151 40 122.833C43.432 121.151 46.744 119.216 49.841 116.978C54.656 117.455 59.43 118.308 64.124 119.471C64.126 117.634 64.124 115.798 64.125 113.962C67.503 113.961 70.882 113.963 74.261 113.961C73.146 111.595 71.981 109.251 70.892 106.875C71.064 106.384 71.335 105.933 71.546 105.458C72.449 103.564 73.361 101.675 74.259 99.7786C71.3 99.7795 68.34 99.7766 65.381 99.7796C68.784 93.7152 70.914 86.9999 72.056 80.1632C73.295 72.8567 73.438 65.4169 73.228 58.0258C73.107 52.9737 72.728 47.9275 72.775 42.8724C69.714 42.9719 66.675 42.4584 63.704 41.7696C59.521 40.7843 55.437 39.4217 51.422 37.9029C47.547 36.4289 43.725 34.8125 39.985 33.0259C36.773 34.6542 33.473 36.1054 30.132 37.45Z" fill="#273891"></path><path d="M41.339 15.0717C41.425 14.8726 41.666 14.8458 41.842 14.7642C42.099 15.1205 42.328 15.5594 42.196 16.0113C42.028 16.5577 41.51 16.8921 41.028 17.1429C39.989 17.6416 38.846 17.8874 37.705 18.0009C37.499 17.4435 37.187 16.8384 37.447 16.2422C38.089 16.3258 37.868 17.1419 38.361 17.4097C38.277 16.8652 38.072 16.276 38.318 15.7465C38.416 15.5345 38.668 15.5236 38.866 15.4708C38.898 16.1068 38.75 17.0026 39.478 17.3091C40.215 16.7936 39.841 15.7286 40.439 15.1195C40.517 15.7067 40.535 16.3079 40.724 16.8742C41.371 16.49 41.045 15.644 41.339 15.0717Z" fill="#273891"></path><path d="M39.834 19.7298C40.231 19.2102 40.158 18.5155 40.276 17.9064C40.855 18.3324 40.287 19.0868 40.617 19.6302C39.971 20.4981 38.776 20.6882 37.761 20.6146C37.444 20.3319 37.384 19.8472 37.452 19.4491C37.485 19.2341 37.667 18.9047 37.924 19.0749C38.06 19.2659 38.14 19.4889 38.263 19.688C38.502 19.2092 38.301 18.6459 38.553 18.1701C38.891 18.6638 38.766 19.2938 38.941 19.8422C39.236 19.893 39.613 20.0055 39.834 19.7298Z" fill="#273891"></path><path d="M23.569 19.3396C23.883 19.456 24.221 19.5964 24.395 19.9019C24.635 20.2642 24.691 20.7032 24.768 21.1202C25.264 21.5143 25.486 22.1493 25.38 22.7704C24.503 21.796 23.976 20.5698 23.569 19.3396Z" fill="#273891"></path><path d="M25.422 23.0242C25.771 23.1605 26.104 23.3695 26.294 23.703C26.733 24.4096 26.864 25.3621 27.652 25.805C27.638 26.2917 27.778 26.7934 27.598 27.2651C27.073 25.7483 25.824 24.5918 25.422 23.0242Z" fill="#273891"></path><path d="M13.246 32.6119C14.212 32.7642 15.099 33.4052 16.111 33.2081C16.904 33.0578 17.723 32.7961 18.527 33.0529C18.391 33.5007 18.134 33.9237 17.717 34.1636C16.831 34.715 15.711 34.8195 14.705 34.5876C14.152 34.4483 13.574 34.1537 13.331 33.6102C13.181 33.2987 13.229 32.9444 13.246 32.6119ZM13.895 33.4619C14.73 34.504 16.483 34.5408 17.425 33.6232C16.254 33.4719 15.069 33.5893 13.895 33.4619Z" fill="#273891"></path><path d="M64.504 33.5246C65.098 33.3435 65.652 33.0021 66.286 32.9692C66.624 32.9404 66.951 33.0419 67.271 33.1384C67.241 33.5246 67.171 33.9347 66.895 34.2283C66.313 34.9051 65.341 35.0594 64.493 35.0026C63.675 34.9439 62.813 34.6413 62.336 33.9386C62.969 33.4539 63.798 33.7724 64.504 33.5246ZM63.377 34.3238C64.116 34.709 65.033 34.7866 65.804 34.4492C66.136 34.3208 66.349 34.0242 66.473 33.7038C65.406 33.5545 64.327 33.8491 63.377 34.3238Z" fill="#273891"></path><path d="M31.413 37.9388C34.319 36.7474 37.191 35.4724 39.998 34.0651C43.453 35.7023 46.977 37.1923 50.545 38.5688C54.808 40.1961 59.145 41.6602 63.593 42.7032C66.295 43.3203 69.047 43.7951 71.826 43.822C71.848 48.7258 72.192 53.6217 72.303 58.5235C72.492 65.2268 72.348 71.966 71.354 78.6096C70.617 83.5572 69.393 88.4461 67.531 93.0972C65.956 97.0366 63.913 100.794 61.425 104.237C47.362 101.17 32.637 101.17 18.575 104.237C14.763 98.9774 12.036 92.9797 10.339 86.7293C9.00201 81.8443 8.25802 76.8131 7.90402 71.7679C7.57102 67.0642 7.57102 62.3445 7.72102 57.6337C7.84502 53.0285 8.15401 48.4282 8.17401 43.821C11.3 43.7961 14.401 43.2795 17.437 42.5629C22.217 41.4213 26.866 39.787 31.413 37.9388ZM39.725 48.3217C39.725 48.5536 39.724 48.7855 39.725 49.0184C36.55 49.0174 33.375 49.0194 30.201 49.0184C30.199 61.5174 30.201 74.0173 30.2 86.5163C29.591 86.5163 28.983 86.5163 28.375 86.5163C28.375 74.0173 28.374 61.5184 28.375 49.0184C25.2 49.0184 22.025 49.0184 18.85 49.0184C18.85 48.7855 18.85 48.5536 18.85 48.3217C18.5 48.3217 18.15 48.3217 17.8 48.3217C17.8 50.6607 17.8 52.9996 17.8 55.3386C18.15 55.3376 18.5 55.3376 18.85 55.3386C18.85 54.4279 18.851 53.5162 18.849 52.6055C21.157 51.1065 23.782 49.9371 26.574 49.8316C26.577 62.3494 26.574 74.8683 26.576 87.3871C25.025 87.3871 23.475 87.3871 21.925 87.3871C21.925 87.6519 21.925 87.9166 21.925 88.1834C27.067 88.1844 32.208 88.1844 37.35 88.1834C37.35 87.9166 37.35 87.6519 37.35 87.3871C35.808 87.3861 34.267 87.3871 32.725 87.3871C32.724 74.8723 32.724 62.3574 32.725 49.8425C35.232 50.2078 37.674 51.1145 39.725 52.6095C39.725 53.5192 39.726 54.4289 39.725 55.3386C40.075 55.3386 40.425 55.3386 40.775 55.3386C40.774 52.9996 40.775 50.6607 40.775 48.3217C40.425 48.3217 40.075 48.3217 39.725 48.3217ZM61.15 56.732C61.15 57.0963 61.15 57.4615 61.15 57.8268C55.583 57.8268 50.017 57.8258 44.45 57.8278C44.45 70.6084 44.45 83.39 44.45 96.1706C43.841 96.1706 43.233 96.1706 42.625 96.1706C42.625 83.389 42.624 70.6084 42.625 57.8268C40.508 57.8268 38.392 57.8268 36.275 57.8268C36.275 58.1005 36.275 58.3732 36.275 58.6479C37.7 58.6479 39.125 58.6479 40.55 58.6479C40.55 66.7765 40.55 74.9041 40.55 83.0327C39.025 83.0337 37.5 83.0327 35.975 83.0327C35.975 83.3064 35.975 83.5791 35.975 83.8538C37.5 83.8538 39.025 83.8538 40.55 83.8538C40.549 87.9594 40.55 92.065 40.55 96.1706C39.125 96.1716 37.7 96.1706 36.275 96.1706C36.275 96.4444 36.275 96.7171 36.276 96.9918C41.792 96.9918 47.308 96.9908 52.825 96.9918C52.824 96.7171 52.824 96.4444 52.825 96.1706C50.783 96.1706 48.741 96.1706 46.7 96.1706C46.7 92.065 46.7 87.9594 46.7 83.8528C48.713 83.8449 50.728 83.8668 52.735 84.027C54.238 84.1514 55.744 84.3356 57.198 84.7466C57.201 85.4274 57.199 86.1082 57.2 86.79C57.55 86.789 57.9 86.789 58.25 86.79C58.25 84.451 58.25 82.1121 58.25 79.7731C57.9 79.7731 57.55 79.7731 57.2 79.7731C57.199 80.4997 57.201 81.2253 57.2 81.9518C53.76 82.7301 50.229 83.1183 46.7 83.0337C46.699 74.9051 46.701 66.7765 46.699 58.6479C49.615 58.6131 52.551 58.6599 55.424 59.2083C57.422 59.5845 59.404 60.1916 61.15 61.2486C61.15 61.8 61.15 62.3514 61.15 62.9028C61.499 62.9028 61.85 62.9028 62.2 62.9028C62.2 60.8455 62.2 58.7893 62.2 56.732C61.85 56.732 61.5 56.731 61.15 56.732Z" fill="#273891"></path><path d="M7.215 100.7C9.859 100.698 12.503 100.699 15.147 100.699C15.907 101.984 16.714 103.243 17.586 104.456C17.015 104.588 16.445 104.727 15.875 104.863C15.875 107.589 15.875 110.315 15.875 113.042C12.989 113.041 10.103 113.041 7.216 113.042C8.203 110.985 9.18 108.923 10.174 106.87C9.179 104.817 8.205 102.755 7.215 100.7Z" fill="#273891"></path><path d="M62.414 104.456C63.287 103.243 64.09 101.982 64.854 100.699C67.497 100.699 70.141 100.698 72.785 100.7C71.795 102.755 70.82 104.817 69.826 106.87C70.819 108.923 71.797 110.985 72.784 113.042C69.897 113.041 67.011 113.041 64.125 113.042C64.125 110.315 64.125 107.589 64.125 104.863C63.554 104.728 62.985 104.589 62.414 104.456Z" fill="#273891"></path><path d="M16.8 105.599C31.98 101.958 48.02 101.958 63.2 105.599C63.2 109.829 63.2 114.059 63.2 118.29C53.604 115.997 43.665 115.126 33.816 115.746C28.084 116.1 22.384 116.957 16.8 118.29C16.8 114.059 16.8 109.829 16.8 105.599ZM33.859 107.654C33.53 108.203 33.464 108.867 33.554 109.489C33.663 110.176 34.154 110.794 34.815 111.031C35.769 111.366 36.909 111.123 37.608 110.386C37.738 110.3 37.71 110.156 37.678 110.03C37.24 110.381 36.778 110.761 36.193 110.81C35.42 110.959 34.628 110.419 34.441 109.67C34.231 108.822 34.339 107.816 34.967 107.162C35.476 106.636 36.406 106.513 36.969 107.021C37.285 107.27 37.333 107.715 37.644 107.967C37.666 107.407 37.624 106.848 37.583 106.292C37.457 106.388 37.327 106.48 37.192 106.566C36.757 106.523 36.332 106.364 35.889 106.409C35.055 106.444 34.263 106.929 33.859 107.654ZM37.936 106.464C38.174 106.593 38.616 106.544 38.634 106.9C38.676 107.856 38.635 108.817 38.652 109.775C38.642 110.063 38.688 110.368 38.571 110.641C38.376 110.752 38.154 110.801 37.95 110.891C38.361 110.985 38.786 110.95 39.205 110.946C40.077 110.89 40.95 110.974 41.823 110.951C41.934 110.541 42.058 110.135 42.14 109.72C41.731 109.858 41.683 110.423 41.243 110.531C40.654 110.679 40.006 110.71 39.417 110.56C39.323 109.941 39.397 109.31 39.375 108.687C39.845 108.697 40.32 108.648 40.786 108.729C41.087 108.774 41.115 109.127 41.216 109.354C41.255 109.356 41.333 109.362 41.373 109.364C41.365 108.796 41.405 108.226 41.343 107.659C41.155 107.845 41.12 108.131 40.943 108.319C40.437 108.462 39.895 108.357 39.375 108.387C39.377 107.818 39.362 107.247 39.392 106.679C39.832 106.669 40.272 106.663 40.712 106.671C40.929 106.683 41.171 106.692 41.351 106.831C41.489 107.041 41.533 107.317 41.757 107.465C41.786 107.111 41.772 106.757 41.75 106.403C40.834 106.357 39.916 106.373 38.999 106.373C38.644 106.385 38.284 106.382 37.936 106.464ZM44.617 107.193C44.867 107.165 45.115 107.12 45.366 107.101C45.484 107.854 45.401 108.621 45.425 109.379C45.4 109.866 45.492 110.369 45.355 110.843C45.156 110.995 44.882 110.974 44.654 111.057C45.327 111.173 46.013 111.181 46.691 111.258C46.694 111.232 46.699 111.182 46.701 111.157C46.465 111.078 46.057 111.095 46.04 110.764C46.001 109.357 46.04 107.948 46.022 106.542C45.551 106.752 45.045 106.898 44.617 107.193ZM31.54 106.949C31.721 106.997 31.91 107.03 32.087 107.099C32.252 107.243 32.254 107.485 32.272 107.688C32.281 108.474 32.272 109.261 32.274 110.048C31.397 109.073 30.52 108.097 29.629 107.136C29.195 107.214 28.743 107.229 28.331 107.399C28.613 107.467 29.103 107.49 29.096 107.883C29.091 108.982 29.13 110.086 29.075 111.184C29.068 111.54 28.689 111.652 28.416 111.76C28.421 111.792 28.43 111.857 28.434 111.89C29.014 111.774 29.616 111.755 30.18 111.567C29.98 111.501 29.769 111.477 29.577 111.394C29.426 111.152 29.43 110.853 29.423 110.579C29.426 109.742 29.423 108.906 29.426 108.07C30.48 109.203 31.496 110.369 32.555 111.497C32.677 110.13 32.531 108.748 32.631 107.38C32.638 106.987 33.089 106.915 33.353 106.747C32.748 106.712 32.119 106.762 31.54 106.949ZM48.069 107.161C47.35 107.849 47.475 109.233 48.359 109.73C48.837 109.996 49.418 109.909 49.893 109.683C49.703 110.125 49.495 110.581 49.114 110.896C48.754 111.226 48.253 111.307 47.79 111.388L47.806 111.542C48.452 111.528 49.144 111.456 49.671 111.047C50.8 110.165 50.931 108.291 49.917 107.275C49.431 106.833 48.582 106.685 48.069 107.161ZM26.059 107.808C26.272 107.852 26.49 107.858 26.703 107.904C26.87 108 26.83 108.224 26.851 108.388C26.851 109.384 26.85 110.381 26.851 111.379C26.834 111.55 26.86 111.761 26.733 111.899C26.527 112.042 26.283 112.12 26.093 112.288C26.539 112.258 26.972 112.139 27.412 112.069C27.726 112.009 28.057 111.984 28.343 111.829C28.11 111.789 27.871 111.787 27.643 111.724C27.561 111.481 27.573 111.223 27.572 110.974C27.578 110.078 27.573 109.183 27.573 108.288C27.582 108.093 27.57 107.867 27.715 107.718C27.883 107.611 28.077 107.555 28.262 107.485L28.228 107.357C27.506 107.51 26.76 107.566 26.059 107.808ZM51.18 109.156C50.99 109.936 51.087 110.829 51.604 111.469C51.932 111.898 52.444 112.237 53.006 112.193C53.494 112.171 53.882 111.767 54.019 111.322C54.19 110.654 54.037 109.849 53.449 109.426C53.023 109.075 52.429 109.082 51.926 109.242C52.123 108.773 52.371 108.289 52.813 108.008C53.18 107.757 53.644 107.796 54.061 107.703C52.923 107.24 51.492 107.98 51.18 109.156ZM25.229 107.86C25.156 107.951 25.078 108.037 24.995 108.121C24.567 108.129 24.111 108.006 23.708 108.208C23.007 108.493 22.506 109.398 22.878 110.108C23.368 110.756 24.408 110.629 24.873 111.303C25.194 112.074 24.253 112.81 23.533 112.542C23.124 112.415 22.909 112.019 22.727 111.666C22.688 111.682 22.61 111.714 22.571 111.73C22.641 112.223 22.711 112.715 22.786 113.208C22.931 113.061 23.039 112.782 23.289 112.838C23.787 112.89 24.316 112.878 24.759 112.614C25.396 112.288 25.847 111.503 25.577 110.801C25.325 110.29 24.71 110.147 24.224 109.941C23.873 109.8 23.374 109.644 23.377 109.185C23.396 108.52 24.245 108.179 24.783 108.503C25.164 108.659 25.147 109.168 25.498 109.348C25.467 108.83 25.401 108.315 25.345 107.8C25.316 107.815 25.258 107.845 25.229 107.86ZM54.823 107.96C54.687 108.273 54.548 108.585 54.41 108.897C54.44 108.922 54.502 108.971 54.532 108.996C54.702 108.846 54.832 108.559 55.097 108.586C55.674 108.645 56.227 108.836 56.795 108.948C56.347 110.209 55.901 111.471 55.449 112.731C55.606 112.765 55.763 112.801 55.921 112.838C56.399 111.412 56.933 110.004 57.383 108.569C56.535 108.344 55.68 108.149 54.823 107.96Z" fill="#273891"></path><path d="M48.72 107.123C49.082 106.999 49.475 107.228 49.641 107.552C49.941 108.1 49.955 108.756 49.878 109.362C49.507 109.733 48.76 109.67 48.513 109.185C48.271 108.729 48.217 108.186 48.321 107.685C48.371 107.457 48.494 107.217 48.72 107.123Z" fill="#273891"></path><path d="M52.135 109.428C52.534 109.356 52.986 109.539 53.184 109.904C53.437 110.34 53.509 110.876 53.407 111.368C53.347 111.602 53.234 111.886 52.969 111.945C52.588 112.014 52.204 111.765 52.042 111.428C51.799 110.924 51.68 110.34 51.787 109.786C51.812 109.603 51.951 109.456 52.135 109.428Z" fill="#273891"></path><path d="M31.588 116.848C37.183 116.365 42.817 116.364 48.412 116.848C45.735 118.697 42.918 120.345 40 121.788C37.082 120.344 34.264 118.698 31.588 116.848Z" fill="#273891"></path></svg> 