<svg width="230" height="25" viewBox="0 0 230 25" fill="none" xmlns="http://www.w3.org/2000/svg">
<path d="M226.802 7.856H227.338V6.064L228.066 7.856H228.266L228.994 6.064V7.856H229.602V5.28H228.818L228.202 6.872L227.578 5.28H226.802V7.856ZM225.058 7.856H225.666V5.76H226.402V5.28H224.322V5.76H225.058V7.856Z" fill="black"/>
<path fill-rule="evenodd" clip-rule="evenodd" d="M1.37 0C0.613445 0 0.000134331 0.61331 0.000134331 1.36987V5.17458C0.000134331 5.80465 0.42992 6.35347 1.04162 6.50451L25.6992 12.593C26.5628 12.8062 27.3975 12.1526 27.3975 11.263V1.36987C27.3975 0.613311 26.7841 0 26.0276 0H1.37ZM1.36987 24.3977C0.613311 24.3977 0 23.7844 0 23.0278V12.3124C0 11.4065 0.863636 10.7501 1.73651 10.9925L26.3941 17.8419C26.987 18.0066 27.3973 18.5465 27.3973 19.1618V23.0278C27.3973 23.7844 26.784 24.3977 26.0275 24.3977H1.36987Z" fill="url(#paint0_linear_4620_37325)"/>
<path d="M43.9582 18.18C46.8022 18.18 48.6922 16.434 48.6922 14.202C48.6922 11.628 47.1262 10.764 44.1022 10.35C41.8702 10.026 41.4382 9.504 41.4382 8.46C41.4382 7.47 42.1942 6.768 43.6522 6.768C45.1282 6.768 45.9022 7.344 46.1362 8.694H48.3322C48.0802 6.228 46.4242 4.968 43.6522 4.968C40.9702 4.968 39.1702 6.552 39.1702 8.658C39.1702 11.07 40.6282 12.006 43.7062 12.42C45.7942 12.762 46.3882 13.212 46.3882 14.4C46.3882 15.588 45.3802 16.38 43.9582 16.38C41.7802 16.38 41.2582 15.3 41.0962 14.004H38.7922C38.9722 16.434 40.4482 18.18 43.9582 18.18ZM53.8829 18H56.1329L57.1409 14.814H62.0549L63.0809 18H65.5649L61.3169 5.13H58.1849L53.8829 18ZM59.6069 7.092L61.4969 13.068H57.6989L59.6069 7.092ZM71.8492 18H74.2432V12.726H78.6352V10.872H74.2432V7.038H79.8232V5.13H71.8492V18ZM86.2238 18H94.5758V16.11H88.6178V12.348H93.1538V10.548H88.6178V7.02H94.2698V5.13H86.2238V18ZM101.056 18H103.45V13.104H105.25C108.004 13.104 109.966 11.898 109.966 9.18V9.108C109.966 6.408 108.076 5.13 105.196 5.13H101.056V18ZM103.45 11.376V6.984H105.196C106.726 6.984 107.626 7.578 107.626 9.108V9.18C107.626 10.602 106.78 11.376 105.196 11.376H103.45ZM122.336 16.254C119.996 16.254 118.286 14.436 118.286 11.628V11.484C118.286 8.712 119.78 6.858 122.3 6.858C124.82 6.858 126.296 8.82 126.296 11.466V11.61C126.296 14.4 124.766 16.254 122.336 16.254ZM122.3 18.18C126.206 18.18 128.78 15.354 128.78 11.592V11.448C128.78 7.668 126.134 4.95 122.3 4.95C118.484 4.95 115.784 7.74 115.784 11.502V11.646C115.784 15.354 118.358 18.18 122.3 18.18ZM135.412 18H137.806V12.798H139.336L142.702 18H145.294L141.676 12.438C143.278 12.024 144.538 10.998 144.538 8.982V8.91C144.538 6.282 142.558 5.13 139.732 5.13H135.412V18ZM137.806 11.088V6.984H139.732C141.262 6.984 142.18 7.488 142.18 8.964V9.036C142.18 10.404 141.334 11.088 139.732 11.088H137.806ZM153.838 18H156.25V7.02H159.832V5.13H150.256V7.02H153.838V18ZM174.687 18H182.571V16.092H177.081V5.13H174.687V18ZM188.019 18H190.269L191.277 14.814H196.191L197.217 18H199.701L195.453 5.13H192.321L188.019 18ZM193.743 7.092L195.633 13.068H191.835L193.743 7.092ZM207.372 18H209.658L212.268 8.622L214.806 18H217.2L220.422 5.13H218.19L215.886 14.634L213.33 5.13H211.35L208.848 14.58L206.616 5.13H204.168L207.372 18Z" fill="black"/>
<defs>
<linearGradient id="paint0_linear_4620_37325" x1="27.3976" y1="24.3977" x2="19.0958" y2="-7.90725" gradientUnits="userSpaceOnUse">
<stop stop-color="#408B82"/>
<stop offset="1" stop-color="#C0E0DE"/>
</linearGradient>
</defs>
</svg>
