<svg viewBox="0 0 2016 504" xmlns="http://www.w3.org/2000/svg"><g fill="#002e5d"><path d="M203 191v-86l-1-12 12 1h65c50 0 79 8 79 53 0 29-18 55-77 55h-67l-12 1 1-12zm0 199V290l-1-12 12 1h55c44 0 98 0 98 61 0 45-39 61-90 61h-63l-12 1 1-12zM45 40l-1 417c0 14 1 18-8 24-10 6-19 7-35 10-2 0-1 6 0 6h338c142 0 202-56 202-145 0-65-30-105-90-119v-2c38-12 73-40 73-108C524 31 462 0 326 0H1v6c16 3 25 4 35 10 9 6 9 10 9 24zM1742 40c0-14-1-18 8-24 10-6 19-7 35-10 1 0 1-6-1-6h-247c-2 0-2 6-1 6h1c15 2 22 4 32 10 9 6 9 10 9 24v250c0 56-33 100-98 100s-97-44-97-101V41c0-14-1-18 8-24 10-6 18-7 33-10 2 0 1-6 0-6h-234c-2 0-1 6 0 6 9 1 15 1 20 6 8 6 9 14 9 28v245c0 119 65 219 261 219s261-100 261-219zM990 497c2 0 2-6 1-6h-1c-15-3-25-4-34-10-10-6-9-10-9-24V299l172-256c10-14 16-21 23-28l7-4c7-4 10-5 18-5h1c1 0 2-6 0-6H936c-2 0-2 6 0 6 11 0 25 0 23 16-1 16-68 113-92 150-3 5-6 10-7 17-1-6-5-13-8-17-33-50-90-130-92-149-1-17 12-17 23-17 2 0 3-6 1-6H540v6h1c10 1 16 1 28 7l6 4c8 6 13 12 22 26l172 255v159c0 14 1 19-9 25-9 5-19 6-34 9h-1c-1 0-1 6 1 6z"/></g></svg>
