<svg width="170" height="49" viewBox="0 0 170 49" fill="none" xmlns="http://www.w3.org/2000/svg">
<path fill-rule="evenodd" clip-rule="evenodd" d="M25.5311 5.75958L0.0903898 24.7947C0.0697916 24.3756 0.0593719 23.9538 0.0593719 23.5296C0.0593719 22.2742 0.150628 21.04 0.326885 19.8334L25.5311 0.42857L50.7354 19.8334C50.9116 21.04 51.0029 22.2742 51.0029 23.5296C51.0029 23.9538 50.9925 24.3756 50.9719 24.7947L25.5311 5.75958ZM25.5311 13.4599L1.35398 31.5496C0.91905 30.2441 0.587403 28.8915 0.368703 27.5015L25.5311 8.12891L50.6936 27.5015C50.4749 28.8915 50.1432 30.2441 49.7083 31.5496L25.5311 13.4599ZM4.06797 37.2193L25.5311 21.1603L46.9943 37.2193C47.6958 36.1269 48.3159 34.9774 48.8459 33.7794L25.5311 15.8293L2.21638 33.7794C2.74636 34.9774 3.36641 36.1269 4.06797 37.2193ZM5.42323 39.2265C10.0968 45.1765 17.3664 49 25.5311 49C33.6959 49 40.9655 45.1765 45.639 39.2265L42.2179 36.8571C38.3006 41.7322 32.2813 44.8537 25.5311 44.8537C18.781 44.8537 12.7616 41.7322 8.84435 36.8571L5.42323 39.2265ZM20.7811 29.453H24.9374V33.5993H20.7811V29.453ZM24.9374 35.3763H20.7811V39.5226H24.9374V35.3763ZM26.1249 29.453H30.2811V33.5993H26.1249V29.453ZM30.2811 35.3763H26.1249V39.5226H30.2811V35.3763Z" fill="url(#paint0_linear_110_229)"/>
<path d="M69.8233 47.7758C68.0299 47.7758 66.6051 47.2627 65.549 46.2365C64.4929 45.2003 63.9648 43.925 63.9648 42.4106C63.9648 40.8961 64.4929 39.6208 65.549 38.5846C66.6051 37.5385 68.0299 37.0154 69.8233 37.0154C70.7698 37.0154 71.7911 37.1997 72.887 37.5684V40.2435C71.7512 39.7653 70.7897 39.5262 70.0026 39.5262C68.9864 39.5262 68.2192 39.8101 67.7011 40.378C67.183 40.936 66.924 41.6135 66.924 42.4106C66.924 43.2076 67.183 43.8851 67.7011 44.4431C68.2192 44.9911 68.9864 45.2651 70.0026 45.2651C70.7897 45.2651 71.7512 45.0259 72.887 44.5477V47.2229C71.7911 47.5915 70.7698 47.7758 69.8233 47.7758ZM78.5433 39.855C79.5895 39.855 80.4264 40.1289 81.0541 40.6769C81.6818 41.2249 81.9956 41.9871 81.9956 42.9635V47.6264H79.1561V46.8642C78.6579 47.4719 77.9754 47.7758 77.1086 47.7758C76.3514 47.7758 75.7187 47.5367 75.2106 47.0585C74.7024 46.5802 74.4484 45.9874 74.4484 45.28C74.4484 44.5726 74.7024 43.9848 75.2106 43.5165C75.7287 43.0382 76.3813 42.7991 77.1684 42.7991C78.0451 42.7991 78.7077 43.0432 79.1561 43.5314V43.0831C79.1561 42.286 78.6878 41.8875 77.7512 41.8875C77.0239 41.8875 76.2119 42.1565 75.3152 42.6945V40.2884C76.2916 39.9994 77.3676 39.855 78.5433 39.855ZM78.095 46.1169C78.4636 46.1169 78.8173 45.9276 79.1561 45.549V45.011C78.8472 44.6324 78.4985 44.4431 78.1099 44.4431C77.8508 44.4431 77.6317 44.5278 77.4523 44.6971C77.273 44.8566 77.1833 45.0558 77.1833 45.295C77.1833 45.5241 77.268 45.7184 77.4374 45.8778C77.6167 46.0372 77.8359 46.1169 78.095 46.1169ZM87.0064 47.7758C85.771 47.7758 84.6352 47.5865 83.599 47.2079V44.8018C85.0237 45.5391 86.045 45.9077 86.6627 45.9077C87.1509 45.9077 87.395 45.7582 87.395 45.4593C87.395 45.28 87.2605 45.1306 86.9915 45.011C86.7325 44.8815 86.4136 44.7619 86.035 44.6523C85.6664 44.5427 85.2927 44.4082 84.9141 44.2488C84.5355 44.0894 84.2117 43.8453 83.9427 43.5165C83.6837 43.1777 83.5541 42.7692 83.5541 42.291C83.5541 41.5238 83.858 40.931 84.4658 40.5125C85.0736 40.0841 85.8955 39.8699 86.9317 39.8699C87.9579 39.8699 88.8746 39.9845 89.6816 40.2136L89.6667 42.3508C88.5308 41.8426 87.6292 41.5886 86.9616 41.5886C86.4933 41.5886 86.2592 41.733 86.2592 42.022C86.2592 42.1914 86.3887 42.3308 86.6478 42.4404C86.9168 42.5401 87.2356 42.6397 87.6042 42.7393C87.9829 42.829 88.3615 42.9536 88.7401 43.113C89.1187 43.2624 89.4375 43.5115 89.6966 43.8602C89.9656 44.199 90.1001 44.6274 90.1001 45.1455C90.1001 45.9127 89.836 46.5454 89.308 47.0435C88.7899 47.5317 88.0227 47.7758 87.0064 47.7758ZM96.9142 39.855C97.6416 39.855 98.2344 40.0991 98.6927 40.5873C99.151 41.0655 99.3802 41.7081 99.3802 42.5152V47.6264H96.5406V43.3521C96.5406 43.0432 96.4609 42.8091 96.3015 42.6497C96.152 42.4803 95.9528 42.3956 95.7037 42.3956C95.3052 42.3956 94.9166 42.6098 94.538 43.0382V47.6264H91.6984V37.1648H94.538V41.1253C95.2254 40.2784 96.0175 39.855 96.9142 39.855ZM112.492 47.6264L111.849 45.5939H108.023L107.381 47.6264H104.302L108.068 37.1648H111.804L115.571 47.6264H112.492ZM108.726 43.4119H111.147L109.936 39.5859L108.726 43.4119ZM121.813 37.1648H124.652V47.6264H121.813V46.7147C121.245 47.4221 120.492 47.7758 119.556 47.7758C118.579 47.7758 117.797 47.4072 117.21 46.6699C116.632 45.9226 116.343 44.9711 116.343 43.8154C116.343 42.6696 116.632 41.7281 117.21 40.9908C117.797 40.2435 118.579 39.8699 119.556 39.8699C120.492 39.8699 121.245 40.2236 121.813 40.931V37.1648ZM120.542 45.4444C121.04 45.4444 121.464 45.2053 121.813 44.727V42.9037C121.474 42.4355 121.05 42.2013 120.542 42.2013C120.124 42.2013 119.78 42.3558 119.511 42.6646C119.242 42.9635 119.108 43.3521 119.108 43.8303C119.108 44.2986 119.242 44.6872 119.511 44.9961C119.78 45.295 120.124 45.4444 120.542 45.4444ZM131.45 40.0044H134.603L131.943 47.6264H128.625L125.965 40.0044H129.118L130.254 45.0409L131.45 40.0044ZM139.34 39.855C140.386 39.855 141.223 40.1289 141.851 40.6769C142.479 41.2249 142.793 41.9871 142.793 42.9635V47.6264H139.953V46.8642C139.455 47.4719 138.772 47.7758 137.906 47.7758C137.148 47.7758 136.516 47.5367 136.008 47.0585C135.499 46.5802 135.245 45.9874 135.245 45.28C135.245 44.5726 135.499 43.9848 136.008 43.5165C136.526 43.0382 137.178 42.7991 137.965 42.7991C138.842 42.7991 139.505 43.0432 139.953 43.5314V43.0831C139.953 42.286 139.485 41.8875 138.548 41.8875C137.821 41.8875 137.009 42.1565 136.112 42.6945V40.2884C137.089 39.9994 138.165 39.855 139.34 39.855ZM138.892 46.1169C139.261 46.1169 139.614 45.9276 139.953 45.549V45.011C139.644 44.6324 139.295 44.4431 138.907 44.4431C138.648 44.4431 138.429 44.5278 138.249 44.6971C138.07 44.8566 137.98 45.0558 137.98 45.295C137.98 45.5241 138.065 45.7184 138.234 45.8778C138.414 46.0372 138.633 46.1169 138.892 46.1169ZM149.791 39.855C150.518 39.855 151.111 40.0991 151.57 40.5873C152.028 41.0655 152.257 41.7081 152.257 42.5152V47.6264H149.418V43.3521C149.418 43.0432 149.338 42.8091 149.178 42.6497C149.029 42.4803 148.83 42.3956 148.581 42.3956C148.182 42.3956 147.793 42.6098 147.415 43.0382V47.6264H144.575V40.0044H147.415V41.1253C148.102 40.2784 148.894 39.855 149.791 39.855ZM158.003 47.7758C156.807 47.7758 155.801 47.4172 154.984 46.6998C154.177 45.9725 153.773 45.006 153.773 43.8004C153.773 42.6248 154.177 41.6782 154.984 40.9609C155.791 40.2336 156.787 39.8699 157.973 39.8699C158.621 39.8699 159.313 39.9546 160.05 40.124V42.6646C159.741 42.5351 159.522 42.4454 159.393 42.3956C159.263 42.3458 159.094 42.301 158.885 42.2611C158.685 42.2213 158.456 42.2013 158.197 42.2013C157.739 42.2013 157.345 42.3558 157.017 42.6646C156.698 42.9635 156.538 43.3421 156.538 43.8004C156.538 44.2588 156.698 44.6473 157.017 44.9662C157.345 45.285 157.744 45.4444 158.212 45.4444C158.322 45.4444 158.421 45.4444 158.511 45.4444C158.601 45.4344 158.695 45.4195 158.795 45.3996C158.895 45.3796 158.969 45.3647 159.019 45.3547C159.079 45.3448 159.164 45.3199 159.273 45.28C159.383 45.2402 159.458 45.2152 159.497 45.2053C159.537 45.1854 159.627 45.1455 159.766 45.0857C159.906 45.0259 160.001 44.9861 160.05 44.9662V47.4321C159.363 47.6613 158.68 47.7758 158.003 47.7758ZM169.273 43.651V44.5626H164.311C164.411 44.9911 164.615 45.2999 164.924 45.4892C165.243 45.6686 165.701 45.7582 166.299 45.7582C166.906 45.7582 167.743 45.5689 168.809 45.1903V47.3424C167.833 47.6214 166.897 47.7609 166 47.7609C164.615 47.7609 163.534 47.4022 162.757 46.6848C161.99 45.9575 161.606 44.9512 161.606 43.6659C161.606 42.5002 161.985 41.5736 162.742 40.8862C163.499 40.1987 164.431 39.855 165.537 39.855C166.623 39.855 167.514 40.1887 168.212 40.8563C168.919 41.5139 169.273 42.4454 169.273 43.651ZM166.837 42.9336C166.697 42.1067 166.274 41.6932 165.566 41.6932C164.859 41.6932 164.431 42.1067 164.281 42.9336H166.837Z" fill="#002D51"/>
<path d="M84.7908 4.4652V10.5852H77.926V27.1319H70.6403V10.5852H63.9698V4.4652H84.7908ZM91.6859 7.47663C93.9094 5.25314 96.7481 4.14139 100.202 4.14139C103.656 4.14139 106.484 5.25314 108.686 7.47663C110.909 9.70012 112.021 12.4849 112.021 15.8309C112.021 19.1769 110.909 21.9509 108.686 24.1528C106.484 26.3547 103.656 27.4557 100.202 27.4557C96.7481 27.4557 93.9094 26.3547 91.6859 24.1528C89.4624 21.9509 88.3507 19.1769 88.3507 15.8309C88.3507 12.4633 89.4624 9.67853 91.6859 7.47663ZM104.671 15.8309C104.671 14.2119 104.293 12.9166 103.537 11.9452C102.803 10.9522 101.692 10.4557 100.202 10.4557C98.691 10.4557 97.5577 10.9522 96.8021 11.9452C96.0681 12.9166 95.7012 14.2119 95.7012 15.8309C95.7012 17.4284 96.0681 18.7128 96.8021 19.6842C97.5577 20.6341 98.691 21.109 100.202 21.109C101.713 21.109 102.836 20.6341 103.57 19.6842C104.304 18.7128 104.671 17.4284 104.671 15.8309ZM127.118 4.4652C129.773 4.4652 131.943 5.24234 133.626 6.79663C135.332 8.32933 136.184 10.2182 136.184 12.4633C136.184 14.6652 135.332 16.5109 133.626 18.0004C131.943 19.4684 129.773 20.2023 127.118 20.2023H123.847V27.1319H116.626V4.4652H127.118ZM126.535 14.9566C127.377 14.9566 128.057 14.7192 128.575 14.2442C129.115 13.7693 129.384 13.2189 129.384 12.5928C129.384 11.9452 129.115 11.3731 128.575 10.8766C128.057 10.3801 127.377 10.1319 126.535 10.1319H123.847V14.9566H126.535Z" fill="#002D51"/>
<defs>
<linearGradient id="paint0_linear_110_229" x1="-6.55379" y1="-10.0887" x2="66.627" y2="-0.299291" gradientUnits="userSpaceOnUse">
<stop offset="0.0154853" stop-color="#01ACAC"/>
<stop offset="1" stop-color="#0039A8"/>
</linearGradient>
</defs>
</svg>
