<svg xmlns="http://www.w3.org/2000/svg" width="149" height="48" fill="none" viewBox="0 0 149 48">
    <path fill="url(#paint0_linear)" fill-rule="evenodd" d="M0 25.316c11.684-1.17 20.61 5.53 23.369 9.27-3.895-9.27-12.171-12.278-16.066-12.685l6.329-9.025c6.816 1.56 10.792 5.691 11.928 7.562-2.922-7.22-10.143-9.514-13.389-9.758L0 25.316zm25.803 15.61c-2.759-3.74-11.684-10.44-23.369-9.27l4.382-5.122c.568 0 2.045.097 3.408.488l-.73.975c3.894.407 12.414 3.66 16.31 12.929zm2.677 7.073c-2.759-3.74-11.197-10.928-22.882-9.757L9.98 33.12c.568 0 2.045.097 3.408.488l-.73.975C16.552 34.99 25.17 38.243 28.48 48zm-4.625-21.465l-.683-.71c-1.374.636-2.941-.24-3.454-.753l.487-.732c.566.425 1.378.603 1.959.44l-1.49-1.547c-2.347.942-3.39-.643-3.39-1.82 0-.526.154-.953.4-1.283l-.645-.67.487-.487.662.687c.87-.568 2.14-.471 2.748.29l-.487.487c-.694-.297-1.226-.272-1.597-.088l1.386 1.439c3.198-1.25 4.349.513 4.349 1.82 0 .927-.563 1.573-.832 1.829l.587.61-.487.488zm-.972-2.683c0 .214-.052.39-.144.531l-1.365-1.417c.696-.184 1.509-.11 1.509.886zm-4.529-3.027l1.207 1.253c-.4.13-.996.194-1.303-.421-.084-.253-.052-.563.096-.832z" clip-rule="evenodd"/>
    <path fill="url(#paint1_linear)" d="M66.698 4.581C41.446 11.588 31.377 34.727 28.673 44.79 27.643 21.686 42.928 7.903 50.7 3.899 56.036 1.15 57.533.46 58.714 0l7.984 4.581z"/>
    <path fill="#03112C" d="M73.883 15.07l-6.984 16.614h-2.931L56.961 15.07h3.229l5.335 12.816 5.381-12.816h2.977zM79.053 18.868c1.802 0 3.176.451 4.122 1.353.962.886 1.443 2.23 1.443 4.034v7.429h-2.702V30.14c-.351.554-.855.981-1.511 1.282-.642.284-1.42.427-2.336.427-.916 0-1.717-.158-2.404-.475-.687-.332-1.222-.783-1.603-1.353-.367-.585-.55-1.242-.55-1.97 0-1.139.405-2.048 1.214-2.729.824-.696 2.114-1.044 3.87-1.044h3.16v-.19c0-.886-.26-1.566-.78-2.04-.503-.475-1.258-.713-2.266-.713-.687 0-1.366.111-2.038.333-.656.221-1.213.53-1.671.925l-1.122-2.16c.64-.506 1.412-.893 2.312-1.163.901-.268 1.855-.403 2.862-.403zm-.389 10.822c.718 0 1.351-.166 1.9-.498.566-.348.962-.839 1.191-1.472V26.25h-2.953c-1.649 0-2.473.562-2.473 1.685 0 .538.206.965.618 1.281.412.317.985.475 1.717.475zM91.016 20.862c.824-1.33 2.274-1.994 4.35-1.994v2.824c-.244-.047-.465-.071-.664-.071-1.114 0-1.984.34-2.61 1.02-.626.665-.939 1.63-.939 2.896v6.147h-2.862V19.01h2.725v1.852zM97.794 19.01h2.862v12.674h-2.862V19.01zm1.443-2.088c-.52 0-.954-.166-1.305-.498-.352-.348-.527-.776-.527-1.282s.175-.926.527-1.258c.35-.348.786-.522 1.305-.522.519 0 .954.166 1.305.498.351.317.527.72.527 1.21 0 .523-.176.966-.527 1.33-.336.348-.771.522-1.305.522zM115.907 25.418c0 .206-.015.499-.045.878h-9.594c.168.934.603 1.678 1.305 2.231.717.538 1.603.807 2.656.807 1.343 0 2.45-.459 3.32-1.376l1.534 1.827c-.549.68-1.244 1.195-2.083 1.543-.84.348-1.786.522-2.84.522-1.343 0-2.526-.277-3.549-.83-1.023-.555-1.816-1.322-2.381-2.303-.55-.997-.825-2.12-.825-3.37 0-1.234.268-2.342.802-3.323.549-.996 1.305-1.772 2.267-2.325.961-.554 2.045-.831 3.251-.831 1.191 0 2.252.277 3.183.83.946.539 1.679 1.306 2.198 2.303.534.98.801 2.12.801 3.417zm-6.182-4.177c-.916 0-1.694.285-2.335.855-.626.553-1.008 1.297-1.145 2.23h6.938c-.122-.917-.496-1.66-1.122-2.23-.626-.57-1.405-.855-2.336-.855zM126.007 30.995c-.336.285-.748.499-1.237.641-.473.143-.977.214-1.511.214-1.343 0-2.381-.364-3.114-1.092-.733-.728-1.099-1.788-1.099-3.18v-6.1h-2.015v-2.373h2.015V16.21h2.862v2.895h3.275v2.374h-3.275v6.028c0 .617.145 1.091.435 1.424.29.316.71.474 1.26.474.641 0 1.175-.174 1.602-.522l.802 2.112z"/>
    <path fill="#03112C" d="M139.586 19.01l-5.724 13.694c-.534 1.377-1.183 2.342-1.946 2.896-.763.57-1.687.854-2.771.854-.61 0-1.213-.103-1.809-.309-.595-.205-1.083-.49-1.465-.854l1.145-2.183c.275.269.595.482.961.64.382.159.764.238 1.145.238.504 0 .916-.135 1.237-.404.336-.269.641-.72.916-1.352l.206-.499-5.335-12.72h2.976l3.847 9.374 3.87-9.375h2.747zM61.979 43.893c.433.126.774.355 1.022.687.249.324.373.738.373 1.24 0 .67-.245 1.187-.735 1.549-.483.361-1.19.542-2.12.542h-3.558v-7.748h3.345c.852 0 1.51.178 1.97.532.47.354.704.845.704 1.472 0 .406-.092.756-.277 1.051-.178.295-.42.52-.724.675zm-3.952-2.833v2.48h2.183c.547 0 .966-.104 1.257-.31.299-.215.448-.525.448-.93 0-.406-.15-.712-.448-.919-.29-.214-.71-.321-1.257-.321h-2.183zm2.45 5.955c.603 0 1.058-.104 1.363-.31.305-.207.458-.532.458-.974 0-.864-.607-1.295-1.821-1.295h-2.45v2.579h2.45zM66.93 41.99c.781 0 1.378.199 1.79.597.419.399.628.993.628 1.782v3.542h-.97v-.775c-.17.273-.415.484-.734.631-.313.14-.686.21-1.119.21-.632 0-1.14-.158-1.523-.475-.376-.318-.564-.735-.564-1.251 0-.517.18-.93.543-1.24.362-.317.937-.476 1.725-.476h1.62v-.21c0-.457-.128-.808-.384-1.051-.256-.244-.632-.366-1.13-.366-.333 0-.66.06-.98.177-.319.111-.588.262-.809.454l-.426-.797c.291-.243.64-.428 1.044-.553.405-.133.835-.2 1.29-.2zm-.234 5.168c.39 0 .728-.088 1.012-.265.284-.185.49-.443.618-.775V45.3h-1.577c-.866 0-1.3.303-1.3.908 0 .295.11.527.33.697.22.17.526.254.917.254zM76.598 39.699v8.212h-.98v-.93c-.227.325-.515.572-.863.742-.348.17-.731.255-1.15.255-.547 0-1.037-.126-1.47-.377-.434-.25-.775-.601-1.023-1.051-.241-.458-.362-.982-.362-1.572 0-.59.12-1.11.362-1.56.249-.45.59-.801 1.023-1.052.433-.25.923-.376 1.47-.376.404 0 .777.08 1.118.243.34.155.625.388.852.698v-3.232h1.023zm-2.908 7.349c.355 0 .678-.085.97-.255.29-.177.517-.42.68-.73.164-.318.246-.68.246-1.085 0-.406-.082-.764-.245-1.074-.163-.317-.39-.56-.682-.73-.291-.17-.614-.255-.97-.255-.361 0-.688.085-.98.255-.283.17-.51.413-.68.73-.164.31-.246.668-.246 1.074s.082.767.245 1.085c.17.31.398.553.682.73.291.17.618.255.98.255zM84.877 48c-.746 0-1.42-.17-2.024-.51-.597-.346-1.066-.819-1.406-1.416-.341-.605-.512-1.284-.512-2.037 0-.752.17-1.428.512-2.025.34-.605.813-1.078 1.416-1.417.604-.347 1.279-.52 2.024-.52.583 0 1.115.103 1.598.31.483.2.895.498 1.236.896l-.693.698c-.56-.613-1.26-.919-2.098-.919-.554 0-1.055.13-1.502.387-.447.259-.799.616-1.055 1.074-.248.45-.372.956-.372 1.516 0 .561.124 1.07.372 1.528.256.45.608.804 1.055 1.062.447.258.948.388 1.502.388.83 0 1.53-.31 2.098-.93l.693.697c-.341.399-.757.701-1.246.908-.483.206-1.016.31-1.598.31zM90.071 43.03c.178-.34.44-.598.788-.775.348-.177.771-.265 1.268-.265v1.029c-.057-.007-.135-.011-.234-.011-.554 0-.99.173-1.31.52-.313.34-.47.827-.47 1.461v2.922h-1.022v-5.866h.98v.985zM98.438 45.011c0 .081-.007.188-.022.321h-4.58c.064.517.28.934.65 1.25.376.31.841.466 1.395.466.675 0 1.218-.236 1.63-.709l.565.687c-.256.31-.576.546-.96.708-.375.162-.798.243-1.267.243-.596 0-1.125-.125-1.587-.376-.461-.258-.82-.616-1.076-1.073-.248-.458-.373-.974-.373-1.55 0-.568.121-1.08.363-1.538.248-.458.585-.812 1.012-1.063.433-.258.92-.387 1.459-.387.54 0 1.019.129 1.438.387.426.25.756.605.99 1.063.242.457.363.981.363 1.571zm-2.791-2.125c-.49 0-.902.155-1.236.465-.326.31-.518.716-.575 1.218h3.622c-.057-.495-.252-.897-.586-1.207-.327-.317-.735-.476-1.225-.476zM105.184 39.699v8.212h-.98v-.93c-.227.325-.515.572-.863.742-.348.17-.731.255-1.15.255-.547 0-1.037-.126-1.47-.377-.434-.25-.774-.601-1.023-1.051-.241-.458-.362-.982-.362-1.572 0-.59.12-1.11.362-1.56.249-.45.589-.801 1.023-1.052.433-.25.923-.376 1.47-.376.404 0 .777.08 1.118.243.341.155.625.388.852.698v-3.232h1.023zm-2.908 7.349c.355 0 .678-.085.969-.255.291-.177.519-.42.682-.73.163-.318.245-.68.245-1.085 0-.406-.082-.764-.245-1.074-.163-.317-.391-.56-.682-.73-.291-.17-.614-.255-.969-.255-.362 0-.689.085-.98.255-.284.17-.511.413-.682.73-.163.31-.245.668-.245 1.074s.082.767.245 1.085c.171.31.398.553.682.73.291.17.618.255.98.255zM107.119 42.045h1.022v5.866h-1.022v-5.866zm.511-1.129c-.199 0-.366-.066-.501-.2-.127-.132-.191-.294-.191-.486s.064-.354.191-.487c.135-.14.302-.21.501-.21s.362.066.49.199c.135.125.202.284.202.476 0 .199-.067.369-.202.509-.128.133-.291.2-.49.2zM113.268 47.568c-.149.133-.334.236-.554.31-.22.066-.447.1-.681.1-.569 0-1.009-.16-1.321-.476-.313-.318-.469-.772-.469-1.362v-3.22h-.959v-.875h.959v-1.284h1.023v1.284h1.619v.874h-1.619v3.177c0 .317.074.56.223.73.157.17.377.255.661.255.312 0 .578-.092.799-.277l.319.764zM117.514 40.163h1.066v6.785h4.037v.963h-5.103v-7.748zM126.035 47.977c-.561 0-1.065-.129-1.512-.387-.448-.258-.799-.612-1.055-1.062-.249-.458-.373-.974-.373-1.55 0-.575.124-1.088.373-1.538.256-.458.607-.812 1.055-1.063.447-.258.951-.387 1.512-.387s1.062.129 1.502.387c.447.25.795.605 1.044 1.063.256.45.383.963.383 1.538 0 .576-.127 1.092-.383 1.55-.249.45-.597.804-1.044 1.062-.44.258-.941.387-1.502.387zm0-.93c.362 0 .685-.084.969-.254.292-.177.519-.42.682-.73.164-.318.245-.68.245-1.085 0-.406-.081-.764-.245-1.074-.163-.317-.39-.56-.682-.73-.284-.17-.607-.255-.969-.255s-.689.085-.98.255c-.284.17-.511.413-.682.73-.163.31-.245.668-.245 1.074s.082.767.245 1.085c.171.31.398.553.682.73.291.17.618.255.98.255zM132.383 41.99c.781 0 1.377.199 1.789.597.419.399.629.993.629 1.782v3.542h-.97v-.775c-.17.273-.415.484-.735.631-.312.14-.685.21-1.118.21-.632 0-1.14-.158-1.523-.475-.377-.318-.565-.735-.565-1.251 0-.517.181-.93.543-1.24.362-.317.938-.476 1.726-.476h1.619v-.21c0-.457-.128-.808-.383-1.051-.256-.244-.633-.366-1.13-.366-.333 0-.66.06-.98.177-.319.111-.589.262-.809.454l-.426-.797c.291-.243.639-.428 1.044-.553.404-.133.834-.2 1.289-.2zm-.235 5.168c.391 0 .728-.088 1.012-.265.284-.185.49-.443.618-.775V45.3h-1.577c-.866 0-1.299.303-1.299.908 0 .295.11.527.33.697.22.17.526.254.916.254zM139.708 41.99c.717 0 1.285.217 1.704.653.426.428.639 1.059.639 1.892v3.376h-1.023v-3.254c0-.568-.131-.996-.394-1.284-.262-.288-.639-.431-1.129-.431-.554 0-.99.17-1.31.509-.32.332-.479.811-.479 1.438v3.022h-1.023v-5.866h.98v.886c.206-.303.483-.535.831-.698.355-.162.756-.243 1.204-.243zM145.563 47.977c-.462 0-.906-.062-1.332-.188-.426-.133-.76-.299-1.001-.498l.426-.84c.248.184.55.331.905.442.355.11.714.166 1.076.166.895 0 1.342-.266 1.342-.797 0-.177-.06-.317-.181-.42-.12-.104-.273-.178-.458-.222-.177-.052-.433-.107-.767-.166-.454-.074-.827-.159-1.118-.255-.284-.096-.529-.258-.735-.487-.206-.228-.309-.55-.309-.963 0-.53.213-.955.639-1.272.426-.325.998-.487 1.715-.487.376 0 .753.048 1.129.144.377.096.685.225.927.387l-.437.841c-.461-.31-1.005-.465-1.63-.465-.433 0-.763.074-.99.222-.227.147-.341.343-.341.586 0 .192.064.343.192.454.127.11.284.192.468.244.192.051.458.11.799.177.455.08.82.17 1.097.265.284.089.526.244.725.465.199.221.298.531.298.93 0 .531-.22.955-.66 1.273-.434.31-1.027.465-1.779.465z"/>
    <defs>
        <linearGradient id="paint0_linear" x1="14.24" x2="15.029" y1="10.68" y2="49.197" gradientUnits="userSpaceOnUse">
            <stop stop-color="#36D2C0"/>
            <stop offset="1" stop-color="#0D3D61"/>
        </linearGradient>
        <linearGradient id="paint1_linear" x1="47.661" x2="48.511" y1="0" y2="46.229" gradientUnits="userSpaceOnUse">
            <stop stop-color="#36D2C0"/>
            <stop offset="1" stop-color="#0D3D61"/>
        </linearGradient>
    </defs>
</svg>
